<svg width="600" height="600" viewBox="0 0 600 600" fill="none" xmlns="http://www.w3.org/2000/svg">
<path d="M287 2.00004C267.133 7.53337 253.733 21 248.533 40.4667C247.067 46 246.667 66.2 246.667 142.933V238.533L243.467 242.267L240.2 246L141.133 246.733C34.3333 247.467 38.3333 247.2 25.4 255C-7.46667 274.733 -7.46667 325.267 25.4 345C38.3333 352.8 34.3333 352.533 140.933 353.267L239.933 354L242.933 357.067L246 360.067L246.733 459.067C247.467 565.667 247.2 561.667 255 574.6C274.733 607.467 325.267 607.467 345 574.6C352.8 561.667 352.533 565.667 353.267 459.067L354 360.067L357.067 357.067L360.067 354L459.067 353.267C565.667 352.533 561.667 352.8 574.6 345C607.467 325.267 607.467 274.733 574.6 255C561.667 247.2 565.667 247.467 459.067 246.733L360.067 246L357.067 242.933L354 239.933L353.267 140.933C352.533 34.3334 352.8 38.3334 345 25.4C333.733 6.53337 307.8 -3.86663 287 2.00004Z" fill="white"/>
</svg>
