<svg width="293" height="498" viewBox="0 0 293 498" fill="none" xmlns="http://www.w3.org/2000/svg">
<path d="M243.643 0.515902C243.643 0.810694 242.943 1.17918 241.911 1.43713C238.927 2.21095 234.099 4.79038 231.52 7.00132C228.388 9.72814 10.3157 227.8 7.29404 231.227C6.07803 232.627 4.82516 234.138 4.56722 234.544C3.38805 236.423 1.7667 240.329 1.14027 242.835C0.255891 246.335 0.182193 252.747 0.99287 254.995C1.28766 255.842 1.5456 256.911 1.5456 257.353C1.58245 258.68 4.56722 264.06 6.77816 266.676C9.65238 270.103 229.309 489.649 231.852 491.639C234.173 493.444 234.763 493.813 236.826 494.808C241.543 497.056 244.012 497.645 248.618 497.645C253.666 497.645 257.646 496.65 261.441 494.439C262.399 493.887 263.321 493.408 263.431 493.408C264.279 493.408 283.772 474.357 286.388 470.93C290.257 465.918 292.026 460.686 292.063 454.348C292.1 448.783 290.736 444.214 287.567 439.24C286.72 437.913 253.777 404.712 192.534 343.432C141.019 291.844 98.8269 249.431 98.8269 249.136C98.8269 248.878 140.798 206.686 192.128 155.355C243.422 104.061 286.02 61.3167 286.757 60.3586C287.53 59.4374 288.746 57.3738 289.52 55.8262C294.126 46.3929 292.91 34.9697 286.425 26.9735C283.956 23.915 270.064 9.83869 267.079 7.40666C264.131 5.01148 259.451 2.43205 256.467 1.58452C255.214 1.25288 254.329 0.773845 254.329 0.479053C254.329 0.110564 253.187 1.6991e-05 248.986 1.6991e-05C244.675 1.6991e-05 243.643 0.110564 243.643 0.515902Z" fill="white"/>
</svg>
