<svg width="526" height="563" viewBox="0 0 526 563" fill="none" xmlns="http://www.w3.org/2000/svg">
<path d="M179.533 3.19999C166.2 11.3333 166.133 29.4667 179.4 35.8C186.533 39.1333 339.467 39.1333 346.6 35.8C360.133 29.3333 359.4 9.86665 345.4 2.53332C339 -0.800014 185.067 -0.200014 179.533 3.19999Z" fill="white"/>
<path d="M14.3333 76.3333C2.86664 79.2 -2.73336 92.8 3.1333 103.267C7.9333 111.867 10.6 112.667 34.8666 112.667H56.3333V307C56.4 518 56.1333 511.067 63.7333 526.2C71.3333 541.333 83.6 552.533 99.7333 558.933L109 562.667H262.333H415.667L424.667 559.533C440.533 554.067 454.467 541.733 462.267 526.2C469.867 511.067 469.6 518 469.667 307V112.667H491.133C515.4 112.667 518.067 111.867 522.867 103.267C527.667 94.6667 525.4 84.8 517.2 79L513 76L265 75.8C128.6 75.7333 15.8 75.9333 14.3333 76.3333ZM432 304.667C432.267 441.2 431.933 498.067 430.867 503.2C429.067 512.067 420.133 521.8 411.533 524.4C404.133 526.533 122.333 526.733 114.467 524.533C106.4 522.267 97 512.067 95.1333 503.467C93.5333 495.8 92.9333 115.2 94.5333 113.533C95.0666 113.067 171.133 112.8 263.533 113L431.667 113.333L432 304.667Z" fill="white"/>
<path d="M193 189.933C189.333 191.467 184.8 196.533 183.067 201.067C180.733 207.333 181.133 432.8 183.533 438.533C189 451.6 204.733 454.733 214.4 444.6L218.333 440.467L218.667 321.2C219.067 189.333 219.533 196.733 210.6 191.267C206.2 188.6 197.8 187.933 193 189.933Z" fill="white"/>
<path d="M315.4 191.2C306.467 196.8 306.933 189.4 307.333 321.2L307.667 440.467L311.6 444.6C321.267 454.733 337 451.6 342.467 438.533C345.2 432 345.267 206.667 342.533 200.267C338 189.8 324.733 185.333 315.4 191.2Z" fill="white"/>
</svg>
