<svg width="301" height="301" viewBox="0 0 301 301" fill="none" xmlns="http://www.w3.org/2000/svg">
<path d="M263.513 1.33594C260.263 2.00391 257.747 2.82774 255.364 4.00782C250.867 6.25665 249.776 7.14727 239.622 17.2559C234.435 22.3992 230.093 26.7856 229.959 27.0305C229.759 27.3867 232.52 30.2367 251.512 49.2293C263.513 61.2305 273.488 71.0941 273.733 71.1609C274.067 71.2723 275.915 69.5356 282.484 62.9895C291.568 53.9273 293.55 51.7898 295.175 49.3629C300.029 42.0152 301.588 32.5969 299.317 24.2695C298.537 21.3973 296.956 17.5898 295.865 15.9422C290.9 8.46094 285.067 4.07462 277.207 1.93712C273.088 0.801569 267.41 0.556647 263.513 1.33594Z" fill="white"/>
<path d="M166.168 90.6879C120.301 136.555 116.427 140.496 115.915 141.698C115.603 142.411 115.336 143.19 115.336 143.435C115.336 143.658 115.18 144.482 115.002 145.239C114.824 145.996 114.223 148.979 113.688 151.852C112.62 157.396 112.152 159.734 111.662 162.094C111.484 162.895 111.195 164.298 111.016 165.211C110.816 166.124 110.527 167.571 110.348 168.439C110.17 169.286 109.413 173.16 108.656 177.012C107.921 180.864 107.164 184.604 106.986 185.295C106.474 187.254 106.541 189.792 107.142 191.017C108.589 194 111.729 195.225 115.514 194.29C116.204 194.112 117.629 193.8 118.676 193.6C119.722 193.377 121.214 193.087 122.016 192.909C122.817 192.754 125.868 192.152 128.807 191.596C131.746 191.039 134.752 190.438 135.486 190.282C136.221 190.104 137.668 189.792 138.715 189.592C139.761 189.391 141.053 189.124 141.609 188.991C142.166 188.879 143.123 188.679 143.725 188.59C144.348 188.501 145.795 188.211 146.953 187.966C148.111 187.699 151.206 187.076 153.811 186.586C156.438 186.074 159.043 185.473 159.6 185.228C160.468 184.849 169.152 176.299 210.477 134.974C237.864 107.587 260.285 85.0101 260.285 84.832C260.285 84.2976 216.845 40.9687 216.311 40.9687C216.021 40.9687 199.077 57.757 166.168 90.6879Z" fill="white"/>
<path d="M31.0604 51.4336C26.8077 52.2129 24.9151 52.8141 21.0409 54.6844C14.0272 58.0465 7.9487 63.9024 4.00769 71.1387C2.47136 73.9664 0.823705 78.9539 0.244799 82.6277C-0.0891858 84.6539 -0.0891858 267.655 0.222533 269.548C1.15769 274.891 2.64949 278.966 5.25456 283.241C8.41628 288.451 13.2257 293.171 18.703 296.4C20.4843 297.446 24.4921 299.161 26.496 299.74C30.4815 300.898 22.4214 300.809 125.021 300.809C210.944 300.809 219.94 300.786 221.075 300.452C226.798 298.827 229.781 297.513 233.767 294.841C236.505 292.993 240.669 289.097 242.562 286.625C244.387 284.198 247.594 278.454 247.594 277.586C247.594 277.43 247.683 277.207 247.794 277.096C248.017 276.829 248.751 274.557 249.241 272.531C250.288 268.279 250.265 269.325 250.265 214.129C250.265 164.61 250.243 162.138 249.842 160.646C249.197 158.153 248.306 156.572 246.592 154.857C244.12 152.386 241.248 151.184 237.819 151.184C231.919 151.184 227.154 154.857 225.484 160.646C225.306 161.292 225.194 175.364 225.105 214.195L224.994 266.854L224.259 268.523C222.857 271.774 220.274 274.223 216.845 275.559L215.197 276.205H125.021H34.8456L33.2425 275.582C29.4573 274.09 27.0526 271.752 25.6721 268.234L25.0487 266.631V176.01V85.3887L25.6499 83.9859C26.9413 80.9801 29.1678 78.5754 31.951 77.2172C34.801 75.8367 31.2385 75.9258 87.3702 75.9258C122.773 75.9258 139.049 75.859 139.962 75.6809C141.876 75.3469 144.682 73.9219 145.996 72.6305C151.295 67.4426 151.428 59.5606 146.307 54.5508C144.637 52.9031 143.146 52.0348 140.986 51.4113C139.539 50.9883 138.114 50.9883 86.3905 51.0106C35.9366 51.0328 33.1757 51.0551 31.0604 51.4336Z" fill="white"/>
</svg>
