<svg width="138" height="104" viewBox="0 0 138 104" fill="none" xmlns="http://www.w3.org/2000/svg">
<g clip-path="url(#clip0_54_10)">
<path d="M7.82012 0.123438C7.3834 0.174219 6.34746 0.448438 5.94121 0.621094C4.41777 1.26094 3.57481 1.80938 2.59981 2.77422C1.30996 4.05391 0.639649 5.29297 0.111523 7.33438C-0.0306641 7.89297 -0.0306641 10.5945 0.111523 11.2039C0.345117 12.1586 0.954492 13.6008 1.44199 14.3117C2.41699 15.7336 4.02168 17.0844 5.38262 17.6328C5.68731 17.7547 6.04277 17.8969 6.17481 17.9477C6.78418 18.1914 8.29746 18.4453 9.08965 18.4453C10.41 18.4453 11.9842 18.0492 13.2436 17.4094C15.5998 16.2211 17.1842 14.2305 18.0373 11.3867C18.3014 10.5234 18.3014 7.98438 18.0373 7.12109C17.4787 5.25234 16.8592 4.13516 15.7014 2.92656C14.96 2.15469 13.9037 1.34219 13.2943 1.07813C13.1623 1.02734 12.9795 0.935938 12.8982 0.885157C12.685 0.753126 12.0451 0.519532 11.3443 0.316407C10.7654 0.153907 8.60215 0.0320319 7.82012 0.123438Z" fill="white"/>
<path d="M37.1819 2.00234C35.5062 2.32734 33.9827 3.29219 32.9874 4.67344C31.9921 6.03437 31.6265 7.31406 31.7077 9.10156C31.7991 10.8992 32.3882 12.2297 33.6679 13.5195C34.4601 14.3016 35.1812 14.7789 36.2374 15.1852L36.9179 15.4492H84.246C129.99 15.4492 131.594 15.4391 132.133 15.2664C133.026 14.9617 133.565 14.6977 134.164 14.2508C136.764 12.3516 137.698 8.95937 136.449 6.00391C135.738 4.33828 134.134 2.86562 132.305 2.20547L131.574 1.94141L84.6015 1.93125C58.2562 1.92109 37.4358 1.95156 37.1819 2.00234Z" fill="white"/>
<path d="M7.0584 42.6883C3.50371 43.5922 0.984961 46.1109 0.141992 49.625C-0.0408203 50.3664 -0.0408203 52.9461 0.141992 53.6875C0.903711 56.8461 2.95527 59.1414 6.04277 60.3094C7.79981 60.9797 10.3592 60.9797 12.1365 60.3094C15.092 59.2023 17.1334 56.9477 18.0373 53.7891C18.3014 52.8648 18.3014 50.4578 18.0373 49.5234C17.0318 45.9789 14.5334 43.5312 11.0498 42.6781C10.1764 42.4648 7.92168 42.475 7.0584 42.6883Z" fill="white"/>
<path d="M37.1719 44.9531C35.6891 45.1969 34.0336 46.2328 33.0586 47.5328C32.0937 48.8023 31.6875 50.0312 31.6875 51.6562C31.6875 53.2812 32.0937 54.5102 33.0586 55.7797C33.8711 56.8664 34.9883 57.6586 36.5117 58.2172C36.9992 58.4 38.4414 58.4102 84.3477 58.4102H131.676L132.377 58.1359C135.799 56.7852 137.678 53.3523 136.805 50.0516C136.449 48.7008 135.952 47.8477 134.987 46.8828C134.134 46.0297 133.839 45.8469 132.184 45.0852C131.787 44.9125 130.112 44.9023 84.7031 44.8922C58.8148 44.882 37.4258 44.9125 37.1719 44.9531Z" fill="white"/>
<path d="M7.31231 85.0602C5.85996 85.4055 5.07793 85.7305 4.01152 86.4516C2.06152 87.7516 0.670117 89.7828 0.111523 92.1086C-0.0306641 92.718 -0.0306641 95.4195 0.111523 95.9781C0.639649 98.0195 1.30996 99.2586 2.59981 100.538C3.35137 101.28 4.35684 101.991 5.14902 102.346C6.85527 103.108 7.29199 103.199 9.08965 103.199C10.2678 103.199 10.7654 103.159 11.2732 103.006C12.0147 102.803 12.6748 102.559 12.8982 102.427C12.9795 102.377 13.1623 102.285 13.2943 102.234C14.3506 101.777 16.199 100.071 16.8592 98.9336C17.9256 97.1055 18.2201 96.0594 18.2201 94.0586C18.2201 92.5148 18.149 92.0781 17.7022 90.9102C16.8592 88.7062 15.2748 86.9289 13.2436 85.9031C11.385 84.9586 9.13027 84.6336 7.31231 85.0602Z" fill="white"/>
<path d="M37.0195 87.9141C36.2883 88.0664 35.4453 88.432 34.6836 88.9398C32.7641 90.2195 31.6875 92.2711 31.6875 94.6172C31.6875 96.2219 32.0836 97.4102 33.0383 98.7C33.9016 99.8578 35.1609 100.731 36.6133 101.188C37.2023 101.361 38.7969 101.371 84.3477 101.371H131.473L132.184 101.148C134.997 100.254 137.008 97.5422 137.008 94.6172C137.008 92.4437 135.941 90.3617 134.164 89.0617C133.605 88.6453 133.118 88.4016 132.184 88.0562C131.696 87.8734 130.203 87.8633 84.5508 87.8531C58.632 87.843 37.243 87.8734 37.0195 87.9141Z" fill="white"/>
</g>
<defs>
<clipPath id="clip0_54_10">
<rect width="138" height="104" fill="white"/>
</clipPath>
</defs>
</svg>
