<svg width="415" height="415" viewBox="0 0 415 415" fill="none" xmlns="http://www.w3.org/2000/svg">
<path d="M29.2145 19.3625C23.4594 21.9962 21.7036 23.8495 19.0699 29.7022C17.119 33.9941 17.0215 35.5548 17.0215 160.411C17.0215 246.542 17.3141 287.9 18.0945 290.437C18.6797 292.485 20.6306 295.899 22.4839 297.947C28.7267 304.873 28.1415 304.776 69.0123 304.776H105.591L105.981 327.893C106.274 347.987 106.567 351.597 108.127 354.816C110.566 359.79 116.711 364.863 121.881 366.131C124.612 366.813 138.756 367.204 160.801 367.204H195.527V383.006C195.527 396.369 195.819 399.588 197.38 402.905C199.526 407.684 204.988 412.366 210.061 413.927C212.792 414.707 239.714 415 305.849 415H397.93L402.807 412.659C408.562 410.025 410.318 408.172 412.952 402.319C414.902 398.027 415 396.467 415 271.611C415 185.48 414.707 144.121 413.927 141.585C412.659 137 406.904 130.367 402.612 128.514C400.173 127.539 391.394 127.246 363.009 127.246H326.528L326.04 110.859C325.65 97.7877 325.26 93.886 323.894 90.8621C321.456 85.8874 315.408 80.9126 310.14 79.547C307.409 78.8642 293.265 78.474 271.221 78.474H236.495V55.7464C236.495 35.8474 236.202 32.6285 234.642 29.1169C232.496 24.3373 227.033 19.6552 221.961 18.0945C219.23 17.3141 192.308 17.0215 126.173 17.0215H34.0916L29.2145 19.3625ZM220.4 33.1162C222.546 35.2622 222.839 36.2376 222.839 43.3583V51.1618H126.758H30.6776V43.3583C30.6776 36.2376 30.9702 35.2622 33.1162 33.1162L35.4573 30.6776H126.758H218.059L220.4 33.1162ZM222.839 71.646V78.474H174.457C142.463 78.474 124.71 78.8642 121.881 79.547C116.809 80.8151 110.566 85.8874 108.42 90.4719C107.542 92.2277 106.567 97.3 106.176 101.689L105.494 109.688H84.1316H62.7695L60.4285 112.127C57.3071 115.151 57.3071 117.882 60.4285 120.906L62.7695 123.344H84.3267H105.786V137V150.656H84.3267H62.7695L60.4285 153.095C57.5021 156.021 57.4046 158.362 60.0383 161.776L61.9892 164.313H83.9365H105.786V177.969V191.625H85.3021C62.867 191.625 59.7456 192.21 58.5751 196.99C57.9899 199.428 59.2579 203.233 61.3063 204.501C61.8916 204.891 72.1337 205.281 84.1316 205.281H105.786V219.425V233.569H83.9365C60.7211 233.569 59.9407 233.666 58.4776 238.348C57.5997 241.079 59.6481 245.176 62.3793 246.249C63.8425 246.835 74.1821 247.225 85.3997 247.225H105.786V269.172V291.119H70.4755C50.9667 291.119 34.5794 290.729 33.9941 290.339C30.7752 288.193 30.6776 286.242 30.6776 175.14V64.8179H126.758H222.839V71.646ZM309.555 94.4712C311.311 96.1295 311.604 97.3975 311.604 105.006V113.59H216.011H120.418V105.006C120.418 96.1295 121.101 94.3737 125.295 92.813C126.075 92.5204 167.434 92.3253 217.084 92.4228C304.483 92.6179 307.604 92.7154 309.555 94.4712ZM311.604 238.348V349.548L309.067 351.499C306.434 353.547 306.044 353.547 216.011 353.547C125.978 353.547 125.588 353.547 122.954 351.499L120.418 349.548V238.348V127.246H216.011H311.604V238.348ZM398.027 141.682C400.368 143.146 401.344 146.95 401.344 153.973V161.386H363.79H326.235V151.144V140.902H361.644C381.055 140.902 397.442 141.292 398.027 141.682ZM401.344 285.755V396.564L398.905 398.905L396.564 401.344H305.263H213.962L211.621 398.905C209.28 396.662 209.183 396.174 209.183 381.835V367.204H257.564C290.827 367.204 307.214 366.813 310.336 366.033C313.359 365.35 316.286 363.594 319.212 360.668L323.699 356.474H346.427H369.252L371.593 354.035C372.959 352.767 374.032 350.719 374.032 349.646C374.032 348.573 372.959 346.524 371.593 345.256L369.252 342.818H347.695H326.235V329.161V315.505H347.695H369.252L371.593 313.067C374.714 310.043 374.714 307.312 371.593 304.288L369.252 301.849H347.695H326.235V288.193V274.537H347.597C366.521 274.537 369.154 274.342 370.91 272.781C374.032 270.245 374.519 266.636 372.081 263.515L370.032 260.881H348.085H326.235V247.225V233.569H346.719C368.764 233.569 371.203 233.081 373.056 228.691C374.227 225.863 373.154 222.351 370.715 220.693C370.13 220.303 359.888 219.912 347.987 219.912H326.235V197.477V175.042H363.79H401.344V285.755Z" fill="#F2726E"/>
<path d="M210.63 172.842L210.63 172.842C225.18 171.324 242.739 176.785 254.857 186.569C291.358 216.01 284.125 273.576 241.472 292.847C199.873 311.653 152.794 281.254 152.794 235.589C152.794 202.538 176.977 176.372 210.63 172.842ZM255.173 202.778L255.172 202.777C255.081 202.668 254.991 202.564 254.904 202.465C254.415 202.944 253.761 203.589 252.958 204.383C251.046 206.275 248.291 209.011 244.898 212.388C238.112 219.143 228.777 228.461 218.535 238.71L218.535 238.71L182.385 274.874L182.446 274.93C182.447 274.93 182.448 274.931 182.449 274.932C196.987 288.041 220.683 290.806 238.982 281.424C268.248 266.42 276.211 227.632 255.173 202.778ZM254.101 201.622C254.101 201.622 254.101 201.622 254.102 201.622L254.101 201.622ZM246.652 194.6L246.41 194.414C239.767 189.315 231.331 185.857 222.239 184.526C192.075 180.117 164.106 204.625 164.106 235.562C164.106 246.666 168.413 259.317 174.564 266.714L210.64 230.625L246.652 194.6Z" fill="#F2726E" stroke="#F2726E" stroke-width="3"/>
</svg>
