<svg width="544" height="544" viewBox="0 0 544 544" fill="none" xmlns="http://www.w3.org/2000/svg">
<path d="M16.6667 3.19997C8.8 6.79997 6.4 9.33331 2.8 17.3333C0.133333 23.2 0 25.3333 0 196C0 313.733 0.4 370.267 1.46667 373.733C2.26667 376.533 4.93333 381.2 7.46667 384C16 393.467 15.2 393.333 71.0667 393.333H121.067L121.6 424.933C122 452.4 122.4 457.333 124.533 461.733C127.867 468.533 136.267 475.467 143.333 477.2C147.067 478.133 166.4 478.667 196.533 478.667H244V500.267C244 518.533 244.4 522.933 246.533 527.467C249.467 534 256.933 540.4 263.867 542.533C267.6 543.6 304.4 544 394.8 544H520.667L527.333 540.8C535.2 537.2 537.6 534.667 541.2 526.667C543.867 520.8 544 518.667 544 348C544 230.267 543.6 173.733 542.533 170.267C540.8 164 532.933 154.933 527.067 152.4C523.733 151.067 511.733 150.667 472.933 150.667H423.067L422.4 128.267C421.867 110.4 421.333 105.067 419.467 100.933C416.133 94.1333 407.867 87.3333 400.667 85.4666C396.933 84.5333 377.6 84 347.467 84H300V52.9333C300 25.7333 299.6 21.3333 297.467 16.5333C294.533 9.99997 287.067 3.59997 280.133 1.46664C276.4 0.399972 239.6 -2.83718e-05 149.2 -2.83718e-05H23.3333L16.6667 3.19997ZM278 22C280.933 24.9333 281.333 26.2666 281.333 36V46.6666H150H18.6667V36C18.6667 26.2666 19.0667 24.9333 22 22L25.2 18.6666H150H274.8L278 22ZM281.333 74.6666V84H215.2C171.467 84 147.2 84.5333 143.333 85.4666C136.4 87.2 127.867 94.1333 124.933 100.4C123.733 102.8 122.4 109.733 121.867 115.733L120.933 126.667H91.7333H62.5333L59.3333 130C55.0667 134.133 55.0667 137.867 59.3333 142L62.5333 145.333H92H121.333V164V182.667H92H62.5333L59.3333 186C55.3333 190 55.2 193.2 58.8 197.867L61.4667 201.333H91.4667H121.333V220V238.667H93.3333C62.6667 238.667 58.4 239.467 56.8 246C56 249.333 57.7333 254.533 60.5333 256.267C61.3333 256.8 75.3333 257.333 91.7333 257.333H121.333V276.667V296H91.4667C59.7333 296 58.6667 296.133 56.6667 302.533C55.4667 306.267 58.2667 311.867 62 313.333C64 314.133 78.1333 314.667 93.4667 314.667H121.333V344.667V374.667H73.0667C46.4 374.667 24 374.133 23.2 373.6C18.8 370.667 18.6667 368 18.6667 216.133V65.3333H150H281.333V74.6666ZM399.867 105.867C402.267 108.133 402.667 109.867 402.667 120.267V132H272H141.333V120.267C141.333 108.133 142.267 105.733 148 103.6C149.067 103.2 205.6 102.933 273.467 103.067C392.933 103.333 397.2 103.467 399.867 105.867ZM402.667 302.533V454.533L399.2 457.2C395.6 460 395.067 460 272 460C148.933 460 148.4 460 144.8 457.2L141.333 454.533V302.533V150.667H272H402.667V302.533ZM520.8 170.4C524 172.4 525.333 177.6 525.333 187.2V197.333H474H422.667V183.333V169.333H471.067C497.6 169.333 520 169.867 520.8 170.4ZM525.333 367.333V518.8L522 522L518.8 525.333H394H269.2L266 522C262.8 518.933 262.667 518.267 262.667 498.667V478.667H328.8C374.267 478.667 396.667 478.133 400.933 477.067C405.067 476.133 409.067 473.733 413.067 469.733L419.2 464H450.267H481.467L484.667 460.667C486.533 458.933 488 456.133 488 454.667C488 453.2 486.533 450.4 484.667 448.667L481.467 445.333H452H422.667V426.667V408H452H481.467L484.667 404.667C488.933 400.533 488.933 396.8 484.667 392.667L481.467 389.333H452H422.667V370.667V352H451.867C477.733 352 481.333 351.733 483.733 349.6C488 346.133 488.667 341.2 485.333 336.933L482.533 333.333H452.533H422.667V314.667V296H450.667C480.8 296 484.133 295.333 486.667 289.333C488.267 285.467 486.8 280.667 483.467 278.4C482.667 277.867 468.667 277.333 452.4 277.333H422.667V246.667V216H474H525.333V367.333Z" fill="#F2726E"/>
<path d="M204 226.4C195.333 229.067 195.2 236.533 203.467 245.333L209.733 252L203.467 258.667C196.533 266 195.467 271.467 200 276C204.4 280.4 208.8 279.333 216.4 272.133L223.333 265.6L230.267 272.133C237.867 279.333 242.267 280.4 246.667 276C251.2 271.467 250.133 266 243.067 258.533L236.933 251.867L243.067 245.6C250 238.667 251.333 232.8 247.067 228.933C242 224.533 237.067 225.467 229.467 232.667L223.2 238.533L218 233.333C212.667 227.867 207.467 225.333 204 226.4Z" fill="#F2726E"/>
<path d="M298.133 228.133C292.533 232.533 293.333 237.867 300.933 245.6L307.2 252L300.667 258.667C293.2 266.267 292 272 297.2 276.267C302.267 280.267 306.267 279.333 313.733 272.133L320.667 265.6L327.6 272.133C335.333 279.467 339.333 280.267 343.733 275.6C348.4 270.667 347.467 266.133 340.533 258.667L334.267 252L340.533 245.333C347.467 238 348.533 232.8 344 228.667C339.2 224.4 333.867 225.467 326.933 232.4L320.533 238.667L316 233.867C311.467 229.333 305.467 225.333 302.933 225.333C302.267 225.333 300.133 226.533 298.133 228.133Z" fill="#F2726E"/>
<path d="M252.133 318.133C235.067 322.667 216.933 335.733 207.733 349.867C202 358.667 201.333 364 205.333 368C210.533 373.2 216.667 371.067 221.867 362.133C226.533 354.133 237.2 344.8 247.867 339.6C256.267 335.6 257.467 335.333 272 335.333C286.4 335.333 287.867 335.6 296.267 339.6C306.8 344.533 316 352.667 322.267 362.267C327.067 369.867 331.333 372 336.8 369.467C345.867 365.333 342.533 354.667 327.333 339.2C317.2 328.8 304.667 321.467 291.067 318C281.467 315.467 261.6 315.6 252.133 318.133Z" fill="#F2726E"/>
</svg>
