<svg width="190" height="194" viewBox="0 0 190 194" fill="none" xmlns="http://www.w3.org/2000/svg">
<path d="M86.8555 1.18457C42.6661 8.14258 24.6241 61.292 55.4346 93.7383C57.3145 95.7158 58.6085 97.3516 58.2911 97.3516C57.3633 97.3516 48.9161 101.551 44.668 104.139C22.5733 117.615 5.80084 141.37 0.844782 166.15C-1.79194 179.358 4.79986 190.296 16.7872 192.566C20.2051 193.226 169.522 193.226 172.94 192.566C185.317 190.223 191.641 179.261 188.638 165.247C183.34 140.418 167.007 117.542 145.059 104.139C140.689 101.478 132.437 97.3516 131.46 97.3516C131.143 97.3516 132.412 95.7158 134.292 93.7383C170.156 55.9941 137.93 -6.87207 86.8555 1.18457ZM104.898 15.8086C136.123 23.7676 146.499 62.8545 123.33 85.2178C97.3536 110.291 53.8477 91.8828 53.8477 55.7988C53.8477 28.8213 78.921 9.19238 104.898 15.8086ZM76.4551 107.41C77.7247 107.825 78.7501 108.216 78.7501 108.289C78.7501 108.338 76.5284 113.855 73.794 120.569C66.2012 139.197 66.2745 139.637 78.6768 152.186C87.7344 161.316 89.6876 162.562 95.1075 162.513C100.137 162.488 102.09 161.219 111.099 152.112C123.403 139.686 123.477 139.197 115.933 120.569C112.661 112.537 111.172 108.289 111.514 108.069C118.203 103.919 139.956 114.539 153.774 128.675C167.544 142.713 179.312 169.251 174.819 176.014C172.378 179.676 179.092 179.383 94.8633 179.383C10.5372 179.383 17.3731 179.676 14.8585 175.965C13.418 173.841 13.6133 170.618 15.5176 164.002C23.2569 137.366 42.4464 117.151 68.6671 108.069C73.4278 106.434 73.5743 106.409 76.4551 107.41ZM102.065 123.133C104.824 130.042 107.07 135.926 107.07 136.194C107.07 136.463 104.336 139.417 100.967 142.762L94.8633 148.841L88.7598 142.762C85.4151 139.417 82.6563 136.438 82.6563 136.17C82.6319 135.901 84.9024 130.018 87.6612 123.108L92.6661 110.535H94.8633H97.0606L102.065 123.133Z" fill="white"/>
</svg>
