<svg width="161" height="181" viewBox="0 0 161 181" fill="none" xmlns="http://www.w3.org/2000/svg">
<g clip-path="url(#clip0_10_52)">
<path d="M6.64244 0.91362C4.14152 1.89398 2.16079 3.77467 0.960353 6.3156L0 8.31634L0.0200073 81.3432C0.0200073 163.813 -0.30011 155.991 3.10114 159.472C6.2623 162.713 4.48165 162.573 42.8357 162.573H76.8282V170.296C76.8282 181.06 77.2884 181.5 85.2313 178.459L89.973 176.638L94.4747 178.399C99.6366 180.46 100.377 180.54 101.917 179.219L103.038 178.259L103.158 170.416L103.278 162.573H118.023C136.53 162.573 137.691 162.293 140.672 156.911C141.832 154.79 141.852 154.71 141.992 147.467L142.112 140.165H147.314C155.137 140.165 158.258 138.844 160.099 134.783C161.239 132.282 161.219 112.375 160.079 109.854C159.299 108.173 159.299 108.133 160.099 106.352C161.259 103.751 161.119 82.6036 159.939 80.803C159.238 79.7226 159.238 79.6425 160.039 78.0019C161.299 75.381 161.299 55.2936 160.039 52.6726C159.238 51.032 159.238 50.952 159.939 49.8716C160.819 48.5111 161.279 27.9235 160.479 25.2225C159.138 20.7409 156.097 19.2003 148.194 19.0003L142.132 18.8402L141.992 13.3782C141.792 5.71538 139.911 2.41417 134.769 0.773568C131.348 -0.346844 95.7552 -0.206792 94.3146 0.91362C92.1939 2.59424 92.7341 5.97548 95.275 6.87581C96.1353 7.17592 102.458 7.31597 114.722 7.31597H132.889L133.869 8.29633L134.85 9.27669V81.3432V153.41L133.869 154.39L132.889 155.37H79.4492H26.0096V81.3632V7.33598L46.0169 7.23594L66.0042 7.1159L66.9846 6.11553C68.4852 4.57496 68.5252 2.57423 67.0446 1.09369L66.0643 0.113326L37.3337 0.133333C9.96366 0.15334 8.50312 0.193355 6.64244 0.91362ZM18.8069 81.3432V155.37H13.8651C9.08334 155.37 8.92328 155.33 7.96292 154.33L7.00257 153.31V81.3432V9.37673L7.96292 8.35635C8.92328 7.35599 9.08334 7.31597 13.8651 7.31597H18.8069V81.3432ZM153.316 26.7831C153.997 27.3833 154.057 28.2437 154.057 36.7868C154.057 48.5311 154.557 47.7308 147.254 47.7308H142.052V36.9268V26.1229H147.314C151.656 26.1229 152.716 26.2429 153.316 26.7831ZM153.436 55.4136C153.957 56.1539 154.057 57.8145 154.057 65.3373C154.057 76.9616 154.557 76.1413 147.434 76.1413H142.052V65.3373V54.5333H147.434C152.536 54.5333 152.836 54.5733 153.436 55.4136ZM153.256 83.744C154.017 84.5043 154.057 85.0845 154.057 93.8077C154.057 105.432 154.597 104.552 147.394 104.552H142.052V93.7477V82.9438H147.254C151.916 82.9438 152.536 83.0238 153.256 83.744ZM153.636 112.535C153.897 112.995 154.057 116.896 154.057 122.398C154.057 133.822 154.597 132.962 147.394 132.962H142.052V122.358V111.754H147.634C152.756 111.754 153.256 111.814 153.636 112.535ZM96.0353 167.015C96.0353 171.096 95.9752 171.436 95.335 171.176C94.9549 171.016 93.5944 170.516 92.3139 170.056L89.993 169.195L87.3121 170.156C85.8315 170.676 84.411 171.176 84.1309 171.276C83.7508 171.416 83.6307 170.396 83.6307 167.015V162.573H89.833H96.0353V167.015Z" fill="#F2726E"/>
<path d="M79.029 0.573509C75.8278 2.33416 77.0483 7.0759 80.6896 7.0759C83.8108 7.0759 85.1913 3.17446 82.7904 1.15372C81.4899 0.0533182 80.3295 -0.126748 79.029 0.573509Z" fill="#F2726E"/>
<path d="M75.0277 27.7835C70.3859 28.6638 63.9236 33.0054 61.5827 36.7868L60.7224 38.2073L58.0614 37.9272C37.5339 35.8865 29.3509 64.6571 47.9777 73.4203L50.7988 74.7408L50.8188 88.0657C50.8188 102.511 50.8988 103.111 52.9996 104.072C54.7202 104.852 105.699 104.752 107.219 103.971C109.1 102.991 109.24 101.891 109.24 87.7455V74.6407L111.941 73.3202C130.308 64.3169 122.065 35.9665 101.677 37.9473C99.0565 38.2073 99.0365 38.1873 98.3562 37.0269C94.3547 30.1844 84.011 26.0829 75.0277 27.7835ZM85.1714 35.3663C88.7527 36.5868 91.5937 39.1477 93.6545 43.0291C95.4151 46.3103 96.3755 46.6905 100.077 45.47C102.638 44.6497 106.439 44.9098 108.74 46.0702C118.724 51.1721 116.723 65.7975 105.739 68.1583C102.378 68.8786 102.038 69.5989 102.038 75.8012V80.943H80.0295H58.0214V76.1613C58.0214 69.5589 57.5412 68.6985 53.4197 67.9583C47.0974 66.8379 42.8758 59.3551 44.9966 52.9928C47.0574 46.7905 53.2997 43.7694 60.2222 45.6101C63.5434 46.4904 64.3037 46.1303 66.1444 42.8691C70.2059 35.6264 77.5286 32.7453 85.1714 35.3663ZM101.958 92.6473L102.058 97.3491H80.0495H58.0214V92.5473V87.7455L79.9295 87.8456L101.837 87.9456L101.958 92.6473Z" fill="#F2726E"/>
<path d="M48.1176 111.634C45.6567 112.114 44.8764 115.476 46.7771 117.396L47.9575 118.557H79.6292C112.221 118.557 112.321 118.557 113.522 116.996C114.402 115.836 114.142 113.595 113.001 112.515L111.981 111.554L80.4895 111.514C63.1831 111.474 48.6178 111.534 48.1176 111.634Z" fill="#F2726E"/>
<path d="M52.7794 129.081C50.9387 130.481 50.8987 133.142 52.6994 134.563C53.6998 135.343 54.28 135.363 79.9094 135.363H106.099L107.279 134.203C108.88 132.582 108.52 129.541 106.619 128.801C105.299 128.3 53.4597 128.561 52.7794 129.081Z" fill="#F2726E"/>
</g>
<defs>
<clipPath id="clip0_10_52">
<rect width="161" height="181" fill="white"/>
</clipPath>
</defs>
</svg>
