<svg width="537" height="600" viewBox="0 0 537 600" fill="none" xmlns="http://www.w3.org/2000/svg">
<path d="M22.1333 2.66667C13.8 5.93334 7.2 12.2 3.2 20.6667L0 27.3333L0.0666667 270.667C0.0666667 545.467 -1 519.4 10.3333 531C20.8667 541.8 14.9333 541.333 142.733 541.333H256V567.067C256 602.933 257.533 604.4 284 594.267L299.8 588.2L314.8 594.067C332 600.933 334.467 601.2 339.6 596.8L343.333 593.6L343.733 567.467L344.133 541.333H393.267C454.933 541.333 458.8 540.4 468.733 522.467C472.6 515.4 472.667 515.133 473.133 491L473.533 466.667H490.867C516.933 466.667 527.333 462.267 533.467 448.733C537.267 440.4 537.2 374.067 533.4 365.667C530.8 360.067 530.8 359.933 533.467 354C537.333 345.333 536.867 274.867 532.933 268.867C530.6 265.267 530.6 265 533.267 259.533C537.467 250.8 537.467 183.867 533.267 175.133C530.6 169.667 530.6 169.4 532.933 165.8C535.867 161.267 537.4 92.6667 534.733 83.6667C530.267 68.7333 520.133 63.6 493.8 62.9333L473.6 62.4L473.133 44.2C472.467 18.6667 466.2 7.66667 449.067 2.20001C437.667 -1.53333 319.067 -1.06666 314.267 2.66667C307.2 8.26667 309 19.5333 317.467 22.5333C320.333 23.5333 341.4 24 382.267 24H442.8L446.067 27.2667L449.333 30.5333V270.667V510.8L446.067 514.067L442.8 517.333H264.733H86.6667V270.733V24.0667L153.333 23.7333L219.933 23.3333L223.2 20C228.2 14.8667 228.333 8.20001 223.4 3.26667L220.133 5.34254e-06L124.4 0.066672C33.2 0.133339 28.3333 0.266672 22.1333 2.66667ZM62.6667 270.667V517.333H46.2C30.2667 517.333 29.7333 517.2 26.5333 513.867L23.3333 510.467V270.667V30.8667L26.5333 27.4667C29.7333 24.1333 30.2667 24 46.2 24H62.6667V270.667ZM510.867 88.8667C513.133 90.8667 513.333 93.7333 513.333 122.2C513.333 161.333 515 158.667 490.667 158.667H473.333V122.667V86.6667H490.867C505.333 86.6667 508.867 87.0667 510.867 88.8667ZM511.267 184.267C513 186.733 513.333 192.267 513.333 217.333C513.333 256.067 515 253.333 491.267 253.333H473.333V217.333V181.333H491.267C508.267 181.333 509.267 181.467 511.267 184.267ZM510.667 278.667C513.2 281.2 513.333 283.133 513.333 312.2C513.333 350.933 515.133 348 491.133 348H473.333V312V276H490.667C506.2 276 508.267 276.267 510.667 278.667ZM511.933 374.6C512.8 376.133 513.333 389.133 513.333 407.467C513.333 445.533 515.133 442.667 491.133 442.667H473.333V407.333V372H491.933C509 372 510.667 372.2 511.933 374.6ZM320 556.133C320 569.733 319.8 570.867 317.667 570C316.4 569.467 311.867 567.8 307.6 566.267L299.867 563.4L290.933 566.6C286 568.333 281.267 570 280.333 570.333C279.067 570.8 278.667 567.4 278.667 556.133V541.333H299.333H320V556.133Z" fill="#f2726e"/>
<path d="M263.333 1.53334C252.667 7.40001 256.733 23.2 268.867 23.2C279.267 23.2 283.867 10.2 275.867 3.46668C271.533 -0.199989 267.667 -0.799989 263.333 1.53334Z" fill="#f2726e"/>
<path d="M250 92.2C234.533 95.1333 213 109.6 205.2 122.2L202.333 126.933L193.467 126C125.067 119.2 97.7999 215.067 159.867 244.267L169.267 248.667L169.333 293.067C169.333 341.2 169.6 343.2 176.6 346.4C182.333 349 352.2 348.667 357.267 346.067C363.533 342.8 364 339.133 364 292V248.333L373 243.933C434.2 213.933 406.733 119.467 338.8 126.067C330.067 126.933 330 126.867 327.733 123C314.4 100.2 279.933 86.5333 250 92.2ZM283.8 117.467C295.733 121.533 305.2 130.067 312.067 143C317.933 153.933 321.133 155.2 333.467 151.133C342 148.4 354.667 149.267 362.333 153.133C395.6 170.133 388.933 218.867 352.333 226.733C341.133 229.133 340 231.533 340 252.2V269.333H266.667H193.333V253.4C193.333 231.4 191.733 228.533 178 226.067C156.933 222.333 142.867 197.4 149.933 176.2C156.8 155.533 177.6 145.467 200.667 151.6C211.733 154.533 214.267 153.333 220.4 142.467C233.933 118.333 258.333 108.733 283.8 117.467ZM339.733 308.333L340.067 324H266.733H193.333V308V292L266.333 292.333L339.333 292.667L339.733 308.333Z" fill="#f2726e"/>
<path d="M160.333 371.6C152.133 373.2 149.533 384.4 155.867 390.8L159.8 394.667H265.333C373.933 394.667 374.267 394.667 378.267 389.467C381.2 385.6 380.333 378.133 376.533 374.533L373.133 371.333L268.2 371.2C210.533 371.067 162 371.267 160.333 371.6Z" fill="#f2726e"/>
<path d="M175.867 429.733C169.733 434.4 169.6 443.267 175.6 448C178.933 450.6 180.867 450.667 266.267 450.667H353.533L357.467 446.8C362.8 441.4 361.6 431.267 355.267 428.8C350.867 427.133 178.133 428 175.867 429.733Z" fill="#f2726e"/>
</svg>
