<svg width="85" height="109" viewBox="0 0 85 109" fill="none" xmlns="http://www.w3.org/2000/svg">
<path d="M5.15502 0.610764C3.47738 1.26614 2.1487 2.5234 1.34343 4.22203L0.699219 5.55954L0.71264 54.3786C0.71264 109.511 0.497903 104.281 2.77949 106.608C4.90002 108.775 10 108.681 17.7348 108.681H40.5372H58.2798H68.171C80.5855 108.681 81.3639 108.494 83.3636 104.896C84.142 103.479 84.1555 103.425 84.2494 98.5832L84.3299 93.7013L84.2897 88.8863V81.7975V74.7087V69.8937V62.6711V55.4486V50.9011V43.6785V36.456V31.9085V24.6859V17.4634L84.3434 12.5948L84.2494 8.94344C84.1152 3.82078 82.8536 1.61389 79.4044 0.517136C77.1094 -0.231869 53.2335 -0.138241 52.2672 0.610764C50.8446 1.73427 51.207 3.99466 52.9114 4.59653C53.4885 4.79716 57.7294 4.89079 65.9565 4.89079H78.1428L78.8004 5.54617L79.4581 6.20155V54.3786V102.556L78.8004 103.211L78.1428 103.866H42.2954H10C6.79239 103.866 6.68502 103.84 6.04081 103.171L5.3966 102.489V54.3786V6.26842L6.04081 5.58629C6.68502 4.91753 6.79239 4.89079 10 4.89079L19.8687 4.83729L33.2764 4.75703L33.934 4.08828C34.9406 3.0584 34.9674 1.7209 33.9743 0.73114L33.3167 0.0757599L14.044 0.0891342C9.50029 0.0757599 6.40318 0.129261 5.15502 0.610764Z" fill="#F2726E"/>
<path d="M42.0135 0.383416C39.8661 1.56042 40.6848 4.73032 43.1274 4.73032C45.2211 4.73032 46.1472 2.12218 44.5366 0.771293C43.6643 0.035664 42.8859 -0.0847117 42.0135 0.383416Z" fill="#F2726E"/>
<path d="M39.3293 18.5735C36.2157 19.162 31.8806 22.0644 30.3104 24.5923L29.7333 25.5419L27.9483 25.3547C14.1782 23.9904 8.68902 43.2238 21.184 49.0821L23.0764 49.9648L23.0898 58.8726C23.0898 68.5294 23.1435 68.9307 24.5527 69.5727C25.707 70.0943 59.9039 70.0274 60.9239 69.5058C62.1854 68.8504 62.2794 68.1148 62.2794 58.6586V49.8979L64.0912 49.0152C76.4118 42.9964 70.8823 24.0439 57.2062 25.368C55.4481 25.5419 55.4346 25.5285 54.9783 24.7528C52.2941 20.1785 45.3554 17.4366 39.3293 18.5735ZM46.1338 23.6427C48.5362 24.4585 50.442 26.1706 51.8244 28.7653C53.0054 30.9588 53.6496 31.213 56.1325 30.3971C57.8504 29.8487 60.4004 30.0226 61.9439 30.7983C68.641 34.209 67.2989 43.9862 59.9307 45.5644C57.676 46.0459 57.4478 46.5274 57.4478 50.6737V54.1111H42.6846H27.9214V50.9144C27.9214 46.5007 27.5993 45.9255 24.8346 45.4307C20.5935 44.6817 17.7617 39.6794 19.1843 35.4261C20.5667 31.2798 24.7541 29.2602 29.3977 30.4907C31.6256 31.0792 32.1356 30.8385 33.3704 28.6583C36.0949 23.8165 41.007 21.8905 46.1338 23.6427ZM57.3941 61.9355L57.4612 65.0787H42.698H27.9214V61.8686V58.6586L42.6175 58.7255L57.3136 58.7924L57.3941 61.9355Z" fill="#F2726E"/>
<path d="M21.278 74.6285C19.6272 74.9495 19.1037 77.1965 20.3787 78.4805L21.1706 79.2562H42.4161C64.2791 79.2562 64.3462 79.2562 65.1515 78.213C65.742 77.4372 65.5675 75.9392 64.8025 75.217L64.118 74.575L42.9933 74.5482C31.384 74.5215 21.6135 74.5616 21.278 74.6285Z" fill="#F2726E"/>
<path d="M24.405 86.2915C23.1703 87.2278 23.1434 89.0067 24.3513 89.9563C25.0224 90.4779 25.4116 90.4913 42.604 90.4913H60.1722L60.964 89.7156C62.0377 88.6322 61.7961 86.5992 60.5211 86.1043C59.6353 85.7699 24.8613 85.9438 24.405 86.2915Z" fill="#F2726E"/>
</svg>
