<svg width="294" height="294" viewBox="0 0 294 294" fill="none" xmlns="http://www.w3.org/2000/svg">
<path d="M23.4191 1.20685C12.5249 4.04454 3.48996 13.2752 1.01105 24.1693C-0.619804 31.3451 -0.456718 263.84 1.20676 270.136C4.10969 281.323 13.7644 290.423 25.3109 292.837C31.8343 294.207 264.819 293.75 270.135 292.348C281.03 289.51 290.065 280.28 292.543 269.385C293.979 262.992 294.109 63.8318 292.641 60.4723C291.467 57.765 235.137 1.59825 232.691 0.684971C229.103 -0.652333 28.6052 -0.163076 23.4191 1.20685ZM55.4491 55.7754C55.7753 93.9049 55.7753 94.2963 57.2431 97.9168C61.5159 108.452 69.8333 115.465 80.7927 117.781C87.2509 119.151 188.103 119.151 194.561 117.781C205.814 115.4 214.556 107.376 218.763 95.601C219.22 94.2963 219.579 80.4992 219.807 55.4492L220.166 17.2871L223.069 17.0914L225.939 16.8631L251.283 42.2066L276.594 67.5176V165.108C276.594 269.744 276.724 265.993 273.365 270.657C272.582 271.766 270.559 273.495 268.896 274.474L265.83 276.268H252.131H238.432L238.105 228.646C237.779 181.776 237.747 180.96 236.377 177.601C231.973 166.87 224.243 160.02 213.806 157.541C207.51 156.073 86.1419 156.106 79.6185 157.574C69.5398 159.857 61.5159 167.033 57.1778 177.601C55.8079 180.96 55.7753 181.776 55.4491 228.646L55.123 276.268H41.3585H27.6267L24.4302 274.278C22.4405 273.071 20.4835 271.114 19.2767 269.124L17.287 265.928V146.843V27.7246L19.1136 24.626C22.995 18.0373 26.1263 17.0588 42.7284 17.1893L55.123 17.2871L55.4491 55.7754ZM202.553 53.4922C202.553 92.9264 202.585 92.6328 198.834 96.4816C193.942 101.472 198.378 101.146 136.796 100.95L81.7712 100.787L79.0966 98.9932C77.5962 98.0146 75.5739 95.8293 74.5628 94.1006L72.7362 91.002L72.5405 54.8295C72.4427 34.933 72.5079 18.2656 72.7036 17.809C72.9646 17.124 84.8372 16.9936 137.775 17.124L202.553 17.2871V53.4922ZM209.696 174.143C213.349 174.991 217.296 177.992 219.187 181.384L220.818 184.287V230.277V276.268H146.777H72.7362L72.5405 231.908C72.4101 201.118 72.6058 186.636 73.095 184.613C74.3345 179.59 78.64 175.35 83.7282 174.143C86.729 173.426 206.63 173.426 209.696 174.143Z" fill="white"/>
<path d="M171.99 37.2162C166.348 38.847 165.695 41.2281 165.695 59.3959C165.695 76.1937 166.054 77.9877 169.87 80.3035C175.937 83.9892 182.624 79.8142 182.721 72.3123C182.982 51.1763 182.721 43.1199 181.71 41.1955C180.112 38.0316 175.546 36.1724 171.99 37.2162Z" fill="white"/>
</svg>
