<svg width="206" height="237" viewBox="0 0 206 237" fill="none" xmlns="http://www.w3.org/2000/svg">
<path d="M162.757 0.245178C162.757 0.420303 162.424 0.525391 161.671 0.612946C158.291 0.963211 153.388 2.48685 149.71 4.34323C142.687 7.88086 136.54 13.9229 132.933 20.8405C127.976 30.2975 127.083 40.8929 130.376 50.8228C130.656 51.6459 130.884 52.4865 130.884 52.6792C130.884 52.9944 130.306 53.4497 128.729 54.3779C128.572 54.4655 127.101 55.3762 125.49 56.3744C123.878 57.3727 121.584 58.7912 120.393 59.5268C119.202 60.2623 118.046 60.9803 117.819 61.1204C117.591 61.2605 116.26 62.0837 114.859 62.9593C113.458 63.8174 112.11 64.6581 111.882 64.7982C111.654 64.9383 110.341 65.7614 108.957 66.602C107.574 67.4602 105.069 69.0188 103.388 70.0521C101.707 71.1029 99.22 72.644 97.8715 73.4671C96.523 74.3078 94.4389 75.6037 93.2305 76.3568C92.0221 77.1098 89.7104 78.5459 88.0642 79.5617C85.6124 81.0678 81.6895 83.5021 79.6579 84.763C79.4303 84.9031 78.0993 85.7262 76.7333 86.5669C75.3497 87.425 73.0555 88.8611 71.602 89.7717C70.1659 90.6824 68.7999 91.488 68.5897 91.5756C68.3971 91.6807 68.1694 91.8383 68.0993 91.9258C67.8191 92.3987 67.1536 92.0309 65.56 90.5248C59.2728 84.5354 51.4795 80.8751 42.9682 79.9294C31.4271 78.6685 19.7809 82.7315 11.6023 90.8751C8.3099 94.1675 6.06823 97.2848 4.01921 101.488C-0.288997 110.262 -1.0946 119.894 1.67246 129.334C2.3905 131.785 2.61816 132.398 3.68646 134.658C5.73548 139.036 8.13477 142.416 11.6199 145.883C17.907 152.136 26.1557 156.006 35.0873 156.917C38.4498 157.249 43.1258 157.057 45.455 156.461C46.0154 156.321 46.6459 156.216 46.8736 156.216C47.1012 156.216 47.6266 156.111 48.0644 155.971C48.4848 155.831 49.5531 155.516 50.4112 155.253C55.8227 153.607 61.1642 150.437 65.56 146.251C67.1536 144.745 67.8191 144.377 68.0993 144.85C68.1694 144.938 68.3971 145.095 68.5897 145.2C68.7999 145.288 70.1659 146.094 71.602 147.004C73.0555 147.915 75.3497 149.351 76.7333 150.209C78.0993 151.05 79.4303 151.873 79.6579 152.013C81.6895 153.274 85.6124 155.708 88.0642 157.214C89.7104 158.23 92.0221 159.666 93.2305 160.419C94.4389 161.172 96.523 162.468 97.8715 163.309C99.22 164.132 101.707 165.673 103.388 166.724C105.069 167.757 107.591 169.316 108.957 170.174C110.341 171.015 111.654 171.838 111.882 171.978C112.11 172.118 113.458 172.941 114.859 173.817C116.26 174.675 117.591 175.516 117.819 175.656C118.046 175.796 119.202 176.514 120.393 177.249C121.584 177.985 123.878 179.403 125.49 180.402C127.101 181.4 128.572 182.311 128.729 182.398C130.306 183.326 130.884 183.782 130.884 184.097C130.884 184.29 130.656 185.13 130.376 185.953C129.447 188.755 129.062 190.542 128.694 193.606C127.048 207.372 133.335 221.347 144.894 229.543C151.146 233.974 159.377 236.601 167.083 236.601C171.566 236.601 175.927 235.795 181.058 234.027C182.529 233.536 186.733 231.33 188.466 230.156C195.104 225.673 199.85 219.858 203.09 212.258C204.631 208.65 205.839 202.293 205.839 197.95C205.822 193.256 204.631 186.987 203.09 183.536C200.655 178.09 198.291 174.482 194.876 170.997C192.232 168.318 191.058 167.354 188.151 165.463C185.226 163.572 183.3 162.626 179.395 161.207C175.051 159.631 169.552 158.948 164.281 159.333C161.549 159.544 161.023 159.614 158.554 160.174C151.601 161.768 145.157 165.323 139.92 170.454C139.255 171.102 138.589 171.628 138.432 171.628C138.169 171.628 136.768 170.804 130.796 167.092C129.36 166.181 126.996 164.727 125.542 163.834C124.106 162.941 121.777 161.505 120.376 160.629C118.975 159.754 116.54 158.248 114.947 157.267C113.353 156.286 110.884 154.745 109.43 153.852C107.994 152.959 105.682 151.523 104.299 150.665C102.915 149.824 101.602 149.001 101.374 148.861C101.146 148.721 99.8329 147.897 98.4494 147.057C97.0834 146.199 94.7717 144.763 93.3181 143.869C91.882 142.959 90.516 142.118 90.3059 141.996C89.868 141.733 85.6474 139.141 83.3357 137.705C82.4775 137.162 80.6212 136.006 79.2201 135.148C75.4548 132.819 75.017 132.521 75.017 132.188C75.017 132.031 75.2622 131.155 75.5599 130.262C76.1729 128.423 76.418 127.39 76.9609 124.518C77.2937 122.801 77.3462 121.891 77.3462 118.388C77.3462 114.885 77.2937 113.975 76.9609 112.258C76.418 109.386 76.1729 108.353 75.5599 106.497C75.2622 105.586 75.017 104.728 75.017 104.57C75.017 104.255 75.4898 103.922 79.2201 101.628C80.6212 100.77 82.4775 99.6141 83.3357 99.0712C84.2113 98.5458 86.0502 97.4074 87.4162 96.5493C88.7997 95.7087 90.1132 94.8855 90.3409 94.7454C90.5686 94.6053 91.7244 93.8873 92.8803 93.1693C94.0536 92.4512 95.192 91.7332 95.4197 91.5931C95.6473 91.453 96.9958 90.6124 98.3969 89.7542C99.8154 88.8786 101.146 88.0555 101.374 87.9154C101.602 87.7753 102.915 86.9521 104.299 86.1115C105.682 85.2534 107.994 83.8173 109.43 82.9241C110.884 82.031 113.353 80.4898 114.947 79.5091C116.54 78.5284 118.817 77.1098 120.025 76.3568C121.234 75.6037 123.563 74.1676 125.192 73.1519C126.838 72.1536 129.36 70.595 130.796 69.7018C136.663 66.0416 138.169 65.1484 138.432 65.1484C138.589 65.1484 139.325 65.7439 140.078 66.4794C144.369 70.6475 149.377 73.7123 154.876 75.5161C157.661 76.4443 158.344 76.6195 161.006 77.0923C164.771 77.7753 172.477 77.5652 175.297 76.707C175.577 76.602 176.172 76.4619 176.61 76.3743C180.043 75.6212 184.613 73.6247 188.151 71.313C191.058 69.4216 192.249 68.4409 194.806 65.8315C198.256 62.3464 200.673 58.6686 203.09 53.2396C203.72 51.8035 204.526 49.0365 205.139 46.0592C205.489 44.448 205.822 40.8228 205.839 38.8264C205.839 34.5532 204.841 29.0716 203.265 24.9561C201.163 19.4395 196.768 13.2048 192.512 9.70221C191.811 9.1418 191.111 8.52884 190.936 8.37122C190.375 7.82832 187.065 5.67421 185.437 4.79857C181.636 2.71451 176.487 1.01575 172.687 0.612946C172.057 0.542908 171.636 0.402802 171.566 0.245178C171.426 -0.122589 162.757 -0.122589 162.757 0.245178ZM171.461 14.7109C175.244 15.4815 177.801 16.5148 180.62 18.3712C183.405 20.21 186.522 23.3624 187.836 25.6916C188.116 26.1995 188.414 26.6548 188.501 26.7074C188.624 26.7774 190.025 30.0173 190.515 31.3483C191.409 33.8001 191.916 37.9682 191.636 40.5777C191.216 44.6057 190.638 46.7072 189.062 49.8245C187.503 52.9243 185.577 55.3937 183.072 57.5128C178.064 61.7334 172.547 63.6248 166.015 63.3446C161.654 63.1519 158.974 62.3464 154.509 59.912C152.477 58.8087 149.29 55.9541 147.626 53.765C146.155 51.856 144.596 48.8963 143.861 46.6722C141.812 40.4551 142.32 33.4148 145.192 27.8807C146.838 24.6934 149.57 21.3834 152.162 19.4219C155.332 17.0051 158.484 15.6041 162.757 14.7109C164.946 14.2381 169.184 14.2556 171.461 14.7109ZM42.2501 94.0624C43.8613 94.3251 45.5601 94.7279 46.3832 95.0432C46.7685 95.1833 47.399 95.4285 47.7842 95.5686C51.2868 96.8996 54.8595 99.4389 57.3113 102.346C60.6738 106.322 62.4426 110.315 63.1256 115.323C63.3883 117.302 63.2482 121.33 62.8454 123.204C61.8297 128.038 59.518 132.328 56.0504 135.761C54.3691 137.442 53.1257 138.388 51.1993 139.509C49.2553 140.63 48.8 140.84 46.2956 141.768C42.8631 143.064 36.5759 143.292 33.1258 142.276C32.6705 142.136 32.1801 142.031 32.04 142.031C31.8999 142.031 31.5146 141.926 31.1994 141.785C30.8842 141.645 29.991 141.278 29.2204 140.962C25.8229 139.544 22.6355 137.267 20.2538 134.5C14.7372 128.108 12.8633 119.561 15.21 111.47C16.4184 107.232 19.168 102.907 22.4604 100.017C24.597 98.1605 27.2064 96.5668 29.8334 95.5335C30.2712 95.3584 30.8667 95.1132 31.1819 94.9906C31.4796 94.8505 31.8474 94.7454 32.0225 94.7454C32.1801 94.7454 32.6705 94.6404 33.1258 94.5003C33.5812 94.3602 34.4218 94.185 34.9997 94.08C36.4883 93.8523 40.8666 93.8348 42.2501 94.0624ZM172.354 173.887C176.05 174.71 179.552 176.374 182.459 178.703C184.491 180.349 187.1 183.361 188.256 185.393C189.465 187.512 190.498 189.946 190.796 191.382C190.883 191.803 190.988 192.223 191.058 192.31C191.198 192.538 191.461 194.307 191.654 196.338C191.899 198.93 191.391 203.028 190.515 205.428C190.025 206.776 188.624 209.999 188.484 210.069C188.414 210.121 188.099 210.594 187.783 211.137C186.47 213.466 183.44 216.531 180.726 218.335C174.211 222.678 166.032 223.624 158.554 220.927C157.065 220.384 153.966 218.685 152.547 217.634C149.045 215.042 146.12 211.242 144.334 207.004C142.81 203.379 142.249 198.458 142.88 194.254C143.37 190.909 144.193 188.633 146.015 185.463C149.657 179.158 155.927 174.868 163.37 173.624C165.419 173.291 170.235 173.431 172.354 173.887Z" fill="#f2726e"/>
</svg>
