<svg width="364" height="286" viewBox="0 0 364 286" fill="none" xmlns="http://www.w3.org/2000/svg">
<path d="M172.365 0.890627C167.649 1.29492 162.447 1.91485 160.91 2.23828C160.102 2.4 158.592 2.72344 157.541 2.91211C150.992 4.25977 150.83 4.28672 146.275 5.71524C144.819 6.17344 143.391 6.55078 143.121 6.55078C142.825 6.55078 142.205 6.7125 141.72 6.92813C141.234 7.14375 140.345 7.49414 139.752 7.70977C135.44 9.3 132.69 10.432 129.779 11.8066C128.459 12.4266 126.437 13.3699 125.278 13.909C124.146 14.448 122.421 15.3645 121.451 15.9844C120.454 16.5773 119.618 17.0625 119.537 17.0625C119.295 17.0625 113.877 20.3508 112.799 21.1594C112.206 21.5906 110.319 22.9383 108.567 24.1512C100.616 29.7574 92.9614 36.7652 86.4927 44.4199C85.2528 45.9023 83.986 47.4387 83.6895 47.843C83.3931 48.2203 82.4227 49.5141 81.5063 50.673C79.8083 52.8563 74.9298 60.1605 73.9595 61.9664C72.7466 64.2305 71.5337 66.3867 71.0216 67.2223C70.4555 68.0848 69.5661 69.9176 68.1915 72.9902C67.922 73.5832 67.4098 74.7422 67.0325 75.5508C66.6821 76.3594 66.0891 77.707 65.7657 78.5156C65.4423 79.3242 65.011 80.4023 64.7954 80.8875C64.5798 81.3727 64.418 81.9926 64.418 82.2352C64.418 82.5047 64.2833 82.8551 64.1216 83.0168C63.9598 83.1785 63.7442 83.7176 63.6095 84.2027C63.4747 84.7148 63.0704 85.9547 62.693 87.0059C62.3157 88.0301 61.9923 89.216 61.9923 89.6203C61.9923 90.0246 61.8845 90.402 61.7497 90.4828C61.6149 90.5637 61.4263 90.968 61.3454 91.3723C61.2376 91.8035 60.8333 93.5285 60.402 95.2266C58.677 101.992 57.8145 107.059 57.1677 114.013C57.0598 115.091 56.8712 116.088 56.7364 116.223C56.413 116.52 53.6098 117.328 52.8552 117.328C52.5587 117.328 51.777 117.49 51.1571 117.705C50.5102 117.894 49.2165 118.271 48.2462 118.541C47.2759 118.784 46.0899 119.161 45.6048 119.377C45.1196 119.592 44.5536 119.754 44.338 119.754C43.745 119.754 36.6024 123.123 33.6915 124.794C32.4786 125.468 30.0798 127.058 27.7618 128.675C24.0153 131.317 17.7622 137.273 15.1747 140.696C14.3661 141.775 13.5844 142.745 13.4497 142.826C13.288 142.907 12.2637 144.362 11.1587 146.06C8.16687 150.696 4.5821 157.973 3.39616 161.936C3.18054 162.663 2.69538 164.254 2.31804 165.439C1.9407 166.625 1.50945 168.431 1.34773 169.455C1.18601 170.48 0.997336 171.423 0.943429 171.531C0.86257 171.639 0.619992 173.094 0.404367 174.765C-0.0538362 178.377 -0.134696 188.269 0.296554 191.692C0.781711 195.708 2.23718 202.419 2.72234 202.877C2.8571 203.039 2.96491 203.389 2.96491 203.686C2.96491 204.279 3.58484 206.354 4.17781 207.756C4.36648 208.187 4.71687 209.104 4.9864 209.777C5.71413 211.664 8.8946 217.917 9.59538 218.861C9.94577 219.319 10.2423 219.777 10.2423 219.858C10.2423 220.127 13.1802 224.305 14.7704 226.354C15.579 227.378 17.8969 229.884 19.9184 231.906C26.3333 238.294 32.7212 242.633 41.2384 246.353C41.7505 246.568 42.3973 246.865 42.6669 247C43.5024 247.431 47.8149 248.886 49.0009 249.156C49.6477 249.291 50.2946 249.479 50.4563 249.56C50.8337 249.803 54.0411 250.423 56.3321 250.719C57.3024 250.854 58.704 251.096 59.4317 251.258C60.402 251.474 69.8626 251.555 92.8536 251.501L124.928 251.42L125.009 240.908C125.036 235.113 125.009 230.127 124.928 229.777L124.793 229.184L95.8723 229.157C79.997 229.157 65.577 229.049 63.879 228.914C58.111 228.483 53.1516 227 47.1411 223.955C44.6884 222.715 41.3192 220.424 38.004 217.729C35.6052 215.788 30.6188 209.777 29.5677 207.594C29.4598 207.379 29.1364 206.839 28.8669 206.408C26.7376 203.066 24.8509 198.161 23.5841 192.554C22.6946 188.538 22.7755 177.784 23.7458 174.091C23.9075 173.498 24.2309 172.259 24.4466 171.369C25.336 168 27.2227 163.714 29.6216 159.671C33.6376 152.933 41.0766 146.249 48.5696 142.718C51.1571 141.505 55.0923 139.969 55.6583 139.969C55.9009 139.969 56.6825 139.78 57.3833 139.591C59.4317 138.945 63.2591 138.379 66.7091 138.217C69.9434 138.082 71.911 137.678 73.4743 136.896C75.6036 135.791 78.4337 132.503 78.838 130.643C78.9458 130.212 79.1345 129.565 79.2692 129.188C79.404 128.81 79.6196 125.845 79.7544 122.584C79.997 117.193 80.4821 112.8 81.129 109.916C81.2638 109.323 81.3985 108.434 81.3985 107.921C81.3985 107.409 81.5602 106.385 81.7759 105.63C82.3688 103.501 82.7731 101.938 82.9888 100.752C83.1235 100.159 83.3391 99.3234 83.5278 98.9191C83.6895 98.4879 83.8243 97.8141 83.8243 97.4098C83.8243 97.0055 83.9321 96.5742 84.0669 96.4125C84.2016 96.2777 84.4442 95.7387 84.579 95.2266C84.7407 94.7145 85.2528 93.259 85.738 91.9922C86.1962 90.7254 86.7622 89.216 86.9778 88.65C87.8403 86.2512 91.5329 78.5426 92.638 76.8445C93.0423 76.1977 93.6083 75.2543 93.8778 74.7422C94.1743 74.2301 94.7403 73.2867 95.1716 72.6398C95.6028 71.993 95.9532 71.373 95.9532 71.2383C95.9532 70.8609 102.314 62.3977 104.255 60.1875C108.379 55.5246 115.467 48.7594 119.133 46.0102C120.103 45.2824 121.262 44.4199 121.693 44.0695C122.745 43.2879 128.081 39.7031 128.216 39.7031C128.27 39.7031 129.483 39.0023 130.938 38.1398C134.254 36.1453 142.259 32.2102 143.93 31.7789C144.711 31.5633 146.571 30.8625 147.218 30.5121C147.703 30.2695 152.447 28.7332 155.008 28.0055C155.843 27.7629 156.786 27.5742 157.11 27.5742C157.433 27.5742 157.918 27.4664 158.188 27.3316C158.862 26.9543 163.767 25.957 164.845 25.957C165.331 25.957 166.49 25.7684 167.433 25.5527C170.02 24.9598 180.99 24.2859 184.899 24.4746C190.667 24.7441 198.159 25.5797 201.07 26.2805C201.744 26.4422 202.822 26.6578 203.496 26.7656C204.871 26.9813 206.811 27.4395 208.617 27.9516C212.283 29.0297 215.733 30.1348 217.512 30.8625C218.617 31.3207 220.018 31.8598 220.611 32.0754C221.77 32.5066 222.902 32.9648 224.331 33.6117C225.571 34.1777 233.414 38.3016 234.25 38.8406C234.654 39.0832 235.732 39.784 236.676 40.35C242.147 43.7461 249.182 49.3254 253.979 54.0961C259.693 59.8102 267.186 69.3785 269.801 74.3379C269.963 74.6344 270.636 75.8473 271.283 77.0332C274.356 82.4238 278.534 92.0731 279.477 95.9004C279.585 96.3586 279.827 96.9785 279.989 97.302C280.178 97.6254 280.313 98.1645 280.313 98.4879C280.313 98.8113 280.501 99.7277 280.717 100.536C280.933 101.318 281.31 102.612 281.526 103.393C281.741 104.202 281.93 105.091 281.93 105.388C281.93 106.87 284.059 111.129 285.649 112.827C286.35 113.582 288.479 114.875 289.611 115.253C292.468 116.169 293.87 116.52 294.652 116.52C295.784 116.52 303.384 118.703 304.732 119.43C305.029 119.592 305.918 119.97 306.727 120.293C308.883 121.155 313.708 123.743 314.84 124.632C315.379 125.064 315.918 125.414 316.026 125.414C316.672 125.414 325.163 132.718 325.944 133.985C326.079 134.174 326.942 135.225 327.858 136.276C329.637 138.352 329.826 138.621 331.604 141.316C334.084 145.09 337.076 151.316 337.75 154.065C337.885 154.631 338.1 155.278 338.235 155.548C338.451 155.979 338.747 157.003 339.61 160.588C339.987 162.151 340.31 164.873 340.688 169.752C340.876 172.474 340.849 174.118 340.526 177.164C339.933 182.959 339.448 185.412 338.019 189.832C336.995 193.066 336.618 193.983 335.001 197.244C333.329 200.64 333.195 200.856 332.009 202.689C331.577 203.309 331.254 203.875 331.254 203.955C331.254 204.117 329.583 206.3 328.316 207.837C328.02 208.187 327.319 209.023 326.78 209.723C324.381 212.661 319.583 216.866 315.486 219.588C307.32 225.06 297.967 228.348 288.803 228.914C286.889 229.022 274.895 229.13 262.2 229.157L239.101 229.184L238.94 230.046C238.859 230.531 238.832 235.545 238.859 241.178L238.94 251.42L265.758 251.501C288.965 251.555 292.738 251.501 293.951 251.15C294.733 250.935 295.892 250.746 296.538 250.746C297.886 250.746 301.552 249.964 306.053 248.725C306.808 248.509 307.643 248.293 307.94 248.213C308.883 247.997 314.597 245.733 316.834 244.682C318.02 244.143 319.529 243.442 320.203 243.118C321.281 242.633 324.651 240.666 326.618 239.372C327.022 239.102 327.588 238.779 327.885 238.617C329.745 237.674 336.914 231.852 340.014 228.779C342.952 225.841 348.235 219.615 348.235 219.076C348.235 218.968 348.693 218.348 349.259 217.648C352.493 213.739 358.153 202.284 359.528 196.948C359.663 196.463 359.851 195.95 359.959 195.735C360.094 195.546 360.283 194.953 360.39 194.441C360.498 193.902 360.876 192.312 361.253 190.91C361.603 189.509 362.115 187.083 362.358 185.52C362.627 183.956 362.951 182.016 363.086 181.207C363.544 178.754 363.706 168.97 363.355 166.113C363.167 164.712 362.897 162.529 362.762 161.262C362.627 159.995 362.412 158.593 362.277 158.162C362.142 157.704 361.846 156.329 361.576 155.063C361.334 153.796 360.956 152.286 360.741 151.693C360.525 151.073 360.363 150.346 360.363 150.049C360.363 149.753 360.175 149.268 359.959 148.971C359.743 148.702 359.555 148.216 359.555 147.947C359.555 147.462 358.315 143.769 357.56 141.99C355.808 137.866 351.172 129.376 349.555 127.274C349.286 126.923 348.315 125.603 347.399 124.336C344.704 120.616 339.556 115.199 335.351 111.668C332.71 109.458 328.505 106.25 327.912 106.035C327.75 105.981 327.265 105.657 326.807 105.334C326.376 105.011 325.459 104.445 324.785 104.094C324.111 103.744 323.384 103.313 323.141 103.124C322.629 102.693 316.241 99.5391 315.918 99.5391C315.783 99.5391 315.325 99.3773 314.893 99.1617C314.489 98.9461 313.6 98.5688 312.926 98.3262C312.252 98.0836 311.497 97.7602 311.255 97.6254C310.689 97.3289 306.969 96.1969 303.816 95.3613C303.061 95.1457 302.522 94.3641 302.172 92.9356C302.037 92.3426 301.794 91.4801 301.659 91.0488C301.498 90.5906 301.174 89.5125 300.905 88.623C300.662 87.7336 300.312 86.5746 300.123 86.0625C299.934 85.5504 299.557 84.3914 299.288 83.502C298.829 81.9656 298.156 80.3215 297.024 77.8418C296.754 77.2488 296.08 75.6586 295.541 74.3379C294.301 71.3461 293.304 69.2438 292.549 67.977C292.226 67.4379 291.256 65.6859 290.393 64.0688C289.558 62.4516 288.048 59.918 287.051 58.4355C283.17 52.6137 281.202 49.7836 280.474 49.002C279.693 48.1934 277.725 45.7945 275.488 42.9645C274.814 42.1289 272.281 39.4605 269.828 37.0348C265.839 33.1266 264.276 31.725 260.637 28.7871C260.071 28.3289 258.777 27.2777 257.753 26.4422C254.95 24.1781 246.325 18.4102 243.387 16.8738C241.985 16.1191 239.802 14.9602 238.535 14.2863C234.977 12.3996 234.762 12.2918 232.471 11.3754C231.285 10.9172 229.722 10.2434 228.967 9.91992C225.948 8.54531 222.902 7.46719 218.32 6.11953C217.512 5.87696 216.649 5.58047 216.434 5.47266C216.191 5.36485 215.598 5.17617 215.086 5.09531C214.574 4.9875 213.658 4.71797 213.065 4.5293C212.472 4.34063 210.962 3.96328 209.695 3.72071C208.429 3.47813 206.731 3.12774 205.922 2.91211C203.092 2.23828 201.448 1.96875 198.24 1.67227C196.461 1.5375 194.575 1.29492 194.063 1.13321C192.85 0.782814 175.869 0.594142 172.365 0.890627Z" fill="black"/>
<path d="M178.214 138.891C177.432 139.16 176.139 139.861 175.384 140.4C173.201 141.963 128.836 186.355 128.836 187.002C128.836 187.325 131.612 190.29 136.329 195.007C142.151 200.883 143.93 202.5 144.388 202.446C144.765 202.392 149.644 197.729 157.379 190.021C168.214 179.212 170.101 177.461 170.398 177.757C170.452 177.811 170.532 202.096 170.613 231.744L170.748 285.65L181.772 285.731C190.424 285.785 192.85 285.731 193.038 285.462C193.146 285.273 193.254 260.934 193.254 231.394C193.254 189.697 193.335 177.703 193.577 177.703C193.766 177.703 199.561 183.336 206.461 190.236C213.361 197.136 219.129 202.77 219.291 202.77C219.614 202.77 235.031 187.352 235.031 187.002C235.031 186.84 224.573 176.275 211.798 163.526C189.912 141.694 188.429 140.292 186.65 139.43C184.979 138.621 184.467 138.513 182.203 138.432C180.209 138.379 179.319 138.486 178.214 138.891Z" fill="black"/>
</svg>
