<svg width="234" height="150" viewBox="0 0 234 150" fill="none" xmlns="http://www.w3.org/2000/svg">
<path d="M112.046 0.757401C109.413 0.878616 108.063 0.999847 104.599 1.48474C103.889 1.58865 102.746 1.72719 102.053 1.81378C101.378 1.88306 100.633 2.02159 100.426 2.07355C100.2 2.14282 99.5943 2.26404 99.0574 2.35063C98.5379 2.41991 97.7239 2.57576 97.2391 2.67967C96.7715 2.78357 95.7844 2.99138 95.0743 3.14725C94.3643 3.28578 93.3945 3.51091 92.9096 3.64946C88.4417 4.89633 85.2379 5.88344 84.372 6.24712C84.0603 6.38565 83.6966 6.48956 83.5581 6.48956C83.4195 6.48956 83.0559 6.59348 82.7441 6.73201C82.4324 6.87054 81.8609 7.09569 81.4799 7.23422C81.099 7.37277 80.2157 7.73643 79.5057 8.03084C78.813 8.32524 78.1723 8.56769 78.0857 8.56769C77.9125 8.56769 75.8863 9.4682 75.1243 9.88383C74.8819 10.0224 74.5702 10.1263 74.4316 10.1263C74.0506 10.1263 62.1534 16.1702 61.6339 16.6377C61.4953 16.7763 61.3048 16.8802 61.2355 16.8802C61.097 16.8802 59.8328 17.6422 58.5513 18.4734C58.3088 18.6466 57.9452 18.8544 57.7547 18.941C57.5642 19.0276 57.1139 19.3047 56.7329 19.5644C56.3693 19.8069 55.3129 20.465 54.395 21.0191C52.8191 21.9716 51.7108 22.7336 47.5719 25.6776C46.6021 26.353 45.615 27.063 45.3725 27.2189C44.3161 27.9462 41.7531 29.8858 39.8309 31.4271C39.0516 32.0505 37.9432 32.9337 37.3544 33.384C36.7656 33.8515 35.969 34.5096 35.6053 34.856C35.2243 35.2023 34.7394 35.618 34.5316 35.7565C33.6138 36.3799 28.228 41.2116 25.1108 44.1902C24.2103 45.0561 23.2578 45.922 23.0154 46.1298C22.0975 46.8398 12.3303 57.1265 10.8064 58.9969C10.4254 59.4471 9.1612 60.9538 7.96628 62.3565C6.77135 63.7419 5.57643 65.1793 5.28203 65.543C5.00495 65.9066 4.50273 66.4954 4.20833 66.8764C2.00898 69.4741 0.623568 71.5695 0.190625 72.9723C-0.0518229 73.7342 -0.0518229 76.4012 0.190625 77.1631C0.623568 78.5312 1.71458 80.2111 4.00052 83.0338C4.19102 83.2763 4.79713 84.0036 5.33398 84.679C5.87083 85.3371 6.35573 85.9259 6.40768 85.9779C6.52891 86.0644 9.73268 89.8397 10.8064 91.1385C12.1918 92.853 22.4092 103.59 23.0673 104.058C23.2405 104.179 24.141 105.01 25.0762 105.911C28.2107 108.924 33.5965 113.755 34.5316 114.379C34.7394 114.517 35.2243 114.933 35.6053 115.279C35.969 115.626 36.7656 116.284 37.3544 116.751C37.9432 117.202 39.0516 118.085 39.8309 118.708C41.7531 120.25 44.3161 122.189 45.3725 122.917C45.615 123.072 46.6021 123.782 47.5719 124.458C51.7108 127.402 52.8191 128.164 54.395 129.116C55.3129 129.67 56.3693 130.329 56.7329 130.571C57.1139 130.831 57.5642 131.108 57.7547 131.194C57.9452 131.281 58.3088 131.489 58.5513 131.662C59.8328 132.493 61.097 133.255 61.2355 133.255C61.3048 133.255 61.4953 133.359 61.6339 133.498C62.1534 133.965 74.0506 140.009 74.4316 140.009C74.5702 140.009 74.8819 140.113 75.1243 140.252C75.8863 140.667 77.9125 141.568 78.0857 141.568C78.1723 141.568 78.813 141.81 79.5057 142.105C80.2157 142.399 81.099 142.763 81.4799 142.901C81.8609 143.04 82.4324 143.265 82.7441 143.403C83.0559 143.542 83.4195 143.646 83.5581 143.646C83.6966 143.646 84.0603 143.75 84.372 143.888C85.2379 144.252 88.4417 145.239 92.9096 146.486C93.3945 146.624 94.3643 146.85 95.0743 146.988C95.7844 147.144 96.7715 147.352 97.2391 147.456C97.7239 147.56 98.5379 147.715 99.0574 147.785C99.5943 147.871 100.2 147.993 100.426 148.062C100.633 148.114 101.378 148.252 102.053 148.322C102.746 148.408 103.924 148.564 104.686 148.668C108.08 149.136 109.067 149.222 112.773 149.378C115.232 149.465 118.211 149.465 120.653 149.378C124.376 149.222 125.363 149.136 128.757 148.668C129.519 148.564 130.697 148.408 131.39 148.322C132.065 148.252 132.81 148.114 133.017 148.062C133.243 147.993 133.849 147.871 134.386 147.785C134.905 147.715 135.736 147.56 136.204 147.456C136.689 147.352 137.659 147.144 138.369 146.988C139.079 146.85 140.066 146.624 140.533 146.486C145.001 145.239 148.205 144.252 149.071 143.888C149.383 143.75 149.746 143.646 149.885 143.646C150.023 143.646 150.387 143.542 150.699 143.403C151.011 143.265 151.582 143.04 151.963 142.901C152.344 142.763 153.227 142.399 153.937 142.105C154.63 141.81 155.271 141.568 155.357 141.568C155.53 141.568 157.557 140.667 158.319 140.252C158.561 140.113 158.873 140.009 159.011 140.009C159.375 140.009 171.342 133.931 171.809 133.498C171.948 133.359 172.138 133.255 172.207 133.255C172.294 133.255 172.675 133.03 173.073 132.77C173.454 132.511 173.905 132.233 174.043 132.164C174.182 132.095 174.545 131.887 174.822 131.697C175.117 131.506 175.498 131.281 175.688 131.194C175.879 131.108 176.329 130.831 176.71 130.571C177.074 130.329 178.13 129.67 179.048 129.116C180.624 128.164 181.628 127.471 185.871 124.475C186.841 123.782 188.07 122.917 188.59 122.57C189.109 122.207 189.975 121.566 190.512 121.133C191.049 120.7 192.105 119.886 192.85 119.314C193.595 118.743 194.478 118.033 194.807 117.756C195.153 117.461 195.777 116.959 196.21 116.63C196.643 116.318 197.335 115.73 197.768 115.331C198.201 114.933 198.721 114.5 198.911 114.362C199.812 113.773 205.198 108.941 208.367 105.911C209.302 105.01 210.202 104.179 210.376 104.058C211.034 103.607 221.147 92.9396 222.619 91.1558C223.849 89.6838 226.914 86.0644 227.035 85.9779C227.087 85.9259 227.572 85.3371 228.109 84.679C228.646 84.0036 229.252 83.2763 229.442 83.0338C231.884 80.0552 232.941 78.3581 233.339 76.7822C234.084 73.8208 233.252 71.7427 229.442 67.1015C229.252 66.8591 228.646 66.1144 228.109 65.4564C227.572 64.781 227.087 64.2095 227.035 64.1575C226.914 64.0709 223.849 60.4515 222.619 58.9795C221.147 57.1958 211.034 46.5281 210.376 46.0779C210.202 45.9566 209.302 45.1254 208.367 44.2249C205.198 41.1943 199.812 36.3626 198.911 35.7738C198.721 35.6353 198.236 35.2196 197.855 34.8733C197.474 34.5096 196.677 33.8515 196.089 33.384C195.5 32.9337 194.391 32.0505 193.612 31.4271C191.69 29.8858 189.127 27.9462 188.07 27.2189C187.828 27.063 186.841 26.353 185.871 25.6776C181.576 22.6297 180.277 21.7291 178.892 20.9152C178.078 20.4476 177.108 19.8415 176.727 19.5818C176.346 19.3047 175.879 19.0276 175.688 18.941C175.498 18.8544 175.134 18.6466 174.892 18.4734C173.61 17.6422 172.346 16.8802 172.207 16.8802C172.138 16.8802 171.948 16.7763 171.809 16.6377C171.29 16.1702 159.392 10.1263 159.011 10.1263C158.873 10.1263 158.561 10.0224 158.319 9.88383C157.557 9.4682 155.53 8.56769 155.357 8.56769C155.271 8.56769 154.63 8.32524 153.937 8.03084C153.227 7.73643 152.344 7.37277 151.963 7.23422C151.582 7.09569 151.011 6.87054 150.699 6.73201C150.387 6.59348 150.023 6.48956 149.885 6.48956C149.746 6.48956 149.383 6.38565 149.071 6.24712C148.205 5.88344 145.001 4.89633 140.533 3.64946C140.066 3.51091 139.079 3.28578 138.369 3.14725C137.659 2.99138 136.689 2.78357 136.204 2.67967C135.736 2.57576 134.905 2.41991 134.386 2.33331C133.866 2.26404 133.087 2.10818 132.654 2.00427C132.221 1.90038 131.545 1.81378 131.147 1.81378C130.749 1.81378 130.212 1.72719 129.952 1.64061C129.71 1.5367 128.636 1.38084 127.562 1.29425C126.506 1.19034 125.103 1.0518 124.428 0.96521C122.713 0.740082 115.423 0.618851 112.046 0.757401ZM122.35 16.1875C122.921 16.2741 123.943 16.3607 124.618 16.3607C125.294 16.3607 126.073 16.4299 126.35 16.5338C126.627 16.6204 127.51 16.7763 128.324 16.8629C129.97 17.0534 134.005 17.9019 135.858 18.4388C136.533 18.6293 137.451 18.8717 137.901 18.9583C138.369 19.0449 138.819 19.1834 138.94 19.2527C139.044 19.3047 139.408 19.4259 139.737 19.4778C140.724 19.6857 142.178 20.1186 143.218 20.5169C143.737 20.7247 144.361 20.9498 144.603 21.0364C144.845 21.123 145.469 21.3482 145.988 21.556C146.508 21.7638 147.131 21.9889 147.374 22.0755C147.616 22.1621 148.24 22.3872 148.759 22.595C149.279 22.8028 149.902 23.028 150.145 23.0972C150.595 23.2358 151.686 23.738 154.734 25.1927C155.686 25.643 156.899 26.1971 157.418 26.4049C157.938 26.6301 158.457 26.8725 158.561 26.9591C158.665 27.0284 159.098 27.2881 159.514 27.5133C159.929 27.7384 160.553 28.0674 160.882 28.2579C161.211 28.4484 162.198 28.9679 163.046 29.4355C164.518 30.2321 167.393 31.8946 168.242 32.4661C168.657 32.7432 170.926 34.1806 171.411 34.4577C171.896 34.7521 174.043 36.2241 175.688 37.419C176.554 38.0251 177.368 38.5966 177.507 38.6659C177.645 38.7351 178.373 39.2547 179.117 39.8262C179.862 40.3976 180.849 41.1423 181.299 41.4713C181.749 41.8004 182.373 42.268 182.667 42.5104C182.962 42.7528 183.81 43.4109 184.538 43.9824C185.265 44.5539 186.927 45.922 188.226 47.013C189.525 48.1213 190.824 49.2124 191.118 49.4375C194.686 52.2776 207.189 64.729 211.397 69.6126C211.882 70.1841 213.043 71.5002 213.96 72.5566C214.878 73.5957 215.709 74.6348 215.813 74.8426C215.969 75.1716 215.709 75.5353 213.337 78.3061C207.155 85.493 198.461 94.2557 190.841 100.975C189.871 101.841 187.43 103.867 185.802 105.166C185.282 105.582 184.52 106.205 184.105 106.551C183.689 106.915 183.17 107.313 182.944 107.452C182.737 107.59 181.923 108.214 181.143 108.837C180.364 109.461 179.481 110.136 179.169 110.344C178.875 110.552 177.974 111.192 177.16 111.764C174.788 113.444 168.19 117.825 166.891 118.57C166.77 118.639 166.077 119.037 165.332 119.47C164.588 119.903 163.947 120.267 163.895 120.267C163.826 120.267 161.782 121.393 160.189 122.31C159.514 122.709 157.557 123.679 156.379 124.215C154.786 124.943 151.426 126.519 151.149 126.674C150.803 126.865 149.971 127.177 148.136 127.8C147.478 128.025 146.473 128.406 145.919 128.649C145.365 128.891 144.828 129.099 144.742 129.099C144.638 129.099 144.326 129.203 144.031 129.341C143.72 129.48 143.044 129.722 142.525 129.878C142.005 130.051 141.278 130.294 140.914 130.415C140.568 130.554 140.1 130.658 139.91 130.658C139.702 130.658 139.183 130.779 138.732 130.9C138.299 131.039 137.485 131.281 136.949 131.42C136.394 131.575 135.529 131.818 135.044 131.956C133.641 132.355 129.779 133.117 128.324 133.273C127.614 133.359 126.87 133.48 126.679 133.532C126.489 133.584 125.554 133.705 124.601 133.775C117.016 134.346 116.773 134.346 113.639 134.121C107.855 133.705 107.11 133.636 106.764 133.532C106.573 133.48 105.794 133.359 105.032 133.255C103.456 133.065 99.3865 132.216 97.5854 131.697C96.9273 131.506 95.9922 131.264 95.5419 131.177C95.0743 131.09 94.6241 130.952 94.5029 130.883C94.3989 130.831 94.0353 130.709 93.7062 130.658C92.7191 130.45 91.2644 130.017 90.2254 129.618C89.7058 129.411 89.0824 129.186 88.84 129.099C88.5975 129.012 87.9741 128.787 87.4546 128.579C86.935 128.372 86.3116 128.146 86.0691 128.06C85.8267 127.973 85.2032 127.748 84.6837 127.54C84.1642 127.333 83.5407 127.107 83.2983 127.038C82.848 126.9 81.757 126.397 78.7091 124.943C77.7566 124.492 76.5444 123.938 76.0249 123.713C75.5053 123.488 74.726 123.107 74.2758 122.847C73.1674 122.207 72.1803 121.652 70.3966 120.7C68.9246 119.903 66.0499 118.241 65.2013 117.669C64.7857 117.392 62.5171 115.955 62.0322 115.678C61.5473 115.383 59.3999 113.911 57.7547 112.716C56.9061 112.11 56.0749 111.556 55.9363 111.487C55.6939 111.383 53.2521 109.582 52.6633 109.062C52.5074 108.924 51.884 108.439 51.2605 107.971C49.2171 106.43 47.6065 105.131 45.2167 103.122C43.9178 102.031 42.5324 100.854 42.1341 100.525C38.7398 97.6846 30.6352 89.7704 25.3533 84.1595C22.4092 81.025 17.491 75.3448 17.491 75.085C17.491 74.9118 18.7033 73.4052 20.1579 71.76C20.5562 71.3271 21.2663 70.5131 21.7339 69.9417C24.903 66.2183 35.3109 55.6719 39.4845 51.9486C40.9565 50.6324 42.2553 49.4721 42.3419 49.3682C42.4458 49.2643 42.9134 48.866 43.381 48.5023C43.8659 48.1213 44.5932 47.4979 45.0435 47.1169C46.0479 46.1991 46.4635 45.87 47.9009 44.7444C48.559 44.2249 49.1305 43.7746 49.1824 43.7053C49.2344 43.6534 50.1349 42.9607 51.174 42.164C52.2303 41.3674 53.2867 40.5362 53.5465 40.2937C53.8062 40.0686 54.1699 39.7742 54.3604 39.6703C54.7241 39.4625 56.5078 38.2502 59.1401 36.3799C60.006 35.7565 61.5646 34.7347 62.6036 34.094C63.66 33.4532 64.9935 32.5873 65.5996 32.1717C66.2057 31.7561 66.7426 31.4271 66.7945 31.4271C66.8465 31.4271 67.4699 31.0807 68.1799 30.6478C68.8727 30.2148 69.4961 29.8685 69.548 29.8685C69.6173 29.8685 71.6608 28.7428 73.254 27.825C73.9294 27.4267 75.8863 26.4569 77.0639 25.92C78.6572 25.1927 82.0168 23.6168 82.2939 23.4609C82.6402 23.2704 83.4715 22.9587 85.3072 22.3353C85.9652 22.1101 86.9697 21.7291 87.5238 21.4867C88.078 21.2442 88.6148 21.0364 88.7014 21.0364C88.8053 21.0364 89.1171 20.9325 89.4115 20.794C89.931 20.5689 90.3466 20.4303 92.5286 19.7376C92.9789 19.5991 93.4811 19.4778 93.637 19.4778C93.7755 19.4778 94.2604 19.3566 94.7107 19.2354C95.1436 19.0968 95.9575 18.8544 96.5117 18.7159C97.0486 18.56 97.9144 18.3176 98.4167 18.179C99.8021 17.7807 103.664 17.0187 105.119 16.8629C105.829 16.7763 106.729 16.6377 107.11 16.5511C107.491 16.4473 108.669 16.326 109.708 16.2567C110.764 16.1875 112.323 16.0836 113.171 16.0143C115.111 15.8411 120.947 15.9624 122.35 16.1875Z" fill="white"/>
<path d="M111.7 29.1758C108.669 29.5567 106.66 29.9204 105.032 30.4053C104.374 30.5958 103.526 30.8209 103.162 30.8902C102.798 30.9768 102.4 31.1327 102.296 31.2366C102.192 31.3405 101.967 31.4271 101.794 31.4271C101.638 31.4271 101.24 31.531 100.928 31.6695C100.616 31.8081 100.01 32.0505 99.5771 32.2064C98.7459 32.5354 98.0012 32.8644 96.3734 33.5918C94.8321 34.3018 89.6541 37.4709 89.1865 38.0078C89.1346 38.0597 88.5977 38.4927 87.9743 38.9603C84.1298 41.8523 80.0255 46.5627 77.0295 51.5156C75.6614 53.7842 74.7955 55.5506 73.8604 57.9232C73.7045 58.3561 73.462 58.9622 73.3235 59.2739C73.185 59.5857 73.0811 59.984 73.0811 60.1398C73.0811 60.313 72.9945 60.5381 72.8906 60.642C72.7867 60.7459 72.6308 61.1442 72.5442 61.5079C72.4749 61.8716 72.2498 62.7028 72.0593 63.3782C71.28 65.9932 70.4834 71.9332 70.4834 75.0677C70.4834 78.2022 71.28 84.1422 72.0593 86.7571C72.2498 87.4152 72.4749 88.2638 72.5442 88.6275C72.6308 88.9911 72.7867 89.3894 72.8906 89.4933C72.9945 89.5972 73.0811 89.8224 73.0811 89.9956C73.0811 90.1514 73.185 90.5497 73.3235 90.8614C73.462 91.1732 73.7045 91.7793 73.8604 92.2122C74.1374 92.9049 74.6743 94.1172 75.4709 95.8489C76.0597 97.1304 79.2462 102.239 79.6618 102.603C79.7311 102.655 80.112 103.157 80.5277 103.711C82.1209 105.893 85.8962 109.668 88.0782 111.262C88.6324 111.677 89.1346 112.058 89.1865 112.128C89.6195 112.63 94.8148 115.816 96.3734 116.544C98.0012 117.271 98.7459 117.6 99.5771 117.929C100.01 118.085 100.616 118.327 100.928 118.466C101.24 118.604 101.638 118.708 101.794 118.708C101.967 118.708 102.192 118.795 102.296 118.899C102.4 119.003 102.798 119.159 103.162 119.245C103.526 119.314 104.374 119.54 105.032 119.73C107.647 120.509 113.587 121.306 116.722 121.306C119.856 121.306 125.796 120.509 128.411 119.73C129.087 119.54 129.918 119.314 130.281 119.245C130.645 119.159 131.043 119.003 131.147 118.899C131.251 118.795 131.476 118.708 131.65 118.708C131.805 118.708 132.204 118.604 132.515 118.466C132.827 118.327 133.433 118.085 133.866 117.929C136.221 116.994 138.005 116.128 140.274 114.76C147.08 110.656 152.275 105.46 156.414 98.6198C157.782 96.3512 158.648 94.5847 159.583 92.2122C159.739 91.7793 159.981 91.1732 160.12 90.8614C160.258 90.5497 160.362 90.1514 160.362 89.9956C160.362 89.8224 160.449 89.5972 160.553 89.4933C160.657 89.3894 160.813 88.9911 160.899 88.6275C160.968 88.2638 161.194 87.4152 161.384 86.7571C162.163 84.1422 162.96 78.2022 162.96 75.0677C162.96 71.9332 162.163 65.9932 161.384 63.3782C161.194 62.7028 160.968 61.8889 160.882 61.5599C160.813 61.2308 160.57 60.5208 160.362 60.0013C160.154 59.4818 159.929 58.8583 159.843 58.6159C159.514 57.6634 159.012 56.5031 158.163 54.6328C156.916 51.9659 153.193 46.4762 151.028 44.1729C148.863 41.8523 146.993 40.1032 145.469 38.9603C144.846 38.4927 144.309 38.0597 144.257 38.0078C143.859 37.5575 138.75 34.3884 137.503 33.8169C135.771 33.0203 134.559 32.4834 133.866 32.2064C133.433 32.0505 132.827 31.8081 132.515 31.6695C132.204 31.531 131.805 31.4271 131.65 31.4271C131.476 31.4271 131.251 31.3405 131.147 31.2366C131.043 31.1327 130.645 30.9768 130.281 30.8902C129.918 30.8209 129.087 30.5958 128.411 30.4053C126.697 29.8858 124.878 29.5741 121.484 29.1758C117.969 28.7601 115.128 28.7601 111.7 29.1758ZM121.917 44.6924C124.168 45.1081 126.437 45.7315 127.892 46.3376C128.584 46.6147 131.788 48.1906 132.221 48.4504C134.975 50.1302 136.36 51.2039 138.473 53.3166C140.585 55.4294 141.659 56.8148 143.339 59.5683C143.599 60.0013 145.175 63.2051 145.452 63.8978C146.075 65.3871 146.664 67.5864 147.132 70.0456C147.547 72.3488 147.547 77.7866 147.132 80.0898C146.664 82.5489 146.075 84.7483 145.452 86.2376C145.175 86.9303 143.599 90.1341 143.339 90.567C141.659 93.3206 140.585 94.706 138.473 96.8187C136.36 98.9315 134.975 100.005 132.221 101.685C131.788 101.945 128.584 103.521 127.892 103.798C126.42 104.421 124.186 105.027 121.744 105.478C119.458 105.911 114.02 105.911 111.7 105.478C108.046 104.802 106.4 104.265 103.3 102.741C101.344 101.789 101.378 101.806 99.4906 100.559C97.3951 99.1739 97.2219 99.0354 94.988 96.8014C92.754 94.5674 92.6154 94.3943 91.23 92.2988C89.9485 90.3592 89.9831 90.4285 88.996 88.4023C87.4548 85.1985 87.0218 83.8651 86.3118 80.0898C85.8788 77.7866 85.8788 72.3488 86.3118 70.0456C87.0218 66.2703 87.4548 64.9368 88.996 61.7331C89.9831 59.7069 89.9485 59.7761 91.23 57.8366C92.6154 55.7411 92.754 55.5679 94.988 53.334C97.2219 51.1 97.3951 50.9614 99.4906 49.576C101.378 48.3291 101.344 48.3465 103.3 47.394C106.262 45.9393 107.976 45.3678 111.18 44.7444C113.951 44.2075 119.146 44.1902 121.917 44.6924Z" fill="white"/>
</svg>
