<svg width="100" height="104" viewBox="0 0 100 104" fill="none" xmlns="http://www.w3.org/2000/svg">
<g clip-path="url(#clip0_141_150)">
<path d="M4.07691 0.0922068C4.0846 0.146001 3.93859 0.22285 3.73109 0.276645C3.13167 0.430343 2.15568 0.991342 1.6869 1.45244C0.780084 2.3362 0.326674 3.16617 0.142236 4.31123C0.0115921 5.07972 0.0269619 101.049 0.149921 101.61C0.326674 102.394 0.849248 103.085 1.55626 103.462C2.2479 103.831 2.26327 103.831 6.01351 103.808L9.54858 103.785L10.0711 103.524C10.6168 103.247 11.1394 102.747 11.3622 102.279C11.5159 101.971 11.8541 101.134 12.2229 100.173C12.9146 98.3823 12.9684 98.244 13.245 97.6138C13.3065 97.4755 13.3526 97.3295 13.3526 97.2834C13.3526 97.2373 13.4218 97.0989 13.514 96.976L13.6677 96.7531L17.879 96.7377L22.0827 96.7147L22.4054 96.4995C22.5822 96.3842 22.7974 96.1537 22.8819 95.9846C23.0663 95.6234 23.0894 94.9241 22.928 94.6167C22.7666 94.317 22.344 93.9404 22.0443 93.8405C21.8521 93.779 19.2239 93.756 12.538 93.756C4.98373 93.756 3.27768 93.7406 3.19315 93.6561C3.1163 93.5716 3.10093 92.9721 3.13167 90.5206L3.17009 87.4928H50.0097H96.8492L96.8877 90.5206C96.9184 92.9721 96.903 93.5716 96.8262 93.6561C96.7417 93.7406 90.7474 93.756 62.513 93.756C29.5832 93.756 28.2844 93.7637 27.9924 93.902C27.5928 94.0788 27.2085 94.5245 27.1394 94.8703C27.001 95.6081 27.3084 96.3074 27.8925 96.5917L28.2306 96.7531H57.2873H86.3516L86.5053 96.976C86.5976 97.0989 86.6667 97.2373 86.6667 97.2834C86.6667 97.3295 86.7128 97.4755 86.7743 97.6138C87.0049 98.1518 87.1201 98.4284 87.3891 99.1354C88.0961 100.964 88.4804 101.925 88.6571 102.279C88.88 102.747 89.4026 103.247 89.9482 103.524L90.4708 103.785L93.9981 103.808C97.9251 103.831 97.8867 103.839 98.709 103.308C99.2854 102.932 99.708 102.309 99.8771 101.579C99.9924 101.072 100 5.02592 99.8771 4.31123C99.7388 3.41978 99.3699 2.62823 98.7628 1.89816C98.1326 1.13736 97.1566 0.499508 96.2882 0.276645C96.0808 0.22285 95.9347 0.146001 95.9501 0.0922068C95.9578 0.0230426 85.8675 -1.21743e-05 50.0097 -1.21743e-05C14.1518 -1.21743e-05 4.06154 0.0230426 4.07691 0.0922068ZM95.466 3.21997C96.0039 3.41209 96.3728 3.69643 96.6341 4.13447L96.8492 4.49566L96.8877 12.8184C96.9107 17.3986 96.8954 21.195 96.8646 21.2565C96.7724 21.4179 3.24694 21.4179 3.15472 21.2565C3.12398 21.195 3.10861 17.391 3.13167 12.8107L3.17009 4.47261L3.47749 4.02688C3.70804 3.68875 3.88479 3.52737 4.20756 3.36598C4.4381 3.25071 4.71476 3.14312 4.82235 3.12775C4.92994 3.11238 25.2719 3.08932 50.0327 3.08164C94.1057 3.07396 95.0587 3.07396 95.466 3.21997ZM96.8492 26.6282V28.78H50.0097H3.17009L3.14704 26.7051C3.13935 25.5677 3.14704 24.5917 3.17009 24.5379C3.19315 24.4534 12.3151 24.438 50.025 24.4534L96.8492 24.4765V26.6282ZM8.13455 34.5437C8.15761 35.9808 8.20371 37.2411 8.24214 37.3487C8.47269 38.1172 8.97989 38.7243 9.67922 39.0932L10.0865 39.3083H50.0097H89.9328L90.3401 39.0932C91.0394 38.7243 91.5467 38.1172 91.7772 37.3487C91.8156 37.2411 91.8617 35.9808 91.8848 34.5437L91.9309 31.9308L94.3978 31.9078C96.342 31.8924 96.88 31.9078 96.8954 31.9846C96.9107 32.0384 96.9107 43.8424 96.8877 58.2132L96.8492 84.342H50.0097H3.17009L3.13167 58.2132C3.10861 43.8424 3.10861 32.0384 3.12398 31.9846C3.13935 31.9078 3.6773 31.8924 5.62158 31.9078L8.08844 31.9308L8.13455 34.5437ZM88.7801 34.0826V36.2344H50.0097H11.2393L11.2162 34.1594C11.2085 33.0221 11.2162 32.0461 11.2393 31.9923C11.2623 31.9078 18.8243 31.8924 50.025 31.9078L88.7801 31.9308V34.0826ZM10.1249 96.8761C10.1941 96.9452 10.1711 97.0682 10.0481 97.3756C9.95588 97.6061 9.83292 97.9135 9.77912 98.0595C9.72533 98.2056 9.57163 98.5898 9.44867 98.9049C9.31803 99.22 9.11054 99.7579 8.97221 100.096C8.84156 100.426 8.69555 100.734 8.64176 100.765C8.53417 100.834 3.43138 100.849 3.25463 100.78C3.14704 100.742 3.13167 100.496 3.13167 98.8357C3.13167 97.6522 3.16241 96.9068 3.20852 96.8607C3.32379 96.7454 10.0097 96.7608 10.1249 96.8761ZM96.7954 96.853C96.8646 96.8991 96.8877 97.3833 96.8877 98.828C96.8877 100.496 96.8723 100.742 96.7647 100.78C96.588 100.849 91.4852 100.834 91.3776 100.765C91.3238 100.734 91.0702 100.173 90.8166 99.5197C90.1557 97.8444 90.1173 97.7445 90.0097 97.4832C89.8175 97.0298 89.8022 96.9222 89.9328 96.8453C90.0865 96.7608 96.6571 96.7685 96.7954 96.853Z" fill="black"/>
<path d="M14.9666 6.72427C14.2596 6.83186 13.468 7.10852 13.0069 7.39286C11.4622 8.37653 10.5708 9.7137 10.2941 11.4659C9.97906 13.5331 10.9089 15.6849 12.638 16.853C13.6601 17.5446 14.5746 17.829 15.7965 17.829C17.4104 17.829 18.6169 17.3295 19.7696 16.1767C20.3383 15.6157 20.5305 15.3621 20.7917 14.8319C21.2452 13.9097 21.4219 13.195 21.4219 12.2574C21.4219 9.39862 19.3086 7.03167 16.4574 6.69353C16.0732 6.64742 15.7274 6.609 15.689 6.61668C15.6505 6.62437 15.3278 6.67048 14.9666 6.72427ZM16.9032 9.94425C17.5641 10.244 18.0559 10.8357 18.3095 11.6272C18.4555 12.096 18.4555 12.3881 18.2865 12.9106C17.9867 13.8559 17.4334 14.4092 16.4805 14.7166C15.9964 14.8703 15.6966 14.8626 15.1126 14.6782C14.4286 14.463 13.9291 14.0634 13.591 13.4486C13.3297 12.9798 13.322 12.9106 13.322 12.2574C13.3297 11.4198 13.4988 10.9894 14.0367 10.4515C14.4209 10.0672 14.8052 9.84435 15.2663 9.75213C15.7274 9.65223 16.4651 9.73676 16.9032 9.94425Z" fill="black"/>
<path d="M27.8772 6.71656C26.9781 6.91637 26.0636 7.64644 25.687 8.46872C25.3873 9.14499 25.3258 9.87506 25.3643 12.6416C25.4027 15.3698 25.4334 15.6464 25.833 16.3227C26.0943 16.7684 26.7399 17.3448 27.2624 17.5907L27.6851 17.7905H50.0098H72.3345L72.834 17.5446C73.3719 17.2833 74.0175 16.6839 74.2557 16.2074C74.5939 15.5619 74.6246 15.2852 74.6476 12.6032C74.6784 9.81358 74.6246 9.12194 74.3326 8.46872C74.102 7.96152 73.4872 7.3083 72.9723 7.03164C72.2961 6.66277 71.8734 6.61666 69.199 6.60897C66.1635 6.60897 65.9329 6.65508 65.4488 7.33135C65.2567 7.59264 65.2259 7.70023 65.2259 8.15364C65.2259 8.62242 65.249 8.70695 65.4795 8.99898C65.9714 9.6522 65.9253 9.64451 68.8378 9.66757C70.4978 9.68294 71.443 9.72136 71.5045 9.77516C71.6428 9.89043 71.6505 14.6013 71.5122 14.7396C71.3816 14.8703 28.638 14.8703 28.5074 14.7396C28.3767 14.609 28.3767 9.9058 28.5074 9.77516C28.5766 9.70599 32.1654 9.68294 44.1693 9.68294C55.1817 9.68294 59.8234 9.65988 60.0386 9.5984C60.9608 9.3448 61.4142 8.34576 60.9915 7.48505C60.7994 7.08544 60.4613 6.81646 59.9848 6.70119C59.4546 6.57055 28.4767 6.58592 27.8772 6.71656Z" fill="black"/>
<path d="M83.3623 6.71658C80.6418 7.10083 78.5977 9.47547 78.5977 12.2574C78.5977 14.8088 80.3344 17.0374 82.8013 17.6676C84.761 18.1671 86.9512 17.5369 88.273 16.0999C89.1029 15.1854 89.541 14.2555 89.7254 13.0182C90.1097 10.3362 88.5266 7.80016 85.9214 6.92408C85.5295 6.79343 84.3306 6.59362 84.1001 6.61668C84.0539 6.62436 83.7235 6.67047 83.3623 6.71658ZM85.2605 9.92119C85.7216 10.1287 86.2979 10.7127 86.5131 11.1892C86.6515 11.4889 86.6899 11.7118 86.6976 12.2574C86.6976 12.9106 86.6899 12.9798 86.4286 13.4486C86.2441 13.779 86.029 14.048 85.7754 14.2401C85.3758 14.5475 84.5919 14.8319 84.1615 14.8319C83.8772 14.8319 83.2931 14.6628 82.9396 14.4707C82.6707 14.3323 82.0559 13.756 82.0559 13.6484C82.0559 13.61 82.0098 13.5177 81.956 13.4563C81.81 13.2872 81.5948 12.5648 81.5948 12.2574C81.5948 11.927 81.81 11.2507 82.0251 10.9125C82.3633 10.3746 82.9934 9.90582 83.5775 9.75981C83.9925 9.65222 84.8609 9.73676 85.2605 9.92119Z" fill="black"/>
<path d="M10.1635 44.9875C9.67162 45.1259 9.25664 45.3795 8.9185 45.7484C8.52657 46.171 8.32676 46.5553 8.21149 47.0932C8.15001 47.3852 8.12695 51.5274 8.12695 61.8867C8.13464 76.8415 8.13464 76.8492 8.44203 77.3872C8.82628 78.0634 9.46413 78.5783 10.1635 78.7781C10.7321 78.9395 89.2874 78.9395 89.8176 78.7781C90.3786 78.6091 90.663 78.4477 91.0472 78.0788C91.4699 77.6715 91.7081 77.2104 91.8157 76.5879C91.9233 75.927 91.9233 47.7618 91.808 47.147C91.6082 46.0788 90.8244 45.2258 89.7946 44.9722C89.2874 44.8415 10.6092 44.8569 10.1635 44.9875ZM77.8292 47.9924C77.906 48.0846 77.7984 48.2613 77.1683 49.0375C76.7456 49.5524 76.077 50.3824 75.6774 50.8819C73.9175 53.0567 70.4978 57.2988 69.8445 58.098C69.6217 58.3747 68.8993 59.2738 68.2384 60.0961C67.5775 60.9184 67.0165 61.61 66.9934 61.6331C66.9089 61.7099 65.71 63.2162 65.4718 63.5466C65.2566 63.8463 65.2259 63.9462 65.2259 64.3766C65.2259 64.9299 65.2874 65.0913 65.6409 65.4602C66.2019 66.0673 67.0626 66.0903 67.7004 65.5293C67.8157 65.4294 68.3844 64.7608 68.9608 64.0461C69.5371 63.3314 70.2595 62.4323 70.5669 62.0558C70.8743 61.6715 71.5967 60.7724 72.1807 60.0577C72.7571 59.3353 73.6255 58.2671 74.102 57.6753C74.5784 57.0836 75.2931 56.1998 75.6851 55.7157C76.077 55.2315 76.7763 54.3631 77.2374 53.7945C77.6985 53.2258 78.2749 52.5188 78.5131 52.2267C78.7514 51.9347 79.0972 51.4967 79.2893 51.2584C79.4814 51.0125 80.0501 50.3055 80.5573 49.683C81.0645 49.0606 81.5794 48.4227 81.6947 48.269C81.81 48.1153 81.979 47.977 82.0636 47.9539C82.1481 47.9309 83.6928 47.9309 85.4987 47.9539L88.7802 47.9924L88.8032 61.8175C88.8109 71.9693 88.7955 75.6657 88.7341 75.7426C88.6034 75.904 11.4161 75.904 11.2855 75.7426C11.224 75.6657 11.2086 71.9693 11.2163 61.8175L11.2393 47.9924L44.4382 47.9539C62.6976 47.9309 77.6601 47.9078 77.6832 47.8924C77.7139 47.8848 77.7754 47.9309 77.8292 47.9924Z" fill="black"/>
<path d="M83.0397 50.0672C82.5248 50.3438 81.1108 52.096 80.9801 52.6339C80.8649 53.1181 80.9724 53.5408 81.3106 53.925C81.9484 54.6551 82.909 54.6704 83.5776 53.9557C84.0772 53.4332 84.8994 52.3573 85.0608 52.0191C85.3913 51.3352 85.13 50.5436 84.4383 50.121C83.9311 49.8213 83.5546 49.8059 83.0397 50.0672Z" fill="black"/>
<path d="M78.1055 56.0845C77.8212 56.2766 77.337 56.8453 75.3851 59.2891C74.9778 59.7963 74.509 60.365 74.3476 60.5571C73.9172 61.0567 73.7559 61.4102 73.7559 61.8636C73.7559 62.5322 74.1247 63.0624 74.7472 63.2853C75.1545 63.4236 75.2928 63.4313 75.7078 63.3083C76.1074 63.1854 76.4148 62.878 77.5599 61.4409C78.0594 60.8031 78.4898 60.2728 78.5205 60.2497C78.6819 60.1037 80.1036 58.267 80.2496 58.0058C80.5724 57.4371 80.4802 56.83 79.9883 56.3074C79.6809 55.9692 79.4196 55.8693 78.8894 55.8693C78.4898 55.877 78.3514 55.9078 78.1055 56.0845Z" fill="black"/>
<path d="M32.0654 60.465C31.7119 60.5879 31.3584 60.9875 29.1451 63.7388C27.4698 65.8137 27.416 65.8982 27.416 66.4515C27.416 67.074 28.0001 67.7887 28.6149 67.904C28.7609 67.927 29.0375 67.927 29.2373 67.8963C29.5447 67.8502 29.66 67.7733 30.0673 67.3737C30.4439 66.9895 31.8579 65.268 33.5486 63.1393C34.002 62.563 34.1249 62.2709 34.0865 61.7791C34.0635 61.464 33.9943 61.2565 33.8637 61.0644C33.5255 60.5879 33.295 60.465 32.734 60.4342C32.4496 60.4189 32.1499 60.4342 32.0654 60.465Z" fill="black"/>
<path d="M24.9568 69.3563C24.5649 69.4793 24.2729 69.756 23.4275 70.8165C22.7974 71.6003 22.6514 71.8847 22.6514 72.3535C22.6514 73.4447 23.8425 74.1902 24.7878 73.706C25.1259 73.5293 25.295 73.3602 26.0942 72.3535C26.8243 71.4466 27.0318 70.9625 26.8934 70.486C26.6245 69.5869 25.7868 69.1027 24.9568 69.3563Z" fill="black"/>
</g>
<defs>
<clipPath id="clip0_141_150">
<rect width="100" height="103.862" fill="white"/>
</clipPath>
</defs>
</svg>
