<svg width="100" height="94" viewBox="0 0 100 94" fill="none" xmlns="http://www.w3.org/2000/svg">
<g clip-path="url(#clip0_131_28)">
<path d="M15.0083 0.159358C13.4297 0.811572 12.7701 2.08635 13.148 3.74654C13.2073 3.99853 13.2963 4.40616 13.3407 4.65074C13.4593 5.25108 13.9114 7.15584 14.0523 7.61535C14.1115 7.81546 14.2153 8.17122 14.282 8.39356C14.3413 8.61591 14.4302 8.88272 14.4747 8.98649C14.5118 9.09025 14.5711 9.26812 14.6081 9.39412C14.7638 9.97963 15.6309 12.2846 15.9867 13.0628C17.6468 16.6796 18.8549 18.7326 20.7819 21.2081C21.5824 22.2383 22.3235 23.0832 23.287 24.0764C23.7243 24.5285 24.0875 24.9361 24.0875 24.988C24.0875 25.0991 23.8873 25.0769 22.7904 24.8101C22.0493 24.6248 21.3452 24.4099 19.9741 23.9207C19.5664 23.7799 18.551 23.4241 17.7135 23.1425C16.876 22.8609 15.8088 22.4977 15.3419 22.3272C13.8225 21.7936 12.8219 21.6824 11.6509 21.927C10.4503 22.1716 9.49416 22.6904 8.63443 23.5501C8.13785 24.0393 7.96739 24.2468 6.91495 25.5883C6.30721 26.3591 5.12136 27.8636 4.48397 28.6641C4.19492 29.0273 3.72059 29.6276 3.43154 29.9982C3.14249 30.3613 2.41616 31.2804 1.82324 32.0363C0.274226 33.993 0 34.6155 0 36.1497C0 37.6691 0.415045 38.6771 1.46007 39.6924C1.95664 40.1816 2.42357 40.4781 3.4093 40.9302C3.7947 41.108 4.23198 41.3156 4.3728 41.3971C5.26959 41.9011 8.04892 43.2277 8.52325 43.3834C8.62702 43.413 8.89383 43.5094 9.11618 43.5983C9.56087 43.7762 9.70169 43.8207 10.5244 44.043C11.4508 44.2876 12.5699 44.4803 13.8151 44.5989C15.29 44.7397 15.7865 44.7397 17.1651 44.5989C19.2033 44.3913 20.441 44.1097 22.368 43.413C22.7311 43.2796 22.8275 43.3093 22.8275 43.5612C22.8275 44.0208 23.3611 46.7927 23.6131 47.6376C23.8503 48.438 24.1838 49.5053 24.2727 49.7499C24.3691 49.9945 24.6285 50.8394 25.2362 52.8257C25.3845 53.3148 25.5475 53.8336 25.5994 53.9744C25.6513 54.1153 25.7476 54.3969 25.8143 54.6044C25.9922 55.1825 26.5851 57.0873 26.9557 58.2731C27.141 58.866 27.3337 59.4664 27.3856 59.6072C27.4893 59.8963 27.5635 60.126 28.0526 61.7195C28.2379 62.3272 28.438 62.9646 28.4899 63.1277C28.5492 63.2907 28.6974 63.7725 28.8308 64.2023C28.9642 64.6322 29.1125 65.0991 29.1644 65.24C29.2162 65.3808 29.3719 65.8477 29.4979 66.2776C29.8833 67.5598 30.3947 69.1903 30.4984 69.4645C30.5503 69.6053 30.6467 69.924 30.7208 70.1686C30.7875 70.4132 30.8912 70.7319 30.9431 70.8727C31.2766 71.7621 31.536 72.733 31.536 73.0962C31.536 73.3185 31.4545 73.7558 31.3656 74.0597C31.2692 74.3635 31.1062 74.8972 31.0024 75.2455C30.6467 76.4536 30.5948 76.6167 30.5207 76.839C30.4465 77.0613 30.4169 77.1725 30.2094 77.8766C30.1575 78.0767 29.9722 78.7141 29.8092 79.2848C29.3348 80.9227 29.2607 81.6787 29.4534 82.7682C29.6387 83.7762 29.9351 84.4358 30.6096 85.3252C31.4471 86.4221 32.5514 87.1336 33.9448 87.4819C34.5525 87.6302 35.642 87.6598 36.2794 87.5487C36.4869 87.5042 36.8205 87.4523 37.0206 87.4301L37.3986 87.3856L37.7024 87.8525C38.3472 88.8457 39.0439 89.5572 40.2816 90.4836C41.008 91.0321 41.4008 91.2692 42.3569 91.7288C43.7502 92.4032 44.7508 92.7515 46.0256 93.0035C48.8642 93.5668 51.3248 93.552 54.0523 92.9591C54.7563 92.8034 56.3869 92.3069 56.6685 92.1586C56.7426 92.1142 57.1429 91.9215 57.5505 91.7288C58.4992 91.2767 58.8623 91.0543 59.7591 90.3799C60.8634 89.5498 61.7677 88.6011 62.3309 87.6672C62.5236 87.3485 62.5162 87.3485 63.7021 87.5561C64.3246 87.6598 65.6068 87.6005 66.1775 87.4449C67.3189 87.1188 68.6159 86.2442 69.32 85.303C70.3428 83.9467 70.7208 82.4792 70.4762 80.856C70.3798 80.2112 70.1871 79.4849 69.5201 77.3207C68.942 75.416 68.7419 74.7489 68.4306 73.615C68.3713 73.3926 68.3343 73.0888 68.3565 72.9405C68.3936 72.6811 68.7641 71.3989 68.9642 70.8727C69.0161 70.7319 69.1199 70.4132 69.1866 70.1686C69.2607 69.924 69.3571 69.6053 69.4089 69.4645C69.5053 69.2125 69.9055 67.9378 70.4095 66.2776C70.5429 65.8477 70.6985 65.3363 70.7652 65.1362C70.869 64.8027 70.869 64.7434 70.743 64.3728C70.4169 63.4093 69.2978 63.0313 68.4973 63.602C68.149 63.8614 67.9489 64.2616 67.6302 65.3511C67.5635 65.5957 67.4597 65.9144 67.4078 66.0552C67.3559 66.196 67.2003 66.663 67.0743 67.0928C66.6963 68.3528 66.5777 68.6789 66.4814 68.7086C66.4369 68.7234 66.1553 68.4936 65.8662 68.1897C65.5698 67.8859 65.1028 67.4634 64.8138 67.2485C64.3098 66.8631 62.7608 66.0552 62.5384 66.0552C62.4717 66.0552 62.3087 66.0108 62.1753 65.9515C61.6861 65.7514 60.3372 65.5883 59.5887 65.6328C58.9364 65.6698 57.8766 65.8551 57.7135 65.9589C57.6765 65.9811 57.5431 66.0256 57.4097 66.0552C57.2837 66.0923 56.9946 66.1886 56.7723 66.2776C54.9713 66.9817 51.977 67.5375 49.9537 67.5375C47.9303 67.5375 44.9361 66.9817 43.1351 66.2776C42.9127 66.1886 42.6237 66.0923 42.4977 66.0552C42.3643 66.0256 42.2235 65.9737 42.179 65.9515C42.0159 65.8477 40.4447 65.6105 39.9481 65.6105C39.3923 65.6105 37.8951 65.8477 37.658 65.9737C37.5764 66.0182 37.4578 66.0552 37.3837 66.0552C37.154 66.0552 35.6198 66.8557 35.0936 67.2485C34.8119 67.4634 34.3376 67.8859 34.0411 68.1897C33.7521 68.4936 33.4704 68.7234 33.426 68.7086C33.3296 68.6789 33.211 68.3528 32.8331 67.0928C32.7071 66.663 32.5514 66.196 32.4995 66.0552C32.4477 65.9144 32.3439 65.5957 32.2772 65.3511C32.2031 65.1066 32.1067 64.7879 32.0548 64.647C31.9511 64.3728 31.4397 62.7423 31.0543 61.4601C30.9283 61.0302 30.7801 60.5633 30.7282 60.4225C30.5948 60.0667 30.2316 58.9253 29.9426 57.9767C29.5201 56.5833 29.0384 55.0565 28.942 54.7897C28.8531 54.5525 28.6085 53.7892 27.9489 51.6398C27.519 50.239 27.2522 49.4164 27.1632 49.157C26.8742 48.3713 26.2813 46.2368 26.0663 45.2288C25.4808 42.4199 25.4808 39.2626 26.0663 36.4832C26.511 34.3932 27.015 32.9257 27.9711 30.9987C28.7715 29.383 29.4534 28.3824 31.6398 25.6254C34.4636 22.0678 34.9898 21.4304 35.5234 20.9042C36.8205 19.6368 38.4732 18.7697 40.3928 18.3547C40.9857 18.2212 41.5342 18.2138 49.9537 18.2138C58.3732 18.2138 58.9216 18.2212 59.5145 18.3547C61.4341 18.7697 63.0647 19.622 64.3691 20.8968C64.9175 21.4304 65.4586 22.0827 68.2676 25.6254C70.7208 28.7234 71.373 29.7239 72.4328 32.0363C73.1443 33.5928 73.6706 35.4382 74.093 37.7803C74.2857 38.8623 74.2857 42.8572 74.093 43.9318C73.7891 45.6291 73.1888 47.9489 72.7441 49.157C72.6552 49.4164 72.3884 50.239 71.9585 51.6398C71.2989 53.7892 71.0543 54.5525 70.9654 54.7897C70.8023 55.2122 70.202 57.1614 70.0686 57.6802C69.8684 58.451 70.0463 58.9698 70.6689 59.3997C70.9135 59.5627 71.0469 59.5998 71.41 59.6072C71.9585 59.6072 72.3587 59.3997 72.6329 58.9772C72.8108 58.703 72.9146 58.4214 73.5149 56.4573C73.9226 55.1381 74.2042 54.2413 74.3005 53.9744C74.3598 53.8336 74.5081 53.3667 74.6341 52.9368C75.0269 51.6324 75.5309 50.0241 75.6346 49.7499C75.6865 49.6091 75.7828 49.2904 75.857 49.0458C75.9237 48.8012 76.0274 48.4825 76.0793 48.3417C76.3535 47.6005 76.7093 45.9848 76.939 44.5099C77.028 43.9096 77.1243 43.3834 77.154 43.3537C77.1836 43.3241 77.3541 43.3463 77.532 43.413C79.496 44.1245 80.8153 44.4136 82.9498 44.6063C84.3357 44.7323 84.4766 44.7323 85.8403 44.6137C87.5227 44.4655 88.8123 44.2357 89.9759 43.8799C91.3322 43.4649 93.8373 42.3458 95.5346 41.3971C95.6754 41.3156 96.1127 41.108 96.4981 40.9302C97.4838 40.4781 97.9507 40.1816 98.4473 39.6924C99.181 38.9809 99.559 38.3213 99.8332 37.2911C100.226 35.8014 99.8184 34.2227 98.6696 32.7775C98.2175 32.2068 97.4467 31.2359 96.3869 29.887C96.1794 29.6202 95.7569 29.0865 95.453 28.7011C94.9565 28.0712 94.3265 27.2781 93.0221 25.6254C92.0363 24.3728 91.7102 23.9726 91.4286 23.6761C91.1099 23.3352 90.3243 22.6978 90.2279 22.6978C90.1983 22.6978 90.1167 22.6533 90.0574 22.594C89.8499 22.4236 88.8494 22.0456 88.2564 21.927C87.0854 21.6824 86.0775 21.7936 84.5655 22.3346C84.0986 22.4977 83.6168 22.6607 83.4908 22.6978C83.2018 22.7867 80.6226 23.6761 80.1927 23.8392C80.0074 23.9133 79.7628 23.9948 79.6368 24.0319C79.5183 24.0689 79.1329 24.1949 78.7845 24.3209C78.1175 24.5507 76.6648 24.9435 76.1386 25.0324C75.9014 25.0695 75.8199 25.0547 75.8199 24.988C75.8199 24.9361 76.1831 24.5285 76.6203 24.0764C78.2435 22.4013 79.4219 20.9339 80.8079 18.8512C81.1784 18.2954 81.8974 17.1169 81.9937 16.9168C82.0233 16.8575 82.1642 16.6055 82.305 16.361C82.6533 15.7384 83.2092 14.6118 83.9281 13.0406C84.1653 12.5366 84.5655 11.499 84.8694 10.617C84.9954 10.2687 85.1362 9.86846 85.1881 9.72764C85.2474 9.58682 85.3511 9.26812 85.4178 9.02354C85.4919 8.77896 85.5809 8.49732 85.6253 8.39356C85.6624 8.2898 85.7217 8.10451 85.7513 7.98593C85.781 7.85993 85.8922 7.44489 85.9959 7.05949C86.1664 6.43692 86.322 5.74024 86.7519 3.76136C86.9742 2.72375 86.826 1.88624 86.285 1.17474C85.9811 0.767103 85.3734 0.329823 84.862 0.144535C84.3802 -0.0333415 83.4908 -0.0185184 83.0017 0.16677C82.4013 0.403939 82.0456 0.707811 81.2229 1.67131C80.8004 2.16788 80.252 2.79045 80.0074 3.05726C79.7628 3.31667 79.333 3.78359 79.0513 4.09488C77.9544 5.29555 74.8564 8.31945 74.1523 8.87531C71.9733 10.617 70.2835 11.6546 67.645 12.8701C66.1182 13.5742 63.4871 14.3747 61.3304 14.7971C59.3515 15.1825 59.6109 15.1751 49.9537 15.1751C41.6602 15.1751 40.882 15.1677 40.0593 15.0417C37.8951 14.7156 36.7834 14.4488 34.5748 13.7373C33.552 13.4038 32.8923 13.1592 32.2698 12.8775C32.0326 12.7738 31.7213 12.633 31.5879 12.5737C31.0246 12.3291 30.2316 12.5514 29.8684 13.0628C29.6313 13.3889 29.5423 13.93 29.6461 14.3228C29.8166 14.9676 30.3724 15.3159 32.5737 16.1534C32.7367 16.2127 32.9516 16.3017 33.0554 16.3387C33.3963 16.4795 34.7971 16.9168 35.0343 16.9613C35.4123 17.0354 35.4716 17.1688 35.227 17.3912C35.1158 17.4949 34.9898 17.5839 34.9602 17.5839C34.8564 17.5839 34.0485 18.2731 33.3593 18.9402C32.796 19.4886 32.2179 20.1631 31.2766 21.3637C29.9796 23.0239 29.0458 24.1875 28.7938 24.4618L28.4973 24.7804L28.1267 24.4988C27.9192 24.3506 27.6598 24.1356 27.5338 24.0245C27.4152 23.9207 27.1114 23.6539 26.8668 23.439C26.1256 22.7867 24.6656 21.297 23.9615 20.4743C22.2494 18.4658 20.8264 16.3165 19.6035 13.8781C19.4108 13.4927 19.1588 12.9887 19.0476 12.7664C18.8475 12.3736 17.7728 9.69058 17.6913 9.39412C17.6691 9.31259 17.5653 9.00872 17.469 8.72708C17.1725 7.86734 16.9205 7.00761 16.6389 5.87364C16.4906 5.28072 16.3276 4.60627 16.2683 4.37652C16.1423 3.89477 16.1201 3.35373 16.2238 3.35373C16.2609 3.35373 16.5203 3.62795 16.8019 3.96147C18.2991 5.76247 22.0641 9.60905 23.5835 10.8987C24.6137 11.7732 25.0806 11.9511 25.7032 11.6843C26.3109 11.4323 26.6296 10.9431 26.6296 10.2983C26.6222 9.72023 26.4443 9.46823 25.4289 8.6085C24.547 7.85252 21.6342 4.95462 20.3817 3.57607C19.9592 3.10915 19.5664 2.68669 19.522 2.63481C19.4775 2.59034 19.0995 2.15306 18.6845 1.6639C17.8692 0.715223 17.506 0.403939 16.9057 0.16677C16.4239 -0.0185184 15.453 -0.02593 15.0083 0.159358ZM83.7502 3.65019C83.7502 3.81324 83.6984 4.13935 83.6391 4.37652C83.5798 4.60627 83.4167 5.28072 83.2685 5.87364C82.9943 6.97796 82.683 8.06746 82.5496 8.39356C82.5051 8.49732 82.4458 8.6752 82.4087 8.8012C82.2605 9.36447 81.2007 12.0845 80.8597 12.7664C80.3113 13.8781 80.1482 14.182 79.8369 14.7675C78.7623 16.7834 77.4208 18.7401 75.9385 20.4743C75.2344 21.3044 73.7743 22.7942 73.0406 23.439C72.796 23.6539 72.4995 23.9207 72.3735 24.0245C72.255 24.1356 71.9881 24.3506 71.7806 24.4988L71.41 24.7804L71.1136 24.4618C70.9505 24.2839 70.3354 23.5205 69.7425 22.7719C66.9187 19.1847 66.5333 18.7771 64.71 17.3763C64.4506 17.1762 64.5544 17.0206 65.0139 16.9168C65.4734 16.8056 66.4962 16.4795 67.0743 16.2498C67.2966 16.1608 67.5635 16.0645 67.6672 16.0274C68.1416 15.8718 70.5058 14.7971 70.9283 14.5451C70.9876 14.5081 71.41 14.2709 71.8547 14.0189C74.7823 12.3736 77.0057 10.5058 80.6522 6.65185C82.4532 4.74709 82.5718 4.6211 83.1128 3.96147C83.3871 3.62795 83.6465 3.35373 83.6835 3.35373C83.7206 3.35373 83.7502 3.48713 83.7502 3.65019ZM14.8231 25.24C15.4975 25.4697 16.3795 25.7736 16.7871 25.9218C18.0693 26.3813 19.433 26.8483 19.937 27.0113C20.2038 27.0928 20.5373 27.204 20.6782 27.2559C21.7751 27.6487 23.9096 28.1008 25.2955 28.2268C25.9626 28.2861 26.0293 28.3528 25.8218 28.7604C25.3697 29.635 25.2437 29.8129 25.0954 29.8129C25.0065 29.8129 24.5247 29.7239 24.0133 29.6202C23.5019 29.5164 22.9683 29.4052 22.8275 29.3756C22.6867 29.3459 22.4495 29.2867 22.3087 29.2422C21.9529 29.131 21.2637 28.9383 21.0858 28.9013C21.0043 28.879 20.6707 28.7901 20.3446 28.7011C18.0989 28.0786 16.6537 27.7376 15.2677 27.4782C14.3265 27.3078 12.2809 27.33 11.5916 27.5079C10.1093 27.9081 9.24217 28.3676 8.06374 29.3756C7.7821 29.6128 7.5227 29.8129 7.47823 29.8129C7.37447 29.8129 7.59681 29.4052 7.88586 29.0865C8.01186 28.9383 8.2342 28.6641 8.37502 28.4788C9.02724 27.6191 10.5985 25.6847 10.7541 25.5438C11.3693 24.988 12.0289 24.7656 12.9331 24.8027C13.5112 24.8175 13.7632 24.8768 14.8231 25.24ZM87.9748 24.8916C88.7975 25.1362 89.1681 25.4623 90.4651 27.1151C90.7838 27.5227 91.2878 28.1527 91.5694 28.5084C91.8584 28.8716 92.1697 29.2792 92.2661 29.4126C92.5922 29.8722 92.3847 29.8351 91.7917 29.3311C90.6355 28.3454 89.7832 27.9007 88.3157 27.5079C87.8933 27.3967 87.5301 27.3671 86.4777 27.3671C85.2177 27.3671 85.0547 27.3819 83.6761 27.6635C83.1721 27.7673 81.1636 28.249 80.7856 28.3602C80.6003 28.4195 80.2372 28.5159 79.9704 28.59C79.7035 28.6567 79.3404 28.7604 79.1551 28.8123C78.9698 28.8716 78.6066 28.968 78.3398 29.0347C78.073 29.1014 77.7617 29.1829 77.6357 29.22C77.4208 29.2792 76.6796 29.4497 75.5457 29.6943C74.7156 29.8796 74.6859 29.8722 74.4414 29.4201C73.8114 28.2861 73.8114 28.3009 74.6118 28.2268C75.9978 28.1008 78.1323 27.6487 79.2292 27.2559C79.37 27.204 79.7035 27.0928 79.9704 27.0113C80.4743 26.8483 81.8381 26.3813 83.1203 25.9218C84.0096 25.6031 86.1738 24.8768 86.3813 24.8249C86.7223 24.7434 87.6042 24.7804 87.9748 24.8916ZM14.9342 30.3761C15.3048 30.4354 15.794 30.5392 16.0311 30.5985C16.6537 30.7541 17.3356 30.932 17.7135 31.0358C18.1286 31.1544 19.9963 31.6509 21.9011 32.1549C22.6793 32.355 23.1758 32.4662 23.5094 32.5181C24.0504 32.5922 24.0652 32.6515 23.7688 33.6076C23.3685 34.912 23.2944 35.2381 22.9757 37.0391C22.9313 37.2837 22.8497 38.0471 22.783 38.7363C22.7237 39.4256 22.657 40.0185 22.6348 40.0556C22.5607 40.1668 21.3155 40.7004 20.5003 40.9598C17.0687 42.0641 13.9188 42.0345 10.265 40.8486C9.9018 40.73 9.53122 40.604 9.44969 40.567C9.36817 40.5299 9.005 40.3743 8.63443 40.2261C7.95257 39.937 5.71429 38.8327 5.11395 38.4844C4.92866 38.3806 4.58773 38.2101 4.35798 38.1138C3.76505 37.8692 3.38707 37.5505 3.48342 37.3726C3.55012 37.2466 4.0541 36.7945 8.26385 33.1036C10.0797 31.5101 10.7986 30.9246 10.932 30.9246C10.9765 30.9246 11.0506 30.8875 11.1025 30.8357C11.1988 30.7393 11.562 30.5985 12.229 30.4132C12.8516 30.2353 14.0448 30.2205 14.9342 30.3761ZM87.6635 30.4058C88.7975 30.7097 89.3311 31.0506 91.1988 32.7034C92.0882 33.489 92.2883 33.6669 94.8749 35.9348C95.668 36.6389 96.3646 37.2615 96.4165 37.3282C96.5055 37.4319 96.4981 37.4764 96.3498 37.632C96.2535 37.7358 95.9867 37.9063 95.7643 38.01C95.2307 38.2546 94.8527 38.4473 94.3858 38.7067C93.9485 38.9513 92.6144 39.6183 91.8288 39.9815C88.7901 41.4045 85.4327 42.0271 82.6385 41.6787C81.2081 41.5083 79.3997 41.0413 78.3769 40.5966C77.6728 40.2928 77.3022 40.1075 77.2651 40.0482C77.2429 40.0111 77.1762 39.4182 77.1169 38.7289C77.0576 38.0471 76.9687 37.2689 76.9242 37.002C76.7463 35.9718 76.3387 34.1931 76.1238 33.5335C75.9978 33.1555 75.9163 32.7997 75.9385 32.7404C75.983 32.6292 76.0571 32.607 77.1169 32.3698C77.6876 32.2439 78.1175 32.1401 78.8957 31.9252C79.1032 31.8733 79.4515 31.7769 79.6739 31.7176C79.8962 31.6583 80.4818 31.5027 80.9709 31.3693C81.4601 31.2433 82.0085 31.0877 82.1938 31.0358C82.557 30.932 83.2166 30.7615 83.8836 30.5985C85.3363 30.2353 86.7519 30.1612 87.6635 30.4058ZM41.0006 68.6863C41.4823 68.7901 41.9715 68.9457 42.8386 69.2792C45.2548 70.2057 48.9828 70.643 51.9918 70.3613C53.4297 70.2205 55.7569 69.7758 56.3276 69.5238C56.4314 69.4794 56.6166 69.4201 56.7352 69.383C56.8612 69.3534 57.2392 69.2199 57.5876 69.0865C58.8401 68.6196 59.9444 68.4714 60.8634 68.6567C62.6274 69.0124 63.9541 70.0352 64.7026 71.6065C64.836 71.8955 65.2881 73.3185 65.6365 74.5785C65.7032 74.8008 65.7995 75.1195 65.8514 75.2826C65.9033 75.4456 65.9996 75.7792 66.0737 76.0237C66.1479 76.2683 66.2516 76.6018 66.2961 76.7649C66.348 76.9279 66.4443 77.2466 66.511 77.469C66.8668 78.6771 67.0965 79.4775 67.1929 79.8407C67.2596 80.063 67.3634 80.3965 67.4301 80.5818C67.519 80.819 67.5561 81.1451 67.5486 81.7306C67.5486 82.4643 67.5264 82.5903 67.3485 82.9609C66.9705 83.7243 66.2739 84.3321 65.4882 84.5618C64.9398 84.7249 64.3543 84.71 63.1833 84.4803C60.0111 83.8651 57.8099 83.5687 54.5859 83.3093C53.8447 83.25 52.0956 83.2129 49.9537 83.2129C46.5666 83.2129 45.5438 83.2574 43.061 83.5168C41.1933 83.7095 38.955 84.043 37.1317 84.3988C35.6568 84.6878 35.3011 84.7249 34.8193 84.6507C34.1968 84.5544 33.6187 84.2579 33.1666 83.8058C32.2994 82.9461 32.1141 81.8492 32.5662 80.3224C32.8701 79.2848 33.2259 78.0767 33.2703 77.8766C33.3 77.7506 33.3741 77.5209 33.426 77.3578C33.5372 77.0169 33.6483 76.6463 33.8336 76.0237C33.9077 75.7792 34.0041 75.4456 34.056 75.2826C34.1078 75.1195 34.2042 74.8008 34.2709 74.5785C35.0195 71.9029 35.2418 71.3471 35.894 70.5096C37.028 69.0421 39.1254 68.3009 41.0006 68.6863ZM54.7712 86.2813C56.4758 86.4221 58.9142 86.6963 59.2033 86.7779C59.4404 86.8446 58.3806 87.8599 57.4393 88.4529C56.1349 89.283 55.2085 89.6461 53.0888 90.1723C52.3772 90.3502 50.8579 90.5133 49.9537 90.5133C49.0198 90.5133 47.4634 90.3428 46.8705 90.1723C46.663 90.113 46.4332 90.0686 46.3591 90.0686C46.2924 90.0686 46.0626 90.0093 45.8477 89.9426C44.1208 89.3793 43.2981 89.0087 42.2976 88.3417C41.5787 87.8525 40.5781 86.9261 40.6522 86.8075C40.6744 86.763 40.8079 86.7334 40.9413 86.7334C41.0747 86.7334 41.3637 86.7037 41.5861 86.6593C42.1716 86.5555 43.8762 86.385 45.2844 86.2961C45.9589 86.2516 46.6556 86.1998 46.8408 86.1849C47.5079 86.1331 53.867 86.2072 54.7712 86.2813Z" fill="black"/>
<path d="M41.8382 74.0152C41.223 74.2079 40.9117 74.5488 40.7709 75.1714C40.6523 75.6976 40.7931 76.1645 41.1711 76.5499C42.0827 77.4541 43.6318 76.9502 43.78 75.6976C43.8689 74.9268 43.3872 74.2005 42.6683 74.0004C42.2532 73.8966 42.2236 73.8966 41.8382 74.0152Z" fill="black"/>
<path d="M57.2172 74.0152C56.6169 74.2079 56.2315 74.6526 56.1425 75.2529C56.0091 76.1646 56.7503 77.0243 57.6619 77.0243C58.3289 77.0243 58.9812 76.5055 59.1442 75.8533C59.3369 75.038 58.8626 74.2153 58.0844 74.0004C57.6767 73.8966 57.5656 73.8966 57.2172 74.0152Z" fill="black"/>
<path d="M30.0464 41.3082C29.876 41.3453 29.6018 41.5009 29.4387 41.6417C28.8013 42.1828 28.7717 43.1463 29.3646 43.7392C29.6685 44.0505 29.9427 44.1468 30.7728 44.2506C32.4255 44.4581 33.5002 45.644 33.6929 47.4894C33.7226 47.7711 33.7967 48.0898 33.856 48.1935C34.6342 49.4535 36.4574 49.0088 36.5982 47.5265C36.6353 47.0892 36.4426 45.9626 36.2128 45.3327C35.8941 44.4581 35.1678 43.4205 34.4267 42.7683C33.5595 42.0197 32.3366 41.4564 31.3138 41.3453C31.0692 41.3156 30.7505 41.286 30.6097 41.2712C30.4689 41.2489 30.2169 41.2712 30.0464 41.3082Z" fill="black"/>
<path d="M68.668 41.3378C66.993 41.5676 65.5922 42.4051 64.5324 43.8133C63.932 44.6063 63.6282 45.3104 63.4058 46.4444C63.1761 47.6006 63.3465 48.2528 63.9913 48.6901C64.5472 49.0681 65.2513 49.0088 65.7479 48.5567C66.0592 48.2602 66.1629 48.0305 66.2148 47.482C66.2963 46.6667 66.5038 46.0738 66.8818 45.5624C67.4451 44.8064 68.1937 44.3692 69.1275 44.2506C69.9724 44.1468 70.2393 44.0505 70.5431 43.7392C71.1212 43.1611 71.1138 42.2939 70.5209 41.701C70.2837 41.4638 70.1133 41.3749 69.8242 41.3082C69.6093 41.2637 69.4166 41.2267 69.3869 41.2341C69.3573 41.2415 69.0386 41.286 68.668 41.3378Z" fill="black"/>
</g>
<defs>
<clipPath id="clip0_131_28">
<rect width="100" height="93.4408" fill="white"/>
</clipPath>
</defs>
</svg>
