<svg width="150" height="120" viewBox="0 0 150 120" fill="none" xmlns="http://www.w3.org/2000/svg">
<path d="M46.1325 0.169607C41.1504 0.66957 38.5148 1.22508 33.8552 2.73608C31.0639 3.64713 30.9416 3.69157 30.1854 4.0471C29.8629 4.20264 29.5626 4.32485 29.5293 4.32485C29.4403 4.32485 27.5387 5.22479 26.282 5.84696C19.5651 9.21338 13.3931 14.3463 8.90037 20.2903C7.96623 21.5236 6.33149 23.9901 5.81993 24.9344C5.5864 25.3566 5.35286 25.7677 5.29726 25.8344C5.24166 25.9121 4.85243 26.6676 4.42984 27.5231C3.51795 29.3563 2.26131 32.445 1.87208 33.8227C1.81648 34.0004 1.67191 34.5004 1.53846 34.9337C0.926821 37.0113 0.348544 40.0666 0.0927679 42.6553C-0.0740427 44.2663 0.00380226 76.7973 0.170613 78.1527C0.481993 80.6747 1.31605 84.2967 2.10562 86.541C2.28355 87.0743 2.55044 87.7742 2.66165 88.0409C3.96277 91.1851 4.66338 92.5961 6.06459 94.9292C8.95597 99.7289 13.4821 104.695 18.4419 108.473C21.489 110.795 26.2153 113.606 29.1178 114.817C29.5182 114.983 30.0964 115.228 30.3967 115.372C31.2641 115.772 32.5208 116.272 33.6217 116.65C35.1675 117.183 35.4677 117.283 36.1795 117.483C36.5464 117.583 37.0469 117.739 37.2915 117.816C38.0144 118.05 40.1051 118.572 41.1838 118.805C47.0889 120.05 54.0171 120.338 59.9778 119.594C62.0351 119.339 64.7708 118.85 66.2054 118.472C71.8992 117.005 76.1139 115.283 80.9403 112.461C82.4527 111.572 86.256 108.95 86.6119 108.539C86.6452 108.506 86.9455 108.262 87.2791 107.984C87.6127 107.706 88.6136 106.851 89.5033 106.084C92.9729 103.084 96.8318 100.14 99.3006 98.5956C99.7899 98.2957 102.737 96.5291 103.126 96.318C104.094 95.7625 106.874 94.4182 108.242 93.8404C110.343 92.9516 113.024 92.0517 115.303 91.4851C115.704 91.3851 116.249 91.2406 116.527 91.1517C116.805 91.074 117.305 90.9295 117.639 90.8407C119.729 90.2518 121.687 89.6185 122.865 89.1519C123.077 89.063 123.733 88.8075 124.311 88.5853C127.202 87.4631 131.228 85.4966 132.996 84.3634C133.263 84.1856 133.575 83.9967 133.675 83.9301C136.444 82.2968 139.224 80.1081 141.771 77.5528C145.819 73.4975 148.198 69.5533 149.322 65.0426C150.022 62.1872 150 62.9205 150 46.6773C150 33.9227 149.978 31.7117 149.833 30.734C149.366 27.7009 148.777 25.6011 147.765 23.4568C147.531 22.9457 147.331 22.5124 147.331 22.4902C147.331 22.368 145.819 19.9126 145.274 19.1571C141.915 14.4685 137.156 10.6022 130.705 7.33574C128.148 6.03584 127.002 5.53588 124.144 4.46929C123.9 4.38041 123.555 4.23597 123.366 4.1582C122.899 3.95822 120.074 3.0805 118.528 2.65831C117.828 2.46944 116.994 2.23612 116.682 2.14724C116.371 2.06947 116.026 1.99169 115.915 1.99169C115.804 1.99169 115.459 1.92503 115.148 1.83615C114.558 1.6695 113.302 1.39174 112.634 1.26953C106.707 0.214048 104.983 0.0807249 97.0542 0.0251735C89.8146 -0.0303779 90.0815 -0.0414882 89.2252 0.614019C89.0028 0.780673 88.6915 1.14731 88.5246 1.42507C88.2577 1.86948 88.2244 2.05836 88.2244 2.89163C88.2244 3.79156 88.2466 3.88044 88.5914 4.39152C89.0362 5.03591 89.6034 5.46921 90.2261 5.64698C90.5152 5.72475 92.2834 5.76919 95.3972 5.76919C101.313 5.76919 105.506 6.01362 108.064 6.50247C108.509 6.59135 109.009 6.65801 109.176 6.65801C109.331 6.65801 109.843 6.73579 110.299 6.83578C110.755 6.92466 111.511 7.08021 111.967 7.1802C113.691 7.53573 116.649 8.23568 117.639 8.52454C120.007 9.21338 124.055 10.6688 125.646 11.4021C127.169 12.1132 129.204 13.1242 129.816 13.4797C130.183 13.7019 130.583 13.9241 130.705 13.9908C130.828 14.0464 131.028 14.1686 131.15 14.2352C131.273 14.313 131.651 14.5574 131.984 14.7685C136.599 17.6572 140.369 21.5902 142.171 25.39C142.449 26.001 142.738 26.5788 142.794 26.701C142.849 26.8121 143.027 27.2787 143.172 27.7453C144.417 31.5339 144.395 35.7114 143.138 38.9334C142.86 39.6333 141.993 41.4221 141.57 42.1554C139.769 45.2551 135.721 49.2549 131.818 51.788C128.815 53.7323 124.967 55.6988 121.92 56.8432C121.675 56.9321 121.331 57.0765 121.142 57.1654C120.252 57.5653 116.86 58.6097 113.524 59.5096C111.633 60.0207 109.543 60.6762 107.797 61.3206C105.239 62.265 101.047 64.3093 98.5666 65.8092C98.0996 66.0869 97.6992 66.3203 97.6659 66.3203C97.6325 66.3203 97.4768 66.4202 97.31 66.5313C97.1432 66.6424 96.4315 67.1202 95.7309 67.5757C93.1953 69.2311 90.5709 71.1643 88.0909 73.2197C86.8788 74.2308 84.688 76.1084 84.6102 76.2084C84.5768 76.2528 83.9985 76.7306 83.3202 77.275C81.6632 78.6193 79.8282 79.9081 78.2157 80.8636C77.4818 81.2969 76.8034 81.708 76.7144 81.7636C76.4031 81.9635 73.545 83.3745 72.8222 83.6856C72.4219 83.8523 71.9993 84.0523 71.8881 84.1189C71.7657 84.1856 71.5433 84.2745 71.3876 84.3189C71.2319 84.3745 70.8205 84.5189 70.4869 84.6522C69.4971 85.03 68.3739 85.3966 66.6836 85.8744C65.805 86.1188 64.8375 86.3965 64.5262 86.4854C64.2148 86.5743 63.8367 86.6521 63.6699 86.6521C63.5142 86.6521 63.2584 86.6965 63.1138 86.7521C62.8469 86.8521 61.0343 87.1743 59.2549 87.4187C56.13 87.8742 49.7912 87.8742 46.5773 87.4298C44.9203 87.1965 43.508 86.9632 43.0743 86.8521C42.8297 86.7854 42.3848 86.6965 42.0734 86.6521C41.7732 86.6076 41.1171 86.4632 40.6277 86.3188C40.1384 86.1854 39.5602 86.0299 39.3489 85.9743C38.0477 85.6744 35.1786 84.73 33.8441 84.1412C33.6662 84.0634 33.0657 83.819 32.5096 83.5856C31.3308 83.1079 29.1623 82.0635 28.4395 81.6413C28.1503 81.4747 27.6276 81.1747 27.2718 80.9858C24.6473 79.5304 21.3556 77.1083 18.7088 74.6752C13.0706 69.5089 9.06718 63.1649 7.06545 56.2099C6.96537 55.8766 6.80968 55.3322 6.72071 54.9989C6.62062 54.6767 6.54278 54.2989 6.54278 54.1545C6.54278 54.0212 6.4983 53.7656 6.43157 53.5879C6.27588 53.1101 6.00899 51.1992 5.86442 49.4548C5.54192 45.6996 6.05347 40.2444 7.00985 37.2113C7.07657 37.0002 7.17666 36.6447 7.22114 36.4336C7.32123 35.9558 8.28873 33.1894 8.71132 32.2117C11.4248 25.7899 16.0621 19.9237 22.0006 15.4129C23.2461 14.4685 25.9151 12.6576 26.0596 12.6576C26.093 12.6576 26.3154 12.5354 26.5601 12.3798C26.8047 12.2243 27.3496 11.9132 27.7611 11.691C28.1726 11.4799 28.7064 11.1799 28.951 11.0466C29.1957 10.9133 30.1743 10.4688 31.1195 10.0578C32.0648 9.64668 32.9878 9.2356 33.1546 9.14672C33.3326 9.05784 33.555 8.99118 33.6662 8.99118C33.7663 8.99118 33.8997 8.94673 33.9553 8.89118C34.2445 8.62454 38.8151 7.2913 41.017 6.83578C45.4319 5.93585 46.4439 5.86918 56.8084 5.7803C65.5159 5.71364 65.5381 5.71364 65.9941 5.46921C67.3397 4.74705 67.9847 2.99162 67.3619 1.73616C67.0394 1.09176 66.4056 0.469585 65.8273 0.202938C65.3602 0.00295294 65.0266 -0.00815735 56.4859 0.00295294C49.9135 0.0140632 47.2446 0.0585044 46.1325 0.169607ZM144.05 55.4988C144.05 61.8428 144.05 61.9428 143.795 63.076C143.65 63.6982 143.428 64.4759 143.305 64.7981C143.183 65.1092 143.049 65.5092 142.994 65.6647C142.949 65.8203 142.86 66.0425 142.794 66.1647C142.738 66.2758 142.505 66.7424 142.282 67.1869C141.659 68.4201 141.059 69.3645 139.98 70.7644C137.567 73.8975 134.242 76.7417 129.927 79.3415C127.514 80.7858 123.243 82.7968 120.752 83.6523C120.597 83.7079 120.196 83.8523 119.863 83.9856C119.529 84.1189 119.107 84.2634 118.918 84.3189C118.74 84.3634 118.261 84.5189 117.861 84.6522C117.461 84.7967 116.994 84.9411 116.805 84.9855C116.215 85.1411 114.269 85.6522 113.635 85.8299C113.302 85.9299 112.746 86.0855 112.412 86.1743C111.478 86.4299 109.61 87.0187 109.165 87.1965C109.031 87.252 108.531 87.4409 108.075 87.6076C105.951 88.3631 101.792 90.2963 100.09 91.3073C99.7677 91.4962 99.4785 91.6517 99.4563 91.6517C99.334 91.6517 96.5872 93.3627 94.9524 94.4626C92.2056 96.2958 88.6247 99.0289 86.6119 100.829C83.6649 103.462 80.7624 105.706 78.6606 106.984C76.303 108.406 74.2568 109.461 72.3218 110.25C71.7769 110.484 71.1763 110.728 70.9873 110.806C69.8419 111.306 68.563 111.728 66.6502 112.25C64.1369 112.939 63.2806 113.139 61.3679 113.472C59.0436 113.872 57.3755 114.028 54.1172 114.172C51.0034 114.294 45.6877 113.828 42.9075 113.183C42.6295 113.117 42.1846 113.028 41.9066 112.983C41.1393 112.85 36.7577 111.65 36.2907 111.439C36.1683 111.384 35.8236 111.261 35.5122 111.15C32.8433 110.25 29.0289 108.428 26.0596 106.617C22.8569 104.662 20.2324 102.584 17.4411 99.7733C13.5599 95.8847 11.0578 92.3517 8.95597 87.752C8.41106 86.5743 7.41019 83.9078 7.21002 83.0968C7.15442 82.8857 7.03209 82.4302 6.932 82.0969C6.64287 81.108 6.33149 79.5859 6.08683 77.9861C5.77545 75.9973 5.63088 68.5423 5.89778 68.5423C5.98674 68.5423 6.39821 69.0756 6.83192 69.7311C9.6677 74.1086 13.4821 78.2305 17.9415 81.7191C18.9646 82.5191 20.9775 83.9856 21.0553 83.9856C21.0775 83.9856 21.4112 84.1967 21.8004 84.4634C24.2136 86.1077 27.8056 87.9853 31.3976 89.463C32.9322 90.0963 36.4019 91.2517 38.5148 91.8184C41.1727 92.5405 44.5311 93.1072 48.3566 93.4849C53.6279 93.996 61.3345 93.3849 66.4834 92.0183C67.0617 91.8739 67.7178 91.7073 67.9291 91.6517C68.1404 91.6073 68.474 91.5073 68.6519 91.4517C68.841 91.3851 69.7862 91.074 70.7649 90.7518C71.7435 90.4296 72.8111 90.0518 73.1447 89.9074C73.4672 89.7741 73.7786 89.6519 73.8342 89.6519C74.0455 89.6519 78.883 87.3076 79.7726 86.7632C80.084 86.5854 80.4065 86.3965 80.4955 86.3521C80.8402 86.1966 83.1533 84.7078 84.2209 83.9523C85.7111 82.8968 87.7128 81.308 89.3365 79.8748C93.7959 75.9529 98.0328 72.8642 102.181 70.4866C103.649 69.6533 107.196 67.8757 108.186 67.4979C108.464 67.3868 108.775 67.2535 108.876 67.198C109.387 66.9313 112.979 65.7425 114.358 65.3759C114.97 65.2092 115.726 65.0092 116.026 64.9204C116.338 64.8426 116.705 64.7426 116.86 64.6981C117.127 64.6315 118.484 64.2315 119.974 63.776C120.775 63.5316 122.576 62.9205 122.921 62.7761C123.043 62.7205 123.344 62.6094 123.588 62.5094C128.948 60.4651 133.953 57.7209 137.99 54.5989C139.824 53.1768 142.794 50.3659 143.572 49.3215C143.706 49.1326 143.872 48.9993 143.939 49.0215C144.017 49.0549 144.05 51.0992 144.05 55.4988Z" fill="black"/>
<path d="M76.7733 0.218301C75.314 0.913031 74.6071 2.68459 75.2227 4.09721C75.713 5.23193 76.5681 5.88035 77.7082 5.98456C78.5063 6.05403 79.1447 5.89193 79.749 5.44035C80.3875 4.9772 80.7523 4.3751 80.9233 3.52985C81.0373 2.93933 81.0259 2.74249 80.8777 2.19828C80.6497 1.39934 80.0454 0.658296 79.3043 0.287774C78.6203 -0.0711699 77.446 -0.0943276 76.7733 0.218301Z" fill="black"/>
<path d="M38.9405 13.2747C38.6346 13.4146 38.2304 13.7293 38.0447 13.9625C37.8371 14.2189 34.09 22.0878 28.8791 33.2092C21.0244 49.9729 20.0522 52.0946 20.0085 52.6658C19.9102 54.0181 20.6749 55.2771 21.8875 55.7668C22.6631 56.0699 23.1001 56.0815 23.832 55.7784C25.0228 55.3121 24.553 56.2214 34.0682 35.9021C38.8749 25.6434 42.8623 17.0168 42.9279 16.737C43.0808 16.1308 42.9825 15.1982 42.7094 14.627C42.0321 13.2164 40.2951 12.5985 38.9405 13.2747Z" fill="black"/>
<path d="M65.1382 13.1312C64.661 13.3136 64.4612 13.4619 63.9952 13.9751C63.7843 14.2145 58.5575 24.8198 50.3456 41.6856L37.0511 69.0198L37.0067 69.9435C36.9623 70.9812 37.1288 71.4943 37.7724 72.1443C38.3717 72.7715 38.9376 73.011 39.8143 72.9996C40.458 72.9996 40.691 72.9426 41.1904 72.6689C41.5233 72.4751 41.945 72.1215 42.1225 71.8707C42.3001 71.6198 48.4147 59.1329 55.7166 44.1259L69 16.8373V15.8908C69 15.0014 68.9778 14.9101 68.6227 14.3742C68.4118 14.0549 68.0013 13.6329 67.7127 13.4277C67.2466 13.1084 67.058 13.04 66.37 13.0058C65.8484 12.9829 65.4045 13.0286 65.1382 13.1312Z" fill="black"/>
<path d="M91.1075 13.1335C90.8973 13.2019 90.4657 13.5212 90.1669 13.8404C89.6468 14.3648 88.6288 16.417 76.3013 41.8298L63 69.2491V70.0243C63 70.8908 63.2324 71.5065 63.8189 72.1335C64.3943 72.772 64.9365 73 65.8771 73C66.8288 73 67.3489 72.7834 67.9575 72.1221C68.2121 71.8599 72.4503 63.2294 81.5355 44.509C88.8058 29.5281 94.8146 17.0897 94.881 16.873C95.0802 16.2574 95.0249 15.3567 94.7482 14.6955C94.4605 14.0114 93.6748 13.2931 93.0109 13.0993C92.4908 12.9511 91.6166 12.9739 91.1075 13.1335Z" fill="black"/>
<path d="M118.035 13.0735C117.414 13.2678 116.981 13.5535 116.594 14.0221C116.371 14.2964 113.303 20.1365 109.777 27.0281C106.24 33.9083 103.065 40.1027 102.714 40.7999C102.175 41.8513 102.058 42.1828 102.011 42.7999C101.953 43.7714 102.117 44.3542 102.644 44.9485C103.288 45.68 104.014 46 105.057 46C105.783 46 106.005 45.9429 106.509 45.6686C106.837 45.4857 107.235 45.1543 107.411 44.9371C107.739 44.5142 121.584 17.5765 121.853 16.8221C122.322 15.5421 121.631 13.9306 120.33 13.2906C119.815 13.0278 118.538 12.9135 118.035 13.0735Z" fill="black"/>
</svg>
