<svg width="100" height="92" viewBox="0 0 100 92" fill="none" xmlns="http://www.w3.org/2000/svg">
<g clip-path="url(#clip0_141_146)">
<path d="M62.6261 0.144465C62.0557 0.337058 61.6112 0.951872 61.6112 1.54447C61.6112 2.02595 62.0038 2.63335 62.4557 2.84076C62.7446 2.97409 63.0631 2.9815 68.8335 2.9815C75.7964 2.98891 75.4483 2.95928 76.4038 3.60372C76.7298 3.81854 77.189 4.38891 77.4038 4.83335C77.8779 5.84817 77.6705 7.10002 76.8779 8.03335C76.6038 8.35187 75.9742 8.78891 75.5816 8.92965C75.4112 8.99632 70.2038 9.02595 55.8335 9.05558L36.3149 9.09261L35.7594 9.26298C34.6261 9.61113 33.5594 10.2556 32.9149 10.9889C32.4853 11.4704 31.9372 12.3371 31.7594 12.8185C31.3964 13.7593 31.3149 14.4408 31.3149 16.463C31.3149 18.2926 31.3223 18.3667 31.4927 18.7222C31.7594 19.3 32.189 19.5741 32.8112 19.5741C33.3075 19.5741 33.7075 19.3519 34.0186 18.9222L34.2409 18.5963L34.2853 16.4778C34.3075 15.3074 34.3594 14.2482 34.4038 14.1222C34.6038 13.5297 35.0705 12.8926 35.552 12.5667C35.7001 12.4556 36.0483 12.2926 36.3149 12.1963L36.8038 12.0185H55.9964C73.3149 12.0185 75.2335 12.0037 75.7149 11.9C77.0409 11.6037 78.1001 11.0185 78.9668 10.1C80.8779 8.07039 81.1075 4.94447 79.5149 2.61113C78.9742 1.82595 77.8557 0.914835 77.0186 0.581502C76.8335 0.507428 76.6038 0.411132 76.5001 0.374095C75.7742 0.0777983 75.6409 0.0703909 69.2038 0.0481686C63.6335 0.0259464 62.9446 0.0333538 62.6261 0.144465Z" fill="black"/>
<path d="M43.4854 17.1371C43.0039 17.3667 42.6039 17.7593 42.3298 18.2778C42.1743 18.5593 42.1669 18.663 42.1669 20.5371C42.1669 22.8334 42.0928 22.5741 43.1595 23.9815C43.5298 24.4704 43.8335 24.9075 43.8335 24.9593C43.8335 25.0334 42.6632 25.0556 38.5965 25.0704C33.8706 25.0926 33.3298 25.1075 33.1298 25.2186C32.0409 25.8186 32.0854 27.3667 33.2113 27.8704C33.5595 28.0186 33.5595 28.0186 56.315 28.0186C78.3372 28.0186 79.0928 28.026 79.7298 28.1593C81.1372 28.4556 82.3446 29.0778 83.3817 30.0482C83.8632 30.4926 84.4632 31.3223 84.7669 31.9445C85.3891 33.226 85.5372 33.7889 85.5595 34.9075L85.5743 35.7593L79.278 35.7964C72.515 35.8334 72.8928 35.8112 72.4409 36.2038C71.8706 36.6852 71.8261 37.6852 72.3446 38.2704C72.6928 38.6704 72.1669 38.6482 81.8113 38.6852L90.7076 38.7223L90.9002 38.9001L91.0928 39.0852L91.078 40.7519L91.0558 42.426H49.9817H8.9076L8.88538 40.7519L8.87056 39.0852L9.06316 38.9001L9.25575 38.7223L38.2039 38.6852L67.1595 38.6482L67.3669 38.4926C67.478 38.4112 67.678 38.1964 67.7965 38.026C67.9891 37.7519 68.0187 37.6482 68.0113 37.2482C67.9965 36.6186 67.7743 36.2778 67.1669 35.9371C67.0113 35.8482 63.0261 35.826 40.6854 35.7964L14.3891 35.7593L14.4039 34.9075C14.4261 33.7889 14.5743 33.226 15.1965 31.9445C16.115 30.0482 18.0113 28.6186 20.2335 28.1593C20.8187 28.0334 21.2557 28.0186 24.0187 28.0186C26.952 28.0186 27.1669 28.0112 27.4706 27.8778C27.9076 27.6852 28.1669 27.3964 28.315 26.9297C28.4261 26.5815 28.4335 26.5149 28.3224 26.1519C28.2113 25.7519 28.0039 25.5001 27.5743 25.2334C27.3743 25.1001 27.1595 25.0926 23.9446 25.0926C20.6928 25.1001 20.5002 25.1075 19.7224 25.2704C17.5298 25.7223 15.878 26.6112 14.3446 28.1741C13.8557 28.6704 13.1076 29.626 12.8187 30.1297C12.0335 31.4926 11.6409 32.7741 11.4706 34.5371L11.352 35.7593L10.0187 35.8038C8.63353 35.8482 8.35204 35.9001 7.68538 36.2482C7.16686 36.5297 6.53723 37.2038 6.27056 37.7741C5.97427 38.4112 5.9076 38.9964 5.91501 40.8852C5.91501 41.6704 5.90019 42.3445 5.87056 42.3889C5.84093 42.4334 5.27056 42.463 4.31501 42.463C2.9076 42.463 2.76686 42.4778 2.31501 42.6408C1.30019 43.0112 0.552044 43.7371 0.203896 44.6926C0.0631548 45.0704 0.0557474 45.2926 0.0557474 48.5815C0.0557474 50.9445 0.085377 52.1519 0.137229 52.3223C0.47797 53.3667 1.24834 54.1741 2.26315 54.5593C2.67056 54.7149 2.8113 54.7223 7.01871 54.7593L11.352 54.7964L11.3891 56.6852C11.4261 58.4556 11.4335 58.5964 11.5891 58.9149C12.0335 59.8038 13.1817 59.9889 13.8928 59.2704C14.0632 59.1001 14.2039 58.8704 14.2632 58.6556C14.3298 58.3964 14.352 56.7667 14.352 51.8778C14.352 46.0778 14.3669 45.4408 14.4706 45.3964C14.6483 45.3297 85.4113 45.3445 85.5224 45.4112C85.6632 45.5075 85.6187 70.6186 85.478 70.9445C85.4187 71.063 85.3521 71.3001 85.315 71.463C85.1669 72.1741 84.5891 73.4112 84.0706 74.1223C83.5298 74.8704 82.4335 75.9149 81.8187 76.2778C80.7521 76.9075 79.9965 77.2038 78.8928 77.426C78.1965 77.5741 77.7002 77.5741 49.9817 77.5741C24.6854 77.5741 21.715 77.5593 21.1965 77.4556C18.9965 77.0186 17.152 75.863 15.8928 74.1223C15.3965 73.4408 14.8187 72.2186 14.6483 71.5001C14.6187 71.3593 14.5446 71.1223 14.5002 70.9815C14.4335 70.8038 14.3965 69.863 14.3817 67.9445C14.3595 66.2186 14.315 65.0186 14.2632 64.7741C14.0261 63.6927 12.678 63.2927 11.878 64.063C11.4261 64.5075 11.3891 64.7297 11.3891 67.3075C11.3891 69.8556 11.4854 70.9964 11.7965 72.1964C12.2409 73.9001 13.152 75.5519 14.3817 76.8852C14.6928 77.2112 14.915 77.5001 14.8928 77.5297C14.8706 77.5519 12.1965 77.5741 8.95204 77.5741C3.39649 77.5741 3.02612 77.5815 2.57427 77.7149C1.38167 78.063 0.566858 78.8186 0.174266 79.9445C0.0705622 80.2334 0.0557474 80.8482 0.0557474 84.3519C0.0557474 89.0186 0.0335251 88.8482 0.715007 89.7445C1.14464 90.3223 1.72982 90.7075 2.6113 90.9964C2.85575 91.0778 11.2928 91.0927 49.9817 91.0927C88.6706 91.0927 97.1076 91.0778 97.3521 90.9964C98.2409 90.7001 98.8409 90.3075 99.2483 89.7445C99.5817 89.2778 99.6706 89.1001 99.8409 88.5815C99.9743 88.1741 99.9817 87.8778 99.9817 84.3075V80.4704L99.8039 79.9889C99.3743 78.7889 98.6039 78.063 97.3891 77.7149C96.9372 77.5815 96.5669 77.5741 91.0113 77.5741C87.7669 77.5741 85.0928 77.5519 85.0706 77.5297C85.0409 77.5001 85.2261 77.2556 85.4854 76.9889C87.0854 75.2927 88.0706 73.263 88.4409 70.9075C88.4854 70.6186 88.5372 67.3297 88.5669 62.6112L88.6113 54.7964L92.9446 54.7593C97.1521 54.7223 97.2928 54.7149 97.7002 54.5593C98.7446 54.1667 99.4854 53.3667 99.8483 52.2408C99.9669 51.8778 99.9817 51.4926 99.9817 48.6112C99.9817 45.4186 99.9817 45.3815 99.8039 44.8482C99.4483 43.7519 98.6928 42.9964 97.5743 42.6112C97.1965 42.4852 96.9521 42.463 95.6409 42.463C94.6854 42.463 94.1224 42.4334 94.0928 42.3889C94.0632 42.3445 94.0483 41.6704 94.0483 40.8852C94.0632 38.4038 93.878 37.6926 93.0187 36.8334C92.2113 36.0334 91.6854 35.8556 89.9446 35.8038L88.6113 35.7593L88.4854 34.5371C88.2706 32.4186 87.8483 31.2038 86.7372 29.5371C85.9669 28.3889 84.7521 27.2482 83.5002 26.4926C82.5817 25.9371 81.5521 25.5445 80.278 25.263L79.5002 25.0926L67.8187 25.0704C58.6854 25.0556 56.1298 25.0334 56.1298 24.9593C56.1298 24.9075 56.4335 24.4704 56.8039 23.9815C57.8706 22.5741 57.7965 22.8334 57.7965 20.5371C57.7965 18.6334 57.7891 18.5667 57.6261 18.2556C57.3595 17.7519 56.9595 17.3667 56.4632 17.1297L55.9965 16.9075H49.9743L43.9446 16.9149L43.4854 17.1371ZM54.9076 20.7297V21.6334L53.7669 23.1371C53.1372 23.9667 52.5446 24.7371 52.4409 24.8482L52.2483 25.0556H49.9817H47.715L47.5224 24.8482C47.4187 24.7371 46.8261 23.9667 46.1965 23.1371L45.0557 21.626L45.0335 20.8186C45.0187 20.3741 45.0261 19.9667 45.0483 19.9001C45.0854 19.8112 45.7446 19.7964 49.9965 19.8112L54.9076 19.8334V20.7297ZM11.352 48.5741V51.7593L7.26315 51.7815L3.18167 51.7964L3.02612 51.6038C2.87797 51.4112 2.87056 51.3297 2.87056 48.5964V45.7815L3.08538 45.5667L3.3076 45.3519L7.32982 45.3667L11.352 45.3889V48.5741ZM96.878 45.5741L97.1002 45.7889L97.078 48.6408C97.0558 51.3223 97.0483 51.4926 96.915 51.6408C96.7743 51.7964 96.7595 51.7964 92.6928 51.7815L88.6113 51.7593L88.5891 48.6482C88.5817 46.9371 88.5891 45.4926 88.6113 45.4482C88.6335 45.3741 89.515 45.3519 92.6483 45.3519H96.6632L96.878 45.5741ZM96.9002 80.7667L97.0928 80.9964V84.3667V87.7371L96.878 87.9519L96.6632 88.1667H49.9817H3.30019L3.08538 87.9519L2.87056 87.7371V84.3889C2.87056 81.5889 2.88538 81.0112 2.98167 80.8334C3.04093 80.7223 3.12982 80.6112 3.18167 80.5889C3.23353 80.5667 24.3002 80.5445 49.9965 80.5445L96.7076 80.5371L96.9002 80.7667Z" fill="black"/>
</g>
<defs>
<clipPath id="clip0_141_146">
<rect width="100" height="91.1111" fill="white"/>
</clipPath>
</defs>
</svg>
