<svg width="100" height="75" viewBox="0 0 100 75" fill="none" xmlns="http://www.w3.org/2000/svg">
<g clip-path="url(#clip0_174_81)">
<path d="M65.1299 0.0517515C64.8929 0.111011 64.5151 0.444344 64.3818 0.696196C64.3151 0.822122 64.2336 1.14805 64.1966 1.42212C64.167 1.6962 64.0781 2.01471 64.004 2.12583C63.9373 2.24434 63.5151 2.71842 63.0633 3.1999C62.0114 4.3036 61.8188 4.54064 61.5818 5.03694C61.167 5.88879 61.0929 6.1999 61.0929 7.11101C61.0929 8.03694 61.1596 8.32583 61.5522 9.18509C61.7966 9.7036 61.8707 9.7999 63.1225 11.1332C63.9892 12.0592 64.1966 12.3851 64.204 12.8295C64.204 13.3555 63.9966 13.7036 63.1003 14.6443C61.7818 16.0221 61.5892 16.3036 61.2485 17.3184C61.0262 17.9703 61.0336 18.9258 61.2559 19.311C61.3448 19.4666 61.4707 19.6369 61.5373 19.6888C61.7448 19.8592 62.2707 20.074 62.4855 20.074C62.7892 20.074 63.3151 19.8295 63.5522 19.5777C63.767 19.348 63.9818 18.7851 63.9818 18.4443C63.9818 18.0443 64.2336 17.674 65.1077 16.7777C66.1225 15.7406 66.2559 15.5703 66.5966 14.8666C66.9744 14.0962 67.1225 13.3925 67.0707 12.6443C67.0336 12.0666 66.9892 11.8962 66.7373 11.2221C66.4114 10.348 66.2336 10.111 65.0707 8.92583C64.1373 7.97768 63.9818 7.72583 63.9818 7.14805C63.9818 6.57027 64.167 6.25916 65.004 5.41471C66.2781 4.14064 66.5003 3.80731 66.9373 2.51842C67.0781 2.1036 67.1151 1.3999 67.0262 1.05175C66.9225 0.673974 66.5522 0.236937 66.2262 0.103603C65.9966 -0.000100371 65.4262 -0.0223226 65.1299 0.0517515Z" fill="black"/>
<path d="M71.263 1.5999C70.9296 1.67397 70.5296 2.17027 70.3593 2.72582C70.2778 3.0073 70.2037 3.31101 70.2037 3.39249C70.2037 3.47397 70.1519 3.63693 70.0926 3.74804C70.0333 3.86656 69.9815 4.01471 69.9815 4.07397C69.9741 4.23693 69.4037 5.35545 69.0111 5.96286C68.6037 6.5999 68.5 6.82953 68.5 7.11841C68.5 7.37027 68.7889 8.01471 69.1074 8.48879C69.5815 9.19249 70.2037 10.6221 70.2037 10.9999C70.2037 11.0962 70.2556 11.2888 70.3222 11.4443C70.4111 11.674 70.4259 11.9555 70.4037 12.9925C70.3667 14.4814 70.2556 14.9999 69.7667 16.074C69.6407 16.348 69.5741 16.6517 69.5519 16.9999C69.5296 17.4888 69.537 17.5406 69.7593 17.8369C69.9222 18.0592 70.1148 18.2147 70.3963 18.3406C70.8852 18.5555 71.0778 18.5629 71.4926 18.3703C71.9222 18.1777 72.1963 17.8443 72.4481 17.2221C72.5667 16.9332 72.7074 16.5925 72.7667 16.4592C72.8259 16.3258 72.8704 16.1406 72.8704 16.0517C72.8778 15.9629 72.9222 15.8073 72.9815 15.7036C73.0407 15.5999 73.0852 15.3851 73.0926 15.2147C73.0926 15.0517 73.1444 14.7406 73.2111 14.5184C73.3074 14.1999 73.3222 13.8517 73.3 12.711C73.2778 11.9332 73.2259 11.148 73.1815 10.9629C73.1296 10.7777 73.0259 10.3629 72.9519 10.0369C72.8704 9.71101 72.737 9.25916 72.6481 9.03693C72.5593 8.81471 72.4704 8.56286 72.4481 8.48138C72.4259 8.3999 72.3667 8.28138 72.3148 8.22212C72.263 8.16286 72.2037 8.05916 72.1741 7.9999C72.1519 7.94064 72.0481 7.74064 71.9444 7.56286C71.8407 7.38508 71.7593 7.1999 71.7593 7.14804C71.7593 7.1036 71.9074 6.7999 72.0926 6.47397C72.2778 6.15545 72.4259 5.83693 72.4259 5.76286C72.4259 5.69619 72.4556 5.62212 72.4926 5.5999C72.5296 5.57027 72.6852 5.16286 72.8407 4.68138C73.0778 3.94064 73.1148 3.71101 73.1222 3.1036C73.1296 2.43693 73.1148 2.37767 72.9222 2.12582C72.8037 1.97027 72.6333 1.79249 72.5296 1.73323C72.3519 1.61471 71.5741 1.53323 71.263 1.5999Z" fill="black"/>
<path d="M56.1446 3.17781C55.8853 3.24448 55.315 3.74078 55.315 3.89633C55.315 3.94078 55.2631 4.08152 55.2038 4.19263C55.1446 4.31115 55.0927 4.49633 55.0927 4.60744C55.0927 4.71855 55.0557 4.89633 55.0112 5.01485C54.752 5.6667 54.8038 8.63707 55.0853 9.59263C55.1742 9.87411 55.2779 10.2593 55.315 10.4371C55.389 10.7408 55.515 11.0371 55.9446 11.9408C56.352 12.8 56.9001 13.6148 57.3075 13.9778C57.7668 14.3778 58.5372 14.4 58.9964 14.0223C59.4853 13.6297 59.5742 13.4519 59.5742 12.8667C59.5742 12.3408 59.5668 12.3186 59.152 11.6889C58.915 11.3334 58.6779 10.9408 58.6112 10.8223C58.3816 10.3778 57.9816 9.31115 57.9816 9.14818C57.9816 9.05929 57.9298 8.83707 57.8705 8.65929C57.7075 8.20003 57.7075 6.11855 57.8631 5.59263C58.0335 5.04448 58.0187 4.09633 57.8335 3.80003C57.5224 3.28892 56.7816 3.02226 56.1446 3.17781Z" fill="black"/>
<path d="M45.0927 23.4592C43.4779 23.6592 42.0853 24.637 41.4335 26.037C41.3594 26.2 41.2631 26.3926 41.226 26.4741C41.1001 26.7111 40.9816 27.5037 40.989 28.0741C40.9964 28.9778 41.1668 31.3481 41.2409 31.6296C41.2853 31.7704 41.3149 32.2592 41.3149 32.7111C41.3149 33.1629 41.352 33.7111 41.389 33.9333C41.4335 34.1555 41.4927 34.8963 41.5372 35.5926C41.6186 37.0963 41.7223 38.4963 41.8779 40.1185C41.9372 40.7704 41.9668 41.3629 41.9372 41.4296C41.9075 41.5185 41.8409 41.5407 41.6927 41.5111C41.589 41.4889 41.2335 41.4074 40.9075 41.3333C40.5816 41.2592 40.0335 41.1407 39.6853 41.0815C39.3372 41.0222 38.8557 40.9333 38.6112 40.8889C37.789 40.7407 35.8038 40.6592 34.1668 40.7037C32.6483 40.7407 32.1075 40.8 30.6483 41.0815C30.3372 41.1407 30.0038 41.1852 29.9075 41.1852C29.8038 41.1852 29.5742 41.2296 29.389 41.2889C29.2038 41.3481 28.8853 41.4444 28.6779 41.5111C28.4631 41.5778 28.2186 41.6296 28.1372 41.6296C28.0483 41.6296 27.9001 41.6667 27.8112 41.7185C27.7223 41.7629 27.5298 41.8296 27.389 41.8592C27.2483 41.8889 26.9446 41.9852 26.7223 42.0741C26.5001 42.1629 26.2335 42.2592 26.1298 42.2889C26.026 42.3259 25.752 42.437 25.5298 42.5481C25.3001 42.6518 25.0853 42.7407 25.0557 42.7407C25.026 42.7407 24.8112 42.8296 24.5816 42.9407C23.8112 43.3185 22.8705 44.4518 22.8705 45.0148C22.8705 45.2518 22.4927 45.6296 22.2483 45.6296C22.152 45.6296 21.9742 45.6667 21.8557 45.7111C21.7446 45.7555 21.4705 45.8222 21.2483 45.8592C20.5742 45.9852 18.2705 46.7704 17.6631 47.0815C17.5446 47.1407 17.4186 47.1852 17.3816 47.1852C17.189 47.1852 14.8038 48.4444 13.9964 48.9778C13.8853 49.0518 13.7446 49.1333 13.6853 49.1629C13.152 49.4 11.4409 50.6741 10.826 51.2963C10.2631 51.8592 10.0779 52.1926 9.87049 53.0074C9.6779 53.7778 9.83345 54.5704 10.352 55.4296C10.5149 55.6963 10.6483 55.9704 10.6483 56.0296C10.6483 56.0889 10.4779 56.3185 10.2779 56.5481C10.0705 56.7704 9.79642 57.0815 9.66308 57.2444C9.52975 57.4 8.75938 58.2889 7.94457 59.2222C7.12975 60.1481 6.41123 60.9926 6.33716 61.0963C5.92234 61.7259 5.54457 62.3407 5.53716 62.4C5.53716 62.437 5.43345 62.6815 5.31494 62.9407C5.18901 63.1926 5.09271 63.4444 5.09271 63.4815C5.09271 63.5259 5.02605 63.6963 4.94457 63.8518L4.79642 64.1481H3.0779C1.18901 64.1481 0.892714 64.1926 0.514936 64.5481C-0.151731 65.1704 -0.129508 65.5778 0.692714 67.6296C1.04086 68.5037 1.41864 69.4518 1.54457 69.7333C1.66308 70.0148 1.75938 70.2741 1.75938 70.3185C1.75938 70.3629 1.96679 70.8148 2.21864 71.3259C2.65568 72.2074 2.71494 72.3037 3.4779 73.0518C3.92234 73.4963 4.31494 73.8518 4.35197 73.8518C4.38901 73.8518 4.55938 73.9481 4.73716 74.0592C5.41864 74.5037 6.14457 74.7111 7.35197 74.8148C8.6779 74.9185 91.2853 74.9185 92.6112 74.8148C93.8186 74.7111 94.5446 74.5037 95.226 74.0592C95.4038 73.9481 95.5742 73.8518 95.6112 73.8518C95.6483 73.8518 96.0409 73.4963 96.4853 73.0592C97.2483 72.3037 97.3075 72.2074 97.7446 71.3259C97.9964 70.8148 98.2038 70.3629 98.2038 70.3185C98.2038 70.2741 98.3001 70.0148 98.4186 69.7333C99.0409 68.2889 99.9298 65.9629 99.9594 65.6963C100.041 65.1333 99.5075 64.4074 98.9001 64.237C98.6779 64.1704 96.5668 64.1481 91.0335 64.1481C86.8779 64.1481 83.426 64.1259 83.3594 64.1037C83.1816 64.037 83.2112 63.9111 83.4853 63.5481C83.8335 63.0741 84.2631 62.1407 84.426 61.5111C84.4557 61.3778 84.5075 61.2296 84.5372 61.1778C84.6409 61.0148 84.7742 59.6148 85.2038 54.1111C85.3816 51.8592 85.552 49.9704 85.589 49.9037C85.6038 49.8741 85.7594 49.9333 85.9298 50.037C87.1298 50.7629 88.4186 51.1704 90.0186 51.3333C90.8779 51.4148 92.3372 51.2518 93.2779 50.9629C93.5668 50.8815 93.9001 50.7778 94.0186 50.7481C94.226 50.6889 94.9668 50.3185 95.6557 49.9185C95.8186 49.8222 96.1001 49.6222 96.2705 49.4815C96.4409 49.3407 96.7298 49.0963 96.9149 48.9481C97.3742 48.5629 98.2927 47.4815 98.5298 47.037C99.0557 46.0518 99.2409 45.6444 99.4779 44.9259C99.8779 43.7111 99.9816 42.8 99.9816 40.5037C99.9816 38.5407 99.8409 37.0222 99.6186 36.6074C99.5742 36.5259 99.5372 36.3926 99.5372 36.3185C99.5372 36.2444 99.4853 36.0889 99.426 35.9704C99.3668 35.8592 99.3149 35.7111 99.3149 35.6518C99.3149 35.5111 98.4705 33.8889 98.2557 33.6296C98.1668 33.5185 97.9075 33.2 97.6779 32.9185C97.2186 32.3481 96.0853 31.4 95.4631 31.0518C94.7075 30.6296 93.9742 30.2963 93.8112 30.2963C93.7149 30.2963 93.6112 30.2667 93.5668 30.2296C93.5298 30.1852 93.3668 30.1259 93.2038 30.0815C93.0409 30.037 92.7742 29.9704 92.6112 29.9333C92.2112 29.8296 90.9372 29.7037 90.389 29.7037C89.8927 29.7037 88.826 29.8741 88.426 30.0074C88.2853 30.0518 88.0483 30.1407 87.9075 30.1926C87.7668 30.2518 87.5298 30.3037 87.389 30.3111L87.1298 30.3333L87.152 29.0444C87.1816 27.0444 87.0483 26.4444 86.3298 25.3926C85.7742 24.5704 84.9149 23.9704 83.7594 23.5778C83.3668 23.4518 82.589 23.4444 64.352 23.437C53.9001 23.4296 45.2335 23.4444 45.0927 23.4592ZM83.3223 26.5407C83.626 26.6963 83.7964 26.8518 83.9816 27.1333L84.2335 27.5185L84.226 28.3852C84.2186 28.8667 84.1668 29.8444 84.1001 30.5704C83.9742 32.0667 83.8186 34.0444 83.6483 36.3704C83.589 37.2444 83.5001 38.3778 83.4557 38.8889C83.4112 39.4 83.3446 40.3333 83.3149 40.9629C83.2779 41.5926 83.2112 42.3407 83.1742 42.6296C83.1298 42.9111 83.1001 43.4741 83.0927 43.8741C83.0927 44.2741 83.0557 44.7407 83.0186 44.9111C82.9742 45.0815 82.9149 45.7704 82.8705 46.4444C82.8335 47.1185 82.7668 48.0296 82.7298 48.4815C82.6853 48.9259 82.6038 49.9629 82.5372 50.7778C82.4779 51.5926 82.3742 52.7926 82.3149 53.4444C82.2483 54.0963 82.2038 54.8296 82.2038 55.0667C82.2038 55.3111 82.152 56.0592 82.0927 56.7333C82.0335 57.4074 81.952 58.3778 81.9149 58.8889C81.789 60.4815 81.6335 61.0518 81.1223 61.837C80.7964 62.3407 80.189 62.9852 79.8335 63.2148C78.8705 63.837 78.2853 64.037 77.2779 64.1037C76.8705 64.1333 76.389 64.1926 76.2038 64.237C75.5001 64.4074 75.0409 65.2 75.2335 65.9111C75.352 66.3629 75.4779 66.5555 75.826 66.7778L76.1075 66.9704L86.1298 66.9852C97.552 67 96.4409 66.9259 96.1372 67.6815C96.0409 67.9185 95.9223 68.2074 95.8705 68.3333C95.6335 68.8667 95.5372 69.0963 95.5372 69.1481C95.5372 69.1778 95.3816 69.5185 95.189 69.9037C94.7742 70.7407 94.3223 71.2296 93.5742 71.6148L93.0557 71.8889H49.9816H6.90753L6.38901 71.6148C5.64086 71.2296 5.18901 70.7407 4.7742 69.9037C4.5816 69.5185 4.42605 69.1778 4.42605 69.1481C4.42605 69.0889 4.24086 68.6444 4.08531 68.3481C4.02605 68.2296 3.9816 68.0963 3.9816 68.0518C3.9742 68 3.91494 67.8296 3.83345 67.6667C3.66308 67.3111 3.64827 67.1555 3.7816 67.0444C3.85568 66.9852 12.7742 66.9629 37.352 66.9629H70.8112L71.0631 66.8074C71.8483 66.3259 72.0038 65.2815 71.389 64.6667C70.8705 64.1481 70.8631 64.1481 68.0038 64.1481H65.4557L65.2779 63.9555C65.1742 63.8444 65.0927 63.6889 65.0927 63.6148C65.0927 63.5333 65.0186 63.3185 64.9372 63.1259C64.3742 61.8741 64.1446 61.4963 63.3816 60.5852C62.9742 60.0963 62.5446 59.6074 60.8779 57.7037C59.7372 56.4074 59.5372 56.1555 59.5372 55.9852C59.5372 55.8889 59.5742 55.7704 59.6186 55.7259C59.7149 55.6296 59.8409 55.4074 60.026 55.037C60.3668 54.3185 60.3964 53.0963 60.0853 52.3926C60.026 52.2667 59.9816 52.1407 59.9816 52.1111C59.9816 52.0444 59.5742 51.5259 59.2779 51.2148C58.7668 50.6741 56.3075 48.9926 54.7964 48.1481C54.1742 47.8 52.2779 46.9555 51.389 46.6296C50.4483 46.2815 48.6927 45.7778 47.9149 45.6222C47.5001 45.5407 47.3149 45.3704 47.3149 45.0889C47.3149 44.7629 46.8927 44.0074 46.4853 43.6074C46.2853 43.4148 45.8779 43.1259 45.5742 42.9629C44.9742 42.6296 44.9742 42.6296 44.9075 41.7407C44.8335 40.7185 44.6557 38.4444 44.5742 37.5185C44.5298 37.0296 44.4631 36.0592 44.4186 35.3704C44.3816 34.6741 44.3149 34.0148 44.2779 33.8963C44.2335 33.7778 44.2038 33.3481 44.2038 32.9333C44.2038 32.5185 44.152 31.7852 44.0927 31.2963C44.0335 30.8074 43.9816 30.1259 43.9816 29.7852C43.9816 29.4444 43.9446 28.9407 43.9001 28.6741C43.7001 27.5629 44.2483 26.6074 45.2112 26.3778C45.3816 26.3407 53.0631 26.3185 64.2038 26.3185L82.9075 26.3333L83.3223 26.5407ZM91.5001 32.6963C91.952 32.7555 92.4335 32.8444 92.5742 32.8963C93.0779 33.0667 93.426 33.2222 93.6631 33.3704C93.7964 33.4518 94.0631 33.6148 94.2557 33.7407C94.7594 34.0518 95.589 34.8592 95.8927 35.3333C96.8483 36.8074 97.0927 37.8889 97.0853 40.5926C97.0853 42.1926 96.952 43.4296 96.7223 44.0741C96.5075 44.6741 96.3816 44.9481 96.152 45.3259C95.3594 46.6667 93.9742 47.7629 92.5742 48.1704C91.0409 48.6148 89.6779 48.5407 88.1668 47.9333C87.7001 47.7407 86.6483 47.0074 86.2186 46.5704L85.8186 46.1704L85.8557 45.6592C85.8779 45.3778 85.9298 44.5629 85.9668 43.8518C86.0112 43.1407 86.0631 42.5037 86.0853 42.4444C86.1149 42.3778 86.1668 41.8 86.2038 41.1481C86.2853 39.7778 86.389 38.3778 86.5001 37.2222C86.5446 36.7704 86.6112 35.9407 86.6483 35.3629C86.6853 34.7852 86.7372 34.237 86.7594 34.1333C86.8186 33.9111 87.3594 33.5185 88.0557 33.2C88.7298 32.8963 89.0335 32.8074 89.7594 32.7037C90.5964 32.5778 90.5668 32.5778 91.5001 32.6963ZM37.7964 43.7407C38.1668 43.8 38.8112 43.8963 39.2409 43.9629C39.6705 44.0296 40.152 44.1333 40.3149 44.1926C40.4853 44.2518 40.6779 44.2963 40.7594 44.2963C40.8409 44.2963 41.0335 44.3407 41.2038 44.4C41.3668 44.4592 41.7149 44.5704 41.9816 44.6592C42.6631 44.8741 43.0038 45 43.4927 45.2148C43.7298 45.3185 43.9668 45.4074 44.0186 45.4074C44.0705 45.4074 44.1964 45.4889 44.3075 45.5926L44.5075 45.7778L44.4631 46.6518C44.4335 47.1259 44.3816 47.6148 44.352 47.7407C44.3149 47.8592 44.2483 48.3111 44.2112 48.7407C44.1668 49.1704 44.1001 49.7704 44.0557 50.0741C44.0186 50.3778 43.9298 51.0592 43.8705 51.5926C43.8038 52.1185 43.7001 52.8815 43.6409 53.2741C43.5816 53.6667 43.5372 54.1333 43.5372 54.2963C43.5372 54.4592 43.4853 54.9259 43.4335 55.3185C43.3149 56.0963 43.1964 57.0815 43.0853 58.2592C43.0483 58.6592 42.9816 59.1111 42.9446 59.2592C42.9075 59.4 42.8705 59.7185 42.8705 59.9629C42.8705 60.2074 42.8409 60.5259 42.7964 60.6667C42.7594 60.8074 42.6927 61.2889 42.6483 61.7407C42.4557 63.7037 42.3964 64.0148 42.2409 64.0815C42.026 64.1629 28.1816 64.1629 27.9594 64.0815C27.8112 64.0222 27.7668 63.9407 27.7372 63.6889C27.7001 63.3333 27.589 62.4074 27.426 61.1111C27.3668 60.6444 27.2705 59.8074 27.2038 59.2592C26.7372 55.3778 26.6483 54.7852 26.5075 54.5259C26.3594 54.2518 25.9816 53.9407 25.6927 53.8444C25.1668 53.6667 24.4483 53.8815 24.1298 54.3037C23.9001 54.6148 23.7446 55.3037 23.8335 55.6222C23.8705 55.7704 23.9372 56.2741 23.9742 56.7481C24.0186 57.2222 24.0927 57.7852 24.1298 58C24.1742 58.2148 24.2038 58.5407 24.2038 58.7259C24.2038 58.9037 24.2483 59.3629 24.3075 59.7333C24.3668 60.1037 24.4705 60.8741 24.5372 61.4444C24.6038 62.0148 24.7075 62.8074 24.7742 63.2148C24.8557 63.7555 24.8631 63.9629 24.7964 64.0296C24.6853 64.1407 19.8927 64.1852 19.6927 64.0741C19.6112 64.037 19.4483 63.8592 19.3372 63.6889C19.2186 63.5111 18.9668 63.1407 18.7742 62.8667C18.5816 62.5852 18.426 62.3407 18.426 62.3185C18.426 62.2963 18.3298 62.1555 18.2038 62C18.0853 61.8444 17.9816 61.7037 17.9816 61.6815C17.9816 61.6444 16.1742 58.9407 15.2631 57.6074C15.0483 57.2889 14.8705 57.0148 14.8705 57C14.8705 56.9926 14.426 56.3185 13.8853 55.5111C12.7372 53.7926 12.6853 53.6889 12.8112 53.4444C12.9223 53.2444 14.2483 52.2296 14.9964 51.7704C15.2705 51.6074 15.6853 51.3481 15.9075 51.2C16.4853 50.8222 17.6927 50.2148 18.789 49.7481C19.8853 49.2889 19.9446 49.2667 20.9075 48.9778C22.0335 48.6444 22.3594 48.5629 22.6853 48.5629L22.9742 48.5555L23.0631 48.9481C23.2631 49.837 23.9964 50.3333 24.8112 50.1333C25.4483 49.9778 25.9075 49.3852 25.9075 48.7185C25.9075 48.4222 25.826 47.6 25.6779 46.4963C25.5964 45.8518 25.6705 45.6148 26.0038 45.4889C26.0927 45.4518 26.5372 45.2741 26.9816 45.0889C27.7816 44.7629 28.1298 44.6444 28.9446 44.4222C29.1668 44.3555 29.5372 44.2592 29.7594 44.1926C30.3075 44.037 31.3668 43.8518 31.6853 43.8518C31.826 43.8518 32.0631 43.8148 32.2038 43.7704C32.8335 43.5704 36.5964 43.5481 37.7964 43.7407ZM47.9594 48.6296C48.1001 48.6889 48.3001 48.7407 48.3964 48.7407C48.4927 48.7407 48.7001 48.7852 48.8483 48.837C49.5446 49.0889 49.6631 49.1259 49.8705 49.1852C51.2038 49.5481 53.1298 50.4963 55.2335 51.8148C56.0038 52.3037 56.7149 52.8222 57.1298 53.2222C57.5372 53.6074 57.5149 53.6741 56.4631 55.2296C56.2186 55.5926 56.0038 55.9185 55.9816 55.9629C55.9594 56 55.7816 56.2815 55.5742 56.5778C55.3742 56.8815 55.1742 57.1778 55.1298 57.2444C55.0927 57.3185 55.0409 57.3852 55.0186 57.4074C54.9446 57.4815 54.6483 57.9185 54.6483 57.9629C54.6483 57.9852 54.5223 58.1704 54.3742 58.3852C54.2186 58.5926 54.026 58.8741 53.9446 59.0074C53.7668 59.2889 52.5668 61.1037 52.2853 61.5037C52.1816 61.6592 52.0631 61.837 52.0186 61.9037C51.9816 61.9704 51.8927 62.0889 51.8335 62.1629C51.7742 62.237 51.6557 62.4148 51.5742 62.5481C51.3668 62.9037 50.8335 63.7037 50.6557 63.9259L50.5149 64.1111L48.0038 64.1333C45.8038 64.1481 45.4705 64.1407 45.389 64.037C45.3149 63.9481 45.3149 63.8 45.389 63.2741C45.4335 62.9185 45.5075 62.2963 45.5446 61.8889C45.5816 61.4815 45.6483 61.0518 45.6853 60.9333C45.7298 60.8148 45.7594 60.4963 45.7594 60.2296C45.7594 59.9629 45.789 59.6222 45.8335 59.4815C45.8705 59.3407 45.9372 58.8741 45.9742 58.4444C46.0112 58.0148 46.0853 57.4 46.1298 57.0741C46.1668 56.7481 46.2557 56.0667 46.3149 55.5555C46.3816 55.0444 46.4779 54.2444 46.5372 53.7778C46.5964 53.3111 46.6927 52.4741 46.7594 51.9259C46.826 51.3778 46.9223 50.5555 46.9816 50.1111C47.0409 49.6592 47.0927 49.1704 47.0927 49.0222C47.0927 48.8741 47.1149 48.7037 47.1372 48.637C47.1964 48.4815 47.6038 48.4815 47.9594 48.6296ZM12.5075 58.7555C12.6557 58.8815 15.9816 63.8889 15.9816 63.9852C15.9816 64.0222 15.9298 64.0815 15.8631 64.1037C15.6779 64.1778 8.24827 64.1555 8.13716 64.0815C8.04827 64.0222 8.04827 63.9778 8.13716 63.7629C8.30012 63.3629 8.84827 62.6074 9.56679 61.7926C9.93716 61.3704 10.3594 60.8815 10.5001 60.7111C10.9149 60.2 12.3075 58.6667 12.352 58.6667C12.3742 58.6667 12.4483 58.7111 12.5075 58.7555ZM57.8705 58.7259C57.9149 58.7555 58.3149 59.1926 58.7594 59.7037C59.7964 60.8889 59.7816 60.8741 60.5149 61.7037C61.789 63.1481 62.2779 63.9704 61.9372 64.1037C61.789 64.1629 54.4705 64.1629 54.3223 64.1037C54.152 64.037 54.1742 63.8222 54.3742 63.5778C54.4705 63.4667 54.6705 63.1704 54.8335 62.9259C54.989 62.6815 55.3149 62.1778 55.5668 61.8148C55.8112 61.4444 56.3149 60.6815 56.6927 60.1111C57.6483 58.6592 57.7001 58.6 57.8705 58.7259Z" fill="black"/>
</g>
<defs>
<clipPath id="clip0_174_81">
<rect width="100" height="74.9444" fill="white"/>
</clipPath>
</defs>
</svg>
