<svg width="100" height="85" viewBox="0 0 100 85" fill="none" xmlns="http://www.w3.org/2000/svg">
<g clip-path="url(#clip0_135_80)">
<path d="M39.7258 0.118625C37.7691 0.207564 34.8786 0.600374 32.4254 1.11918C32.1438 1.17847 31.7436 1.26 31.536 1.29706C31.1136 1.37117 30.6541 1.48235 30.1649 1.63799C29.9796 1.69728 29.7795 1.74175 29.7128 1.74175C29.6461 1.74175 29.4089 1.79363 29.194 1.86033C28.6307 2.02339 27.6079 2.32726 27.1262 2.4829C26.9038 2.54961 26.5184 2.66819 26.2739 2.7423C26.0293 2.81642 25.7921 2.91277 25.7402 2.94983C25.6883 2.98689 25.5401 3.04618 25.4067 3.07582C25.1621 3.13512 24.8953 3.22405 24.3469 3.43158C24.043 3.54275 23.8429 3.62428 23.2648 3.88368C23.0795 3.97262 22.909 4.03932 22.8868 4.03932C22.8571 4.03932 22.5977 4.15049 22.2939 4.29131C21.9974 4.42472 21.5675 4.61742 21.3452 4.71377C20.8338 4.9287 19.27 5.72915 19.1217 5.84773C19.0624 5.8922 18.7586 6.06267 18.4547 6.21831C18.1508 6.37395 17.8099 6.55183 17.6987 6.61853C16.4758 7.38192 16.046 7.64873 15.6383 7.93778C13.9781 9.1088 13.2815 9.61279 13.1555 9.72396C13.0739 9.79808 12.8219 10.0056 12.5996 10.1909C12.3772 10.3762 12.0734 10.6282 11.9326 10.7542C11.7917 10.8876 11.5027 11.1247 11.2878 11.2952C10.7393 11.7251 8.73078 13.741 8.10821 14.4896C7.81916 14.8379 7.33 15.416 7.01871 15.7792C6.70002 16.1423 6.32203 16.6315 6.1738 16.8538C6.01816 17.0836 5.70687 17.5209 5.47712 17.8248C5.02501 18.4399 4.3728 19.4182 4.3728 19.4998C4.3728 19.522 4.27645 19.6925 4.15045 19.8777C4.03187 20.0556 3.92811 20.2187 3.92811 20.2409C3.92811 20.2557 3.728 20.6041 3.48342 21.0043C3.23884 21.4119 3.03873 21.7603 3.03873 21.7825C3.03873 21.8047 2.85344 22.2198 2.62368 22.6941C2.39392 23.1759 2.14193 23.7169 2.0604 23.9022C1.97888 24.0875 1.88253 24.295 1.84547 24.3617C1.76394 24.5174 1.57124 25.0436 1.48231 25.3475C1.4156 25.5846 1.21549 26.1479 1.11914 26.3851C0.985733 26.7112 0.815268 27.3041 0.815268 27.4301C0.815268 27.5042 0.770799 27.6969 0.711506 27.8674C0.53363 28.3788 0.392811 28.9569 0.266815 29.7203C0.1927 30.1279 0.111173 30.6245 0.0667037 30.8172C0.0296461 31.0395 0 40.1038 0 54.3858C0 78.3473 0 78.2509 0.274226 78.7845C0.318696 78.8661 0.370576 79.044 0.400222 79.1848C0.503984 79.7629 1.26737 81.0673 1.927 81.801C2.26793 82.1864 3.35001 83.1203 3.44636 83.1203C3.47601 83.1203 3.70576 83.2463 3.96517 83.4093C4.22457 83.565 4.65444 83.7651 4.90643 83.854C5.16583 83.943 5.47712 84.0541 5.5957 84.0986C6.34427 84.358 6.99648 84.3728 23.5019 84.3728C34.1153 84.3802 39.7777 84.358 40.0667 84.3061C40.3039 84.2617 40.6819 84.1431 40.8968 84.0319C41.3563 83.8022 41.9863 83.1425 42.216 82.6682C42.305 82.4903 42.4829 82.1123 42.6163 81.8307C43.3574 80.2446 44.9287 78.8809 46.574 78.3991C46.9817 78.2806 47.9822 78.1397 48.3973 78.1397C49.1088 78.1397 50.5466 78.4214 50.7245 78.5993C50.7615 78.6363 50.8431 78.6734 50.9024 78.6734C51.0951 78.6734 52.2513 79.4219 52.6959 79.837C52.9331 80.0593 53.2963 80.4596 53.5038 80.7338C53.8818 81.2526 54.4006 82.2087 54.4006 82.4088C54.4006 82.4681 54.4302 82.5348 54.4673 82.557C54.5044 82.5792 54.6081 82.7423 54.6971 82.9128C54.8972 83.3056 55.4382 83.817 55.8903 84.0393C56.0756 84.1357 56.4462 84.2468 56.7056 84.2987C57.0613 84.358 62.6052 84.3802 77.2355 84.3802C98.4621 84.3728 97.6765 84.3877 98.3287 84.0467C98.7067 83.854 99.3811 83.2092 99.559 82.8683C100.011 82.0011 99.9815 82.5496 99.9815 74.345C99.9815 66.0812 99.9963 66.4221 99.5145 65.592C99.2774 65.1844 99.1291 65.0288 98.6919 64.7027C98.3954 64.4803 98.2694 64.421 97.3281 64.1097C96.713 63.8948 96.1349 63.6206 95.7569 63.3463C95.075 62.8498 94.3858 62.0271 94.156 61.4416C93.778 60.4707 93.7558 60.3521 93.7558 59.4108C93.7632 58.7438 93.7929 58.4251 93.867 58.2917C93.9263 58.1879 93.9707 58.0323 93.9781 57.9433C93.9781 57.6172 94.7267 56.424 95.2307 55.9274C95.6161 55.5494 96.5648 55.001 97.0465 54.875C97.5208 54.7564 98.1657 54.5044 98.4547 54.3339C98.8549 54.0968 99.4404 53.5261 99.4997 53.3111C99.5294 53.2148 99.5961 53.0888 99.6554 53.0295C99.7072 52.9628 99.8036 52.696 99.8629 52.4366C99.9667 52.0141 99.9815 50.3539 99.9815 39.1107V26.2665L99.7962 25.9033C99.559 25.4364 99.2551 25.2511 97.3504 24.384C97.1058 24.2728 96.4239 23.9467 95.831 23.665C94.7786 23.1536 94.1708 22.8646 93.274 22.457C93.0295 22.3458 92.2957 21.9974 91.6435 21.6788C90.9913 21.3601 90.3094 21.0414 90.1241 20.9524C89.7684 20.7968 88.7604 20.315 87.1744 19.5591C86.6407 19.2997 86.1812 19.0847 86.159 19.0847C86.1367 19.0847 85.5142 18.7883 84.7656 18.4325C84.0245 18.0693 83.2537 17.6988 83.0461 17.6024C82.6756 17.4319 81.4749 16.8613 79.6517 15.9867C79.1329 15.7347 78.6808 15.5272 78.6585 15.5272C78.6363 15.5272 78.0952 15.2752 77.4578 14.9639C76.8205 14.6526 76.0719 14.2895 75.7828 14.1561C75.5012 14.0226 74.9453 13.7632 74.5599 13.578C73.3815 13.0221 72.4032 12.5626 71.8177 12.2883C71.5138 12.1475 70.9283 11.8659 70.5207 11.6732C69.5349 11.1989 67.0298 10.013 66.0737 9.56091C65.7921 9.4275 65.2066 9.15327 64.7767 8.94575C64.3469 8.74564 63.7021 8.43436 63.3315 8.26389C62.9683 8.09343 62.279 7.76732 61.8121 7.54497C61.3452 7.31522 60.7078 7.01875 60.4039 6.87794C59.7665 6.58147 58.929 6.18125 57.5505 5.52163C57.0243 5.26963 56.4536 5.00282 56.2905 4.9287C55.705 4.66189 54.5636 4.12085 53.4964 3.60204C52.8886 3.31299 52.3847 3.07582 52.355 3.07582C52.3328 3.07582 51.7917 2.82383 51.1543 2.51255C49.887 1.89739 49.7017 1.81586 49.2348 1.63799C48.4491 1.34153 48.2787 1.27482 48.1749 1.23035C48.0489 1.16365 47.2411 0.926481 46.5444 0.741193C46.2776 0.67449 45.8996 0.57814 45.6921 0.518848C44.8916 0.303913 42.5125 0.0296869 41.5787 0.04451C41.2748 0.0519215 40.4373 0.0889791 39.7258 0.118625ZM42.6756 3.00912C43.728 3.12029 44.8249 3.29076 45.2474 3.40934C45.4549 3.46863 45.8551 3.56498 46.1367 3.63169C46.6704 3.75768 47.4189 4.0245 47.5375 4.12826C47.582 4.15791 47.6783 4.18755 47.7673 4.18755C47.8562 4.18755 47.9526 4.2172 47.9896 4.24684C48.0341 4.2839 48.2416 4.38766 48.4491 4.4766C48.9457 4.67671 50.2946 5.30669 52.2513 6.24796C52.6811 6.44807 53.2296 6.70747 53.4742 6.81864C53.7187 6.93723 54.4228 7.26334 55.0306 7.5598C55.6457 7.85626 56.3795 8.2046 56.6611 8.33801C57.2614 8.61223 58.1064 9.01245 59.2551 9.56091C59.7072 9.77584 60.2409 10.0278 60.441 10.1168C60.6485 10.2131 61.3304 10.5392 61.9603 10.8431C63.0128 11.3471 63.4352 11.5472 64.6285 12.0956C64.8508 12.1994 65.6068 12.5626 66.3109 12.9035C67.0076 13.2444 67.6079 13.5261 67.6376 13.5261C67.6672 13.5261 68.2601 13.8077 68.9568 14.1486C70.9061 15.0973 71.3433 15.3048 71.3878 15.3048C71.4175 15.3048 72.0623 15.6087 72.8331 15.9793C73.5964 16.3499 74.4265 16.7501 74.6711 16.8613C74.9157 16.9724 75.5309 17.2689 76.0422 17.5135C78.5103 18.6919 78.8735 18.8624 78.9624 18.8624C79.0217 18.8624 79.1032 18.9143 79.1551 18.9735C79.207 19.0328 79.2811 19.0847 79.3256 19.0847C79.3626 19.0847 79.7702 19.2626 80.2223 19.4849C80.6745 19.7073 81.2822 19.9889 81.5638 20.1223C81.8529 20.2557 82.5199 20.567 83.0461 20.8264C84.2246 21.3897 85.1658 21.8344 85.8996 22.1753C86.5296 22.4644 86.9965 22.6941 87.1595 22.7831C87.2188 22.8201 87.4189 22.9165 87.6042 22.998C88.0044 23.1759 89.2718 23.7762 90.3243 24.2802C90.7393 24.4803 91.1025 24.6434 91.1247 24.6434C91.2359 24.6434 91.6065 24.9546 91.5694 25.0213C91.5397 25.0584 89.7387 25.0881 87.1373 25.0881C84.1801 25.0881 82.6533 25.1177 82.4532 25.1696C82.0308 25.2882 81.5861 25.7699 81.4823 26.222C81.3341 26.8742 81.6305 27.5264 82.1938 27.8229C82.4903 27.9785 82.5199 27.9785 89.7017 27.9785C95.2159 27.9785 96.9353 28.0008 97.002 28.0675C97.0687 28.1342 97.091 30.8765 97.091 39.963V51.7695L96.8538 51.8733C96.7204 51.9326 96.3795 52.0512 96.1052 52.1327C94.9935 52.481 93.9856 53.1184 93.0443 54.0819C92.4958 54.6452 91.7547 55.5939 91.7547 55.7421C91.7547 55.7569 91.6583 55.9793 91.5397 56.2387C91.2952 56.7723 91.1692 57.1132 91.0876 57.4764C91.0506 57.6172 90.9913 57.8692 90.9468 58.0323C90.8431 58.4177 90.8431 60.4633 90.9468 60.8487C90.9839 61.0117 91.0506 61.2785 91.0876 61.4416C91.1469 61.7232 91.3915 62.3532 91.6732 62.9609C92.3772 64.4803 94.3709 66.2442 95.8681 66.6741C95.9941 66.7038 96.2461 66.7779 96.4388 66.8298C96.6241 66.8891 96.8538 66.9928 96.9353 67.0669C97.091 67.2077 97.091 67.2226 97.091 74.2709C97.091 81.1785 97.091 81.3415 96.9502 81.4156C96.8464 81.4675 90.5318 81.4898 77.065 81.4898C56.8835 81.4823 57.0687 81.4898 57.0687 81.2378C57.0687 81.1044 56.2905 79.6221 56.0015 79.207C55.3641 78.2954 54.3709 77.3467 53.363 76.7019C52.7256 76.2943 52.1623 76.0052 51.9993 76.0052C51.9474 76.0052 51.8807 75.9756 51.8436 75.9385C51.7324 75.8348 50.9098 75.5605 50.7097 75.5605C50.6133 75.5605 50.4651 75.5235 50.3761 75.4716C50.2279 75.3901 48.9457 75.2493 48.3602 75.2493C47.8117 75.2493 46.5666 75.3901 46.4184 75.4716C46.3294 75.5235 46.1738 75.5605 46.0775 75.5605C45.9811 75.5605 45.6698 75.6495 45.3882 75.7532C45.1065 75.857 44.7953 75.9682 44.6915 76.0052C43.9874 76.235 42.6311 77.1762 41.8232 77.9915C41.26 78.5548 40.1705 80.0074 40.1705 80.1853C40.1705 80.2743 39.6961 81.2304 39.585 81.3563C39.4886 81.4823 38.6289 81.4898 23.539 81.4898C13.9263 81.4898 7.38188 81.4601 7.05577 81.4156C6.41097 81.3341 5.87734 81.1562 5.38818 80.8746C5.19548 80.7634 5.00278 80.6745 4.97313 80.6745C4.93608 80.6745 4.63961 80.4077 4.31351 80.0816C3.63165 79.3997 3.20919 78.6437 2.98684 77.7099C2.86085 77.1837 2.85344 76.0497 2.85344 54.7342C2.85344 33.4334 2.86085 32.2846 2.98684 31.7658C3.24625 30.6838 3.82435 29.7573 4.6322 29.1051C5.0176 28.7938 5.26218 28.6456 5.86993 28.3417C6.03298 28.2602 6.53697 28.1342 7.00389 28.0527C7.21141 28.0156 23.0128 27.986 42.1197 27.986C73.211 27.9785 76.8946 27.9637 77.1317 27.8674C77.7173 27.6228 77.9692 27.1929 77.9692 26.4444V25.9478L77.5764 25.5698C77.2874 25.2882 77.1021 25.177 76.8872 25.1399C76.4128 25.0584 7.51529 25.0881 6.92978 25.1622C5.92181 25.303 5.58829 25.3771 5.15101 25.555C4.66185 25.7625 4.49138 25.7477 4.5655 25.5031C4.61738 25.34 5.20289 24.0727 5.38077 23.7392C5.44006 23.6354 5.48453 23.5094 5.48453 23.4649C5.48453 23.4205 5.66982 23.0795 5.89957 22.7015C6.12933 22.331 6.34427 21.953 6.38132 21.864C6.41838 21.7825 6.51473 21.612 6.59626 21.4935C6.67778 21.3675 6.76672 21.2192 6.79637 21.1599C6.8186 21.1007 6.92978 20.9154 7.04095 20.7523C7.15212 20.5893 7.25588 20.4188 7.27071 20.3743C7.28553 20.3299 7.50046 20.0186 7.74504 19.6851C7.98962 19.3515 8.44173 18.7364 8.7456 18.3213C9.04947 17.9063 9.33111 17.5283 9.38299 17.4912C9.42746 17.4468 9.79804 17.0169 10.2057 16.5277C11.0209 15.5568 12.7775 13.8077 13.6001 13.1481C13.8892 12.9183 14.2375 12.6293 14.3784 12.5033C15.075 11.9029 15.3641 11.6658 15.5123 11.5843C15.6013 11.5398 15.9348 11.31 16.2461 11.0654C16.5573 10.8283 16.839 10.6356 16.8612 10.6356C16.8909 10.6356 17.0391 10.5466 17.1873 10.4281C17.3356 10.3169 17.5134 10.1909 17.5801 10.1538C17.6468 10.1094 17.8766 9.96113 18.0989 9.8129C18.3139 9.66467 18.7141 9.42009 18.9883 9.27927C19.2626 9.13104 19.6183 8.93093 19.7665 8.83458C19.9222 8.73823 20.1964 8.58259 20.3817 8.49365C20.567 8.40471 20.8857 8.22683 21.0858 8.10825C21.2933 7.98966 21.5898 7.82661 21.7528 7.7525C21.9159 7.67838 22.368 7.46345 22.7534 7.27816C23.1388 7.10028 23.6428 6.87052 23.8651 6.78159C24.0875 6.69265 24.3765 6.58147 24.4951 6.52959C25.2437 6.20349 26.7334 5.64021 27.1632 5.52904C27.2892 5.49198 27.4671 5.43269 27.5709 5.39563C27.6746 5.35116 27.9563 5.26222 28.2009 5.19552C28.4454 5.1214 28.7493 5.03247 28.8679 4.99541C29.2311 4.86941 30.4169 4.54331 30.9802 4.41731C31.6027 4.26908 32.003 4.16532 32.3587 4.06897C32.5662 4.00968 32.8256 3.96521 32.9368 3.96521C33.0406 3.96521 33.3222 3.92074 33.5594 3.86145C34.1449 3.71321 35.2714 3.52052 35.5383 3.52052C35.6643 3.52052 36.0274 3.46863 36.3535 3.40934C37.3911 3.22405 38.9772 3.061 40.3187 3.00171C41.0302 2.97206 41.6898 2.94242 41.7862 2.94242C41.8825 2.935 42.2828 2.96465 42.6756 3.00912Z" fill="black"/>
<path d="M56.8092 33.0258C56.283 33.1 55.7642 33.263 55.2528 33.5076C54.7932 33.7225 54.3189 33.9893 54.1781 34.1153C54.1188 34.1598 53.9187 34.3229 53.7334 34.4711C53.4295 34.7157 52.7106 35.5754 52.5994 35.8348C52.5698 35.8941 52.4586 36.0942 52.3549 36.2795C52.0065 36.8873 51.7471 37.8063 51.6952 38.6141C51.6508 39.4072 51.7323 40.304 51.8805 40.7264C52.2511 41.7418 52.214 41.6677 52.4957 42.142C53.0071 43.024 53.8223 43.8763 54.5116 44.2543C55.3417 44.7064 55.6974 44.8769 55.816 44.8769C55.8976 44.8769 56.031 44.9139 56.1199 44.9584C56.2014 45.0029 56.6017 45.0844 57.0093 45.1437C58.7955 45.3957 60.6187 44.8028 62.0195 43.5132C62.2492 43.3056 62.9089 42.4607 63.1238 42.0976C63.4944 41.475 63.7834 40.5708 63.8872 39.674C63.9539 39.1404 63.9465 38.9773 63.8427 38.6734C63.6797 38.1843 63.3461 37.8582 62.8718 37.7173C62.5161 37.6136 62.4419 37.6136 62.0862 37.7173C61.4636 37.8952 61.1301 38.3473 61.0337 39.1329C60.8707 40.5263 60.2629 41.4453 59.1586 41.9938C58.6769 42.2236 58.6324 42.2384 57.7727 42.231C56.8611 42.231 56.7573 42.2087 56.0384 41.8011C55.3936 41.4379 54.734 40.4151 54.6154 39.585C54.519 38.881 54.7117 37.7915 54.9785 37.5246C55.0304 37.4728 55.0675 37.3986 55.0675 37.3542C55.0675 37.1541 55.7642 36.5019 56.2459 36.2499C56.7128 36.0127 57.706 35.7607 58.1951 35.7607C58.4397 35.7607 58.9289 35.316 59.0771 34.9603C59.255 34.5526 59.255 34.1746 59.0771 33.7966C58.7288 33.0481 58.121 32.8406 56.8092 33.0258Z" fill="black"/>
<path d="M25.7179 36.1386C25.5326 36.1683 25.2287 36.1979 25.036 36.1979C24.8433 36.2054 24.3838 36.3017 24.0132 36.4277C23.6426 36.5463 23.3165 36.65 23.2795 36.65C23.0127 36.65 21.3969 37.5468 20.8411 37.9989C19.9739 38.703 19.8479 38.8216 19.3514 39.4294C18.6176 40.3113 17.8913 41.5639 17.7208 42.2457C17.6838 42.4088 17.5578 42.8609 17.454 43.2463C17.2761 43.8911 17.2613 44.069 17.2539 45.3215C17.2539 46.7371 17.2687 46.8409 17.6764 48.2861C17.8987 49.094 18.7881 50.643 19.4181 51.3397C19.5441 51.4731 19.6404 51.6065 19.6404 51.6361C19.6404 51.7251 21.2858 53.0592 21.6045 53.2296C21.7675 53.3112 22.0195 53.452 22.1603 53.5335C22.6273 53.8077 23.0127 53.9782 23.235 54.0152C23.361 54.0375 23.5759 54.0894 23.7168 54.1412C23.8576 54.1931 24.0947 54.2746 24.2356 54.3265C24.6803 54.4896 26.4442 54.6526 26.9778 54.5785C27.2446 54.5415 27.7338 54.4822 28.0673 54.4451C28.4008 54.4006 28.7344 54.3414 28.8085 54.3043C28.8826 54.2672 29.142 54.1783 29.3866 54.1116C30.2908 53.8522 31.5137 53.1703 32.3512 52.4588C33.2035 51.7399 34.0262 50.7912 34.3597 50.1613C34.4635 49.9686 34.6562 49.6054 34.7896 49.3608C34.923 49.1162 35.086 48.716 35.1602 48.4714C35.2343 48.2268 35.3454 47.9081 35.3973 47.7673C35.5307 47.4116 35.7234 45.9886 35.7234 45.3586C35.7234 45.0769 35.6715 44.4766 35.6048 44.0245C35.4863 43.1648 35.3529 42.898 34.8933 42.557C34.671 42.394 34.1522 42.3124 33.7594 42.3866C33.3962 42.4607 32.9589 42.8683 32.7959 43.2982C32.6699 43.6169 32.6699 43.7206 32.744 44.358C32.9589 46.0775 32.744 47.0484 31.736 48.9161C31.6471 49.0866 30.6539 50.1242 30.3056 50.4058C30.0536 50.6134 29.3125 51.0358 28.9419 51.1915C27.2224 51.8955 25.2732 51.8585 23.7538 51.0803C22.4716 50.4281 21.4192 49.4497 20.9374 48.4714C20.8633 48.3084 20.7596 48.1231 20.7151 48.0638C20.6706 48.0045 20.5224 47.6191 20.3816 47.2115C20.1444 46.5 20.137 46.4333 20.137 45.3215C20.1444 44.2691 20.1592 44.1283 20.3445 43.5798C20.7966 42.2532 21.4933 41.1859 22.3604 40.4892C22.8941 40.0593 23.0275 39.9778 23.6797 39.6295C24.621 39.1329 25.9995 38.9106 27.2224 39.0662C27.9784 39.1625 28.6158 39.3108 28.8974 39.459C28.9789 39.5035 29.2606 39.5405 29.5274 39.5405C30.2908 39.5405 30.7058 39.2515 30.9504 38.5622C31.1876 37.8878 30.817 37.154 30.0684 36.8131C28.7121 36.2054 26.9037 35.9237 25.7179 36.1386Z" fill="black"/>
<path d="M80.4373 37.7173C79.585 37.8804 78.7104 38.3547 78.0434 39.0217C77.3022 39.7555 76.9687 40.4522 76.7834 41.6306C76.65 42.4385 76.8131 43.4242 77.2207 44.2839C77.9396 45.8255 79.9037 46.9298 81.638 46.7594C82.1938 46.7075 82.9646 46.5 83.3426 46.2925C83.7651 46.0701 84.5952 45.4179 84.7879 45.1659C85.5957 44.0912 85.781 43.5428 85.781 42.2087C85.781 40.8746 85.5957 40.3262 84.7879 39.2515C84.5952 38.9995 83.7651 38.3473 83.3426 38.125C82.5941 37.7247 81.3415 37.5469 80.4373 37.7173ZM82.2087 40.845C82.3643 40.9413 82.5792 41.1637 82.6904 41.3416C82.8609 41.6084 82.8905 41.727 82.8905 42.2087C82.8905 42.683 82.8609 42.809 82.6978 43.0684C82.3198 43.6539 81.7491 43.8911 80.9487 43.7948C80.6078 43.7503 80.5114 43.6984 80.1631 43.3649C79.837 43.0536 79.7554 42.9202 79.6813 42.5793C79.5998 42.2309 79.5998 42.1124 79.711 41.7418C79.8073 41.4008 79.9037 41.26 80.2001 41.0006C80.4003 40.8302 80.6671 40.6671 80.8005 40.6375C81.2452 40.5485 81.9122 40.6449 82.2087 40.845Z" fill="black"/>
<path d="M67.2227 55.0232C65.3402 55.3345 63.5762 56.2387 62.2125 57.6024C61.3083 58.5066 60.367 59.9741 60.078 60.9228C60.0039 61.1673 59.8927 61.486 59.8408 61.6269C59.6185 62.2124 59.5518 62.8053 59.5518 64.1468C59.5518 65.681 59.5962 65.9626 60.0928 67.4079C60.2559 67.8674 60.8932 69.0829 61.1749 69.4534C61.7678 70.2391 62.2051 70.743 62.4571 70.9283C62.6127 71.0469 62.7758 71.1729 62.8128 71.2248C63.1834 71.6547 65.103 72.7516 65.7404 72.8998C65.8812 72.9368 66.3185 73.048 66.7039 73.1518C67.3264 73.3222 67.5562 73.3371 68.705 73.3445C70.0242 73.3445 70.3578 73.3 71.6696 72.9294C72.2848 72.759 73.8856 71.9363 74.2488 71.6102C74.36 71.5064 74.6564 71.2544 74.9084 71.0469C75.1604 70.8394 75.5607 70.4318 75.7978 70.1353C76.0276 69.8388 76.2796 69.5424 76.3463 69.4757C76.413 69.409 76.5538 69.1866 76.6501 68.9865C76.7539 68.7864 76.9392 68.4455 77.0578 68.2231C77.1764 68.0008 77.3394 67.6302 77.4135 67.4079C77.4802 67.1855 77.584 66.8668 77.6433 66.7038C77.873 65.9922 77.9694 65.2215 77.9694 64.0949C77.9694 62.2568 77.7619 61.6565 76.9911 61.2563C76.8354 61.1748 76.5909 61.1081 76.4574 61.1081C76.0795 61.1081 75.5607 61.3749 75.3087 61.6936L75.0789 61.9826V63.628C75.0789 65.2511 75.0789 65.2733 74.8566 65.9255C74.108 68.1416 72.6998 69.5424 70.4838 70.2613C69.8982 70.454 69.7648 70.4688 68.6679 70.4614C67.7341 70.4614 67.4376 70.4318 67.2597 70.3428C67.1412 70.2761 66.9781 70.2242 66.8966 70.2242C66.4741 70.2242 64.4211 68.9569 64.1617 68.5418C64.1321 68.4899 63.9468 68.2676 63.7541 68.0452C63.2872 67.5042 62.8869 66.6815 62.5682 65.6291C62.3978 65.0584 62.3978 63.2352 62.5682 62.6645C62.8128 61.8418 62.9166 61.5972 63.3539 60.7745C63.6207 60.2631 64.9325 58.9735 65.4439 58.7141C65.6663 58.5955 65.9701 58.4399 66.111 58.3658C66.8669 57.973 68.1343 57.7358 69.1126 57.7951C69.7204 57.8396 70.5208 57.9952 70.7061 58.1064C70.8988 58.225 71.9142 58.4399 72.0995 58.3954C72.8036 58.225 73.3001 57.6395 73.3001 56.965C73.3001 56.7278 73.2408 56.4684 73.1519 56.2906C73.0111 56.0089 72.5293 55.6161 72.2255 55.5272C72.1439 55.5049 71.8919 55.416 71.6696 55.3345C70.5282 54.8898 68.7717 54.7712 67.2227 55.0232Z" fill="black"/>
<path d="M39.6886 59.6629C39.4885 59.7222 39.2661 59.7666 39.1994 59.774C39.0809 59.774 38.6213 59.9741 38.2508 60.1817C37.6208 60.53 36.7685 61.4639 36.4498 62.1383C35.6864 63.7763 35.8791 65.5254 36.9908 67.0003C37.4948 67.6673 38.3768 68.2454 39.3551 68.5493C39.8442 68.7049 41.4525 68.6901 41.875 68.527C42.9867 68.0972 43.6538 67.608 44.2319 66.815C44.7581 66.0812 44.9804 65.5476 45.0694 64.7768C45.188 63.754 45.0249 62.7831 44.6024 62.0494C44.4839 61.8567 44.3949 61.664 44.3949 61.6269C44.3949 61.5899 44.1207 61.286 43.7872 60.9451C43.3351 60.493 43.0312 60.2632 42.6532 60.0779C41.6971 59.611 40.489 59.4405 39.6886 59.6629ZM41.0301 62.5608C41.749 62.8054 42.1715 63.3909 42.1715 64.1617C42.1715 64.5545 42.1344 64.6879 41.9491 64.9843C41.623 65.5031 41.1487 65.7774 40.5854 65.7774C39.8591 65.7774 39.2958 65.3994 38.9993 64.7175C38.8807 64.4359 38.8882 63.8281 39.0142 63.5169C39.1698 63.1463 39.6886 62.6868 40.0814 62.5608C40.5483 62.42 40.6002 62.42 41.0301 62.5608Z" fill="black"/>
<path d="M16.6687 62.6941C16.6464 62.7164 16.3796 62.7683 16.0757 62.8127C14.1636 63.0795 12.6072 64.2209 11.5695 66.1108C10.695 67.7043 10.7617 70.3725 11.7252 71.84C11.8364 72.0178 11.9327 72.1809 11.9327 72.2105C11.9401 72.4181 13.3261 73.7892 13.7856 74.0412C14.2599 74.3006 15.0604 74.6712 15.1493 74.6712C15.2012 74.6712 15.3791 74.723 15.5347 74.7897C15.9646 74.9676 18.062 74.9676 18.6179 74.7823C19.1886 74.5896 19.5888 74.4414 19.7148 74.3673C19.7741 74.3302 19.9297 74.2561 20.0483 74.2042C20.3448 74.0708 21.3231 73.2852 21.6047 72.9591C22.8795 71.4768 23.3613 69.7944 23.0722 67.8526C22.9685 67.1855 22.8202 66.6519 22.6349 66.2813C22.2051 65.4512 22.0791 65.2585 21.5825 64.7323C20.5375 63.6206 19.5517 63.0721 18.0843 62.8053C17.5062 62.7015 16.728 62.6348 16.6687 62.6941ZM17.7878 65.6884C18.0546 65.7625 18.3511 65.8663 18.4548 65.9182C19.3294 66.3851 20.0706 67.3412 20.2336 68.2231C20.5301 69.787 19.6481 71.3063 18.1213 71.8918C17.5803 72.0994 16.4093 72.0845 15.9127 71.8696C15.0974 71.5064 14.6157 71.0617 14.1932 70.2835L13.8968 69.7425V68.8457C13.8968 67.8748 13.919 67.8007 14.4378 66.9854C14.9121 66.2443 16.1054 65.5772 16.9725 65.5698C17.1578 65.5624 17.521 65.6217 17.7878 65.6884Z" fill="black"/>
</g>
<defs>
<clipPath id="clip0_135_80">
<rect width="100" height="84.3802" fill="white"/>
</clipPath>
</defs>
</svg>
