<svg width="150" height="150" viewBox="0 0 150 150" fill="none" xmlns="http://www.w3.org/2000/svg">
<g clip-path="url(#clip0_76_13)">
<path d="M96.7513 0.506409C81.9894 2.65814 69.496 11.1817 62.0901 24.1921C58.8542 29.8633 57.3696 35.0174 55.8684 45.8428C53.4665 63.0399 51.5983 68.2942 45.31 75.6834C41.3568 80.3205 40.0224 85.0076 41.2233 90.0116L41.657 91.8297L33.3003 100.186L24.9269 108.543L23.6426 107.526C16.5702 101.854 5.67814 104.173 1.64157 112.196C-3.31241 122.054 3.52641 133.48 14.3851 133.48H16.5202V135.615C16.5202 146.474 27.946 153.312 37.8039 148.358C45.777 144.339 48.1122 133.73 42.6078 126.524L41.4735 125.04L49.8303 116.7L58.1703 108.343L59.9884 108.777C65.2259 110.028 69.6795 108.66 74.9004 104.173C81.489 98.5184 87.4605 96.4668 104.157 94.1316C122.856 91.5295 133.681 85.4913 141.904 73.098C164.172 39.5044 136.333 -5.26489 96.7513 0.506409ZM110.029 6.54459C146.625 12.9164 156.466 60.8549 125.374 81.3213C119.269 85.3412 115.316 86.5922 102.673 88.4604C85.3755 91.0291 77.7694 93.7313 71.2308 99.6527C64.9924 105.274 58.6373 104.54 55.5182 97.8179C54.5007 95.5994 54.4006 95.4993 52.1821 94.4819C45.4768 91.3627 44.7262 85.0743 50.3473 78.8026C56.3021 72.1639 58.9709 64.6746 61.5397 47.3273C63.4078 34.6838 64.6588 30.7307 68.6787 24.6258C77.736 10.8647 94.0157 3.74234 110.029 6.54459ZM49.8136 100.186C50.0471 100.42 50.8811 101.588 51.6651 102.789L53.0995 104.957L43.6586 114.481C32.1494 126.091 32.5664 125.156 37.1534 129.276C42.6411 134.164 39.2384 143.555 31.8158 144.088C23.776 144.655 19.4225 135.682 24.6934 129.427C27.2621 126.374 23.6259 122.738 20.5734 125.307C14.3184 130.577 5.34454 126.224 5.91166 118.184C6.44542 110.762 15.8363 107.359 20.7236 112.847C24.8602 117.45 23.9094 117.867 35.4687 106.341L44.9597 96.9005L47.1614 98.3349C48.3791 99.1189 49.5801 99.9529 49.8136 100.186Z" fill="black"/>
<path d="M98.3192 18.621C95.9006 19.7886 96.3176 23.3247 98.9364 23.8919C100.221 24.1754 101.772 23.3081 102.206 22.0571C103.04 19.6551 100.604 17.5034 98.3192 18.621Z" fill="black"/>
<path d="M80.6718 24.3923C79.7377 24.7759 79.2373 25.7267 79.2373 27.1445C79.2373 29.9134 83.1571 30.8141 84.4415 28.3287C85.7258 25.8434 83.3239 23.3247 80.6718 24.3923Z" fill="black"/>
<path d="M133.647 36.085C130.812 37.2526 131.713 41.4726 134.782 41.4726C137.234 41.4726 138.485 38.7538 136.867 36.9357C135.983 35.9515 134.765 35.6346 133.647 36.085Z" fill="black"/>
<path d="M86.2094 42.1732C84.6915 43.3408 84.5414 45.0922 85.8758 46.4433C87.7607 48.3115 90.5796 47.2606 90.5796 44.7086C90.5796 42.3567 87.9441 40.8388 86.2094 42.1732Z" fill="black"/>
<path d="M134.065 47.8944C132.78 48.4449 132.413 49.062 132.096 51.2471C130.395 63.1067 121.004 73.048 109.095 75.6C105.859 76.3006 104.925 77.0178 104.925 78.8359C104.925 81.9384 106.96 82.3721 113.114 80.5874C126.075 76.8343 136.633 64.4911 137.834 51.7309C138.135 48.5283 136.483 46.8436 134.065 47.8944Z" fill="black"/>
</g>
<defs>
<clipPath id="clip0_76_13">
<rect width="149.812" height="150" fill="white"/>
</clipPath>
</defs>
</svg>
