<svg width="100" height="108" viewBox="0 0 100 108" fill="none" xmlns="http://www.w3.org/2000/svg">
<g clip-path="url(#clip0_131_35)">
<path d="M10.4565 0.171365C10.4325 0.235123 10.2732 0.31482 10.1058 0.338729C9.22912 0.474215 7.77066 1.07991 6.87806 1.66967C6.24845 2.09207 4.83781 3.48677 4.47917 4.05262C3.75393 5.19229 3.28371 6.36383 3.03665 7.63102C2.8932 8.38814 2.86929 9.88645 2.9968 10.3806C3.03665 10.5559 3.10838 10.8747 3.14026 11.0978C3.21996 11.5601 3.30762 11.8071 3.69814 12.7316C4.24805 14.0466 5.32396 15.4015 6.53536 16.31C7.0773 16.7245 8.62342 17.5214 9.06973 17.625C9.36461 17.6968 9.34867 17.8482 8.93424 18.5416C8.52779 19.219 8.83861 18.956 3.80174 22.8133C2.55847 23.7617 1.38692 24.7021 1.19565 24.9094C0.558071 25.5948 0.0400391 26.9018 0.0400391 27.8263C0.0400391 28.9261 0.57401 30.1773 1.38692 30.9903C2.04841 31.6517 2.76568 32.0024 4.0249 32.2893C4.52699 32.4089 5.02111 32.5364 5.12472 32.5762L5.30005 32.6559V35.9554V39.2548L4.51902 40.0837C3.16417 41.5342 2.80553 42.0522 2.40704 43.2078C2.17592 43.8853 2.15998 44.0048 2.15998 45.0887C2.15201 46.4674 2.25562 46.9377 2.80553 48.0215C3.0765 48.5714 3.33153 48.938 3.7619 49.4003C4.86969 50.5718 6.09702 51.2014 7.62721 51.3927C8.71109 51.5202 10.2174 51.2891 11.0462 50.8667C11.4527 50.6515 11.5164 50.7312 11.5164 51.5202C11.5164 51.9028 11.5563 52.5404 11.6041 52.9388C11.6519 53.3294 11.7157 54.0148 11.7555 54.4531C11.8193 55.2421 11.891 55.792 12.1221 57.1628C12.4648 59.1712 12.6083 59.5457 13.1263 59.8884C13.4053 60.0797 13.5407 60.1116 13.987 60.1116C14.6645 60.1116 15.0869 59.8645 15.3817 59.2748C15.6607 58.7249 15.6527 58.5575 15.2144 56.6448C15.1506 56.3579 15.1028 56.0311 15.1028 55.9115C15.1028 55.784 15.055 55.3776 14.9912 54.995C14.6007 52.5643 14.5848 48.2447 14.9593 45.8458C15.0072 45.535 15.0709 45.0727 15.1028 44.8097C15.1347 44.5467 15.1984 44.1881 15.2463 44.0128C15.2941 43.8374 15.3897 43.423 15.4614 43.0962C15.852 41.319 16.4656 38.9998 16.5533 38.944C16.6091 38.9042 16.7127 38.8962 16.7764 38.9201C16.8402 38.944 17.2546 39.0556 17.693 39.1672C19.0319 39.5019 19.6296 39.3744 20.1875 38.6571C20.3788 38.4021 20.4027 38.2985 20.4027 37.7884C20.3947 37.2624 20.3708 37.1748 20.1556 36.9038C19.8209 36.4973 19.534 36.3379 18.7529 36.1546C17.6292 35.8837 17.0873 35.7004 16.1787 35.254C12.9669 33.676 10.7673 30.6077 10.2811 26.9974C10.0341 25.2042 10.2253 23.5147 10.8709 21.7534C11.7635 19.3465 13.8117 17.0751 16.1389 15.9195C16.4258 15.7761 16.7286 15.6246 16.8083 15.5848C17.1271 15.4174 18.4262 15.0349 19.1195 14.9074C20.0998 14.7241 21.9089 14.732 22.9131 14.9153C25.4794 15.3856 27.8384 16.8042 29.4881 18.8683C30.3568 19.9602 31.0422 21.2911 31.4088 22.6141C31.7515 23.8414 31.7834 24.224 31.8392 28.2327C31.887 31.7553 31.903 32.1777 32.0384 32.5284C32.4051 33.5167 32.158 33.2138 36.9 38.5216C38.6533 40.4822 40.2393 42.2594 40.4306 42.4746C41.7057 43.957 42.7338 45.0329 43.0048 45.1684C43.3076 45.3278 43.5627 45.3278 61.1518 45.3278C77.0434 45.3278 79.012 45.3437 79.0996 45.4473C79.251 45.6306 79.1395 46.6986 78.9004 47.4477C78.4142 48.9221 77.2825 49.9582 75.7125 50.3646C75.5372 50.4045 74.0149 50.4682 72.3254 50.5001L69.249 50.5479L68.9223 50.803C68.1572 51.4166 68.0695 52.4288 68.723 53.1062C69.2331 53.6322 69.3287 53.6482 71.7675 53.6721C72.9709 53.688 74.007 53.7119 74.0707 53.7358C74.1584 53.7677 74.1743 53.9032 74.1345 54.3734C74.0149 55.7362 73.6244 56.6448 72.7876 57.4736C72.2058 58.0474 71.8312 58.2706 70.9785 58.5655C70.5641 58.7089 70.0938 58.7169 60.2034 58.7169C53.1423 58.7169 49.7312 58.7408 49.4602 58.8046C48.6792 58.9719 48.0895 59.6493 48.1054 60.3826C48.1054 60.8129 48.4082 61.3469 48.7988 61.6258L49.1494 61.8649L59.8368 61.9048L70.5322 61.9446L70.5561 62.5822C70.588 63.3154 70.4445 63.8972 70.062 64.6942C69.7352 65.3716 68.8665 66.2562 68.2289 66.5591C67.1371 67.0771 68.0217 67.0373 56.8641 67.0851C46.8063 67.1249 46.7027 67.1249 46.4238 67.2843C46.2724 67.38 46.0412 67.6031 45.9058 67.7944C45.6985 68.0813 45.6667 68.2088 45.6667 68.6312C45.6667 69.0377 45.7065 69.1891 45.8898 69.4601C46.0094 69.6434 46.2405 69.8825 46.4078 69.994L46.7187 70.1933L57.1909 70.1694C67.4718 70.1455 67.671 70.1455 68.1811 69.9861C69.9026 69.4441 71.2415 68.5196 72.2457 67.1648C73.3216 65.7143 73.6563 64.5985 73.736 62.2554L73.7838 60.7332L73.991 60.6057C74.3497 60.3905 75.3379 59.4421 75.7125 58.956C76.374 58.0953 76.8522 57.0672 77.1152 55.9275C77.163 55.6884 77.2347 54.9871 77.2586 54.3734L77.3064 53.2576L77.7448 53.0265C79.8488 51.9267 81.0363 50.6834 81.8412 48.7229C82.0564 48.1969 82.2875 46.8898 82.2875 46.1885C82.2875 45.7741 82.3274 45.4792 82.3831 45.4234C82.4549 45.3517 83.0446 45.3278 84.535 45.3278C86.0412 45.3278 86.7187 45.2959 87.0534 45.2162C87.5156 45.0966 88.2648 44.9532 88.9024 44.8496C89.269 44.7858 91.8432 44.3076 93.0068 44.0845C93.3574 44.0128 93.8436 43.9331 94.0827 43.8932C94.3218 43.8613 94.6804 43.7896 94.8797 43.7498C96.5214 43.3752 96.6649 43.3513 96.7525 43.4947C96.7764 43.5346 96.7685 43.6302 96.7286 43.7099C96.633 43.8853 96.5931 43.9809 96.0353 45.3278C95.7882 45.9175 95.5491 46.4913 95.5013 46.6029C95.31 47.0492 95.1984 47.3043 94.8478 48.1331C94.7043 48.4917 94.6007 48.7229 94.3935 49.1931C94.2421 49.5278 94.2102 49.8067 94.1544 51.0261C94.0349 53.8633 93.8834 55.2022 93.3973 57.7207C93.1423 59.0676 92.4808 61.4744 92.0026 62.8213C91.5802 64.0008 91.5643 64.0486 91.0143 65.3318C89.0857 69.8346 86.368 73.8354 82.8454 77.366C80.4067 79.8127 78.1592 81.5581 75.0829 83.415C74.254 83.9171 71.7037 85.256 71.5762 85.256C71.5523 85.256 71.3371 85.3517 71.106 85.4633C70.5003 85.7661 67.942 86.7384 67.2646 86.9297C67.1371 86.9616 66.9219 87.0333 66.7864 87.0731C66.6589 87.121 66.3321 87.2166 66.0691 87.2963C65.8061 87.368 65.5033 87.4637 65.3917 87.4955C65.1128 87.5912 62.7139 88.0853 61.8053 88.2287C59.3666 88.6352 58.745 88.683 55.2303 88.7388C50.8231 88.8105 48.5517 88.6113 44.9813 87.8382C43.8097 87.5912 43.1323 87.4158 42.16 87.121C41.9448 87.0572 41.6579 86.9695 41.5224 86.9297C41.3949 86.8898 40.9406 86.7384 40.5262 86.587C36.9876 85.3198 33.7679 83.6462 31.0024 81.6537C30.0938 80.9922 29.4483 80.5141 29.1375 80.259C25.4395 77.2465 22.5226 73.8992 20.1875 69.994C19.1275 68.2168 18.0038 65.9932 17.6133 64.8854C17.2785 63.9371 16.7525 63.4987 15.9396 63.4987C15.047 63.4987 14.3855 64.1363 14.3855 65.013C14.3855 65.2919 14.7601 66.4316 15.0072 66.8938C15.055 66.9815 15.4296 67.7466 15.852 68.5993C16.5613 70.0578 16.9199 70.7352 17.2387 71.2453C17.3104 71.3648 17.5336 71.7235 17.7248 72.0423C19.1753 74.4411 21.2315 77.0711 23.3913 79.3106C24.2441 80.1873 26.1648 81.9327 27.0972 82.6659C27.3124 82.8412 27.5595 83.0484 27.6471 83.1202C27.8065 83.2636 29.2172 84.2758 30.1257 84.8974C31.8312 86.069 34.9872 87.7745 36.9 88.5635C37.2985 88.7308 37.7607 88.9301 37.936 89.0098C38.2548 89.1612 40.3987 89.8864 41.2833 90.1494C41.5463 90.2291 41.8492 90.3248 41.9528 90.3726C42.0643 90.4124 42.2955 90.4762 42.4708 90.5081C42.6541 90.5479 43.0685 90.6515 43.3953 90.7392C44.8777 91.1377 48.3046 91.7035 49.253 91.7115C49.8029 91.7195 50.3369 91.8311 50.4166 91.9586C50.5122 92.11 50.5043 97.4656 50.4086 97.7207L50.3289 97.9279H47.6272C45.4515 97.9279 44.8059 97.9518 44.3038 98.0554C42.8613 98.3503 41.7217 99.1393 40.8928 100.398C40.1994 101.451 40.0241 102.303 40.064 104.423C40.0879 105.682 40.1118 105.906 40.2552 106.224C40.5023 106.75 40.9247 107.189 41.4587 107.46L41.9209 107.691L51.8273 107.715C61.5503 107.731 61.7416 107.731 62.3393 107.571C64.0687 107.117 65.4555 105.993 66.2206 104.423C66.7545 103.323 66.7466 103.395 66.7466 96.6209C66.7466 91.1855 66.7625 90.5161 66.8741 90.4045C66.9378 90.3327 67.0653 90.277 67.145 90.277C67.2327 90.277 67.416 90.2291 67.5595 90.1654C67.7029 90.1096 68.3405 89.8864 68.9781 89.6792C71.2016 88.954 74.3258 87.5354 76.3421 86.3399C76.9 86.0052 77.3702 85.7342 77.3861 85.7342C77.4499 85.7342 79.9763 84.0048 80.566 83.5665C84.2481 80.7771 87.6352 77.2226 90.1456 73.5007C92.1062 70.6077 94.1624 66.4714 95.0789 63.5784C95.1586 63.3393 95.2702 63.0126 95.326 62.8611C95.5969 62.1439 96.1468 60.016 96.4975 58.3184C96.9279 56.2144 97.2068 53.8713 97.3184 51.4246C97.3423 50.8508 97.4061 50.277 97.4539 50.1494C97.4937 50.014 97.8922 49.0656 98.3305 48.0375C100.124 43.8056 100.156 43.678 99.8288 42.626C99.526 41.6537 98.9601 40.9763 98.0675 40.538C97.5894 40.2989 97.4858 40.2829 96.7525 40.2829C96.3142 40.2829 95.6846 40.3387 95.3578 40.4105C95.0311 40.4822 94.258 40.6336 93.6443 40.7452C93.0307 40.8568 92.17 41.0162 91.7316 41.0959C91.2933 41.1835 90.5919 41.311 90.1775 41.3828C89.7631 41.4625 89.2371 41.574 89.006 41.6298C88.7828 41.6936 88.5039 41.7414 88.3923 41.7414C88.2728 41.7414 87.954 41.7892 87.683 41.853C85.9456 42.2515 87.5635 42.2196 65.2961 42.2196C53.9153 42.2196 44.5509 42.1957 44.4792 42.1718C44.3676 42.1319 43.8974 41.6219 42.5107 40.0678C42.2158 39.741 41.4826 38.9121 40.8769 38.2347C40.2632 37.5493 39.2431 36.4017 38.6055 35.6844C37.9679 34.9592 36.9558 33.8115 36.3501 33.1341C35.7444 32.4567 35.1945 31.7952 35.1227 31.6597C35.0032 31.4525 34.9793 30.9504 34.9394 27.5155C34.8996 23.5944 34.8836 23.4031 34.5728 22.2156C34.3178 21.2274 34.1345 20.6934 33.744 19.8406C33.6165 19.5617 33.5128 19.3226 33.5128 19.2987C33.5128 19.2827 33.2977 18.9082 33.0347 18.4698C32.7717 18.0315 32.5565 17.625 32.5565 17.5613C32.5565 17.4896 32.7557 17.3461 33.0187 17.2266C34.4692 16.5332 35.8081 15.3776 36.6848 14.0466C37.0912 13.425 37.7209 12.0303 37.8962 11.3369C38.1911 10.2052 38.207 8.06138 37.9281 7.03329C37.163 4.25983 35.5212 2.22755 33.0745 1.056C32.2377 0.657518 31.6001 0.442336 30.9466 0.338729C30.7553 0.306851 30.6437 0.251063 30.6437 0.179335C30.6437 0.0757288 30.4126 0.0597894 29.2092 0.0597894C28.0058 0.0597894 27.7746 0.0757288 27.7746 0.179335C27.7746 0.251063 27.6631 0.306851 27.4798 0.338729C26.093 0.553912 24.3317 1.42261 23.2319 2.42679C22.9131 2.7137 22.3234 3.15204 22.0444 3.31143C21.5025 3.62225 20.3469 3.73383 19.6455 3.54255C19.0956 3.39113 18.7131 3.15204 17.9321 2.49055C17.0235 1.72546 16.5374 1.3987 15.6926 1.00022C14.9912 0.673457 14.4652 0.498124 13.7878 0.378578C13.5726 0.338729 13.3495 0.251063 13.3016 0.179335C13.1741 0.00400135 10.5202 -0.00396837 10.4565 0.171365ZM13.1901 3.46286C14.1863 3.68601 15.1506 4.21998 16.0592 5.0568C17.414 6.28414 19.0717 6.90577 20.7932 6.81014C22.3074 6.73044 23.5427 6.2682 24.6346 5.37559C24.9613 5.10462 25.4076 4.73801 25.6228 4.56268C26.0133 4.24389 26.7306 3.8454 27.3363 3.62225C28.7549 3.08828 30.588 3.24768 31.9667 4.01277C33.3375 4.77786 34.3975 6.11677 34.8278 7.63102C35.0271 8.34032 35.0271 9.85457 34.8278 10.5798C34.3018 12.4686 32.9151 13.959 31.0582 14.6125C30.2453 14.8994 30.0301 14.8755 29.4324 14.4212C27.9659 13.3055 26.2843 12.4925 24.4672 12.0223C23.2877 11.7115 22.7378 11.6557 21.0004 11.6557C19.3746 11.6557 18.6254 11.7275 17.8125 11.9506C17.6611 11.9905 17.406 12.0542 17.2546 12.0941C16.7605 12.2056 15.6527 12.644 14.8239 13.0504C14.0349 13.433 13.1821 13.9669 12.3214 14.6205C11.9149 14.9313 11.8591 14.9472 11.4846 14.9153C9.787 14.74 8.47997 14.0546 7.37218 12.7555C6.04123 11.1935 5.70651 8.70693 6.56724 6.7942C7.4439 4.85756 9.16536 3.61428 11.3969 3.29549C11.7476 3.24768 12.6003 3.32737 13.1901 3.46286ZM6.98166 25.2839C6.95775 26.1367 7.157 27.7545 7.42 28.8942C7.5236 29.3485 7.61127 29.739 7.61127 29.7549C7.61127 29.8267 6.97369 29.7789 6.75851 29.6992C6.63896 29.6513 6.37596 29.5876 6.17672 29.5477C5.39569 29.4122 3.89738 28.9819 3.70611 28.8384C3.43514 28.6472 3.2359 28.2168 3.22793 27.8263C3.22793 27.2445 3.32356 27.1488 5.93763 25.1564C6.3919 24.8058 6.82227 24.5348 6.88602 24.5428C6.98166 24.5667 7.00557 24.6942 6.98166 25.2839ZM9.17333 33.5406C9.48415 33.6203 9.59573 33.7159 9.97827 34.202C10.6398 35.0389 11.7635 36.1227 12.6959 36.8321L13.5168 37.4537L13.469 37.7804C13.4371 37.9638 13.3654 38.2905 13.3016 38.5137C13.1821 38.944 12.5366 41.6219 12.3612 42.4587C12.2975 42.7456 12.1859 43.2238 12.1221 43.5346C12.0504 43.8374 11.9946 44.1961 11.9946 44.3316C11.9866 44.4591 11.9388 44.7858 11.8751 45.0488C11.8113 45.3118 11.7555 45.6864 11.7555 45.8856C11.7555 46.2363 11.7316 46.2682 11.0143 46.9695C9.99421 47.9657 9.47618 48.2208 8.46403 48.2287C7.4439 48.2367 6.88602 48.0215 6.21657 47.368C5.81808 46.9775 5.6826 46.7703 5.50726 46.3001C5.31599 45.798 5.28411 45.6306 5.31599 45.0249C5.35584 44.0207 5.6029 43.5505 6.71866 42.379C7.72284 41.319 8.209 40.7691 8.34448 40.522C8.42418 40.3945 8.45606 39.486 8.472 36.8958C8.50388 32.9907 8.42418 33.3573 9.17333 33.5406ZM63.6224 96.7324C63.6384 102.662 63.6384 102.646 63.2 103.347C62.682 104.168 61.9886 104.527 60.7693 104.591C59.8288 104.638 59.7332 104.591 59.9085 104.168C60.2273 103.403 60.2991 102.941 60.315 101.769C60.323 100.669 60.315 100.574 60.1397 100.263C59.526 99.1871 58.0357 99.1871 57.414 100.263C57.2546 100.55 57.2148 100.741 57.1749 101.594C57.1112 102.925 56.8721 103.491 56.1628 104.017C55.3578 104.607 55.7324 104.575 49.2451 104.599C42.5983 104.63 43.1562 104.694 43.1562 103.929C43.1562 102.829 43.4112 102.096 43.9691 101.634C44.535 101.156 44.4951 101.164 48.1373 101.116L51.4846 101.068L51.9229 100.853C52.6402 100.502 53.1343 99.9761 53.4132 99.2748C53.5407 98.9639 53.5646 98.5256 53.5965 95.4573L53.6364 91.9904L55.4136 91.9665L57.1829 91.9506V93.2417C57.1829 94.4451 57.1988 94.5726 57.3742 94.9552C57.6611 95.5609 58.0755 95.8159 58.7848 95.8079C59.4463 95.8079 59.8767 95.5609 60.1397 95.0349C60.2991 94.74 60.323 94.5328 60.3548 93.2018C60.4027 91.4724 60.323 91.6079 61.2873 91.5123C61.5981 91.4804 62.0763 91.4087 62.3632 91.3449C62.6501 91.2891 63.0406 91.2493 63.2399 91.2572L63.5985 91.2732L63.6224 96.7324Z" fill="black"/>
<path d="M17.8366 19.498C17.2389 19.7052 16.7527 20.1355 16.4658 20.7173C16.2506 21.1318 16.2188 21.2911 16.2188 21.8092C16.2267 22.8293 16.7129 23.6183 17.6055 24.0487C18.522 24.487 19.5421 24.3356 20.2992 23.6582C20.5144 23.4669 20.7854 23.1242 20.9049 22.901C21.0803 22.5504 21.1122 22.3989 21.1122 21.8171C21.1122 21.2194 21.0882 21.0919 20.881 20.7173C20.2674 19.5856 19.0321 19.0915 17.8366 19.498Z" fill="black"/>
<path d="M55.2305 50.5878C54.9277 50.6834 54.4814 51.1058 54.3459 51.4405C54.2024 51.7753 54.2024 52.3571 54.3459 52.6838C54.4973 53.0265 54.9197 53.417 55.3102 53.5446C55.5652 53.6322 56.418 53.6561 59.4146 53.6561C63.7262 53.6561 63.7581 53.6561 64.2682 53.0982C64.6188 52.7157 64.7145 52.381 64.6507 51.8072C64.6109 51.4007 64.4435 51.1457 64.0052 50.795L63.7023 50.5479L59.5899 50.532C57.3186 50.524 55.358 50.5559 55.2305 50.5878Z" fill="black"/>
<path d="M37.617 67.2205C36.8679 67.611 36.5332 68.4001 36.7882 69.1651C36.8998 69.4999 37.0432 69.6672 37.4497 69.9621L37.7605 70.1932H39.9043C42.2873 70.1932 42.3351 70.1853 42.8133 69.6513C43.2596 69.1492 43.2676 68.1849 42.8133 67.6748C42.3192 67.109 42.2156 67.085 39.9123 67.085C38.1988 67.093 37.8163 67.109 37.617 67.2205Z" fill="black"/>
</g>
<defs>
<clipPath id="clip0_131_35">
<rect width="100" height="107.77" fill="white"/>
</clipPath>
</defs>
</svg>
