<svg width="100" height="84" viewBox="0 0 100 84" fill="none" xmlns="http://www.w3.org/2000/svg">
<g clip-path="url(#clip0_172_48)">
<path d="M11.8216 0.148302C10.6802 0.274298 9.32387 0.563348 8.30108 0.911689C7.76745 1.08957 6.90031 1.45273 6.67055 1.60096C6.61126 1.63802 6.48526 1.69731 6.39632 1.74178C6.0628 1.8826 4.98813 2.58669 4.40262 3.0388C3.55771 3.70583 2.52751 4.82497 1.8827 5.78106C0.919205 7.22631 0.40781 8.55297 0.0742914 10.4429C-0.0220585 11.021 -0.0220585 13.8744 0.0817029 14.4451C0.400398 16.261 0.60051 17.0021 1.21567 18.6845C1.50472 19.485 2.34222 21.1674 2.94255 22.1605C3.96534 23.8504 5.2253 25.5698 6.42597 26.9039C7.96015 28.6011 10.317 30.7505 11.8438 31.8326C12.0958 32.0179 12.5924 32.3736 12.9407 32.633C14.171 33.5446 17.9509 36.0275 18.8996 36.5463C19.0404 36.6204 19.2108 36.7242 19.2701 36.7686C19.3294 36.8131 19.5962 36.9688 19.8631 37.117C20.1299 37.2578 20.5597 37.495 20.8266 37.6432C22.3385 38.4807 24.9918 39.7184 27.1412 40.5856C28.1343 40.9858 31.1879 41.9864 32.0921 42.2013C32.2329 42.2384 32.7443 42.3718 33.2335 42.4978C34.1006 42.7275 36.3982 43.187 37.836 43.4316C38.2436 43.4983 38.8366 43.6021 39.1553 43.6614C39.4665 43.7207 39.8371 43.7651 39.9705 43.7651C40.0965 43.7651 40.556 43.8096 40.9859 43.8689C42.1866 44.0394 43.3798 44.1283 45.3587 44.2172C47.4413 44.3136 47.5081 44.3284 47.5155 44.825C47.5155 44.9954 47.5451 45.2993 47.5822 45.5068C47.6266 45.7811 47.6192 45.9071 47.5451 45.9812C47.4932 46.0331 47.1523 46.1368 46.7965 46.2183C46.211 46.3369 45.9072 46.4185 45.0993 46.6556C44.1358 46.9373 42.2755 47.7377 41.5047 48.2046C41.3639 48.2862 41.1786 48.3899 41.0897 48.427C41.0007 48.464 40.6227 48.7086 40.2373 48.968C37.9768 50.5022 36.2055 52.2884 34.7973 54.4303C33.5003 56.4092 32.6554 58.4029 32.0995 60.8339C31.9142 61.6491 32.1143 62.2495 32.7072 62.62C33.2038 62.9239 33.604 62.9536 34.0784 62.709C34.5898 62.4496 34.7825 62.1383 35.0196 61.1822C35.3828 59.7296 35.6941 58.8772 36.3537 57.5432C37.2653 55.7051 38.9774 53.6002 40.6524 52.2736C44.0395 49.5832 48.3085 48.3455 52.5108 48.8346C53.882 48.9977 55.342 49.3238 56.1795 49.6499C57.3061 50.0946 57.9138 50.391 59.1071 51.0581C60.3078 51.7399 62.0643 53.2519 63.1464 54.5489C63.5762 55.0751 64.4137 56.2461 64.688 56.7279C65.0289 57.3134 65.318 57.9137 65.6218 58.6623C65.8145 59.1292 66.022 59.6258 66.0813 59.7592C66.1406 59.8926 66.1851 60.0557 66.1851 60.1298C66.1851 60.1965 66.2296 60.3818 66.2889 60.5522C66.4519 61.0266 66.6224 61.8196 66.7484 62.7386C66.8966 63.7985 66.8595 66.5852 66.6817 67.5191C66.4667 68.616 66.2073 69.5869 65.9628 70.2243C65.8738 70.4466 65.7701 70.7283 65.733 70.8543C65.6589 71.1137 64.8733 72.6997 64.5768 73.1889C64.0283 74.1079 62.4126 76.1313 61.8938 76.5315C61.7901 76.613 61.5529 76.8279 61.3676 76.9984C60.3448 77.9619 58.3141 79.2145 56.7725 79.8444C54.5712 80.7338 51.829 81.1711 49.65 80.9784C46.8707 80.7338 44.5657 80.0001 42.3126 78.6289C40.2744 77.3912 38.5179 75.6866 37.1467 73.6039C36.8132 73.0999 35.9905 71.5065 35.7978 71.0025C35.7682 70.921 35.7015 70.7579 35.657 70.6319C35.4273 70.0835 35.1086 68.994 34.901 68.0972C34.6491 67.0151 34.2562 66.6297 33.3817 66.6297C32.9815 66.6297 32.8703 66.6667 32.5961 66.8594C32.2255 67.1188 31.9438 67.6154 31.9438 68.023C31.9438 68.4233 32.1736 69.3645 32.6183 70.7801C33.7671 74.4637 36.1981 77.8359 39.3924 80.2002C39.7185 80.4374 40.0521 80.6819 40.1336 80.7264C41.3565 81.4824 42.2681 81.9789 43.1353 82.3569C43.2761 82.4162 43.4614 82.5052 43.5355 82.5422C43.617 82.5867 44.121 82.7646 44.6546 82.9424C48.6568 84.2469 52.5701 84.2691 56.6242 82.9943C57.2171 82.809 57.7804 82.6163 57.8842 82.5645C57.9879 82.52 58.1881 82.4236 58.3289 82.3569C61.2268 81.0525 63.7022 79.17 65.5477 76.8576C67.7712 74.0634 69.0311 71.21 69.6315 67.5932C69.8464 66.2813 69.8464 63.3316 69.624 62.0642C69.5796 61.827 69.6018 61.79 69.7945 61.7084C69.9057 61.664 70.1725 61.5973 70.3726 61.5602C70.9211 61.4638 71.3806 61.3379 72.4552 60.9821C72.9889 60.8116 73.4855 60.6634 73.5596 60.6634C73.6337 60.6634 73.9672 60.7598 74.2933 60.8783C74.6268 60.9895 75.0938 61.1452 75.3383 61.2193C75.5829 61.286 75.8868 61.3749 76.0054 61.4046C77.1542 61.7381 78.9774 61.953 80.6376 61.953C82.8759 61.953 84.3507 61.7158 86.6039 60.9821C88.012 60.5226 88.5012 60.2854 88.7384 59.9371C89.0645 59.4553 89.1164 59.1589 88.9755 58.6994C88.6717 57.7359 87.8119 57.3875 86.7743 57.8174C86.1295 58.0842 85.8553 58.1805 85.3439 58.3288C85.0993 58.4029 84.8177 58.4918 84.7139 58.5215C84.3285 58.6549 83.0167 58.8772 82.0902 58.9662C80.7858 59.0847 78.7625 58.9958 77.6581 58.7661C77.4432 58.7216 77.3691 58.4918 77.547 58.4177C77.925 58.2621 79.9705 56.4166 80.808 55.4679C81.2824 54.9417 82.3126 53.5632 82.6906 52.9554C83.1056 52.2884 83.9653 50.5763 84.247 49.8426C84.4175 49.4127 84.8621 48.0342 84.8621 47.9452C84.8621 47.8933 84.9066 47.6932 84.9659 47.5005C85.0993 47.0336 85.2698 46.1739 85.4254 45.1288C85.5218 44.4766 85.5366 43.9504 85.5069 42.5719C85.4699 40.9043 85.4328 40.5041 85.1808 39.207C84.9585 38.0805 84.3507 36.0497 84.0839 35.5383C84.0246 35.4346 83.8468 35.0566 83.6763 34.6934C83.1278 33.5076 82.2533 32.1068 81.3343 30.9432C80.6376 30.0612 78.9403 28.4084 78.0954 27.7933C77.7026 27.5042 77.3839 27.2374 77.3765 27.1855C77.3765 27.0373 77.8508 26.9484 79.2442 26.815C80.393 26.7038 80.7117 26.7038 81.7271 26.7853C82.8017 26.8669 84.0469 27.067 84.6027 27.2374C84.7287 27.2745 85.04 27.3708 85.3068 27.4524C86.4704 27.8081 88.4567 28.6753 88.7903 28.9791C88.857 29.0384 88.9385 29.0903 88.9607 29.0903C89.0422 29.0903 90.1391 29.8537 90.7172 30.3132C93 32.1364 94.8973 34.7972 95.8238 37.4653C96.5427 39.5628 96.8688 41.9048 96.7206 43.9208C96.4389 47.7081 95.0604 50.9617 92.5701 53.7336C91.9327 54.4451 91.7549 54.7638 91.7549 55.2159C91.7549 56.261 92.9111 56.9873 93.8153 56.5204C93.9635 56.4388 94.2896 56.1646 94.5342 55.9052C96.098 54.2747 97.2542 52.4737 98.3141 50.0279C99.3961 47.5154 99.8927 44.0023 99.574 41.0229C99.3739 39.1033 99.1071 37.9323 98.4623 36.1387C98.3141 35.7384 97.7211 34.4266 97.4766 33.9819C96.3797 31.9734 94.9344 30.1279 93.3928 28.7642C92.9852 28.4084 92.6368 28.0601 92.6146 28.0082C92.5924 27.9415 92.7925 27.6525 93.1112 27.2967C93.9561 26.3406 94.801 25.3253 95.2753 24.6805C95.7274 24.0727 96.7132 22.6052 96.891 22.2717C96.9503 22.1679 97.1875 21.7381 97.4247 21.3082C97.8101 20.6189 97.9805 20.2632 98.4993 19.1218C99.07 17.8544 99.5888 15.9719 99.8705 14.1561C100.3 11.3101 99.574 8.04899 97.9954 5.744C96.7132 3.8763 95.0975 2.50517 92.9407 1.46014C90.2059 0.140891 86.3593 -0.288978 82.6387 0.303944C80.8822 0.578171 78.4808 1.18592 77.3024 1.65284C77.1986 1.6899 76.9837 1.77884 76.8206 1.83813C74.9159 2.57928 74.6639 2.69046 73.5225 3.25373C72.3144 3.85406 71.5362 4.28393 69.8909 5.26225C67.1931 6.87056 65.4588 7.68582 62.9389 8.53074C61.501 9.01249 59.0107 9.59058 57.2542 9.84999C54.675 10.2354 53.5929 10.3021 49.9539 10.3021C46.3148 10.3021 45.2031 10.2354 42.6535 9.84999C39.8149 9.42012 37.2209 8.71602 34.6491 7.671C33.3076 7.12255 31.8994 6.39622 30.217 5.38084C29.5277 4.96579 28.7791 4.52851 28.5494 4.39511C28.3122 4.26911 27.9564 4.07641 27.7489 3.95783C27.5488 3.84665 26.9633 3.55019 26.4519 3.2982C25.9479 3.05362 25.4736 2.81645 25.4069 2.77939C25.2883 2.71269 24.0283 2.19388 23.4947 1.99377C23.3539 1.94189 23.05 1.83072 22.8277 1.74178C19.285 0.392882 15.09 -0.214863 11.8216 0.148302ZM15.4532 3.00174C16.1425 3.06844 16.7799 3.15738 17.7137 3.32785C18.8996 3.53537 20.8859 4.11347 22.2348 4.63227C22.4571 4.72121 22.7091 4.81015 22.7906 4.83239C22.8721 4.85462 22.9759 4.89909 23.013 4.92874C23.0574 4.95838 23.4577 5.14367 23.9023 5.32896C25.1919 5.88482 26.6446 6.65562 28.6087 7.84146C31.0841 9.33859 34.0487 10.7245 35.9461 11.2656C36.1314 11.3175 36.3611 11.3916 36.4649 11.4361C37.7397 11.9326 41.2157 12.6515 43.8764 12.9628C47.2783 13.3631 52.8888 13.3779 55.7348 12.9925C56.0387 12.9554 56.5427 12.8961 56.8466 12.8591C58.4845 12.6886 62.2792 11.8659 63.6281 11.3842C63.7541 11.3397 64.1543 11.1989 64.5175 11.0729C66.7854 10.2873 69.0089 9.22001 71.4473 7.74511C72.8851 6.87797 75.0641 5.72177 76.1165 5.26967C76.3834 5.15849 76.7021 5.01767 76.8206 4.96579C78.3919 4.26911 81.0378 3.50572 82.9351 3.19444C87.2487 2.49034 91.0063 3.23891 93.6819 5.33637C93.7856 5.41048 94.1636 5.78106 94.5268 6.15164C96.7725 8.41956 97.5358 11.4879 96.7428 15.0455C96.2611 17.217 95.0975 19.8111 93.6967 21.8641C92.4293 23.7021 90.2874 26.1998 89.9687 26.1998C89.902 26.1998 89.561 26.059 89.2201 25.8811C87.5896 25.0436 85.7441 24.4285 83.8097 24.0801C83.113 23.9541 82.9129 23.8355 83.202 23.7244C83.4614 23.628 85.6181 22.0864 86.5742 21.3304C87.1152 20.8932 88.2047 19.9 88.9829 19.1218C90.3541 17.7507 90.3986 17.6988 90.4949 17.2912C90.569 16.9502 90.5764 16.8094 90.5023 16.5426C90.2874 15.7866 89.4721 15.3271 88.7087 15.5272C88.4345 15.6013 88.2122 15.7866 87.345 16.6538C85.3513 18.6549 83.9505 19.774 81.3787 21.4194C81.0749 21.6195 80.6079 21.916 80.3411 22.0864C79.6518 22.5311 78.5031 23.2204 77.5914 23.7318C77.0356 24.0431 76.6057 24.2283 76.1462 24.3469C75.783 24.4359 75.0938 24.6434 74.6194 24.799C74.1377 24.9547 73.6559 25.0881 73.5373 25.0881C73.4262 25.0881 73.0482 24.9917 72.7072 24.8806C71.6548 24.5248 70.7877 24.2951 69.9279 24.1246C67.9861 23.7466 64.9177 23.7318 63.2946 24.0949C63.0278 24.1542 62.7462 24.1987 62.672 24.1987C62.5386 24.1987 62.3015 24.258 61.2935 24.547C59.3517 25.1103 57.6248 25.9034 55.9942 26.978C54.8603 27.7266 54.0673 28.3788 53.0074 29.4238L52.0884 30.328L51.1175 30.3725C49.6722 30.4466 44.9733 30.2687 42.5794 30.0538C41.3935 29.95 39.511 29.7055 38.466 29.5276C37.9991 29.4461 37.421 29.3497 37.1912 29.3052C36.954 29.2682 36.6798 29.2015 36.5686 29.1644C36.4649 29.12 36.2944 29.0903 36.1907 29.0903C36.0795 29.0903 35.8275 29.0458 35.62 28.9865C35.4124 28.9273 35.0419 28.8309 34.7973 28.7642C32.8851 28.2825 32.1514 28.0749 30.758 27.6006C29.839 27.2893 27.7119 26.4518 27.0078 26.1257C26.7484 25.9997 26.3111 25.7996 26.0369 25.6736C24.8584 25.1251 23.3687 24.3618 22.7165 23.9615C22.5979 23.8874 22.4423 23.8059 22.383 23.7762C22.2051 23.6947 19.7297 22.2124 19.159 21.8418C16.0832 19.863 14.5194 18.6401 12.5701 16.6686C11.6882 15.7866 11.4732 15.6013 11.199 15.5272C10.1243 15.2382 9.11635 16.2239 9.39799 17.2837C9.52399 17.7359 9.70186 17.9434 11.0878 19.3071C13.1334 21.3008 14.0747 22.0197 17.9361 24.5396C18.2992 24.7694 19.8779 25.7181 20.0113 25.7774C20.0706 25.807 20.1743 25.8589 20.2336 25.9034C21.0415 26.4296 24.1914 28.0749 25.2735 28.5344C25.6218 28.6827 26.0517 28.868 26.237 28.9569C26.8447 29.2311 27.0078 29.2978 27.6896 29.5646C28.5049 29.8833 30.4171 30.5652 30.7209 30.6467C30.8469 30.6764 31.0471 30.7431 31.1656 30.7801C32.1514 31.1137 33.9672 31.588 35.3161 31.8696C35.6422 31.9363 36.1091 32.0327 36.3537 32.092C36.5983 32.1439 37.1319 32.2476 37.5396 32.3143C37.9472 32.381 38.5475 32.4848 38.8736 32.5441C39.763 32.6923 41.6455 32.9147 43.2094 33.0555C44.3359 33.1518 47.8342 33.3149 48.8199 33.3149C49.435 33.3149 49.8797 33.3445 49.8797 33.3816C49.8797 33.4261 49.7167 33.7818 49.5166 34.182C48.9311 35.3679 48.4048 36.6797 48.1232 37.6877C47.8193 38.792 47.5081 40.4299 47.5081 40.9636C47.5081 41.1489 47.4636 41.26 47.3821 41.3119C47.1745 41.4157 42.3126 41.1489 41.5047 40.9858C41.401 40.9636 40.8896 40.8969 40.3559 40.8376C38.9477 40.6671 38.4141 40.593 38.1102 40.5041C37.962 40.467 37.7248 40.4299 37.584 40.4299C37.4432 40.4299 37.1616 40.3781 36.954 40.3262C36.7465 40.2669 36.3092 40.1631 35.9831 40.0964C35.1012 39.9185 32.6183 39.3256 32.2774 39.2145C32.1143 39.1626 31.7808 39.0588 31.5362 38.9847C31.2916 38.9106 30.8618 38.7698 30.5727 38.6734C30.2911 38.5771 29.8019 38.414 29.498 38.3102C28.9422 38.125 27.0597 37.3986 26.6446 37.2133C25.5403 36.7168 22.7313 35.3382 21.9383 34.9009C21.123 34.4563 19.2405 33.3297 18.529 32.8702C18.2251 32.6701 17.9212 32.4774 17.862 32.4477C17.6915 32.3662 15.8386 31.0988 14.3785 30.0612C13.5781 29.4979 12.8295 28.9347 12.6591 28.7716C12.6072 28.7271 12.2959 28.4677 11.9698 28.2009C10.3541 26.9039 8.39743 24.8361 6.98924 22.9536C5.29942 20.693 4.21733 18.6252 3.50583 16.3054C3.12043 15.0603 3.09819 14.9565 2.89067 13.3779C2.61644 11.273 3.30572 8.69379 4.61014 6.97432C4.99554 6.47033 6.27774 5.24743 6.7669 4.92132C7.74522 4.26911 8.78283 3.80218 10.0798 3.4242C11.5622 3.00174 13.6448 2.83127 15.4532 3.00174ZM68.038 26.8298C69.4239 26.9706 70.254 27.1411 71.5585 27.5709C71.8846 27.6747 72.2551 27.8081 72.3885 27.8674C72.5145 27.9267 72.6405 27.9786 72.6628 27.9786C72.685 27.9786 73.0259 28.1342 73.4262 28.3269C76.3685 29.7351 78.5698 31.7733 80.4671 34.8342C80.9711 35.6495 81.7122 37.4431 82.068 38.7253C82.7054 41.0006 82.7869 43.7874 82.2978 46.0998C81.6011 49.3238 80.1706 51.9549 77.8286 54.2895C76.1536 55.9645 74.8566 56.8316 72.4478 57.8767C71.5585 58.2695 69.6018 58.8105 69.0978 58.8105C68.8458 58.8105 68.831 58.7883 68.4382 57.7729C68.1714 57.091 67.4821 55.6977 67.0967 55.0751C65.5922 52.6367 63.5911 50.5319 61.3676 49.0495C60.6487 48.5752 60.3596 48.3973 59.663 48.0119C59.322 47.8192 57.899 47.167 57.6618 47.0929C57.5581 47.0633 57.2913 46.9669 57.0689 46.878C56.8466 46.789 56.5649 46.6853 56.4389 46.6556C56.3204 46.6186 56.0313 46.537 55.809 46.4703C54.8825 46.2035 53.5484 45.9812 52.2218 45.87C51.4436 45.8033 50.7543 45.7292 50.695 45.6995C50.4875 45.5884 50.3985 44.7583 50.3911 42.9869C50.3763 40.8895 50.5616 39.6295 51.1323 37.873C51.9401 35.3827 53.3187 33.1963 55.2679 31.3138C56.2462 30.3651 56.5205 30.1353 57.4766 29.5054C59.8186 27.9489 62.1606 27.104 64.851 26.8298C66.1036 26.7038 66.7706 26.7038 68.038 26.8298Z" fill="black"/>
<path d="M16.2684 9.42754C15.7274 9.70918 15.4902 10.1242 15.4902 10.7764C15.4902 11.1618 15.5199 11.2582 15.7348 11.5398C15.9423 11.8066 16.7057 12.3699 17.2319 12.6367C17.3135 12.6812 17.4691 12.7701 17.5803 12.8443C17.8026 12.9851 19.3665 13.8967 20.0854 14.3043C20.5301 14.5489 23.2649 15.9052 24.2432 16.3647C24.599 16.5352 26.0665 17.1207 27.1634 17.5432C27.9564 17.847 29.713 18.4177 29.8389 18.4177C30.3207 18.4177 30.9433 18.0323 31.1656 17.6099C31.4324 17.0762 31.3583 16.4537 30.9655 16.0016C30.6765 15.6755 30.5505 15.6088 29.4461 15.2456C28.9496 15.0751 28.3641 14.8676 28.1491 14.7861C27.9342 14.6971 27.6377 14.5786 27.4969 14.5267C25.9479 13.9486 22.546 12.3477 21.1971 11.5695C20.9748 11.4361 20.7376 11.3101 20.6783 11.2804C20.619 11.2508 20.4485 11.1544 20.3077 11.0729C19.8779 10.8209 18.314 9.86482 18.0991 9.73142C17.521 9.36825 17.3283 9.30155 16.9132 9.30155C16.6761 9.30896 16.3944 9.36084 16.2684 9.42754Z" fill="black"/>
<path d="M80.8452 9.47204C79.3036 10.4059 78.4068 10.9395 78.1918 11.0655C77.3395 11.5695 76.0351 12.2514 75.079 12.7183C74.6491 12.9258 74.1526 13.1704 73.9673 13.2667C73.7005 13.4002 72.774 13.8004 71.4844 14.334C70.6395 14.6823 69.3425 15.1493 68.2604 15.4828C66.8596 15.9201 66.0888 16.1424 65.444 16.3055C65.1772 16.3722 64.8659 16.4537 64.7399 16.4908C63.8728 16.7502 60.0633 17.4024 58.1066 17.6321C53.4448 18.1732 47.6267 18.2695 43.1353 17.8915C42.6239 17.8471 41.8605 17.7878 41.4307 17.7507C41.0008 17.7211 40.4005 17.6544 40.0966 17.6099C39.7927 17.5654 39.1776 17.4765 38.7255 17.4098C38.2808 17.3505 37.6286 17.2467 37.2802 17.18C35.9832 16.9429 35.4792 17.0466 35.0123 17.6618C34.8196 17.9064 34.7974 17.9953 34.7974 18.5067C34.7974 19.0255 34.8122 19.0922 35.0271 19.359C35.3829 19.7963 35.6126 19.8926 36.8504 20.0853C43.7505 21.1897 51.4511 21.3453 58.5884 20.5226C61.0712 20.241 63.7245 19.7815 65.0438 19.4109C65.2513 19.3516 65.4811 19.3071 65.5626 19.3071C65.6367 19.3071 65.8294 19.2627 65.9999 19.2034C66.1629 19.1441 66.7633 18.9736 67.334 18.8254C67.9046 18.6697 68.8533 18.3881 69.4462 18.188C70.0392 17.9805 70.6247 17.7878 70.7433 17.7507C71.1212 17.647 73.7598 16.5871 74.1674 16.387C74.3823 16.2832 74.5824 16.1943 74.6047 16.1943C74.701 16.1943 78.1029 14.4896 78.8218 14.0746C79.852 13.4965 80.9638 12.8295 81.8605 12.2736C82.7796 11.7029 83.0093 11.3842 83.0093 10.6801C83.0093 10.2058 82.787 9.79074 82.3794 9.5091C81.9865 9.24229 81.2676 9.22005 80.8452 9.47204Z" fill="black"/>
<path d="M68.4458 31.8475C67.675 32.2773 67.1858 33.2186 67.0005 34.5972C66.8745 35.494 67.0524 36.6057 67.4378 37.3765C67.5564 37.6062 67.8158 38.1176 67.9122 38.2881C68.2086 38.844 68.6904 39.4739 68.8386 39.5184C69.0535 39.5703 69.1499 39.4814 69.5501 38.881C70.7063 37.1171 71.0917 35.5162 70.7063 34.0042C70.4321 32.9222 70.1282 32.3737 69.5723 31.9735C69.2536 31.7437 68.7348 31.6844 68.4458 31.8475Z" fill="black"/>
<path d="M60.5894 38.251C59.7518 38.3251 58.9069 38.5771 58.3659 38.9181C57.7063 39.3331 57.4395 39.7185 57.4395 40.2521C57.4395 41.0452 58.4697 41.7863 59.9594 42.068C60.8413 42.2384 61.1007 42.2384 61.7678 42.0902C63.1241 41.7863 65.266 40.5931 65.2067 40.1854C65.1474 39.7778 63.1686 38.6735 62.0198 38.3993C61.4639 38.2658 60.9896 38.2214 60.5894 38.251Z" fill="black"/>
<path d="M66.756 43.2463C66.3928 43.5354 65.6443 44.8398 65.2885 45.8033C65.0662 46.4259 65.0514 46.537 65.0439 47.4338C65.0439 48.1676 65.0736 48.5085 65.1774 48.8791C65.4812 49.9241 65.8889 50.5392 66.4447 50.8061C67.3712 51.2582 68.2976 50.4577 68.7127 48.842C68.9128 48.1009 68.9054 46.8631 68.6978 46.1368C68.52 45.492 68.0308 44.484 67.549 43.7503C67.134 43.1277 67.008 43.0462 66.756 43.2463Z" fill="black"/>
<path d="M89.198 36.3907C89.0276 36.45 88.7682 36.6427 88.5755 36.8502C88.0122 37.458 87.7009 38.3325 87.6268 39.511C87.5749 40.3559 87.6861 40.9933 88.0492 41.8901C88.4643 42.898 89.2351 44.1357 89.45 44.1357C89.5834 44.1357 89.8725 43.8541 90.1097 43.4761C91.4808 41.3638 91.7772 39.9482 91.2288 38.0953C90.962 37.2134 90.458 36.5463 89.9095 36.3611C89.5983 36.2573 89.5686 36.2647 89.198 36.3907Z" fill="black"/>
<path d="M49.1388 53.7188C48.7682 53.8893 48.4124 54.2672 48.1086 54.8009C47.7306 55.4753 47.5082 56.9057 47.6491 57.7433C47.8121 58.7067 48.2346 59.7147 48.9461 60.7968C49.4575 61.5898 49.6502 61.5824 50.1986 60.7597C50.6581 60.0631 51.0065 59.3367 51.2807 58.5215C51.466 57.9508 51.5105 57.6988 51.5105 57.1726C51.5105 56.0905 51.1473 54.875 50.6211 54.2154C50.2283 53.7262 49.5909 53.5113 49.1388 53.7188Z" fill="black"/>
<path d="M41.8901 60.6561C41.5047 60.9377 41.401 61.2564 41.4529 61.9605C41.5344 63.1019 42.5572 64.5916 43.7356 65.2883C44.625 65.8219 46.7225 66.4667 47.1301 66.3333C47.4117 66.2444 47.4117 65.9034 47.1375 64.851C46.93 64.0728 46.8559 63.8727 46.5001 63.1464C46.3222 62.7758 46.0184 62.3014 45.8405 62.0939C45.381 61.5751 44.5731 60.9896 43.8913 60.6931C43.4095 60.4782 43.2316 60.4412 42.7573 60.4412C42.2533 60.4412 42.1644 60.4634 41.8901 60.6561Z" fill="black"/>
<path d="M54.7269 62.3976C53.3039 62.6422 52.2589 63.413 52.2515 64.2282C52.2441 65.2436 53.971 66.2219 55.7794 66.2219C56.8985 66.2219 58.5216 65.6142 59.6704 64.7693C60.2115 64.3765 60.1596 64.206 59.374 63.6798C58.7662 63.2647 57.7731 62.7533 57.2543 62.5755C56.3797 62.2864 55.7127 62.2345 54.7269 62.3976Z" fill="black"/>
<path d="M50.8432 68.1861C50.606 68.4752 51.1323 70.417 51.7548 71.5584C52.0587 72.1142 52.244 72.3292 52.8666 72.8702C54.3489 74.1524 56.0609 74.3896 56.5501 73.3668C57.0985 72.2402 56.0016 70.1353 54.3266 69.0755C53.8078 68.7494 52.8517 68.4159 51.7697 68.1861C51.1174 68.0453 50.9618 68.0453 50.8432 68.1861Z" fill="black"/>
</g>
<defs>
<clipPath id="clip0_172_48">
<rect width="100" height="83.9911" fill="white"/>
</clipPath>
</defs>
</svg>
