<svg width="100" height="67" viewBox="0 0 100 67" fill="none" xmlns="http://www.w3.org/2000/svg">
<g clip-path="url(#clip0_138_119)">
<path d="M61.8119 0.0671613C61.6382 0.0829498 61.0383 0.130315 60.4699 0.17768C58.2516 0.359247 55.7097 0.872371 53.4045 1.59864C52.8598 1.77231 52.2204 1.96967 51.9836 2.04072C51.7468 2.11176 51.4231 2.21439 51.2731 2.26965C51.1231 2.32491 50.7995 2.42753 50.5626 2.49858C49.3469 2.86961 47.6891 3.4301 46.6945 3.80902C46.4576 3.90375 46.1734 4.00638 46.0629 4.04585C45.9524 4.08532 45.6919 4.18005 45.4709 4.26688C45.2577 4.35372 44.7762 4.53529 44.413 4.66949C43.592 4.97736 42.3684 5.48259 41.5632 5.84573C41.3659 5.93256 40.6949 6.22465 40.0633 6.49305C39.4318 6.76935 38.5634 7.15617 38.1292 7.36142C37.6951 7.56667 37.0951 7.85086 36.7872 7.99296C35.5478 8.56134 31.0008 10.8586 29.7614 11.5454C29.5482 11.6638 29.1219 11.8927 28.8141 12.0585C28.0009 12.4927 27.4641 12.7926 27.0221 13.0531C26.8089 13.1795 26.6195 13.2821 26.6037 13.2821C26.58 13.2821 26.3116 13.4321 25.9958 13.6215C25.68 13.811 25.3643 13.9847 25.3011 14.0162C25.1432 14.0873 25.0959 14.1189 21.9224 16.0293C19.1121 17.7265 19.0568 17.7502 17.7621 18.3975C16.2622 19.1396 15.015 19.8974 13.3019 21.1052C11.3994 22.4473 8.5496 25.2734 6.9076 27.4522C6.20501 28.3916 5.10772 30.0178 4.77616 30.6099C4.63406 30.8704 4.49197 31.1151 4.46039 31.1625C4.05779 31.723 2.24212 35.5359 1.93424 36.4911C1.89477 36.6016 1.79215 36.8858 1.69741 37.1226C1.26323 38.2436 0.663272 40.3435 0.402763 41.6618C-0.173515 44.6063 -0.0629957 46.9114 0.773791 49.3981C1.34218 51.1033 2.41579 52.7611 3.91569 54.261C4.68932 55.0267 6.09449 56.1319 6.99444 56.6845C7.25494 56.8424 7.56282 57.0397 7.68123 57.1108C8.30488 57.4976 10.2863 58.5002 11.0915 58.8317C11.3284 58.9343 11.7231 59.1001 11.9599 59.2106C12.1967 59.3212 12.6467 59.4948 12.9467 59.6053C13.2545 59.708 13.9966 59.9764 14.6045 60.1895C15.2123 60.4027 15.8202 60.6079 15.9465 60.6474C16.0807 60.6869 16.5938 60.8447 17.0911 60.9947C18.3305 61.3815 21.283 62.171 21.9461 62.2973C22.1198 62.3289 22.3882 62.392 22.5381 62.4394C22.6881 62.4867 23.0829 62.5894 23.4065 62.6604C23.7302 62.7315 24.1249 62.8183 24.2749 62.8578C24.4328 62.8972 25.459 63.1104 26.5642 63.3235C27.6694 63.5446 28.8614 63.7814 29.2088 63.8445C30.3455 64.0735 31.7586 64.3182 33.2348 64.555C33.669 64.6261 34.2374 64.7129 34.4979 64.7603C34.7584 64.7997 35.2715 64.8708 35.6426 64.9103C36.0136 64.9576 36.8504 65.0603 37.4977 65.1471C38.1529 65.2418 38.8634 65.3287 39.0765 65.3523C39.8581 65.4313 41.6264 65.6207 42.6289 65.7392C43.1973 65.8023 43.8368 65.8576 44.0499 65.8576C44.2709 65.8576 45.0288 65.9128 45.7472 65.976C48.3128 66.2049 50.8073 66.2917 54.7466 66.2917C59.5068 66.2917 59.9489 66.2444 61.6145 65.6207C62.2461 65.3839 62.6092 65.2655 63.6276 64.9892C65.6564 64.4445 69.7614 63.0551 71.206 62.4315C71.3402 62.3683 71.6007 62.2657 71.7981 62.1868C71.9954 62.1078 72.2244 62.021 72.3112 61.9815C72.398 61.9499 72.8243 61.7684 73.2585 61.5947C73.6927 61.4131 74.2374 61.1842 74.4663 61.0737C74.6952 60.971 74.9005 60.8842 74.9163 60.8842C74.94 60.8842 75.2952 60.7263 75.7136 60.529C76.1241 60.3316 76.4793 60.1737 76.4951 60.1737C76.5899 60.1737 81.058 57.9791 81.7606 57.5844C81.9027 57.5055 82.3447 57.2687 82.7316 57.0555C83.1263 56.8503 84.0657 56.3214 84.8235 55.8872C85.5814 55.453 86.3313 55.0267 86.4813 54.9478C86.726 54.8057 87.8944 54.1031 88.3286 53.8347C89.3074 53.2347 91.2573 51.9716 92.5599 51.1033C93.4519 50.5112 94.3045 49.9665 94.4545 49.8797C95.2676 49.4455 96.5938 48.2061 97.249 47.2667C97.6516 46.6904 98.1332 45.7352 98.37 45.0563C98.7568 43.9195 99.3489 41.1171 99.6094 39.1751C100.359 33.6807 99.9094 28.8653 98.1569 23.8603C97.7622 22.7236 96.4201 19.7948 96.1202 19.4001C96.0886 19.3606 95.9386 19.108 95.7965 18.8475C95.3544 18.0265 94.8413 17.2608 93.8308 15.903C90.6731 11.6559 86.6392 8.2061 81.2711 5.15104C80.837 4.90632 77.9319 3.46957 77.403 3.24064C77.0714 3.09065 75.4294 2.41964 75.0347 2.26965C72.3901 1.25129 69.1456 0.501343 65.9564 0.17768C65.0722 0.090844 62.3408 0.0119018 61.8119 0.0671613ZM65.7195 3.49325C66.7537 3.58009 67.7799 3.73797 68.6404 3.93533C68.9246 3.99848 69.2246 4.04585 69.3035 4.04585C69.3903 4.04585 69.6351 4.10111 69.8561 4.15637C70.0771 4.21952 70.6692 4.3853 71.1665 4.52739C72.9506 5.01684 74.1663 5.46681 76.4162 6.47727C77.3477 6.89566 79.6212 8.05611 80.1028 8.36398C80.2686 8.45871 80.4186 8.54555 80.4422 8.54555C80.4659 8.54555 80.7264 8.69554 81.0185 8.885C81.3106 9.07446 81.7448 9.35076 81.9816 9.49286C85.4314 11.648 88.8575 14.7504 91.1942 17.8213C91.6757 18.4607 92.6783 19.9606 93.0651 20.6237C93.5072 21.3894 94.6045 23.6709 94.7702 24.1761C94.8097 24.2866 94.9123 24.5708 95.0071 24.8076C95.2992 25.5418 95.8281 27.3417 95.9228 27.8785C95.9465 28.0364 96.0175 28.36 96.0728 28.5969C96.807 31.644 96.807 36.6174 96.0728 40.2803C95.2202 44.5037 94.8492 45.38 93.444 46.422C92.6783 46.9904 90.4205 48.5455 89.2601 49.2955C88.0286 50.0928 88.1075 50.0376 87.0418 50.7007C85.4314 51.6953 85.2656 51.798 85.1393 51.8611C85.0761 51.8927 84.5867 52.1769 84.0499 52.4927C83.5131 52.8084 83.0473 53.0689 83.0236 53.0689C82.9921 53.0689 82.8421 53.1558 82.6921 53.2505C82.5421 53.3531 82.1711 53.5742 81.8632 53.7399C81.5632 53.9057 81.1369 54.1347 80.9159 54.2531C78.895 55.3662 74.9794 57.245 72.3901 58.3423C70.7797 59.0291 69.5009 59.5343 68.3641 59.929C67.9773 60.0711 67.5352 60.2369 67.3931 60.3C66.8326 60.5448 66.8326 60.5211 67.1405 59.4633C67.6931 57.5607 68.0562 55.6346 68.3325 53.2347C68.4746 51.9637 68.4904 51.4427 68.4588 49.1297C68.4272 46.3194 68.3483 45.4431 67.9615 43.438C67.7562 42.3802 67.6062 41.7644 67.2984 40.7145C67.2036 40.4066 67.101 40.0514 67.0615 39.9251C66.8642 39.2383 66.2011 37.5489 65.7511 36.5858C65.5616 36.1832 65.4038 35.8359 65.4038 35.828C65.4038 35.7569 64.0933 33.4202 63.9433 33.215C63.8486 33.0808 63.7539 32.9387 63.7381 32.8992C63.6433 32.6466 62.3645 30.8467 61.7172 30.0415C60.9198 29.0468 59.2384 27.1838 58.6779 26.6628C56.507 24.6498 54.7308 23.2288 53.0098 22.1157C51.6915 21.2631 51.4073 21.0816 50.7126 20.6869C49.6785 20.0869 47.3339 18.8791 46.6155 18.5712C46.2919 18.437 45.8656 18.2475 45.6682 18.1607C45.4709 18.0818 45.2103 17.9634 45.0761 17.9081C44.113 17.4818 43.5368 17.2687 42.2263 16.8503C41.4053 16.5898 40.5054 16.3135 40.2212 16.2424C39.937 16.1714 39.5344 16.0608 39.3134 16.0056C38.9265 15.903 38.1766 15.7451 37.3003 15.5793C35.8952 15.3109 33.2743 15.1056 31.3402 15.0978H30.4797L30.6455 14.9241C30.8587 14.7109 32.2007 13.9926 34.9794 12.6032L37.1188 11.5217L37.9003 11.4506C39.487 11.2927 43.6236 11.498 45.7472 11.8295C50.5547 12.5795 55.1255 14.2531 58.7331 16.5898C63.0039 19.3448 66.3826 22.992 68.9562 27.618C69.2561 28.1469 70.1403 29.9231 70.1403 29.9783C70.1403 30.002 70.2508 30.2625 70.385 30.5546C71.1823 32.2519 71.2692 32.3624 71.9954 32.5913C72.4059 32.7255 72.4533 32.7255 72.8559 32.5992C73.5664 32.3703 74.0874 31.6993 74.0874 31.0046C74.0874 30.3573 72.6428 27.2548 71.2613 24.9261C70.4718 23.5998 69.0351 21.5868 68.0562 20.4263C64.6933 16.4635 60.3278 13.2663 55.6149 11.3085C55.0702 11.0875 54.5255 10.8586 54.3913 10.8033C53.8861 10.5902 51.9046 9.93493 51.1547 9.72968C50.8547 9.65074 50.389 9.52443 50.1284 9.45339C49.8679 9.37444 49.5127 9.28761 49.339 9.25603C49.1653 9.22445 48.8812 9.1613 48.7075 9.11393C48.5338 9.06657 48.0917 8.97184 47.7207 8.90079C47.3497 8.82974 46.8997 8.74291 46.7181 8.70343C46.5287 8.65607 46.0313 8.58502 45.613 8.53766C44.7841 8.45082 44.492 8.34819 44.6262 8.21399C44.7051 8.13505 45.5498 7.77192 46.0629 7.59824C46.1734 7.55877 46.4576 7.45615 46.6945 7.36142C46.9313 7.26669 47.2155 7.16406 47.326 7.12459C47.4365 7.08512 47.7207 6.9825 47.9575 6.88776C48.1944 6.80093 49.1022 6.49305 49.9706 6.20097C50.8389 5.91678 51.6757 5.64048 51.8257 5.58522C52.4572 5.34839 53.3098 5.12735 53.6808 5.08788C54.4782 5.01684 57.099 5.36418 59.3094 5.83783C61.0225 6.20097 63.8407 7.00618 64.3538 7.27458C64.4328 7.31405 64.638 7.40089 64.8117 7.46404C69.1772 9.11393 73.2822 11.8848 76.3136 15.232C76.7793 15.7451 77.553 16.6687 78.0345 17.2923C79.0371 18.5791 79.2502 18.7291 80.0081 18.7291C80.2765 18.7291 80.5843 18.6817 80.7027 18.6186C81.208 18.3502 81.6658 17.6634 81.6658 17.166C81.6658 16.5898 81.1764 15.8003 79.7397 14.0715C79.1634 13.3768 76.8346 11.0007 76.1004 10.3533C75.1215 9.49286 73.0138 7.9298 72.0191 7.32195C70.7797 6.572 68.4036 5.31682 67.4168 4.89842C66.5721 4.54318 65.5695 4.15637 64.8906 3.92743C63.9433 3.61166 63.7065 3.49325 63.8328 3.40642C63.896 3.36694 64.1249 3.35116 64.338 3.36694C64.5591 3.39063 65.1748 3.44589 65.7195 3.49325ZM33.4401 18.4923C34.6242 18.5712 36.1399 18.7449 36.9056 18.8949C37.7345 19.0528 38.445 19.2185 38.7213 19.3054C38.8713 19.3527 39.1397 19.4159 39.3134 19.4475C39.487 19.479 39.7397 19.5422 39.866 19.5896C40.0002 19.6369 40.6159 19.8343 41.2474 20.0395C42.2579 20.3553 43.4894 20.829 44.4446 21.2552C46.7418 22.2894 47.2313 22.542 49.2601 23.7024C50.4679 24.3971 53.3335 26.3391 53.5624 26.6233C53.5861 26.6549 53.7993 26.8286 54.0361 27.0101C55.165 27.8943 56.7912 29.4415 57.8174 30.6099C58.2358 31.0835 58.6147 31.5098 58.6621 31.5572C58.8279 31.6993 60.162 33.5229 60.6672 34.2807C61.6382 35.7569 62.6329 37.6594 63.225 39.1751C63.6828 40.3435 63.8644 40.8566 63.9828 41.2671C64.0223 41.3934 64.117 41.7013 64.188 41.9381C64.5038 42.9801 64.788 44.4721 65.009 46.1852C65.2143 47.7403 65.2301 51.2059 65.0485 52.7374C64.8038 54.7267 64.5196 56.3135 64.1407 57.8449C63.8091 59.1633 63.6828 59.4948 63.1618 60.2921C62.3092 61.6342 60.7462 62.6288 59.1673 62.8499C56.8622 63.1735 47.8154 62.9288 43.221 62.4236C42.6368 62.3604 42.0132 62.3052 41.8395 62.3052C41.6658 62.3052 41.1527 62.2578 40.6949 62.1946C40.237 62.1315 39.3686 62.021 38.7608 61.942C37.5214 61.7999 34.04 61.3184 33.3138 61.1921C33.0533 61.1526 32.5243 61.0579 32.1296 60.9947C31.7428 60.9316 31.1981 60.8211 30.9297 60.7579C30.6613 60.7026 30.3534 60.6474 30.235 60.6474C30.1245 60.6474 29.8087 60.6 29.5403 60.5369C29.0825 60.4263 28.3009 60.2685 27.3931 60.0869C27.0379 60.0237 24.0775 59.3843 23.4065 59.2264C23.0434 59.1475 22.4513 59.0054 21.8671 58.8554C20.5567 58.5159 17.249 57.5844 16.9333 57.4581C16.7833 57.4029 16.428 57.2766 16.1438 57.1897C15.3939 56.945 14.1229 56.4871 13.7203 56.3056C13.523 56.2187 13.3335 56.1477 13.294 56.1477C13.223 56.1477 12.6862 55.9109 11.3284 55.2635C10.6416 54.9399 9.95477 54.5688 8.94431 53.9768C8.39171 53.6531 7.34968 52.8795 6.73393 52.3269C5.41559 51.1427 4.66564 50.1165 4.09726 48.7271C3.17363 46.4852 3.13416 44.2195 3.96306 41.0303C4.12094 40.4224 4.76827 38.3383 4.90247 38.0305C4.95773 37.8962 5.18666 37.3515 5.4077 36.8068C6.28396 34.6912 7.49177 32.4256 8.62854 30.7678C9.86004 28.9679 11.4705 27.097 12.8677 25.826C13.2151 25.5102 13.6414 25.1234 13.815 24.9655C14.565 24.2866 16.8543 22.6762 17.8885 22.1078C18.0858 21.9973 18.4332 21.8631 18.6542 21.8157C18.9226 21.7605 19.3331 21.5552 19.8462 21.2237C20.6672 20.6869 20.8883 20.5763 21.7882 20.2527C22.0961 20.1422 22.5381 19.9843 22.775 19.8974C23.0118 19.8106 23.3197 19.708 23.446 19.6685C23.5802 19.6369 23.8644 19.5501 24.0775 19.4869C27.1484 18.6028 30.1798 18.2791 33.4401 18.4923Z" fill="black"/>
<path d="M82.7866 21.0894C82.4077 21.1605 81.792 21.7288 81.6814 22.1078C81.4762 22.7788 81.6262 23.3629 82.3761 24.926C82.7472 25.6838 83.0629 26.0075 83.6234 26.1891C84.0102 26.3154 84.0576 26.3154 84.4681 26.1812C85.297 25.9286 85.7785 25.1865 85.6601 24.3655C85.6128 23.9866 84.9181 22.2814 84.6102 21.792C84.2707 21.2394 83.505 20.9473 82.7866 21.0894Z" fill="black"/>
<path d="M9.90728 48.5219C9.51256 48.6482 9.15732 48.9166 8.94418 49.256C8.80208 49.4929 8.77051 49.6665 8.77051 50.1086C8.77051 50.8665 8.96786 51.1585 9.91517 51.8059C11.0993 52.6111 11.7308 52.6742 12.4808 52.0743C12.9465 51.7032 13.0886 51.3559 13.0492 50.6928C13.0255 50.2349 12.986 50.1086 12.7808 49.856C12.4808 49.4929 11.3361 48.7034 10.8625 48.5298C10.4599 48.3956 10.2941 48.3877 9.90728 48.5219Z" fill="black"/>
<path d="M17.6435 52.5163C17.2488 52.7216 16.9567 53.0531 16.8146 53.4557C16.6647 53.8899 16.6647 54.0557 16.8225 54.5135C17.012 55.074 17.5172 55.5161 18.1567 55.6819C18.2909 55.7135 18.6935 55.8477 19.0645 55.9819C19.8697 56.2582 21.5828 56.7713 22.0327 56.8581C22.2064 56.8976 22.4353 56.9608 22.5459 57.0002C22.6485 57.0476 22.9485 57.1344 23.209 57.1976C23.4695 57.2686 23.8405 57.3634 24.0379 57.4186C24.2352 57.466 24.5194 57.537 24.6694 57.5765C24.8194 57.6081 25.2851 57.7107 25.6956 57.7975C26.8561 58.058 28.4034 58.358 29.998 58.6422C30.3927 58.7054 30.969 58.8159 31.2848 58.879C31.6005 58.9422 31.9715 58.9896 32.1136 58.9896C32.2557 58.9896 32.6189 59.0448 32.9189 59.108C33.7399 59.2817 34.7029 59.2659 35.0898 59.0685C35.6029 58.808 35.9581 58.1922 35.9581 57.5686C35.9581 57.2055 35.6266 56.5424 35.3424 56.3292C35.0424 56.1082 34.4345 55.9503 33.3136 55.7924C32.3978 55.6661 31.9242 55.5872 30.3532 55.3188C28.9717 55.074 27.7166 54.8293 26.3272 54.5214C25.8298 54.403 25.293 54.2846 25.1431 54.253C24.9931 54.2215 24.5826 54.1109 24.2352 54.0162C23.8879 53.9215 23.4616 53.811 23.28 53.7715C23.1063 53.7399 22.8774 53.6768 22.7669 53.6294C22.6643 53.5899 22.2617 53.4636 21.8669 53.3452C21.4801 53.2347 20.6118 52.9663 19.9487 52.7452C18.6066 52.319 18.1093 52.2637 17.6435 52.5163Z" fill="black"/>
</g>
<defs>
<clipPath id="clip0_138_119">
<rect width="100" height="66.3114" fill="white"/>
</clipPath>
</defs>
</svg>
