<svg width="100" height="86" viewBox="0 0 100 86" fill="none" xmlns="http://www.w3.org/2000/svg">
<g clip-path="url(#clip0_143_170)">
<path d="M52.2142 0.159295C51.9326 0.32976 51.5842 0.678102 51.5027 0.870802C51.4656 0.952328 51.3322 1.18209 51.2136 1.38961C50.8505 1.98994 50.2501 3.27955 50.0649 3.87247C49.9907 4.09482 49.8944 4.39869 49.8425 4.53951C49.6202 5.18431 49.509 5.56971 49.509 5.68829C49.509 5.76241 49.4645 5.99217 49.4052 6.19969C49.2496 6.75555 49.131 7.31883 49.0643 7.79317C48.9235 8.81596 48.7604 9.84616 48.7234 9.94992C48.7011 10.0092 48.6567 10.6244 48.6122 11.3062C48.5751 11.9955 48.5084 12.6181 48.4714 12.6922C48.4343 12.7663 48.1749 12.8923 47.8636 12.9812C46.2405 13.4778 44.8546 14.508 43.8762 15.9384C43.6687 16.2349 43.5057 16.5017 43.5057 16.5314C43.5057 16.561 43.4093 16.7833 43.2907 17.0279C42.972 17.7024 42.8683 18.1248 42.6904 19.4293C42.5866 20.2297 42.7571 21.5267 43.061 22.3272C43.1499 22.5495 43.2462 22.8163 43.2759 22.9201C43.313 23.0239 43.4093 23.224 43.4982 23.3648C43.5798 23.5056 43.6835 23.6983 43.7206 23.7872C43.7576 23.8688 43.8318 23.9651 43.8688 23.9948C44.017 24.0837 43.9578 24.3802 43.7873 24.432C43.6909 24.4543 36.776 24.4765 28.4084 24.4765H13.1999L12.9331 24.7137C12.7849 24.8397 12.5996 25.0694 12.5181 25.2251C12.3847 25.4993 12.3772 25.6994 12.3772 29.7387C12.3772 33.7557 12.3847 33.9855 12.5181 34.2449C12.8145 34.823 13.363 35.1269 13.9781 35.0528C14.66 34.9786 15.1566 34.4005 15.2603 33.5705L15.3048 33.1851H17.6394H19.9741L20.0185 36.2979C20.063 39.3514 20.1223 40.1148 20.3298 40.6336C20.6411 41.4193 20.8116 41.6787 21.4267 42.2716C21.9233 42.7459 22.4199 43.0424 23.2203 43.3388C23.4427 43.4204 23.5464 43.5019 23.5094 43.539C23.4204 43.6279 15.4086 43.6205 15.327 43.539C15.2974 43.5093 15.2677 42.6199 15.2529 41.5601C15.2307 39.685 15.2233 39.6257 15.0528 39.3218C14.5118 38.3805 13.2963 38.3138 12.6292 39.1958L12.4143 39.47L12.3772 54.3598C12.3476 67.4856 12.3254 69.2569 12.229 69.3162C12.1623 69.3607 10.3984 69.3904 7.81916 69.3904C3.10543 69.3904 3.31295 69.3681 2.29757 69.8573C2.03076 69.9833 1.75653 70.1389 1.68983 70.213C1.61571 70.2797 1.50454 70.3835 1.43042 70.4428C0.926439 70.8134 0.333517 71.762 0.118583 72.5403C-0.0222358 73.0294 -0.0148243 74.4598 0.125995 74.949C0.429867 76.0088 1.33407 77.0983 2.29757 77.5579C3.33519 78.0618 3.35001 78.0618 6.44061 78.0618C7.9748 78.0618 9.27182 78.0915 9.33111 78.1285C9.40522 78.1804 9.45711 78.4176 9.49416 78.8919C9.55346 79.7665 9.82768 80.767 10.1834 81.4415C10.8505 82.7015 11.2359 83.1906 12.2809 84.1096C12.985 84.7248 14.0004 85.2584 15.0825 85.5994L15.7495 85.8069H49.9537H84.1579L84.8249 85.5994C85.1955 85.4808 85.8329 85.2214 86.2479 85.0213C87.9303 84.1986 89.4793 82.4198 90.0426 80.6485C90.1316 80.3891 90.2353 80.0555 90.2798 79.9147C90.3317 79.7739 90.391 79.3292 90.4206 78.929C90.4503 78.425 90.5021 78.1804 90.5763 78.1285C90.6355 78.0915 91.9326 78.0618 93.4667 78.0618C96.5574 78.0618 96.5722 78.0618 97.6098 77.5579C98.9661 76.9056 99.9815 75.2529 99.9815 73.6965C99.9815 72.9257 99.6109 71.8065 99.144 71.1691C98.7734 70.6503 98.1434 70.1167 97.6468 69.8795C96.587 69.3681 96.8316 69.3904 92.0734 69.3904C88.2564 69.3904 87.7525 69.3755 87.6487 69.2718C87.5523 69.1828 87.5301 68.9827 87.5301 68.3453C87.5301 67.3892 87.4115 67.078 86.9224 66.7222C86.6481 66.5221 86.5592 66.4999 86.0775 66.4999C85.5512 66.4999 85.5142 66.5147 85.2325 66.7667C84.7656 67.1965 84.6915 67.3892 84.6544 68.3898C84.6396 68.9383 84.5877 69.3014 84.5359 69.3311C84.4914 69.3607 83.8614 69.3904 83.1351 69.3904H81.8232L81.7491 69.1977C81.7047 69.0791 81.675 62.2679 81.675 50.276C81.675 36.4684 81.6528 31.473 81.5935 31.2877C81.4601 30.8949 81.1636 30.554 80.8301 30.3983C80.5336 30.2649 79.8814 30.2575 59.6257 30.2575H38.7252L38.4362 30.428C38.2731 30.5169 38.0434 30.717 37.9174 30.8727L37.6876 31.1617L37.6505 38.2471C37.6209 42.4791 37.5764 45.4141 37.5394 45.5252C37.4282 45.8143 37.2726 45.9996 36.9242 46.2442C36.6722 46.4294 36.5092 46.4813 36.0719 46.5258C35.4716 46.5777 34.6859 46.763 34.5822 46.8667C34.5377 46.9038 34.4488 46.9334 34.3821 46.9334C34.3154 46.9334 34.219 46.9853 34.1671 47.0446C34.1153 47.1039 34.0263 47.1558 33.967 47.1558C33.7891 47.1558 33.0035 47.8154 32.6996 48.223C32.2994 48.7493 31.9807 49.4756 31.8621 50.0833C31.7954 50.4317 31.751 51.6101 31.7287 53.6038C31.6843 56.4572 31.6769 56.6203 31.5286 56.8649C31.3508 57.1762 30.995 57.4282 30.5874 57.5393C30.0241 57.6876 29.3571 57.3837 29.0384 56.8278L28.8679 56.5314L28.8308 50.3798L28.7938 44.2282L28.6085 43.702C28.2083 42.5755 27.4078 41.5971 26.5333 41.1747C25.7254 40.7819 25.5031 40.7078 25.1844 40.7078C25.0139 40.7078 24.6211 40.6485 24.3172 40.5818C23.8206 40.4632 23.7169 40.4113 23.413 40.1C23.2129 39.8999 23.0424 39.6479 23.0128 39.5071C22.9831 39.3737 22.9387 37.4467 22.909 35.2232C22.8646 31.2655 22.8646 31.1765 22.7089 30.9394C22.62 30.7985 22.4199 30.5984 22.2642 30.4947L21.9752 30.2946L18.64 30.2575L15.3048 30.2204L15.2826 28.79L15.2677 27.367L15.453 27.2929C15.7198 27.1891 84.1875 27.1891 84.4469 27.2929L84.6396 27.3596L84.6544 44.7248C84.6767 60.0074 84.6915 62.1122 84.7879 62.2753C85.1288 62.846 85.5438 63.1054 86.1071 63.1054C86.5963 63.1054 87.3078 62.72 87.3078 62.4532C87.3078 62.4087 87.3597 62.3272 87.4189 62.2753C87.5153 62.1938 87.5301 60.0518 87.5301 43.8428C87.5301 25.8402 87.5301 25.5067 87.3893 25.2251C87.3078 25.0694 87.1225 24.8397 86.9743 24.7137L86.7074 24.4765H71.499C63.1314 24.4765 56.2164 24.4543 56.1275 24.432C55.9496 24.3802 55.8903 24.0837 56.0385 23.9948C56.0756 23.9651 56.1497 23.8688 56.1868 23.7872C56.2238 23.6983 56.3276 23.5056 56.4091 23.3648C56.4981 23.224 56.5944 23.0239 56.6315 22.9201C56.6611 22.8163 56.7575 22.5495 56.8464 22.3272C57.1503 21.5267 57.3207 20.2297 57.217 19.4293C57.0391 18.1248 56.9353 17.7024 56.6166 17.0279C56.4981 16.7833 56.4017 16.561 56.4017 16.5314C56.4017 16.5017 56.2387 16.2349 56.0311 15.9384C55.0454 14.4932 53.6743 13.4778 52.0511 12.9886C51.6065 12.8478 51.5101 12.7959 51.5027 12.6625C51.4805 11.951 51.5323 10.9801 51.6213 10.3946C51.6732 10.0092 51.7621 9.4237 51.814 9.09759C51.8584 8.77149 51.9251 8.28974 51.9548 8.02292C51.977 7.75611 52.0437 7.46706 52.0882 7.37812C52.1401 7.28918 52.1771 7.11872 52.1771 7.00013C52.1771 6.81485 52.2587 6.5258 52.7404 5.02126C52.9331 4.44316 53.1925 3.87988 53.9781 2.35311C54.3561 1.62678 54.408 1.29326 54.2079 0.885625C54.0523 0.581752 53.7484 0.255645 53.4964 0.122237C53.2073 -0.0334046 52.4884 -0.01117 52.2142 0.159295ZM50.9987 15.7013C52.0734 16.0274 52.6589 16.3979 53.2889 17.1539C54.4821 18.5769 54.6971 20.289 53.8892 21.8825C53.3185 23.0016 52.5922 23.6464 51.3619 24.1282C51.0135 24.269 50.806 24.2912 49.9537 24.2912C49.1014 24.2912 48.8938 24.269 48.5455 24.1282C47.3152 23.6464 46.5888 23.0016 46.0182 21.8825C45.2103 20.289 45.4252 18.5769 46.6185 17.1539C47.4782 16.1237 48.5974 15.5975 49.924 15.5901C50.3539 15.5827 50.7541 15.6271 50.9987 15.7013ZM78.7697 38.3583C78.7845 43.2499 78.7771 43.539 78.6585 43.5686C78.5844 43.5908 74.8712 43.6131 70.4095 43.6205C63.0276 43.6353 62.2716 43.6427 62.0345 43.7613C61.612 43.954 61.3748 44.1838 61.2192 44.5247C61.0339 44.9323 61.0339 45.251 61.2192 45.6587C61.3823 46.0218 61.4564 46.1033 61.8195 46.3257L62.0863 46.4887H70.3206C77.7024 46.4887 78.5622 46.5036 78.6659 46.6073C78.7697 46.7111 78.7845 47.2373 78.7845 51.2692C78.7845 55.3455 78.7697 55.8124 78.6659 55.8569C78.5992 55.8791 68.7048 55.9014 56.6685 55.9014C39.748 55.9014 34.7675 55.8791 34.7008 55.8124C34.6341 55.7457 34.6118 55.0861 34.6118 53.3148C34.6118 50.5947 34.6415 50.4094 35.1529 49.8906C35.4567 49.5868 35.8199 49.4608 36.65 49.3792C37.6431 49.2755 38.4065 48.9123 39.1847 48.1712C39.585 47.7858 40.1705 46.9631 40.1705 46.7852C40.1705 46.7481 40.2446 46.6666 40.3335 46.6073C40.4818 46.5036 41.3711 46.4887 48.4047 46.4887H56.3128L56.6389 46.2442C57.4986 45.5919 57.4245 44.3913 56.4981 43.8428L56.1423 43.6353L48.4343 43.6205C44.1949 43.6057 40.6819 43.5834 40.6374 43.5612C40.5633 43.539 40.541 42.4346 40.541 38.3879C40.541 35.5567 40.5633 33.2221 40.5929 33.1999C40.6152 33.1702 49.2125 33.1554 59.6924 33.1628L78.7475 33.1851L78.7697 38.3583ZM25.7921 46.637C25.9403 46.7852 25.9403 46.8816 25.9403 51.2618C25.9403 54.9453 25.9255 55.7531 25.8366 55.8199C25.7699 55.8791 24.3172 55.894 20.5225 55.8866L15.3048 55.8643L15.2826 51.2469L15.2677 46.6296L15.4308 46.5629C15.5271 46.5258 17.8025 46.4962 20.6263 46.4962C25.5475 46.4887 25.6439 46.4887 25.7921 46.637ZM27.3115 59.3107C27.8303 59.7702 28.5788 60.1778 29.3052 60.3928C29.9351 60.5706 30.9876 60.5039 31.7213 60.2371C32.3365 60.0074 32.7515 59.748 33.3296 59.2217L33.715 58.866H56.1349C68.4603 58.866 78.5992 58.8882 78.6659 58.9105C78.7697 58.9549 78.7845 59.4737 78.7845 64.0837C78.7845 67.9748 78.7623 69.2347 78.6956 69.3014C78.6289 69.3681 71.499 69.3904 47.0558 69.3904C29.698 69.3904 15.453 69.3681 15.3863 69.3459C15.2826 69.3014 15.2677 68.7752 15.2677 64.1356C15.2677 61.2896 15.29 58.9401 15.3196 58.9179C15.3419 58.8882 17.9433 58.866 21.0932 58.866H26.8297L27.3115 59.3107ZM96.2535 72.4217C96.6315 72.6366 96.8242 72.896 96.965 73.3629C97.1577 74.03 96.8242 74.7267 96.1645 75.0305C95.8755 75.1639 94.4895 75.1713 49.9537 75.1713C5.41782 75.1713 4.03187 75.1639 3.74282 75.0305C3.33519 74.8452 3.06837 74.534 2.94237 74.0967C2.85344 73.7706 2.85344 73.6816 2.94237 73.3629C3.13507 72.6959 3.52789 72.355 4.18751 72.2734C4.39503 72.2512 25.1177 72.229 50.2501 72.2364L95.9422 72.2438L96.2535 72.4217ZM87.5153 78.551C87.5598 79.47 86.9743 80.6929 86.0775 81.5823C85.4771 82.1752 84.5952 82.7311 84.2616 82.7311C84.1801 82.7311 84.0096 82.7904 83.8762 82.8571C83.6539 82.9831 81.8974 82.9905 49.9537 82.9905C18.01 82.9905 16.2535 82.9831 16.0311 82.8571C15.8977 82.7904 15.7273 82.7311 15.6457 82.7311C15.3122 82.7311 14.4302 82.1752 13.8299 81.5823C13.1999 80.9597 12.8219 80.3372 12.5181 79.4552C12.3847 79.0476 12.3254 78.2101 12.4291 78.1137C12.4514 78.0841 29.3571 78.0693 49.9833 78.0767L87.4931 78.0989L87.5153 78.551Z" fill="black"/>
</g>
<defs>
<clipPath id="clip0_143_170">
<rect width="100" height="85.8255" fill="white"/>
</clipPath>
</defs>
</svg>
