<svg width="100" height="92" viewBox="0 0 100 92" fill="none" xmlns="http://www.w3.org/2000/svg">
<g clip-path="url(#clip0_174_87)">
<path d="M55.9075 0.066737C55.1075 0.163033 54.3371 0.711181 53.9371 1.48896L53.7223 1.88896L53.6853 9.77785C53.663 14.1186 53.6186 17.7112 53.589 17.7556C53.5593 17.8075 53.1297 18.1556 52.6482 18.5186C50.389 20.2445 49.026 22.289 48.3297 25.0001C48.063 26.0149 48.0556 26.5186 48.0556 36.8371C48.0556 43.7334 48.0334 47.0964 47.9816 47.1927C47.9075 47.326 47.8112 47.3334 46.3223 47.3334C45.0927 47.3334 44.7223 47.3112 44.6556 47.2371C44.6038 47.163 44.5742 45.4297 44.5593 41.289L44.5371 35.4445L44.3593 35.0593C44.0112 34.2816 43.3223 33.8593 42.4112 33.8519H41.8408L41.8186 27.4964C41.7964 21.3186 41.789 21.1408 41.6482 20.889C41.1519 20.0075 40.3001 19.5927 39.4112 19.7853C38.6408 19.9556 38.2853 20.2741 37.7223 21.2964C37.4408 21.8075 37.2779 22.1112 36.7668 23.0371C36.6186 23.3038 36.4112 23.6964 36.3075 23.9038C36.2038 24.1186 36.0927 24.2964 36.0556 24.2964C35.9742 24.2964 35.8556 24.1334 35.8038 23.926C35.7519 23.7334 35.589 23.3112 35.4186 22.926C35.3668 22.8001 35.2556 22.5186 35.1593 22.2964C34.5668 20.8075 34.1445 20.1482 33.4927 19.6964C32.4038 18.9482 30.8927 19.1038 29.9519 20.0593C29.5742 20.4371 29.0779 21.4001 28.4705 22.889C28.1519 23.689 27.4927 25.726 27.3223 26.4445C27.2853 26.5853 27.189 26.9556 27.1075 27.2593C26.6482 28.9334 25.8705 33.4741 25.7297 35.2964C25.7075 35.5408 25.663 36.0223 25.6186 36.3704C25.3668 38.5482 25.263 44.4223 25.4408 46.2964C25.4927 46.763 25.4927 47.126 25.4556 47.2001C25.389 47.3186 24.9668 47.3334 19.4038 47.3482L13.426 47.3704L13.1297 47.5334C12.3593 47.9778 11.9742 48.5778 11.9223 49.4075C11.8556 50.526 12.0779 50.8593 13.6853 52.089C14.3149 52.5704 15.0408 53.1186 15.2927 53.3112C15.5445 53.5112 15.7519 53.7112 15.7593 53.7556C15.7593 53.8297 14.9445 53.8519 11.9297 53.8519C8.66305 53.8519 8.0112 53.8667 7.53712 53.9704C6.87786 54.1112 5.95194 54.4519 5.38897 54.763C4.37416 55.3112 3.22601 56.4667 2.67045 57.4816C2.2186 58.3038 1.75934 59.7556 1.75934 60.3482C1.75934 60.5112 1.70749 61.0223 1.64823 61.489C1.54453 62.2593 1.54453 62.3704 1.65564 62.7186C1.93712 63.6075 2.87045 64.0149 3.68527 63.6001C4.2186 63.3334 4.40379 62.9927 4.53712 62.0445C4.59638 61.6001 4.64823 61.0667 4.64823 60.8667C4.64823 60.6593 4.70008 60.3112 4.76675 60.0816C5.22601 58.4667 6.38897 57.2964 7.94453 56.8816C8.44823 56.7482 9.65564 56.7408 49.9816 56.7408C90.3075 56.7408 91.5149 56.7482 92.0186 56.8816C93.5742 57.2964 94.7371 58.4667 95.1964 60.0816C95.2631 60.3112 95.3149 60.6741 95.3149 60.8964C95.3149 61.1186 95.3519 61.4964 95.389 61.7408C95.426 61.9853 95.4927 62.6223 95.5371 63.1482C95.5742 63.6816 95.6631 64.6445 95.7223 65.2964C95.7816 65.9482 95.8779 67.0667 95.9371 67.7778C96.0038 68.489 96.0853 69.4223 96.1223 69.8519C96.1668 70.2816 96.2482 71.2149 96.3149 71.926C96.3816 72.6371 96.4779 73.6741 96.5445 74.2223C96.6038 74.7704 96.6482 75.3556 96.6482 75.5186C96.6482 75.6816 96.7001 76.2667 96.7593 76.8149C97.1001 79.9112 97.0927 79.8667 96.9668 80.0816C96.7075 80.526 94.189 81.7927 92.5001 82.3334C92.1519 82.4445 91.7519 82.5778 91.6112 82.6297C90.8556 82.9038 88.9593 83.2741 87.626 83.4149C86.5593 83.526 84.2927 83.526 83.2408 83.4149C82.2186 83.3112 81.4482 83.1778 81.3371 83.089C81.263 83.0371 81.2408 81.8667 81.226 78.0816L81.2038 73.1334L80.9816 72.7704C80.6556 72.2445 80.3001 72.0593 79.6705 72.089C79.2482 72.1112 79.1297 72.1482 78.8927 72.3408C78.7371 72.4667 78.5371 72.7112 78.4482 72.889L78.2779 73.2149V78.2964C78.2779 82.2519 78.2556 83.4075 78.189 83.4964C78.1371 83.5556 77.8556 83.7556 77.5742 83.9334C77.2853 84.1112 76.989 84.3038 76.9075 84.3482C76.5149 84.6001 73.6556 85.9704 73.3149 86.0815C73.2112 86.1112 72.9445 86.2075 72.7223 86.2964C71.7964 86.6519 69.9593 87.2075 69.0186 87.4075C68.8779 87.4371 68.6112 87.4964 68.426 87.5408C66.4705 88.0149 64.189 88.2519 61.6482 88.2519C58.9668 88.2519 57.4112 88.0815 54.9445 87.5038C53.7223 87.2223 51.6779 86.5482 51.5593 86.3853C51.4853 86.2964 51.463 84.7778 51.463 79.3704C51.463 71.8297 51.4705 71.9556 51.0408 71.5186C50.7964 71.2741 50.2705 71.0371 49.9816 71.0371C49.6927 71.0371 49.1668 71.2741 48.9223 71.5186C48.4927 71.9556 48.5001 71.8297 48.5001 79.3704C48.5001 84.7778 48.4779 86.2964 48.4112 86.3853C48.2853 86.5408 46.226 87.2223 45.0186 87.5038C42.5742 88.0741 40.9816 88.2519 38.3149 88.2519C35.8186 88.2519 33.4779 88.0075 31.5371 87.5408C31.3519 87.4964 31.0853 87.4371 30.9445 87.4075C30.0038 87.2075 28.1668 86.6519 27.2408 86.2964C27.0186 86.2075 26.7519 86.1112 26.6482 86.0815C26.263 85.9556 23.426 84.5778 23.0112 84.3112C22.9001 84.2445 22.6186 84.0741 22.3816 83.9334C21.6038 83.4741 21.6853 84.1112 21.6853 78.3112V73.2149L21.5223 72.889C21.2556 72.3704 20.8853 72.126 20.3223 72.089C19.9593 72.0667 19.7964 72.089 19.5593 72.2075C19.2038 72.3927 18.9149 72.7556 18.8038 73.1482C18.7519 73.3482 18.7223 74.9853 18.7223 78.2297C18.7223 81.9704 18.7001 83.0371 18.626 83.089C18.5149 83.1778 17.7519 83.3112 16.7223 83.4149C15.6705 83.526 13.4038 83.526 12.3371 83.4149C11.0038 83.2741 9.1149 82.9038 8.35194 82.6297C8.21119 82.5778 7.8112 82.4445 7.46305 82.3334C6.32971 81.963 5.27045 81.5038 4.3149 80.963C2.76675 80.0964 2.84082 80.2075 2.98157 78.8816C3.04082 78.3334 3.14453 77.3408 3.20379 76.6667C3.27045 75.9927 3.36675 74.9408 3.42601 74.3334C3.48527 73.7186 3.58157 72.6741 3.64082 72.0001C3.70008 71.326 3.78897 70.3853 3.83342 69.9112C3.92971 68.889 3.87045 68.5778 3.47786 68.1778C2.87045 67.5556 2.04823 67.5334 1.38156 68.126C1.00379 68.4667 0.951935 68.7778 0.648232 72.5186C0.611195 72.9853 0.544528 73.7038 0.507491 74.1112C0.463046 74.5186 0.381565 75.4371 0.314898 76.1482C0.255639 76.8593 0.16675 77.763 0.129713 78.1482C0.00378716 79.3556 0.0334168 80.5704 0.203787 81.0297C0.514898 81.8816 0.988972 82.4149 1.99638 83.0223C2.44823 83.2964 4.15934 84.1853 4.68527 84.4075C6.5149 85.2075 8.82601 85.8667 10.9075 86.1778C13.7075 86.6075 17.226 86.5112 19.4038 85.9556C19.8927 85.8297 19.8482 85.8149 21.0556 86.5704C22.3371 87.3704 24.8112 88.5704 25.9816 88.963C26.0853 89.0001 26.3519 89.0964 26.5742 89.1853C28.1371 89.7853 30.9593 90.489 33.2408 90.8445C35.1001 91.1334 36.2038 91.2001 38.7742 91.163C41.1593 91.1334 41.6112 91.1038 43.2408 90.8445C45.263 90.526 47.389 89.9853 48.8705 89.4075C49.0927 89.3186 49.3668 89.2223 49.4705 89.1853C49.5742 89.1556 49.7297 89.0815 49.8186 89.0297C49.9593 88.9408 50.0186 88.9482 50.2186 89.0445C50.5223 89.2001 50.8556 89.3334 51.0927 89.4075C51.1964 89.4445 51.463 89.5408 51.6853 89.6223C52.3593 89.8815 54.3297 90.4001 55.426 90.6149C57.7445 91.0667 58.6705 91.1482 61.6482 91.1482C64.2853 91.1482 65.0705 91.1038 66.7223 90.8445C68.7445 90.5334 71.6334 89.8445 72.7964 89.4001C73.0186 89.3186 73.3075 89.2223 73.426 89.1853C74.4112 88.9112 77.5445 87.4149 78.9075 86.5704C80.1149 85.8149 80.0705 85.8297 80.5593 85.9556C81.7519 86.2593 83.5668 86.4445 85.3742 86.4445C88.4779 86.4445 91.1668 85.9482 94.4186 84.7778C95.6408 84.3408 98.0112 83.0741 98.789 82.4519C99.4631 81.9186 99.9816 80.8075 99.9816 79.8964C99.9816 79.6519 99.9371 78.9927 99.8779 78.4445C99.8112 77.8964 99.7149 76.8593 99.6482 76.1482C99.5816 75.4371 99.5001 74.5334 99.4631 74.1482C99.426 73.763 99.3742 73.1927 99.3519 72.889C99.3223 72.5853 99.2556 71.8149 99.2038 71.1853C99.1445 70.5556 99.0482 69.4519 98.9816 68.7408C98.7742 66.4001 98.5149 63.6297 98.3445 61.926C98.3001 61.4593 98.2334 60.7927 98.1964 60.4445C98.0186 58.6001 97.2705 57.0519 95.9668 55.8075C95.2038 55.0816 94.5964 54.7038 93.5742 54.3186C92.4927 53.9038 92.0556 53.8519 90.0186 53.8519C89.0038 53.8519 88.1297 53.8223 88.0853 53.7927C88.0334 53.763 87.9223 53.489 87.8334 53.1853C87.1371 50.7927 85.2186 48.8149 82.9075 48.1112C82.5371 47.9927 82.1964 47.8741 82.1519 47.8297C82.0779 47.7778 82.0556 47.1927 82.0556 45.363V42.9704L82.4556 42.8593C82.6779 42.7927 82.8927 42.7408 82.9371 42.7408C83.0112 42.7408 83.2482 42.6445 83.8334 42.3778C84.7001 41.9778 85.7742 40.9556 86.2186 40.0964C86.3668 39.8223 86.5742 39.326 86.6779 39.0001C86.8482 38.489 86.8705 38.289 86.8705 37.4223C86.8705 36.8816 86.8186 36.163 86.7593 35.8297C86.6631 35.2519 86.5668 34.6445 86.3223 33.0001C85.6853 28.726 85.5593 27.9704 85.4038 27.5927C85.2482 27.1927 84.8408 26.6964 84.5075 26.489C83.9816 26.163 83.789 26.1482 80.5668 26.1482C77.9816 26.1482 77.4482 26.1704 77.1668 26.2667C76.3593 26.5482 75.789 27.2223 75.6186 28.0964C75.5149 28.6593 75.2112 30.5853 74.9075 32.6667C74.8038 33.3778 74.6705 34.2816 74.6112 34.6667C74.5519 35.0519 74.4853 35.5038 74.4556 35.6667C74.4334 35.8297 74.3668 36.2741 74.3075 36.6593C74.0779 38.0667 74.5371 39.7038 75.4927 40.9038C76.1742 41.7556 77.426 42.5482 78.5223 42.8075L79.0556 42.9408V45.4149V47.8816L78.4927 48.0445C75.9816 48.7408 73.8334 50.9556 73.2779 53.4445C73.2482 53.563 73.1964 53.7112 73.1519 53.7556C73.0408 53.889 70.2705 53.889 70.1445 53.763C70.0779 53.6964 70.0556 51.6741 70.0556 45.1186C70.0556 39.4593 70.026 36.4593 69.9816 36.2816C69.6927 35.2593 68.3371 34.9112 67.589 35.6741C67.1371 36.126 67.1297 36.1556 67.0927 38.3704L67.0556 40.4001L66.6853 40.5334C66.4853 40.6149 66.1816 40.726 66.0186 40.7853C65.8556 40.8445 65.626 40.926 65.5001 40.963C65.3816 41.0001 65.1297 41.0816 64.9445 41.1482C64.7593 41.2223 64.1445 41.4371 63.5742 41.6297C63.0038 41.8297 62.2556 42.0964 61.9075 42.2223C61.5593 42.3482 61.1816 42.4816 61.0556 42.5186C60.9371 42.5556 60.5001 42.7038 60.0927 42.8593C59.1149 43.2223 59.0334 43.2297 58.4853 43.0371C58.226 42.9408 57.7001 42.7556 57.3149 42.6149C56.9297 42.4816 56.3816 42.2816 56.0927 42.1853C55.8112 42.089 55.426 41.9482 55.2408 41.8816C55.0556 41.8149 54.4927 41.6149 53.9816 41.4371C53.4705 41.2667 52.8705 41.0445 52.6482 40.963C52.426 40.8741 52.1445 40.7704 52.0186 40.7408C51.5223 40.6001 51.1371 40.4297 51.0408 40.3112C50.9668 40.2075 50.9519 38.9038 50.9445 33.8741C50.9445 29.9408 50.9742 27.4964 51.0186 27.3778L51.0927 27.1853L59.0705 27.2001L67.0556 27.2223L67.0927 28.7408C67.1371 30.3927 67.1593 30.4964 67.6038 30.9186C67.8408 31.1482 68.2705 31.3334 68.5668 31.3334C69.1445 31.3334 69.8334 30.8445 69.9742 30.3186C70.0779 29.963 70.0779 26.926 69.9816 26.0741C69.8556 24.9334 69.5149 23.8075 68.9668 22.6667C68.189 21.0519 67.1075 19.7704 65.4779 18.5334C65.0779 18.2371 64.6853 17.926 64.5964 17.8445L64.426 17.7038V9.91118C64.426 1.3334 64.4556 1.85192 63.9742 1.14822C63.6927 0.725996 63.4927 0.563033 62.9445 0.281552L62.463 0.0445148L59.389 0.0297C57.7001 0.0222926 56.1297 0.0371074 55.9075 0.066737ZM61.5001 3.126C61.5223 3.22229 61.5297 4.56303 61.5223 6.11118L61.5001 8.926L59.1297 8.94822C56.9668 8.96303 56.7519 8.95563 56.6705 8.83711C56.5445 8.67414 56.5297 3.326 56.6482 3.10377C56.7223 2.97044 56.8334 2.96303 59.0927 2.96303H61.463L61.5001 3.126ZM61.4482 11.9482C61.5075 12.0149 61.5371 13.0667 61.5519 15.2297C61.5742 18.3408 61.5742 18.4149 61.7445 18.8297C62.0112 19.489 62.3519 19.8667 63.4112 20.6519C64.4334 21.4223 65.1668 22.126 65.663 22.8149C66.063 23.363 66.3519 23.8964 66.3519 24.0741C66.3519 24.2223 66.2556 24.2223 59.0927 24.2223C50.9593 24.2223 51.5964 24.2741 51.8927 23.6741C52.4038 22.6519 53.2556 21.7334 54.7223 20.6297C55.7371 19.8667 55.989 19.6149 56.2408 19.1186C56.5445 18.5112 56.5742 18.1853 56.5742 15.1482C56.5742 13.4297 56.6038 12.1556 56.6482 12.0445L56.7223 11.8519H59.0482C60.8779 11.8519 61.389 11.8741 61.4482 11.9482ZM32.2186 22.889C32.5445 23.526 33.2038 25.3556 33.6556 26.889C33.7223 27.1112 33.826 27.4297 33.8779 27.5927C34.063 28.1334 34.0112 28.4816 33.6408 29.2519C33.4482 29.6445 33.1149 30.3778 32.8927 30.889C32.6705 31.4001 32.426 31.963 32.3445 32.1482C32.263 32.3334 32.1519 32.5778 32.0927 32.7038C31.8408 33.2741 31.4112 34.3556 30.5223 36.6297C30.463 36.7927 30.3742 37.0075 30.3371 37.1112C30.2927 37.2149 30.2334 37.3778 30.1964 37.4816C30.1668 37.5853 29.9668 38.1482 29.7593 38.7408C29.5519 39.3334 29.3519 39.9112 29.3149 40.0371C29.2853 40.1556 29.2112 40.3778 29.1593 40.5186C29.1149 40.6593 29.0334 40.8964 28.9816 41.0371C28.8556 41.4001 28.6705 42.0001 28.6186 42.2223C28.5964 42.326 28.5075 42.489 28.426 42.5927L28.2779 42.7778V41.5927C28.2779 37.0223 29.063 31.0149 30.1742 27.0741C30.5223 25.8297 30.4334 26.0964 31.0112 24.5186C31.2112 23.9704 31.4482 23.3482 31.5371 23.1482C31.626 22.9408 31.7297 22.7038 31.7668 22.6075C31.863 22.3556 31.989 22.4371 32.2186 22.889ZM38.8705 30.7408V35.8519L38.1519 36.3853C35.9445 38.0075 34.4038 39.1927 33.2038 40.163C32.7149 40.563 32.2853 40.889 32.2482 40.889C32.1445 40.889 32.2482 40.4519 32.5223 39.7038C32.663 39.3186 32.9001 38.6519 33.0556 38.2223C33.2038 37.7927 33.3668 37.3408 33.426 37.2223C33.4779 37.0964 33.5742 36.8519 33.6482 36.6667C33.7149 36.4816 33.8112 36.2519 33.8556 36.1482C33.9001 36.0445 33.9742 35.8593 34.0186 35.7408C34.2853 35.0593 35.189 32.9186 35.4038 32.4445C35.5519 32.1408 35.863 31.4519 36.1001 30.926C36.8556 29.2445 38.7297 25.5482 38.8038 25.5927C38.8408 25.6223 38.8705 27.6667 38.8705 30.7408ZM82.663 29.126C82.7816 29.2149 83.0408 30.6964 83.3223 32.8519C83.3593 33.1334 83.4186 33.5556 83.4556 33.7778C83.4927 34.0001 83.5742 34.5038 83.6408 34.889C83.7001 35.2741 83.8038 35.8964 83.863 36.2667C84.026 37.2149 84.0186 37.8223 83.8186 38.3334C83.6112 38.889 83.0779 39.4667 82.5223 39.7408L82.0927 39.963H80.6112C79.1593 39.963 79.1223 39.9556 78.7075 39.763C77.6186 39.2519 77.0482 38.1408 77.2334 36.8964C77.2779 36.5853 77.3668 36.0001 77.4334 35.5927C77.4927 35.1853 77.589 34.5704 77.6482 34.2223C77.7519 33.5778 77.8779 32.7408 78.0927 31.2964C78.3223 29.7334 78.4186 29.2519 78.5001 29.1408C78.626 29.0001 82.4779 28.9853 82.663 29.126ZM41.6112 42.4741C41.6112 46.0149 41.589 47.1778 41.5223 47.2445C41.3964 47.3704 29.9445 47.3704 29.863 47.2519C29.7742 47.1112 32.3297 44.689 34.2408 43.1112C35.8556 41.7704 37.5297 40.4741 39.3149 39.1853C40.0705 38.6445 40.8556 38.0741 41.0556 37.9186C41.3223 37.726 41.4556 37.6667 41.5223 37.7186C41.589 37.7778 41.6112 38.8223 41.6112 42.4741ZM52.3149 43.963C52.7223 44.1038 53.4705 44.3704 53.9816 44.5482C56.1964 45.326 56.626 45.4816 56.8705 45.563C57.0112 45.6149 57.1964 45.6816 57.2779 45.7112C58.0334 46.0223 58.4186 46.1038 59.0927 46.0964C59.6705 46.0964 59.8927 46.0593 60.3149 45.889C60.6038 45.7778 60.9371 45.6593 61.0556 45.6297C61.1816 45.5927 61.6112 45.4445 62.0186 45.2964C63.3075 44.8297 65.2705 44.1408 65.5001 44.0741C65.626 44.0445 65.9075 43.9408 66.1297 43.8519C66.7519 43.6075 66.9668 43.5482 67.0334 43.6149C67.0705 43.6519 67.0853 45.9556 67.0779 48.7482L67.0556 53.8149L59.7668 53.8371C55.7297 53.8445 52.4408 53.8223 52.4038 53.7853C52.3742 53.7556 53.0779 53.163 54.0186 52.4445C55.4038 51.3927 55.7445 51.0964 55.9668 50.7482C56.2334 50.3408 56.2408 50.3186 56.2408 49.5927C56.2334 48.9482 56.2112 48.8149 56.063 48.5556C55.789 48.1038 55.463 47.7853 55.0556 47.5704C54.6927 47.3778 54.6556 47.3704 52.8853 47.3334C51.3964 47.3038 51.0779 47.2741 51.0186 47.1853C50.9816 47.126 50.9445 46.3186 50.9445 45.3927C50.9445 43.8964 50.9593 43.7038 51.0705 43.6445C51.2038 43.563 51.2408 43.5778 52.3149 43.963ZM51.7593 50.2964C51.8927 50.3853 51.9149 50.363 50.6853 51.2964C48.1297 53.2297 47.5816 53.6223 47.3149 53.7334C47.0408 53.8371 45.8112 53.8519 34.0556 53.8519C21.8705 53.8519 21.0779 53.8445 20.8186 53.7186C20.5668 53.6075 19.6779 52.9482 17.0779 50.9778C16.6779 50.6741 16.3519 50.4001 16.3519 50.3704C16.3519 50.3334 16.3964 50.289 16.4482 50.2741C16.6334 50.1927 51.6482 50.2223 51.7593 50.2964ZM81.9445 50.8964C83.189 51.2964 84.1519 52.1186 84.7075 53.2297C85.0334 53.9038 85.3593 53.8519 80.6334 53.8519C78.2556 53.8519 76.4186 53.8223 76.3593 53.7853C76.2705 53.726 76.3001 53.6149 76.5297 53.1408C77.1519 51.8964 78.5371 50.9038 79.9075 50.7408C80.5742 50.6593 81.4186 50.726 81.9445 50.8964Z" fill="black"/>
</g>
<defs>
<clipPath id="clip0_174_87">
<rect width="100" height="91.2222" fill="white"/>
</clipPath>
</defs>
</svg>
