<svg width="100" height="81" viewBox="0 0 100 81" fill="none" xmlns="http://www.w3.org/2000/svg">
<g clip-path="url(#clip0_137_95)">
<path d="M30.9801 0.0741162C30.1278 0.118585 29.6312 0.185289 28.5343 0.377989C27.6449 0.533631 27.43 0.585511 27.2818 0.659627C27.2003 0.704096 27.0224 0.741154 26.889 0.741154C26.6666 0.741154 26.3109 0.837503 25.6438 1.07467C25.503 1.12655 25.1843 1.23031 24.9397 1.29702C24.4654 1.43784 24.3172 1.48972 23.5686 1.83806C23.3018 1.95664 22.909 2.12711 22.694 2.21605C22.4865 2.30499 22.1308 2.47545 21.9158 2.60145C21.7083 2.72003 21.4341 2.87567 21.3081 2.93497C21.1895 2.99426 20.9894 3.10543 20.8634 3.18696C20.7448 3.26848 20.5744 3.36483 20.4928 3.40189C20.4039 3.43895 20.189 3.57977 20.0111 3.72059C19.8258 3.85399 19.3959 4.15787 19.0476 4.38762C17.128 5.67723 13.1925 9.69428 11.5619 12.0363C11.5026 12.1253 11.3544 12.3105 11.2284 12.4514C11.1024 12.5922 10.843 12.9405 10.6503 13.2296C10.4576 13.5112 10.1241 14.0004 9.90917 14.3042C9.58306 14.7638 8.9679 15.7273 8.63439 16.2905C8.58992 16.3572 8.47133 16.5499 8.36757 16.713C8.26381 16.876 8.15264 17.0613 8.1304 17.1206C8.10076 17.1799 8.01182 17.3281 7.9377 17.4541C7.5523 18.0545 5.92918 21.1673 5.92918 21.3007C5.92918 21.3378 5.6179 22.0419 5.0398 23.3092C4.62475 24.2209 4.15041 25.4067 3.89842 26.1627C3.75019 26.5926 3.5649 27.1262 3.47596 27.3485C3.39444 27.5709 3.29809 27.8525 3.26103 27.9785C3.22397 28.0971 3.12021 28.4306 3.01645 28.7197C2.9201 29.0013 2.78669 29.4238 2.71999 29.6461C2.64587 29.8684 2.54211 30.2168 2.48282 30.4095C2.42353 30.6022 2.37165 30.8171 2.37165 30.8764C2.37165 30.9357 2.32718 31.1432 2.26789 31.3359C2.20859 31.5286 2.10483 31.8844 2.03813 32.129C1.97143 32.3735 1.87508 32.7367 1.81578 32.9442C1.54156 33.9522 1.48968 34.1671 1.3785 34.6859C1.22286 35.4716 1.10428 36.0719 1.03016 36.5018C0.918989 37.1836 0.763347 37.9841 0.511355 39.207C0.392771 39.7851 0.266775 40.7041 0.0666634 42.5051C-0.0296865 43.3871 0.0147827 48.5455 0.133367 49.7313C0.177836 50.1612 0.281598 50.9098 0.370536 51.3989C0.452063 51.8881 0.555824 52.5032 0.600293 52.7701C0.674408 53.3111 0.77817 53.8151 0.9264 54.3635C0.985693 54.5636 1.08204 54.949 1.14875 55.2159C1.21545 55.4827 1.31921 55.8977 1.38591 56.1423C1.52673 56.7204 1.73426 57.38 1.92696 57.884C2.01589 58.1064 2.16412 58.5288 2.26047 58.8179C2.35682 59.1143 2.468 59.4108 2.50506 59.4849C2.54952 59.5664 2.65329 59.811 2.74222 60.0334C3.0461 60.7819 3.83172 62.4421 4.11336 62.9164C4.22453 63.0943 4.39499 63.3982 4.49134 63.5835C4.59511 63.7688 4.74334 64.0208 4.82486 64.1468C4.89898 64.2653 4.98792 64.421 5.01756 64.4803C5.04721 64.5396 5.2325 64.836 5.44002 65.1325C5.64754 65.4289 5.86989 65.7551 5.92918 65.8514C6.35905 66.5259 6.81856 67.1558 7.24843 67.6598C7.52266 67.9785 7.95994 68.4973 8.21934 68.8086C8.81226 69.5201 10.7244 71.4175 11.1321 71.6917C12.014 72.2846 13.2666 71.5879 13.2666 70.4984C13.2666 69.9129 13.0739 69.6239 11.9992 68.5714C10.8578 67.4671 9.61271 66.0589 8.87897 65.0435C8.39722 64.3839 7.31513 62.7608 7.15208 62.4495C7.06314 62.279 6.88527 61.9604 6.75186 61.738C6.51469 61.323 6.20341 60.7004 5.63272 59.4775C5.32885 58.8327 4.94345 57.8544 4.81745 57.4023C4.78039 57.2763 4.61734 56.7945 4.45429 56.3276C4.29123 55.8607 4.15041 55.4234 4.15041 55.3567C4.15041 55.29 4.09853 55.0528 4.03183 54.8379C3.69831 53.6669 3.48338 52.7626 3.48338 52.4884C3.48338 52.3698 3.43891 52.0437 3.37962 51.7621C2.63105 48.1601 2.7274 42.4458 3.59455 38.614C3.66125 38.3472 3.70572 38.0285 3.70572 37.8951C3.70572 37.7691 3.74278 37.569 3.78725 37.4504C3.83172 37.3393 3.89101 37.0428 3.92807 36.7982C4.06148 35.9163 4.30606 34.8268 4.60252 33.8336C4.68404 33.5446 4.78039 33.1666 4.81745 32.9813C4.85451 32.796 4.95827 32.4106 5.0398 32.129C5.12873 31.8399 5.22508 31.4619 5.26214 31.2766C5.32885 30.9209 5.69201 29.8092 6.07741 28.7567C6.20341 28.4084 6.33681 28.023 6.37387 27.9044C6.4554 27.6153 6.58881 27.2225 6.7148 26.9187C6.77409 26.7853 6.81856 26.6296 6.81856 26.5703C6.81856 26.4888 7.18173 25.6216 7.63383 24.6433C7.91547 24.0282 8.13781 23.5168 8.30087 23.124C8.5158 22.5903 9.03461 21.5231 9.23472 21.197C9.31625 21.0561 9.61271 20.5225 9.87952 20.0111C10.1463 19.4997 10.4502 18.9364 10.554 18.7512C10.6577 18.5659 10.7689 18.3658 10.7986 18.3065C10.8356 18.2472 11.0876 17.847 11.3767 17.4171C11.6583 16.9872 11.9251 16.5796 11.9696 16.5129C12.607 15.453 14.1189 13.4149 15.3937 11.8881C15.8532 11.3396 16.9353 10.1908 17.8247 9.30147C18.7363 8.39726 19.0772 8.07115 19.937 7.34482C20.2927 7.04095 21.738 6.02557 22.1234 5.81064C22.2049 5.76617 22.6422 5.52159 23.0869 5.2696C23.539 5.0176 23.9837 4.79526 24.0874 4.76561C24.1912 4.74338 24.3542 4.68409 24.458 4.6322C24.9694 4.3728 25.377 4.21716 26.0515 3.99481C26.4591 3.86882 26.8223 3.728 26.8667 3.69094C26.9038 3.66129 27.0298 3.63165 27.141 3.63165C27.2595 3.63165 27.4745 3.57977 27.6227 3.52048C27.7635 3.46118 27.9785 3.4093 28.0896 3.4093C28.2008 3.4093 28.438 3.35742 28.6084 3.29813C28.7789 3.23884 29.0605 3.18696 29.231 3.18696C29.3941 3.18696 29.7721 3.13508 30.0537 3.07578C30.7874 2.92014 34.219 2.92014 35.0342 3.07578C35.3529 3.13508 35.7235 3.18696 35.8569 3.18696C36.1163 3.18696 36.8501 3.3426 37.4356 3.52789C37.6283 3.58718 37.8432 3.63165 37.9173 3.63165C37.9988 3.63165 38.2953 3.72059 38.5769 3.82435C38.866 3.92811 39.1995 4.03928 39.3181 4.06893C39.6739 4.16528 40.5336 4.55068 41.6898 5.12878C42.7274 5.64758 43.1869 5.90699 43.6168 6.21827C43.8243 6.37391 44.1726 6.61849 44.395 6.76672C45.2251 7.30777 47.9525 9.84251 47.9525 10.0649C47.9525 10.1612 47.8636 10.2798 46.8037 11.6213C45.8921 12.7701 44.8397 14.1857 44.8397 14.2672C44.8397 14.2968 44.7433 14.4451 44.6173 14.6007C44.4988 14.7563 44.395 14.8972 44.395 14.9194C44.395 14.9416 44.2394 15.1862 44.0467 15.4679C43.7354 15.9274 43.1721 16.8464 43.0387 17.1206C42.9646 17.2614 42.8386 17.469 42.6681 17.7284C42.4828 17.9952 42.2457 18.6696 42.2531 18.8994C42.2753 19.6331 43.1202 20.3817 43.8095 20.2779C44.3061 20.1964 44.8471 19.8184 45.0769 19.3811C45.1287 19.2848 45.5215 18.6326 45.9514 17.9359C46.3813 17.2392 46.7667 16.6092 46.8037 16.5425C46.8482 16.4684 47.0631 16.1645 47.2929 15.8607C47.5227 15.5568 47.7672 15.201 47.8488 15.0825C47.9229 14.9565 48.1749 14.6081 48.3972 14.3042C48.627 14.0004 48.8493 13.6965 48.8864 13.6298C48.9234 13.5631 49.1606 13.274 49.42 12.985C49.672 12.7034 49.9536 12.3698 50.0426 12.2587C50.7911 11.2803 53.3333 8.67149 54.534 7.6487C55.2306 7.04836 56.5277 6.13674 57.1799 5.77358C57.8469 5.41041 58.8623 4.89902 59.218 4.74338C60.3891 4.24681 62.1604 3.63165 62.4495 3.63165C62.5384 3.63165 62.7311 3.57977 62.8719 3.52048C63.0202 3.46118 63.2573 3.4093 63.3907 3.4093C63.5316 3.4093 63.7391 3.37966 63.8577 3.33519C64.2134 3.2166 66.3109 3.03873 67.3707 3.03873C68.8827 3.03873 70.9727 3.26848 71.8102 3.52789C71.9955 3.58718 72.203 3.63165 72.2846 3.63165C72.4328 3.63165 72.6922 3.71318 73.8187 4.09116C75.5679 4.6915 77.0502 5.42524 78.5473 6.44062C78.8882 6.67037 79.244 6.90754 79.3403 6.96683C79.9629 7.35965 83.2017 10.4354 83.891 11.2878C84.0244 11.4582 84.3283 11.814 84.5655 12.0808C85.3659 12.985 87.4708 15.7866 87.7302 16.3054C87.7672 16.3646 88.0785 16.8464 88.4269 17.38C88.7752 17.9062 89.1384 18.4918 89.2347 18.677C89.3237 18.8623 89.4571 19.0921 89.5312 19.1959C89.5979 19.2996 89.8869 19.8332 90.176 20.3817C90.465 20.9301 90.7689 21.5008 90.8504 21.6417C91.0505 21.9752 91.2507 22.3902 91.4582 22.9016C91.6138 23.2944 91.8288 23.7836 92.1252 24.421C92.7404 25.7625 93.1999 26.9335 93.2888 27.3485C93.3111 27.4523 93.3555 27.5709 93.3926 27.6079C93.4222 27.6524 93.4815 27.8229 93.526 27.9785C93.5631 28.1416 93.6668 28.4603 93.7558 28.6826C94.0522 29.4534 94.1337 29.6832 94.2004 29.9055C94.2375 30.0241 94.3487 30.3798 94.4524 30.6837C94.5562 30.9876 94.6451 31.284 94.6451 31.3433C94.6451 31.4026 94.6896 31.6176 94.7489 31.8251C94.8082 32.0326 94.912 32.418 94.9787 32.6848C95.0972 33.1518 95.201 33.5372 95.4159 34.3376C95.4752 34.5451 95.5642 34.8712 95.616 35.0565C95.705 35.3826 95.831 36.0348 95.9792 36.9539C96.0163 37.2059 96.083 37.5023 96.1274 37.6061C96.1645 37.7173 96.2016 37.91 96.2016 38.0285C96.2016 38.1471 96.246 38.4362 96.3053 38.6733C96.4091 39.0661 96.5277 39.748 96.7278 41.0228C96.7722 41.3044 96.8389 41.9418 96.876 42.431C97.0761 45.2029 97.0984 45.7439 97.0168 47.1151C96.8834 49.3533 96.8167 50.176 96.7278 50.7319C96.6833 51.0135 96.587 51.5694 96.5277 51.9548C96.4684 52.3402 96.3868 52.7923 96.3424 52.9553C96.2979 53.1184 96.2386 53.4 96.2016 53.5853C96.1645 53.7706 96.083 54.119 96.0237 54.3635C95.9644 54.6081 95.8458 55.075 95.7643 55.4012C95.6827 55.7273 95.5123 56.2757 95.3863 56.6241C95.2603 56.9724 95.1195 57.3504 95.0824 57.4764C95.0454 57.595 94.9861 57.7654 94.9564 57.847C94.8527 58.0841 94.7118 58.4992 94.6525 58.7363C94.5488 59.1366 93.022 62.1308 92.5329 62.8868C92.266 63.2944 92.014 63.6946 91.977 63.7762C91.7991 64.1319 91.3174 64.8138 90.806 65.4438C90.591 65.7106 90.2205 66.1775 89.9833 66.4814C89.5312 67.0669 86.9594 69.6757 86.6407 69.8833C86.4109 70.0241 85.4474 70.7949 85.0843 71.1284C84.8619 71.3285 84.0689 71.8918 84.0096 71.8918C84.0022 71.8918 83.4686 72.2401 82.8312 72.6626C82.1938 73.0925 81.4304 73.5594 81.1339 73.7076C80.8375 73.8558 80.5039 74.0411 80.3779 74.1227C80.2594 74.1968 80.1037 74.2857 80.0444 74.308C79.9851 74.3376 79.7183 74.4562 79.4515 74.5822C78.4065 75.0565 78.1471 75.1751 77.9692 75.227C77.8654 75.264 77.5986 75.3604 77.3763 75.4493C76.9761 75.5976 75.8421 75.983 75.1158 76.2127C74.9157 76.272 74.6192 76.3535 74.4636 76.3758C74.3153 76.4054 74.1671 76.4573 74.1449 76.4944C74.1226 76.5314 73.9744 76.5611 73.8187 76.5611C73.6631 76.5611 73.4408 76.5981 73.3222 76.6426C73.211 76.6871 72.9294 76.7538 72.707 76.7834C72.4847 76.813 72.0993 76.8798 71.8547 76.9242C69.3718 77.3615 64.7915 77.3467 62.7015 76.8872C62.4346 76.8279 62.1234 76.7834 62.0122 76.7834C61.8936 76.7834 61.649 76.7389 61.4563 76.6796C61.2636 76.6278 60.856 76.524 60.5521 76.4499C59.7961 76.2794 59.2032 76.1164 59.055 76.0348C58.9809 75.9978 58.803 75.9385 58.6474 75.9014C58.4917 75.8644 58.1804 75.7606 57.9581 75.6717C57.1428 75.3604 56.9501 75.2863 56.7352 75.2344C56.6092 75.2047 56.4461 75.138 56.3646 75.101C56.2831 75.0565 55.5642 74.7008 54.7711 74.3005C53.1777 73.5149 53.1628 73.5001 52.7181 73.211C52.5477 73.0999 52.392 73.0035 52.3624 73.0035C52.3327 73.0035 52.1178 72.8553 51.8806 72.67C51.6435 72.4847 51.4285 72.3365 51.4063 72.3365C51.3174 72.3365 50.1167 71.5212 49.798 71.2544C49.4793 70.9876 49.042 70.6318 48.1452 69.9277C47.3818 69.3348 45.5364 67.4449 44.6322 66.3332C43.3426 64.7545 42.9646 64.2135 41.9862 62.5681C41.9418 62.5014 41.8232 62.3087 41.7194 62.1456C41.5341 61.8418 40.8078 60.3817 40.415 59.5145C40.1482 58.929 40.0296 58.64 39.7257 57.7728C39.5997 57.4023 39.4515 56.9872 39.3996 56.8464C39.118 56.0978 39.1106 56.0682 38.8808 55.1047C38.6362 54.0523 38.5992 53.8966 38.5028 53.5483C38.362 53.0072 38.1915 52.1549 38.0878 51.473C37.8506 49.8499 37.7913 49.1755 37.7246 47.456C37.6283 44.7804 37.7765 42.0233 38.1248 40.0964C38.1915 39.748 38.2879 39.1847 38.3546 38.8364C38.4139 38.488 38.5028 38.0878 38.5399 37.947C38.5844 37.8062 38.614 37.5616 38.614 37.4134C38.614 37.2651 38.6511 37.0502 38.6955 36.9316C38.74 36.8205 38.8215 36.4721 38.8808 36.1682C39.0958 35.0565 39.118 34.9453 39.1995 34.7378C39.244 34.6192 39.281 34.4265 39.281 34.2931C39.281 34.1671 39.3255 33.93 39.3848 33.7595C39.4441 33.5964 39.5479 33.2629 39.6146 33.0183C39.6813 32.7738 39.785 32.3884 39.8517 32.166C39.9184 31.9437 40.0148 31.6102 40.0593 31.4249C40.2816 30.6467 40.6374 29.5201 40.7337 29.2903C40.793 29.1569 40.8375 28.9865 40.8375 28.9198C40.8375 28.8457 40.8671 28.7567 40.9042 28.7197C40.9338 28.6752 41.0376 28.3936 41.1339 28.0897C41.5119 26.8001 41.2377 26.0589 40.2594 25.755C39.8888 25.6365 39.8443 25.6365 39.5182 25.755C39.1402 25.8959 38.7993 26.1701 38.6511 26.4591C38.5992 26.5629 38.4658 26.9261 38.3546 27.2744C38.2434 27.6228 38.11 28.023 38.0581 28.1638C37.8358 28.7938 37.7839 28.9568 37.7246 29.1644C37.695 29.2829 37.6357 29.4682 37.5986 29.572C37.4875 29.8462 37.2355 30.6985 36.9464 31.7584C36.8871 31.9807 36.7908 32.3439 36.7315 32.5588C36.6722 32.7664 36.6055 33.0258 36.5832 33.1295C36.561 33.2333 36.5091 33.5001 36.4573 33.7224C36.3831 34.1152 36.2349 34.7304 36.0867 35.2789C35.9977 35.6124 35.768 36.7538 35.6123 37.6505C35.5456 38.0359 35.4493 38.6066 35.39 38.9105C35.0194 40.9709 34.9082 42.053 34.8415 44.2246C34.7674 47.0039 34.9008 49.8277 35.1973 51.6954C35.4419 53.2222 35.5234 53.6594 35.6123 54.03C35.6716 54.2524 35.7902 54.7341 35.8717 55.1047C35.9607 55.4679 36.1089 56.0385 36.2127 56.3646C36.3164 56.6908 36.4498 57.1429 36.5165 57.3652C36.5832 57.5876 36.6796 57.8766 36.7389 58.01C36.7908 58.136 36.8352 58.2768 36.8352 58.3213C36.8352 58.3658 36.8797 58.5066 36.939 58.64C36.9983 58.7734 37.0946 59.018 37.1539 59.181C37.2206 59.3441 37.354 59.6924 37.4578 59.9592C37.6876 60.567 38.9327 63.1314 39.1106 63.376C39.1847 63.4723 39.3255 63.7021 39.4219 63.8873C39.5182 64.0726 39.6739 64.3172 39.7554 64.4432C39.8443 64.5618 40 64.8286 40.0963 65.0213C40.2001 65.214 40.5262 65.7032 40.8301 66.096C41.1265 66.4888 41.4526 66.9483 41.5564 67.1039C41.7713 67.4301 41.7565 67.4152 42.1864 67.9415C43.261 69.2533 45.3659 71.4249 46.2108 72.0993C46.826 72.5885 47.1373 72.8998 47.1373 73.0183C47.1373 73.1888 46.8334 73.3667 45.1361 74.2042C43.2166 75.1455 41.6527 75.7532 40.0963 76.1608C39.3181 76.3684 38.7993 76.4944 38.4584 76.5611C38.2657 76.5907 37.984 76.6574 37.8284 76.7019C37.6653 76.7463 37.4133 76.7834 37.2577 76.7834C37.1021 76.7834 36.9168 76.813 36.8427 76.8501C36.7759 76.8872 35.8866 76.9909 34.8712 77.0799C32.6477 77.28 30.8097 77.2281 28.7196 76.9242C28.438 76.8798 28.0007 76.8205 27.7561 76.7834C27.5115 76.7538 27.1632 76.6871 26.9779 76.6426C26.7926 76.5981 26.2293 76.4573 25.718 76.3387C24.7989 76.1164 23.6057 75.7532 23.1387 75.5531C23.0053 75.4938 22.8645 75.4493 22.82 75.4493C22.7756 75.4493 22.6199 75.3974 22.4717 75.3307C22.3161 75.264 22.0863 75.1677 21.9529 75.1084C21.8195 75.0491 21.6787 75.0046 21.6416 75.0046C21.5971 75.0046 21.2636 74.8564 20.9005 74.6711C20.5299 74.4932 20.0481 74.2857 19.8184 74.219C19.4256 74.093 19.3959 74.093 19.0031 74.2264C18.5436 74.3821 18.2101 74.7304 18.0322 75.2344C17.921 75.5605 17.9507 75.768 18.1656 76.2424C18.3064 76.5611 18.6251 76.813 19.1958 77.0873C19.3366 77.154 19.6776 77.3096 19.9518 77.4356C20.226 77.569 20.4854 77.6728 20.5225 77.6728C20.5521 77.6728 20.7819 77.7617 21.019 77.8655C21.5008 78.0804 21.9455 78.2435 22.2716 78.3398C22.3976 78.3769 22.7311 78.4806 23.0127 78.5844C23.7835 78.8438 24.8063 79.1403 25.3103 79.2366C25.4734 79.2663 25.7772 79.333 25.9774 79.3774C26.1849 79.4219 26.511 79.496 26.7111 79.5405C26.9038 79.585 27.2595 79.6443 27.4893 79.6739C27.7191 79.7035 28.1563 79.7628 28.4602 79.8073C30.995 80.1705 34.3598 80.1705 36.5758 79.8147C36.8204 79.7702 37.2577 79.711 37.5393 79.6739C37.8284 79.6443 38.1545 79.5775 38.2657 79.5331C38.3842 79.4886 38.5844 79.4516 38.7178 79.4516C38.8586 79.4516 39.1106 79.3997 39.281 79.3404C39.4515 79.2811 39.6813 79.2292 39.7776 79.2292C39.8814 79.2292 40.1185 79.1847 40.3112 79.1254C40.4965 79.0662 40.8523 78.9624 41.0969 78.8957C41.8973 78.6659 42.2753 78.5473 42.5273 78.4436C42.6607 78.3843 42.8015 78.3398 42.846 78.3398C42.8905 78.3398 43.0313 78.2954 43.1573 78.2361C43.2907 78.1768 43.6761 78.0211 44.0244 77.8877C45.6327 77.2726 48.0266 76.0645 49.2421 75.2418C49.7535 74.9009 49.9092 74.8786 50.2353 75.101C50.843 75.5086 51.3767 75.8273 52.14 76.2275C52.5847 76.4573 53.0591 76.7241 53.2073 76.813C53.3555 76.902 53.6594 77.0576 53.8817 77.1466C54.1041 77.2429 54.5636 77.4504 54.9045 77.6061C55.2455 77.7691 55.5419 77.8951 55.5642 77.8951C55.5864 77.8951 55.8977 78.0063 56.246 78.1471C56.8019 78.3695 57.2169 78.5103 58.4398 78.8957C58.6029 78.9476 58.9364 79.0365 59.181 79.1032C59.4256 79.1625 59.7739 79.2514 59.9592 79.3033C60.1445 79.3478 60.4632 79.4219 60.6633 79.4516C61.0042 79.5108 61.2043 79.5553 62.1827 79.748C62.3679 79.7925 63.1017 79.8888 63.8132 79.9778C65.5104 80.1927 69.068 80.2075 70.6318 80.0148C71.8325 79.8666 72.9145 79.6961 73.3741 79.585C73.5593 79.5405 73.8558 79.4812 74.0411 79.4516C74.508 79.3774 75.6494 79.0884 76.1534 78.9179C76.2794 78.8809 76.4943 78.8142 76.6351 78.7845C76.7759 78.7549 77.0798 78.6585 77.3022 78.577C77.5245 78.4955 77.9618 78.3398 78.2657 78.2286C78.5695 78.1249 78.8512 77.9989 78.8956 77.9618C78.9327 77.9248 79.0068 77.8951 79.0661 77.8951C79.1254 77.8951 79.3848 77.7988 79.6516 77.6728C79.911 77.5542 80.1482 77.4504 80.163 77.4504C80.2371 77.4504 81.7936 76.6871 82.0455 76.524C82.1864 76.4351 82.5421 76.2349 82.8238 76.0867C83.4241 75.768 83.4686 75.7458 84.1059 75.3159C84.3653 75.1455 84.5877 75.0046 84.6025 75.0046C84.6173 75.0046 84.8545 74.849 85.1361 74.6563C85.4104 74.471 85.8773 74.1523 86.1589 73.9596C86.448 73.7669 86.8482 73.463 87.0557 73.2852C87.2633 73.1073 87.6264 72.8182 87.8636 72.6329C88.8049 71.9066 91.1247 69.6387 92.0882 68.4899C93.3259 67.0076 94.5488 65.2659 95.2084 64.0504C95.327 63.8132 95.5568 63.3908 95.7198 63.1091C96.5128 61.6787 96.624 61.4564 97.2021 60.0334C97.3874 59.5664 97.5949 59.0773 97.6468 58.9587C97.7061 58.8327 97.8099 58.551 97.8766 58.3287C98.0026 57.9285 98.0841 57.6691 98.2768 57.1429C98.3213 57.002 98.3954 56.7649 98.425 56.6241C98.4547 56.4832 98.5214 56.2609 98.5584 56.1423C98.7363 55.6383 98.8697 55.075 98.8697 54.8749C98.8697 54.7489 98.8994 54.6229 98.9438 54.5785C98.9809 54.5414 99.0476 54.2894 99.0921 54.03C99.1291 53.7632 99.1958 53.4149 99.2329 53.2518C99.2773 53.0888 99.3589 52.6218 99.4256 52.2142C99.4923 51.8066 99.5886 51.1914 99.6479 50.8431C99.7072 50.4947 99.7591 50.0426 99.7591 49.8425C99.7591 49.635 99.811 49.0717 99.8703 48.5825C99.9963 47.5523 100.018 44.1801 99.9073 43.4315C99.8703 43.1647 99.8036 42.5125 99.7591 41.9863C99.722 41.4527 99.6183 40.6374 99.5293 40.1705C99.4478 39.7035 99.3515 39.1403 99.3144 38.9253C99.2773 38.7104 99.218 38.3769 99.1736 38.1842C98.9661 37.2133 98.9216 36.9909 98.8697 36.65C98.7659 35.9681 98.4324 34.2931 98.3138 33.8707C98.262 33.6854 98.1656 33.3222 98.0915 33.0554C97.921 32.4032 97.795 31.9807 97.6542 31.5286C97.5875 31.3137 97.5356 31.0691 97.5356 30.9728C97.5356 30.8764 97.4837 30.6985 97.4245 30.58C97.3652 30.4688 97.3133 30.2983 97.3133 30.2094C97.3133 30.0463 97.1428 29.483 96.9724 29.068C96.9131 28.9346 96.8686 28.7641 96.8686 28.6974C96.8686 28.6233 96.8389 28.5344 96.8093 28.4973C96.7722 28.4528 96.6685 28.186 96.5721 27.9044C96.4832 27.6153 96.3646 27.2818 96.3201 27.1632C96.1645 26.7927 96.0459 26.4369 95.9792 26.1701C95.9422 26.0367 95.8829 25.8885 95.8384 25.844C95.7939 25.7995 95.7569 25.6958 95.7569 25.6068C95.7569 25.5253 95.705 25.3622 95.6457 25.2437C95.5864 25.1325 95.5345 25.0065 95.5345 24.9694C95.5345 24.9027 95.3122 24.4062 94.8601 23.4427C94.7415 23.1832 94.6451 22.9609 94.6451 22.9387C94.6451 22.9164 94.5488 22.6941 94.4302 22.4421C94.319 22.1827 94.1115 21.7084 93.9707 21.3822C93.8373 21.0561 93.652 20.6559 93.5631 20.4929C93.4815 20.3298 93.2147 19.8258 92.9775 19.3811C92.7404 18.929 92.5254 18.5288 92.4958 18.4918C92.4661 18.4473 92.3105 18.1805 92.1549 17.8988C91.7546 17.1503 91.6583 16.9946 90.5836 15.3048C89.9018 14.2227 88.3379 12.066 88.1008 11.8659C88.0266 11.814 87.9748 11.725 87.9748 11.6806C87.9748 11.599 87.3522 10.8357 86.4628 9.82027C85.0694 8.22679 83.4167 6.54438 82.6088 5.89216C82.4013 5.72911 82.1345 5.49935 82.0159 5.38818C81.7046 5.09913 80.956 4.52103 80.8968 4.52103C80.8671 4.52103 80.6596 4.38021 80.4298 4.20234C79.9703 3.86882 79.9481 3.84658 79.2292 3.41671C78.3694 2.90532 77.2429 2.29757 77.1391 2.29757C77.1095 2.29757 76.7982 2.16417 76.4424 2.00111C75.768 1.68242 75.3307 1.51195 74.9675 1.4156C74.849 1.38596 74.4858 1.26737 74.1745 1.16361C73.8632 1.05244 73.5519 0.963499 73.4852 0.963499C73.4111 0.963499 73.2036 0.91903 73.0109 0.859738C71.6842 0.444692 69.3051 0.14082 67.4078 0.14082C66.2368 0.133408 64.0207 0.326108 63.6798 0.452104C63.5834 0.489162 63.3685 0.518808 63.198 0.518808C63.0276 0.526219 62.7533 0.570688 62.5903 0.629981C62.4272 0.689273 62.2049 0.741154 62.1011 0.741154C61.99 0.741154 61.7824 0.793034 61.6416 0.852326C61.4934 0.911619 61.2859 0.963499 61.1895 0.963499C61.0857 0.963499 60.893 1.00797 60.7596 1.06726C60.4558 1.19326 60.0704 1.32666 59.7739 1.40819C59.181 1.57866 56.9353 2.55698 56.4017 2.8905C56.3424 2.92755 55.9273 3.17213 55.4752 3.44636C53.7632 4.46915 52.6218 5.35853 50.9764 6.95942L50.0278 7.88586L49.8647 7.74505C49.7684 7.66352 49.294 7.21142 48.8049 6.73708C47.1595 5.1436 45.4771 3.85399 43.9132 2.99426C42.3716 2.14934 41.0598 1.57866 39.7998 1.18585C39.37 1.05244 38.8956 0.896796 38.74 0.844915C38.5918 0.785623 38.362 0.741154 38.236 0.741154C38.11 0.741154 37.947 0.704096 37.8654 0.659627C37.6653 0.555865 36.8352 0.400223 35.427 0.192701C34.4932 0.0592931 32.2549 -0.00741058 30.9801 0.0741162Z" fill="black"/>
<path d="M65.8143 34.4636C65.7106 34.4933 65.4438 34.5303 65.2214 34.5303C64.9991 34.5377 64.6656 34.5748 64.4803 34.6119C64.295 34.6563 63.9985 34.7156 63.8132 34.7527C62.998 34.9083 61.3304 35.4049 61.108 35.5531C61.0265 35.605 60.9227 35.6495 60.8634 35.6495C60.7449 35.6495 59.2403 36.3758 58.7363 36.6871C58.5362 36.8057 58.3139 36.9317 58.2546 36.9613C58.1212 37.0206 57.6098 37.3764 56.8464 37.9396C56.0682 38.5103 54.6081 39.9259 54.0078 40.6893C53.8596 40.8746 53.6446 41.1414 53.526 41.2822C53.3037 41.549 52.6218 42.5718 52.6218 42.646C52.6218 42.6682 52.4736 42.9202 52.2883 43.2018C52.103 43.4835 51.9548 43.7354 51.9548 43.7577C51.9548 43.7725 51.8214 44.069 51.6657 44.4173C51.347 45.0769 51.1543 45.5809 51.0876 45.8774C51.0654 45.9811 51.0209 46.0923 50.9913 46.1368C50.9172 46.2331 50.7319 46.8853 50.554 47.6561C50.1167 49.5387 49.9907 51.1396 50.139 52.9183C50.2427 54.1561 50.428 55.3715 50.554 55.6013C50.5911 55.668 50.6207 55.7866 50.6207 55.8681C50.6207 56.0238 50.806 56.676 50.932 56.9947C50.9765 57.0984 51.0358 57.2763 51.0728 57.4023C51.1914 57.8618 51.3841 58.3213 51.814 59.1811C52.2809 60.1149 52.3105 60.1742 52.6441 60.6856C52.7552 60.8635 52.8442 61.0191 52.8442 61.0414C52.8442 61.0636 52.985 61.2711 53.1629 61.5009C53.3333 61.738 53.5631 62.0567 53.6817 62.2198C53.7929 62.3828 54.1041 62.746 54.3635 63.0351C54.6304 63.3167 54.8453 63.5761 54.8453 63.6057C54.8453 63.6724 56.3795 65.0213 56.9872 65.4883C57.8766 66.1627 60.1445 67.4523 60.8264 67.6673C60.9376 67.7043 61.2192 67.8007 61.4415 67.8896C61.6639 67.9785 62.0863 68.112 62.368 68.1935C62.657 68.275 62.9906 68.3714 63.1091 68.4084C63.2351 68.4455 63.5983 68.527 63.9244 68.5937C66.2664 69.0458 68.1638 69.068 70.4465 68.6604C71.2025 68.527 72.4921 68.1935 72.9294 68.023C73.0258 67.986 73.3074 67.8822 73.5594 67.8007C74.5599 67.4671 76.7538 66.2739 77.5987 65.5994C78.2805 65.0584 79.4219 64.0727 79.6665 63.8207C80.252 63.1907 80.9413 62.3903 81.1191 62.1309C81.2229 61.9752 81.4378 61.6639 81.6009 61.4416C81.9641 60.945 82.5347 59.9889 82.8016 59.4405C83.2759 58.4547 83.7502 57.3134 83.7502 57.1651C83.7502 57.1132 83.7947 56.965 83.854 56.8316C84.0245 56.424 84.3283 55.1047 84.4173 54.3636C84.4543 54.0745 84.521 53.6076 84.5581 53.326C84.6544 52.6812 84.6544 50.5837 84.5581 49.9908C84.5136 49.7462 84.4617 49.2793 84.4321 48.9532C84.4025 48.6271 84.3506 48.3232 84.3209 48.2713C84.2913 48.2268 84.2394 48.0415 84.2023 47.8637C83.9281 46.5666 83.602 45.5883 83.061 44.4692C82.8757 44.0838 82.683 43.6836 82.6459 43.5798C82.6015 43.476 82.4977 43.2908 82.4162 43.1722C82.3346 43.0462 82.2383 42.8831 82.1938 42.8016C81.4897 41.4379 79.3626 39.0736 77.7469 37.8655C77.0206 37.3171 75.4567 36.3165 75.3307 36.3165C75.3085 36.3165 74.9824 36.1683 74.6118 35.9904C73.7299 35.5679 72.9961 35.2863 72.3365 35.1084C70.9505 34.7379 70.3724 34.6119 69.5572 34.5229C68.7345 34.4266 66.0367 34.3821 65.8143 34.4636ZM69.4831 37.4134C69.7721 37.4505 70.1501 37.5246 70.3354 37.5691C70.5207 37.6209 70.8542 37.7099 71.0765 37.7692C71.4545 37.8729 71.9363 38.0286 72.6626 38.2954C73.1962 38.4881 74.219 38.9921 74.7823 39.3404C76.272 40.2594 78.0211 41.8381 78.8216 42.9869C78.9772 43.2092 79.1996 43.5131 79.3107 43.6613C79.4293 43.8096 79.5257 43.9578 79.5257 43.9874C79.5257 44.0171 79.622 44.1801 79.7332 44.3506C80.1556 44.9732 80.7337 46.2776 81.0599 47.3226C81.4378 48.5307 81.5268 48.879 81.5268 49.1459C81.5268 49.2867 81.5787 49.598 81.638 49.8425C81.7639 50.3762 81.7862 52.8813 81.6676 53.3111C81.6231 53.4668 81.5638 53.8225 81.5268 54.0893C81.4082 55.0825 80.9042 56.6908 80.4076 57.6839C80.2891 57.9137 80.1927 58.1435 80.1927 58.1879C80.1927 58.3584 79.0884 60.0186 78.4288 60.8487C77.9248 61.4786 76.8205 62.5311 76.0571 63.1018C75.3604 63.6206 74.2561 64.3321 74.1375 64.3321C74.1078 64.3321 74.0337 64.3765 73.9744 64.4284C73.9077 64.4877 73.4705 64.6878 73.0035 64.8805C72.5366 65.0732 72.04 65.2807 71.9066 65.34C71.7732 65.3993 71.6102 65.4438 71.5509 65.4438C71.4916 65.4438 71.2841 65.4883 71.0914 65.5476C70.202 65.807 68.4825 66.0367 67.3782 66.0367C65.7995 66.0367 63.8799 65.7106 62.5162 65.1992C60.1519 64.3247 57.9878 62.8201 56.4017 60.9598C56.0682 60.567 55.29 59.522 55.29 59.4701C55.29 59.4405 55.2381 59.3589 55.1788 59.2922C55.0083 59.1069 53.9559 57.0095 53.9559 56.8613C53.9559 56.7871 53.904 56.6611 53.8447 56.5796C53.7854 56.5055 53.7336 56.3795 53.7336 56.3128C53.7336 56.2387 53.6891 56.0756 53.6298 55.9422C53.5705 55.8088 53.4742 55.4457 53.4075 55.1418C53.0591 53.5187 53.0443 53.3482 53.0443 51.6584C53.0443 50.0278 53.1036 49.4275 53.3704 48.3602C53.4149 48.1972 53.4742 47.9304 53.5112 47.7673C53.6446 47.0929 54.4006 45.2919 54.8453 44.5804C54.9268 44.4544 55.038 44.2543 55.1047 44.1357C55.3789 43.602 56.4832 42.2309 57.254 41.4675C58.5585 40.1779 60.0408 39.1625 61.6639 38.4584C62.7608 37.9841 63.3241 37.7988 64.1245 37.6506C64.3172 37.6135 64.5396 37.5542 64.6211 37.5098C64.7026 37.4653 64.9917 37.4282 65.2733 37.4208C65.5475 37.4208 65.844 37.3912 65.9255 37.3541C66.1034 37.2726 68.7641 37.3171 69.4831 37.4134Z" fill="black"/>
</g>
<defs>
<clipPath id="clip0_137_95">
<rect width="100" height="80.1556" fill="white"/>
</clipPath>
</defs>
</svg>
