<svg width="151" height="180" viewBox="0 0 151 180" fill="none" xmlns="http://www.w3.org/2000/svg">
<g clip-path="url(#clip0_84_42)">
<path d="M71.6078 0.872373C71.7139 1.04482 71.1966 1.12441 69.4323 1.21726C68.5966 1.27032 67.5487 1.36318 67.111 1.44277C66.0232 1.62848 63.8743 1.93358 62.6406 2.07949C62.0702 2.14582 61.4202 2.25194 61.1815 2.31826C60.6243 2.49071 59.5631 2.74275 58.8866 2.88866C58.5948 2.94172 58.0907 3.04784 57.7591 3.12743C57.4275 3.22029 56.7509 3.3662 56.2336 3.48559C55.1061 3.72436 54.1775 3.98966 52.7847 4.4672C52.201 4.67945 51.1266 5.0376 50.397 5.26311C49.6674 5.50188 48.8715 5.76718 48.6327 5.8733C48.394 5.97942 48.1419 6.05901 48.0756 6.05901C47.943 6.05901 46.9746 6.48349 45.3563 7.2396C44.9185 7.45184 44.2287 7.75694 43.8308 7.91612C43.0747 8.22122 41.8278 8.77835 41.4033 9.00385C40.5676 9.42834 39.2676 10.1446 38.5911 10.5426C38.1533 10.7946 37.3442 11.2456 36.8003 11.5375C36.2564 11.816 35.5401 12.2405 35.2085 12.466C34.8769 12.6915 33.6034 13.5538 32.3565 14.3895C30.3535 15.7425 28.5096 17.1751 26.1883 19.1914C25.7903 19.5363 25.1668 20.0669 24.7954 20.3587C24.0924 20.9159 20.3914 24.6434 19.768 25.426C19.5557 25.678 19.0384 26.275 18.6139 26.7525C17.6986 27.7739 16.9558 28.7157 16.014 29.9892C15.6293 30.5065 15.2048 31.0769 15.0721 31.2626C14.7007 31.7402 12.5252 34.9768 12.5252 35.0432C12.5252 35.0697 12.3528 35.3483 12.1406 35.6666C11.8089 36.1707 11.4375 36.8207 10.6814 38.2268C10.562 38.439 10.4028 38.7176 10.3232 38.8237C10.0447 39.1951 8.62532 42.1134 7.6835 44.2624C7.40493 44.8858 7.04677 45.6817 6.88759 46.0532C6.71515 46.4113 6.55597 46.8358 6.51617 46.9817C6.43658 47.247 6.2774 47.7113 5.76006 49.0378C5.60088 49.4358 5.4417 49.8868 5.40191 50.0327C5.36211 50.1786 5.25599 50.4837 5.14987 50.7225C5.04375 50.948 4.96416 51.2 4.96416 51.2929C4.96416 51.3725 4.79171 51.9694 4.57947 52.5928C4.14173 53.9193 3.87643 54.8479 3.57133 56.0683C3.45194 56.5458 3.2795 57.2091 3.17338 57.5407C3.06726 57.8856 2.9744 58.2968 2.9744 58.4693C2.9744 58.6284 2.89481 59.106 2.78869 59.5039C2.39074 61.0559 2.16523 62.3029 1.59484 66.0171C1.0775 69.3333 0.719342 73.6578 0.626486 77.624C0.546896 80.8872 0.878522 89.5493 1.18362 92.4145C1.28974 93.3962 1.43565 94.8553 1.50198 95.6645C1.75402 98.2644 1.92646 99.6307 2.04585 100.029C2.12544 100.241 2.1785 100.652 2.1785 100.957C2.1785 101.262 2.24482 101.713 2.32441 101.965C2.404 102.217 2.52339 102.907 2.57645 103.491C2.62951 104.075 2.7489 104.937 2.82849 105.414C3.12032 106.966 3.39888 108.386 3.57133 109.195C3.94275 110.88 4.15499 111.888 4.36723 112.843C4.63253 114.076 5.12334 115.987 5.56109 117.486C5.66721 117.817 5.83965 118.467 5.95904 118.945C6.07843 119.422 6.26414 120.072 6.37026 120.404C6.47638 120.735 6.55597 121.094 6.55597 121.213C6.55597 121.332 6.72841 121.876 6.92739 122.407C7.43146 123.707 7.61717 124.237 7.74982 124.715C7.93553 125.391 8.55899 127.209 8.75797 127.673C8.86409 127.912 8.94368 128.19 8.94368 128.297C8.94368 128.403 9.02327 128.681 9.12939 128.92C9.35489 129.451 10.4294 132.064 10.9467 133.364C11.9283 135.818 12.2334 136.521 13.1354 138.405C13.6793 139.519 14.1171 140.461 14.1171 140.5C14.1171 140.607 15.3507 143.074 15.9078 144.082C16.1466 144.52 16.7037 145.554 17.1282 146.377C17.9772 148.022 18.017 148.088 18.5343 148.884C18.7333 149.202 18.8925 149.481 18.8925 149.521C18.8925 149.56 19.0517 149.839 19.2506 150.157C19.768 150.953 19.9271 151.205 20.0731 151.51C20.2588 151.882 21.3332 153.593 22.2618 154.986C22.6863 155.623 23.3097 156.564 23.6546 157.082C23.9863 157.586 24.3046 158.063 24.3577 158.143C24.4107 158.209 24.9811 158.992 25.6179 159.867C27.8597 162.971 28.9607 164.377 31.4943 167.389C32.4096 168.476 33.3779 169.644 33.6697 169.989C34.5054 171.01 40.3421 176.94 41.0186 177.457C43.5655 179.407 47.6511 180.375 50.5296 179.699C53.2092 179.062 55.3051 177.948 57.003 176.21C58.2499 174.936 59.5366 172.854 59.8284 171.673C59.8815 171.448 59.9744 171.209 60.0274 171.129C60.2264 170.877 60.4652 168.967 60.4652 167.694C60.4652 166.513 60.2662 164.775 60.0274 163.993C59.8682 163.475 59.6162 162.202 59.4968 161.327C59.4438 160.955 59.3244 160.425 59.2448 160.133C59.1652 159.841 59.006 158.766 58.8866 157.745C58.7672 156.724 58.6081 155.53 58.5417 155.092C58.4621 154.654 58.3693 152.731 58.3295 150.807C58.2499 147.213 58.3958 145.13 58.8999 142.755C59.006 142.238 59.0856 141.734 59.0856 141.628C59.0856 141.416 59.7886 139.108 60.1203 138.245C60.6111 136.945 61.858 134.544 62.6672 133.337C63.0784 132.727 64.0467 131.586 64.9222 130.684C66.063 129.504 67.2967 128.562 69.114 127.474C71.4619 126.081 71.8996 125.537 71.7803 124.171C71.6741 122.725 70.7456 121.863 69.313 121.863C68.4905 121.863 67.9334 122.062 66.9518 122.699C66.6334 122.898 66.3548 123.057 66.3151 123.057C66.2089 123.057 64.9222 123.919 64.4447 124.304C64.2059 124.489 63.9671 124.649 63.9008 124.649C63.6886 124.649 61.1682 126.957 60.2795 127.978C59.8019 128.522 59.3774 128.986 59.3376 129.026C59.1652 129.172 57.4938 131.613 57.4938 131.719C57.4938 131.772 57.3213 132.051 57.1091 132.369C56.6714 133.032 55.504 135.42 55.504 135.685C55.504 135.778 55.4112 135.977 55.3051 136.11C55.1989 136.256 55.1061 136.481 55.1061 136.614C55.1061 136.733 55.0265 137.038 54.9204 137.277C54.8143 137.516 54.6285 138.073 54.5092 138.511C54.3898 138.948 54.2306 139.479 54.1775 139.704C54.1112 139.917 53.9918 140.474 53.9255 140.938C53.8592 141.389 53.7663 141.814 53.7265 141.867C53.6867 141.933 53.5939 142.45 53.5275 143.034C53.448 143.604 53.3153 144.533 53.249 145.077C53.0235 146.735 53.0633 153.5 53.302 155.49C53.5408 157.374 53.8724 159.615 54.0581 160.663C54.1245 161.021 54.2439 161.698 54.3102 162.162C54.3898 162.627 54.5092 163.117 54.5755 163.25C54.6551 163.383 54.7081 163.661 54.7081 163.847C54.7081 164.046 54.7877 164.51 54.8938 164.882C55.2653 166.248 55.4244 167.813 55.252 168.463C55.1724 168.795 55.1061 169.193 55.1061 169.352C55.1061 169.511 54.8938 170.081 54.6418 170.625C53.3153 173.504 49.8266 175.215 46.7491 174.472C45.0777 174.074 44.6134 173.743 41.642 170.758C38.4319 167.535 36.8003 165.717 33.8687 162.122C32.6218 160.584 30.4331 157.718 30.4331 157.612C30.4331 157.573 30.0882 157.068 29.6637 156.511C29.0402 155.702 25.7903 150.927 25.3658 150.21C25.3128 150.118 24.5434 148.831 23.6679 147.345C22.1822 144.851 19.171 139.081 17.8711 136.256C17.566 135.592 17.0486 134.465 16.717 133.748C16.3854 133.032 16.1068 132.356 16.1068 132.263C16.1068 132.17 16.0272 131.931 15.9211 131.719C15.616 131.122 15.3109 130.392 15.3109 130.246C15.3109 130.167 15.2313 129.941 15.1252 129.729C14.714 128.947 13.9844 127.036 13.4538 125.378C13.1487 124.423 12.8171 123.455 12.711 123.216C12.6048 122.977 12.5252 122.699 12.5252 122.593C12.5252 122.486 12.4457 122.208 12.3395 121.969C12.0344 121.24 11.9018 120.815 11.2783 118.679C11.1589 118.281 10.9998 117.671 10.9202 117.326C10.8406 116.981 10.7212 116.663 10.6549 116.61C10.5885 116.57 10.5355 116.358 10.5355 116.146C10.5355 115.933 10.4426 115.536 10.3365 115.27C10.2304 115.018 10.1375 114.673 10.1375 114.527C10.1375 114.368 10.0579 114.01 9.95182 113.705C9.8457 113.413 9.65999 112.697 9.54061 112.113C9.22224 110.588 8.99674 109.526 8.59879 107.802C8.1743 105.892 7.88247 104.3 7.76309 103.08C7.71003 102.576 7.61717 102.085 7.56411 101.992C7.51105 101.912 7.4182 101.342 7.36514 100.745C7.29881 100.135 7.17943 99.2593 7.09984 98.7818C6.86106 97.3624 6.55597 94.5237 6.55597 93.8074C6.55597 93.436 6.46311 92.3084 6.35699 91.287C6.06516 88.5809 5.78659 79.826 5.90598 76.8944C6.03863 73.5384 6.25087 70.3017 6.34373 70.1425C6.38352 70.0762 6.47638 69.3333 6.5427 68.4976C6.62229 67.6619 6.74168 66.6273 6.808 66.2028C7.03351 64.9824 7.24575 63.762 7.35187 63.0324C7.40493 62.661 7.51105 62.0906 7.60391 61.7325C7.9488 60.2998 8.05492 59.8223 8.16104 59.3182C8.28042 58.7213 8.53246 57.7529 8.94368 56.3999C9.10286 55.8826 9.2753 55.2591 9.34163 55.0071C9.39469 54.755 9.52734 54.3306 9.60693 54.0785C9.93856 53.1632 10.0977 52.6724 10.3232 51.9561C10.562 51.2133 11.5967 48.4939 11.9283 47.7776C12.0212 47.5521 12.2865 46.9817 12.512 46.4776C12.7375 45.9868 12.9232 45.5491 12.9232 45.5093C12.9232 45.3899 14.5548 42.1665 14.8864 41.6094C15.0456 41.3573 15.2313 41.0257 15.2976 40.8798C15.364 40.7206 15.7354 40.0706 16.1333 39.4074C16.5313 38.7574 16.8894 38.1605 16.916 38.0941C16.9956 37.8952 19.2241 34.6054 19.8608 33.7565C21.6914 31.2892 24.3842 28.1188 25.8566 26.7127C26.1485 26.4341 26.8648 25.7444 27.4484 25.174C28.0321 24.6168 29.0137 23.7281 29.6372 23.2107C30.2606 22.6934 30.8841 22.1495 31.03 22.0169C31.1759 21.8842 31.6269 21.5128 32.0249 21.1812C32.4228 20.8496 32.834 20.5179 32.9136 20.4251C33.0728 20.2924 34.5585 19.2577 35.2881 18.7935C35.7126 18.5282 36.7207 17.8119 36.8003 17.7323C36.8401 17.6925 36.9727 17.5996 37.0921 17.5333C37.2115 17.4537 37.6227 17.1884 38.0207 16.9231C38.4054 16.6578 39.0554 16.2598 39.4533 16.0476C39.8513 15.8221 40.541 15.4507 40.9788 15.2119C41.4165 14.9731 41.841 14.7344 41.9206 14.668C42.1461 14.4823 45.4359 12.8242 45.5685 12.8242C45.6348 12.8242 46.0858 12.6385 46.5767 12.413C49.4552 11.0865 50.7419 10.5691 52.4531 10.0385C53.2224 9.79976 54.35 9.4416 54.9734 9.24263C56.3397 8.79161 57.2285 8.53958 58.6213 8.24775C59.205 8.1151 59.9478 7.92938 60.2662 7.83653C60.5978 7.73041 60.9958 7.65082 61.1682 7.65082C61.3539 7.65082 61.606 7.58449 61.7651 7.5049C61.9111 7.42531 62.4549 7.31919 62.9855 7.25287C64.1661 7.12022 65.9436 6.88144 66.9783 6.709C67.4161 6.62941 69.565 6.45696 71.7537 6.32431C75.4016 6.09881 76.0118 6.09881 79.1158 6.27125C80.9729 6.36411 83.1617 6.53655 83.9576 6.65594C84.7667 6.76206 85.9208 6.90798 86.5443 6.98757C88.4677 7.2396 89.1177 7.34572 89.5024 7.5049C89.7146 7.58449 90.0728 7.65082 90.3248 7.65082C90.5768 7.65082 90.935 7.71714 91.1207 7.78347C91.3197 7.86306 91.9299 8.00898 92.4737 8.12836C93.4554 8.32734 93.986 8.47325 96.5594 9.25589C97.289 9.46813 98.2175 9.7467 98.6155 9.86608C99.0134 9.9722 99.7563 10.2375 100.26 10.4497C100.764 10.662 101.282 10.8344 101.414 10.8344C101.547 10.8344 101.68 10.8875 101.719 10.9538C101.759 11.0069 102.078 11.1661 102.423 11.2987C105.049 12.2671 109.891 14.6282 112.265 16.0874C112.729 16.366 113.207 16.6711 113.326 16.7374C113.446 16.817 113.91 17.1221 114.374 17.4404C114.839 17.7455 115.237 17.9976 115.263 17.9976C115.369 17.9976 117.253 19.3241 117.916 19.8547C118.288 20.1465 119.176 20.8496 119.893 21.3934C121.365 22.5209 126.207 26.9647 126.976 27.9066C127.241 28.2515 128.09 29.2463 128.86 30.1218C131.446 33.0799 134.232 37.0462 135.89 40.0839C136.209 40.6676 136.567 41.3175 136.699 41.543C136.938 41.9675 138.145 44.3818 138.543 45.2573C139.087 46.4644 139.445 47.2868 139.658 47.8439C139.79 48.1756 139.976 48.6133 140.069 48.8388C140.44 49.6878 141.037 51.2663 141.263 52.0224C141.395 52.4602 141.581 53.0041 141.687 53.2428C141.78 53.4683 141.86 53.7204 141.86 53.8132C141.86 53.9061 141.952 54.251 142.059 54.5959C142.165 54.9275 142.35 55.5907 142.47 56.0683C142.589 56.5458 142.762 57.1693 142.854 57.4611C142.947 57.7529 143.12 58.4693 143.252 59.0529C143.372 59.6366 143.557 60.406 143.65 60.7774C143.916 61.7988 144.141 62.9529 144.247 63.8283C144.3 64.2661 144.406 64.9559 144.486 65.3538C144.685 66.3354 145.003 69.1476 145.242 72.0527C145.362 73.3659 145.521 74.6659 145.587 74.9445C145.905 76.1648 147.524 77.1465 148.585 76.775C150.071 76.2577 150.614 75.4883 150.614 73.8833C150.614 72.3843 150.137 67.8609 149.686 65.0885C149.606 64.611 149.487 63.8681 149.434 63.4304C149.381 62.9926 149.261 62.3294 149.182 61.9712C148.89 60.6315 148.718 59.8356 148.611 59.2519C148.426 58.204 148.147 56.9438 147.988 56.4662C147.908 56.2142 147.749 55.6173 147.617 55.1397C147.325 54.0122 146.662 51.8765 146.423 51.3194C146.317 51.0806 146.237 50.7888 146.237 50.6694C146.237 50.55 146.051 49.9664 145.826 49.3827C145.587 48.7858 145.335 48.096 145.242 47.8439C144.924 46.9817 144.088 44.992 143.571 43.891C143.279 43.2808 143.053 42.7502 143.053 42.6971C143.053 42.5777 141.475 39.4472 141.09 38.8237C140.944 38.5717 140.666 38.0941 140.493 37.7625C139.114 35.2289 136.328 30.9973 135.028 29.4718C134.71 29.1004 134.139 28.3841 133.755 27.8668C132.402 26.0893 128.595 22.0965 126.008 19.7618C125.013 18.8598 122.572 16.8833 121.524 16.1405C121.365 16.0343 121.086 15.7956 120.901 15.6231C120.622 15.3711 118.646 14.0446 117.823 13.5538C117.704 13.4742 117.014 13.0232 116.298 12.5456C115.581 12.0681 114.706 11.4977 114.335 11.2987C111.96 9.98547 111.217 9.58752 109.559 8.75182C108.538 8.24775 107.291 7.66408 106.787 7.46511C106.283 7.25287 105.765 7.04063 105.659 6.98757C105.129 6.709 102.423 5.63453 101.534 5.3427C98.4165 4.33455 96.3074 3.68457 95.4319 3.48559C94.888 3.35294 94.1319 3.16723 93.7605 3.06111C93.389 2.95499 92.938 2.8754 92.7391 2.8754C92.5533 2.8754 92.235 2.80907 92.0227 2.72948C91.8238 2.64989 91.386 2.53051 91.0544 2.47745C90.7228 2.41112 90.1922 2.305 89.8605 2.22541C89.5289 2.15908 88.5473 2.01317 87.6718 1.89378C86.7963 1.7744 85.4831 1.58869 84.7535 1.48257C84.0239 1.37645 82.8035 1.25706 82.0341 1.21726C80.3893 1.12441 80.0046 1.05808 80.1107 0.885638C80.1638 0.806048 78.625 0.752988 75.8659 0.752988C73.2659 0.752988 71.568 0.806048 71.6078 0.872373Z" fill="black"/>
<path d="M71.3557 12.2273C69.8302 12.3334 67.9996 12.5058 67.3098 12.612C66.6201 12.7181 65.4262 12.9038 64.6568 13.0232C63.8875 13.1426 62.9722 13.315 62.6007 13.4079C61.3406 13.7527 60.611 13.9252 59.8947 14.0446C59.51 14.1109 59.0722 14.217 58.9396 14.2834C58.8069 14.3629 58.5549 14.416 58.3692 14.416C58.1835 14.416 57.8386 14.4956 57.5998 14.6017C57.361 14.7078 56.8039 14.8935 56.3662 15.0129C55.9284 15.1456 55.3713 15.3313 55.1325 15.4241C54.8937 15.5303 54.6152 15.6099 54.5091 15.6099C54.4029 15.6099 54.1244 15.6894 53.8856 15.7956C53.6468 15.8884 52.9438 16.167 52.3203 16.4058C51.0071 16.9098 50.702 17.0292 49.4949 17.5864C49.0041 17.8119 48.5398 17.9976 48.4602 17.9976C48.3806 17.9976 48.1286 18.0904 47.9031 18.2098C47.6643 18.3292 47.3857 18.4751 47.2663 18.5414C46.7092 18.8067 44.1093 20.1863 43.698 20.4383C43.446 20.5975 42.995 20.8363 42.7032 20.9822C42.4113 21.1281 41.2705 21.8444 40.1828 22.5873C39.0818 23.3169 38.1134 23.9536 38.0339 23.9801C37.8747 24.0332 37.4502 24.3648 35.5666 25.9035C35.1155 26.2617 34.6247 26.6597 34.4656 26.7658C33.2054 27.628 30.1013 30.5994 27.9126 33.0534C26.7586 34.3534 23.429 38.6247 23.2566 39.0227C23.23 39.1023 22.8056 39.7523 22.328 40.4818C21.8505 41.2114 21.227 42.2196 20.9485 42.7369C20.6699 43.241 20.2985 43.9042 20.126 44.1961C19.9668 44.4879 19.7811 44.8195 19.7413 44.9256C19.7015 45.0318 19.4628 45.5093 19.224 45.9868C18.972 46.4644 18.6403 47.1409 18.4546 47.5123C18.0567 48.3215 17.0751 50.6959 16.5047 52.2214C15.6955 54.3969 15.4435 55.0999 15.3108 55.6438C15.2577 55.8826 15.1516 56.1479 15.072 56.2407C14.9261 56.4264 14.5149 58.0182 14.5149 58.4029C14.5149 58.5356 14.4353 58.9203 14.3292 59.2519C14.0772 60.0345 13.8384 61.0294 13.719 61.7723C13.6659 62.1039 13.467 63.0855 13.2813 63.961C12.5251 67.5426 12.1803 70.5935 11.968 75.5679C11.8752 77.6505 11.8221 80.3566 11.8486 81.6035C11.9282 86.4585 12.3925 93.6084 12.7772 96.1951C12.8568 96.6992 13.0027 97.84 13.1221 98.7154C13.2415 99.5909 13.3874 100.665 13.467 101.103C13.5333 101.541 13.6527 102.231 13.719 102.629C13.7853 103.027 13.8914 103.57 13.971 103.822C14.0506 104.075 14.117 104.459 14.117 104.685C14.117 105.056 14.3557 106.33 14.6741 107.669C14.7537 108.001 14.8598 108.505 14.9129 108.797C14.9659 109.089 15.0853 109.619 15.1782 109.991C15.5761 111.636 15.722 112.193 16.0404 113.44C16.2394 114.169 16.4516 115.005 16.5179 115.297C16.5975 115.575 16.7036 115.88 16.7567 115.96C16.823 116.026 16.9026 116.305 16.9424 116.557C16.9955 116.809 17.1149 117.313 17.2342 117.684C17.3404 118.043 17.5526 118.759 17.6985 119.276C17.8577 119.78 18.0301 120.377 18.0965 120.603C18.1495 120.815 18.3352 121.332 18.4944 121.73C19.0383 123.136 19.1709 123.521 19.2903 123.919C19.6352 125.126 20.776 128.084 21.4127 129.437C21.4658 129.543 21.7046 130.114 21.9433 130.698C22.6199 132.409 23.2964 133.855 24.928 137.118C26.5861 140.447 27.0902 141.402 27.6208 142.265C27.8463 142.649 28.0453 142.994 28.0453 143.021C28.0453 143.087 29.0136 144.772 29.385 145.342C29.4514 145.448 29.5442 145.634 29.5973 145.74C29.6503 145.846 29.9422 146.31 30.2605 146.775C30.5789 147.239 30.8309 147.637 30.8309 147.664C30.8309 147.69 31.0034 147.969 31.2156 148.287C31.4146 148.605 31.8789 149.308 32.2238 149.852C32.5819 150.396 33.2186 151.311 33.6431 151.869C34.0676 152.426 34.4125 152.916 34.4125 152.97C34.4125 153.169 38.8298 158.859 40.5807 160.902C42.9419 163.661 43.645 164.404 44.2286 164.815C44.7592 165.187 44.945 165.24 45.6878 165.24C46.7357 165.24 47.3459 164.882 47.8765 163.98C48.1949 163.449 48.2214 163.29 48.1684 162.428C48.0755 161.074 47.8367 159.018 47.7439 158.872C47.4918 158.475 47.2531 154.787 47.1867 150.781C47.1337 146.934 47.1602 146.032 47.399 144.016C47.5449 142.742 47.7173 141.522 47.7969 141.323C47.8765 141.111 47.9429 140.633 47.9429 140.248C47.9429 139.877 48.0092 139.492 48.0755 139.426C48.1551 139.346 48.2745 138.988 48.3275 138.63C48.4602 137.9 49.0837 135.805 49.3357 135.194C49.6143 134.558 49.9061 133.762 50.0122 133.404C50.1316 132.926 51.5775 129.968 51.9489 129.424C52.1213 129.172 52.3071 128.867 52.3601 128.761C52.7448 127.991 54.4825 125.484 54.8937 125.113C54.9733 125.033 55.358 124.596 55.756 124.118C57.4274 122.102 61.0355 119.144 63.3967 117.883C63.9803 117.565 64.6038 117.207 64.7895 117.088C64.9752 116.955 65.718 116.597 66.4476 116.292C67.1772 115.987 67.8272 115.681 67.9068 115.615C67.9731 115.549 68.119 115.496 68.2517 115.496C68.371 115.496 68.9414 115.337 69.5118 115.151C70.0822 114.965 70.9179 114.766 71.3557 114.7C71.7934 114.647 72.3904 114.527 72.6822 114.448C73.5312 114.222 78.1474 114.262 78.93 114.501C79.2882 114.607 79.7525 114.7 79.9647 114.7C80.5616 114.7 83.1218 115.456 84.2759 115.973C85.4166 116.477 87.5125 117.525 87.738 117.698C87.8442 117.777 88.2819 118.043 88.7196 118.281C90.1655 119.077 92.5665 120.987 94.3042 122.725C95.9491 124.357 98.1246 127.036 98.7746 128.23C99.2786 129.145 99.345 129.252 99.5174 129.464C99.7164 129.703 101.136 132.555 101.282 133.006C101.335 133.191 101.507 133.669 101.666 134.067C102.621 136.534 103.404 139.426 103.643 141.363C103.683 141.761 103.775 142.172 103.842 142.265C104.386 143.14 104.359 156.525 103.802 157.984C103.722 158.196 103.656 158.687 103.656 159.071C103.656 159.469 103.563 160.133 103.457 160.557C103.192 161.552 103.192 163.409 103.457 163.9C103.563 164.112 103.895 164.497 104.213 164.762C104.731 165.213 104.823 165.24 105.686 165.24C106.893 165.24 107.105 165.094 108.856 163.157C112.438 159.191 115.316 155.49 118.871 150.317C119.216 149.799 119.534 149.322 119.574 149.255C119.614 149.176 119.932 148.672 120.29 148.128C121.418 146.417 122.811 144.082 123.739 142.357C123.899 142.066 124.177 141.588 124.363 141.296C124.694 140.779 128.21 133.709 128.528 132.939C128.621 132.714 128.807 132.303 128.926 132.011C129.059 131.719 129.364 130.976 129.603 130.379C129.855 129.769 130.199 128.96 130.372 128.588C130.531 128.204 130.783 127.633 130.903 127.302C131.035 126.97 131.221 126.506 131.327 126.267C131.433 126.028 131.513 125.723 131.513 125.604C131.513 125.471 131.592 125.259 131.685 125.113C131.778 124.967 131.99 124.463 132.149 123.985C132.295 123.508 132.64 122.526 132.906 121.797C133.171 121.067 133.436 120.271 133.502 120.032C133.569 119.78 133.675 119.422 133.741 119.236C133.808 119.038 133.98 118.494 134.099 118.016C134.232 117.539 134.405 116.915 134.497 116.623C134.856 115.496 135.068 114.74 135.28 113.97C135.744 112.193 136.195 110.362 136.288 109.858C136.341 109.566 136.527 108.757 136.686 108.067C136.845 107.378 137.031 106.409 137.097 105.918C137.15 105.414 137.243 104.95 137.296 104.87C137.349 104.778 137.429 104.353 137.495 103.902C137.628 102.788 137.88 101.329 138.026 100.772C138.092 100.519 138.212 99.7369 138.278 99.0471C138.464 97.1634 138.663 95.6512 138.875 94.537C138.981 93.9798 139.074 93.0513 139.074 92.4676C139.074 91.8707 139.167 90.5044 139.286 89.4166C139.604 86.3922 139.604 74.4669 139.286 71.4558C139.021 68.9885 138.517 65.4202 138.198 63.8283C138.079 63.2447 137.946 62.462 137.88 62.0774C137.827 61.7059 137.708 61.2019 137.641 60.9498C137.562 60.7111 137.402 60.0345 137.27 59.4509C137.15 58.8672 136.965 58.1376 136.859 57.8193C136.766 57.5142 136.686 57.1428 136.686 56.9968C136.686 56.8509 136.607 56.5458 136.5 56.3071C136.394 56.0683 136.089 55.2061 135.824 54.4102C135.081 52.2214 134.603 50.8949 134.431 50.5102C134.245 50.099 134.086 49.7409 133.489 48.3082C133.237 47.7246 132.786 46.7695 132.481 46.1991C132.163 45.6154 131.911 45.0716 131.911 44.992C131.911 44.9124 131.858 44.793 131.791 44.7134C131.712 44.6471 131.513 44.3287 131.34 43.9971C130.531 42.4981 130.199 41.9543 129.006 40.1767C128.303 39.1288 127.666 38.1472 127.573 38.0013C127.493 37.8421 127.175 37.4176 126.87 37.0462C126.578 36.6748 125.928 35.8656 125.451 35.2554C123.421 32.6953 119.826 29.1004 116.722 26.5535C116.377 26.2617 115.979 25.9699 115.86 25.8903C115.741 25.824 115.263 25.4525 114.799 25.0944C114.029 24.4709 112.186 23.1709 112.079 23.1709C112.053 23.1709 111.456 22.7863 110.753 22.3087C109.559 21.4863 109.042 21.1812 107.171 20.173C106.269 19.6822 103.205 18.1567 101.998 17.5864C100.924 17.0823 98.1378 16.0078 97.8991 16.0078C97.7929 16.0078 97.6736 15.9547 97.6338 15.9017C97.5674 15.7956 95.2461 15.0262 93.7073 14.6017C93.3094 14.4956 92.6461 14.3099 92.2482 14.2038C91.8502 14.0844 91.3461 13.9517 91.1206 13.8854C90.9084 13.8191 90.4839 13.7262 90.1921 13.6864C89.9002 13.6334 89.2503 13.514 88.7329 13.3946C86.4646 12.917 85.987 12.8375 84.4218 12.6385C80.0178 12.0946 75.5342 11.9487 71.3557 12.2273ZM72.9873 28.4372C73.0138 37.0329 72.974 39.487 72.8546 39.487C72.7618 39.487 72.4832 39.2747 72.2179 39.0227C71.3689 38.2003 67.8537 35.733 66.368 34.9238C66.0364 34.7513 65.4925 34.4462 65.1742 34.2473C64.1528 33.6503 60.5314 31.9259 60.2926 31.9259C60.2263 31.9259 59.8283 31.7667 59.4039 31.581C57.8519 30.8912 54.204 29.7769 52.1213 29.3392C51.5377 29.2198 50.755 29.0341 50.3836 28.928C50.0122 28.8219 49.402 28.7423 49.0306 28.7423C48.6592 28.7423 48.1949 28.6759 47.9959 28.5963C47.598 28.4504 46.1388 28.278 43.6582 28.079C42.796 27.9994 42.0266 27.9066 41.947 27.8668C41.8277 27.7872 42.3185 27.1505 42.5174 27.1505C42.5705 27.1505 43.2338 26.7392 43.9899 26.2352C46.0857 24.8291 51.6703 21.9771 52.3203 21.9771C52.453 21.9771 52.6254 21.8975 52.705 21.7914C52.7846 21.6853 52.9968 21.5791 53.156 21.5393C53.3152 21.4995 53.7795 21.3404 54.1774 21.1812C54.5754 21.0353 55.5703 20.6904 56.3662 20.4383C57.1753 20.173 58.2763 19.8149 58.8202 19.6292C59.3641 19.4435 60.0804 19.2445 60.412 19.1782C60.7436 19.1251 61.314 19.0057 61.6722 18.9261C62.0436 18.8465 62.6936 18.6874 63.1313 18.5945C65.6517 18.0241 71.2894 17.3078 72.6822 17.3874C72.9475 17.4006 72.9475 17.5068 72.9873 28.4372ZM80.5882 17.467C82.4851 17.6527 84.9524 17.971 86.186 18.1965C89.8737 18.8996 89.4492 18.7935 92.8451 19.7618C94.0389 20.1067 95.2991 20.5179 95.5379 20.6373C96.0818 20.9159 96.7848 21.1812 96.9573 21.1812C97.1562 21.1812 97.3685 21.274 98.9205 21.9638C99.4113 22.1893 99.8623 22.375 99.9286 22.375C99.9949 22.375 100.539 22.6138 101.149 22.9189C101.746 23.2107 102.369 23.5158 102.515 23.5822C102.674 23.6485 103.152 23.9005 103.59 24.1526C104.028 24.3913 104.81 24.8158 105.314 25.0944C105.832 25.3597 106.773 25.9433 107.41 26.3678C108.06 26.8056 108.631 27.1505 108.684 27.1505C108.737 27.1505 108.922 27.2964 109.082 27.4688C109.294 27.6943 109.334 27.8137 109.227 27.88C109.135 27.9331 108.405 28.026 107.596 28.0923C105.513 28.2382 103.789 28.4504 103.338 28.6096C103.126 28.6892 102.661 28.7423 102.303 28.7423C101.945 28.7423 101.534 28.7953 101.401 28.8749C101.268 28.9412 100.778 29.0606 100.313 29.1402C99.1593 29.3127 97.5807 29.7106 95.4318 30.3606C92.54 31.2361 88.9849 32.7616 85.6819 34.5524C83.9708 35.4809 80.4157 37.9084 79.0096 39.1155C78.7709 39.3145 78.5188 39.487 78.4525 39.487C78.2403 39.487 78.28 17.6925 78.479 17.4935C78.678 17.2945 78.8372 17.2945 80.5882 17.467ZM44.0297 33.2656C44.547 33.332 45.5684 33.4381 46.298 33.5044C47.0408 33.5707 47.7173 33.6636 47.8102 33.7167C47.9031 33.7697 48.3408 33.8626 48.7918 33.9289C49.7867 34.0616 50.9806 34.3136 52.3867 34.7115C52.9703 34.8707 53.6336 35.0564 53.8591 35.1095C54.0978 35.1626 54.3499 35.2554 54.4427 35.3085C54.5356 35.3615 54.7876 35.4544 55.0264 35.5207C58.0774 36.3033 63.5426 39.0492 66.5405 41.3043C66.9517 41.6226 67.3364 41.8747 67.3762 41.8747C67.469 41.8747 68.2251 42.4451 68.9547 43.0685C70.122 44.0634 70.6792 44.5542 71.7934 45.6685L73.0138 46.8889V53.3357C73.0138 58.6682 72.9873 59.7825 72.8281 59.7825C72.7353 59.7825 72.3638 59.6366 72.0189 59.4509C71.674 59.2652 71.0241 58.9601 70.573 58.7611C70.122 58.5754 69.1404 58.1376 68.3976 57.7795C67.6415 57.4213 66.8588 57.0897 66.6731 57.0366C66.4874 56.9968 66.1823 56.8775 65.9966 56.7846C65.8109 56.6785 65.5589 56.5989 65.4527 56.5989C65.3333 56.5989 65.1874 56.5458 65.1211 56.4795C64.9885 56.3469 64.0997 56.002 63.3967 55.803C63.1844 55.7499 62.7865 55.6173 62.5344 55.5244C62.2824 55.4448 61.8579 55.2989 61.6059 55.2061C61.062 55.0071 60.0141 54.7152 58.8202 54.4102C58.3427 54.2908 57.6661 54.1051 57.2947 54.0122C55.9682 53.6408 54.8274 53.3887 51.856 52.8183C50.7816 52.6194 49.3357 52.4204 46.55 52.1286C44.1093 51.8765 34.9696 51.7439 34.0145 51.9429C33.6697 52.0224 32.6482 52.1153 31.7462 52.1551C30.8442 52.1949 29.6238 52.3143 29.0401 52.4204C28.4565 52.5265 27.382 52.699 26.6524 52.8183C24.3974 53.1898 22.6464 53.5347 22.275 53.6806C22.076 53.7602 21.8637 53.7867 21.7974 53.7336C21.6117 53.6275 21.6515 53.0439 21.8637 52.6459C21.9699 52.4469 22.2617 51.8367 22.5137 51.2929C23.1505 49.9266 24.4239 47.2205 24.7555 46.5838C24.9014 46.2919 25.2994 45.6022 25.6576 45.0583C26.0157 44.5144 26.6922 43.4267 27.1698 42.6573C27.9657 41.3441 28.483 40.6543 30.8575 37.6696C32.1309 36.0646 34.5186 33.5575 34.9962 33.332C35.341 33.1595 36.0839 33.1197 39.2542 33.133C41.3767 33.133 43.5256 33.1861 44.0297 33.2656ZM116.603 33.4912C117.226 33.9554 120.834 37.7094 121.113 38.1737C121.179 38.2931 121.391 38.5982 121.59 38.837C122.678 40.19 123.209 40.8931 124.124 42.2328C124.694 43.0553 125.146 43.7583 125.146 43.7848C125.146 43.8246 125.318 44.1032 125.53 44.4216C126.353 45.6552 128.687 50.2317 129.311 51.8235C129.443 52.1551 129.629 52.5928 129.735 52.7918C129.961 53.2428 129.974 53.6275 129.775 53.7602C129.695 53.8 129.324 53.7469 128.939 53.6408C127.997 53.3489 126.353 53.0173 125.902 53.0173C125.703 53.0173 125.159 52.9377 124.708 52.8316C123.328 52.5132 121.975 52.3275 120.224 52.2214C119.309 52.1684 118.155 52.049 117.637 51.9561C116.351 51.7306 107.437 51.85 104.85 52.1286C99.4511 52.7122 94.344 53.7469 90.3247 55.0601C89.7411 55.2591 88.9319 55.5112 88.5339 55.6173C88.136 55.7367 87.6319 55.9091 87.4064 56.002C86.8227 56.2407 86.0534 56.5458 85.2177 56.8509C84.8197 56.9968 84.1697 57.2621 83.7983 57.4479C83.4136 57.6336 83.0555 57.7927 83.0024 57.7927C82.8963 57.7927 82.3789 58.0315 80.0045 59.1856C79.3015 59.5305 78.6249 59.7692 78.5188 59.7294C78.3464 59.6631 78.3198 58.8142 78.3198 53.4551C78.3198 47.5919 78.3331 47.2205 78.5719 46.8491C78.8902 46.3583 80.1637 45.0318 81.0392 44.3022C81.4106 43.9971 81.9677 43.5063 82.2994 43.2012C82.631 42.8961 83.5728 42.193 84.382 41.6359C85.2044 41.0788 86.186 40.389 86.5707 40.1237C86.9554 39.8451 87.4595 39.5268 87.6717 39.4206C87.8972 39.3145 88.5472 38.9564 89.1309 38.638C90.2451 38.0145 90.9482 37.6564 91.89 37.2452C92.1951 37.1125 92.6859 36.9003 92.9777 36.7676C93.694 36.436 94.6624 36.0778 95.6971 35.7595C96.1746 35.6003 96.7052 35.4146 96.8909 35.3483C97.0766 35.2687 97.4083 35.1626 97.6205 35.1095C97.846 35.0564 98.496 34.8707 99.0797 34.7115C100.804 34.2207 101.68 34.035 102.608 33.9289C103.086 33.8758 103.55 33.783 103.643 33.7299C103.736 33.6636 104.412 33.5575 105.155 33.4912C105.898 33.4248 106.866 33.3187 107.304 33.2656C107.742 33.1993 109.891 33.1463 112.093 33.133L116.085 33.1197L116.603 33.4912ZM46.2847 57.3019C50.5826 57.8458 51.1795 57.9387 52.9968 58.4029C53.3948 58.5091 53.8856 58.5886 54.0846 58.5886C54.2703 58.5886 54.6948 58.6682 54.9999 58.7611C55.3182 58.8672 56.0478 59.0529 56.6315 59.1856C57.7325 59.4243 58.7804 59.7162 59.3508 59.9549C59.5365 60.0213 59.8681 60.1274 60.0804 60.1805C60.5049 60.2998 62.2559 60.91 63.463 61.3743C63.8609 61.5335 64.3783 61.7192 64.617 61.7855C64.8558 61.8519 65.0813 61.9712 65.1211 62.0376C65.1742 62.1172 65.2936 62.1702 65.3864 62.1702C65.5589 62.1702 66.5537 62.6212 69.5649 64.0804C69.9629 64.2661 70.8914 64.7436 71.621 65.1416L72.9475 65.8446L72.9873 66.7599L73.0271 67.6752L71.7271 68.1793C69.9496 68.8691 68.1323 70.1292 66.8588 71.5221C65.8374 72.6496 64.2589 74.8383 64.2589 75.1302C64.2589 75.3424 64.6303 75.3291 59.7488 75.3026C57.3478 75.3026 55.2784 75.3424 54.8805 75.422C54.4958 75.5016 53.4479 75.5945 52.5591 75.6342C51.6571 75.6873 50.45 75.7934 49.8663 75.8995C47.0806 76.3638 46.0327 76.5495 44.5603 76.8414C43.6848 77.0271 42.6899 77.2261 42.345 77.2924C42.0001 77.3587 41.6022 77.4648 41.4562 77.5444C41.3103 77.624 41.0318 77.6903 40.846 77.6903C40.6603 77.6903 40.3818 77.7567 40.2359 77.823C40.1032 77.9026 39.7318 78.022 39.4267 78.0883C39.1083 78.1546 38.5379 78.3005 38.1665 78.4199C37.7818 78.5393 37.1849 78.7117 36.84 78.8179C36.4818 78.9107 35.8717 79.123 35.4737 79.2821C35.0757 79.4281 34.386 79.6801 33.9482 79.826C33.086 80.1046 31.2421 80.8474 29.9024 81.4311C28.4432 82.0678 24.4637 84.0178 23.7341 84.4422C23.5219 84.5749 22.8586 84.9331 22.275 85.2514C21.6913 85.5698 21.0413 85.9412 20.8158 86.1004C20.6036 86.2596 20.2056 86.4851 19.9536 86.631C19.7015 86.7636 19.2373 87.0422 18.9189 87.2544C18.6005 87.4667 18.2954 87.6391 18.2424 87.6391C18.1761 87.6391 18.0567 87.732 17.9638 87.8381C17.871 87.9442 17.6853 88.0371 17.5659 88.0371C17.3669 88.0371 17.3138 87.8779 17.2475 87.0687C17.1281 85.5963 16.9557 79.6005 16.9955 78.4862C17.1547 74.069 17.4863 70.2088 17.8975 67.9272C18.0036 67.3303 18.0965 66.6936 18.0965 66.4946C18.0965 66.0436 18.4546 64.1334 18.6934 63.2845C18.7995 62.9131 18.8924 62.409 18.8924 62.1569C18.9056 61.9049 18.9852 61.56 19.0913 61.3743C19.1975 61.1886 19.2771 60.8702 19.2903 60.6713C19.2903 59.9019 19.5158 59.7692 21.7444 59.1856C23.6811 58.655 24.5698 58.4693 27.382 57.9917C28.0718 57.8723 29.0269 57.6999 29.5044 57.5938C29.982 57.5009 31.0564 57.3815 31.8921 57.3417C32.7411 57.2887 33.6033 57.1958 33.8156 57.1295C34.5053 56.9305 44.3215 57.0632 46.2847 57.3019ZM118.977 57.2489C120.609 57.3948 121.789 57.5672 124.084 57.9917C124.628 58.0846 125.623 58.2703 126.273 58.3897C126.936 58.5091 127.772 58.6815 128.13 58.7876C129.032 59.0397 129.868 59.2519 130.584 59.3978C131.858 59.6631 132.149 59.9284 132.322 60.9764C132.375 61.308 132.481 61.8121 132.561 62.1039C133.449 65.5926 134.206 72.0394 134.351 77.425C134.458 80.9137 134.259 87.732 134.06 87.931C133.9 88.0901 133.781 88.0503 133.171 87.6391C132.959 87.4932 132.68 87.334 132.574 87.281C132.468 87.2412 131.99 86.9493 131.513 86.6575C130.531 86.0341 130.226 85.8483 129.855 85.6494C129.709 85.5698 129.231 85.3045 128.793 85.0524C128.024 84.6014 122.439 81.8025 121.63 81.4576C120.569 81.0199 118.447 80.1842 116.457 79.4546C115.077 78.9372 114.918 78.8842 112.676 78.2607C112.278 78.1413 111.801 77.9954 111.615 77.9291C111.429 77.8495 111.018 77.7434 110.687 77.6903C110.355 77.624 109.519 77.4383 108.829 77.2526C108.14 77.0801 106.972 76.8281 106.243 76.7087C105.513 76.5761 104.465 76.4036 103.921 76.2975C100.088 75.5945 97.2093 75.3689 91.7839 75.3557H87.4197L86.8493 74.5598C86.5309 74.1353 86.2391 73.6843 86.186 73.5782C86.0136 73.1935 85.1911 72.1721 84.2891 71.2435C83.0953 70.0099 81.4106 68.8823 79.7259 68.2058L78.3862 67.6619L78.3464 67.0783C78.28 66.163 78.3862 65.9508 79.2219 65.4599C80.5218 64.6906 86.0136 62.0508 86.9289 61.7723C87.1146 61.7059 87.6054 61.5335 88.0033 61.3743C89.1707 60.9366 90.9482 60.2998 91.3859 60.1805C91.7839 60.0743 92.1686 59.9417 93.0441 59.6499C93.2961 59.557 93.7869 59.4376 94.1318 59.3845C94.4767 59.3182 94.8746 59.2121 95.0206 59.1325C95.1665 59.0529 95.445 58.9866 95.6307 58.9866C95.8165 58.9866 96.095 58.9203 96.2542 58.8407C96.4001 58.7611 96.8511 58.6417 97.2756 58.5886C97.6868 58.5223 98.6154 58.3366 99.345 58.1907C101.149 57.806 102.82 57.554 105.155 57.3417C106.243 57.2356 107.158 57.1162 107.211 57.0764C107.344 56.9305 117.16 57.0764 118.977 57.2489ZM77.0199 72.7955C77.6964 72.9414 77.8821 73.021 78.8902 73.5384C79.5004 73.8567 79.5933 73.9363 80.6545 74.9843C81.5035 75.8332 82.9626 77.9822 82.9626 78.3801C82.9626 78.4464 83.0422 78.6719 83.1483 78.8577C83.4136 79.3883 83.6391 80.078 83.7718 80.7413C83.8248 81.0729 83.9442 81.5505 84.0238 81.8025C84.2228 82.426 84.2095 86.9095 84.0106 87.5065C83.931 87.7585 83.8116 88.2361 83.7585 88.5677C83.6524 89.2177 83.4269 89.8942 83.1483 90.4513C83.0422 90.637 82.9626 90.8625 82.9626 90.9421C82.9626 91.4993 80.1637 95.2002 79.7392 95.2002C79.6729 95.2002 79.3943 95.3727 79.1157 95.5982C78.8372 95.8104 78.5453 95.9961 78.4658 95.9961C78.3729 95.9961 78.1739 96.0757 78.0147 96.1818C77.4576 96.54 75.7597 96.7124 74.6985 96.5267C74.1679 96.4339 73.5975 96.2879 73.4118 96.1951C73.2261 96.1022 72.8546 95.9165 72.5761 95.7839C71.8465 95.4257 70.6261 94.2849 69.8302 93.2104C69.1935 92.3615 68.2384 90.6503 68.2384 90.385C68.2384 90.3187 68.1588 90.0799 68.0527 89.8544C67.6149 88.8197 67.1772 86.2463 67.1772 84.6545C67.1772 83.0627 67.6149 80.4893 68.0527 79.4546C68.1588 79.2291 68.2384 78.9903 68.2384 78.924C68.2384 78.7648 69.0476 77.1863 69.4853 76.4965C70.122 75.5016 71.9393 73.8037 72.8148 73.3792C74.2607 72.6894 75.6138 72.5037 77.0199 72.7955ZM62.2293 80.6882C62.2691 80.7944 62.2293 81.5372 62.1365 82.3066C62.0436 83.0892 61.964 84.23 61.9773 84.8535C62.0038 86.2463 62.3222 88.833 62.5212 89.2044C62.6007 89.3503 62.6671 89.6156 62.6671 89.7881C62.6671 90.1462 62.9987 91.234 63.2773 91.8044C63.463 92.1625 63.4497 92.2156 63.2242 92.4543C63.0783 92.6003 62.7334 92.7594 62.4548 92.8125C62.163 92.8656 61.7253 92.9982 61.4732 93.0911C60.5447 93.4227 57.9447 94.4176 57.5202 94.6165C57.2815 94.7094 57.0294 94.8023 56.9498 94.8023C56.8172 94.8023 55.0927 95.5982 53.6203 96.3277C52.8642 96.6992 51.0734 97.6808 50.5295 98.0124C50.3173 98.1451 50.0122 98.3042 49.8663 98.3838C49.7204 98.4634 49.4285 98.6359 49.203 98.7818C48.9908 98.9277 48.7122 99.0869 48.6061 99.1399C48.0357 99.4185 43.7378 102.43 43.1011 103C42.8889 103.199 42.3715 103.624 41.9736 103.942C39.2277 106.104 34.638 110.773 32.3564 113.705C30.7248 115.801 29.0269 118.228 28.0851 119.767C27.5147 120.709 26.9443 121.637 26.8249 121.836C26.6922 122.035 26.5463 122.287 26.4933 122.394C26.0157 123.322 25.3525 124.37 25.1933 124.436C24.9943 124.503 24.6892 123.959 24.4637 123.123C24.3974 122.898 24.2249 122.394 24.0657 121.996C23.9066 121.598 23.7209 121.08 23.6678 120.868C23.6015 120.643 23.3096 119.78 23.0178 118.945C22.726 118.109 22.4607 117.22 22.4076 116.981C22.3678 116.729 22.275 116.424 22.2219 116.305C22.1025 116.079 21.824 115.138 21.4923 113.904C21.3862 113.506 21.227 112.909 21.1342 112.577C21.0413 112.246 20.9352 111.768 20.8821 111.516C20.8158 111.264 20.6434 110.548 20.4842 109.924C20.1526 108.678 19.9005 107.563 19.6087 106.078C19.5026 105.534 19.3169 104.632 19.2107 104.088C19.0913 103.544 18.9587 102.735 18.8924 102.297C18.7863 101.408 18.5607 100.042 18.2822 98.4767C18.1761 97.9195 18.0965 97.1634 18.0965 96.8185C18.0965 96.4737 18.0301 95.8237 17.9638 95.3727C17.8046 94.3778 17.871 94.2186 18.8128 93.5951C19.1842 93.3564 19.8342 92.8921 20.2454 92.587C20.6566 92.2686 21.028 92.0166 21.0811 92.0166C21.1342 92.0166 21.5719 91.7646 22.0495 91.4462C22.5403 91.1278 23.0311 90.836 23.1372 90.7829C23.2433 90.7299 23.5219 90.5707 23.7341 90.4381C23.9596 90.2921 24.4106 90.0268 24.7555 89.8411C25.0872 89.6554 25.7504 89.2973 26.2147 89.032C28.1116 87.9708 31.9983 86.1402 34.1472 85.3045C35.0094 84.9728 38.4451 83.779 39.3206 83.5137C39.7981 83.3678 40.3685 83.1821 40.5807 83.1157C40.8063 83.0361 41.1909 82.93 41.443 82.8637C41.947 82.7576 42.8358 82.5321 43.897 82.2668C44.2684 82.1739 45.1572 82.0015 45.8868 81.8821C47.6245 81.5903 49.2296 81.2984 50.4632 81.0729C51.0071 80.9801 52.1744 80.8474 53.0499 80.8076C53.9254 80.7678 54.854 80.675 55.106 80.6086C55.358 80.5556 57.056 80.5025 58.86 80.4893C61.7385 80.476 62.1497 80.5025 62.2293 80.6882ZM97.6868 80.7148C99.5837 80.8739 101.162 81.0995 103.126 81.4709C103.669 81.5637 104.717 81.7494 105.447 81.8688C106.176 81.9882 107.078 82.1607 107.437 82.2668C107.808 82.3729 108.312 82.479 108.564 82.5188C108.816 82.5586 109.347 82.6913 109.718 82.7974C111.124 83.2219 111.695 83.381 112.345 83.58C112.716 83.6861 113.605 83.9912 114.334 84.2565C115.064 84.5218 115.86 84.7871 116.112 84.8535C116.351 84.9198 116.616 85.0259 116.696 85.1055C116.775 85.1851 116.948 85.2514 117.067 85.2514C117.2 85.2514 117.823 85.4902 118.447 85.782C119.07 86.0738 119.627 86.3126 119.68 86.3126C119.853 86.3126 124.681 88.7003 125.543 89.2044C125.795 89.3503 126.273 89.6289 126.605 89.8013C127.984 90.5574 130.876 92.335 131.513 92.8125C131.765 93.0115 132.043 93.1972 132.11 93.2237C132.189 93.2502 132.521 93.4757 132.879 93.7278C133.489 94.1788 133.502 94.2053 133.502 94.9216C133.502 95.7706 133.184 98.3838 132.906 99.843C132.799 100.4 132.707 101.037 132.707 101.262C132.707 101.501 132.614 102.032 132.508 102.456C132.401 102.867 132.309 103.451 132.309 103.73C132.309 104.008 132.242 104.353 132.176 104.486C132.096 104.618 131.99 105.083 131.924 105.507C131.752 106.621 131.141 109.301 130.571 111.384C130.491 111.715 130.332 112.339 130.226 112.776C129.934 114.063 129.828 114.474 129.682 114.899C129.603 115.111 129.443 115.628 129.324 116.026C129.218 116.424 128.873 117.472 128.581 118.348C128.289 119.223 127.997 120.112 127.931 120.337C127.825 120.735 127.653 121.24 127.321 122.128C127.228 122.38 127.056 122.924 126.936 123.322C126.804 123.72 126.658 124.145 126.605 124.251C126.459 124.543 126.087 124.569 125.981 124.29C125.941 124.158 125.331 123.123 124.655 121.996C123.978 120.868 123.341 119.82 123.262 119.674C122.612 118.6 122.028 117.738 120.967 116.292C120.304 115.376 119.574 114.381 119.362 114.09C119.15 113.785 118.54 113.042 118.009 112.432C117.465 111.821 116.722 110.959 116.351 110.535C115.329 109.367 111.27 105.388 110.421 104.738C110.023 104.419 109.546 104.021 109.36 103.849C109.068 103.57 108.365 103.04 105.049 100.599C104.611 100.281 103.722 99.6971 103.086 99.2991C102.449 98.9012 101.759 98.4767 101.56 98.3573C101.361 98.2379 100.937 97.9991 100.605 97.84C100.274 97.6675 99.5705 97.2828 99.0399 96.9645C98.496 96.6461 98.0317 96.3941 98.0052 96.3941C97.9521 96.3941 97.2491 96.0757 95.3654 95.2002C94.9277 95.0012 94.0655 94.6431 93.442 94.4176C92.8186 94.1788 92.089 93.9002 91.8237 93.7941C91.5451 93.688 91.0676 93.5155 90.7625 93.3962C90.4441 93.2768 89.9931 93.1043 89.7543 92.9982C89.5156 92.8921 89.1839 92.8125 89.0247 92.8125C88.6401 92.8125 88.136 92.4543 88.136 92.189C88.136 92.0829 88.2288 91.685 88.3482 91.3003C88.4676 90.9289 88.6401 90.3585 88.7462 90.0268C88.8523 89.6952 88.9319 89.2973 88.9319 89.1248C88.9319 88.9524 88.9982 88.7003 89.0645 88.5544C89.3166 88.0901 89.4625 84.7871 89.3298 82.7443C89.237 81.3382 89.237 80.7811 89.3564 80.6484C89.4758 80.5025 90.0859 80.476 92.6328 80.5158C94.3573 80.5291 96.6256 80.6219 97.6868 80.7148ZM67.1109 98.0257C67.92 98.8879 70.1618 100.519 70.7588 100.692C70.9445 100.745 71.2761 100.864 71.4883 100.971C71.7138 101.063 72.1383 101.249 72.4567 101.382L73.0138 101.607L72.9873 105.401L72.9475 109.195L72.4169 109.301C72.1251 109.354 71.5945 109.434 71.223 109.473C70.5996 109.526 70.1353 109.633 68.1721 110.15C65.6915 110.8 63.4497 111.782 60.611 113.453C60.3192 113.625 59.9875 113.811 59.8814 113.864C59.7753 113.904 59.1518 114.342 58.4886 114.832C57.8386 115.31 57.0162 115.907 56.6713 116.132C55.4376 116.968 52.5326 119.701 51.551 120.934C51.2857 121.266 50.7948 121.836 50.4632 122.208C49.4285 123.375 47.3327 126.652 46.5633 128.297C46.351 128.734 45.9929 129.504 45.7409 130.021C45.5021 130.525 45.0909 131.52 44.8256 132.21C44.5603 132.9 44.2684 133.669 44.1623 133.908C44.0562 134.146 43.9633 134.438 43.9633 134.571C43.9633 134.69 43.8837 135.062 43.7776 135.393C43.6715 135.725 43.4991 136.295 43.3797 136.667C43.2603 137.051 43.1674 137.529 43.1674 137.755C43.1674 137.967 43.0746 138.405 42.9685 138.71C42.8623 139.015 42.7695 139.479 42.7695 139.731C42.7695 139.983 42.7032 140.301 42.6368 140.447C42.5572 140.58 42.4644 141.097 42.4246 141.601C42.3848 142.092 42.2654 143.061 42.146 143.75C41.9868 144.705 41.9338 146.098 41.9338 149.494C41.9205 152.585 41.8807 153.951 41.7879 153.925C41.4695 153.832 37.4104 148.287 36.1237 146.231C35.7257 145.594 35.3145 144.931 35.2084 144.758C35.1023 144.586 34.7574 144.042 34.439 143.538C34.1207 143.034 33.6431 142.265 33.3646 141.827C33.086 141.389 32.7013 140.726 32.5023 140.368C32.2901 139.996 31.9187 139.346 31.6666 138.909C31.4146 138.471 31.1626 138.02 31.0962 137.914C31.0299 137.808 30.3136 136.375 29.4912 134.73C28.3902 132.555 27.9922 131.626 27.9922 131.281C28.0055 130.83 29.5707 127.474 30.632 125.644C30.884 125.206 31.136 124.755 31.1891 124.649C31.587 123.773 34.1737 119.86 35.3543 118.334C37.0788 116.093 36.9992 116.186 38.4053 114.567C40.143 112.564 43.4858 109.327 45.3031 107.908C45.5551 107.709 46.0857 107.298 46.4837 106.98C47.8367 105.918 48.8449 105.149 48.9245 105.149C48.9643 105.149 49.4285 104.857 49.9591 104.499C51.3122 103.597 52.4264 102.894 53.0499 102.562C53.3417 102.403 53.9652 102.045 54.4427 101.78C54.9203 101.514 55.9284 100.997 56.6978 100.639C57.4672 100.267 58.2498 99.8828 58.4488 99.7767C58.6345 99.6705 58.8865 99.5777 59.0059 99.5777C59.112 99.5777 59.4039 99.4981 59.6426 99.392C59.8814 99.2858 60.3457 99.1001 60.6773 98.9807C61.0089 98.8614 61.46 98.6757 61.6722 98.5828C61.8977 98.4767 62.6671 98.2114 63.3967 97.9859C64.1262 97.7471 64.9354 97.4818 65.1874 97.3889C66.0629 97.0573 66.2486 97.1236 67.1109 98.0257ZM86.1462 97.3757C86.4779 97.4818 87.1013 97.6675 87.5391 97.8002C87.9768 97.9195 88.4543 98.0655 88.6003 98.1318C88.7462 98.1848 89.1972 98.3706 89.5951 98.5165C89.9931 98.6757 90.4839 98.8879 90.6829 98.994C90.8686 99.1001 91.1206 99.1797 91.24 99.1797C91.4257 99.1797 91.7176 99.2858 92.8451 99.7767C94.5961 100.546 98.6552 102.642 99.0266 102.974C99.1327 103.08 99.2654 103.159 99.3184 103.159C99.3582 103.159 99.6501 103.332 99.9684 103.544C100.287 103.743 100.99 104.207 101.534 104.552C102.582 105.229 105.394 107.298 106.19 107.988C106.442 108.213 106.986 108.664 107.384 108.996C108.458 109.885 112.544 113.984 113.287 114.912C113.645 115.363 114.295 116.146 114.732 116.663C115.502 117.552 116.311 118.653 117.969 121.014C118.447 121.704 121.564 126.89 121.564 126.997C121.564 127.023 122.015 127.978 122.559 129.119C123.103 130.246 123.554 131.255 123.554 131.347C123.554 131.573 120.529 137.635 119.773 138.909C119.481 139.413 119.097 140.102 118.911 140.434C118.606 141.018 117.558 142.676 116.245 144.652C115.886 145.196 115.595 145.674 115.595 145.727C115.595 145.793 115.422 146.072 115.223 146.35C115.011 146.629 114.812 146.96 114.759 147.067C114.507 147.584 113.883 148.446 111.589 151.471C110.952 152.32 110.421 153.049 110.421 153.089C110.421 153.261 109.824 153.832 109.652 153.832C109.479 153.832 109.466 153.474 109.546 151.404C109.678 147.624 109.347 143.153 108.684 139.837C108.617 139.466 108.498 138.842 108.432 138.444C108.299 137.688 108.047 136.587 107.795 135.778C107.728 135.539 107.556 134.969 107.437 134.531C107.304 134.093 107.039 133.324 106.826 132.82C106.614 132.316 106.442 131.852 106.442 131.785C106.442 131.719 106.309 131.387 106.163 131.042C106.004 130.698 105.739 130.087 105.553 129.689C104.943 128.323 104.784 128.031 103.749 126.307C101.772 123.004 100.645 121.584 97.7001 118.706C95.5909 116.65 92.6992 114.474 90.3645 113.201C87.8972 111.848 86.0003 110.972 84.6871 110.574C84.2095 110.428 83.6524 110.243 83.4269 110.163C83.2146 110.097 82.7902 109.977 82.4983 109.924C82.2065 109.871 81.7555 109.752 81.5035 109.672C81.2514 109.593 80.8137 109.526 80.5484 109.526C80.0708 109.526 78.7178 109.221 78.4525 109.062C78.3729 109.009 78.3198 107.59 78.3198 105.348V101.713L78.7045 101.514C78.9168 101.395 79.4606 101.169 79.9249 100.997C81.3973 100.44 83.1085 99.2858 84.2891 98.0655C84.7534 97.5879 85.2309 97.19 85.3371 97.19C85.4564 97.19 85.8146 97.2696 86.1462 97.3757Z" fill="black"/>
<path d="M147.497 84.0576C147.205 84.0974 146.821 84.23 146.635 84.3627C146.184 84.6678 145.587 85.5963 145.521 86.1004C145.454 86.5116 145.176 89.8809 144.91 93.3431C144.738 95.7574 144.526 97.5614 144.38 98.1185C144.3 98.3706 144.247 98.9145 144.247 99.3124C144.247 99.7104 144.181 100.307 144.101 100.639C144.022 100.971 143.902 101.647 143.836 102.164C143.703 103.199 143.411 104.857 143.199 105.879C143.04 106.582 142.815 107.709 142.456 109.526C142.191 110.866 141.912 112.02 141.66 112.856C141.554 113.201 141.461 113.586 141.461 113.705C141.461 113.838 141.382 114.249 141.276 114.62C141.17 114.992 140.984 115.681 140.865 116.159C140.679 116.889 140.228 118.374 139.286 121.399C139.193 121.691 139.007 122.287 138.875 122.725C138.517 123.919 138.265 124.675 138.066 125.113C137.906 125.471 137.203 127.368 136.805 128.496C136.726 128.748 136.567 129.119 136.474 129.318C136.368 129.504 136.288 129.769 136.288 129.888C136.288 130.008 136.209 130.273 136.116 130.459C135.943 130.79 135.771 131.188 135.386 132.077C135.306 132.263 134.948 133.085 134.577 133.908C134.205 134.73 133.9 135.46 133.9 135.513C133.9 135.712 130.385 142.676 129.377 144.48C128.555 145.952 127.401 147.942 126.83 148.857C126.751 148.99 126.167 149.919 125.557 150.913C124.933 151.895 124.23 152.996 123.965 153.368C123.713 153.726 123.063 154.667 122.545 155.45C122.015 156.233 120.848 157.838 119.946 159.018C119.044 160.199 118.195 161.327 118.049 161.526C117.08 162.839 113.698 166.739 112.013 168.49C111.177 169.365 109.917 170.678 109.227 171.408C107.33 173.398 106.336 174.088 104.876 174.472C103.298 174.883 100.897 174.499 99.5439 173.623C98.5225 172.96 98.151 172.628 97.4745 171.726C96.5592 170.493 96.2143 169.577 96.1215 168.198C96.0684 167.137 96.1348 166.659 96.6919 164.179C96.798 163.701 96.8909 163.17 96.8909 162.971C96.8909 162.786 96.9439 162.587 97.0235 162.507C97.0898 162.441 97.2092 161.937 97.2756 161.393C97.3949 160.385 97.5939 159.125 97.8194 157.811C98.1113 156.127 98.3766 152.28 98.3633 149.826C98.3633 147.305 98.0582 143.432 97.8194 142.623C97.7531 142.397 97.647 141.867 97.5674 141.429C97.4082 140.408 97.196 139.426 97.0235 138.922C96.9439 138.696 96.6786 137.861 96.4133 137.078C96.1613 136.282 95.896 135.539 95.8429 135.42C94.5164 132.701 94.0787 131.891 93.3093 130.724C91.9828 128.708 89.5155 126.055 88.0033 125.007C87.6717 124.781 87.3798 124.569 87.34 124.529C87.1145 124.277 85.1115 123.017 83.7585 122.287C82.1136 121.399 80.482 121.611 79.6728 122.818C79.2085 123.521 79.182 124.768 79.6198 125.471C79.8851 125.909 80.6942 126.638 80.9065 126.638C80.9595 126.638 81.2646 126.811 81.583 127.036C81.9146 127.249 82.5115 127.62 82.936 127.846C83.3472 128.084 83.8911 128.442 84.1299 128.641C84.3687 128.854 84.6207 129.026 84.687 129.026C84.8329 129.026 88.1359 132.329 88.1359 132.475C88.1359 132.541 88.3084 132.793 88.5073 133.032C88.9849 133.589 89.9665 135.221 90.444 136.256C91.1604 137.794 91.293 138.126 91.5185 138.842C91.6512 139.24 91.8103 139.718 91.8899 139.903C91.9563 140.089 92.0624 140.474 92.1154 140.766C92.1685 141.058 92.2879 141.588 92.3675 141.96C92.7256 143.459 92.792 143.87 92.9909 146.231C93.296 149.826 93.044 154.853 92.3675 159.005C92.2879 159.483 92.1818 160.199 92.1154 160.624C92.0624 161.035 91.9828 161.433 91.9297 161.499C91.8899 161.579 91.7971 161.977 91.7308 162.414C91.6644 162.839 91.545 163.449 91.4655 163.781C90.9481 166.168 90.8818 166.699 90.9614 168.317C91.0808 170.891 91.9032 173.186 93.3756 175.056C93.7603 175.56 95.8695 177.576 96.0021 177.576C96.0552 177.576 96.3072 177.722 96.5327 177.895C97.1164 178.332 98.4429 178.982 99.3714 179.287C101.056 179.831 102.157 180.004 103.563 179.924C105.394 179.818 106.76 179.433 108.498 178.571C110.633 177.497 110.992 177.165 116.072 171.793C117.04 170.771 118.075 169.644 118.38 169.286C118.685 168.914 119.242 168.264 119.627 167.84C119.999 167.402 120.529 166.752 120.808 166.381C121.073 166.022 121.352 165.691 121.405 165.651C121.471 165.598 122.015 164.908 122.625 164.112C123.235 163.303 123.859 162.494 124.005 162.308C124.164 162.109 124.389 161.817 124.509 161.645C124.628 161.472 125 160.968 125.331 160.531C127.069 158.236 131.937 150.648 133.463 147.863C133.688 147.465 134.099 146.708 134.378 146.204C135.001 145.077 136.036 143.1 136.434 142.291C136.978 141.19 138.503 137.993 138.795 137.317C138.954 136.945 139.18 136.494 139.286 136.295C139.392 136.11 139.472 135.884 139.472 135.818C139.472 135.738 139.644 135.301 139.843 134.836C140.228 134.001 140.719 132.82 141.475 130.91C141.7 130.353 141.966 129.689 142.072 129.451C142.178 129.212 142.257 128.907 142.257 128.787C142.257 128.655 142.35 128.429 142.456 128.283C142.562 128.151 142.655 127.925 142.655 127.806C142.655 127.673 142.735 127.381 142.841 127.142C143.186 126.32 143.425 125.644 143.849 124.251C144.088 123.481 144.433 122.433 144.605 121.903C144.778 121.372 145.003 120.656 145.096 120.311C145.202 119.966 145.375 119.316 145.507 118.878C145.786 117.91 146.078 116.703 146.237 115.867C146.303 115.522 146.409 115.124 146.489 114.978C146.569 114.833 146.635 114.58 146.635 114.421C146.635 114.275 146.728 113.864 146.834 113.519C147.285 112.087 147.908 109.248 148.227 107.165C148.293 106.781 148.399 106.184 148.479 105.839C148.771 104.433 148.916 103.57 149.023 102.496C149.089 101.873 149.208 101.13 149.275 100.838C149.354 100.546 149.421 100.029 149.421 99.6971C149.421 99.3655 149.474 98.9145 149.553 98.7022C149.686 98.3043 149.858 96.739 150.084 94.0727C150.163 93.1972 150.309 91.433 150.415 90.1595C150.694 86.8565 150.681 85.9678 150.309 85.3178C149.752 84.3362 148.717 83.8719 147.497 84.0576Z" fill="black"/>
</g>
<defs>
<clipPath id="clip0_84_42">
<rect width="151" height="180" fill="white"/>
</clipPath>
</defs>
</svg>
