<svg width="100" height="101" viewBox="0 0 100 101" fill="none" xmlns="http://www.w3.org/2000/svg">
<g clip-path="url(#clip0_132_41)">
<path d="M51.5397 0.0666637C51.6065 0.170425 51.3989 0.222306 50.7097 0.259363C49.5386 0.333479 47.5968 0.622528 46.0626 0.941224C44.7063 1.22286 44.6174 1.2451 44.0615 1.40815C43.7799 1.49709 43.4464 1.59344 43.3204 1.6305C43.0832 1.6972 42.7497 1.80837 42.3198 1.97143C42.179 2.02331 41.7269 2.18636 41.3193 2.33459C40.5262 2.62364 38.9105 3.39444 37.8729 3.97995C35.8644 5.11391 33.7447 6.85562 32.507 8.39722C31.9659 9.07908 31.9214 9.10131 31.0172 9.30142C30.454 9.42742 30.1204 9.50895 29.2236 9.75353C27.8896 10.1167 25.0435 10.9616 24.8286 11.058C24.7248 11.1024 24.547 11.1617 24.421 11.1988C24.206 11.2581 23.539 11.4878 22.0493 12.0437C21.108 12.3846 20.0704 12.7997 19.4923 13.0591C18.7808 13.3778 18.4992 13.5038 17.7506 13.8299C16.7945 14.2375 13.9263 15.6902 13.0962 16.1867C12.7775 16.372 12.5032 16.5277 12.4884 16.5277C12.4069 16.5277 10.7764 17.5505 9.7091 18.2694C7.38188 19.8332 6.01075 20.9523 4.29869 22.6792C1.89735 25.088 0.667038 27.1336 0.0815279 29.6683C-0.0370565 30.1649 -0.014822 32.1808 0.103762 32.6848C0.585512 34.6266 1.95664 36.2868 4.41727 37.9321C5.06948 38.3694 5.32889 38.5251 5.96628 38.8586C6.12933 38.9475 6.31462 39.0513 6.37391 39.0958C6.47767 39.1773 7.46341 39.6368 8.22679 39.9629C8.41208 40.0444 8.66407 40.1482 8.78266 40.2075C10.0426 40.7559 11.6954 41.3266 13.9337 41.9937C14.156 42.0604 14.4747 42.1567 14.6378 42.216C15.5346 42.5273 16.3795 42.1938 16.713 41.4081C16.9872 40.7411 16.6982 39.9333 16.0608 39.5997C15.9422 39.5404 15.5049 39.3922 15.0973 39.2736C14.6822 39.1476 14.245 39.0216 14.119 38.9846C14.0004 38.9475 13.7336 38.866 13.526 38.8067C13.1332 38.6881 11.4286 38.0952 11.1173 37.9618C11.0135 37.9247 10.7467 37.8136 10.5244 37.7246C9.52381 37.3392 7.73022 36.4795 6.8186 35.9607C5.09913 34.9749 3.66871 33.6631 3.17213 32.6107C2.5718 31.3211 2.8905 29.5423 4.09116 27.5857C4.73597 26.5332 6.04039 24.9916 7.12248 24.0133C7.50788 23.6724 7.92292 23.2944 8.04151 23.1758C8.27867 22.946 10.1612 21.523 11.0061 20.9301C11.725 20.4261 13.3926 19.3737 14.119 18.9735C14.282 18.8845 14.5192 18.7511 14.6378 18.677C15.2974 18.2916 18.3213 16.75 18.4176 16.75C18.4399 16.75 18.6326 16.6685 18.8475 16.5573C19.2551 16.3572 21.4267 15.4308 21.864 15.2677C22.1456 15.1639 22.4421 15.0454 22.7904 14.8971C22.9164 14.8452 23.0943 14.7785 23.1981 14.7489C23.3018 14.7118 23.5687 14.6155 23.791 14.5265C24.3024 14.3264 26.1034 13.7261 27.1262 13.4148C27.5561 13.2888 28.0082 13.148 28.1267 13.1035C28.2527 13.0591 28.4677 12.9998 28.6085 12.9701C28.7493 12.9331 29.1051 12.8367 29.3867 12.7552C30.1501 12.5254 31.9956 12.0807 32.1512 12.0807C32.4625 12.0807 34.2857 15.2381 35.3307 17.5653C36.02 19.092 36.8279 21.4786 37.1614 22.9757C37.5023 24.4802 37.6283 25.2955 37.7617 26.8074C38.0137 29.6386 37.7914 32.707 37.1614 35.2418C36.5462 37.695 35.9237 39.4441 34.9528 41.4304L34.6489 42.0604H33.2407C30.7949 42.0604 25.2733 41.4823 22.4199 40.9338C22.0938 40.8745 21.575 40.8078 21.2711 40.793C20.7893 40.7633 20.6782 40.7782 20.4262 40.9264C20.2631 41.0227 20.0334 41.2229 19.9148 41.3785C19.7072 41.6231 19.685 41.712 19.685 42.1641C19.6776 42.6162 19.6998 42.7126 19.8999 43.0016C20.189 43.4093 20.5966 43.6094 21.4786 43.7576C24.3617 44.2542 25.2955 44.3876 27.8673 44.647C31.6027 45.0324 35.0713 45.1584 39.1329 45.0546C41.1191 45.0101 42.9572 45.0472 45.8032 45.2028C46.4777 45.2399 47.078 45.2918 47.1373 45.314C47.1966 45.3363 47.5968 45.3881 48.0193 45.4252C48.6048 45.4771 48.8197 45.529 48.9161 45.6327C48.9902 45.7068 49.2125 46.2849 49.4201 46.9149C49.8277 48.16 49.924 48.4417 50.0723 48.8419C50.1241 48.9827 50.3168 49.5979 50.5095 50.213C50.6948 50.8208 50.8949 51.4582 50.9542 51.6212C51.0061 51.7843 51.1618 52.266 51.2878 52.6959C51.4138 53.1258 51.5694 53.6075 51.6213 53.7706C51.851 54.4821 52.192 55.6309 52.481 56.6611C52.6441 57.2688 52.8368 57.9581 52.8961 58.1804C52.9553 58.4028 53.0369 58.7066 53.0739 58.8475C53.4075 60.2482 53.8225 61.1376 54.4599 61.775C54.912 62.2345 55.3196 62.4643 55.9718 62.657C56.6833 62.8645 57.38 62.7756 58.3139 62.3605C60.0926 61.5823 61.9974 59.3737 63.4945 56.3868C63.7465 55.868 63.9615 55.4307 63.9615 55.4011C63.9615 55.3789 64.0282 55.201 64.1171 55.0083C64.5396 54.0448 64.5173 54.067 64.6804 54.534C65.2066 56.0459 65.1399 59.4181 64.5396 61.6268C64.4951 61.7898 64.4358 62.0418 64.3987 62.1826C64.3172 62.5829 63.8429 63.8577 63.5316 64.5173C61.9826 67.8673 59.1662 70.3205 55.7124 71.3359C55.1936 71.4915 55.038 71.4545 54.66 71.0913C54.2672 70.7207 52.9553 69.7276 52.3921 69.3867C51.5842 68.8901 51.4805 68.8382 50.7319 68.4676C50.3243 68.2675 49.924 68.0674 49.8499 68.0229C49.7684 67.9785 49.6202 67.9192 49.5164 67.8895C49.4126 67.8525 49.1384 67.7561 48.9161 67.6672C48.4788 67.4967 48.375 67.4597 47.4708 67.2225C45.277 66.6444 42.3865 66.6296 40.1705 67.1854C39.5331 67.3485 37.9544 67.8821 37.6654 68.0303C37.5987 68.0674 37.1762 68.2749 36.7241 68.4973C35.4271 69.1272 34.723 69.9648 34.5229 71.1358C34.2264 72.8923 35.2566 74.5451 36.9835 75.0565C37.2874 75.1528 37.7543 75.2936 38.0211 75.3678C38.2879 75.4493 38.6882 75.5827 38.9105 75.6716C39.1329 75.7606 39.3997 75.8569 39.5034 75.894C39.8666 76.0051 41.3267 76.7834 41.8603 77.1391C43.7206 78.3842 45.1362 80.2149 45.7958 82.2308C46.3517 83.9132 46.6333 86.448 46.4777 88.3676C46.3072 90.4576 45.6995 92.77 44.9731 94.0893C44.2172 95.4604 44.0615 95.9792 44.1208 96.9427C44.2097 98.4398 45.1065 99.5219 46.6778 100.018C47.9822 100.434 51.688 99.4256 54.0893 98.0025C55.9644 96.8982 57.8766 94.9861 59.0032 93.1035C59.1662 92.8293 59.3293 92.5551 59.3663 92.4958C59.5145 92.2586 60.1149 91.0061 60.2631 90.6281C60.73 89.4422 61.1006 88.2193 61.4119 86.826C61.486 86.4999 61.5749 86.1886 61.6194 86.1293C61.6639 86.0774 61.9455 85.9144 62.2568 85.7735C62.5607 85.6253 63.0943 85.3807 63.4427 85.2177C65.0139 84.4913 65.8588 84.0837 65.9329 84.0318C65.9774 84.0022 66.3257 83.8169 66.7111 83.6168C67.7413 83.0831 68.6752 82.5792 69.2829 82.216C69.5868 82.0381 69.8388 81.8973 69.8536 81.8973C69.8981 81.8973 71.1877 81.1191 71.6472 80.8152C72.0771 80.5262 72.4106 79.9703 72.4106 79.5256C72.4106 79.1625 72.1364 78.6585 71.7954 78.3842C71.5657 78.199 71.4323 78.1545 71.0395 78.1323C70.6096 78.1026 70.5058 78.1248 70.0982 78.3324C69.8462 78.4658 69.4979 78.6659 69.32 78.7845C69.1421 78.9105 68.9791 79.0068 68.9642 79.0068C68.9494 79.0068 68.6381 79.1847 68.2824 79.3996C67.9266 79.6146 67.4671 79.8814 67.2596 79.9851C67.0595 80.0889 66.7704 80.2445 66.6296 80.3261C66.3406 80.5039 62.405 82.468 61.8862 82.7052C61.7009 82.7867 61.0858 83.0535 60.5225 83.2981C59.4923 83.7428 59.1514 83.9725 58.9513 84.3653C58.892 84.4765 58.7586 85.0101 58.6548 85.5512C58.3732 86.9964 58.1879 87.7598 58.0397 88.0415C57.9952 88.123 57.9581 88.2416 57.9581 88.3083C57.9581 88.375 57.9137 88.538 57.8544 88.664C57.8025 88.7974 57.6987 89.0494 57.6246 89.2347C56.3869 92.4068 54.2598 94.7711 51.4953 96.0459C50.2576 96.6166 48.3157 97.165 47.5301 97.165C47.2559 97.165 47.0632 96.9649 47.0632 96.6685C47.0632 96.5425 47.2262 96.1274 47.4189 95.7494C47.7525 95.1046 48.0489 94.445 48.1823 94.0893C48.212 94.0077 48.3083 93.7557 48.3973 93.5334C48.4862 93.3111 48.5825 93.022 48.6196 92.9034C48.6567 92.7774 48.7456 92.4439 48.8271 92.1623C49.8499 88.6047 49.5757 83.3574 48.1971 80.2668C47.7154 79.1847 47.0854 78.11 46.4851 77.3763C45.9663 76.7315 44.7878 75.6123 44.0912 75.1009C43.4538 74.634 42.6607 74.1152 42.5792 74.1152C42.5644 74.1152 42.3865 74.0189 42.1938 73.9077C41.4601 73.4778 39.9037 72.8627 38.4658 72.4402C37.7765 72.2327 37.6505 72.1734 37.5394 72.0103C37.2577 71.6175 37.4578 71.3804 38.4658 70.906C40.6152 69.9055 43.1499 69.4756 45.1881 69.7795C47.4189 70.1056 49.1532 70.7652 51.0728 72.0103C51.347 72.1882 51.6139 72.3735 51.6657 72.4254C51.725 72.4773 51.9548 72.6625 52.1771 72.833C52.3995 73.0035 52.8664 73.4037 53.2073 73.7298C53.6743 74.1745 53.9188 74.3524 54.2227 74.4561C54.6007 74.5821 54.6452 74.5821 55.1566 74.4635C55.453 74.3894 55.7643 74.3376 55.8458 74.3376C55.92 74.3376 56.1201 74.2931 56.2905 74.2338C56.4536 74.1745 56.8686 74.0411 57.217 73.9299C57.9878 73.6853 58.9883 73.2629 59.4627 72.9887C59.6554 72.8775 59.8332 72.7811 59.8481 72.7811C59.8777 72.7811 60.6189 72.3068 61.0636 71.9955C62.5459 70.9875 64.3469 69.0161 65.3771 67.2966C65.7699 66.6444 66.4962 65.1769 66.6667 64.7026C67.3337 62.7904 67.6302 61.5453 67.8599 59.6627C68.0007 58.5139 67.9711 55.7865 67.8155 55.0305C67.4671 53.3259 66.8668 51.8213 66.0663 50.6577C65.1028 49.2421 63.6872 47.8636 62.2198 46.9075C61.2859 46.2923 61.071 46.1663 60.1149 45.6994C58.4843 44.8916 58.0545 44.7137 56.5499 44.2245C53.1555 43.1276 50.6355 42.6681 45.655 42.2382C45.1065 42.1864 43.1721 42.1345 41.3563 42.1197C39.5405 42.0974 38.0359 42.0604 37.9989 42.0307C37.9692 42.0011 38.1323 41.549 38.3621 41.0153C38.9698 39.6071 39.3404 38.5102 39.8369 36.6499C40.1779 35.3974 40.6152 33.085 40.6152 32.5662C40.6152 31.8992 40.7486 31.7954 41.26 32.0474C42.1493 32.4921 43.7058 33.1665 44.3209 33.3741C44.5062 33.4408 44.8397 33.5668 45.0621 33.6483C45.2844 33.7372 45.5735 33.8336 45.6921 33.8706C45.8181 33.9003 46.0182 33.9596 46.1367 34.004C47.1447 34.3301 47.96 34.508 49.005 34.6192C49.7536 34.7007 49.9611 34.7007 50.5392 34.597C51.2655 34.4635 51.8584 34.2041 52.2438 33.8484C52.4958 33.6112 52.9924 32.9664 53.0888 32.7589C53.1184 32.6996 53.2073 32.544 53.2889 32.4254C53.8003 31.6249 54.2746 30.3205 54.6971 28.5714C54.8379 27.9785 55.0676 26.0959 55.0676 25.5327C55.0676 24.5618 54.8231 22.909 54.4969 21.6787C54.0004 19.8184 53.1851 18.173 52.3254 17.2985C51.0358 15.9866 48.375 16.1052 44.395 17.6394C44.1727 17.7283 43.9207 17.8173 43.8392 17.8395C43.7576 17.8617 43.6613 17.9062 43.6168 17.9358C43.5798 17.9655 43.0906 18.1804 42.5422 18.4176C41.9937 18.6474 41.0969 19.055 40.5633 19.3218C40.0222 19.5812 39.5257 19.7887 39.4516 19.7739C39.3404 19.7517 39.1921 19.4182 38.8364 18.3805C38.2731 16.7278 37.1169 14.3413 35.9014 12.3031C35.3752 11.4137 35.3752 11.4137 36.0793 11.2803C37.7543 10.9616 40.5114 10.6503 42.6533 10.5243C44.3209 10.428 47.9822 10.428 49.509 10.5317C50.6133 10.5984 52.2735 10.7837 53.5853 10.969C54.0226 11.0357 54.2746 11.0802 55.6235 11.3396C55.8681 11.3841 56.2387 11.473 56.4388 11.5249C56.6463 11.5842 57.0762 11.6953 57.4023 11.7769C58.3065 11.9918 59.5813 12.355 60.0334 12.5254C60.2557 12.6144 60.6411 12.7478 60.8857 12.8293C61.1303 12.9108 61.5675 13.0739 61.8492 13.1851C62.8349 13.5927 64.2209 14.1634 64.3691 14.2301C64.6433 14.3487 64.9843 14.3857 65.3252 14.3413C65.7476 14.2746 66.2813 13.8299 66.4073 13.4445C66.6148 12.8145 66.3999 12.103 65.9033 11.762C65.5846 11.5397 63.9318 10.8282 62.7015 10.3761C62.2346 10.2056 61.7232 10.0203 61.5749 9.96105C61.4193 9.90176 61.1673 9.81282 61.0191 9.75353C59.9963 9.36813 57.847 8.80485 55.957 8.41945C55.6531 8.36016 55.1492 8.2564 54.8453 8.18969C54.5414 8.1304 54.2079 8.07852 54.1041 8.07852C54.0004 8.07852 53.652 8.03405 53.3259 7.97476C49.7313 7.32996 42.5125 7.32996 38.4213 7.97476C37.5764 8.10817 37.2059 8.10817 37.2059 7.98217C37.2133 7.85618 38.9994 6.69998 40.0296 6.16635C41.4156 5.44002 43.0313 4.79522 44.5062 4.37276C49.546 2.93492 56.2238 2.57917 60.3002 3.52785C60.5448 3.58714 60.8042 3.63161 60.8783 3.63161C61.0191 3.63161 63.5538 4.24676 64.1393 4.42464C64.7174 4.60252 65.9774 5.01756 66.1849 5.09909C66.2887 5.14356 66.7556 5.31402 67.2225 5.48449C70.2168 6.57398 73.3519 8.18228 76.4276 10.1982C77.4727 10.8875 80.2446 12.9257 80.7115 13.3555C80.8153 13.4519 81.1191 13.7113 81.3785 13.9336C82.1716 14.6007 82.6904 15.0824 84.0467 16.4535C87.3671 19.7813 89.9833 23.3981 92.0808 27.5338C93.3037 29.9425 94.2227 32.2253 94.9713 34.723C95.0454 34.9675 95.1492 35.3011 95.201 35.4641C95.6235 36.813 96.2238 39.6516 96.5277 41.801C97.3874 47.8191 97.1354 54.2449 95.7791 61.1821C95.6754 61.7083 95.5642 62.279 95.5346 62.4421C95.4753 62.7533 95.3641 63.2425 95.201 63.8502C95.1492 64.0504 95.0825 64.3394 95.0602 64.4802C95.038 64.621 94.949 64.8508 94.8675 64.9768C94.7489 65.1769 94.6748 65.2214 94.4747 65.2214C94.1338 65.2214 94.4525 65.5401 91.4286 62.1901L90.3391 60.982L90.3835 60.6707C90.4132 60.5076 90.4725 60.3075 90.5095 60.2334C90.7912 59.6924 91.3248 57.3948 91.6361 55.4011C91.9844 53.1035 92.0067 52.7552 92.0067 49.5089C92.0141 46.2405 92.0067 46.1293 91.6287 43.6538C91.3322 41.675 90.7022 38.9698 90.2057 37.5393C90.1167 37.2948 89.9685 36.8575 89.8722 36.5684C89.3904 35.1454 88.9531 34.1078 88.0119 32.203C85.7217 27.5708 82.6089 23.5316 78.3769 19.7146C77.9174 19.2996 77.2577 18.7585 75.8199 17.6023C74.7008 16.7055 71.4545 14.5488 70.7578 14.2449C70.4836 14.1263 70.0389 14.1337 69.735 14.2597C69.4608 14.3783 69.0754 14.7489 68.9272 15.0454C68.7715 15.3418 68.8012 16.0237 68.9865 16.3127C69.2236 16.6981 69.3571 16.8093 70.3205 17.38C71.6694 18.1804 73.8929 19.7961 75.6717 21.271C76.5685 22.0122 79.244 24.6285 80.0593 25.5697C81.26 26.9409 83.4093 29.8536 83.728 30.5354C83.7576 30.5947 83.8688 30.78 83.98 30.9431C84.7211 32.0474 86.1293 34.9379 86.7519 36.6129C86.8408 36.8575 86.9224 37.0872 87.1818 37.7617C87.7154 39.1995 88.4047 42.0159 88.7456 44.1726C89.0421 46.0478 89.1088 47.0113 89.1088 49.5089C89.1014 52.3401 88.9754 53.8595 88.5233 56.2164C87.8043 59.937 86.3887 63.035 83.8392 66.4443C83.3871 67.0446 82.2902 68.4009 82.1197 68.5566C82.0975 68.5788 81.7195 68.9864 81.2674 69.4682C79.7999 71.0542 77.7469 72.8775 75.2196 74.8341C74.5599 75.3455 74.3821 75.642 74.3821 76.2201C74.3895 76.8723 74.6266 77.2651 75.2047 77.5542C75.5309 77.7172 76.1312 77.7098 76.4721 77.5319C76.8946 77.3096 79.7332 75.012 80.9264 73.9299C81.8084 73.1295 84.0022 70.8912 84.5581 70.2167C84.862 69.8536 85.151 69.5201 85.1955 69.483C85.3585 69.3422 86.9075 67.2521 87.3448 66.5925C87.7821 65.9255 88.6418 64.495 88.6418 64.4358C88.6418 64.369 88.9679 63.9614 89.0124 63.9614C89.0569 63.9614 89.5609 64.5099 91.1988 66.3331C91.814 67.015 92.4736 67.6375 92.7256 67.7487C93.5112 68.1267 93.6224 68.1489 94.4969 68.1489C95.327 68.1489 95.3641 68.1415 95.9051 67.8747C96.3054 67.682 96.5944 67.4671 96.9131 67.1335C97.4171 66.6073 97.6765 66.1108 97.8692 65.2955C97.9433 64.9916 98.0471 64.5914 98.0989 64.4135C98.1582 64.2282 98.2027 64.0207 98.2027 63.9392C98.2027 63.8577 98.2472 63.6205 98.3065 63.413C98.6103 62.3235 99.0032 60.1815 99.307 57.9581C99.7739 54.5265 99.9222 52.7181 99.9592 49.6201C99.9963 47.0557 99.9222 45.5215 99.6405 42.9868C99.4775 41.4971 99.1366 39.2366 98.9439 38.3546C98.9068 38.1915 98.8253 37.8061 98.7586 37.5023C98.551 36.5388 98.3658 35.8199 97.758 33.7224C97.632 33.2925 97.4838 32.8108 97.4245 32.6477C97.091 31.6694 96.8464 30.9875 96.7575 30.7948C96.6982 30.6688 96.5203 30.239 96.3646 29.8313C94.7786 25.7698 91.7473 20.6781 89.0569 17.5579C88.9309 17.417 88.7456 17.1947 88.6493 17.0761C86.9075 14.9564 83.5872 11.7917 81.3044 10.0796C80.9561 9.82023 80.6596 9.58306 80.6374 9.56083C80.541 9.44224 78.577 8.07111 77.5246 7.39666C76.8797 6.98162 75.4567 6.12188 74.9676 5.85506C74.723 5.72166 74.3376 5.50672 74.1152 5.38814C73.6631 5.13615 71.5435 4.0763 71.4916 4.0763C71.4767 4.0763 71.1803 3.9503 70.8394 3.78725C70.5058 3.63161 70.0389 3.42408 69.8166 3.33515C69.5942 3.24621 69.3126 3.12762 69.1866 3.06833C68.7567 2.87563 67.6228 2.46059 66.7037 2.15671C66.1923 1.99366 65.6809 1.81578 65.5549 1.77131C65.4364 1.72685 65.214 1.66014 65.0732 1.6305C64.9324 1.59344 64.6285 1.51191 64.4062 1.44521C62.6867 0.933812 59.8925 0.392771 58.2324 0.251952C57.8988 0.222306 57.7135 0.177837 57.6839 0.103721C57.6543 0.014783 57.1503 -4.00129e-05 54.5711 -4.00129e-05C52.7849 -4.00129e-05 51.5175 0.0296061 51.5397 0.0666637ZM50.391 19.559C50.8282 20.0259 51.4138 21.4341 51.7992 22.9386C51.9326 23.4426 52.103 24.9027 52.103 25.4956C52.103 27.4078 51.4953 29.7054 50.5762 31.2173C50.3613 31.5731 50.2724 31.6472 50.0574 31.6916C49.3089 31.8325 47.456 31.4322 45.7291 30.7578C45.5068 30.6688 45.24 30.5725 45.1362 30.5354C44.7063 30.3946 42.8016 29.5423 41.8751 29.0754L40.8746 28.5714L40.8227 28.0526C40.8004 27.7635 40.7412 27.0668 40.6893 26.4962C40.6003 25.4141 40.4743 24.5173 40.2668 23.5538C40.2001 23.2425 40.1705 22.9386 40.1927 22.8793C40.2298 22.783 42.8683 21.4193 43.0165 21.4193C43.0387 21.4193 43.35 21.2784 43.7058 21.1154C44.8694 20.5669 46.6704 19.9295 48.1379 19.5367C48.6493 19.4033 48.8864 19.3737 49.6424 19.3589C50.1538 19.344 50.2057 19.3589 50.391 19.559ZM53.4816 46.3961C53.9707 46.5147 54.4451 46.6481 54.5488 46.6777C54.6526 46.7148 54.9342 46.8037 55.1788 46.8778C55.6606 47.0187 55.705 47.0335 57.0687 47.5523C58.3732 48.0489 59.7739 48.7826 60.8116 49.5089C61.3897 49.9092 62.3161 50.6948 62.3606 50.8208C62.4792 51.1247 61.5749 53.6594 60.7967 55.1788C59.8851 56.9798 58.6474 58.6548 57.758 59.3144C57.3356 59.6183 56.8168 59.848 56.6611 59.7813C56.3795 59.6776 56.1645 59.092 55.6235 57.0316C55.4382 56.2979 55.2381 55.5642 55.1862 55.4011C55.1269 55.238 55.0306 54.9045 54.9565 54.66C54.8823 54.4154 54.786 54.0819 54.7341 53.9188C54.6822 53.7557 54.5859 53.437 54.5192 53.2147C54.4525 52.9924 54.3042 52.4884 54.1857 52.103C54.0671 51.7176 53.8596 51.0505 53.7336 50.6207C53.6076 50.1908 53.4593 49.7239 53.4075 49.5831C53.2148 49.0642 53.1258 48.7974 53.0665 48.5825C53.0295 48.4565 52.9702 48.2564 52.9257 48.1378C52.4217 46.737 52.2957 46.1738 52.5032 46.1738C52.5625 46.1738 52.9998 46.2701 53.4816 46.3961Z" fill="black"/>
<path d="M18.4325 23.1313C17.8692 23.3314 17.2022 23.9392 16.965 24.4728C16.8242 24.7915 16.7871 24.9916 16.7871 25.5327C16.7871 26.3035 16.9279 26.6889 17.3874 27.2003C18.3954 28.3194 19.9963 28.3639 21.0784 27.3188C21.612 26.7926 21.7528 26.4146 21.7528 25.4956C21.7528 24.6136 21.6713 24.3913 21.1377 23.7835C20.5151 23.0795 19.3663 22.7978 18.4325 23.1313Z" fill="black"/>
</g>
<defs>
<clipPath id="clip0_132_41">
<rect width="100" height="100.167" fill="white"/>
</clipPath>
</defs>
</svg>
