<svg width="100" height="101" viewBox="0 0 100 101" fill="none" xmlns="http://www.w3.org/2000/svg">
<g clip-path="url(#clip0_165_5)">
<path d="M58.2101 0.0665911C58.2916 0.185176 58.0248 0.222233 56.4832 0.296348C54.3635 0.40011 52.3328 0.563163 52.0586 0.652102C51.1988 0.926328 50.5837 1.57113 50.3168 2.50498C50.176 2.98673 50.176 3.05344 50.2872 4.66915C50.4503 7.07789 50.5392 8.50832 50.5911 9.56075C50.643 10.6873 50.7097 10.9689 50.9913 11.2951C51.5916 11.9695 52.7256 11.9102 53.3185 11.1691L53.5483 10.88L53.5334 9.94615C53.526 9.42735 53.4667 8.25633 53.4075 7.3373C53.1555 3.65377 53.148 3.52777 53.237 3.46848C53.2889 3.43884 53.526 3.40919 53.7706 3.40919C54.0152 3.40919 54.534 3.37213 54.9194 3.33507C55.3048 3.2906 56.2609 3.2239 57.0317 3.18684C57.8099 3.14979 58.7289 3.09049 59.0773 3.06826C59.8407 3.00897 59.7665 2.86815 59.8777 4.59503C60.0556 7.30765 60.1149 8.2415 60.1816 9.44958C60.2261 10.1389 60.3076 11.5767 60.3669 12.6365C60.4262 13.6964 60.5077 15.0823 60.5522 15.7123C60.7078 18.1433 60.7893 19.4255 60.8486 20.6039C60.9153 21.938 61.0117 23.4425 61.1821 25.792C61.2488 26.6295 61.2933 27.4966 61.2933 27.719C61.2933 27.9413 61.3378 28.8233 61.4045 29.683C61.5824 32.1807 61.6639 33.4481 61.738 34.8341C61.7751 35.5456 61.8418 36.6943 61.8862 37.391C61.9233 38.0803 62.0122 39.5033 62.0715 40.5409C62.1308 41.5785 62.1975 42.6384 62.2198 42.8904C62.242 43.2535 62.2272 43.3795 62.1234 43.4907C61.9678 43.6686 61.1377 44.3282 58.9957 45.9884C57.6246 47.0482 56.4314 47.9969 56.2979 48.1155C56.2164 48.1896 56.0978 48.2489 56.0237 48.2489C55.8829 48.2489 55.8533 48.0192 55.7347 45.6919C55.6902 44.8767 55.6457 44.0243 55.6235 43.802C55.6013 43.5797 55.5494 42.757 55.5123 41.9862C55.4679 41.208 55.4086 40.074 55.3641 39.4663C55.327 38.8511 55.2455 37.4874 55.1788 36.4275C55.1121 35.3677 55.0158 33.8335 54.9565 33.0182C54.8898 32.203 54.8453 31.3506 54.8453 31.1283C54.8453 30.9059 54.8008 29.9869 54.7341 29.0901C54.5118 25.8958 54.4599 25.1472 54.4006 23.9762C54.3339 22.6495 54.2227 20.8114 54.0671 18.5139C53.9485 16.7203 53.8744 16.4905 53.2889 16.1718C52.9998 16.0162 52.8886 16.0014 52.4217 16.031C51.7843 16.0755 51.4212 16.3052 51.2062 16.787C51.0358 17.1502 51.0358 17.417 51.1692 19.381C51.2285 20.2334 51.3322 21.8046 51.3989 22.8644C51.5397 25.2584 51.7102 27.9265 51.814 29.3866C51.851 30.0017 51.9177 31.0838 51.9548 31.7953C51.9918 32.5068 52.0586 33.5889 52.103 34.1967C52.1623 34.9601 52.1623 35.3232 52.1104 35.3751C52.0586 35.427 52.0289 35.4196 52.0067 35.3455C51.9918 35.2862 51.9326 35.1231 51.8881 34.9823C51.8362 34.8415 51.7769 34.6414 51.7621 34.5376C51.7399 34.4338 51.6806 34.1818 51.6213 33.9817C51.562 33.7742 51.4656 33.3962 51.3989 33.1294C51.3322 32.8626 51.2285 32.4624 51.1692 32.24C51.1173 32.0177 50.9172 31.195 50.7245 30.4242C50.5392 29.646 50.3391 28.8455 50.2872 28.6454C50.2279 28.4379 50.1316 28.0673 50.0723 27.8079C49.5831 25.8809 49.5164 25.666 49.2644 25.1768C49.0124 24.6951 48.4491 24.2059 47.8933 23.991C47.4486 23.8131 46.537 23.8279 45.8032 24.0206C45.4771 24.1022 45.1807 24.1466 45.1362 24.1244C45.0843 24.0948 45.0621 21.4785 45.0621 16.3942C45.0621 9.18277 45.0547 8.67878 44.9287 8.33785C44.8546 8.13033 44.7434 7.86352 44.6693 7.73752C44.5062 7.41882 43.8614 6.85555 43.4389 6.64803L43.098 6.48497H38.829H34.5674L34.0782 6.72955C33.5001 7.02601 33.1369 7.38177 32.8553 7.93022L32.6478 8.33785L32.6107 22.7681C32.5885 30.6984 32.5514 37.2132 32.5292 37.2354C32.4847 37.2799 32.0326 36.7759 31.625 36.2348C31.41 35.9532 31.4026 35.9087 31.1655 33.7594C30.8912 31.2543 30.8171 30.6762 30.7208 29.9424C30.6541 29.5126 30.6096 29.0457 30.6096 28.9048C30.6096 28.764 30.5651 28.2971 30.4984 27.8672C30.4391 27.4374 30.3428 26.6221 30.2761 26.0514C30.2094 25.4807 30.1278 24.747 30.0834 24.4209C30.0463 24.0948 29.9796 23.5092 29.9426 23.1238C29.9055 22.7384 29.8017 21.8194 29.7202 21.0857C29.6387 20.3519 29.5349 19.4329 29.4979 19.0475C29.4534 18.6621 29.3941 18.0914 29.3496 17.7875C29.2829 17.2391 29.1718 16.2756 28.942 14.2671C28.8753 13.6964 28.7864 12.9626 28.7493 12.6365C28.7048 12.3104 28.6381 11.762 28.6085 11.4136C28.4528 9.85722 28.0082 6.00322 27.9414 5.65488C27.7562 4.62468 26.9928 3.83906 25.9255 3.57965C25.4438 3.46848 25.051 3.49072 23.3463 3.71306C23.0424 3.75012 22.494 3.81682 22.1234 3.85388C18.2324 4.24669 17.5357 4.35045 17.0836 4.55798C16.5796 4.80256 16.0534 5.32877 15.8088 5.84758C15.4901 6.51462 15.4901 7.00378 15.8236 9.70899C15.8829 10.1759 15.9792 11.0282 16.046 11.5989C16.1127 12.1696 16.2164 13.0368 16.2683 13.5259C16.3276 14.0151 16.4314 14.8674 16.4906 15.4159C16.5499 15.9643 16.6389 16.6981 16.6759 17.0464C16.713 17.3947 16.8019 18.1581 16.8612 18.751C16.9279 19.344 17.0317 20.2556 17.091 20.7892C17.1503 21.3154 17.2318 22.0492 17.2689 22.4198C17.3059 22.7829 17.3726 23.3314 17.4171 23.6352L17.506 24.1837L17.2911 24.3542C16.335 25.1472 16.2461 25.1991 16.1349 25.0953C16.0756 25.036 15.7421 24.1244 15.3937 23.072C14.786 21.2487 14.6971 20.9893 14.4895 20.3816C14.3191 19.8998 14.2227 19.6108 13.6298 17.8246C12.9183 15.6901 12.8293 15.49 12.3402 15.0008C11.7621 14.4227 11.3841 14.2745 10.4873 14.2671C9.9685 14.2671 9.64981 14.3041 9.44969 14.3857C9.07912 14.5339 8.70113 14.6673 8.41208 14.7488C8.14527 14.8303 5.17324 15.8161 4.85455 15.9347C4.73596 15.9791 4.23198 16.1496 3.74282 16.3127C2.31981 16.7944 1.91217 17.039 1.49713 17.6764C0.941264 18.5213 0.904206 19.218 1.34149 20.5002C1.50454 20.9819 1.66759 21.4785 1.70465 21.6045C1.82324 22.0047 3.05355 25.6808 3.12025 25.8291C3.18696 25.9847 4.69891 30.4687 4.81749 30.8689C4.94349 31.2913 6.60367 36.2052 6.78896 36.6943C6.88531 36.9612 7.06318 37.265 7.17436 37.3762C7.41153 37.606 7.84881 37.7987 8.12303 37.7987C8.75301 37.7987 9.46452 37.2873 9.64239 36.7018C9.73874 36.3682 9.73874 36.3608 9.48675 35.5382C9.40523 35.2639 7.89327 30.8022 7.7821 30.4983C7.73763 30.3723 7.48564 29.6238 7.22624 28.8307C6.74449 27.3781 6.64814 27.0816 6.48508 26.6073C6.4332 26.4664 6.35168 26.2293 6.30721 26.0885C6.18862 25.7401 4.55809 20.8856 4.27645 20.0629C4.12081 19.596 4.08375 19.381 4.14304 19.3217C4.20233 19.2624 7.53011 18.1062 8.33797 17.8691C8.56031 17.8024 8.64184 17.7727 9.56087 17.4392C10.139 17.2317 10.2724 17.2243 10.3687 17.3947C10.4058 17.4689 10.5837 17.9802 10.7689 18.5287C10.9542 19.0772 11.1469 19.6256 11.184 19.7516C11.3248 20.1518 11.6361 21.0634 12.0437 22.3086C12.4588 23.5759 12.5551 23.8724 12.7108 24.3097C13.4 26.2886 13.6372 27.0742 13.6001 27.2002C13.5779 27.2743 13.4742 27.3855 13.3778 27.4522C13.274 27.5189 12.9628 27.7709 12.6737 28.0155C11.9548 28.638 11.6954 29.1865 11.688 30.0833C11.688 31.0838 11.725 31.1505 14.0448 34.0929C14.534 34.7155 15.0825 35.4122 15.2677 35.6493C15.453 35.8865 16.0089 36.598 16.5055 37.2354C17.3726 38.3323 17.5801 38.6658 17.7135 39.1698C17.7506 39.2884 18.4473 41.3784 19.27 43.802C20.0926 46.2256 20.7893 48.3082 20.8264 48.4342C20.8634 48.5528 21.0932 49.2495 21.3452 49.9832C21.612 50.754 21.7751 51.3321 21.738 51.3692C21.6713 51.4359 19.0773 50.7911 17.5283 50.3241C17.0095 50.1685 16.2535 49.9387 16.046 49.8795C15.1195 49.6126 14.3265 49.3458 14.2079 49.2643C14.1115 49.1976 13.8744 48.6047 13.4742 47.4336C13.1555 46.4776 12.8664 45.5882 12.8293 45.4696C12.7923 45.3436 12.733 45.1657 12.6885 45.062C12.6515 44.9582 12.4365 44.343 12.2216 43.6908C11.7473 42.2382 11.6806 42.1196 11.184 41.8157C10.5392 41.4229 9.50899 41.7787 9.12359 42.5198C8.96053 42.8459 9.02724 43.4314 9.34593 44.3208C9.50899 44.7877 9.67204 45.2695 9.7091 45.3955C9.73874 45.5141 9.80545 45.7142 9.84992 45.8402C10.1686 46.6999 10.517 47.8339 10.4799 47.8858C10.4058 48.0043 10.2057 47.9599 8.89383 47.5004C8.18232 47.2558 7.49305 47.026 7.36706 46.9964C7.23365 46.9593 7.09283 46.9074 7.04095 46.8778C6.98907 46.8481 6.84825 46.7963 6.71484 46.7592C6.58885 46.7296 6.33685 46.648 6.15157 46.5813C5.96628 46.5072 5.13619 46.2256 4.29868 45.9439C3.46118 45.6623 2.66074 45.3807 2.51992 45.3288C1.47489 44.9286 1.25996 44.9211 0.689272 45.2547C0.207523 45.5363 0 45.9143 0 46.4998C0 46.7666 0.0296461 47.0557 0.0667037 47.152C0.103761 47.2484 0.289049 47.819 0.481749 48.4342C1.25255 50.9319 1.49713 51.7101 1.59348 51.9547C1.64536 52.0955 1.84547 52.7107 2.03817 53.3258C2.51251 54.8452 3.23884 57.1205 3.48342 57.8839C3.602 58.2322 3.84658 59.0105 4.03928 59.6256C4.4395 60.9152 4.79526 62.0344 4.93608 62.4049C4.98796 62.5457 5.18066 63.1609 5.37336 63.7761C5.55864 64.3838 5.75876 65.0212 5.81064 65.1843C5.86993 65.3473 6.07004 65.9773 6.26274 66.5924C6.45544 67.2002 6.65555 67.8228 6.70743 67.9636C6.80378 68.2378 6.8186 68.2823 7.37447 70.0759C7.56717 70.6836 7.76728 71.3062 7.81916 71.447C7.9081 71.6767 8.16009 72.4624 8.83454 74.6339C8.95312 75.0193 9.14582 75.6197 9.26441 75.968C9.37558 76.3164 9.62757 77.0946 9.82027 77.7097C10.013 78.3175 10.2131 78.9549 10.265 79.1179C10.3243 79.281 10.5244 79.911 10.7097 80.5261C10.9024 81.1339 11.1025 81.7564 11.1543 81.8972C11.2507 82.1418 11.4953 82.92 12.2661 85.4177C12.4588 86.0255 12.6589 86.6406 12.7182 86.774C12.7775 86.9074 12.8219 87.0631 12.8219 87.1224C12.8219 87.1817 12.8664 87.3373 12.9257 87.4707C12.985 87.6041 13.1851 88.2119 13.3778 88.827C14.1486 91.3247 14.3932 92.1029 14.4895 92.3475C14.5414 92.4883 14.7415 93.1035 14.9342 93.7186C15.1195 94.3264 15.3196 94.9638 15.3789 95.1268C15.4308 95.2899 15.6309 95.9198 15.8236 96.535C16.0163 97.1427 16.2164 97.7653 16.2683 97.9061C16.3202 98.047 16.4462 98.4175 16.5351 98.7214C16.7352 99.381 17.1058 99.8331 17.5505 99.9665C17.9729 100.093 81.9344 100.093 82.3569 99.9665C82.7867 99.8405 83.1795 99.3588 83.3797 98.7066C83.4686 98.4101 83.5872 98.047 83.6391 97.9061C83.6909 97.7653 83.8911 97.1427 84.0838 96.535C84.2765 95.9198 84.4766 95.2899 84.5284 95.1268C84.5877 94.9638 84.7878 94.3264 84.9731 93.7186C85.1658 93.1035 85.3659 92.4883 85.4178 92.3475C85.4697 92.2067 85.6698 91.5989 85.8551 90.9912C86.0404 90.3908 86.3517 89.4125 86.537 88.8048C86.7223 88.2044 86.9224 87.5967 86.9742 87.4559C87.0706 87.2113 87.5523 85.6845 88.3083 83.2684C88.501 82.6532 88.7011 82.0381 88.753 81.8972C88.8049 81.7564 89.005 81.1339 89.1977 80.5261C89.8796 78.3619 89.9907 77.9988 90.1983 77.3762C90.3094 77.0279 90.5614 76.2422 90.7467 75.6345C90.9394 75.0193 91.1395 74.3894 91.1988 74.2263C91.2507 74.0633 91.4508 73.4259 91.6435 72.8181C91.8362 72.203 92.0363 71.5878 92.0882 71.447C92.1401 71.3062 92.3402 70.6836 92.5329 70.0759C93.2073 67.8895 93.5557 66.8074 93.6446 66.5554C93.741 66.3034 93.8373 65.9995 94.534 63.7761C94.7267 63.1609 94.9194 62.5457 94.9787 62.4049C95.0306 62.2641 95.1788 61.7972 95.3122 61.3673C95.4456 60.9374 95.6309 60.3519 95.7198 60.0703C95.8162 59.7812 96.0163 59.1513 96.1645 58.6621C96.3128 58.1729 96.4832 57.6541 96.5351 57.5133C96.6315 57.2687 97.1132 55.742 97.8692 53.3258C98.0619 52.7107 98.262 52.0955 98.3139 51.9547C98.4102 51.7101 98.5733 51.1913 99.4256 48.4342C99.6183 47.819 99.8184 47.1965 99.8777 47.0408C100.174 46.233 99.7591 45.3881 98.9142 45.099C98.5436 44.973 98.5066 44.973 98.0841 45.0916C97.847 45.1657 97.5283 45.2695 97.3874 45.3288C97.2466 45.3807 96.4462 45.6623 95.6087 45.9439C94.7712 46.2256 93.9411 46.5072 93.7558 46.5813C93.5705 46.648 93.3259 46.7296 93.1999 46.7666C93.0813 46.8037 92.6811 46.9371 92.318 47.0631C91.5472 47.3373 91.4508 47.3002 91.6213 46.8259C91.688 46.648 91.7917 46.3071 91.8659 46.0625C91.94 45.8179 92.0363 45.4992 92.0882 45.3584C92.1475 45.2176 92.2883 44.7655 92.4069 44.3579C92.9183 42.668 93.0888 42.1196 93.7484 40.0592C93.867 39.6886 94.0671 39.0438 94.2005 38.6139C94.4525 37.7838 94.9787 36.0866 95.3122 35.0564C95.4234 34.7081 95.6161 34.0929 95.7421 33.6853C96.4684 31.2913 96.6018 30.8763 97.0836 29.3866C97.2096 29.016 97.4616 28.2007 97.6468 27.5708C97.8321 26.9408 98.0841 26.1403 98.1953 25.792C98.3139 25.4437 98.514 24.8137 98.64 24.3838C98.7734 23.9539 98.9068 23.5241 98.9439 23.4203C99.144 22.8644 99.5368 21.4711 99.6109 21.0783C99.6776 20.7299 99.6776 20.5224 99.6109 20.1889C99.3737 19.0549 98.7141 18.3879 97.4245 17.9802C97.2244 17.9135 96.7575 17.7653 96.3869 17.6467C96.0237 17.5356 95.3715 17.328 94.9416 17.202C92.4588 16.4387 91.3322 16.0903 90.9913 15.9643C90.6059 15.8235 89.6424 15.8383 89.257 15.994C88.3824 16.3497 87.8933 16.9278 87.5301 18.0321C87.0484 19.4996 86.4925 21.2636 86.0107 22.8644C85.6476 24.0651 85.529 24.4505 85.4178 24.7544C85.3585 24.8952 85.2177 25.3473 85.0991 25.7549C84.9064 26.3923 84.4766 27.7709 84.0689 29.0901C84.0096 29.2902 83.9059 29.5719 83.854 29.7053C83.7947 29.8387 83.7502 30.0166 83.7502 30.0981C83.7502 30.3649 83.5427 30.3353 83.1795 30.0166C82.342 29.2828 81.3118 29.0234 80.4818 29.3495C80.0964 29.5052 79.4664 29.8906 79.1921 30.1426C78.7919 30.5131 78.0137 31.0542 77.9544 30.9949C77.8655 30.9059 78.1545 29.3347 78.7475 26.5702C78.8142 26.2812 78.9179 25.7994 78.9772 25.4955C79.0439 25.1917 79.1403 24.7396 79.1921 24.495C79.3478 23.8057 79.7184 21.9973 80.1186 20.011C80.2075 19.5811 80.3039 19.0994 80.3409 18.9363C80.3706 18.7733 80.4595 18.3731 80.5262 18.047C80.5929 17.7208 80.6967 17.2539 80.7486 17.0093C80.8079 16.7648 80.8672 16.4609 80.8894 16.3423C80.9116 16.2163 81.0673 15.4677 81.2303 14.6747C81.6824 12.4809 81.6157 11.8509 80.8449 10.9986C80.252 10.3538 80.1186 10.3019 77.4134 9.74604C77.0873 9.67934 76.6203 9.57558 76.3758 9.5237C76.1312 9.4644 75.6643 9.36806 75.3382 9.30135C75.012 9.23465 74.5303 9.13089 74.2635 9.07901C72.0178 8.58985 71.4545 8.57502 70.6763 8.96042C69.9944 9.29394 69.4386 9.98321 69.2903 10.6725C69.2607 10.8133 69.1644 11.2506 69.0754 11.636C68.9939 12.0214 68.8901 12.5031 68.8531 12.7107C68.816 12.9108 68.6085 13.8965 68.401 14.8971C68.1934 15.8976 68.0007 16.8611 67.9711 17.0464C67.934 17.2317 67.8747 17.5281 67.8303 17.7134C67.7858 17.8987 67.6969 18.3138 67.6302 18.6399C67.5635 18.966 67.4745 19.3662 67.4301 19.5218C67.393 19.6775 67.3337 19.9665 67.2966 20.1518C67.2299 20.5298 66.6 23.6649 66.4888 24.1689C66.4517 24.3467 66.3628 24.7618 66.2961 25.0879C66.222 25.414 66.1256 25.8809 66.0737 26.1255C66.0219 26.3701 65.9181 26.837 65.8514 27.1631C65.7847 27.4892 65.6958 27.9043 65.6587 28.0822C65.5253 28.6751 64.9101 31.7509 64.836 32.1659C64.7619 32.6254 64.7323 32.6699 64.6137 32.5513C64.5099 32.4475 64.4136 31.6397 64.4136 30.7948C64.4136 30.4687 64.3617 29.52 64.295 28.6825C64.1764 26.9927 64.0652 25.2658 63.9615 23.4203C63.7984 20.552 63.665 18.3064 63.6279 17.8246C63.6057 17.5356 63.5538 16.6906 63.5168 15.9347C63.4797 15.1787 63.413 14.0596 63.3685 13.4518C63.3315 12.8366 63.25 11.4878 63.1833 10.4501C63.124 9.41252 63.0202 7.89316 62.9609 7.07789C62.8942 6.26263 62.8497 5.35101 62.8497 5.04714C62.8497 4.75068 62.7979 3.95023 62.7311 3.27578C62.6052 1.9343 62.4792 1.51184 62.0345 1.00785C61.738 0.674336 61.2563 0.340818 60.982 0.266702C60.8634 0.244468 60.7745 0.170352 60.7745 0.11106C60.7745 0.0147105 60.5744 -0.000112595 59.4701 -0.000112595C58.7289 -0.000112595 58.1879 0.0295335 58.2101 0.0665911ZM25.177 7.26318C25.2214 7.64858 25.3178 8.44903 25.3845 9.04195C25.4512 9.63487 25.5475 10.502 25.6068 10.9689C25.6661 11.4359 25.7625 12.2882 25.8292 12.8589C25.8959 13.4296 25.9848 14.1633 26.0219 14.4894C26.0663 14.8155 26.133 15.364 26.1627 15.7123C26.2146 16.283 26.5555 19.3662 26.7556 21.1227C26.8445 21.8861 26.978 23.0275 27.1632 24.6432C27.2299 25.2139 27.3263 26.0662 27.3856 26.5331C27.4449 27.0001 27.5412 27.8524 27.6079 28.4231C27.7562 29.7349 27.8599 30.654 27.9118 30.9578C27.9266 31.0838 27.9118 31.2098 27.8673 31.2395C27.771 31.2988 27.5931 31.1061 26.7185 29.9795C26.3109 29.4607 25.7106 28.6899 25.3845 28.2749C25.0584 27.8598 24.458 27.0964 24.0504 26.5702C21.7084 23.5759 21.486 23.3462 20.7078 23.1387C20.4855 23.0794 20.3595 22.9978 20.315 22.8793C20.2779 22.7903 20.1742 22.0344 20.0852 21.1968C19.9148 19.5515 19.7739 18.2619 19.6035 16.8611C19.5442 16.3719 19.4478 15.5048 19.3811 14.9341C19.3144 14.3634 19.2107 13.4963 19.1588 13.0071C19.0995 12.518 19.0032 11.6508 18.9364 11.0801C18.8697 10.5094 18.7882 9.79051 18.7512 9.48664C18.6103 8.34526 18.5288 7.41141 18.5733 7.30765C18.5955 7.24836 18.7734 7.18907 19.0328 7.15942C19.2626 7.12977 19.7221 7.07789 20.0482 7.04084C20.3743 7.00378 21.0932 6.91484 21.6417 6.85555C22.1901 6.78884 22.9609 6.69249 23.3463 6.6332C23.7317 6.58132 24.2802 6.54426 24.5692 6.54426L25.088 6.55909L25.177 7.26318ZM42.1493 17.1205C42.1642 21.3377 42.1419 24.8285 42.1123 24.8804C42.0826 24.9323 41.4082 25.1398 40.6152 25.3399C38.9031 25.7698 38.7475 25.8291 38.2731 26.2589C37.8284 26.6591 37.5468 27.1557 37.4282 27.7486C37.3244 28.2452 37.3467 28.4379 37.658 29.7201C37.784 30.2315 37.9618 30.9949 38.0656 31.4248C38.1694 31.8546 38.2805 32.2993 38.3176 32.4253C38.3546 32.5439 38.4362 32.8626 38.5029 33.1294C38.5696 33.3962 38.6659 33.7742 38.7252 33.9817C38.7771 34.1818 39.081 35.3825 39.3923 36.6499C39.7035 37.9098 40.0074 39.1105 40.0593 39.318C40.1186 39.5181 40.2149 39.8961 40.2742 40.1481C40.4743 40.9412 40.6226 41.5267 40.7263 41.9121C40.7782 42.1122 40.9783 42.9349 41.171 43.7279C41.3637 44.5209 41.5638 45.3584 41.6305 45.5808C41.7343 45.9662 41.7788 46.1292 42.0456 47.1372C42.4013 48.4861 42.7941 50.1759 42.7497 50.213C42.72 50.2426 42.6682 50.2426 42.6237 50.2204C42.5792 50.1907 42.0085 49.4792 41.3489 48.6343C40.6893 47.7894 39.8666 46.7518 39.5331 46.3219C37.6802 43.9651 36.776 42.8163 36.3684 42.2826C36.1238 41.9565 35.8273 41.5785 35.7087 41.4451L35.5012 41.2006V25.3547C35.5012 16.6388 35.5234 9.48664 35.5531 9.4644C35.5753 9.43476 37.0724 9.41994 38.866 9.42735L42.1345 9.44958L42.1493 17.1205ZM73.0776 11.8509C73.5001 11.925 75.4567 12.3178 76.0422 12.4438C76.2275 12.4809 76.6426 12.5698 76.9687 12.6365C77.8507 12.8144 78.4881 12.9775 78.5177 13.0368C78.5399 13.0664 78.5177 13.2517 78.4806 13.4518C78.2435 14.6154 77.8284 16.6388 77.6357 17.5652C77.5764 17.832 77.4801 18.3138 77.4134 18.6399C77.3467 18.966 77.2577 19.3662 77.2133 19.5218C77.1762 19.6775 77.1169 19.9665 77.0799 20.1518C77.0502 20.3371 76.902 21.0783 76.7538 21.7898C76.6055 22.5013 76.398 23.4944 76.3017 23.991C76.1979 24.4876 76.0867 25.0583 76.0422 25.251C75.9607 25.6067 75.857 26.1033 75.642 27.1261C75.5827 27.4299 75.479 27.9117 75.4123 28.2007C75.353 28.4824 75.1529 29.4681 74.9676 30.3871C74.7823 31.3062 74.5822 32.3067 74.5155 32.6106C74.4488 32.9145 74.3672 33.3295 74.3228 33.537C74.2783 33.7371 74.219 33.9595 74.182 34.0262C74.1523 34.0929 73.8114 34.382 73.4334 34.6784C73.0554 34.9675 72.5959 35.3232 72.4106 35.464C72.2253 35.6123 71.662 36.057 71.1581 36.4498C70.6541 36.8426 69.8981 37.4355 69.483 37.7616C69.068 38.0877 68.3713 38.6362 67.9266 38.9845C67.4893 39.3329 66.9483 39.7553 66.726 39.9258C66.511 40.1036 66.2961 40.2445 66.2516 40.2445C66.1479 40.2445 66.1775 39.9925 66.4073 38.9845C66.5777 38.2063 67.2003 35.1379 67.2966 34.6043C67.3337 34.419 67.393 34.13 67.4301 33.9743C67.4745 33.8187 67.5561 33.4259 67.6228 33.1072C67.6895 32.7959 67.7932 32.2771 67.8599 31.9584C67.9266 31.6471 68.0082 31.2543 68.0526 31.0986C68.0897 30.943 68.149 30.654 68.186 30.4687C68.2157 30.2834 68.3713 29.5274 68.5195 28.7937C68.6678 28.0599 68.8234 27.3114 68.8531 27.1261C68.8901 26.9408 68.9939 26.4739 69.0828 26.0885C69.1644 25.7031 69.2681 25.2139 69.2978 25.0138C69.3274 24.8063 69.3867 24.5098 69.4312 24.3467C69.4756 24.1837 69.5646 23.7835 69.6313 23.4574C69.7054 23.1313 69.7869 22.731 69.8166 22.568C69.8536 22.4049 70.0167 21.5971 70.1797 20.7744C70.3428 19.9443 70.5132 19.129 70.5503 18.9586C70.5874 18.7807 70.6689 18.3731 70.743 18.047C70.8097 17.7208 70.9061 17.2539 70.9654 17.0093C71.0172 16.7648 71.1136 16.2978 71.1877 15.9717C71.2544 15.6456 71.3433 15.238 71.3804 15.0601C71.4842 14.6006 72.04 11.7768 72.04 11.7323C72.04 11.6879 72.4477 11.7323 73.0776 11.8509ZM91.0654 19.0549C91.347 19.1439 91.688 19.255 91.8288 19.3069C91.9696 19.3588 92.2883 19.4551 92.5329 19.5293C92.7775 19.6034 93.2148 19.7368 93.4964 19.8257C94.2894 20.0777 94.9046 20.2704 95.7866 20.5372C96.2238 20.6706 96.6092 20.8263 96.6241 20.8856C96.6463 20.9374 96.6166 21.1079 96.5499 21.2561C96.4906 21.4044 96.3276 21.8787 96.2016 22.3086C95.794 23.6649 95.5197 24.5469 95.3122 25.1991C94.8231 26.7258 94.408 28.0599 93.9781 29.4978C93.8521 29.9276 93.7039 30.3946 93.6446 30.5354C93.5927 30.6762 93.5038 30.9578 93.4371 31.1654C93.1629 32.0473 92.6367 33.7446 92.4217 34.4635C92.2957 34.8933 92.1475 35.3603 92.0882 35.5011C92.0363 35.6419 91.94 35.9606 91.8659 36.2052C91.7917 36.4498 91.6583 36.8796 91.5694 37.1687C91.3915 37.7171 90.9987 38.9919 90.6281 40.2074C90.5095 40.615 90.3613 41.0671 90.3094 41.208C90.2576 41.3488 90.1019 41.8157 89.9759 42.2456C89.8499 42.6754 89.6498 43.3203 89.5312 43.6908C89.4201 44.054 89.2199 44.7062 89.0865 45.1361C88.753 46.233 88.6715 46.4701 88.5677 46.7666C88.5233 46.9074 88.4491 47.1224 88.4195 47.2484C88.3824 47.3669 88.2194 47.9006 88.0563 48.4342C87.8859 48.9604 87.7525 49.5015 87.7525 49.6275C87.7525 49.998 88.123 50.628 88.4788 50.88C89.0643 51.2802 89.3385 51.2283 92.8294 49.9906C94.3042 49.4718 95.8088 48.9901 95.9644 48.9901C96.0534 48.9901 96.1275 49.0271 96.1275 49.079C96.1275 49.1679 95.3715 51.5989 95.2085 52.0288C95.1121 52.2808 94.7786 53.3258 94.0893 55.5493C93.8966 56.157 93.7039 56.7796 93.652 56.9204C93.5112 57.291 93.1555 58.4101 92.7552 59.6997C92.5625 60.3075 92.318 61.0931 92.1994 61.4414C91.9548 62.2048 91.2285 64.4802 90.7541 65.9995C90.5614 66.6073 90.3613 67.2298 90.3094 67.3707C90.2576 67.5115 90.0352 68.1785 89.8277 68.853C89.6202 69.5274 89.4201 70.1574 89.383 70.2611C89.3459 70.3649 89.1681 70.943 88.9754 71.5582C88.7827 72.1659 88.5825 72.7885 88.5307 72.9293C88.4788 73.0701 88.2787 73.6853 88.086 74.3004C87.2633 76.9612 87.0632 77.5763 86.9742 77.8209C86.9224 77.9617 86.7223 78.5769 86.5296 79.192C86.3443 79.7998 86.1442 80.4372 86.0849 80.6002C86.033 80.7633 85.8329 81.3933 85.6402 82.0084C85.4475 82.6162 85.2548 83.2387 85.1955 83.3795C85.1436 83.5204 85.0547 83.802 84.988 84.0095C84.5803 85.314 84.1282 86.737 83.8614 87.5671C83.4982 88.6714 83.2463 89.4792 82.7497 91.0505C82.557 91.6582 82.3569 92.2808 82.305 92.4216C82.2531 92.5624 82.0604 93.1628 81.8751 93.7557C81.0969 96.2385 80.8523 96.9723 80.7708 97.0686C80.7115 97.1427 79.7925 97.165 76.0274 97.165C72.9516 97.165 71.3137 97.1353 71.2173 97.0909C71.1062 97.0242 71.0765 96.9278 71.0765 96.6239C71.0765 96.409 71.0395 96.0903 70.995 95.905C70.9579 95.7271 70.8912 95.3566 70.8542 95.0898C70.6837 93.8298 70.113 91.8509 69.5201 90.4576C69.1347 89.5533 68.4158 88.16 68.0304 87.5745C67.8673 87.3373 67.7413 87.1298 67.7413 87.115C67.7413 87.0482 66.6815 85.6326 66.2072 85.0694C63.9318 82.379 60.73 80.0962 57.6246 78.9623C56.2461 78.4583 54.6378 78.021 53.6224 77.8876C53.3778 77.858 53.0072 77.7913 52.7997 77.7542C52.1623 77.6282 49.7017 77.5837 48.5455 77.6653C46.2034 77.8505 43.7873 78.4286 42.0382 79.2365C41.7862 79.3551 41.5638 79.4514 41.5416 79.4514C41.4156 79.4514 39.3923 80.5113 39.1996 80.6817C39.1403 80.741 39.0661 80.7855 39.0365 80.7855C38.9698 80.7855 37.8432 81.5637 37.1466 82.1048C36.3535 82.7125 34.5896 84.4172 34.3302 84.8248C34.0634 85.2398 34.0634 85.9143 34.3154 86.2775C34.5525 86.6036 34.597 86.6554 34.9157 86.8481C35.2566 87.0557 35.9681 87.0779 36.2424 86.8852C36.3461 86.8185 36.8797 86.3293 37.4282 85.7883C40.378 82.9274 43.5353 81.3636 47.7376 80.6817C49.2422 80.4372 52.5477 80.5558 53.778 80.9041C53.9855 80.9634 54.2153 81.0079 54.2894 81.0079C54.4525 81.0079 55.6828 81.3784 56.5499 81.6897C57.632 82.0751 59.4182 83.0164 60.441 83.7427C62.2939 85.0545 63.9763 86.774 65.1992 88.6047C66.7111 90.8726 67.6005 93.2146 68.0749 96.1792C68.1934 96.9352 68.1712 97.076 67.934 97.1279C67.8525 97.1502 59.774 97.1576 49.9907 97.1502L32.2031 97.1279L32.1808 96.8982C32.1215 96.3127 32.7071 93.7112 33.1962 92.3623C33.3593 91.925 33.5075 91.4581 33.5372 91.3247C33.715 90.465 33.0109 89.6793 32.0548 89.6793C31.5879 89.6793 31.3285 89.7905 31.0543 90.1018C30.7504 90.4501 30.7134 90.5243 30.2316 91.9399C29.7647 93.2962 29.2755 95.6234 29.2755 96.4757C29.2755 96.7722 29.2385 96.9056 29.1273 97.0168C28.9791 97.165 28.8827 97.165 24.0949 97.165C20.1519 97.165 19.1959 97.1427 19.1366 97.0686C19.0921 97.0168 18.8994 96.4905 18.7141 95.8976C17.5283 92.2067 17.2466 91.3173 17.1577 91.0505C17.0984 90.8874 16.8983 90.25 16.7056 89.6423C16.5203 89.0271 16.2164 88.0933 16.046 87.5671C15.7791 86.7444 15.4975 85.855 14.9194 84.0095C14.8527 83.802 14.7638 83.5204 14.7119 83.3795C14.6526 83.2387 14.4599 82.6162 14.2672 82.0084C14.0745 81.3933 13.8744 80.7633 13.8225 80.6002C13.7632 80.4372 13.5631 79.7998 13.3778 79.192C13.1851 78.5769 12.985 77.9617 12.9331 77.8209C12.8368 77.5763 12.607 76.8426 11.8214 74.3004C11.6287 73.6853 11.4286 73.0701 11.3767 72.9293C11.2803 72.6699 10.7171 70.9134 10.0426 68.7418C9.84992 68.1266 9.64981 67.5115 9.59793 67.3707C9.54604 67.2298 9.34593 66.6073 9.15323 65.9995C8.96795 65.3844 8.76783 64.7544 8.70854 64.5913C8.65666 64.4283 8.45655 63.7909 8.26385 63.1831C8.07115 62.568 7.81916 61.7898 7.70799 61.4414C7.5894 61.0931 7.3967 60.4928 7.27812 60.1074C6.66296 58.1433 6.35168 57.1576 6.26274 56.9204C6.21086 56.7796 6.01075 56.157 5.81805 55.5493C5.63276 54.9341 5.3363 54.0225 5.17324 53.5111C5.01019 52.9997 4.84714 52.4809 4.81008 52.3623C4.78043 52.2363 4.67667 51.9028 4.57291 51.6212C4.29127 50.8133 3.77988 49.1754 3.77988 49.079C3.77988 49.0271 3.8614 48.9901 3.95775 48.9901C4.12822 48.9901 6.51473 49.7609 7.7821 50.2204C7.92292 50.2723 8.69372 50.5168 9.48675 50.7688C10.9468 51.2358 11.8214 51.51 12.9702 51.8806C13.9188 52.1844 14.7712 52.4438 15.6754 52.6958C16.1275 52.8218 16.6611 52.9775 16.8612 53.0368C17.0687 53.0961 17.3504 53.1776 17.4912 53.2146C17.632 53.2517 17.9878 53.348 18.2694 53.437C18.929 53.6371 20.0259 53.9187 21.9381 54.4005C22.7756 54.608 23.6428 54.8229 23.8651 54.8822C24.0875 54.9415 24.5247 55.0379 24.8286 55.1046C25.1325 55.1713 25.5031 55.2602 25.6439 55.2899C25.97 55.3714 28.2676 55.8309 29.1644 55.994C29.5349 56.0607 30.0834 56.157 30.3873 56.2163C31.0469 56.3349 32.0474 56.4979 33.1295 56.661C33.5594 56.7277 34.1078 56.8092 34.3524 56.8463C34.597 56.8833 35.012 56.9352 35.2789 56.9575C35.5457 56.9797 36.146 57.0464 36.6129 57.1057C39.333 57.4392 42.6014 57.6616 47.3152 57.8172C52.3698 57.9802 60.1816 57.5726 65.1844 56.8833C67.2818 56.5869 67.6746 56.535 68.3343 56.4238C68.7197 56.3645 69.3052 56.2682 69.6313 56.2163C69.9574 56.157 70.4243 56.0755 70.6689 56.0384C71.8251 55.8457 74.1153 55.401 75.1158 55.1713C75.4049 55.1046 75.768 55.0305 75.9311 54.9934C76.2275 54.9415 76.5833 54.8526 77.3763 54.6525C77.5987 54.5932 78.4658 54.3857 79.3033 54.1781C80.1408 53.9706 80.9931 53.7557 81.1933 53.7038C82.4087 53.3629 82.7719 53.2665 82.972 53.2146C83.2092 53.1628 83.5575 52.9849 83.7576 52.8292C84.4173 52.303 84.3135 51.0727 83.5649 50.5317C83.2907 50.3241 83.2314 50.3167 82.7126 50.3464C82.4087 50.3612 81.7936 50.4798 81.3489 50.6058C80.9042 50.7318 80.5114 50.8207 80.4743 50.7985C80.3854 50.7392 80.4002 50.5094 80.5188 50.2352C80.5707 50.1018 80.667 49.8202 80.7337 49.62C81.2155 48.0562 81.4971 47.1298 81.7269 46.396C81.8677 45.9291 82.0308 45.4251 82.0826 45.2843C82.1345 45.1435 82.2309 44.8248 82.305 44.5802C82.6904 43.2684 82.6459 43.3425 83.6984 42.5198C84.2246 42.1048 84.8249 41.6304 85.0398 41.4748C86.1442 40.6225 87.5449 39.4737 87.7673 39.2143C88.0786 38.8807 88.3528 38.2063 88.3973 37.6801C88.4417 37.2502 88.2713 36.5758 88.0267 36.1681C87.8785 35.9235 86.9224 34.6784 86.2183 33.8113C86.0404 33.5963 85.8996 33.3443 85.8996 33.248C85.8996 33.0998 86.2924 31.736 86.7074 30.4613C86.7964 30.1944 86.915 29.7942 86.9817 29.5719C87.0484 29.3495 87.1447 29.0457 87.1966 28.9048C87.2559 28.764 87.4041 28.2971 87.5301 27.8672C87.7821 27.0297 88.3602 25.1472 88.5381 24.6062C89.0791 22.9163 89.2866 22.2271 89.761 20.6558C89.887 20.2408 90.0352 19.7887 90.0945 19.6553C90.1538 19.5218 90.1983 19.3514 90.1983 19.2699C90.1983 19.129 90.3835 18.8993 90.5021 18.8993C90.5318 18.8993 90.7912 18.966 91.0654 19.0549ZM20.3595 26.6221C20.5596 26.8815 21.4045 27.9562 22.2346 29.016C24.6433 32.0918 25.0584 32.6254 25.34 32.9812C25.4882 33.1665 25.7106 33.4407 25.8292 33.6037C25.9552 33.7594 26.1997 34.0781 26.385 34.3152C28.149 36.5684 28.5195 37.0501 28.6752 37.2799C28.7715 37.4207 29.0235 37.7394 29.2385 37.984C29.4534 38.2285 30.1204 39.0586 30.7208 39.8368C31.3211 40.6076 31.8844 41.334 31.9733 41.4377C32.0548 41.5415 32.2179 41.7416 32.3217 41.8824C32.4328 42.0232 32.8479 42.5495 33.2481 43.0608C33.6483 43.5722 34.2635 44.3505 34.6118 44.8026C34.9602 45.2472 35.516 45.9513 35.8421 46.3664C36.1608 46.774 36.7612 47.5374 37.1688 48.0636C38.0063 49.1383 38.577 49.8646 38.7104 50.0277C38.7623 50.087 39.0069 50.4057 39.2588 50.7318C39.5108 51.0579 40.0222 51.7101 40.3928 52.177C41.8306 54.0003 42.1864 54.4894 42.1197 54.5561C42.0011 54.6747 39.2292 54.4598 36.2424 54.104C35.5309 54.0225 34.6266 53.9187 34.2412 53.8743C33.8558 53.8298 33.4334 53.7483 33.3074 53.6964C33.0925 53.6074 32.4402 52.7996 28.3861 47.6263C28.0378 47.1817 27.6228 46.648 27.4597 46.4405C26.9854 45.8402 25.4141 43.8391 23.9392 41.9491C23.1907 40.993 22.3383 39.9035 22.0493 39.5404C21.0413 38.2656 19.3811 36.1459 18.9364 35.5752C18.1656 34.5672 15.92 31.7138 15.3641 31.0171C15.0676 30.6465 14.8231 30.2834 14.8231 30.1944C14.8231 30.0462 14.9565 29.9276 17.4541 27.9784C17.9729 27.5708 18.7067 26.9927 19.0773 26.7036C19.4478 26.4072 19.8036 26.1626 19.8703 26.1626C19.9296 26.1626 20.1519 26.3701 20.3595 26.6221ZM46.7964 26.9185C46.8112 26.9704 46.8779 27.2002 46.9446 27.4225C47.0113 27.6449 47.2855 28.727 47.5523 29.8313C47.8192 30.9282 48.0637 31.9287 48.1008 32.0547C48.1379 32.1733 48.2194 32.492 48.2861 32.7588C48.3528 33.0256 48.4491 33.4036 48.5084 33.6112C48.5603 33.8113 48.8642 35.0119 49.1681 36.2793C49.4793 37.5393 49.7832 38.7399 49.8425 38.9475C49.8944 39.1476 49.9981 39.533 50.0649 39.7998C50.1316 40.0666 50.2353 40.4668 50.2946 40.6892C50.4428 41.2673 51.2136 44.3801 51.2878 44.6914C51.4063 45.2176 51.5323 45.6994 51.6287 45.9884C51.688 46.1589 51.7324 46.3516 51.7324 46.4257C51.7324 46.4998 51.7843 46.7147 51.8436 46.9074C51.9029 47.0927 52.1549 48.0785 52.4069 49.1012C52.6515 50.1166 52.9035 51.1172 52.9553 51.3247C53.0146 51.5248 53.111 51.9102 53.1777 52.177C53.2444 52.4438 53.3407 52.8218 53.4 53.0293C53.7336 54.2523 53.8225 54.7118 53.7336 54.8007C53.6743 54.86 52.7034 54.8896 50.3984 54.9119L47.1521 54.9341L47.0335 54.7562C46.9668 54.6599 46.9001 54.4598 46.8705 54.319C46.8483 54.1855 46.7815 53.9187 46.7297 53.7334C46.5814 53.2369 46.4406 52.6958 45.944 50.6577C45.6995 49.6349 45.4475 48.6343 45.3956 48.4342C45.3363 48.2267 45.2399 47.8487 45.1732 47.5819C45.1065 47.3151 45.0102 46.9297 44.9509 46.7296C44.899 46.522 44.5951 45.3214 44.2839 44.0614C43.9726 42.794 43.6687 41.5934 43.6168 41.3933C43.5575 41.1857 43.4686 40.8226 43.4019 40.578C43.2388 39.9184 43.061 39.2069 42.9794 38.9104C42.9424 38.7696 42.7941 38.1692 42.6533 37.5763C42.5125 36.9834 42.3495 36.3089 42.2828 36.0718C42.2235 35.842 42.1197 35.4418 42.053 35.1824C41.9937 34.9304 41.8974 34.5524 41.8381 34.3523C41.6454 33.6408 41.5045 33.0775 41.0228 31.1283C40.756 30.0462 40.4966 29.0234 40.4521 28.853C40.3928 28.6306 40.3854 28.512 40.4373 28.4601C40.4818 28.4157 40.8004 28.3193 41.1414 28.2378C41.4823 28.1563 41.9566 28.0451 42.1938 27.9784C42.4236 27.9191 42.8238 27.8153 43.0832 27.7486C43.3352 27.6893 43.7132 27.593 43.9133 27.5337C44.2765 27.4374 44.7878 27.3039 45.6402 27.0964C45.8699 27.0371 46.1812 26.9556 46.322 26.9185C46.6852 26.8148 46.7667 26.8148 46.7964 26.9185ZM81.3489 32.3734C81.3934 32.4031 81.7047 32.7885 82.053 33.2332C82.3939 33.6779 83.0165 34.4783 83.4389 35.0119C84.7804 36.724 85.3067 37.4207 85.3067 37.4874C85.3067 37.5319 85.2325 37.606 85.1436 37.6653C85.0473 37.732 84.6248 38.0581 84.1949 38.399C83.0017 39.3477 79.7702 41.8898 79.4886 42.0974C79.3552 42.2011 78.7771 42.6458 78.2138 43.0905C76.7315 44.2689 75.857 44.9582 75.1084 45.5437C74.7452 45.8253 74.0485 46.3738 73.5594 46.7592C73.0702 47.1446 72.3735 47.7005 72.003 47.9895C71.6398 48.2786 70.9357 48.8344 70.4391 49.2198C69.95 49.6052 69.0384 50.3167 68.4158 50.8059C66.6593 52.1844 66.4888 52.3178 65.6291 52.9923C65.1918 53.3406 64.7323 53.7112 64.6211 53.8224C64.3913 54.0373 64.3913 54.0373 62.7756 54.2078C60.2779 54.482 57.0391 54.734 56.9279 54.6673C56.8612 54.6228 56.75 54.3041 56.5129 53.3999C56.4536 53.1924 56.3572 52.8441 56.2979 52.6143C56.2312 52.3845 56.1794 52.1548 56.1794 52.0955C56.1794 51.9473 56.4906 51.6656 57.4393 50.9245C58.8327 49.8498 61.5008 47.7598 63.2277 46.396C63.6131 46.0922 64.295 45.5585 64.7397 45.2102C65.1918 44.8618 65.8885 44.3134 66.3035 43.9873C66.7185 43.6612 67.4301 43.0979 67.897 42.7347C68.3639 42.3716 68.9272 41.9269 69.1495 41.749C69.3719 41.5711 69.9129 41.1561 70.3428 40.8152C70.7727 40.4816 71.5879 39.8442 72.1586 39.3996C74.0041 37.9469 75.0417 37.139 78.8216 34.1744C80.6745 32.7144 81.1933 32.3141 81.2303 32.3141C81.2525 32.3141 81.3044 32.3438 81.3489 32.3734ZM24.1912 47.026C24.5914 47.5374 25.2807 48.4194 27.9266 51.8064C28.5937 52.6514 28.7122 52.8366 28.6604 52.8959C28.5566 52.9923 25.4141 52.3475 25.2585 52.1918C25.1918 52.1251 25.0065 51.6508 24.836 51.1394C24.673 50.628 24.2209 49.2791 23.8281 48.1377C23.4427 46.9964 23.124 45.9958 23.1314 45.9143C23.1314 45.7364 23.4649 46.0922 24.1912 47.026ZM78.4881 46.8259C78.4881 46.8852 77.9915 48.575 77.821 49.1012C77.6876 49.5015 77.3022 50.7244 77.1762 51.1394C77.0132 51.6582 76.8946 51.7916 76.4869 51.8732C76.3017 51.9102 75.9237 51.9991 75.6346 52.0584C73.9374 52.4513 73.5594 52.518 73.4853 52.3994C73.4112 52.2882 73.7224 50.6577 73.8707 50.3612C73.9374 50.2278 74.5081 49.7312 75.2863 49.1235C77.5764 47.3521 78.1545 46.8926 78.1768 46.8259C78.2138 46.7444 78.4881 46.7444 78.4881 46.8259Z" fill="black"/>
</g>
<defs>
<clipPath id="clip0_165_5">
<rect width="100" height="100.111" fill="white"/>
</clipPath>
</defs>
</svg>
