<svg width="100" height="99" viewBox="0 0 100 99" fill="none" xmlns="http://www.w3.org/2000/svg">
<g clip-path="url(#clip0_141_161)">
<path d="M46.9041 0.0926198C46.7039 0.129698 46.385 0.174192 46.1996 0.203854C46.0142 0.233517 45.7769 0.307674 45.6657 0.359583C45.5544 0.418908 45.4061 0.463402 45.3394 0.463402C45.2726 0.463402 44.8722 0.633962 44.4569 0.8416C43.2037 1.44968 41.9356 2.63619 41.3201 3.74853C41.2237 3.91909 41.0828 4.16381 41.0161 4.28246C40.8084 4.64583 40.4302 5.86199 40.3338 6.50715C40.2819 6.83344 40.2226 8.03478 40.2003 9.17679L40.1558 11.2532L39.1696 11.3051C38.0943 11.357 38.1091 11.3496 37.3379 12.017C37.0858 12.2394 35.5952 13.6039 35.3431 13.8561C35.2986 13.8931 34.9871 14.1749 34.646 14.4716C34.3049 14.7682 33.7042 15.3244 33.3112 15.7026C32.9182 16.0808 32.4287 16.5331 32.2211 16.7037C32.0209 16.8816 31.4647 17.3785 30.9975 17.816C30.5303 18.2535 29.9297 18.8023 29.6627 19.0396C29.3957 19.2769 28.9434 19.6922 28.6616 19.9591C28.3724 20.2261 27.8978 20.6636 27.6012 20.9232C27.0598 21.3978 26.563 21.9984 26.296 22.4879C26.0735 22.9106 26.0068 22.9328 25.1021 22.9328H24.2715L23.9452 22.4805C23.3891 21.7092 22.4918 21.0863 21.6538 20.9083C21.4684 20.8638 19.7183 20.8194 17.768 20.8045C14.8017 20.7823 14.1195 20.7971 13.6746 20.8861C12.2063 21.1901 11.1458 22.2135 10.7454 23.7115C10.6193 24.1935 10.6045 24.5791 10.6045 28.9988C10.6045 33.1367 10.6193 33.8412 10.7231 34.2639C11.1162 35.8879 12.2953 36.9929 13.8674 37.2153C14.4829 37.3043 20.9493 37.2821 21.4684 37.1931C22.0023 37.0967 22.4473 36.9336 22.8255 36.6963C23.174 36.4738 23.7895 35.8731 24.0268 35.5172C24.1306 35.3614 24.2864 35.2205 24.3753 35.1983C24.4643 35.176 24.9241 35.1686 25.4061 35.1835L26.2738 35.2057L26.5407 35.5394C26.8522 35.925 27.9274 37.0225 28.8841 37.9124C29.2548 38.2535 30.6193 39.5735 31.9171 40.8416C33.2148 42.1023 34.3197 43.1701 34.3642 43.2146C34.4458 43.2888 35.4395 44.2306 36.6779 45.4096C37.0413 45.7582 37.553 46.2031 37.8125 46.3885L38.2797 46.737H53.2445C69.2919 46.737 68.4095 46.7593 69.2474 46.3959C69.3809 46.3366 69.5218 46.2921 69.5589 46.2921C69.7072 46.2921 70.7899 45.6024 71.0272 45.3577C71.1607 45.2168 71.3535 45.0463 71.4573 44.9869C71.6649 44.846 71.7317 44.8831 72.3027 45.4022C72.8218 45.8842 73.5411 46.2624 74.4903 46.5665C75.0465 46.7445 77.0339 46.7889 77.3379 46.6332C77.4566 46.5665 77.6271 46.5146 77.7087 46.5146C78.1314 46.5146 79.2511 45.8768 80.0743 45.1575C80.2523 45.0092 80.4302 44.8831 80.4673 44.8831C80.5118 44.8831 80.7194 45.0463 80.9271 45.2465C81.4833 45.7656 82.3361 46.2476 83.1889 46.5072C83.8488 46.7148 84.0194 46.737 84.887 46.737C85.7472 46.737 85.9104 46.7148 86.5407 46.5146C87.5122 46.2031 88.0461 45.8991 88.8915 45.1649C89.24 44.8609 89.3513 44.8609 89.6553 45.1649C90.2782 45.7804 91.2571 46.3366 92.1025 46.5739C92.7402 46.7519 94.557 46.7815 95.0687 46.6184C95.8325 46.3811 96.0995 46.1809 96.3368 45.6618C96.5222 45.2613 96.5148 44.9795 96.2923 44.542C96.0031 43.9562 95.4617 43.6447 94.9056 43.7263C94.7276 43.7559 94.2604 43.793 93.8674 43.8153C93.2519 43.8524 93.0887 43.8375 92.718 43.6966C91.9097 43.3926 91.0865 42.5769 90.9085 41.8872C90.8789 41.7611 90.8121 41.5238 90.7751 41.3607C90.7231 41.1605 90.6935 37.0522 90.6935 29.0136C90.6935 17.4526 90.7009 16.941 90.8344 16.4738C91.0272 15.7915 91.1755 15.5468 91.6575 15.0574C92.2804 14.4345 92.755 14.2491 93.6894 14.2417C94.4977 14.2417 94.7943 14.3307 95.3505 14.7534C95.9438 15.1909 96.2997 15.6877 96.4999 16.3329C96.5593 16.5109 96.5963 20.3596 96.626 28.8431L96.6631 41.0863L96.8856 41.4126C97.5455 42.347 98.8359 42.2432 99.392 41.2124L99.5552 40.9158V28.8653C99.5552 16.2884 99.5552 16.37 99.2437 15.4059C99.0583 14.8201 98.695 14.1082 98.3613 13.6633C98.0053 13.1887 97.1748 12.3952 96.8707 12.2246C96.2552 11.8983 95.5656 11.5869 95.4469 11.5869C95.3728 11.5869 95.1874 11.535 95.0316 11.4682C94.6386 11.3051 92.6438 11.3051 92.3101 11.4682C92.184 11.535 92.0283 11.5869 91.969 11.5869C91.6279 11.5869 90.4265 12.2469 89.9148 12.7141C89.6405 12.9662 89.3809 13.1442 89.2845 13.1442C89.1881 13.1442 88.9211 12.9588 88.6394 12.6992C88.3724 12.4545 88.1203 12.2543 88.0832 12.2543C88.0535 12.2543 87.8904 12.1727 87.7272 12.0689C87.4232 11.8761 87.1488 11.7648 86.3331 11.5053C85.7472 11.3199 83.9972 11.2902 83.53 11.4608C83.3742 11.5201 83.0405 11.6314 82.7958 11.7055C82.5511 11.7797 82.299 11.8761 82.2396 11.928C82.1803 11.9725 82.0765 12.0318 82.0172 12.0615C81.7354 12.1801 81.3275 12.4693 80.979 12.7882C80.7713 12.9884 80.534 13.1442 80.4525 13.1442C80.3635 13.1442 80.0817 12.9439 79.8147 12.6992C79.5478 12.4545 79.2956 12.2543 79.2586 12.2543C79.2289 12.2543 79.0583 12.1653 78.8804 12.0541C78.7098 11.9428 78.25 11.7426 77.8644 11.6091C77.2044 11.3792 77.1006 11.3644 76.1514 11.357C75.1651 11.357 74.6386 11.4015 74.4903 11.5127C74.4532 11.5424 74.3197 11.5869 74.2011 11.6165C74.0009 11.6684 73.415 11.9354 72.8737 12.2246C72.7625 12.2839 72.4732 12.5212 72.2359 12.7437C71.7391 13.2035 71.5315 13.248 71.2645 12.9365C70.8715 12.499 70.0706 11.9799 69.3364 11.6981C69.151 11.6314 68.9286 11.5424 68.8396 11.5127C68.6838 11.446 68.6838 11.4237 68.6468 8.93949C68.6245 7.30063 68.5874 6.32918 68.5281 6.13637C68.4762 5.97323 68.3872 5.65436 68.3205 5.43189C68.2167 5.06852 68.1054 4.7274 67.9719 4.3937C67.7495 3.85235 67.0153 2.81416 66.4443 2.24316C65.8733 1.67215 64.8351 0.938004 64.2938 0.715534C63.9601 0.582052 63.619 0.470818 63.2556 0.366999C63.0331 0.300258 62.7142 0.21127 62.5511 0.159361C62.3212 0.0852041 60.5785 0.0629572 54.7647 0.0481259C50.649 0.0407102 47.1117 0.0629572 46.9041 0.0926198ZM62.2916 3.05888C63.5893 3.46674 64.6942 4.38628 65.2356 5.50604C65.7324 6.53682 65.7769 6.82603 65.7769 9.11005C65.7769 10.5709 65.7547 11.1345 65.6879 11.2013C65.636 11.2532 65.3987 11.2902 65.1466 11.2902C64.8944 11.2902 64.6571 11.2532 64.6052 11.2013C64.5385 11.1345 64.5163 10.608 64.5163 9.28802C64.5163 8.28691 64.4866 7.26355 64.4495 7.01142C64.2938 5.97323 63.5596 5.00919 62.5214 4.4901L61.9579 4.2083H54.468H46.9782L46.4147 4.4901C46.1106 4.64583 45.7028 4.91279 45.5174 5.08335C45.1466 5.43189 44.6423 6.14379 44.6423 6.32918C44.6423 6.39592 44.5904 6.5739 44.5311 6.71479C44.4421 6.92985 44.4198 7.3822 44.4198 9.05814C44.4198 11.0381 44.4124 11.1419 44.2789 11.2161C44.0787 11.3199 43.3594 11.3125 43.2482 11.2013C43.1221 11.0752 43.1369 7.50827 43.2704 6.7667C43.4855 5.54312 44.0268 4.66066 45.0279 3.88943C45.4877 3.5409 46.1254 3.20719 46.4962 3.12562C46.6371 3.09596 46.8744 3.03663 47.0153 2.99214C47.1785 2.94764 50.078 2.93281 54.6164 2.94023C60.6898 2.95506 62.0172 2.97731 62.2916 3.05888ZM61.4165 7.27097C61.5797 7.43411 61.5871 7.4786 61.6093 9.21387C61.6241 10.4004 61.6093 11.0381 61.55 11.1345C61.4684 11.2902 61.461 11.2902 54.4829 11.2902C49.1436 11.2902 47.4677 11.268 47.4009 11.2013C47.3342 11.1345 47.3119 10.608 47.3119 9.29544C47.3194 7.64916 47.3268 7.45636 47.4528 7.30804C47.527 7.22647 47.6679 7.13748 47.7643 7.11524C47.8607 7.10041 50.9382 7.08558 54.5941 7.09299L61.2459 7.10041L61.4165 7.27097ZM68.4095 14.4345C68.9508 14.7014 69.6405 15.3763 69.8481 15.8509C70.256 16.7704 70.2337 16.0214 70.2041 29.1249C70.1892 38.0607 70.1596 41.3014 70.0928 41.5609C69.8629 42.5027 69.114 43.3555 68.2241 43.6892L67.8162 43.8449H54.0083H40.1929V29.0656C40.1929 20.9306 40.2152 14.2565 40.2448 14.2268C40.2745 14.1972 46.5259 14.1823 54.1343 14.1972L67.9645 14.2194L68.4095 14.4345ZM86.0884 14.5012C86.6594 14.7682 86.9708 15.0351 87.3045 15.5394C87.8385 16.3625 87.8014 15.265 87.8014 29.1323C87.8014 36.6814 87.7717 41.6277 87.7346 41.6573C87.6976 41.6796 87.6382 41.7982 87.616 41.9243C87.5567 42.2061 87.1933 42.7697 86.8893 43.0515C85.9252 43.9636 84.4569 44.1193 83.3372 43.4222C82.6698 43.007 82.1729 42.3247 82.0172 41.5757C81.9653 41.331 81.943 37.2005 81.9579 28.7912L81.9801 16.37L82.1803 15.9473C82.4325 15.4133 83.1518 14.6792 83.6264 14.4641C84.3457 14.1453 85.3616 14.1527 86.0884 14.5012ZM77.2934 14.5012C77.9237 14.7978 78.428 15.3021 78.732 15.9399L78.9397 16.37V29.0136V41.6573L78.6876 42.1987C78.1907 43.2591 77.2267 43.8449 75.9883 43.8449C75.4098 43.8449 75.2912 43.8227 74.8462 43.6076C74.2382 43.311 73.6746 42.7548 73.3779 42.169L73.1555 41.7315V29.0507V16.37L73.3631 15.9547C73.5708 15.5172 74.1047 14.9091 74.4903 14.6495C74.9427 14.3529 75.2838 14.2639 76.0328 14.2639C76.7076 14.2565 76.804 14.2713 77.2934 14.5012ZM37.2267 28.9395C37.2267 35.8954 37.2267 41.6277 37.2267 41.6796C37.2267 41.8501 36.982 41.6425 35.484 40.2187C32.8959 37.7493 31.1162 36.0363 30.0557 34.9758L28.847 33.7819V28.7912V23.8004L29.3142 23.3481C30.1521 22.525 31.8207 20.9899 32.095 20.7823C32.1766 20.723 32.666 20.2706 33.1926 19.7737C34.1047 18.9209 34.5867 18.476 36.2849 16.9484C36.7002 16.5702 37.0858 16.2661 37.1377 16.281C37.2118 16.2958 37.2267 18.7801 37.2267 28.9395ZM21.1199 23.8004C21.3572 23.8894 21.4758 23.9933 21.5871 24.2009C21.7205 24.4753 21.728 24.6755 21.728 29.1026L21.7205 33.7226L21.5203 33.9747C21.1495 34.4122 21.0531 34.4271 17.6716 34.4271C14.1714 34.4271 14.0379 34.4122 13.7042 33.9525L13.4966 33.6633V29.0507V24.4382L13.6672 24.1861C14.0083 23.6818 13.986 23.6818 17.5752 23.6744C20.4006 23.6744 20.8381 23.6892 21.1199 23.8004ZM25.7176 25.7953L25.8807 25.8397L25.8659 29.0433L25.8436 32.2395H25.2504H24.6571L24.6349 29.0656L24.6201 25.8917L24.7832 25.8249C24.9834 25.7508 25.4729 25.7359 25.7176 25.7953Z" fill="black"/>
<path d="M13.0884 43.9266C12.0873 44.1268 11.9316 44.1935 11.4125 44.6533C11.1307 44.898 10.1592 46.2477 10.1592 46.396C10.1592 46.4182 10.0702 46.5591 9.96643 46.7148C9.86261 46.8706 9.74396 47.0634 9.70688 47.145C9.6698 47.2265 9.5734 47.3897 9.49183 47.5157C9.41025 47.6344 9.31385 47.8049 9.26936 47.8865C9.23228 47.9681 9.16554 48.0867 9.12846 48.1461C8.83183 48.6058 7.71207 50.5191 7.71207 50.5562C7.71207 50.5858 7.6305 50.7119 7.5341 50.8379C7.43028 50.9714 7.31163 51.1568 7.26713 51.2606C7.22264 51.3645 7.14848 51.5128 7.09657 51.5943C6.71837 52.2173 6.62939 52.3582 6.5404 52.4842C6.4959 52.5658 6.42916 52.6844 6.3995 52.7438C6.36984 52.8031 6.05838 53.337 5.70985 53.9303C4.98311 55.1613 4.37503 56.3181 4.37503 56.4813C4.37503 56.5406 4.33054 56.7037 4.27121 56.8372C4.01166 57.4675 3.90784 57.9644 3.78178 59.2176C3.69279 60.1223 3.83369 61.7612 4.07099 62.4731C4.11548 62.6066 4.2193 62.9255 4.30087 63.185C4.62716 64.1861 5.18334 65.1798 5.99906 66.2032C6.52557 66.8632 6.77028 67.0856 7.64533 67.7605C8.99498 68.7986 10.1296 69.251 12.1615 69.5773C12.7102 69.6589 14.1859 69.6589 14.6457 69.5699C14.8533 69.5328 15.1648 69.4809 15.3502 69.4586C16.0695 69.3622 17.4933 68.8209 18.2942 68.3463C19.2137 67.7975 20.4225 66.7297 21.0083 65.951C21.5423 65.2317 22.1503 64.112 22.4395 63.3259C23.2108 61.205 23.2108 58.6689 22.4321 56.5406C22.3061 56.1772 21.6831 54.9536 21.3569 54.4123C21.2382 54.2047 21.1047 53.9748 21.0602 53.8932C20.6079 53.0404 20.1407 52.6696 19.5252 52.6696C18.843 52.6696 18.3535 53.0107 18.1311 53.6262C17.916 54.2417 17.9902 54.4716 18.9097 56.0067C19.3546 56.7482 19.8292 57.8532 20.0072 58.5651C20.1407 59.0841 20.1555 60.2855 20.0443 60.9751C19.8737 62.0356 19.3546 63.2443 18.7095 64.1045C18.3906 64.5272 17.3524 65.5135 17.0632 65.6767C16.4848 65.9955 15.7729 66.3218 15.4614 66.4108C14.6235 66.6704 14.4603 66.6926 13.5704 66.7371C12.8511 66.7668 12.5397 66.7519 12.1763 66.6555C11.9167 66.5888 11.6349 66.5369 11.5534 66.5369C11.4718 66.5369 11.3161 66.4924 11.2123 66.4405C11.101 66.3811 10.7599 66.2106 10.4559 66.0623C9.1952 65.4394 8.6242 64.9425 7.84555 63.7931C6.3031 61.5165 6.25119 58.5873 7.70466 56.2662C8.01611 55.7768 8.07544 55.6804 8.12735 55.5617C8.17926 55.4579 8.97273 54.0934 9.12104 53.8561C9.16554 53.7968 9.35093 53.4779 9.54374 53.1516C9.74396 52.8253 9.93677 52.4916 9.98867 52.4101C10.0406 52.3285 10.0999 52.2098 10.1296 52.1505C10.1592 52.0912 10.2779 51.8984 10.3965 51.7278C10.5078 51.5573 10.6042 51.4015 10.6042 51.3719C10.6042 51.3496 10.6932 51.1939 10.8044 51.0159C11.0936 50.5784 11.1826 50.4227 11.2419 50.2966C11.2864 50.2076 11.9242 49.1101 12.2356 48.591C12.2727 48.5317 12.51 48.1312 12.7695 47.7085C13.0217 47.2933 13.2738 46.9299 13.3257 46.9077C13.4444 46.8632 13.6372 47.0115 13.7262 47.2191C13.7632 47.3007 13.8596 47.4638 13.9412 47.5899C14.0228 47.7085 14.1118 47.8643 14.1414 47.9236C14.1711 47.9829 14.4084 48.3982 14.6679 48.8431C15.4095 50.0964 15.8025 50.4449 16.47 50.4449C17.0187 50.4449 17.5749 50.0741 17.8048 49.5625C18.0643 48.9692 17.8938 48.4204 17.041 47.1153C16.9668 47.0115 16.8852 46.8706 16.8556 46.8113C16.7814 46.6481 16.0695 45.4468 16.0176 45.4023C15.9953 45.38 15.8841 45.2243 15.7729 45.0537C15.4318 44.5569 14.7421 44.1416 14.0154 44.0007C13.7632 43.9488 13.5185 43.8969 13.4666 43.8895C13.4221 43.8747 13.2516 43.8895 13.0884 43.9266Z" fill="black"/>
<path d="M2.66222 75.1687C1.54245 75.3763 0.563589 76.2365 0.140897 77.3785C0.0222469 77.7122 0 77.9718 0 79.0841C0 80.3893 0.0370782 80.7378 0.304042 82.258C0.51168 83.4 0.978865 85.0982 1.1865 85.4616C1.231 85.5357 1.26066 85.6396 1.26066 85.7063C1.26066 85.9436 2.20245 87.9013 2.80311 88.895C5.20578 92.9069 8.83945 95.9102 13.2963 97.5787C13.4446 97.6381 13.6967 97.7271 13.8524 97.7864C14.0007 97.8457 14.3344 97.9421 14.594 98.0089C16.3515 98.4612 16.7223 98.528 18.5762 98.7133C19.5551 98.8097 53.4297 98.8172 54.4679 98.7133C55.8621 98.5873 56.3293 98.528 56.4182 98.4686C56.4702 98.439 56.7297 98.3871 57.0115 98.35C57.2859 98.3203 57.7456 98.2165 58.0274 98.1349C58.3166 98.0459 58.68 97.9495 58.8432 97.9125C59.0063 97.8754 59.3252 97.7716 59.5476 97.6826C59.7701 97.5936 60.0222 97.5046 60.1038 97.4823C60.1854 97.4527 60.3189 97.3934 60.4004 97.334C60.482 97.2821 60.5933 97.2376 60.66 97.2376C60.7935 97.2376 62.9588 96.1698 63.3667 95.8954C63.5298 95.7916 63.9006 95.5469 64.1898 95.3615C64.4865 95.1687 64.7683 94.9759 64.8202 94.9239C64.8795 94.872 65.1094 94.6941 65.3319 94.5235C65.9548 94.0637 66.1921 93.8487 67.0004 93.07L67.7494 92.3433L81.5721 92.3285C94.6311 92.3062 95.432 92.2988 95.8843 92.1727C96.8409 91.9058 97.7679 91.4089 98.3389 90.8602C98.8877 90.3262 99.429 89.4957 99.6589 88.8283C99.9629 87.9755 100 87.7604 100 86.967C100 85.6173 99.6885 84.7497 98.7764 83.5409C98.2277 82.8216 97.3007 82.1764 96.2551 81.7983L95.7731 81.6277H91.7612H87.7494L87.4898 81.8279C87.0597 82.1542 86.8966 82.4879 86.8966 83.0292C86.904 83.5409 87.0745 83.934 87.4008 84.149C87.8754 84.4605 88.1424 84.4827 91.5832 84.4827C93.4001 84.4901 95.0167 84.5124 95.1872 84.5495C95.647 84.6384 96.396 85.1724 96.6778 85.5951C96.9522 86.0326 97.1746 86.8409 97.1079 87.1746C96.9077 88.1386 96.3367 88.8728 95.4616 89.2806C95.1947 89.4067 94.5273 89.4141 82.7512 89.4364C68.6689 89.4586 69.9666 89.5179 70.33 88.8357C70.4412 88.6206 70.6489 88.2499 70.7898 88.0051C71.2495 87.1968 71.6352 86.344 71.776 85.7805C71.8057 85.6544 71.8725 85.4912 71.9095 85.4097C71.954 85.3281 72.0504 85.113 72.1246 84.9277C72.1987 84.7423 72.2951 84.5717 72.3396 84.542C72.3767 84.5124 74.6682 84.4827 77.4194 84.4827C82.6029 84.4827 82.7735 84.4753 83.2332 84.1713C83.6411 83.8969 83.8191 83.5483 83.8191 82.9922C83.8191 82.436 83.693 82.1913 83.2258 81.8279L82.9588 81.6277L78.0423 81.5906C74.4457 81.5609 73.1034 81.5313 73.0367 81.4645C72.9848 81.4126 72.97 81.2643 72.9996 81.0567C73.0293 80.8861 73.0664 80.0778 73.0886 79.2769C73.1257 77.9421 73.1183 77.779 72.9848 77.423C72.7475 76.7927 72.6288 76.6147 72.1542 76.1327C71.5907 75.5691 71.0864 75.2873 70.4116 75.1687C69.67 75.0352 3.39637 75.0352 2.66222 75.1687ZM70.0408 78.1794L70.2336 78.3648L70.2039 79.3659C70.1594 80.4041 70.0185 81.5906 69.8331 82.3841C69.6107 83.3333 69.0693 84.9796 68.9581 85.0463C68.921 85.0686 68.8914 85.1501 68.8914 85.2317C68.8914 85.4467 68.1795 86.8335 67.5714 87.7975C65.9622 90.3485 63.515 92.6028 60.9195 93.9228C59.7405 94.5309 58.1906 95.1168 57.1005 95.3837C56.9596 95.4134 56.6926 95.4801 56.5072 95.532C56.3218 95.5839 55.8917 95.6507 55.5432 95.6878C55.1947 95.7174 54.7275 95.7842 54.505 95.8212C53.9562 95.9176 19.4587 95.9176 18.6504 95.8212C18.3241 95.7842 17.8272 95.7248 17.538 95.6878C16.6778 95.5839 15.2243 95.1983 14.1639 94.7905C13.9414 94.7015 13.667 94.6051 13.5632 94.568C13.4594 94.5383 13.3111 94.479 13.2295 94.4345C13.1554 94.39 13.0367 94.3381 12.9774 94.3159C12.9181 94.2936 12.8142 94.2417 12.7549 94.2046C12.6956 94.1676 12.3915 94.0118 12.0875 93.8635C11.7835 93.7078 11.4349 93.515 11.3089 93.426C11.0641 93.248 10.8417 93.1145 10.6785 93.0404C10.4561 92.9366 9.06934 91.8613 8.64664 91.4608C6.77049 89.7033 5.61364 88.1757 4.65703 86.1883C3.53726 83.8746 3.09974 82.1987 2.8921 79.4104C2.81795 78.4019 2.88469 78.1423 3.24805 78.0608C3.35929 78.0385 3.47794 78.0089 3.51502 78.0014C3.55209 77.994 18.4946 77.9866 36.7149 77.9866L69.8406 77.994L70.0408 78.1794Z" fill="black"/>
</g>
<defs>
<clipPath id="clip0_141_161">
<rect width="100" height="98.832" fill="white"/>
</clipPath>
</defs>
</svg>
