<svg width="100" height="93" viewBox="0 0 100 93" fill="none" xmlns="http://www.w3.org/2000/svg">
<g clip-path="url(#clip0_174_74)">
<path d="M68.3715 0.0741528C68.2529 0.103799 67.9639 0.20756 67.7415 0.296499C67.5192 0.385437 67.2524 0.481787 67.1486 0.518844C67.0448 0.54849 66.7187 0.711544 66.4149 0.882009C66.111 1.05247 65.8516 1.18588 65.8293 1.18588C65.8071 1.18588 65.5996 1.3267 65.3772 1.50458C65.1475 1.68245 64.8658 1.88256 64.7473 1.95668C64.4508 2.14197 62.8647 3.74286 62.5386 4.18755C61.7308 5.28445 60.8117 7.01875 60.6487 7.78214C60.6264 7.8859 60.582 7.99707 60.5523 8.04154C60.4634 8.15272 59.9891 10.0797 59.9446 10.5244C59.9224 10.7023 59.9075 10.7023 58.6253 10.8357C57.4321 10.9469 57.0022 11.0284 56.1128 11.31C55.9275 11.3693 55.72 11.4138 55.6385 11.4138C55.5644 11.4138 55.4087 11.4583 55.305 11.5175C55.1938 11.5768 54.9196 11.6954 54.6972 11.7844C52.8814 12.5107 50.7247 14.0968 49.7019 15.4531C49.5462 15.6532 49.2794 15.9867 49.1089 16.1942C48.7977 16.55 48.1751 17.4616 48.1751 17.5431C48.1751 17.5654 48.0713 17.7284 47.9527 17.9137C47.7304 18.2472 46.7373 20.2409 46.5223 20.7894C46.1443 21.7603 45.6033 23.376 45.3958 24.1616C44.8992 26.0071 44.7658 26.6148 44.6176 27.645C44.5805 27.8674 44.5212 28.1861 44.4767 28.3491C44.4323 28.5122 44.3952 28.8012 44.3952 28.9865C44.3952 29.1718 44.3656 29.4238 44.3211 29.5424C44.284 29.661 44.2173 30.0908 44.1729 30.4985C43.9209 32.9591 43.7801 33.6335 43.2835 34.6119C42.8462 35.4864 41.816 36.7464 40.7784 37.6802C40.4671 37.9619 39.9409 38.451 39.6148 38.7623C39.2887 39.081 38.755 39.5702 38.4289 39.8518C37.8508 40.3632 36.3759 41.8677 36.035 42.2902C35.9461 42.4088 35.6422 42.772 35.368 43.0981C35.0937 43.4242 34.6491 44.0097 34.3897 44.3951C33.7078 45.4179 33.6189 45.5365 33.5373 45.6032C33.4336 45.6773 33.1742 45.6254 32.685 45.4401C31.3732 44.9213 29.624 44.4618 28.4234 44.3135C28.0973 44.2765 27.7341 44.2098 27.6155 44.1727C27.4969 44.1283 27.2301 44.0986 27.0226 44.0986C26.4519 44.0986 26.4223 44.0541 26.526 43.4909C26.6594 42.8238 26.8225 42.2754 27.0671 41.7418C27.1782 41.4823 27.2746 41.2378 27.2746 41.2007C27.2746 41.0673 27.9861 39.9556 28.4234 39.4219C28.8903 38.8364 29.7278 38.073 30.3133 37.6876C30.7728 37.3838 31.5584 36.9836 31.6919 36.9836C31.9587 36.9836 32.7888 36.487 33.0926 36.1535C33.9598 35.19 33.567 33.6113 32.3515 33.1518C31.8771 32.9739 31.64 32.9665 31.0915 33.1221C30.1503 33.3816 29.4758 33.6632 28.7495 34.1079C28.5642 34.2191 28.3715 34.3154 28.327 34.3154C28.2233 34.3154 27.9416 33.6854 27.9416 33.4705C27.9416 33.3148 27.7119 32.5885 27.5785 32.3291C27.5414 32.2624 27.4525 32.0697 27.3783 31.9067C26.778 30.5429 25.7033 29.068 24.5916 28.0897C24.0283 27.5857 23.3168 27.0373 23.1241 26.9483C23.0648 26.9261 22.9166 26.8372 22.7906 26.7556C21.9383 26.2072 20.3819 25.6069 19.0997 25.34C18.0991 25.1251 15.7719 25.1103 14.8529 25.303C13.037 25.6958 12.6368 26.0886 12.3774 27.7191C12.3478 27.9415 12.2737 28.3788 12.2292 28.6826C12.1254 29.3126 12.1699 31.0024 12.3033 31.6472C12.496 32.5959 12.6146 33.1073 12.7035 33.3519C12.7628 33.4927 12.8443 33.7447 12.8962 33.9078C13.0074 34.2932 13.7486 35.7681 13.9783 36.0719C14.0747 36.1979 14.1562 36.3313 14.1562 36.3536C14.1562 36.3832 14.3118 36.6056 14.5045 36.8576C15.216 37.784 16.5056 38.9624 17.4395 39.5628C17.8027 39.7925 19.2108 40.504 19.5295 40.6226C20.3003 40.9042 21.1823 41.1488 21.6418 41.2007C22.4719 41.3119 22.9759 41.4305 22.9759 41.5268C22.9759 41.5787 22.9018 41.8826 22.8203 42.2087C22.7387 42.5348 22.635 43.0314 22.5979 43.313C22.509 44.0097 22.4126 44.0986 21.7901 44.0986C21.5158 44.0986 21.1971 44.1283 21.0786 44.1727C20.96 44.2098 20.5968 44.2765 20.2707 44.3135C19.9446 44.3506 19.5444 44.4173 19.3813 44.4544C19.2183 44.4988 18.818 44.5878 18.4919 44.6619C18.1658 44.7286 17.6693 44.8694 17.3802 44.9658C17.0986 45.0695 16.728 45.1807 16.5649 45.2178C16.4019 45.2622 16.2388 45.3215 16.2018 45.366C16.1573 45.403 16.0684 45.4327 16.0017 45.4327C15.8682 45.4327 14.7195 45.907 13.667 46.4036C13.2594 46.5963 11.9031 47.3523 11.488 47.6191C11.3028 47.7377 11.0952 47.8711 11.0285 47.9156C10.6505 48.1379 9.61292 48.879 9.33129 49.1236C9.15341 49.2793 8.84212 49.5313 8.6346 49.6869C7.55993 50.4948 5.1586 53.1259 4.37298 54.3636C4.31368 54.4599 4.09875 54.7786 3.89123 55.0825C3.69112 55.379 3.49842 55.6754 3.46136 55.7347C3.43171 55.794 3.34277 55.9422 3.26125 56.0682C3.17972 56.1868 2.8462 56.839 2.52009 57.5135C2.18658 58.1879 1.87529 58.8179 1.816 58.9217C1.76412 59.0254 1.60107 59.4701 1.45283 59.9074C1.29719 60.3521 1.14896 60.7894 1.1119 60.8709C0.867325 61.5083 0.415221 63.4575 0.266991 64.4803C0.200287 64.9472 0.111349 65.5402 0.0742914 65.7847C-0.0220585 66.3999 -0.0220585 70.1353 0.0817029 70.9209C0.126172 71.2767 0.207699 71.7881 0.266991 72.0697C0.326283 72.3513 0.370752 72.6775 0.370752 72.8035C0.370752 73.1296 0.889559 75.101 1.2379 76.0793C1.34166 76.361 1.43801 76.6797 1.46025 76.7834C1.48989 76.8872 1.54918 77.0354 1.59365 77.117C1.64553 77.1985 1.71224 77.3615 1.73447 77.4727C1.80859 77.784 2.97961 80.1186 3.40948 80.8079C3.617 81.1414 3.83193 81.4823 3.8764 81.5565C4.86214 83.1574 6.13692 84.6397 8.08615 86.4629C8.74577 87.0855 10.7395 88.6048 11.236 88.8642C11.4362 88.968 11.7919 89.1829 12.0439 89.346C12.7628 89.8129 12.7776 89.8277 12.8962 89.8722C13.1186 89.9685 13.8375 90.2947 14.4897 90.6059C14.8603 90.7838 15.2383 90.9469 15.342 90.9765C15.5792 91.0358 16.0758 91.2285 16.2685 91.3323C16.35 91.3693 16.5131 91.436 16.639 91.4657C16.7576 91.4953 16.9652 91.5546 17.0837 91.5991C17.2097 91.6361 17.521 91.7251 17.7878 91.7918C18.0546 91.8585 18.44 91.9622 18.6476 92.0215C18.8551 92.0808 19.0997 92.1253 19.1886 92.1253C19.2776 92.1253 19.411 92.1549 19.4851 92.1994C19.5592 92.2365 19.9001 92.3032 20.241 92.3402C20.582 92.3847 21.0637 92.444 21.3083 92.4885C21.5529 92.5255 22.3682 92.5922 23.1241 92.6441C24.4953 92.7256 26.2296 92.6663 27.4228 92.4959C28.5123 92.3402 28.9274 92.2661 29.0089 92.2216C29.0534 92.192 29.2757 92.1401 29.498 92.1179C29.7204 92.0882 30.0539 92.0215 30.2392 91.9771C31.0322 91.7695 31.4028 91.6658 31.6103 91.5917C31.7363 91.5546 31.9142 91.5027 32.018 91.4805C32.1217 91.4583 32.27 91.3916 32.3515 91.3397C32.433 91.2804 32.5442 91.2359 32.6109 91.2359C32.7221 91.2359 33.2335 91.0284 34.4267 90.5096C34.9085 90.3021 35.1234 90.1909 36.3018 89.5535C36.539 89.4275 37.0504 89.1162 37.4284 88.8716C37.8138 88.6196 38.1547 88.4195 38.1992 88.4195C38.2436 88.4195 38.4512 88.5085 38.6513 88.6048C38.8588 88.7086 39.0589 88.7901 39.1034 88.7901C39.1775 88.7901 39.5258 88.9309 40.5042 89.346C40.6302 89.3979 40.8673 89.4942 41.0452 89.5609C41.2157 89.6276 41.4899 89.7314 41.6529 89.7907C42.4979 90.1094 43.1056 90.3021 43.4836 90.3836C43.617 90.4132 43.743 90.4651 43.7652 90.5022C43.7949 90.5392 43.8912 90.5689 43.9876 90.5689C44.0839 90.5689 44.2766 90.6133 44.41 90.6726C44.5434 90.7319 44.8695 90.8357 45.1364 90.9024C45.4032 90.9765 45.7663 91.0729 45.9516 91.1247C46.9003 91.3916 47.7378 91.5843 48.3307 91.6806C48.5605 91.7177 48.8347 91.7844 48.9459 91.8288C49.0571 91.8659 49.272 91.903 49.4202 91.903C49.5759 91.903 49.813 91.94 49.9539 91.9845C50.0947 92.0289 50.4504 92.0957 50.7321 92.1327C51.0211 92.1698 51.5325 92.2291 51.8808 92.2735C52.2292 92.318 52.6961 92.3847 52.9185 92.4218C53.1482 92.4662 54.2451 92.5478 55.3643 92.6145C57.0393 92.7034 57.7285 92.7108 59.2183 92.6441C60.2188 92.5996 61.338 92.5329 61.7011 92.4885C62.0717 92.444 62.6869 92.3773 63.0723 92.3402C63.4577 92.3032 63.8949 92.2365 64.0358 92.1994C64.1766 92.1549 64.436 92.1253 64.6064 92.1253C64.7769 92.1253 65.0067 92.0882 65.1252 92.0438C65.2364 91.9993 65.5181 91.9326 65.7404 91.903C65.9627 91.8659 66.2814 91.8066 66.4445 91.7695C66.6076 91.7251 67.0078 91.6435 67.3339 91.5694C67.66 91.5027 68.075 91.4064 68.2603 91.3471C69.2831 91.0506 70.1799 90.7616 70.3948 90.6726C70.5282 90.6133 70.7061 90.5689 70.7877 90.5689C70.8692 90.5689 71.1953 90.4651 71.5066 90.3391C71.8179 90.2131 72.2107 90.0575 72.3737 89.9982C72.7517 89.85 73.1297 89.6869 73.3965 89.5609C73.5151 89.5016 73.6485 89.4571 73.693 89.4571C73.8857 89.4571 77.0726 87.8192 78.1399 87.167C78.7773 86.7742 79.3628 86.4184 79.4369 86.3814C80.4819 85.7662 83.0834 83.7873 84.0839 82.8312C84.3285 82.5941 84.7436 82.2309 85.0104 82.016C85.2772 81.801 85.8405 81.2452 86.2703 80.7783C86.7002 80.3187 87.3302 79.6369 87.6785 79.2663C88.0269 78.8957 88.5234 78.3176 88.7828 77.9693C89.2794 77.3171 89.902 76.5314 90.0798 76.3387C90.1614 76.2498 91.3028 74.5822 91.9772 73.5594C92.1551 73.3 93.2816 71.4249 93.3335 71.2989C93.3632 71.2396 93.504 70.9876 93.6374 70.743C93.9116 70.2687 95.2679 67.5561 95.4236 67.1855C95.4754 67.0595 95.6607 66.6667 95.8238 66.311C95.9942 65.9478 96.2462 65.3475 96.3945 64.9769C96.5353 64.5989 96.6909 64.2135 96.728 64.1097C96.7725 64.0134 96.8688 63.7317 96.9503 63.4798C97.0319 63.2352 97.1949 62.7979 97.3135 62.5163C97.4247 62.2272 97.6248 61.6491 97.7582 61.2192C98.151 59.9593 98.1806 59.8629 98.277 59.5887C98.3215 59.4479 98.3956 59.2107 98.4252 59.0699C98.4623 58.9291 98.5586 58.5733 98.6476 58.2917C98.8032 57.7803 98.8403 57.6246 99.0181 56.7353C99.07 56.4907 99.1367 56.172 99.1738 56.0312C99.2108 55.8904 99.2776 55.5346 99.3146 55.253C99.3517 54.9639 99.411 54.5192 99.4554 54.2524C99.9298 51.021 100.115 46.3369 99.8779 43.5057C99.6778 41.1044 99.3961 39.2663 99.159 38.7253C99.07 38.5326 98.692 38.0805 98.1806 37.5691C96.98 36.3536 96.3055 35.4494 95.7941 34.345C95.6385 34.0264 95.4829 33.6928 95.4384 33.6113C95.4013 33.5298 95.3346 33.3667 95.305 33.2407C95.2753 33.1221 95.216 32.9146 95.179 32.796C94.9863 32.255 94.7788 31.3804 94.5342 30.1649C94.3118 29.068 94.0598 28.6159 93.4595 28.2602C93.0667 28.023 92.0365 27.897 91.3917 28.0008C91.1101 28.0527 90.7321 28.0897 90.5542 28.0897C90.3837 28.0897 90.1095 28.1342 89.939 28.1935C89.776 28.2528 89.4276 28.3565 89.1608 28.4306C88.3974 28.6456 87.0263 29.3719 86.3667 29.9204C85.5292 30.6096 85.3513 30.9135 85.2031 31.8844C85.1364 32.3217 85.0845 32.8702 85.0845 33.1073C85.0845 33.3445 85.0474 33.7521 85.003 34.0189C84.9585 34.2858 84.8992 34.9009 84.8621 35.3901C84.7806 36.5759 84.5657 37.4875 84.2766 37.8211C84.1655 37.9545 83.4762 38.3176 83.3354 38.3176C83.2983 38.3176 83.0908 38.4659 82.8833 38.6511C82.4534 39.0291 82.2088 39.4886 81.9716 40.3558C81.8975 40.63 81.7567 41.0154 81.6233 41.3341C81.5714 41.4601 81.527 41.6009 81.527 41.6454C81.527 41.6899 81.4825 41.8307 81.4232 41.9641C81.3639 42.0975 81.1638 42.5941 80.9711 43.061C80.7784 43.5279 80.6005 43.9652 80.5635 44.0319C80.5264 44.0986 80.3633 44.4692 80.2003 44.862C80.0298 45.2548 79.7408 45.87 79.5481 46.2257C79.3628 46.5889 79.1034 47.078 78.9774 47.3226C78.8514 47.5672 78.6883 47.7747 78.629 47.7896C78.5475 47.8044 78.4512 47.7006 78.34 47.4931C77.9991 46.8335 77.7248 46.3517 77.6285 46.2405C77.5692 46.1813 77.5247 46.0997 77.5247 46.0701C77.5247 46.0404 77.2801 45.6402 76.9911 45.1807C76.6946 44.7286 76.413 44.2913 76.3611 44.2098C76.3166 44.1283 76.0276 43.6687 75.7311 43.187C74.9603 41.9419 74.1599 40.4373 73.9301 39.7999C73.5892 38.8438 73.5151 38.3695 73.5151 37.28C73.5151 36.6871 73.5447 36.1238 73.5818 36.0201C73.6189 35.9163 73.6781 35.6198 73.7078 35.353C73.73 35.0862 73.8041 34.6193 73.856 34.3154C74.1673 32.6182 74.3007 30.7801 74.3007 28.3121C74.3007 26.1924 74.2192 24.6359 74.0784 23.9022C74.0191 23.6132 73.9153 23.0795 73.8486 22.7164C73.7374 22.0864 73.693 21.9011 73.4039 20.9005C73.1519 20.0408 73.0482 19.7369 72.8406 19.2848C72.7295 19.0328 72.6331 18.7883 72.6331 18.7438C72.6331 18.6993 72.5887 18.5733 72.5294 18.4696C72.4775 18.3584 72.3515 18.1212 72.2551 17.9359C72.1662 17.7506 71.9883 17.4468 71.8623 17.2541C71.7363 17.0688 71.4917 16.676 71.3139 16.3943C71.136 16.1053 70.9211 15.794 70.8247 15.6976C70.7358 15.6013 70.4838 15.3197 70.2614 15.0603C69.5055 14.1783 68.2677 13.2296 66.9633 12.5255C66.6372 12.3476 66.274 12.1475 66.148 12.0808C66.0295 12.0141 65.4884 11.814 64.9474 11.6435C63.6652 11.2285 63.7022 11.2581 63.8505 10.7097C63.9098 10.4725 63.9616 10.1983 63.9616 10.1094C63.9616 10.0278 64.0506 9.72396 64.1543 9.44232C64.2581 9.16068 64.3693 8.84199 64.4063 8.73081C64.473 8.51588 64.725 8.00448 65.0289 7.48568C65.1327 7.30039 65.2512 7.08546 65.2883 7.00393C65.3921 6.77417 66.3407 5.70691 66.7484 5.35857C67.2524 4.9287 67.4969 4.74341 67.5562 4.74341C67.5785 4.74341 67.7119 4.66189 67.8379 4.56554C68.0676 4.39507 68.8384 4.01708 69.5203 3.74286C70.0539 3.52051 70.4245 3.24629 70.6691 2.89053C70.8766 2.57925 70.8914 2.51254 70.8914 1.88998C70.8914 1.29705 70.8692 1.19329 70.6987 0.926478C70.4541 0.54849 70.0391 0.214972 69.6833 0.0963873C69.3721 3.75147e-05 68.6976 -0.0147855 68.3715 0.0741528ZM60.6264 14.7119C61.1749 14.7341 61.7975 14.8009 61.9976 14.8527C62.2051 14.912 62.6202 15.0084 62.924 15.0825C63.2279 15.1492 63.5466 15.2307 63.6281 15.2678C64.8066 15.7569 65.481 16.083 65.9257 16.3869C66.3407 16.6686 67.1708 17.4245 67.534 17.847C68.1121 18.5066 68.8384 19.6999 69.209 20.6041C69.2683 20.7449 69.3572 20.9598 69.4091 21.0858C69.498 21.2933 69.5647 21.5231 69.8538 22.5681C70.0761 23.3538 70.1873 23.8874 70.1873 24.1468C70.1873 24.295 70.2392 24.6063 70.2985 24.8286C70.3874 25.1548 70.4097 25.7773 70.4097 28.0452C70.4097 29.7351 70.38 31.0247 70.3355 31.2915C70.2911 31.5287 70.2244 32.0697 70.1873 32.4848C70.1132 33.3593 69.9946 34.2042 69.8834 34.6934C69.7723 35.1826 69.6685 36.1535 69.624 37.1318C69.5796 37.9545 69.7056 39.2367 69.8909 39.837C69.9279 39.9556 70.0317 40.3113 70.1206 40.6152C70.2985 41.2155 70.3207 41.2674 70.506 41.638C70.5727 41.7788 70.632 41.9196 70.632 41.9567C70.632 42.0901 71.1063 43.0314 71.5362 43.7503C71.7734 44.1431 71.9661 44.484 71.9661 44.5062C71.9661 44.5211 72.0624 44.6841 72.181 44.8546C72.3737 45.1436 73.9227 47.6191 74.1377 47.9897C74.1895 48.0712 74.36 48.3528 74.5305 48.6196C74.8047 49.0643 75.6496 50.7319 75.8571 51.2507C75.909 51.3693 75.9905 51.562 76.0424 51.6658C76.0869 51.777 76.1091 51.9326 76.0869 52.0067C76.0276 52.1994 74.4638 54.3117 74.0784 54.7267C74.0339 54.7712 73.8708 54.9713 73.7226 55.1714C73.567 55.3715 73.2038 55.794 72.9073 56.1053C72.6183 56.4092 71.8994 57.1874 71.3139 57.8248C70.7284 58.4622 70.2244 58.9958 70.1873 59.0106C70.1577 59.0254 69.8167 59.3145 69.4388 59.6628C67.7119 61.2489 67.2449 61.6491 66.1925 62.4496C65.607 62.8942 64.9844 63.3538 64.8214 63.4798C64.6509 63.5983 64.3322 63.8355 64.1099 63.9986C63.8949 64.1616 63.6281 64.3395 63.5169 64.4062C63.3465 64.5025 62.4052 65.0955 61.8271 65.4586C61.7159 65.5327 61.5751 65.6143 61.5158 65.6439C61.4565 65.6736 61.212 65.8292 60.96 65.9923C60.1299 66.5407 56.1351 68.5566 55.8682 68.5566C55.8312 68.5566 55.7052 68.6011 55.6014 68.6604C55.3569 68.7864 54.5712 69.1051 53.4743 69.5201C52.6294 69.8388 52.4515 69.8981 51.8808 70.0464C51.6956 70.0908 51.4287 70.1724 51.2879 70.2242C51.1471 70.2761 50.8136 70.3725 50.5468 70.4466C50.28 70.5133 49.902 70.6096 49.6944 70.6689C48.8421 70.8987 48.7384 70.9209 48.6865 70.8913C48.6568 70.869 48.6346 69.7944 48.6346 68.4974C48.642 66.096 48.5827 65.34 48.2788 63.7762C48.0417 62.5755 47.6266 61.034 47.3895 60.4929C47.3302 60.3595 47.2857 60.2113 47.2857 60.1668C47.2857 59.8926 46.2851 57.6839 45.6181 56.4759C45.1364 55.6087 43.6541 53.4445 43.1871 52.9332C42.5942 52.2735 42.0013 51.5843 41.9346 51.4805C41.816 51.2804 39.4073 49.1681 38.9033 48.8198C37.7322 48.0119 37.1171 47.5598 37.0874 47.4709C37.0504 47.3819 38.0584 45.8774 38.3696 45.5439C38.4438 45.4623 38.7624 45.0918 39.0737 44.7286C39.637 44.0616 40.2966 43.4019 41.06 42.7275C41.6604 42.2013 43.5355 40.4447 44.1358 39.837C45.7812 38.199 46.7002 36.7909 47.3524 34.9083C47.5896 34.2413 47.8193 32.9739 47.9527 31.6472C48.0491 30.6319 48.2418 29.283 48.3233 28.9791C48.3678 28.8383 48.3974 28.6233 48.3974 28.5048C48.3974 28.3121 48.4641 27.9785 48.6939 26.9409C48.7384 26.7334 48.8051 26.4369 48.8347 26.2739C48.9311 25.8218 49.0645 25.2585 49.1534 25.0139C49.1905 24.8879 49.2572 24.6878 49.2868 24.5692C49.3239 24.4432 49.4721 24.0134 49.6203 23.6057C49.7686 23.1981 49.9094 22.7979 49.9316 22.7164C49.9539 22.6348 50.065 22.368 50.1762 22.1234C50.2874 21.8789 50.4727 21.4638 50.5764 21.197C50.6876 20.9302 50.8877 20.5448 51.0211 20.3447C51.1545 20.1372 51.2879 19.9222 51.3176 19.8629C51.4362 19.5887 51.7919 19.0402 52.0291 18.7512C52.1699 18.5733 52.3404 18.3436 52.4071 18.2398C52.6146 17.9211 53.9635 16.6389 54.4749 16.2757C55.0159 15.8978 56.2536 15.2752 56.8095 15.0973C57.647 14.8379 58.025 14.749 58.3363 14.7416C58.5142 14.7416 58.8106 14.7119 58.9959 14.6749C59.1812 14.6452 59.3961 14.6304 59.4777 14.6452C59.5592 14.66 60.078 14.6897 60.6264 14.7119ZM18.1584 29.1273C18.4623 29.1792 18.8329 29.2607 18.9737 29.3126C19.1145 29.3645 19.4184 29.4608 19.6407 29.535C19.8631 29.6091 20.1002 29.7054 20.1595 29.7499C20.2188 29.8018 20.4189 29.913 20.6042 30.0167C21.8345 30.6689 23.0648 31.8918 23.5836 32.9813C23.9765 33.8188 24.1617 34.2561 24.1617 34.3821C24.1617 34.4636 24.1988 34.6193 24.2433 34.7379C24.5175 35.442 24.6287 37.1763 24.4137 37.3838C24.2877 37.5172 23.6429 37.532 22.6794 37.4357C20.7969 37.2355 18.7513 36.0349 17.5655 34.434C17.0763 33.7669 16.4908 32.5144 16.3055 31.7584C16.1054 30.9357 16.0165 29.3867 16.1573 29.1347C16.2462 28.9643 16.2685 28.9569 16.9281 29.0013C17.2987 29.0236 17.8545 29.0829 18.1584 29.1273ZM90.9692 32.1809C91.0359 32.2698 91.0878 32.4255 91.0878 32.5218C91.0878 32.6256 91.1323 32.8553 91.1916 33.048C91.2509 33.2333 91.3695 33.6039 91.451 33.8707C91.5325 34.1375 91.6659 34.5377 91.7549 34.7601C91.8438 34.9824 91.9476 35.2641 91.9846 35.3901C92.0884 35.7458 92.6591 36.8131 93.126 37.5394C93.6596 38.3769 94.2007 39.0588 95.0233 39.9259C95.6533 40.5856 95.6756 40.6152 95.72 41.0377C95.7423 41.2748 95.8015 41.7195 95.8386 42.0234C96.0313 43.3649 96.1054 47.5302 95.9794 49.7684C95.8683 51.7103 95.6459 53.7188 95.4161 54.8453C95.3569 55.1492 95.2531 55.6309 95.2012 55.92C94.9789 57.054 94.964 57.0984 94.6453 58.1435C94.6083 58.262 94.5416 58.514 94.4897 58.6993C94.4452 58.8846 94.3637 59.1514 94.3118 59.2922C94.2599 59.4331 94.1043 59.9 93.9561 60.3299C93.6151 61.3452 93.5336 61.5824 93.4224 61.8492C93.3706 61.9678 93.3039 62.1383 93.289 62.2198C93.2372 62.3977 93.037 62.9758 92.9481 63.1833C92.9111 63.2648 92.8221 63.4798 92.7554 63.665C92.6813 63.8503 92.5108 64.2283 92.3848 64.5174C92.2514 64.799 92.0513 65.2363 91.9476 65.4809C91.5177 66.4518 90.8432 67.8229 90.6431 68.149C90.5097 68.3714 90.3393 68.6826 89.7908 69.7425C89.6277 70.0464 89.4054 70.4169 89.2942 70.5652C89.1831 70.7134 89.0867 70.8542 89.0867 70.8765C89.0867 70.8987 88.9385 71.1284 88.768 71.3879C88.5901 71.6473 88.4271 71.8918 88.4123 71.9289C88.3456 72.0919 87.345 73.5298 86.8632 74.1523C86.5816 74.5155 86.2259 74.9824 86.0702 75.1826C84.5212 77.1911 81.8679 79.7999 79.6592 81.4898C79.5481 81.5713 79.1997 81.8455 78.8662 82.0975C78.5401 82.3569 78.2585 82.5644 78.2362 82.5644C78.214 82.5644 77.9917 82.7052 77.7322 82.8831C77.4728 83.0536 76.9466 83.3945 76.5612 83.6317C76.1758 83.8689 75.7756 84.1209 75.6718 84.1801C75.242 84.447 72.9073 85.6106 72.4701 85.781C72.2181 85.8774 71.8104 86.0404 71.5807 86.1516C71.3509 86.2554 71.1286 86.3443 71.0841 86.3443C71.0471 86.3443 70.9211 86.3888 70.8025 86.4481C70.5134 86.5963 70.1428 86.7297 69.1126 87.0484C68.6235 87.204 67.9861 87.4042 67.6896 87.5005C67.4006 87.5969 67.0745 87.6784 66.9633 87.6784C66.8595 87.6784 66.7039 87.7154 66.6298 87.7525C66.5557 87.797 66.2963 87.8563 66.0591 87.8933C65.8219 87.9304 65.4958 87.9971 65.3328 88.0341C64.5175 88.2417 63.9468 88.3454 63.6652 88.3454C63.4947 88.3454 63.0648 88.3899 62.7091 88.4492C61.3676 88.6715 60.5894 88.7308 58.2548 88.7679C55.7793 88.8123 54.5045 88.7382 52.7332 88.4566C52.37 88.3973 51.7474 88.301 51.3546 88.2342C50.9692 88.175 50.5542 88.1231 50.443 88.1231C50.2133 88.1231 49.3313 87.9378 48.9162 87.8118C48.7754 87.7599 48.5234 87.7006 48.3604 87.671C47.7304 87.545 45.7441 87.0262 45.2846 86.8631C45.1438 86.8112 44.9066 86.7297 44.7658 86.6778C44.625 86.6259 44.158 86.4703 43.7282 86.3369C43.2983 86.2035 42.9203 86.0701 42.8758 86.0404C42.8388 86.0108 42.6609 85.9515 42.483 85.907C42.0902 85.7959 38.8736 84.4321 37.8731 83.9356C37.4654 83.7429 35.6422 82.7868 35.279 82.5867C35.1382 82.5051 34.7528 82.2976 34.4267 82.1197C34.1006 81.9493 33.73 81.7269 33.5966 81.6306C33.4706 81.5342 33.3372 81.4527 33.3076 81.4527C33.2779 81.4527 32.937 81.2378 32.5442 80.9784C31.5362 80.3113 30.1577 79.4516 30.0984 79.4516C30.0687 79.4516 29.9724 79.3775 29.8834 79.2811C29.7945 79.1922 29.4758 78.9328 29.1645 78.7104C28.8607 78.4881 28.3493 78.1101 28.038 77.8655C27.7193 77.6284 27.2524 77.28 26.9929 77.0947C26.741 76.902 26.5334 76.7019 26.5334 76.6426C26.5334 76.4425 27.0819 75.7162 27.6748 75.1381C28.1714 74.6489 28.2974 74.5526 28.4604 74.5822C28.8384 74.6563 29.7797 74.8564 30.5727 75.0417C31.0174 75.1455 31.4769 75.227 31.5881 75.227C31.6993 75.227 32.0328 75.2789 32.3292 75.3308C32.9073 75.4494 34.2414 75.6124 35.872 75.7607C37.9101 75.9459 43.3131 75.8274 44.7213 75.5605C45.04 75.5012 45.4402 75.4494 45.6033 75.4494C45.9961 75.4494 47.0782 75.2641 48.2863 74.9973C48.8199 74.8787 49.3906 74.7601 49.5685 74.7379C49.7389 74.7082 49.902 74.6563 49.9242 74.6267C49.9464 74.5896 50.0724 74.56 50.1984 74.56C50.3318 74.56 50.5542 74.5229 50.695 74.4785C50.8358 74.434 51.073 74.3673 51.2138 74.3376C51.3546 74.308 51.577 74.2413 51.6956 74.2042C51.8216 74.1598 52.118 74.0708 52.3626 73.9967C52.6072 73.93 52.9259 73.8337 53.0667 73.7818C53.2075 73.7299 53.5262 73.6335 53.7708 73.5594C54.3192 73.4038 55.5644 72.9443 56.2166 72.67C56.3426 72.6182 56.5872 72.5144 56.7725 72.4477C56.9577 72.3736 57.1949 72.2772 57.3061 72.2179C57.4098 72.1586 57.5433 72.1142 57.6025 72.1142C57.7211 72.1142 61.5974 70.2168 62.0791 69.9204C62.2051 69.8463 62.672 69.5646 63.1167 69.2978C63.5614 69.031 63.9765 68.779 64.0432 68.7419C64.1099 68.6975 64.4137 68.5196 64.7176 68.3343C65.3402 67.9563 66.2444 67.3263 66.8077 66.8816C67.0226 66.7112 67.2301 66.5629 67.2672 66.5481C67.4376 66.4814 68.6087 65.5994 69.2164 65.0732C69.5722 64.7694 70.0317 64.384 70.2244 64.2209C71.2768 63.3612 71.8475 62.8275 73.3372 61.3378C74.234 60.4336 75.2864 59.3219 75.6718 58.855C76.0572 58.388 76.5464 57.8248 76.7465 57.595C77.1023 57.2022 78.6216 55.1937 79.0367 54.5711C79.1479 54.4155 79.3776 54.0894 79.5629 53.8448C79.7482 53.6002 79.9186 53.3482 79.9483 53.2889C79.9779 53.2296 80.1336 52.9776 80.2966 52.733C80.4671 52.4885 80.6672 52.1698 80.7413 52.0289C80.8154 51.8881 80.9711 51.6361 81.0823 51.4731C81.186 51.31 81.2972 51.1247 81.3268 51.0654C81.3565 51.0062 81.4454 50.8505 81.5195 50.7319C82.0606 49.887 83.5207 46.9965 84.0765 45.6773C84.1803 45.4179 84.3507 45.0325 84.4545 44.8101C84.5583 44.5878 84.6398 44.3728 84.6398 44.3284C84.6398 44.2839 84.6843 44.1431 84.7436 44.0097C84.8028 43.8763 84.9511 43.4983 85.0845 43.1722C85.2179 42.8461 85.3661 42.4681 85.4254 42.3347C85.4847 42.2013 85.5292 42.0456 85.5292 41.9789C85.5292 41.7862 85.7515 41.5194 86.0702 41.3267C86.5149 41.0673 87.0411 40.593 87.4117 40.1038C88.3085 38.9254 88.6642 37.4134 88.9088 33.7299C88.9311 33.3445 88.9904 32.9591 89.0274 32.8627C89.1238 32.6552 89.6129 32.3662 90.1984 32.1661C90.7247 31.9808 90.8358 31.9808 90.9692 32.1809ZM26.8077 47.9897C27.1264 48.049 27.4821 48.1008 27.6007 48.1008C27.8453 48.1008 28.7198 48.2861 29.209 48.4344C29.4017 48.4936 29.6092 48.5455 29.6759 48.5455C29.7352 48.5455 30.1354 48.6641 30.5505 48.8049C31.9513 49.2793 31.8697 49.2422 33.3224 49.9241C33.5299 50.0204 33.7226 50.102 33.7448 50.102C33.7671 50.102 33.9153 50.1909 34.071 50.2947C34.2266 50.3984 34.4193 50.517 34.5008 50.5541C34.5823 50.5911 34.738 50.68 34.8492 50.7542C34.9603 50.8209 35.2568 51.0136 35.5162 51.1692C37.1171 52.1772 39.2146 54.119 40.519 55.8088C41.1267 56.6019 41.6307 57.3208 41.7567 57.5876C41.8086 57.7062 41.8605 57.7951 42.1718 58.2917C42.572 58.9217 43.3354 60.567 43.4836 61.1081C43.5058 61.1896 43.617 61.5083 43.7356 61.8122C43.9802 62.4644 44.3063 63.6576 44.4026 64.295C44.4397 64.5396 44.4916 64.7916 44.5138 64.8509C44.5879 65.0214 44.6843 65.9404 44.7806 67.2819C44.8399 68.1861 44.8399 68.7568 44.7732 69.5053C44.6546 70.995 44.5879 71.5064 44.5064 71.5806C44.3804 71.6917 43.4614 71.8103 42.1718 71.8918C41.2231 71.9511 40.934 71.9437 40.8673 71.8696C40.7784 71.7733 40.8377 71.0395 40.9785 70.5207C41.0823 70.1353 41.0823 66.5555 40.9785 66.1108C40.934 65.9256 40.8747 65.5624 40.8377 65.2956C40.808 65.0288 40.7413 64.6656 40.6894 64.4803C40.4671 63.6428 40.3708 63.3167 40.2744 63.0869C40.2151 62.9535 40.1706 62.7979 40.1706 62.746C40.1706 62.6052 39.889 61.99 39.6444 61.5824C39.3331 61.0858 38.7328 60.7745 38.0658 60.7745C37.295 60.7745 36.7465 61.1155 36.3908 61.8344C36.0572 62.5088 36.0795 62.7608 36.6353 64.4803C36.9837 65.5402 37.0059 65.6884 37.1986 67.4746C37.2727 68.1342 37.2653 68.4825 37.1764 69.3645C37.0652 70.4021 36.8947 71.3656 36.7465 71.7362C36.6798 71.9141 36.6798 71.9141 35.8497 71.8696C35.0493 71.8251 34.5082 71.7584 33.3891 71.5806C33.1075 71.5361 32.6702 71.4768 32.4256 71.4397C32.181 71.4101 31.8179 71.3508 31.6103 71.2989C31.4102 71.2544 30.9878 71.1655 30.6839 71.0988C30.1058 70.9802 29.5722 70.8468 28.9348 70.6689C28.4085 70.5133 27.4302 70.5207 27.0745 70.6838C26.3704 71.0099 24.5027 72.6478 23.9765 73.3964C23.8282 73.6113 23.5762 73.9671 23.4206 74.1894C23.1167 74.6193 22.5534 75.7088 22.3385 76.2646C22.2718 76.4499 22.1977 76.8576 22.1829 77.1688C22.1532 77.6876 22.168 77.7766 22.3607 78.1249C22.4867 78.3621 22.7461 78.6586 23.05 78.9031C23.3168 79.1255 23.68 79.4294 23.8653 79.585C24.2655 79.9259 25.5922 80.9561 26.0369 81.2674C26.2073 81.3934 26.6075 81.6825 26.9188 81.9196C27.2375 82.1494 27.5266 82.3421 27.5636 82.3421C27.6007 82.3421 27.6748 82.4014 27.7267 82.4681C27.786 82.5348 28.201 82.8312 28.6457 83.1203C30.7876 84.5137 31.5659 85.0102 31.6029 85.0102C31.6326 85.0102 31.7734 85.0918 31.929 85.1807C32.0773 85.277 32.4701 85.4994 32.7962 85.6773C33.9153 86.2776 33.9894 86.3888 33.4854 86.6334C32.055 87.3078 31.1656 87.6784 30.9433 87.6784C30.8544 87.6784 30.7209 87.7303 30.6394 87.7896C30.5653 87.8488 30.4245 87.9007 30.3281 87.9007C30.2318 87.9007 30.0687 87.9452 29.9576 87.9971C29.8464 88.0564 29.4758 88.1527 29.1275 88.2268C28.7791 88.2935 28.2677 88.3973 27.9787 88.4566C26.7928 88.6938 26.148 88.7531 24.31 88.7531C23.1019 88.7531 22.1903 88.716 21.7901 88.6567C20.8043 88.5011 20.0113 88.3528 19.5518 88.2342C19.3146 88.175 18.9144 88.0712 18.6624 88.0045C18.403 87.9378 18.0843 87.8414 17.9509 87.7821C17.8175 87.7229 17.647 87.6784 17.5803 87.6784C17.5062 87.6784 17.3876 87.6339 17.3061 87.582C17.2246 87.5302 16.9726 87.4264 16.7502 87.3449C16.5279 87.2707 16.0906 87.0855 15.7867 86.9298C15.4829 86.7816 15.0456 86.5667 14.8232 86.4629C14.3859 86.248 14.2896 86.1961 13.8078 85.8774C13.6374 85.7662 13.4817 85.6773 13.4595 85.6773C13.4299 85.6773 13.1927 85.5216 12.9111 85.3289C9.85009 83.2092 7.41911 80.3929 5.84787 77.154C5.4847 76.4055 5.42541 76.272 4.93625 74.9454C4.87696 74.7972 4.7732 74.4562 4.70649 74.1894C4.63238 73.9226 4.54344 73.6039 4.50638 73.4853C4.35815 73.0258 4.21733 72.3588 4.14322 71.7807C4.10616 71.4546 4.04687 71.1136 4.00981 71.0321C3.97275 70.9432 3.92087 70.1575 3.89123 69.2904C3.81711 66.8075 3.99499 65.0065 4.48415 63.2352C4.54344 63.0277 4.6472 62.6571 4.71391 62.4199C4.8399 61.9826 4.98072 61.5824 5.1586 61.1599C5.21789 61.0265 5.26236 60.8783 5.26236 60.8338C5.26236 60.7004 6.3148 58.5214 6.58161 58.099C6.64831 57.9878 6.8336 57.6914 6.98924 57.4319C7.33759 56.8316 7.29312 56.8983 7.81933 56.2165C8.06391 55.9052 8.33814 55.5272 8.43449 55.3938C8.69389 55.001 10.9544 52.7775 11.5251 52.3402C12.5182 51.5991 13.0074 51.2433 13.1186 51.1914C13.1779 51.1618 13.4817 50.9765 13.7856 50.7764C14.3415 50.4058 14.7639 50.1835 15.7867 49.7166C16.6983 49.2941 17.8842 48.842 18.566 48.6567C18.8106 48.59 19.1812 48.4936 19.3813 48.4344C19.8927 48.2861 20.8488 48.1008 21.1378 48.0934C21.2713 48.0934 21.5825 48.049 21.8271 47.9897C22.4867 47.8414 26.0295 47.8414 26.8077 47.9897Z" fill="black"/>
<path d="M61.6492 18.7438C60.8042 18.9217 60.1298 20.0482 60.3299 20.9376C60.4485 21.4861 60.7005 21.8715 61.1081 22.1383C62.0494 22.7608 62.3607 23.2574 62.6942 24.6434C62.9165 25.5624 63.0203 27.1411 62.9684 28.6901C62.8943 30.9951 62.8202 31.8029 62.5089 33.552C62.3607 34.4192 62.3755 34.9676 62.5608 35.3975C62.8943 36.1609 63.502 36.5537 64.347 36.5463C65.0881 36.5463 65.7033 36.1683 66.0294 35.5087C66.2221 35.1307 66.5334 33.3667 66.6371 32.129C66.6668 31.7214 66.7261 31.1729 66.7705 30.9061C66.8669 30.2984 66.8669 25.807 66.7705 25.3104C66.7261 25.1029 66.6668 24.7545 66.6297 24.5322C66.4963 23.7169 66.3332 22.9684 66.2591 22.835C66.2221 22.7534 66.185 22.6349 66.185 22.5756C66.185 22.4125 65.5402 21.0858 65.4068 20.9747C65.3475 20.9228 65.2956 20.8413 65.2956 20.7968C65.2956 20.7227 65.1622 20.5596 64.6286 19.9593C64.3173 19.6184 63.8356 19.2478 63.3612 18.9958C62.8795 18.7364 62.168 18.6326 61.6492 18.7438Z" fill="black"/>
<path d="M73.5968 74.1227C73.1966 74.3005 72.7445 74.7156 72.5518 75.0936C72.3517 75.4864 72.3591 76.3313 72.5666 76.7612C72.7593 77.1614 73.2781 77.6209 73.6561 77.7321C74.9457 78.1175 76.1909 77.1984 76.1909 75.857C76.1909 74.5303 74.7901 73.5964 73.5968 74.1227Z" fill="black"/>
<path d="M69.0016 76.9687C68.8163 77.0206 68.3049 77.2355 67.8528 77.4505C66.9412 77.8803 66.6002 78.036 66.1111 78.2287C65.9258 78.2954 65.696 78.3917 65.5923 78.4288C65.4885 78.4733 65.3106 78.5326 65.1846 78.5622C65.0661 78.5993 64.777 78.6956 64.5547 78.7846C64.3323 78.8735 63.9173 79.0069 63.6282 79.0884C63.3466 79.17 62.9612 79.2811 62.7759 79.3404C61.6938 79.6739 59.4185 80.1186 58.7737 80.1186C58.6254 80.1186 58.1733 80.1705 57.7657 80.2298C57.3655 80.2891 56.7726 80.341 56.4539 80.341C55.5793 80.341 54.9938 80.6597 54.5936 81.3341C54.4305 81.6158 54.4009 81.7492 54.4009 82.268C54.4009 83.1055 54.6825 83.5872 55.3792 83.943C55.7127 84.1134 55.7942 84.1208 57.195 84.1208C58.0029 84.1208 58.8033 84.0838 58.9812 84.0467C59.1591 84.0023 59.5741 83.9356 59.9076 83.8985C60.9897 83.7651 62.4127 83.4983 62.8871 83.3352C63.0575 83.2759 63.2354 83.2315 63.3021 83.2315C63.3614 83.2315 63.7246 83.1351 64.11 83.0091C64.4954 82.8905 64.9994 82.7349 65.2217 82.6682C65.6145 82.557 66.0518 82.394 66.3705 82.2606C66.578 82.1716 67.1561 81.9715 67.334 81.9196C67.4748 81.89 67.623 81.8233 68.2086 81.5713C68.3345 81.512 68.8682 81.26 69.3944 81.0154C69.9132 80.7634 70.3579 80.5633 70.3801 80.5633C70.4542 80.5633 71.0323 80.089 71.1509 79.9333C71.4474 79.5405 71.5215 79.2959 71.5215 78.7697C71.5215 78.3028 71.4919 78.1768 71.2992 77.8433C70.8174 77.0058 70.0021 76.6945 69.0016 76.9687Z" fill="black"/>
<path d="M34.1672 56.0016C33.5372 56.2758 33.1518 56.7428 32.9888 57.4394C32.8183 58.1954 33.1444 58.9662 33.8633 59.4776C34.1524 59.6851 34.2191 59.7 34.8565 59.7C35.5161 59.6925 35.5532 59.6851 35.9534 59.4183C36.9465 58.7587 37.0947 57.5284 36.2943 56.5871C35.7533 55.9571 34.8491 55.7051 34.1672 56.0016Z" fill="black"/>
</g>
<defs>
<clipPath id="clip0_174_74">
<rect width="100" height="92.7182" fill="white"/>
</clipPath>
</defs>
</svg>
