<svg width="100" height="101" viewBox="0 0 100 101" fill="none" xmlns="http://www.w3.org/2000/svg">
<g clip-path="url(#clip0_136_92)">
<path d="M21.1601 0.0740971C21.1897 0.118566 21.0934 0.200093 20.9525 0.259385C20.8191 0.311266 20.5375 0.511377 20.33 0.696665C20.0113 0.985715 19.8556 1.23771 19.2108 2.53472C18.5364 3.89844 17.8694 5.37334 17.7137 5.85509C17.6767 5.95885 17.5803 6.22566 17.4914 6.44801C17.4024 6.67035 17.232 7.1521 17.106 7.52268C16.9874 7.88584 16.8317 8.24901 16.7724 8.31571C16.7132 8.38242 16.4908 8.45653 16.2833 8.48618C15.3643 8.60476 14.4304 8.96793 13.6448 9.50897C12.8962 10.0204 11.866 11.221 10.4208 13.2666C10.065 13.778 9.67221 14.3265 9.55362 14.4895C9.43504 14.6526 9.19787 15.0157 9.0274 15.29C8.84953 15.5716 8.65683 15.8755 8.59753 15.9718C8.33072 16.4017 7.41169 17.9285 7.24123 18.2323C7.14488 18.4176 6.90029 18.8475 6.7076 19.1958C6.37408 19.8036 5.25494 22.0641 4.86954 22.9016C4.40261 23.9318 3.49099 26.1775 3.29088 26.7926C3.239 26.9557 3.12783 27.2744 3.03889 27.4967C2.89066 27.8747 2.72019 28.3935 2.35703 29.572C2.2755 29.8388 2.18656 30.1501 2.14951 30.2761C2.07539 30.5503 1.80117 31.5583 1.66035 32.0548C1.60105 32.2549 1.52694 32.6033 1.48247 32.8182C1.44541 33.0331 1.39353 33.2333 1.3713 33.2703C1.34906 33.3148 1.30459 33.4853 1.26754 33.6631C1.23048 33.841 1.1193 34.3969 1.01554 34.9083C0.637556 36.776 0.22251 39.8592 0.0668681 41.9863C-0.0739509 44.0244 0.0594565 51.2062 0.252156 51.7324C0.274391 51.7917 0.326271 52.1771 0.363329 52.5848C0.51156 54.1189 1.00813 56.9205 1.34906 58.1434C1.39353 58.3065 1.45282 58.5733 1.48247 58.7363C1.51212 58.8994 1.60847 59.2996 1.70482 59.6257C1.79375 59.9518 1.89751 60.315 1.92716 60.441C2.16433 61.3378 2.75725 63.2351 3.03889 63.9614C3.12783 64.1838 3.22418 64.4506 3.26124 64.5544C3.29088 64.6581 3.35017 64.8212 3.39464 64.9249C3.43911 65.0287 3.63181 65.5105 3.8171 65.9996C4.0098 66.4888 4.26179 67.0965 4.38038 67.3559C4.49896 67.6153 4.59531 67.8377 4.59531 67.8599C4.59531 67.9488 5.76633 70.3428 6.29996 71.3359C6.72242 72.1215 7.66368 73.7521 7.98979 74.2635C10.028 77.4282 11.6437 79.5701 13.7411 81.8751C15.3494 83.639 17.8026 86.0107 19.0923 87.0409C19.2998 87.2114 19.7815 87.5968 20.1669 87.9007C21.0118 88.5825 21.5084 88.9605 22.546 89.7017C23.3242 90.2649 25.4588 91.6806 25.5255 91.6806C25.5477 91.6806 25.7033 91.7769 25.8812 91.8955C26.1703 92.0882 27.1708 92.6737 28.1269 93.1999C29.2979 93.8521 31.7067 95.0306 32.9815 95.5716C33.8041 95.9274 34.5379 96.209 36.413 96.9131C36.5612 96.9724 36.8132 97.0613 36.9689 97.1206C37.3098 97.254 38.718 97.6839 39.6518 97.9433C40.0372 98.0545 40.4893 98.1879 40.6524 98.2472C40.8228 98.3065 41.0304 98.3509 41.1193 98.3509C41.2082 98.3509 41.4084 98.3954 41.5566 98.4547C41.7122 98.5066 42.105 98.6103 42.4311 98.6844C42.7573 98.7511 43.2094 98.8549 43.4317 98.9068C43.6541 98.9661 43.9579 99.0328 44.0987 99.055C44.2396 99.0773 44.7065 99.1662 45.1364 99.2403C48.1751 99.7962 51.0359 100.063 54.4378 100.107C56.9281 100.145 58.1288 100.085 60.5153 99.7888C63.1464 99.4627 65.985 98.9364 67.6303 98.4695C67.8379 98.4102 68.1936 98.3065 68.4308 98.2472C70.2688 97.7506 71.6326 97.3207 72.7072 96.9057C72.8481 96.8464 73.4187 96.6389 73.9672 96.4313C75.531 95.8607 76.7762 95.3122 78.8217 94.3042C81.4528 93.0146 81.9865 92.6366 82.4163 91.7769L82.6757 91.2729V88.8271C82.6757 86.6037 82.6609 86.3517 82.5349 86.0181C82.2681 85.3215 81.8531 84.8397 81.1712 84.4469C81.0378 84.3728 80.9414 84.2838 80.9563 84.2468C80.9637 84.2097 81.1415 84.1134 81.3417 84.0319C81.5492 83.9503 81.816 83.8392 81.9346 83.7873C82.3867 83.5946 82.5423 83.5279 83.0093 83.3352C83.9135 82.9646 86.3222 81.801 87.3302 81.2377C87.5451 81.1191 87.849 80.9487 88.012 80.8597C88.1751 80.7708 88.4123 80.6374 88.5308 80.5559C88.6568 80.4817 88.8051 80.3928 88.8644 80.3632C89.272 80.1779 91.7549 78.5547 93.0445 77.6283C95.2309 76.0719 98.9959 72.7441 99.5221 71.9066C99.9965 71.1506 100.093 70.3502 99.8112 69.4089C99.6704 68.9568 99.5444 68.5047 99.2183 67.2892C99.0774 66.7704 98.8773 66.1701 98.7736 65.9551C98.4252 65.1918 97.7582 64.673 96.8466 64.4432C96.2981 64.3098 96.3426 64.3098 94.5342 64.6655C92.2811 65.1102 88.2788 65.5697 88.1751 65.3919C88.1454 65.3474 88.2788 65.2066 88.4715 65.0732C89.9687 63.9985 91.8067 62.4199 93.4521 60.8115C95.3717 58.929 96.5575 57.5875 98.2251 55.4085C99.6778 53.5112 99.9816 52.9553 99.9816 52.1771C99.9816 51.6213 99.9149 51.4508 98.9737 49.5386C98.0102 47.5746 97.7434 47.2633 96.7206 46.9446C96.098 46.7519 95.594 46.8112 94.6083 47.1966C93.7856 47.5153 92.9481 47.8266 92.4589 47.9896C91.7993 48.212 91.488 48.3231 91.1619 48.4417C90.9248 48.5232 90.065 48.7826 89.0126 49.0939C88.7902 49.1606 88.3085 49.2792 87.9379 49.3607C87.5748 49.4497 87.1745 49.546 87.0485 49.5831C86.6113 49.7165 85.6329 49.9314 84.2692 50.2057C82.8091 50.5021 82.6313 50.5318 80.8229 50.7689C76.5909 51.3396 71.0396 51.3693 67.0374 50.843C65.0289 50.5836 63.3687 50.2649 61.4639 49.7684C60.5153 49.5238 58.907 49.0569 58.0695 48.7752C57.1356 48.4639 56.98 48.4047 55.5718 47.8562C54.7491 47.5301 54.4749 47.4115 53.3631 46.9001C52.6294 46.5592 50.9025 45.6846 50.4727 45.4326C50.2651 45.3141 50.0798 45.2103 50.065 45.2103C49.9835 45.2103 47.2635 43.5279 46.5816 43.0609C46.174 42.7793 45.6922 42.5125 45.5143 42.468C44.8918 42.3124 44.3507 42.5199 43.9505 43.0684C43.7652 43.3278 43.7282 43.4463 43.7282 43.8169C43.7282 44.2764 43.8912 44.6989 44.1432 44.9212C44.5879 45.3066 47.1301 46.9298 48.6198 47.7673C49.3609 48.1897 51.7104 49.383 52.3997 49.6868C53.8523 50.3391 54.4304 50.5762 55.2827 50.8875C55.7941 51.0728 56.2981 51.2581 56.3945 51.2952C57.2394 51.6435 59.6111 52.355 61.1453 52.7182C65.3846 53.7261 68.1788 54.0819 72.4849 54.156C76.4797 54.2227 80.0965 53.9559 83.3057 53.3556C83.5281 53.3111 83.8468 53.2592 84.0098 53.2444C84.1729 53.2221 84.5064 53.1629 84.751 53.1036C84.9955 53.0517 85.4773 52.9479 85.8256 52.8812C86.174 52.8071 87.1894 52.5699 88.0861 52.3476C88.9829 52.1178 89.813 51.9325 89.9316 51.9251C90.1243 51.9177 90.1466 51.9474 90.28 52.3995C90.5023 53.1554 90.6505 53.6001 90.7617 53.8595C90.821 53.9855 90.8655 54.1115 90.8655 54.1412C90.8655 54.2375 91.4732 55.4011 91.74 55.8088C91.8808 56.0311 92.1625 56.4239 92.3626 56.6759C92.5553 56.9353 92.7184 57.2021 92.7184 57.2837C92.7184 57.5505 90.5171 59.6479 88.227 61.5601C87.2783 62.3457 84.3656 64.3765 83.9357 64.547C83.8986 64.5618 83.8097 64.6137 83.7504 64.6655C83.6911 64.7174 83.4762 64.8508 83.2687 64.962C83.0685 65.0732 82.6831 65.2807 82.4237 65.4289L81.9568 65.6883L80.645 65.6439C77.5544 65.5327 74.2785 65.1843 71.4843 64.6507C70.0984 64.3913 68.0231 63.917 66.778 63.576C65.0141 63.0869 64.688 62.9905 63.9987 62.746C63.7171 62.6496 63.0278 62.4124 62.4793 62.2272C61.9309 62.0345 61.3824 61.8343 61.2564 61.7825C61.1378 61.7232 60.7673 61.5749 60.4412 61.4415C60.115 61.3155 59.7964 61.1747 59.7297 61.1451C59.6629 61.108 59.2775 60.945 58.8773 60.7745C56.6168 59.8184 53.3854 58.0248 50.9915 56.4091C46.5742 53.4297 42.6683 49.8721 39.3405 45.8032C38.2585 44.484 37.169 43.0017 36.1981 41.5416C35.7163 40.8078 35.279 40.1408 35.2346 40.0593C35.1901 39.9778 34.9233 39.5108 34.6342 39.0217C33.856 37.7098 33.6485 37.3318 32.7739 35.5753C31.2546 32.5514 30.5727 30.7059 31.4399 31.9807C32.5219 33.5668 34.2414 35.7828 35.3606 37.0205C35.5088 37.1836 35.8201 37.5319 36.0572 37.7988C36.8058 38.6363 38.6439 40.4669 38.881 40.6151C39.2071 40.8227 40.3115 40.8301 40.6894 40.63C41.2008 40.3632 41.4232 39.5553 41.149 38.9698C41.0823 38.8216 40.4226 38.0878 39.6889 37.3392C38.9551 36.5907 38.0139 35.5975 37.6062 35.1306C35.8052 33.0924 33.7967 30.3724 32.4923 28.2157C32.3737 28.0155 32.2181 27.7636 32.1514 27.6598C32.0772 27.5486 31.9883 27.393 31.9438 27.3115C31.8994 27.2299 31.8104 27.0595 31.7363 26.9409C31.6103 26.7334 31.2916 26.1627 30.8469 25.3474C30.5949 24.8879 29.498 22.6941 29.498 22.6496C29.498 22.6274 29.3498 22.3013 29.1719 21.9233C28.5716 20.6337 27.9046 18.892 27.0819 16.4536C26.5408 14.8675 26.0887 13.9188 25.5996 13.3556C25.2512 12.9627 25.2068 12.7775 25.3772 12.4662C25.4365 12.355 25.733 11.7621 26.0443 11.1395C26.9188 9.37556 28.1491 7.38186 29.4239 5.6698C30.1725 4.66924 30.3207 3.98738 30.002 3.13506C29.8093 2.63107 29.3869 2.17897 28.9051 1.94921C28.6161 1.80839 28.075 1.64534 27.1634 1.40817C27.0448 1.37853 26.6224 1.26735 26.237 1.16359C25.3253 0.911599 24.2433 0.629962 23.2946 0.392793C22.7906 0.266797 22.5312 0.170447 22.5312 0.103743C22.5312 0.0222165 22.3756 -1.81208e-05 21.8197 -1.81208e-05C21.3602 -1.81208e-05 21.1304 0.029628 21.1601 0.0740971ZM23.1241 3.37223C23.3465 3.43893 23.9023 3.58716 24.347 3.70574C25.3476 3.96515 26.3037 4.21714 26.4815 4.26902C26.6817 4.32831 26.6298 4.55066 26.2888 5.01017C25.2512 6.42577 23.5243 9.40521 22.9685 10.7467C22.798 11.1617 22.6276 11.4137 22.5238 11.4137C22.4867 11.4137 22.4126 11.3174 22.3533 11.1988C22.0495 10.6207 21.0637 9.68685 20.2559 9.2051C19.9965 9.05687 19.7889 8.90122 19.7889 8.85675C19.7889 8.68629 20.204 7.51527 20.6116 6.52212C20.871 5.88473 20.8933 5.84768 21.4936 4.56548C21.7382 4.04667 21.9383 3.59457 21.9383 3.56493C21.9383 3.53528 21.9902 3.43893 22.0569 3.34258C22.1977 3.14988 22.3607 3.15729 23.1241 3.37223ZM18.3363 11.5768C19.2331 11.9251 19.9965 12.6811 20.2781 13.5112C20.4337 13.9485 20.4486 15.1417 20.3152 15.8977C19.9816 17.7951 19.6778 23.0795 19.7445 25.755C19.8112 28.4676 20.0483 31.8102 20.3152 33.6483C20.493 34.9453 20.619 35.7161 20.7228 36.146C20.7821 36.398 20.8266 36.6944 20.8266 36.7982C20.8266 36.902 20.871 37.1762 20.9303 37.4134C20.9896 37.6431 21.0934 38.1026 21.1601 38.4287C21.3454 39.3478 21.8493 41.4378 22.0569 42.1345C22.1162 42.3346 22.2199 42.6904 22.2792 42.9127C22.3459 43.1351 22.4497 43.4686 22.5016 43.6539C22.6868 44.2468 23.554 46.7889 23.717 47.2114C23.7986 47.4337 23.9172 47.7376 23.969 47.8784C24.1543 48.375 24.7398 49.7832 24.9325 50.1982C25.0363 50.4354 25.1252 50.6429 25.1252 50.6652C25.1252 50.7319 26.8669 54.2375 27.1634 54.7563C27.3042 55.0157 27.5414 55.4308 27.6822 55.6754C27.823 55.9125 27.9416 56.1275 27.9416 56.1423C27.9416 56.2386 29.0608 58.0174 30.1577 59.6554C31.1286 61.1154 33.189 63.8651 33.8338 64.5692C33.9746 64.7174 34.3378 65.1325 34.6416 65.4956C35.7978 66.8668 38.0583 69.1495 39.8371 70.743C42.4237 73.0628 45.7441 75.4864 49.0274 77.4652C49.398 77.6876 49.7463 77.8877 49.8056 77.9173C49.8649 77.947 50.0206 78.0285 50.1391 78.1026C50.2651 78.1768 50.5987 78.3695 50.8803 78.5251C51.1693 78.6807 51.5844 78.9031 51.8067 79.0291C52.5479 79.4441 54.3563 80.3187 54.7565 80.4595C55.1345 80.5929 55.1493 80.5929 55.5347 80.4595C56.0017 80.2964 56.2907 80.037 56.4834 79.6072C56.6613 79.207 56.6613 78.9105 56.4834 78.5251C56.2685 78.0508 56.0387 77.8803 54.6083 77.1614C53.0815 76.398 52.748 76.2201 51.1767 75.3159C50.0576 74.6711 49.8871 74.5673 48.2418 73.4853C47.7526 73.1591 47.2635 72.8405 47.1671 72.7812C46.5445 72.3884 44.0839 70.5132 43.1278 69.7054C39.8149 66.9112 36.665 63.5835 34.0784 60.1445C33.4706 59.3292 31.388 56.246 31.1286 55.7717C31.0396 55.6087 30.9062 55.3715 30.8247 55.2529C30.7506 55.1269 30.6542 54.9639 30.6098 54.8823C30.5653 54.8008 30.4912 54.6674 30.4393 54.5859C29.7426 53.4297 27.7193 49.4571 27.7193 49.2422C27.7193 49.2273 27.6229 49.005 27.5043 48.753C27.3932 48.4936 27.1856 48.0193 27.0522 47.6931C26.9188 47.367 26.7706 46.9965 26.7187 46.8779C26.6668 46.7519 26.5557 46.4554 26.4741 46.2108C26.3852 45.9663 26.2444 45.5809 26.1628 45.3585C26.0739 45.1362 25.9776 44.8471 25.9405 44.7285C25.8812 44.5136 25.7923 44.2468 25.5996 43.728C25.4439 43.2833 25.0734 42.0233 24.8288 41.0969C24.7028 40.6077 24.5471 40.0519 24.4878 39.8592C24.4286 39.6665 24.3841 39.4515 24.3841 39.3848C24.3841 39.3181 24.3396 39.0884 24.2803 38.8808C24.1469 38.4065 23.9839 37.7172 23.8356 36.9464C23.7763 36.6203 23.6874 36.1682 23.6429 35.9459C23.6059 35.7235 23.5169 35.2047 23.4576 34.7971C22.5386 28.7122 22.4423 22.746 23.1686 16.75C23.3168 15.5197 23.3316 15.4752 23.4725 15.5049C23.7245 15.5494 24.1617 16.7723 24.1617 17.4393C24.1617 17.5801 24.2062 17.9433 24.2655 18.2397C24.3248 18.5436 24.4286 19.1217 24.4953 19.5294C24.6509 20.4558 25.1104 22.7608 25.2068 23.161C25.2512 23.3241 25.3328 23.6576 25.3995 23.9022C25.6292 24.8434 25.7404 25.2436 25.8071 25.4586C25.8516 25.5772 25.9109 25.7995 25.9479 25.9403C26.0294 26.2812 26.148 26.6963 26.5927 28.1267C26.9411 29.2459 27.1412 29.8165 27.4969 30.7578C27.5859 30.9802 27.7044 31.3137 27.7712 31.499C27.9342 31.9733 28.6383 33.715 28.8755 34.219C28.9792 34.4562 29.1349 34.7971 29.2238 34.9824C30.1577 37.0576 31.5214 39.6072 32.8184 41.7046C33.9153 43.476 34.2044 43.8984 35.5681 45.7291C37.3394 48.1082 38.6957 49.672 40.9414 51.9177C43.2464 54.2153 45.0474 55.7569 47.723 57.7209C49.0274 58.677 51.6437 60.3594 52.911 61.0561C53.1779 61.1969 53.5707 61.4193 53.7708 61.5305C54.5786 61.9974 57.6989 63.4945 58.6624 63.8873C58.9885 64.0133 59.4925 64.2209 59.7741 64.3394C61.1082 64.8953 63.3687 65.6587 65.3698 66.2368C65.5922 66.2961 65.9257 66.3998 66.111 66.4517C66.4445 66.5555 67.5636 66.8223 68.4901 67.0298C68.9422 67.1336 69.7204 67.2892 71.0767 67.5486C71.3806 67.6079 71.8327 67.6969 72.0773 67.7413C72.3218 67.7858 72.7591 67.8525 73.0408 67.8896C73.3298 67.9192 73.7745 67.9785 74.0413 68.023C74.3081 68.0674 74.9752 68.1564 75.5236 68.2157C78.6439 68.5714 81.9939 68.69 85.4106 68.5714C86.7595 68.5195 88.1899 68.4454 88.5901 68.401C89.1089 68.3417 89.3387 68.3417 89.4128 68.401C89.4795 68.4528 89.524 68.7715 89.5536 69.3496C89.6129 70.5058 89.8501 71.7065 90.2058 72.6329C90.2874 72.8553 90.3837 73.1295 90.4208 73.2407C90.4578 73.3593 90.6728 73.8262 90.9099 74.2931C91.3991 75.2714 91.4139 75.1899 90.6505 75.7013C90.3837 75.8792 90.0428 76.1163 89.902 76.2127C89.4276 76.5536 87.886 77.5468 87.6785 77.6505C87.6192 77.6802 87.2338 77.9025 86.8262 78.1397C85.9813 78.6437 83.7578 79.7851 82.7128 80.252C82.3274 80.4299 81.9123 80.6151 81.7864 80.6744C81.0304 81.0154 79.7482 81.4971 78.5623 81.8899C77.8064 82.1419 77.0949 82.3791 76.9689 82.4236C76.6057 82.5496 76.0795 82.6904 74.7602 83.0165L73.5151 83.3278L72.6109 83.1573C71.5066 82.9498 69.9724 82.6237 69.1126 82.4161C67.0448 81.9196 65.0808 81.3489 63.1464 80.6967C62.6794 80.5336 62.0865 80.3557 61.8419 80.289C61.4195 80.1779 61.3676 80.1853 61.0341 80.3039C60.6339 80.4595 60.2781 80.7856 60.1373 81.134C59.8631 81.7788 60.1669 82.6607 60.7747 82.972C61.0637 83.1202 64.0283 84.0911 65.5181 84.521C66.2296 84.7285 67.8527 85.1436 68.7421 85.3437C69.0682 85.4178 69.4832 85.5216 69.6611 85.5735C69.8464 85.6327 70.0687 85.6772 70.1725 85.6772C70.2688 85.6772 70.5505 85.7291 70.8025 85.7884C71.0545 85.8551 71.5659 85.9589 71.929 86.033C72.6924 86.1886 72.7295 86.2405 72.5294 86.8482C72.2477 87.7228 72.1588 88.501 72.1588 90.05C72.1588 91.5916 72.2255 92.1252 72.5368 93.2518C72.6035 93.4816 72.6331 93.7187 72.6183 93.7706C72.5442 93.9485 69.3572 94.9861 67.1115 95.5642C64.3915 96.2535 60.9229 96.8316 58.2548 97.0243C55.0604 97.254 55.1049 97.254 51.9179 97.0836C50.1317 96.9946 48.2863 96.7797 46.3593 96.4462C45.166 96.2386 43.1871 95.8384 42.5794 95.6828C42.2533 95.5938 41.8679 95.4975 41.7271 95.4678C41.5862 95.4382 41.3491 95.3789 41.2082 95.3344C41.0674 95.29 40.7858 95.201 40.5783 95.1417C38.9181 94.6452 37.3691 94.1412 36.4649 93.7928C34.1228 92.9109 30.7061 91.3248 29.2164 90.4428C28.9125 90.2724 28.6605 90.1241 28.6457 90.1241C28.5642 90.1241 26.5631 88.879 25.5106 88.1749C22.509 86.1738 20.2929 84.3431 17.6025 81.6453C15.4235 79.4589 13.9487 77.7321 12.3255 75.4493C11.992 74.9824 11.6214 74.4636 11.5029 74.3005C11.2434 73.9299 10.0057 71.9511 9.78338 71.5583C9.69444 71.3952 9.56103 71.158 9.48692 71.0395C9.18304 70.5577 7.8045 67.8673 7.49322 67.1484C7.39687 66.9261 7.21899 66.5258 7.10041 66.259C6.98182 65.9996 6.76689 65.4808 6.62607 65.1102C6.48525 64.7471 6.33702 64.3839 6.29996 64.3172C6.11467 63.9837 5.36611 61.7232 4.71389 59.5145C4.58049 59.0698 4.41002 58.4028 4.26179 57.7728C4.19509 57.4838 4.10615 57.1206 4.06909 56.9576C4.00239 56.6685 3.80228 55.6087 3.59475 54.4376C2.48303 48.1008 2.61643 41.8232 4.01721 34.9824C4.3952 33.1443 4.41743 33.048 4.60272 32.4254C4.68425 32.1364 4.7806 31.7732 4.81766 31.6027C4.85471 31.4397 4.91401 31.2247 4.95848 31.121C4.99553 31.0246 5.13635 30.5948 5.26235 30.1649C6.10726 27.3782 7.10041 24.9175 8.5753 21.99C9.16081 20.819 9.44245 20.2853 9.70185 19.8629C9.78338 19.7221 9.87973 19.5516 9.90937 19.4923C10.1465 18.9809 11.9624 16.1497 12.7628 15.038C12.8962 14.8527 13.1186 14.534 13.2594 14.3339C13.4002 14.1338 13.8227 13.5853 14.2006 13.111C15.1345 11.9399 15.7274 11.5249 16.602 11.4137C17.1727 11.3396 17.9064 11.4063 18.3363 11.5768ZM95.846 49.9685C95.9794 50.0797 96.8392 51.7473 96.9059 52.0289C96.9429 52.1845 96.7873 52.4291 95.9868 53.5038C95.4532 54.2153 94.9566 54.8379 94.8751 54.8897C94.7417 54.9861 94.7046 54.9564 94.4008 54.4969C93.7856 53.5557 93.5559 53.0739 93.2372 52.0659C93.0296 51.3841 92.9852 51.0357 93.1112 50.932C93.1705 50.8801 93.4447 50.7615 93.7263 50.6578C94.008 50.5614 94.423 50.4058 94.6453 50.3242C94.8677 50.2353 95.1197 50.1464 95.2012 50.1241C95.2827 50.0945 95.4161 50.0352 95.4977 49.9759C95.6755 49.8573 95.6978 49.8573 95.846 49.9685ZM96.1944 67.5042C96.2388 67.5857 96.3426 67.9118 96.4315 68.2305C96.5131 68.5492 96.6316 68.9642 96.6835 69.1495C96.9503 70.0834 96.9874 70.2538 96.9355 70.3798C96.8836 70.5281 95.7645 71.5879 94.6453 72.5588C94.297 72.8627 93.9931 73.1369 93.9709 73.174C93.882 73.3 93.6596 73.1888 93.5262 72.9516C92.9407 71.9066 92.5627 70.4836 92.4515 68.8827C92.4071 68.2527 92.4145 68.1934 92.5627 68.0452C92.6591 67.9488 92.8147 67.8896 92.9778 67.8896C93.1186 67.8896 93.4743 67.8451 93.7708 67.7858C95.0604 67.5338 95.7126 67.4152 96.0313 67.3782C96.0832 67.3782 96.1573 67.43 96.1944 67.5042ZM77.1171 86.7889C77.4061 86.8186 78.0732 86.8853 78.5994 86.9372C79.133 86.9891 79.6074 87.0409 79.6592 87.0558C79.7259 87.078 79.7482 87.4856 79.7482 88.7826V90.4873L79.2887 90.7541C79.0293 90.9023 78.7699 91.0506 78.7106 91.0802C76.8355 92.0437 75.7089 92.5699 75.531 92.5699C75.4495 92.5699 75.368 92.5106 75.3531 92.4365C75.153 91.7324 75.116 91.3619 75.116 90.1241C75.116 88.7604 75.2049 87.96 75.4198 87.3448C75.4791 87.1743 75.5236 86.9965 75.5236 86.9298C75.5236 86.6926 75.6941 86.6259 76.1536 86.6778C76.3982 86.7074 76.8355 86.7519 77.1171 86.7889Z" fill="black"/>
</g>
<defs>
<clipPath id="clip0_136_92">
<rect width="100" height="100.167" fill="white"/>
</clipPath>
</defs>
</svg>
