<svg width="100" height="90" viewBox="0 0 100 90" fill="none" xmlns="http://www.w3.org/2000/svg">
<g clip-path="url(#clip0_173_70)">
<path d="M23.1386 0.0630476C22.1603 0.17422 21.3673 0.529974 20.5891 1.20442C19.8998 1.80476 1.12641 20.6078 0.874418 20.9561C0.577957 21.3489 0.229615 22.0901 0.111031 22.5496C-0.0223765 23.0462 -0.0371995 24.5507 0.0813849 24.988C0.266673 25.655 0.755834 26.5222 1.22276 27.0262C2.00097 27.8489 3.95761 28.8939 5.91426 29.5387C9.20497 30.6282 11.9472 30.8357 15.1935 30.2502C17.1131 29.9093 19.0697 29.2052 20.8633 28.2268C21.597 27.8266 21.8416 27.6043 22.0195 27.1966C22.2048 26.7668 22.1974 26.4851 21.9824 26.0182C21.7156 25.4549 21.3228 25.2178 20.6854 25.2252C20.3593 25.2326 20.1073 25.2845 19.9369 25.3808C19.796 25.4549 19.4625 25.6402 19.1957 25.7885C18.3434 26.2628 16.8759 26.8335 15.7493 27.1299C14.0225 27.582 11.9028 27.7451 10.2722 27.545C9.21238 27.419 7.73008 27.1077 7.27798 26.915C7.14457 26.8557 6.99634 26.8112 6.95187 26.8112C6.69247 26.8112 4.69877 25.907 3.92056 25.4327C3.23128 25.0177 2.86071 24.4321 2.86812 23.7799C2.87553 22.9869 2.45307 23.439 12.7699 13.1147C18.0395 7.84515 22.5235 3.41306 22.7384 3.26483C23.1016 3.00542 23.1609 2.9906 23.7019 2.9906C24.3171 2.9906 24.6432 3.13142 25.0508 3.57611C25.6882 4.25797 26.7258 6.68895 27.1186 8.3936C27.4521 9.88332 27.4966 10.2761 27.4966 11.9511C27.4966 13.9004 27.3187 15.0566 26.7629 16.776C26.2515 18.325 25.7401 19.3849 24.8211 20.7486C24.3541 21.4379 24.2578 21.7566 24.3393 22.3273C24.4357 22.9276 25.0879 23.4761 25.703 23.4761C26.2367 23.4761 26.6369 23.2315 27.089 22.6237C27.3113 22.3199 27.4966 22.053 27.4966 22.0382C27.4966 22.016 27.593 21.8603 27.7116 21.6825C28.1414 21.0451 28.9122 19.4516 29.394 18.2139C29.6904 17.4505 30.0462 16.0126 30.2908 14.6193C30.4909 13.4779 30.4686 10.2687 30.2537 9.0977C29.9276 7.32634 29.7201 6.54072 29.2754 5.39193C29.1864 5.16959 29.0975 4.92501 29.0753 4.84348C28.9937 4.56925 27.9561 2.58297 27.6745 2.16051C26.9259 1.03396 25.6363 0.21869 24.4208 0.0926937C24.1763 0.0704591 23.9094 0.040813 23.8279 0.02599C23.7464 0.0111669 23.4351 0.0334015 23.1386 0.0630476Z" fill="black"/>
<path d="M35.0935 11.373C34.7897 11.5287 34.5451 11.7584 34.4043 12.0252C34.2931 12.2253 34.2783 12.9517 34.2412 19.6962C34.2042 26.6111 34.1893 27.1818 34.0633 27.7006C33.8039 28.753 33.4778 29.7017 33.0998 30.4577C32.7293 31.2137 32.7144 31.2285 31.9066 31.8733C31.121 32.5033 29.861 33.5187 28.1267 34.9268C27.6672 35.29 26.8668 35.9422 26.3405 36.3647C25.8143 36.7946 25.0361 37.4245 24.6062 37.7729C23.4204 38.7364 22.4198 39.5442 21.7528 40.0853C21.2192 40.5151 20.0185 41.486 18.3806 42.8127C18.1137 43.0276 17.4171 43.5909 16.8241 44.0653C16.2312 44.5396 15.7346 44.9398 15.7124 44.9621C15.6902 44.9843 15.4234 45.2066 15.1195 45.4512C13.7409 46.5629 12.1549 47.8451 11.7472 48.1787C11.5027 48.3788 10.9023 48.8605 10.4132 49.2533C9.92401 49.6461 9.50896 49.9871 9.48673 50.0093C9.4645 50.0389 9.19768 50.2539 8.89381 50.491C8.18971 51.0395 6.24048 52.9887 5.67721 53.6928C5.11393 54.4117 4.55807 55.2344 4.06149 56.0868C3.59457 56.8724 2.81636 58.4733 2.81636 58.6215C2.81636 58.6808 2.78671 58.7549 2.74965 58.792C2.62366 58.9402 2.06038 60.8079 1.82321 61.9048C1.48969 63.4093 1.45264 63.8614 1.45264 66.0182C1.45264 67.671 1.48228 68.2861 1.57863 68.8346C1.78616 69.9611 1.9418 70.7023 2.04556 71.0432C2.10485 71.2137 2.14932 71.399 2.14932 71.4508C2.14932 71.5991 2.80153 73.5557 2.95718 73.8596C2.98682 73.9263 3.26846 74.4822 3.56492 75.0899C4.58771 77.1503 5.8032 78.8031 7.55232 80.4929C9.90178 82.7608 12.9776 84.4655 16.3794 85.3845C19.0328 86.096 22.153 86.222 24.7915 85.7254C26.2961 85.4364 26.1478 85.4067 27.2447 86.1257C27.771 86.4666 28.3046 86.8001 28.4232 86.8594C28.5492 86.9187 28.8605 87.0818 29.1273 87.23C29.7943 87.5857 31.8102 88.4232 32.4995 88.6308C35.138 89.4164 37.7172 89.7277 40.3557 89.5794C42.2901 89.4683 44.4914 89.068 45.8032 88.5863C45.9885 88.5196 46.2405 88.4381 46.3591 88.4084C46.5666 88.3491 46.6926 88.2972 47.2633 88.0601C47.3893 88.0008 47.5153 87.9563 47.5449 87.9563C47.5746 87.9563 48.0118 87.7562 48.5158 87.5116C49.4867 87.0373 50.6503 86.3702 51.4286 85.8292C51.977 85.4512 51.9548 85.4512 53.4148 85.718C55.8977 86.1775 58.514 86.1257 61.0339 85.5772C61.7899 85.4067 61.8714 85.3845 62.8868 85.0658C67.2299 83.6873 71.0172 80.8487 73.4778 77.1355C73.7298 76.7501 73.967 76.3795 73.9966 76.3202C74.0189 76.2609 74.1597 76.0089 74.3005 75.7644C74.4487 75.5198 74.6785 75.0751 74.8193 74.786C74.975 74.4599 75.1232 74.245 75.1899 74.245C75.2566 74.245 75.4938 74.3265 75.7309 74.4229C76.4795 74.7341 78.577 75.3938 79.5256 75.6087C81.1562 75.9793 82.2531 76.1053 84.2394 76.1498C86.3739 76.2016 87.8784 76.0608 89.7535 75.6458C89.9388 75.6013 90.2205 75.542 90.3835 75.5124C91.1247 75.3567 92.9405 74.7712 93.9485 74.3562C94.7119 74.0449 96.1719 73.326 96.624 73.0369C96.8019 72.9257 96.9575 72.8368 96.9798 72.8368C97.2021 72.8368 98.4176 71.7695 98.8549 71.2063C99.0772 70.9172 99.4478 70.2354 99.5738 69.8722C100.248 68.0193 100.093 66.4555 99.0772 64.7212C98.8401 64.321 98.3213 63.7503 96.8019 62.2309C95.7198 61.1414 94.7119 60.1853 94.571 60.0964C94.0967 59.8147 93.2888 59.9111 92.8367 60.3039C92.4365 60.6523 92.2883 61.5194 92.5551 62.0011C92.6218 62.1346 93.5482 63.1129 94.6081 64.1875C95.6976 65.2845 96.6092 66.2628 96.6981 66.4332C96.7797 66.5963 96.9131 66.9743 96.9798 67.2633C97.1058 67.7673 97.1058 67.8266 96.9798 68.3306C96.7574 69.2793 96.372 69.761 95.3048 70.4281C94.9268 70.6652 93.3185 71.436 92.7182 71.6806C91.7176 72.0734 91.5471 72.1401 91.0506 72.2809C90.806 72.355 90.5243 72.444 90.428 72.481C90.3242 72.5181 90.1093 72.5774 89.9462 72.6145C89.7758 72.6441 89.3978 72.733 89.0939 72.7997C87.5004 73.1481 85.1213 73.326 83.5797 73.2074C81.9492 73.0814 81.5712 73.0295 79.5998 72.6219C79.4589 72.5922 79.2218 72.5255 79.081 72.481C78.9401 72.4292 78.6066 72.3254 78.3398 72.2365C77.443 71.9474 75.9311 71.3397 75.3381 71.0136C74.2042 70.4058 74.1078 70.3465 73.3 69.8351C72.2105 69.1384 71.3507 68.4344 70.1278 67.2411C67.7043 64.8842 65.9551 62.0975 64.9323 58.9772C64.3024 57.0428 64.1097 56.146 63.9244 54.2339C63.539 50.3058 64.3468 46.1479 66.1923 42.62C67.141 40.8116 67.6598 40.3076 68.816 40.0853C69.3793 39.9815 70.1723 40.1149 70.6837 40.4114C70.9135 40.5448 73.967 43.5464 79.5627 49.1347C84.2542 53.8188 88.1897 57.7099 88.3083 57.7914C88.4714 57.9026 88.6566 57.9396 89.0198 57.9396C89.4423 57.9396 89.546 57.91 89.8054 57.7247C90.2501 57.3986 90.428 57.0651 90.428 56.5389C90.4354 56.2202 90.3909 56.0126 90.2724 55.8125C90.1908 55.6569 86.2553 51.6769 81.5416 46.9632C72.4995 37.9285 72.5366 37.9656 71.4248 37.5283C69.0383 36.587 66.2738 37.3282 64.7471 39.3293C64.5766 39.559 64.4061 39.7962 64.3839 39.8555C64.3543 39.9148 64.2283 40.1297 64.1097 40.3373C63.576 41.2192 62.6496 43.1907 62.3531 44.0801C62.2938 44.2654 62.1975 44.4581 62.1456 44.5099C62.0493 44.6137 62.1604 44.6952 58.8549 42.0197C58.262 41.5453 57.4097 40.8487 56.9575 40.4855C54.786 38.7364 53.6446 37.8099 51.3693 35.9645C50.8653 35.5568 50.0648 34.912 49.5905 34.534C49.1162 34.1486 48.5973 33.7262 48.4343 33.5928C48.2712 33.4594 47.6561 32.9554 47.0632 32.481C46.4702 31.9993 45.8625 31.5027 45.6994 31.3767C45.3363 31.0803 44.7952 29.976 44.4469 28.7975C43.9948 27.3152 43.9503 26.6185 43.9503 21.549V17.0651L43.7206 16.7316C43.513 16.4351 43.0684 16.0645 42.0381 15.3604C41.8677 15.2344 41.4452 14.938 41.0969 14.6934C38.2509 12.67 36.6351 11.5583 36.3683 11.4175C35.9903 11.2248 35.4122 11.2026 35.0935 11.373ZM38.0582 16.1386C38.4065 16.3832 38.9772 16.7834 39.3255 17.028C40.2223 17.658 40.5929 17.9322 40.8227 18.1175L41.0228 18.2732L41.0672 22.8979C41.1117 27.1966 41.1265 27.5672 41.2673 28.2194C41.5342 29.4497 41.5712 29.5831 41.7269 29.9982C41.8158 30.2205 41.9122 30.4873 41.9492 30.5911C42.053 30.9098 42.2234 31.273 43.0313 32.9331C43.4612 33.8299 44.0244 34.9861 44.2838 35.5198C44.5358 36.046 45.1732 37.3504 45.692 38.4103C46.2108 39.4701 46.9001 40.8857 47.2262 41.5602C47.5523 42.2346 48.1897 43.5316 48.6344 44.4507C49.0865 45.3697 49.6201 46.4592 49.8202 46.8816C50.3761 48.0156 50.8282 48.3269 51.7028 48.1935C52.3105 48.1045 52.8442 47.4523 52.8442 46.8001C52.8442 46.3554 52.9627 46.6148 50.4725 41.5231C49.0643 38.64 48.6937 37.8544 48.6937 37.7358C48.6937 37.595 48.916 37.758 50.3687 38.9291C50.969 39.4182 51.8362 40.1149 52.2883 40.4855C52.7404 40.8487 53.6075 41.5527 54.2079 42.0419C55.9792 43.4723 57.7802 44.9324 58.7363 45.7032C61.5601 47.9711 61.3748 47.7488 61.1895 48.6456C60.8931 50.0612 60.7967 52.8701 60.982 54.4933C61.1376 55.8273 61.3748 57.1466 61.6416 58.199C61.7973 58.7994 62.3976 60.7338 62.5384 61.0525C63.4056 63.0906 64.043 64.2617 65.125 65.8477L65.7402 66.7519V68.0193C65.7402 70.3021 65.3177 72.57 64.5173 74.6156C63.3018 77.6988 61.2118 80.5151 58.6993 82.4644L57.921 83.0647H56.6907C55.3196 83.0647 54.9935 83.0276 54.9935 82.8646C54.9935 82.8053 55.201 82.5163 55.4604 82.2198C56.209 81.3823 57.5134 79.5813 57.758 79.0625C57.7876 79.0032 57.8766 78.8475 57.9507 78.729C58.2323 78.2917 58.8475 77.0391 59.181 76.2239C59.3737 75.7644 59.5738 75.2826 59.6331 75.1492C59.6924 75.0158 59.7369 74.8601 59.7369 74.8009C59.7369 74.7416 59.7813 74.5859 59.8406 74.4525C60.1371 73.7632 60.5003 72.0882 60.7078 70.4725C60.8708 69.1681 60.9005 66.7371 60.7671 65.7588C60.4261 63.2018 60.1816 62.179 59.4552 60.2001C59.3366 59.874 59.1514 59.4145 59.0402 59.1848C58.9364 58.955 58.8475 58.7475 58.8475 58.7327C58.8475 58.7104 58.3954 57.7692 57.8395 56.6352C55.4604 51.7584 55.5568 51.9289 55.0083 51.6472C54.5933 51.4323 54.1708 51.4471 53.7335 51.6843C53.3111 51.9141 53.1258 52.1512 52.9998 52.6107C52.896 52.9961 52.9701 53.3667 53.3111 54.0486C53.5853 54.597 54.786 57.0725 55.4382 58.4214C55.9644 59.5035 56.246 60.1186 56.5129 60.719C57.3355 62.5867 57.9581 65.6847 57.9581 67.9155C57.9581 69.9241 57.3726 73.0221 56.6907 74.6156C56.6463 74.7193 56.5647 74.8972 56.5203 75.0232C56.2683 75.6384 55.3196 77.4616 54.9787 77.9878C52.8442 81.2859 49.8647 83.791 46.3442 85.2511C45.9885 85.3993 45.5734 85.5772 45.4178 85.6365C44.9509 85.8366 44.9064 85.6736 45.2918 85.1029C45.7513 84.4062 46.8038 82.242 47.0632 81.4342C47.1002 81.3304 47.204 81.0339 47.3077 80.7671C47.4782 80.2928 48.086 78.225 48.2861 77.4319C48.3379 77.2096 48.4269 76.8761 48.4788 76.6908C48.5306 76.5055 48.5973 76.209 48.627 76.0238C48.6566 75.8385 48.7308 75.4234 48.7975 75.0973C49.1754 73.1926 49.4052 71.0654 49.5608 67.9971C49.6943 65.277 49.672 64.8991 49.3533 64.4618C49.0791 64.0986 48.7233 63.9281 48.2045 63.9207C47.4486 63.9133 46.9223 64.358 46.7815 65.1288C46.7371 65.3512 46.6852 66.3369 46.6629 67.3152C46.5888 70.391 46.1441 73.8448 45.4623 76.6537C45.403 76.8983 45.3215 77.2318 45.2844 77.4023C45.2473 77.5654 45.188 77.7803 45.151 77.884C45.1139 77.9804 45.025 78.262 44.9509 78.5066C44.2913 80.7301 43.5205 82.4421 42.4903 84.006C42.0604 84.6656 40.919 85.8811 40.7263 85.8811C40.63 85.8811 40.6151 83.6799 40.6003 65.6624L40.5781 45.4512L40.3706 45.0955C40.0741 44.5915 39.6961 44.3765 39.118 44.3765C38.8586 44.384 38.5844 44.421 38.4954 44.4729C38.2212 44.6359 37.9766 44.8509 37.8284 45.0806C37.6876 45.2956 37.6876 45.681 37.6505 65.5661C37.6135 84.6878 37.6061 85.844 37.4875 85.8663C37.1391 85.933 35.5382 83.9096 34.8119 82.5014C34.5303 81.9604 34.0485 80.8709 33.9448 80.5448C33.9077 80.441 33.8114 80.1742 33.7224 79.9519C33.1369 78.4399 32.3809 75.3641 32.0548 73.1703C31.9881 72.7182 31.9066 72.1401 31.8621 71.8733C31.6842 70.6726 31.499 67.9007 31.499 66.3888C31.499 65.1733 31.4545 64.8768 31.1951 64.5062C30.9134 64.0986 30.5577 63.9207 30.0092 63.9207C29.4015 63.9207 29.0902 64.0986 28.7196 64.6471C28.5788 64.8546 28.5714 64.9732 28.5936 66.7593C28.6085 67.797 28.6455 69.0125 28.69 69.4646C28.7345 69.9092 28.7938 70.6133 28.8234 71.021C28.9346 72.3699 29.2977 74.623 29.698 76.4684C30.0389 78.0471 30.0834 78.2398 30.239 78.7067C30.3205 78.9661 30.4391 79.3589 30.5058 79.5813C30.5725 79.8036 30.6689 80.1075 30.7282 80.2483C30.78 80.3891 30.906 80.7375 31.0024 81.0265C31.5508 82.5755 32.3661 84.3024 33.0183 85.2585C33.3296 85.7106 33.2481 85.7921 32.6774 85.5846C31.4767 85.1622 29.8832 84.3617 28.7196 83.5909C26.5777 82.1753 24.5395 80.0927 23.2351 77.9878C22.7089 77.1355 22.7237 77.1577 22.3531 76.461C21.1895 74.2302 20.5299 71.8511 20.3001 69.1014C20.1667 67.5153 20.3594 65.0992 20.7226 63.8244C20.7819 63.6169 20.8264 63.3945 20.8264 63.3352C20.8264 63.1722 21.3674 61.5416 21.7083 60.7041C21.864 60.3039 22.4495 59.0588 22.9979 57.9322C23.5538 56.8057 24.2727 55.3234 24.6062 54.6341C24.9398 53.9448 25.5475 52.6997 25.9551 51.8622C26.3628 51.0247 26.9705 49.7721 27.3114 49.0829C27.6524 48.3862 28.312 47.0373 28.7789 46.0812C29.2459 45.1251 29.8684 43.8355 30.1649 43.2278C30.4613 42.6126 31.2321 41.0339 31.8769 39.7147C32.5292 38.3954 33.0554 37.3059 33.0554 37.2985C33.0554 37.2837 33.552 36.2609 34.1597 35.0232C36.4424 30.3613 36.3535 30.5689 36.9613 28.1824C37.0798 27.708 37.0947 27.1225 37.1169 21.7714C37.1243 18.5326 37.154 15.8348 37.1688 15.7829C37.2281 15.6124 37.4208 15.6939 38.0582 16.1386ZM29.4978 37.8099C29.4978 37.8692 29.2014 38.5214 28.8308 39.2552C28.4676 39.9889 28.1638 40.6041 28.1638 40.6263C28.1638 40.6411 27.645 41.7158 27.0076 43.0128C26.3702 44.3172 25.5846 45.9255 25.2585 46.6C24.9323 47.2744 24.3172 48.5418 23.8873 49.4164C23.4575 50.2909 22.8349 51.5731 22.494 52.2698C22.153 52.9591 21.5379 54.2265 21.1228 55.0862C19.9889 57.406 19.2699 58.9031 19.2699 58.9328C19.2699 58.955 19.1736 59.1774 19.055 59.4368C18.7141 60.1853 18.3583 61.2378 18.0545 62.3643C17.795 63.3575 17.7209 63.691 17.6839 63.98C17.6616 64.1431 17.6172 64.4618 17.5727 64.6841C17.1651 66.8409 17.2911 70.5022 17.8321 72.4366C17.8914 72.6441 17.9359 72.8739 17.9359 72.9406C17.9359 73.0073 17.9803 73.2222 18.0396 73.4149C18.6326 75.3345 18.64 75.3641 19.1588 76.5796C19.3441 77.0169 20.1074 78.514 20.3668 78.9513C20.9968 80.0112 21.7528 81.0562 22.62 82.0716C22.9386 82.4495 23.1981 82.8053 23.1981 82.8646C23.1981 83.0276 22.8719 83.0647 21.5379 83.0647C20.1445 83.0647 20.3076 83.1314 18.9364 81.99C17.6394 80.9005 16.4832 79.6109 15.5345 78.1731C15.2751 77.7877 15.0454 77.4171 15.0157 77.3578C14.9935 77.2985 14.8971 77.1281 14.8082 76.9873C14.0003 75.6532 13.1258 73.2593 12.7478 71.3174C12.5255 70.1761 12.3624 68.1675 12.4217 67.2782C12.5106 65.8329 12.7107 64.4247 12.9405 63.5724C13.6298 61.0451 14.1486 59.8444 15.5494 57.6283C15.9273 57.0132 15.957 56.9465 15.957 56.4944C15.9644 56.0719 15.9348 55.9682 15.7421 55.7014C15.3048 55.0788 14.5117 54.8638 13.8669 55.1974C13.6224 55.3234 13.111 55.9163 12.7849 56.4721C10.9394 59.5924 10.0055 62.2754 9.60531 65.6921C9.2125 68.9457 9.82025 73.0443 11.1543 76.172C11.4656 76.9057 12.3476 78.6771 12.481 78.8401C12.5329 78.8994 12.5996 79.0032 12.6292 79.0625C12.7404 79.2996 13.2666 80.0927 13.8373 80.8709C14.3116 81.5157 14.2375 81.5379 13.1999 80.9969C12.0289 80.3966 10.5614 79.3219 9.49414 78.2917C8.41206 77.2467 7.20398 75.6976 6.59624 74.5785C6.46283 74.3339 6.27013 73.9856 6.16637 73.8003C5.69944 72.9554 5.01017 70.9691 4.71371 69.6498C4.43207 68.3751 4.37278 67.7006 4.37278 65.9885C4.37278 63.7354 4.53583 62.7127 5.24734 60.5337C5.96626 58.3324 7.3448 56.0719 9.02722 54.3599C9.90919 53.4631 10.3613 53.0703 12.7849 51.1136C13.7261 50.3576 14.9713 49.3497 15.5642 48.8679C16.1571 48.3936 17.1206 47.608 17.7135 47.1336C18.3064 46.6593 19.0698 46.0367 19.4182 45.7477C19.7665 45.466 20.189 45.1251 20.3446 44.9917C20.5077 44.8657 21.0413 44.4358 21.5305 44.043C22.0196 43.6428 22.7237 43.0795 23.0869 42.7831C23.4575 42.494 24.2357 41.8566 24.8286 41.3749C25.4215 40.8931 26.2071 40.2557 26.5703 39.9667C26.9409 39.6702 27.7043 39.0402 28.2749 38.5733C29.2977 37.7284 29.4978 37.6024 29.4978 37.8099ZM69.8388 70.9098C70.2686 71.2581 70.8838 71.7251 71.2173 71.9474C72.2994 72.6886 72.4106 72.7775 72.4106 72.9109C72.4106 73.0814 71.5953 74.6526 71.1654 75.3197C70.2538 76.7278 68.5714 78.5511 67.3337 79.4775C66.1034 80.404 64.1838 81.5379 64.0578 81.4119C64.0133 81.3601 64.1616 81.1377 64.8286 80.2187C65.8069 78.8698 66.7482 77.0317 67.4597 75.0973C67.9118 73.867 68.3046 72.2809 68.4825 70.9469C68.5344 70.5763 68.6085 70.2205 68.6455 70.1464C68.7271 69.9908 68.6011 69.9167 69.8388 70.9098Z" fill="black"/>
</g>
<defs>
<clipPath id="clip0_173_70">
<rect width="100" height="89.6609" fill="white"/>
</clipPath>
</defs>
</svg>
