<svg width="100" height="82" viewBox="0 0 100 82" fill="none" xmlns="http://www.w3.org/2000/svg">
<g clip-path="url(#clip0_139_134)">
<path d="M13.8299 0.174187C13.4815 0.359475 13.3852 0.455825 12.9479 1.03392C11.6064 2.79787 10.8801 4.95462 10.8801 7.17067C10.8727 8.21569 11.0802 9.48306 11.3766 10.3206C11.8288 11.5731 12.3624 12.544 13.1406 13.5372C14.3931 15.1381 14.8971 16.2498 15.0602 17.784C15.2455 19.5405 14.7934 21.2526 13.7557 22.72C13.0368 23.7428 13.0442 23.7354 13.0442 24.232C13.0442 24.773 13.2369 25.151 13.652 25.4475C13.8595 25.5957 13.9855 25.6254 14.4598 25.6254C14.9564 25.6254 15.0528 25.6031 15.2899 25.4253C15.6605 25.1362 16.4387 24.0764 16.8464 23.2981C17.2243 22.5866 17.6246 21.5713 17.7061 21.1043C17.7431 20.9413 17.8024 20.6745 17.8469 20.5114C18.0174 19.9111 18.0915 18.5844 18.01 17.7099C17.9655 17.2578 17.8914 16.7464 17.8469 16.5833C17.8024 16.4203 17.7431 16.1534 17.7135 15.9904C17.6616 15.7236 17.6023 15.5309 17.417 15.0269C17.0539 14.056 16.4165 12.9739 15.5864 11.9066C14.949 11.0988 14.697 10.6689 14.3116 9.80176C13.904 8.87532 13.7187 7.48195 13.8521 6.38505C13.9114 5.96259 14.0003 5.48084 14.0522 5.31779C14.1115 5.15473 14.156 4.96944 14.156 4.91015C14.1634 4.70263 14.9045 3.31667 15.2973 2.79787C16.0089 1.84178 16.0904 1.44156 15.7124 0.781932C15.3048 0.070426 14.5043 -0.188977 13.8299 0.174187Z" fill="black"/>
<path d="M84.9434 0.0926196C84.5877 0.248262 84.3357 0.48543 84.1578 0.841184C83.8317 1.47857 83.9206 1.87139 84.6099 2.79783C85.0027 3.31663 85.7439 4.70259 85.7513 4.91011C85.7513 4.9694 85.7958 5.15469 85.8551 5.31774C85.9143 5.4808 86.0033 5.96996 86.0552 6.40724C86.1293 7.04463 86.1293 7.33368 86.0552 7.90437C85.9662 8.59364 85.7661 9.42373 85.5956 9.80172C85.188 10.7059 84.9583 11.0987 84.3209 11.9066C83.4908 12.9738 82.8534 14.0559 82.4902 15.0268C82.1789 15.8792 82.0678 16.3906 81.9269 17.5838C81.8232 18.4806 81.8232 18.6807 81.9269 19.5479C82.0603 20.6744 82.1715 21.1784 82.4754 22.0011C83.0387 23.5353 84.1726 25.2325 84.8323 25.5512C85.2177 25.7291 85.9366 25.6772 86.2553 25.4474C86.6703 25.151 86.863 24.773 86.863 24.232C86.863 23.7354 86.8704 23.7428 86.1515 22.72C84.3876 20.2223 84.3579 16.9612 86.0626 14.4932C86.2404 14.2486 86.5814 13.7817 86.8334 13.463C87.9006 12.0845 88.627 10.4613 88.879 8.91233C89.1013 7.51897 89.1013 6.66664 88.8715 5.39186C88.6047 3.8725 87.908 2.28643 86.9445 1.01906C86.4183 0.314965 86.0626 0.070385 85.5364 0.0407389C85.3066 0.0333274 85.0398 0.0555619 84.9434 0.0926196Z" fill="black"/>
<path d="M48.7308 3.13876C47.3448 3.33888 45.8106 4.1245 44.6989 5.21399C44.0245 5.87362 43.6094 6.43689 43.224 7.2151C42.809 8.06002 42.6385 8.63812 42.4903 9.71279C42.3791 10.5651 42.3791 10.6837 42.4903 11.4916C42.5644 11.9659 42.683 12.5736 42.7645 12.8405C42.9424 13.4111 43.5057 14.5525 43.7873 14.9083C44.4099 15.7087 44.5803 15.9385 44.7804 16.3165C45.0324 16.776 45.2844 17.6876 45.2844 18.1397C45.2844 18.955 44.7953 20.1482 44.2098 20.7856C43.5131 21.5416 42.8683 21.8677 41.5416 22.1419C40.5485 22.342 38.829 22.7719 38.2435 22.9646C37.9396 23.0609 37.5246 23.1944 37.317 23.2611C36.4499 23.5427 34.3228 24.3283 33.7595 24.5877C33.2036 24.8397 30.1723 26.3442 29.9426 26.4851C27.1484 28.1527 25.7699 29.1013 23.9392 30.6207C19.9296 33.9485 16.6982 37.8321 14.1264 42.4124C13.8521 42.9016 12.8812 44.8508 12.4588 45.7699C12.1401 46.4665 11.221 48.8679 11.0432 49.4904C11.0061 49.609 10.8727 50.0463 10.7467 50.4539C10.2353 52.0993 9.64239 54.8712 9.38299 56.8278C9.14582 58.5844 9.10135 59.2811 9.0643 61.423C9.04947 62.6459 9.01983 63.7132 9.005 63.8021C8.98277 63.9059 8.8123 64.0393 8.49361 64.1949C7.57458 64.647 6.85566 65.3807 6.41097 66.3146C6.11451 66.9446 6.07004 67.204 6.01075 68.501C5.98851 69.131 5.93663 69.6943 5.90699 69.7461C5.86252 69.8128 5.36594 69.8351 3.84658 69.8351H1.85288L1.37854 70.0574C0.830091 70.3168 0.355753 70.7912 0.148231 71.2877C0.0148231 71.5842 0 71.8065 0 73.1554C0 75.0231 0.0889383 75.5494 0.615157 76.8019C1.23031 78.2694 2.30498 79.5664 3.66871 80.4632C4.09116 80.7448 4.80267 81.1302 5.01019 81.1969C5.08431 81.2192 5.3363 81.3081 5.55864 81.3896C5.78099 81.4786 6.20345 81.6046 6.48508 81.6787C6.97425 81.7973 9.54604 81.8047 49.9537 81.8047C90.3613 81.8047 92.9331 81.7973 93.4223 81.6787C93.7113 81.6046 94.1264 81.4786 94.3487 81.3896C94.5711 81.3081 94.8231 81.2192 94.8972 81.1969C95.1269 81.1228 95.8384 80.7374 96.3128 80.4113C97.6246 79.5368 98.6993 78.2323 99.2922 76.8019C99.8481 75.4678 99.9963 74.6155 99.9667 72.9479C99.9444 71.6805 99.937 71.6435 99.7295 71.221C99.4627 70.6948 99.0032 70.2649 98.4547 70.0204C98.0397 69.8351 98.0026 69.8351 96.046 69.8351C94.5414 69.8351 94.0448 69.8128 94.0004 69.7387C93.9707 69.6943 93.9189 69.131 93.8966 68.501C93.8373 67.204 93.7929 66.9446 93.4964 66.3146C93.0517 65.3733 92.3031 64.61 91.3989 64.1875C91.0876 64.0319 90.9246 63.9133 90.9024 63.8095C90.8875 63.7206 90.8579 62.6459 90.8357 61.423C90.8208 60.2001 90.769 58.8512 90.7245 58.4213C90.5837 57.1614 90.4206 55.9755 90.302 55.4197C90.2427 55.1306 90.1983 54.8267 90.1983 54.7304C90.1983 54.6414 90.1538 54.3746 90.0945 54.1375C90.0352 53.9077 89.9315 53.4482 89.8573 53.1221C89.7239 52.5143 89.3978 51.2099 89.1903 50.491C88.9012 49.483 88.6493 49.0828 88.1453 48.8605C87.4931 48.5714 86.8705 48.7419 86.3887 49.3274C86.0404 49.7573 86.0404 50.2242 86.3813 51.4174C86.8112 52.9368 86.8334 53.0035 87.1966 54.6785C87.2929 55.1084 87.4486 56.0052 87.6042 57.0502C87.7376 57.9322 87.8859 60.0815 87.9378 61.838C87.9896 63.35 87.9822 63.5205 87.8636 63.6316C87.7525 63.7502 85.3141 63.7576 49.9537 63.7576C14.5118 63.7576 12.1549 63.7502 12.0363 63.6316C11.9251 63.5205 11.9177 63.35 11.9622 61.9122C12.0511 58.866 12.2661 56.813 12.7182 54.6414C13.0739 52.9368 13.8225 50.2983 14.3635 48.8975C15.1417 46.8593 16.1052 44.8212 17.0539 43.2129C17.1725 43.0128 17.2689 42.8349 17.2689 42.8127C17.2689 42.7904 17.3356 42.6867 17.4097 42.5755C17.4912 42.4643 17.8395 41.9233 18.1953 41.3748C20.3076 38.1137 23.3834 34.7712 26.6296 32.2216C28.0674 31.0876 30.2094 29.6794 31.7213 28.8642C33.4334 27.9525 35.4345 27.0187 36.3906 26.7C36.4944 26.6629 36.7612 26.5666 36.9835 26.4777C37.2059 26.3887 37.4949 26.2924 37.6135 26.2553C37.7395 26.2183 38.0211 26.1293 38.2435 26.0478C38.4658 25.9663 38.9179 25.8254 39.244 25.7365C39.5701 25.6476 39.9852 25.529 40.1705 25.4771C40.3558 25.4252 40.756 25.3215 41.0599 25.2548C41.3637 25.1881 41.801 25.0917 42.0234 25.0324C42.5125 24.9138 43.2537 24.7656 43.7651 24.6989C43.9726 24.6692 44.395 24.6025 44.7137 24.5581C46.1145 24.358 46.5444 24.3209 48.3528 24.2394C50.9542 24.1356 53.5483 24.2616 55.416 24.5951C55.7495 24.6544 56.0978 24.6989 56.1942 24.6989C56.2905 24.6989 56.6018 24.7508 56.8835 24.8175C57.1725 24.8768 57.6172 24.9805 57.884 25.0324C63.3018 26.1812 68.2379 28.4195 72.67 31.725C75.0269 33.489 76.65 34.9935 78.7771 37.4097C80.1705 38.9957 82.0085 41.6342 83.1573 43.7243C83.7651 44.8212 84.0096 45.1028 84.4617 45.2288C85.4178 45.4956 86.2627 44.9324 86.3295 43.9614C86.3591 43.576 86.3295 43.4649 86.0997 42.9905C85.9515 42.6941 85.7291 42.279 85.6105 42.0789C85.4845 41.8714 85.3585 41.6565 85.3289 41.5972C85.1436 41.1747 83.4019 38.5362 82.72 37.632C80.2891 34.4006 76.7686 30.9616 73.7447 28.8568C71.5953 27.3522 70.1501 26.4999 68.1119 25.5067C67.4375 25.1806 66.8371 24.8842 66.7704 24.8471C66.4888 24.6989 65.1918 24.1727 64.4062 23.8836C63.9392 23.7206 63.4723 23.5501 63.3834 23.5056C63.1758 23.4241 62.4643 23.1944 61.8862 23.0239C61.6639 22.9572 61.4045 22.8757 61.3081 22.8386C61.0932 22.7571 59.2255 22.305 58.2916 22.1123C57.4023 21.927 57.1577 21.8455 56.6166 21.5342C55.7347 21.0376 55.0232 20.0667 54.7638 19.0143C54.5859 18.2879 54.5859 17.9099 54.7712 17.2207C54.9416 16.5907 55.2085 16.0719 55.7198 15.4271C56.7426 14.1152 57.1873 13.085 57.4097 11.4916C57.5283 10.6763 57.5283 10.5577 57.4171 9.71279C57.2689 8.63812 57.0984 8.06002 56.6759 7.20769C55.6087 5.05835 53.4223 3.45746 51.1025 3.13876C50.4503 3.04242 49.3756 3.04983 48.7308 3.13876ZM51.3545 6.20714C52.4884 6.5703 53.526 7.45227 54.03 8.50471C54.5192 9.51268 54.6526 10.4836 54.4377 11.5064C54.1486 12.8627 53.2518 14.0485 52.0511 14.6489C51.2655 15.0417 50.8579 15.138 49.9537 15.138C49.0495 15.138 48.6418 15.0417 47.8562 14.6489C46.6556 14.0485 45.7588 12.8627 45.4697 11.5064C44.9954 9.24586 46.2998 6.98535 48.5084 6.22937C49.3385 5.94032 50.4873 5.93291 51.3545 6.20714ZM50.139 18.0433C50.7097 18.0285 51.2952 18.0137 51.436 18.0063L51.6954 17.9915L51.7399 18.5844C51.7843 19.244 52.0215 20.2297 52.2513 20.7485C52.4143 21.1265 52.4365 21.2674 52.3254 21.3044C52.2883 21.3118 51.7324 21.3044 51.1025 21.2748C50.4725 21.2377 49.4349 21.2377 48.8049 21.2748C48.1749 21.3044 47.6191 21.3118 47.582 21.3044C47.4708 21.2674 47.4931 21.1265 47.6561 20.7485C47.8859 20.2223 48.1749 18.9772 48.1749 18.488C48.1749 18.2509 48.1972 18.0285 48.2268 17.9989C48.2564 17.9692 48.464 17.9766 48.6937 18.0063C48.9161 18.0359 49.5683 18.0508 50.139 18.0433ZM90.2279 66.8779C90.5688 67.078 90.8208 67.4263 90.9246 67.8488C91.0358 68.2787 91.0432 69.5016 90.9394 69.6943C90.8579 69.8351 90.4503 69.8351 61.5083 69.8351C32.8034 69.8351 32.1512 69.8351 31.8844 69.9759C30.7875 70.5392 30.7875 72.0215 31.8844 72.5848C32.1512 72.7256 32.8553 72.7256 64.547 72.7256H96.9353L97.0243 72.8886C97.128 73.0739 97.0762 74.03 96.9353 74.6155C96.4388 76.6981 94.9268 78.262 92.9035 78.7808C92.4069 78.9068 90.4799 78.9142 49.9537 78.9142C9.42746 78.9142 7.50046 78.9068 7.00389 78.7808C5.28442 78.3435 3.80211 77.0317 3.2166 75.4382C2.89791 74.571 2.72003 73.1999 2.88308 72.8886L2.97202 72.7256H14.4969C25.9255 72.7256 26.0219 72.7256 26.3183 72.5773C27.3634 72.0363 27.3559 70.5169 26.3035 69.9833C26.0293 69.8351 25.8143 69.8351 17.5357 69.8351C9.21994 69.8351 9.04206 69.8351 8.96795 69.6943C8.8716 69.509 8.8716 68.2712 8.96795 67.8488C9.05688 67.4634 9.28664 67.1373 9.63498 66.9001L9.89439 66.7222H49.9314H89.9685L90.2279 66.8779Z" fill="black"/>
<path d="M23.6722 4.60621C23.2646 4.70997 22.9681 4.93973 22.5456 5.50301C21.4562 6.94084 20.8262 8.80113 20.8262 10.5799C20.8262 12.4773 21.4191 14.1374 22.7087 15.8717C23.4869 16.9168 23.687 17.2873 23.9687 18.1397C24.1391 18.6511 24.1614 18.8512 24.1614 19.6961C24.1614 20.4595 24.1243 20.7633 24.0057 21.1413C23.7908 21.8232 23.4128 22.5792 22.9903 23.1573C22.4271 23.9206 22.3974 24.5729 22.8866 25.151C23.2053 25.5141 23.5091 25.6624 23.9909 25.6624C24.5097 25.6624 24.9099 25.4326 25.3472 24.8841C25.5473 24.6322 25.7178 24.395 25.7178 24.3579C25.7178 24.3283 25.7622 24.2468 25.8215 24.1875C26.1402 23.8095 26.6072 22.757 26.8814 21.7565C27.0593 21.0969 27.0815 20.9042 27.0815 19.7331C27.0889 18.7178 27.0593 18.3175 26.9481 17.8803C26.622 16.5314 26.1699 15.5975 25.2657 14.3894C24.1465 12.9071 23.7537 11.9066 23.7537 10.5799C23.7537 9.40888 24.1539 8.26751 24.9173 7.22989C25.3398 6.65179 25.451 6.34051 25.4065 5.85876C25.325 5.02867 24.4726 4.4061 23.6722 4.60621Z" fill="black"/>
<path d="M75.5236 4.62845C74.7158 4.8582 74.2711 5.79947 74.5972 6.58509C74.6565 6.73332 74.8492 7.0446 75.0196 7.27436C75.746 8.24527 76.1536 9.43111 76.1536 10.5799C76.1462 11.8843 75.746 12.9219 74.7232 14.2708C73.441 15.9681 72.8999 17.3614 72.811 19.1773C72.7146 21.0302 73.0926 22.5569 74.0191 24.1133C74.6416 25.151 75.2568 25.6624 75.909 25.6624C76.3982 25.6624 76.702 25.5215 77.0207 25.151C77.5099 24.5729 77.4802 23.9206 76.917 23.1573C76.4945 22.5792 76.1165 21.8232 75.9016 21.1413C75.7015 20.5113 75.6792 18.9179 75.8645 18.3175C76.1388 17.4059 76.3537 17.0057 77.1467 15.9533C79.0441 13.4185 79.5258 10.8986 78.6809 8.0081C78.3548 6.91119 77.2208 5.09537 76.6576 4.78409C76.3018 4.59139 75.8571 4.52468 75.5236 4.62845Z" fill="black"/>
<path d="M47.3224 27.4114C47.2409 27.4189 46.7888 27.4633 46.3219 27.5152C43.6686 27.7746 40.3185 28.538 38.1692 29.3681C37.9469 29.457 37.68 29.5534 37.5763 29.5904C37.4725 29.6201 37.2946 29.6868 37.1686 29.7387C37.0501 29.7905 36.8796 29.8573 36.7981 29.8943C36.7165 29.924 36.4571 30.0351 36.22 30.1389C35.9828 30.2426 35.7753 30.3316 35.7605 30.3316C35.7086 30.3316 33.7371 31.3099 33.2405 31.5841C31.8398 32.3623 30.4686 33.2517 29.0901 34.2819C27.6226 35.3788 27.4818 35.5567 27.4818 36.2905C27.4818 37.0316 27.8375 37.4911 28.5713 37.6838C29.1197 37.8321 29.4384 37.6986 30.5946 36.8315C32.8477 35.1343 34.8118 33.9781 37.2798 32.8663C38.2433 32.4365 39.8813 31.8584 41.2079 31.473C41.4303 31.4137 41.7341 31.3247 41.875 31.2803C42.1195 31.1987 42.5049 31.1172 43.0238 31.0283C43.2239 30.9912 43.2313 30.9986 43.0979 31.0802C43.0163 31.132 42.9348 31.1913 42.9126 31.221C42.8903 31.2506 42.6902 31.3692 42.4679 31.4804C42.2455 31.5915 41.9417 31.762 41.8009 31.851C41.66 31.9399 41.3413 32.1252 41.0968 32.2586C40.5038 32.5847 39.0512 33.563 38.1321 34.2449C35.2861 36.372 32.2029 39.5515 30.35 42.2864C29.8164 43.072 29.3495 43.7835 29.2754 43.9317C29.179 44.1096 29.053 44.3171 28.89 44.5617C28.0228 45.8661 26.5109 49.231 25.829 51.3803C25.7549 51.6027 25.666 51.8695 25.6215 51.9732C25.5844 52.077 25.5251 52.2549 25.4955 52.3809C25.4658 52.4995 25.3547 52.9219 25.2509 53.3073C25.0212 54.1522 24.6654 55.9088 24.4875 57.0872C24.4134 57.5541 24.3245 57.984 24.2874 58.0285C24.1837 58.1693 18.5064 58.1693 18.3878 58.0285C18.2767 57.8876 18.5954 55.931 18.9511 54.5673C19.5663 52.1734 20.389 49.9647 21.4266 47.8969C22.2715 46.1923 23.4647 44.2801 24.532 42.9015C25.325 41.8862 25.3102 41.9158 25.3102 41.2858C25.3102 40.767 25.2954 40.7003 25.0805 40.4335C24.9619 40.2779 24.7321 40.0926 24.5765 40.011C23.7983 39.6256 23.2127 39.8406 22.4494 40.7967C21.6786 41.7602 20.7818 43.0794 20.0332 44.3394C19.7293 44.8508 19.4551 45.3177 19.418 45.377C19.3143 45.5475 18.2693 47.6597 18.084 48.0822C17.8097 48.6973 17.7356 48.8752 17.5059 49.4163C17.2761 49.9795 16.4757 52.4476 16.2756 53.211C16.0087 54.256 15.9346 54.5525 15.8309 55.049C15.653 55.9013 15.5048 56.7759 15.3788 57.7616C15.2676 58.6288 15.2676 58.74 15.3714 59.1698C15.5122 59.7109 15.6752 59.9851 16.0606 60.3631C16.4238 60.7114 16.8388 60.919 17.3651 61.0153C17.6393 61.0672 19.1364 61.0894 21.5526 61.0746L25.3102 61.0524L25.7178 60.8597C26.4961 60.4965 26.8889 60.0222 27.1334 59.1698C27.215 58.903 27.2743 58.5324 27.2743 58.3472C27.2743 58.0359 27.3261 57.6949 27.6226 56.1608C27.9413 54.4857 28.5416 52.329 29.053 51.0097C29.142 50.7874 29.2383 50.5206 29.2754 50.4168C29.5125 49.6979 30.7503 47.1187 31.3284 46.1552C33.2183 42.9831 35.2417 40.5076 37.7616 38.299C38.0877 38.0099 38.4212 37.7209 38.5027 37.6468C38.5842 37.5726 39.0882 37.1873 39.6145 36.787C41.5044 35.3714 42.8162 34.5636 44.8025 33.5927C46.7814 32.6292 47.2631 32.4291 49.0716 31.8361C50.2648 31.4433 50.7021 31.1913 51.0356 30.6948C51.7694 29.5904 51.3247 28.0785 50.1018 27.5226C49.8127 27.3892 49.6274 27.3744 48.6195 27.3818C47.9895 27.3818 47.404 27.3966 47.3224 27.4114Z" fill="black"/>
</g>
<defs>
<clipPath id="clip0_139_134">
<rect width="100" height="81.8232" fill="white"/>
</clipPath>
</defs>
</svg>
