<svg width="100" height="100" viewBox="0 0 100 100" fill="none" xmlns="http://www.w3.org/2000/svg">
<path d="M36.1787 0.15899C36.1565 0.21815 36.0084 0.292101 35.853 0.321682C35.4016 0.403028 34.3803 0.846733 33.84 1.2017C32.7817 1.89683 32.123 2.90257 31.938 4.12275C31.8714 4.51469 31.8344 5.42429 31.8344 6.51137C31.8344 7.49491 31.8047 8.33056 31.7603 8.40451C31.7233 8.47846 31.5901 8.5598 31.4717 8.58199C31.1091 8.65594 30.2728 9.07006 29.8361 9.39545C29.3107 9.78739 28.7704 10.3272 28.3189 10.9262C28.1191 11.1925 27.9193 11.4365 27.8675 11.4809C27.8231 11.5178 27.6233 11.7619 27.4234 12.0207C27.2236 12.2795 26.8684 12.7306 26.6315 13.019C25.6398 14.2614 25.2772 14.7199 25.0996 14.9566C24.9959 15.0897 24.7295 15.4298 24.5001 15.7108C23.8414 16.5169 22.3538 18.3805 22.0282 18.802C21.8654 19.0091 21.6359 19.2975 21.5101 19.4454C21.3917 19.5859 21.0883 19.963 20.844 20.2736C20.5998 20.5916 20.3704 20.8948 20.326 20.9392C20.1632 21.124 19.6525 21.76 19.5489 21.9153C19.4897 22.0041 19.1715 22.4034 18.8458 22.8027C18.5202 23.2021 18.2019 23.6162 18.1353 23.7197C18.0687 23.8233 17.9133 24.0081 17.7875 24.1412C17.6691 24.2744 17.3582 24.6515 17.0992 24.9917C16.8402 25.3319 16.4627 25.8051 16.2555 26.0492C16.0483 26.2932 15.8337 26.5668 15.7744 26.6482C15.6634 26.8035 15.1528 27.4468 14.8863 27.7574C14.8123 27.8462 14.5755 28.142 14.3609 28.423C14.1389 28.704 13.8724 29.0294 13.7614 29.1551C13.643 29.2734 13.5542 29.3991 13.5542 29.4287C13.5542 29.4583 13.5098 29.5249 13.4654 29.5766C13.0287 30.0351 12.5255 30.7451 12.3478 31.1518C12.0296 31.8987 12.037 31.3514 12.037 48.0495V63.9933L12.2294 64.3557C12.5033 64.9029 12.8733 65.1248 13.4876 65.1322C13.9094 65.1322 14.013 65.1026 14.2721 64.9177C14.4349 64.7994 14.6421 64.5849 14.7309 64.4444L14.8863 64.193V57.1751C14.8863 50.941 14.9011 50.135 15.0048 49.9871L15.1158 49.8244H35.0537C54.6957 49.8244 54.9917 49.8244 55.0731 49.9649C55.1767 50.1645 55.1767 69.8946 55.0731 70.0943C54.9917 70.2348 54.6883 70.2348 35.0167 70.2348C15.3452 70.2348 15.0418 70.2348 14.9604 70.0943C14.9233 70.0129 14.8863 69.6949 14.8863 69.3844C14.8863 68.6079 14.6791 68.2159 14.1315 67.9349C13.5616 67.6465 12.7697 67.8166 12.3848 68.3195C12.0222 68.7927 12 68.9776 12 71.4846C12 73.7105 12.0074 73.8658 12.1554 74.2059C12.3404 74.6423 12.4589 74.7754 12.8289 74.9676C13.1989 75.1599 13.7984 75.1673 14.1463 74.975C14.2869 74.9011 14.5163 74.7014 14.6495 74.5313C14.8493 74.2651 14.8863 74.1542 14.8863 73.814C14.8863 73.5108 14.9233 73.3777 15.0344 73.2668C15.1824 73.1189 15.2786 73.1189 35.0167 73.1189C54.7549 73.1189 54.8511 73.1189 54.9991 73.2668C55.1471 73.4147 55.1471 73.5108 55.1471 84.7365C55.1471 93.1078 55.1693 96.1398 55.2359 96.3468C55.2951 96.5613 55.2951 96.6796 55.2359 96.8201L55.1471 97.005H35.3646H15.5746L15.323 96.8349C15.1824 96.7388 15.0344 96.5539 14.9826 96.4134C14.9159 96.2211 14.8937 93.9138 14.8937 87.0956L14.8863 78.0366L14.7013 77.7556C14.4053 77.3341 14.0056 77.1122 13.5172 77.1122C12.7845 77.1122 12.3626 77.4376 12.1184 78.1845C12.0074 78.5173 12 79.4417 12.0222 87.6872C12.0444 97.4635 12.0296 97.0494 12.3922 97.8998C12.7327 98.6763 13.7984 99.5637 14.7235 99.8225C15.2194 99.963 15.8559 99.963 49.7519 99.9482L84.2696 99.926L84.7728 99.6894C85.1281 99.5193 85.4389 99.2901 85.7941 98.9351C86.4306 98.2991 86.7415 97.6632 86.9265 96.5983C87.0449 95.9031 87.0523 94.0026 87.0301 63.912C87.0005 30.8929 87.0079 31.2627 86.7193 30.6341C86.6675 30.5084 86.5564 30.2644 86.4824 30.0795C86.4084 29.8946 86.1642 29.4657 85.9348 29.1181C85.7127 28.7706 85.5129 28.4526 85.4981 28.4156C85.4833 28.3712 85.3797 28.2085 85.2761 28.0458C85.1725 27.8832 85.0541 27.6983 85.0097 27.6317C84.9727 27.5652 84.7432 27.1954 84.5064 26.8183C83.5517 25.2801 83.1668 24.6811 82.6858 23.9416C82.4045 23.5127 82.1159 23.0468 82.0345 22.9063C81.9013 22.6548 81.2648 21.6491 80.8208 20.9983C80.7023 20.8282 80.6061 20.6656 80.6061 20.6434C80.6061 20.6212 80.5025 20.4585 80.3841 20.281C80.2657 20.1035 80.1621 19.9408 80.1621 19.926C80.1621 19.9113 79.9623 19.5933 79.7254 19.2309C79.4812 18.8612 79.2222 18.447 79.1482 18.3139C79.0742 18.1734 78.8743 17.8628 78.7189 17.6188C78.5561 17.3747 78.3933 17.1159 78.3489 17.0494C78.149 16.7018 76.5431 14.1579 76.2618 13.7512C76.0842 13.4923 75.9436 13.2631 75.9436 13.2335C75.9436 13.2039 75.7956 12.9525 75.6105 12.6789C75.4255 12.3979 75.2775 12.1612 75.2775 12.1464C75.2775 12.1316 75.1813 11.9763 75.0629 11.7988C74.9519 11.6214 74.6928 11.2294 74.5004 10.9262C73.5531 9.44721 73.2127 9.0183 72.8204 8.81124L72.6206 8.70771L72.591 6.58532C72.554 4.36679 72.5096 3.89351 72.2505 3.19837C71.9471 2.38491 71.1404 1.4901 70.2449 0.965054C69.8823 0.757992 68.8609 0.366052 68.5279 0.314287C68.3503 0.284706 68.2467 0.232941 68.2467 0.166385C68.2467 0.0036931 36.2379 0.0036931 36.1787 0.15899ZM67.7582 3.19097C68.0764 3.25013 68.3725 3.33148 68.4169 3.37585C68.4613 3.42022 68.5501 3.4572 68.6019 3.4572C68.7869 3.4572 69.3716 3.98225 69.4752 4.24108C69.5566 4.42595 69.5788 4.92882 69.5788 6.29691C69.5788 7.87206 69.564 8.1087 69.4604 8.14568C69.2532 8.22702 34.9575 8.19744 34.9057 8.1161C34.8835 8.07173 34.8613 7.2065 34.8687 6.18598C34.8687 4.56646 34.8909 4.30763 35.0019 4.13754C35.3202 3.64207 35.8234 3.35367 36.6449 3.19837C37.3924 3.05047 66.9441 3.05047 67.7582 3.19097ZM67.2772 11.2146C67.3956 11.2886 67.3586 11.3995 67.0625 11.8506C66.9811 11.9689 66.8923 12.1242 66.8627 12.1834C66.8331 12.2426 66.6777 12.494 66.5075 12.738C66.3446 12.9821 65.9746 13.5589 65.6934 14.0174C65.4047 14.4759 65.1161 14.9418 65.0495 15.0527C64.9755 15.1636 64.8941 15.3041 64.8645 15.3633C64.8275 15.4224 64.6498 15.7035 64.4648 15.9919C64.0134 16.6796 63.0661 18.1808 63.0661 18.2104C63.0661 18.2252 62.9254 18.447 62.7552 18.7059C62.5776 18.9647 62.4 19.2457 62.3482 19.327C62.2964 19.401 62.0743 19.7634 61.8449 20.1331C61.6229 20.4955 61.2232 21.1314 60.9568 21.5382C60.6904 21.9449 60.4387 22.3442 60.3943 22.4256C60.2907 22.6326 60.2019 22.7805 59.7283 23.4979C59.3508 24.0673 58.4405 25.5315 58.2259 25.9013C58.1741 25.9826 58.0039 26.2488 57.8484 26.4929C57.508 27.0105 57.5228 26.981 57.0121 27.8314C56.7901 28.1864 56.5311 28.5931 56.4275 28.7262L56.2424 28.9702H37.0816C23.8414 28.9702 17.9133 28.948 17.8837 28.8963C17.8393 28.8223 18.2019 28.2899 18.6978 27.7057C18.8162 27.5652 19.1344 27.1658 19.4009 26.8257C19.6673 26.4855 20.0152 26.0492 20.178 25.8569C20.3408 25.672 20.659 25.2727 20.8811 24.9843C21.1031 24.6885 21.3917 24.3261 21.5101 24.1856C21.6359 24.0377 21.8654 23.7493 22.0282 23.5348C22.3464 23.1207 22.8941 22.4404 23.0939 22.2037C23.3603 21.8857 24.1078 20.9466 24.3003 20.6951C24.6777 20.1997 24.7887 20.0592 24.9515 19.8743C25.0403 19.7707 25.3216 19.4232 25.5658 19.0978C25.8174 18.7724 26.2023 18.2843 26.4317 18.0181C26.8018 17.5744 28.3559 15.6221 28.8814 14.9418C28.9998 14.7865 29.2959 14.4093 29.5401 14.1061C29.7843 13.8029 30.184 13.3001 30.4208 12.9969C31.4125 11.7323 31.9824 11.3551 33.0925 11.222C33.7364 11.1407 67.1587 11.1407 67.2772 11.2146ZM71.7251 12.1612C72.0137 12.6419 72.4134 13.2853 72.6206 13.5885C72.8204 13.8917 73.0054 14.1949 73.035 14.254C73.0646 14.3132 73.2275 14.572 73.4051 14.8234C73.5827 15.0823 73.7233 15.3041 73.7233 15.3263C73.7233 15.3485 73.9305 15.6739 74.1748 16.051C74.4264 16.4208 74.8334 17.0641 75.0777 17.4709C75.3293 17.8776 75.6697 18.4174 75.8474 18.6763C76.025 18.9351 76.1656 19.157 76.1656 19.1791C76.1656 19.2013 76.2322 19.3049 76.3062 19.4158C76.4838 19.6672 78.0084 22.078 78.1194 22.2777C78.1638 22.359 78.3563 22.6548 78.5413 22.9432C79.163 23.8898 79.6884 24.7107 80.0807 25.3466C80.2953 25.6942 80.6283 26.2267 80.8282 26.5299C81.028 26.8331 81.2204 27.1363 81.25 27.1954C81.3462 27.3655 81.6275 27.8166 81.9827 28.3564C82.1603 28.6227 82.2861 28.8741 82.2639 28.9111C82.2047 28.9998 59.9799 28.985 59.9207 28.8963C59.8689 28.8149 60.1057 28.3416 60.4017 27.9349C60.5053 27.7944 60.6238 27.6095 60.6756 27.5282C60.7274 27.4468 60.8532 27.2324 60.9642 27.0475C61.0752 26.8626 61.4083 26.345 61.6969 25.9013C62.4814 24.7033 62.7848 24.23 62.9402 23.9416C63.0216 23.8011 63.1253 23.631 63.1845 23.5644C63.2437 23.5053 63.2881 23.4313 63.2881 23.4091C63.2881 23.3943 63.4953 23.0542 63.7543 22.6622C64.006 22.2703 64.3982 21.6565 64.6276 21.3015C64.8571 20.9466 65.2419 20.3476 65.4787 19.9852C65.7156 19.6155 65.9894 19.1717 66.0856 18.9869C66.1818 18.802 66.3446 18.5506 66.4409 18.4174C66.5371 18.2917 66.6185 18.1586 66.6185 18.1364C66.6185 18.1069 66.7147 17.959 66.8257 17.8111C66.9441 17.6632 67.2624 17.1751 67.5362 16.7314C67.81 16.2803 68.1949 15.6665 68.3947 15.3633C68.5945 15.0601 68.8017 14.7347 68.8535 14.646C69.1274 14.1801 69.4308 13.6994 69.8675 13.0338C70.4225 12.1908 70.5039 12.0577 70.6001 11.8506C70.6964 11.6509 71.0294 11.296 71.1256 11.296C71.17 11.296 71.4364 11.6879 71.7251 12.1612ZM55.0731 32.0688C55.1249 32.1649 55.1471 34.6053 55.1471 39.4639C55.1471 45.9493 55.1323 46.7184 55.0287 46.822C54.9251 46.9255 53.0083 46.9403 35.0463 46.9403C15.2786 46.9403 15.1824 46.9403 15.0344 46.7924C14.8863 46.6445 14.8863 46.5483 14.8863 39.7449C14.8863 35.2708 14.9159 32.7565 14.9604 32.579C15.0048 32.4311 15.138 32.2241 15.2638 32.1205L15.4932 31.9283H35.2388C54.6957 31.9283 54.9917 31.9283 55.0731 32.0688ZM83.9661 32.0688C84.0697 32.1575 84.0845 32.86 84.0845 39.4417C84.0845 45.9493 84.0697 46.7184 83.9661 46.822C83.8625 46.9255 82.5896 46.9403 71.059 46.9403H58.2629L58.1519 46.7776C58.0483 46.6297 58.0335 45.8088 58.0335 39.4195C58.0335 33.7918 58.0557 32.1871 58.1297 32.0688L58.2185 31.9135L71.0294 31.9431C81.5534 31.9652 83.8699 31.9874 83.9661 32.0688ZM83.9957 49.9131C84.0845 50.024 84.1512 69.9981 84.0623 70.146C84.0105 70.2126 81.3314 70.2348 71.096 70.2348C58.4109 70.2348 58.1889 70.2348 58.1075 70.0943C58.0557 69.9981 58.0335 66.7221 58.0335 60.0222C58.0335 50.8893 58.0409 50.0832 58.1593 49.9575C58.2703 49.8318 58.7735 49.8244 71.096 49.8244C81.2648 49.8244 83.9365 49.8465 83.9957 49.9131ZM84.0105 73.2668C84.1586 73.4147 84.1586 73.5108 84.1586 84.4999C84.1586 96.6722 84.1734 96.3394 83.7293 96.7979L83.5369 97.005H71.0738H58.6107L58.4183 96.7979C58.0335 96.3838 58.0335 96.4947 58.0335 84.4999C58.0335 74.2651 58.0409 73.3777 58.1593 73.252C58.2703 73.1263 58.7735 73.1189 71.0738 73.1189C83.7663 73.1189 83.8625 73.1189 84.0105 73.2668Z" fill="black"/>
<path d="M33.4921 14.2836C33.2553 14.3945 32.9963 14.5942 32.789 14.8456C32.6114 15.0601 32.3598 15.3559 32.234 15.5038C31.9009 15.8957 31.3755 16.6205 31.2274 16.8941C31.0128 17.2712 31.0498 17.848 31.3163 18.2696C31.6937 18.8612 32.2044 19.0756 32.863 18.9129C33.3071 18.8094 33.6105 18.5284 34.5208 17.3969C35.2239 16.5169 35.5348 15.9919 35.5348 15.6591C35.5348 15.1636 35.1425 14.5498 34.6911 14.3354C34.1804 14.0987 33.914 14.0913 33.4921 14.2836Z" fill="black"/>
<path d="M29.651 19.4083C28.9997 19.5414 29.2365 19.2826 26.0098 23.3351C25.7729 23.6309 25.5287 23.9341 25.4547 24.0081C25.1216 24.3926 24.5 25.2726 24.3964 25.5167C24.1595 26.0787 24.352 26.759 24.8626 27.1806C25.1809 27.4394 25.2179 27.4468 25.7359 27.4468C26.2318 27.4394 26.3132 27.4172 26.5648 27.2175C26.7868 27.04 27.3567 26.3671 28.23 25.2726C28.2818 25.2135 28.5927 24.8215 28.9331 24.4074C29.2661 23.9933 29.54 23.6309 29.54 23.6013C29.54 23.5791 29.6732 23.4165 29.8286 23.2538C30.2061 22.8544 31.0201 21.76 31.1978 21.4198C31.3976 21.0352 31.3384 20.3475 31.072 19.9999C30.7389 19.5562 30.132 19.3048 29.651 19.4083Z" fill="black"/>
<path d="M19.2673 52.6937C19.0083 52.7159 18.8973 52.775 18.5939 53.0782C18.3422 53.3297 18.2164 53.5219 18.1794 53.7216C18.1498 53.8769 18.1054 56.4282 18.0906 59.401C18.061 65.0435 18.0758 65.3985 18.3792 65.9087C18.6013 66.2933 18.9195 66.4781 19.4376 66.5225C20.2294 66.5817 20.7105 66.2563 20.9769 65.4724C21.0879 65.1544 21.1027 64.7329 21.1027 62.3813C21.1027 60.2367 21.125 59.6599 21.199 59.6599C21.2508 59.6599 21.4062 59.8521 21.5468 60.0814C21.6874 60.3106 21.8798 60.6212 21.9687 60.7617C22.0649 60.9096 22.1685 61.0945 22.2055 61.1759C22.3091 61.4051 22.7383 61.7823 23.0418 61.908C23.6264 62.152 24.2629 61.9893 24.6996 61.4938C24.818 61.3533 25.077 60.9836 25.2694 60.6582C25.7135 59.9039 25.8097 59.7782 25.9059 59.8447C25.9651 59.8743 25.9873 60.7765 25.9873 62.6623C25.9873 65.7978 25.9947 65.8569 26.5572 66.2859C26.8162 66.4781 26.8902 66.5003 27.4305 66.5003C27.9634 66.5003 28.0522 66.4781 28.2964 66.2933C28.4444 66.1749 28.6368 65.9531 28.7183 65.7904C28.8737 65.502 28.8737 65.4132 28.8737 59.5785V53.6699L28.696 53.3888C28.3112 52.7898 27.919 52.6197 27.0975 52.6937C26.8162 52.7233 26.7126 52.7824 26.3796 53.13C26.1649 53.3519 25.9873 53.5589 25.9873 53.5959C25.9873 53.6329 25.8985 53.7882 25.7949 53.9435C25.6913 54.0988 25.5729 54.291 25.5359 54.3724C25.4989 54.4537 25.4027 54.6164 25.3212 54.7421C25.2398 54.8605 25.151 55.0158 25.1214 55.0749C25.0992 55.1341 24.7588 55.7109 24.3739 56.3469C23.9077 57.1307 23.6338 57.5153 23.545 57.5153C23.4636 57.5153 23.1454 57.0642 22.5755 56.125C22.1167 55.3633 21.6356 54.5868 21.5098 54.3946C21.3914 54.2023 21.125 53.7956 20.9325 53.485C20.7327 53.1818 20.5329 52.9303 20.4811 52.9303C20.4219 52.9303 20.3405 52.886 20.2961 52.8268C20.1998 52.7159 19.7706 52.6567 19.2673 52.6937Z" fill="black"/>
<path d="M36.238 52.7086C35.8605 52.7603 35.5719 52.96 35.3054 53.3298L35.0908 53.6182V59.5638C35.0908 65.3394 35.0982 65.5169 35.2388 65.7979C35.3869 66.0937 35.6681 66.3303 36.0159 66.4634C36.2454 66.5522 41.315 66.5743 41.6554 66.493C42.6915 66.2342 42.995 64.6886 42.1365 64.0378C41.6776 63.6903 41.463 63.6533 39.746 63.6533C38.6062 63.6533 38.1326 63.6311 38.066 63.5646C37.9994 63.498 37.9772 62.2926 37.9772 58.5877C37.9772 53.9731 37.9698 53.6921 37.8365 53.4481C37.5405 52.8861 36.941 52.6124 36.238 52.7086Z" fill="black"/>
<path d="M31.2276 52.8933C31.0795 52.9894 30.8797 53.1965 30.7909 53.3518L30.6133 53.6328V59.6228V65.6128L30.7835 65.8865C31.0721 66.3376 31.4052 66.5002 32.0713 66.5002C32.5893 66.5002 32.6559 66.4855 32.9224 66.271C33.0778 66.1453 33.2702 65.916 33.3516 65.7533C33.4922 65.4723 33.4996 65.2948 33.5218 59.7707C33.544 53.7437 33.544 53.6846 33.1962 53.2187C32.9076 52.8267 32.6411 52.7084 32.0342 52.7084C31.5902 52.7084 31.457 52.738 31.2276 52.8933Z" fill="black"/>
<path d="M44.1715 53.019C43.5868 53.5441 43.6016 53.374 43.6016 59.5637C43.6016 65.6646 43.6016 65.6498 44.0901 66.1379C44.6673 66.7147 45.7775 66.663 46.2437 66.0344C46.5101 65.6794 46.5619 65.3023 46.5619 63.8454C46.5619 62.6031 46.5767 62.4108 46.71 62.1446C46.8654 61.8192 47.2502 61.3607 47.3686 61.3607C47.4279 61.3607 47.8719 61.9893 47.9607 62.2111C47.9755 62.2481 48.1309 62.4847 48.2938 62.7288C48.464 62.9728 48.7822 63.4683 49.0042 63.8232C49.2263 64.1782 49.4705 64.5628 49.5371 64.6737C49.6111 64.7846 49.6925 64.9177 49.7147 64.9769C49.7443 65.0286 49.8775 65.2431 50.0108 65.4428C50.6028 66.3154 50.8767 66.4929 51.6389 66.4929C52.1126 66.4929 52.1866 66.4781 52.4604 66.2562C52.6677 66.0935 52.8009 65.9087 52.8823 65.672C53.0969 65.0434 53.0229 64.6663 52.5123 63.875C52.342 63.6088 51.9498 62.9802 51.6315 62.4699C51.0025 61.4494 50.5066 60.6729 50.181 60.1923C50.0626 60.0222 49.9664 59.8595 49.9664 59.8299C49.9664 59.8003 49.9219 59.7264 49.8627 59.6672C49.6925 59.4675 49.3743 58.8464 49.3743 58.7132C49.3743 58.6467 49.6037 58.2991 49.8775 57.9442C51.4317 55.9253 52.12 55.0009 52.2606 54.7199C52.4901 54.2762 52.4456 53.6476 52.157 53.2631C51.824 52.8268 51.5649 52.7084 50.9507 52.7084C50.4696 52.7084 50.3956 52.7306 50.0996 52.9525C49.8183 53.1669 47.7979 55.7256 47.0356 56.8349C46.8358 57.1233 46.7396 57.2046 46.6804 57.1455C46.6286 57.0937 46.5842 56.4725 46.5619 55.3855C46.5175 53.4775 46.4731 53.3074 45.9477 52.9229C45.6812 52.7306 45.5924 52.7084 45.0892 52.7084C44.5267 52.7084 44.5193 52.7084 44.1715 53.019Z" fill="black"/>
</svg>
