<svg width="100" height="100" viewBox="0 0 100 100" fill="none" xmlns="http://www.w3.org/2000/svg">
<g clip-path="url(#clip0_137_99)">
<path d="M48.3975 0.0445275C47.2338 0.148289 45.5366 0.59298 44.3582 1.09696C41.7641 2.20128 39.7111 3.90593 38.214 6.18127C37.8286 6.76678 37.6359 7.1003 36.9689 8.37508C34.5898 12.8887 30.6987 16.6019 25.9776 18.855C25.57 19.0551 25.1697 19.2404 25.0882 19.2774C25.0067 19.3071 24.7769 19.4108 24.5694 19.4998C24.1247 19.6925 21.5826 20.53 21.4343 20.53C21.375 20.53 21.1749 20.5819 20.9822 20.6412C20.7969 20.7004 20.3893 20.7968 20.0854 20.8561C19.7816 20.9154 19.3443 20.9969 19.1219 21.0414C18.2177 21.2193 16.4464 21.3601 14.3786 21.4194C11.8809 21.4935 10.9248 21.6269 9.7093 22.0938C9.48695 22.1753 9.23496 22.2643 9.15343 22.2865C8.9385 22.3458 7.43396 23.0795 7.02633 23.3241C5.09192 24.4803 3.36503 26.222 2.17178 28.2009C1.05264 30.0686 0.452303 31.7733 0.0817273 34.1005C-0.0220341 34.7379 -0.0220341 37.9174 0.0817273 38.4955C0.541242 41.134 1.23051 42.7868 2.698 44.7657C3.2168 45.4698 4.32853 46.6408 4.96592 47.1448C6.81139 48.6271 8.96073 49.5609 11.451 49.9686C12.3033 50.1094 33.1668 50.1094 34.7973 49.9686C36.0128 49.8648 37.3839 49.6943 38.0213 49.5757C38.7551 49.4275 39.2442 49.4127 39.3258 49.5165C39.4517 49.6721 39.8297 52.066 40.0521 54.0671C40.519 58.2917 40.4449 62.9684 39.8297 68.3714C39.6074 70.3132 39.3109 72.5737 39.1256 73.6706C38.8218 75.5383 38.8218 75.5087 38.5031 77.2281C38.4438 77.532 38.3474 78.0656 38.2807 78.414C37.836 80.8598 37.71 81.5491 37.6211 82.0086C37.5618 82.2902 37.458 82.8238 37.3913 83.1944C37.3246 83.5576 37.2209 84.0764 37.169 84.3432C36.917 85.4994 36.8355 86.285 36.8355 87.4635C36.8355 89.3312 37.1319 90.8654 37.7842 92.3847C38.1621 93.2519 38.6365 93.6817 39.222 93.6817C39.7482 93.6743 40.4301 93.1926 40.6524 92.6664C40.8377 92.2291 40.8081 91.9993 40.4745 91.1989C39.6815 89.3015 39.5481 87.2559 40.0595 84.7879C40.2003 84.0986 40.3634 83.2908 40.4968 82.6015C40.8525 80.7634 40.8081 81.008 41.1786 78.9328C41.2379 78.5845 41.3417 78.0212 41.401 77.6728C41.4677 77.3245 41.564 76.7909 41.6159 76.487C41.7716 75.6717 41.9865 74.3599 42.2829 72.4848C42.4386 71.5139 42.8092 68.3343 42.95 66.815C43.5355 60.3447 43.3502 54.9491 42.3497 49.4349C42.2385 48.8124 42.2385 48.8049 42.4015 48.6715C42.4905 48.6048 42.6239 48.5455 42.698 48.5455C42.7721 48.5455 42.9648 48.5011 43.113 48.4418C43.2687 48.3825 43.7653 48.2194 44.2099 48.0712C45.7515 47.5746 47.4636 46.9224 48.4567 46.4555C50.4875 45.5142 52.207 44.6174 53.6596 43.7429C54.6009 43.1722 56.0684 42.2235 57.0319 41.5417C58.2844 40.6671 58.6921 40.3929 58.7736 40.3929C58.8922 40.3929 58.8625 40.6819 58.655 41.6306C58.5438 42.1123 58.4327 42.6386 58.403 42.8016C58.3734 42.9647 58.3141 43.2315 58.2696 43.3945C58.2251 43.5576 58.151 43.8763 58.1066 44.0986C58.0547 44.321 57.9657 44.7212 57.9064 44.988C57.8472 45.2548 57.7656 45.6032 57.736 45.7662C57.7063 45.9293 57.5729 46.5296 57.4543 47.1003C57.1356 48.5752 56.8837 49.8648 56.7428 50.769C56.6687 51.1989 56.565 51.814 56.5057 52.1401C56.4464 52.4662 56.4019 52.8813 56.4019 53.0666C56.4019 53.2519 56.3648 53.6002 56.3204 53.8448C56.2314 54.3414 56.1499 55.4827 56.0239 57.9952C55.8683 61.2193 56.1277 65.7551 56.7428 70.2243C57.0393 72.3884 57.4395 75.0047 57.6322 76.0052C57.6915 76.3314 57.7879 76.8502 57.8472 77.154C57.9954 77.9693 58.1733 78.8957 58.2918 79.4887C58.3511 79.7703 58.6031 81.0599 58.8477 82.3421C59.0997 83.6243 59.3443 84.9065 59.4036 85.1955C60.204 89.1681 59.0923 92.3995 56.2018 94.4674C55.1271 95.2456 53.4225 95.92 51.7475 96.2387C50.7395 96.4314 48.4864 96.4166 47.471 96.2091C46.2629 95.9645 45.2772 95.6532 44.5657 95.2974C44.2544 95.1418 43.5726 95.1863 43.2613 95.379C42.5201 95.8385 42.3126 96.9576 42.8536 97.5802C43.1353 97.8989 43.6837 98.1657 44.9511 98.6104C45.381 98.7586 46.3371 98.9958 47.1004 99.144C47.6341 99.2478 48.1603 99.27 49.6945 99.27C51.3769 99.27 51.7178 99.2478 52.4145 99.107C53.3113 98.9291 54.1784 98.6993 54.6454 98.5289C54.8158 98.4696 55.0456 98.388 55.1494 98.3584C55.2531 98.3213 55.4013 98.2621 55.4829 98.2176C55.557 98.1731 55.8609 98.0249 56.1425 97.8841C57.4988 97.2244 58.3437 96.6241 59.3665 95.6087C60.8636 94.1116 61.753 92.5626 62.2199 90.6059C62.4201 89.7759 62.6276 88.2491 62.6276 87.6191C62.6276 87.0855 62.4423 85.4623 62.2941 84.6397C62.1014 83.6243 61.7382 81.7566 61.6196 81.1933C61.4343 80.3262 61.3083 79.6665 61.1823 79.0069C61.0712 78.4288 60.997 78.036 60.7821 76.9317C60.5153 75.5531 60.0261 72.5441 59.8112 70.9283C59.7667 70.58 59.6778 70.0316 59.6185 69.7054C59.5592 69.3793 59.5147 69.0088 59.5147 68.8902C59.5147 68.7642 59.4703 68.2676 59.4036 67.7785C58.8922 63.628 58.8106 57.7358 59.2257 54.2154C59.3962 52.7331 59.5296 51.814 59.6333 51.3249C59.6926 51.0358 59.7371 50.6875 59.7371 50.5467C59.7371 50.4058 59.7667 50.2428 59.7964 50.1983C59.8409 50.1242 62.094 50.102 70.1873 50.0871C80.1558 50.0649 80.5338 50.0575 80.7858 49.9241C80.9266 49.85 81.1342 49.6869 81.2527 49.5609C81.8383 48.9087 81.6307 47.6784 80.8599 47.2856C80.5709 47.1374 80.4523 47.1374 70.6098 47.1374C62.3682 47.1374 60.6339 47.1225 60.5598 47.041C60.4782 46.9372 60.5153 46.7297 60.9007 45.0621C60.96 44.7953 61.0415 44.447 61.0712 44.2839C61.1008 44.1209 61.2046 43.6688 61.2935 43.2834C61.3824 42.898 61.4862 42.4459 61.5159 42.2828C61.5455 42.1198 61.6493 41.6676 61.7308 41.2823C61.8197 40.8969 61.9902 40.1112 62.1162 39.5405C62.4719 37.8581 62.3756 38.0434 63.1983 37.5839C64.6954 36.7538 67.2301 35.5013 68.7421 34.8565C69.2461 34.6341 71.0323 33.9523 72.0032 33.6039C73.4632 33.0777 75.4718 32.4996 76.8948 32.2031C77.2209 32.129 77.6063 32.0401 77.7471 31.9956C77.8879 31.9586 78.2066 31.8993 78.4512 31.8696C78.6958 31.8326 79.096 31.7733 79.3406 31.7362C81.0008 31.4397 83.202 31.3212 85.1586 31.4249C85.9146 31.462 86.6483 31.5287 86.7892 31.5732C86.93 31.6102 87.1597 31.6473 87.2931 31.6473C87.6711 31.6473 88.768 31.9215 90.0502 32.3291C92.4886 33.1073 94.4527 34.2932 96.2981 36.0868C97.1208 36.8872 97.0912 36.7983 96.9059 38.0212C96.5798 40.2891 95.6015 42.3347 94.1043 43.9208C93.2149 44.8546 92.3478 45.492 91.199 46.0553C89.8131 46.7223 89.02 46.9447 87.4932 47.0632C86.2926 47.1596 86.0628 47.2189 85.7886 47.4931C85.0178 48.2565 85.2327 49.509 86.1962 49.9315C86.5001 50.0649 87.4043 50.0723 88.3456 49.9537C92.837 49.3756 96.5798 46.6482 98.6105 42.4681C99.448 40.7486 99.9817 38.3325 99.9817 36.2795C99.9817 34.434 99.6778 32.8553 98.9144 30.7208C98.7884 30.3651 98.1066 29.031 97.7582 28.4603C96.6391 26.6223 94.7343 24.7397 92.7925 23.5539C91.9995 23.0647 90.6654 22.4347 89.8427 22.1679C88.2566 21.6417 86.9893 21.449 84.6769 21.3823C81.6159 21.3008 79.7927 21.0043 77.0875 20.1372C75.116 19.5072 73.2187 18.6104 71.3361 17.4171C70.884 17.1281 69.6018 16.2091 69.335 15.9793C69.172 15.8459 68.8755 15.5865 68.668 15.416C66.3185 13.4223 64.2285 10.7912 62.7239 7.93039C62.1458 6.8409 62.0495 6.67784 61.6196 6.02563C60.6042 4.50627 58.9441 2.93502 57.3654 1.99376C56.1277 1.26002 55.0456 0.800503 53.6967 0.452161C52.4441 0.126054 51.9476 0.0593505 50.3245 0.0371159C49.4499 0.0297044 48.5827 0.0297044 48.3975 0.0445275ZM52.1773 3.12031C54.6009 3.60206 56.5279 4.66191 58.1362 6.38879C58.8255 7.12995 59.3369 7.82663 59.7519 8.59743C59.9001 8.86424 60.2262 9.46458 60.4782 9.9315C61.0489 10.9913 62.2867 12.8591 63.0352 13.7855C65.9554 17.4023 69.587 20.2187 73.6337 21.9752C73.7968 22.0419 74.0339 22.1457 74.1525 22.1976C75.8053 22.9239 78.303 23.628 80.4152 23.9689C81.8605 24.1987 82.4312 24.2506 84.3434 24.3099C85.4254 24.3469 86.5594 24.4136 86.8633 24.4581C90.3912 24.9917 93.4595 27.0521 95.3717 30.1724C95.6904 30.6986 96.2018 31.8103 96.2018 31.9808C96.2018 32.1438 96.1499 32.1216 95.5051 31.6917C93.7782 30.5504 91.4881 29.5869 89.3091 29.0903C89.0052 29.0236 88.5531 28.9198 88.3085 28.8679C88.0639 28.8087 87.7008 28.7494 87.4932 28.7271C87.2931 28.7123 86.9077 28.653 86.6409 28.6011C85.8479 28.4529 81.4158 28.4751 80.267 28.6308C78.4438 28.8828 77.6063 29.0384 75.8201 29.4312C73.9672 29.8463 70.6839 30.8765 69.1127 31.5361C68.9941 31.588 68.2381 31.9067 67.4451 32.2402C66.2074 32.759 63.139 34.2413 62.2348 34.7527C61.086 35.3975 59.9076 36.0868 59.4036 36.4055C58.6179 36.902 56.4464 38.3399 56.4019 38.3918C56.3426 38.4659 54.5046 39.7258 53.5855 40.3336C51.1323 41.9345 48.1084 43.5205 45.7293 44.447C45.4625 44.5507 45.0845 44.699 44.877 44.7805C44.1358 45.0695 42.5572 45.5735 41.5418 45.8329C39.6889 46.3221 39.4147 46.3814 37.8731 46.6482C35.1531 47.1151 34.5972 47.1374 22.8944 47.1374C11.9772 47.1374 11.8735 47.1374 10.6654 46.8187C10.191 46.6927 9.62036 46.5 9.43507 46.411C9.36096 46.374 9.07191 46.2331 8.78286 46.0997C6.88551 45.1955 5.03263 43.3723 4.08395 41.4675C3.29092 39.8815 3.09822 39.1848 2.8907 37.1689C2.64611 34.8639 3.35021 31.8844 4.64723 29.7647C6.39635 26.9039 9.16084 24.9843 12.244 24.4877C12.6517 24.421 13.8375 24.3469 15.1197 24.3099C17.2691 24.2506 17.9361 24.1987 19.3443 23.9689C21.5233 23.6058 24.1692 22.872 25.6811 22.205C25.8071 22.1457 26.0517 22.0419 26.237 21.9678C26.8744 21.7084 28.7866 20.7301 29.5277 20.2854C31.4918 19.0996 32.9593 17.9582 34.6787 16.2758C36.8058 14.1931 38.3474 12.0883 39.8001 9.30152C41.1416 6.7149 42.7425 5.09919 45.0993 3.97264C45.6922 3.691 47.0189 3.25372 47.7304 3.10549C48.894 2.86832 50.9618 2.87573 52.1773 3.12031Z" fill="black"/>
<path d="M43.5948 12.7405C43.1945 12.8146 42.8833 13.1407 42.1643 14.208C39.763 17.8026 36.7243 20.8413 33.2779 23.1092C32.685 23.4946 32.1143 23.8726 32.0031 23.9467C31.892 24.0282 31.7808 24.0875 31.7586 24.0875C31.7363 24.0875 31.5955 24.1617 31.4399 24.258C31.2916 24.3544 30.8025 24.6212 30.3504 24.8583C29.9057 25.0955 29.4536 25.3623 29.3572 25.4513C28.831 25.9182 28.8532 26.8965 29.4017 27.4598C29.7204 27.7859 30.0539 27.9415 30.4541 27.9415C30.7209 27.9415 31.6326 27.5339 32.6479 26.9484C32.811 26.8594 33.063 26.7186 33.2038 26.6371C33.9746 26.1998 35.8201 24.9695 36.5761 24.3914C39.6889 22.0197 42.4756 19.0477 44.5434 15.9349C45.4254 14.5934 45.544 14.2747 45.3439 13.704C45.0919 12.9702 44.3952 12.5848 43.5948 12.7405Z" fill="black"/>
<path d="M23.8281 27.4227C23.6651 27.4524 23.1685 27.5635 22.7164 27.6673C22.2717 27.7711 21.4861 27.9267 20.9747 28.0082C20.4633 28.0972 19.8185 28.2009 19.5443 28.2454C18.6623 28.3862 18.2473 28.8457 18.2398 29.6832C18.2324 30.3503 18.6327 30.9284 19.2404 31.1285C19.4479 31.2026 19.6703 31.1952 20.367 31.0988C22.0271 30.8617 24.0875 30.4244 24.7175 30.1798C25.1993 29.9871 25.3475 29.8611 25.5402 29.4905C25.7625 29.0384 25.7625 28.6753 25.5402 28.1861C25.2363 27.5487 24.6063 27.2597 23.8281 27.4227Z" fill="black"/>
</g>
<defs>
<clipPath id="clip0_137_99">
<rect width="100" height="99.2774" fill="white"/>
</clipPath>
</defs>
</svg>
