<svg width="100" height="100" viewBox="0 0 100 100" fill="none" xmlns="http://www.w3.org/2000/svg">
<g clip-path="url(#clip0_173_61)">
<path d="M33.2225 0.103552C33.2225 0.162745 33.1041 0.251536 32.9561 0.295931C32.638 0.406919 32.2754 0.75468 32.0312 1.19123L31.8536 1.5168L31.8018 5.95631C31.7427 10.7066 31.6761 11.8165 31.3727 12.9115C30.803 14.9685 30.1222 16.6629 29.4267 17.7432C29.3157 17.9134 29.1529 18.1798 29.0716 18.3351C28.8718 18.7125 28.7534 18.8975 28.7016 18.9419C28.6794 18.9641 28.3612 19.3636 27.9987 19.8298C26.8518 21.317 25.6827 22.3677 23.278 24.0843C22.7083 24.4913 22.0275 24.9796 21.7612 25.172C21.4948 25.3644 21.0878 25.6455 20.8659 25.7935C20.6439 25.9489 20.2073 26.2597 19.904 26.489C19.6006 26.711 19.1566 27.0292 18.9199 27.192C18.6905 27.3548 18.3353 27.6063 18.1356 27.7469C17.9358 27.8875 17.4178 28.2575 16.9887 28.5608C16.5521 28.8642 15.8566 29.3673 15.4422 29.6781C15.0279 29.9889 14.6505 30.2552 14.6061 30.27C14.4064 30.344 11.0397 32.845 10.2924 33.4739C9.32312 34.2878 8.26504 35.3237 7.45113 36.256C7.03677 36.7221 6.68161 37.1217 6.65202 37.1439C6.59282 37.1957 4.86881 39.5116 4.75782 39.6966C4.70603 39.778 4.47666 40.1627 4.23988 40.5475C4.00311 40.9323 3.72194 41.4132 3.60355 41.6204C3.24099 42.2789 2.36789 44.0843 2.36789 44.1731C2.36789 44.2249 2.32349 44.3507 2.2717 44.4543C1.96093 45.061 1.59837 45.9785 1.47998 46.4373C1.45039 46.5704 1.40599 46.711 1.3764 46.7554C1.3098 46.8516 1.12482 47.5101 1.03603 47.9097C1.00644 48.0725 0.939844 48.3018 0.902848 48.4276C0.858453 48.546 0.769663 48.916 0.70307 49.2415C0.636477 49.5671 0.555086 49.9297 0.51809 50.0555C0.481094 50.1738 0.4293 50.4106 0.407102 50.5734C0.384905 50.7362 0.318312 51.1653 0.259119 51.5353C0.029744 52.9781 -0.0146512 53.903 0.0223448 56.3818C0.0593407 58.8457 0.125933 59.963 0.281316 60.7473C0.325711 60.9693 0.421901 61.4872 0.488493 61.8942C0.555086 62.3011 0.651276 62.7969 0.70307 63.004C0.754864 63.2038 0.858453 63.6404 0.925045 63.9659C0.991638 64.2915 1.09523 64.691 1.13962 64.8538C1.19142 65.0166 1.295 65.3496 1.3616 65.5937C1.43559 65.8379 1.52438 66.1339 1.56877 66.2597C1.60577 66.3781 1.67236 66.5926 1.70196 66.7332C1.73896 66.8664 1.79815 67.0144 1.84254 67.0588C1.88694 67.1032 1.92394 67.1846 1.92394 67.2364C1.92394 67.3695 2.53067 68.9382 2.81924 69.5523C2.94502 69.8187 3.10041 70.1516 3.1596 70.2922C3.29279 70.5956 3.32238 70.6548 3.67754 71.3133C3.82553 71.5871 4.0475 72.0088 4.17329 72.253C4.30647 72.4972 4.49885 72.8375 4.60984 73.0077C4.72083 73.1853 4.80962 73.3407 4.80962 73.3629C4.80962 73.4295 6.36345 75.7084 6.71861 76.1524C6.91099 76.3966 7.22175 76.7887 7.41413 77.0329C8.67939 78.6533 10.8917 80.8361 12.7267 82.2641C13.2151 82.6489 14.6357 83.6848 14.8355 83.8105C14.9169 83.8623 15.2943 84.0917 15.6716 84.3285C16.049 84.5653 16.4855 84.8242 16.6335 84.913C16.7815 85.0018 17.0553 85.1572 17.2403 85.2608C17.4252 85.3644 17.7582 85.542 17.9802 85.6529C19.6376 86.4594 20.0297 86.6444 20.0741 86.6444C20.1037 86.6444 20.3331 86.7406 20.5847 86.859C21.0434 87.0736 21.9387 87.4065 22.3827 87.5323C22.5085 87.5693 22.8414 87.6803 23.1226 87.7765C23.6331 87.9541 24.9428 88.3314 25.7493 88.5312C26.5484 88.731 28.1984 89.0122 29.4267 89.1602C29.8041 89.2045 30.2036 89.2711 30.3146 89.3007L30.5218 89.3525L30.5588 91.3873C30.5958 93.5331 30.5958 93.5035 30.9879 94.1546C31.1729 94.458 31.8092 94.8279 32.2384 94.8797C33.0671 94.9833 33.7404 94.6503 34.2066 93.903C34.362 93.6441 34.3694 93.5553 34.399 91.5871C34.4138 90.122 34.4434 89.5153 34.51 89.4635C34.5765 89.4043 36.012 89.3525 36.6853 89.3747C36.7519 89.3821 36.7741 90.2774 36.7741 93.6145C36.7741 98.6607 36.7741 98.7051 37.4104 99.334C37.847 99.778 38.4315 100.007 38.9421 99.9408C39.6968 99.8372 40.3997 99.2452 40.5551 98.5719C40.5921 98.4165 40.6217 96.3596 40.6217 93.9844C40.6217 91.1505 40.6513 89.6189 40.6957 89.5227C40.7697 89.3969 40.8659 89.3821 41.8721 89.3821C42.8118 89.3821 42.982 89.3969 43.019 89.5005C43.0412 89.5671 43.0634 90.381 43.0634 91.3059C43.0634 93.0003 43.13 93.6737 43.3298 93.903C43.389 93.9622 43.4334 94.051 43.4334 94.088C43.4334 94.1916 43.7811 94.5024 44.1215 94.7095C44.3509 94.8427 44.5211 94.8797 44.9724 94.8797C45.4681 94.8871 45.5939 94.8575 45.8973 94.6799C46.3856 94.3914 46.726 93.9474 46.8296 93.4665C46.874 93.2519 46.911 92.6896 46.911 92.2234C46.911 91.7573 46.948 91.3059 46.985 91.2245C47.059 91.0913 47.1034 91.1135 47.6361 91.5131C48.1319 91.8831 50.1518 93.1853 50.4626 93.3259C50.5218 93.3555 50.6772 93.4369 50.7956 93.5109C50.9213 93.5849 51.2543 93.7772 51.5355 93.9252C51.824 94.0806 52.1052 94.2582 52.1718 94.31C52.231 94.3692 52.305 94.4136 52.3272 94.4136C52.3568 94.4136 52.712 94.6134 53.1189 94.8575C53.5333 95.1017 53.8884 95.3015 53.9032 95.3015C53.9254 95.3015 54.0734 95.3829 54.2362 95.4865C54.399 95.59 54.7615 95.7972 55.0353 95.9452C55.3091 96.0858 55.716 96.3078 55.938 96.4336C56.4411 96.7073 57.1737 97.0773 57.2255 97.0773C57.2477 97.0773 57.5806 97.2253 57.958 97.4102C58.3427 97.5952 58.6905 97.7432 58.7349 97.7432C58.7793 97.7432 58.9421 97.795 59.0974 97.8616C59.2528 97.9282 59.4822 98.0244 59.6006 98.0762C59.7264 98.128 59.9484 98.2242 60.1037 98.2907C60.2591 98.3573 60.4441 98.4091 60.5255 98.4091C60.6069 98.4091 60.7771 98.4535 60.9103 98.5127C61.0434 98.5645 61.3024 98.6533 61.4874 98.6977C61.6724 98.7495 61.9387 98.8235 62.0793 98.8605C62.5233 98.9937 63.1226 99.1343 64.1141 99.334C65.7567 99.6596 66.2525 99.741 66.5558 99.741C66.726 99.741 67.2366 99.7928 67.7027 99.8594C68.3686 99.9482 68.9532 99.9704 70.3664 99.9408C72.2828 99.9038 73.0005 99.8446 74.7319 99.5412C75.3239 99.445 75.9528 99.334 76.1378 99.3044C76.3228 99.2748 76.6187 99.2082 76.8037 99.1565C76.9887 99.1047 77.3364 99.0159 77.5806 98.9567C78.2613 98.7865 79.4008 98.4535 79.8374 98.2907C79.978 98.239 80.4811 98.0466 80.9546 97.8616C81.4282 97.6766 81.8426 97.5212 81.8869 97.5212C81.9313 97.5212 82.0053 97.4694 82.0571 97.4102C82.1089 97.3511 82.1977 97.2993 82.2495 97.2993C82.3457 97.2993 83.1004 96.9737 83.537 96.7517C84.1289 96.441 84.6246 96.1598 84.7282 96.071C84.7874 96.0118 84.8984 95.9674 84.965 95.9674C85.0316 95.9674 85.0982 95.9378 85.1204 95.9008C85.1426 95.8712 85.483 95.6492 85.8825 95.4125C86.2821 95.1757 86.9554 94.7317 87.3771 94.421C87.8063 94.1102 88.228 93.8068 88.3168 93.7476C88.487 93.6367 89.5081 92.8154 89.6487 92.6748C89.6931 92.6378 90.0113 92.3492 90.3516 92.0458C91.1359 91.3503 91.6465 90.8398 92.342 90.0555C92.6454 89.7151 92.9339 89.3969 92.9709 89.3525C93.0597 89.2637 94.2584 87.7469 94.473 87.4583C94.6431 87.2364 95.2721 86.2819 95.7826 85.4828C96.1822 84.8538 97.699 81.8942 97.81 81.5168C97.847 81.3836 97.9506 81.095 98.0394 80.8731C98.1282 80.6511 98.2243 80.3625 98.2613 80.2441C98.2983 80.1183 98.3945 79.8372 98.4833 79.6152C98.5721 79.3932 98.6683 79.0899 98.7053 78.9493C98.7645 78.6829 98.8681 78.2464 99.0383 77.5804C99.3712 76.2338 99.3786 76.2042 99.7116 73.5183C99.8448 72.4158 99.83 70.1146 99.6746 69.0714C99.6376 68.7828 99.5488 68.1391 99.4822 67.6285C99.4156 67.118 99.275 66.3707 99.1714 65.9637C99.0679 65.5567 98.9495 65.0536 98.9125 64.8538C98.8755 64.6466 98.8089 64.4543 98.7719 64.4099C98.7349 64.3729 98.7053 64.2619 98.7053 64.1509C98.7053 63.8845 98.5573 63.4332 97.921 61.8202C97.514 60.7769 97.4622 60.6511 97.1589 59.9852C97.0331 59.7114 96.9295 59.4746 96.9295 59.4524C96.9295 59.4154 96.7223 58.9567 96.1896 57.8246C95.8566 57.1217 95.605 56.5667 95.0427 55.3089C94.9835 55.1831 94.8281 54.8353 94.6875 54.532C94.547 54.2286 94.3398 53.7772 94.2288 53.5331C94.1252 53.2889 93.9698 52.9559 93.8958 52.7932C93.8218 52.6304 93.6739 52.2974 93.5629 52.0532C93.4519 51.8091 93.2669 51.4095 93.1559 51.1653C92.8747 50.566 92.5122 49.7743 92.2902 49.2785C92.194 49.0566 92.0534 48.7384 91.9794 48.5756C91.9054 48.4128 91.7945 48.1465 91.7353 47.9837C91.6687 47.8209 91.5133 47.4361 91.3949 47.1328C91.2691 46.8294 91.1285 46.4447 91.0841 46.2819C90.914 45.6899 90.7808 45.0906 90.7216 44.691C90.6846 44.4691 90.618 44.1361 90.581 43.9511C90.5366 43.7661 90.4848 43.115 90.4626 42.5083C90.396 40.9397 90.544 39.2452 90.8326 38.3203C90.8918 38.128 90.9362 37.906 90.9362 37.832C90.9362 37.7506 91.0249 37.4546 91.1285 37.1735C91.2321 36.8923 91.3357 36.5963 91.3579 36.5149C91.4097 36.3152 91.6465 35.7602 92.1792 34.6282C92.3346 34.2804 92.527 33.8808 92.5936 33.7255C92.7711 33.3333 92.7416 32.7414 92.5344 32.2974C92.2902 31.7795 91.898 31.4465 90.8326 30.8472C90.5144 30.6696 90.1 30.4328 89.9077 30.3218C89.7227 30.2034 89.5155 30.0925 89.4563 30.0629C89.3971 30.0407 89.0494 29.8335 88.6794 29.6115C87.3993 28.8346 87.096 28.7088 86.4744 28.7088C85.5347 28.7088 85.224 28.916 84.4101 30.1147C84.2251 30.381 83.9291 30.8102 83.7515 31.0765C83.3446 31.6759 81.5614 33.5183 81.0212 33.903C80.7993 34.0584 80.4145 34.3396 80.1703 34.5246C79.9262 34.7021 79.6598 34.8871 79.5784 34.9241C79.497 34.9685 79.2676 35.1017 79.0605 35.2201C78.0986 35.7898 76.3154 36.5519 75.5754 36.6999C75.4127 36.7369 75.1981 36.7961 75.0945 36.8405C74.7171 36.9959 72.8155 37.2549 70.5144 37.4768C69.8411 37.5434 69.0124 37.6248 68.6646 37.6618C68.3168 37.7062 67.5695 37.7728 66.9998 37.8098C66.43 37.8542 65.8455 37.9208 65.7049 37.9578C65.5643 38.0022 65.2166 38.0318 64.928 38.0318C64.6468 38.0318 64.2103 38.0688 63.9661 38.1132C63.7219 38.1502 63.1078 38.2168 62.5973 38.2538C60.8807 38.3647 59.0235 38.5793 57.6398 38.8087C57.292 38.8679 56.8629 38.9345 56.6779 38.9567C56.4929 38.9789 55.9454 39.1121 55.457 39.26C54.3768 39.5708 53.8144 39.7262 53.5703 39.778C53.4667 39.8002 53.2891 39.8668 53.1633 39.9186C53.0449 39.9704 52.7933 40.074 52.6084 40.1405C52.4234 40.2071 52.1792 40.3107 52.0682 40.3699C51.9498 40.4291 51.824 40.4735 51.7871 40.4735C51.7131 40.4735 50.9657 40.8065 50.2776 41.1468C49.2047 41.6722 47.6657 42.5601 47.096 42.9892C46.9332 43.1076 46.6668 43.3 46.504 43.4036C45.2314 44.2619 42.9894 46.2893 42.0571 47.4361C41.8203 47.7321 41.48 48.1317 41.3024 48.3166C41.0434 48.5904 39.7634 50.4106 39.6672 50.6326C39.6524 50.6696 39.4674 50.9582 39.2454 51.2763C38.7349 52.031 37.1293 55.2053 36.9887 55.7528C36.9591 55.8712 36.8629 56.1598 36.7741 56.3818C36.4781 57.1661 36.3302 57.5952 36.3302 57.7284C36.3302 57.795 36.2858 57.9652 36.2266 58.0984C35.9898 58.6607 35.5532 60.4291 35.3387 61.7092C34.9983 63.7291 34.9687 64.1287 34.9687 66.8516C34.9613 69.5893 34.9909 69.9149 35.3387 72.068C35.494 72.9929 35.7382 74.0806 36.0046 74.9685C36.0638 75.1609 36.1082 75.3533 36.1082 75.3977C36.1082 75.4495 36.1526 75.59 36.2118 75.7158C36.2636 75.849 36.3449 76.0858 36.3819 76.2486C36.4263 76.4114 36.5669 76.8257 36.6927 77.1735C36.8259 77.5212 36.9517 77.869 36.9739 77.9504C37.0997 78.4239 38.4611 81.243 38.8903 81.909C39.0531 82.1753 39.3786 82.6933 39.6006 83.0706C39.83 83.4406 40.0815 83.8401 40.1703 83.9585C40.8289 84.8168 41.221 85.4088 41.1544 85.4754C41.11 85.5198 39.1936 85.5346 36.1378 85.5124C31.3431 85.4828 30.8696 85.468 29.2639 85.2312C28.9828 85.1868 28.5462 85.1276 28.302 85.098C28.0579 85.061 27.7249 85.0018 27.5621 84.9574C27.3993 84.913 26.9998 84.8242 26.6742 84.7576C25.9121 84.5949 23.7515 83.9363 22.9228 83.6182C21.8425 83.1964 21.6428 83.1076 20.3109 82.4491C18.0764 81.3392 17.0627 80.7029 15.1685 79.2304C14.7393 78.8975 14.362 78.5867 14.3176 78.5349C14.2806 78.4905 14.0882 78.3277 13.8958 78.1872C13.0967 77.5878 11.0249 75.3681 9.91506 73.9178C9.44151 73.3037 8.45742 71.8757 8.35383 71.6611C8.24284 71.4391 8.10966 71.2097 8.01347 71.0987C7.96907 71.0395 7.77669 70.6918 7.58431 70.3292C7.38454 69.9593 7.19216 69.6115 7.14036 69.5523C7.05157 69.4339 6.58542 68.472 6.58542 68.4054C6.58542 68.3832 6.48183 68.1465 6.35605 67.8727C6.02309 67.1328 5.94909 66.9626 5.81591 66.6074C5.51994 65.8305 5.45335 65.6529 5.35716 65.4236C5.29796 65.2904 5.25357 65.1276 5.25357 65.0536C5.25357 64.987 5.20917 64.802 5.14998 64.6318C4.89101 63.8771 4.45446 62.1383 4.29168 61.1912C4.0623 59.8446 3.98091 59.1565 3.89212 57.499C3.83293 56.5001 3.80333 55.6492 3.82553 55.5974C3.84033 55.5456 3.88472 54.8797 3.92172 54.1102C3.95871 53.3481 4.0327 52.4528 4.0993 52.1272C4.38786 50.5512 4.44706 50.2774 4.58764 49.7447C4.67643 49.4265 4.77262 49.0492 4.80222 48.9086C4.83922 48.768 4.90581 48.546 4.9428 48.4276C4.9872 48.3018 5.07599 48.0059 5.14998 47.7617C5.29796 47.229 5.61613 46.4225 5.99349 45.6159C6.14887 45.2904 6.35605 44.8242 6.45964 44.5801C6.61502 44.2101 6.85919 43.7587 7.32534 42.9892C7.36234 42.93 7.58431 42.5601 7.81369 42.1753C8.04306 41.7906 8.35383 41.3244 8.50181 41.1468C8.6498 40.9619 8.81998 40.7399 8.87917 40.6511C9.18994 40.1923 9.99645 39.2083 10.3886 38.8013C12.1274 37.0107 12.4604 36.7147 14.2214 35.3533C15.2573 34.5542 15.6642 34.2582 15.7456 34.2582C15.7752 34.2582 15.901 34.1546 16.0194 34.0362C16.1378 33.9104 16.2636 33.8142 16.3006 33.8142C16.3302 33.8142 16.6853 33.5701 17.0775 33.2741C17.477 32.9855 18.0394 32.5712 18.3279 32.3714C18.6239 32.1642 18.9865 31.9127 19.1418 31.7943C19.5192 31.5205 19.9114 31.2467 20.5329 30.8176C20.8215 30.6252 21.2654 30.2996 21.5318 30.1073C21.7982 29.9075 22.1163 29.6781 22.2347 29.5967C22.3605 29.5153 22.7674 29.2193 23.1448 28.9456C23.5222 28.6718 24.1141 28.2501 24.4619 28.0059C26.4004 26.637 27.4807 25.8305 28.0727 25.2904C28.2798 25.098 28.487 24.9426 28.5314 24.9352C28.672 24.9352 31.0027 22.4491 31.0027 22.3011C31.0027 22.2641 31.1063 22.1161 31.2321 21.9755C31.5799 21.5686 32.1126 20.8805 32.1126 20.8361C32.1126 20.8139 32.3938 20.3329 32.7415 19.7632C33.1115 19.1491 33.5629 18.2464 33.8514 17.5582C34.1252 16.9145 34.3694 16.3374 34.4064 16.2782C34.436 16.2116 34.4878 16.0488 34.5174 15.9082C34.5469 15.7676 34.7023 15.2497 34.8651 14.7613C35.0205 14.273 35.1833 13.6515 35.2203 13.3777C35.2499 13.1039 35.3017 12.8523 35.3239 12.8154C35.3461 12.7784 35.4201 12.364 35.4866 11.9053C35.5828 11.2615 35.6198 10.233 35.6568 7.56193C35.6938 4.56526 35.716 4.05472 35.8122 3.99552C35.8714 3.95853 36.4115 3.92153 37.0109 3.92153C37.9728 3.92153 38.106 3.93633 38.1651 4.04732C38.2021 4.12131 38.2539 5.76393 38.2761 7.69512C38.3131 11.3059 38.3279 11.4983 38.6683 13.1335C38.7275 13.4147 38.7719 13.7033 38.7719 13.7624C38.7719 13.829 38.8681 14.1768 38.9865 14.5394C39.0974 14.9093 39.2528 15.4051 39.3268 15.6492C39.608 16.6407 40.6587 18.9641 41.1766 19.741C41.3172 19.963 41.4356 20.1553 41.4356 20.1701C41.4356 20.2441 41.9313 21.0137 42.2051 21.3688C42.3753 21.576 42.6787 21.9755 42.8784 22.2493C43.4408 23.004 45.4977 25.1572 45.6531 25.1572C45.6827 25.1572 45.8233 25.2608 45.9565 25.3866C46.2821 25.6751 48.0579 27.0292 48.7238 27.4879C49.3453 27.9171 49.6561 28.1391 50.3886 28.6718C50.692 28.8938 51.2099 29.2563 51.5355 29.4857C51.861 29.7077 52.2606 29.9963 52.4234 30.1147C52.5862 30.233 53.0005 30.529 53.3483 30.7732C54.0512 31.2689 56.1156 32.7488 56.7815 33.2371C58.3279 34.3692 58.8311 34.6282 59.46 34.6282C59.978 34.6282 60.5847 34.3544 60.8955 33.977C61.3098 33.4739 61.406 32.9189 61.221 32.0532C61.1544 31.7277 60.5181 31.0913 59.6968 30.5216C59.3416 30.2774 58.7053 29.8261 58.2761 29.5227C57.8544 29.2193 57.2181 28.768 56.8703 28.5238C56.5225 28.2797 55.9232 27.8579 55.5532 27.5841C55.1759 27.3104 54.7023 26.97 54.4952 26.822C54.2954 26.674 53.844 26.3485 53.4963 26.0895C53.1485 25.8379 52.8155 25.6085 52.7563 25.5789C52.6972 25.5494 52.453 25.3866 52.2236 25.2164C51.9868 25.0388 51.3949 24.6171 50.9065 24.2693C49.0937 22.9892 48.1097 22.1975 47.1922 21.2652C45.335 19.371 44.1585 17.499 43.1004 14.7243C43.0116 14.495 42.8044 13.8216 42.6195 13.1335C42.5381 12.8302 42.3901 12.1124 42.3087 11.5797C42.1533 10.5438 42.1163 9.51532 42.1089 5.75653C42.1015 1.93855 42.0941 1.76837 41.9461 1.37621C41.7538 0.858269 41.2654 0.347725 40.8659 0.251536C40.7697 0.221939 40.6957 0.162745 40.6957 0.103552C40.6957 0.0147617 40.1037 -3.67199e-05 36.9591 -3.67199e-05C33.7774 -3.67199e-05 33.2225 0.0147617 33.2225 0.103552ZM87.5473 33.4517C87.6583 33.5257 87.7767 33.5923 87.8063 33.5923C87.8359 33.5997 87.9469 33.6663 88.0431 33.7477C88.1911 33.866 88.2059 33.9252 88.1467 34.0584C88.1023 34.1472 88.0357 34.3174 87.9987 34.4432C87.9543 34.5616 87.8063 34.9833 87.6583 35.3681C87.5177 35.7528 87.3401 36.2856 87.2736 36.5519C87.1996 36.8183 87.1034 37.1809 87.0516 37.3659C86.8814 37.943 86.763 38.8531 86.5706 40.9619C86.504 41.6648 86.504 42.1087 86.5558 42.5897C86.6002 42.9522 86.652 43.5146 86.6816 43.8401C86.7334 44.6466 86.9258 45.7565 87.1552 46.5778C87.1922 46.6962 87.2884 47.0662 87.3771 47.3917C87.4659 47.7099 87.6065 48.1465 87.6953 48.3536C87.7767 48.5534 87.9395 48.9752 88.0653 49.2785C88.3612 50.0259 88.4352 50.196 88.6942 50.7584C88.9606 51.3429 89.1307 51.7055 89.5303 52.5712C89.8411 53.2593 89.9299 53.4443 90.1814 54.014C90.2628 54.199 90.4626 54.6355 90.6328 54.9833C90.803 55.3311 90.9362 55.6344 90.9362 55.664C90.9362 55.6936 91.0545 55.9748 91.2025 56.2856C91.3505 56.6037 91.5577 57.0477 91.6539 57.2697C91.7575 57.4916 91.9498 57.906 92.083 58.1946C92.3864 58.8383 92.9191 60.0222 93.2447 60.7473C93.3187 60.9323 93.4815 61.28 93.5999 61.5242C93.8144 61.9755 94.0512 62.5601 94.4952 63.707C94.6209 64.0547 94.7763 64.4395 94.8355 64.5727C94.8873 64.6984 94.9317 64.8612 94.9317 64.9352C94.9317 65.0018 94.9835 65.246 95.0501 65.4754C95.4867 67.0514 95.531 67.2364 95.605 67.9615C95.642 68.324 95.7086 68.7236 95.753 68.8494C95.864 69.1897 95.9158 72.1272 95.827 73.1779C95.7086 74.532 95.6124 75.3015 95.4793 75.8416C95.1685 77.1513 94.9317 78.0688 94.8503 78.2686C94.8133 78.3647 94.7097 78.6533 94.6283 78.8975C94.547 79.1491 94.4286 79.4598 94.3694 79.593C94.3176 79.7188 94.2658 79.8594 94.2658 79.9038C94.2658 79.9778 92.9561 82.6637 92.7638 82.9744C91.5577 84.9574 90.063 86.9108 88.709 88.2649C87.4881 89.4931 85.3054 91.2393 84.1807 91.9053C83.8847 92.0754 83.5962 92.2604 83.537 92.3048C83.278 92.5268 80.2517 94.0436 79.7708 94.1916C79.4748 94.2878 78.9273 94.4876 78.7645 94.5542C78.3279 94.7391 78.1504 94.7983 77.884 94.8575C77.7138 94.8871 77.4844 94.9537 77.3586 94.9907C77.2403 95.0351 76.9369 95.1239 76.6927 95.1831C76.4485 95.2423 76.1008 95.3311 75.9158 95.3829C73.3853 96.0636 69.2491 96.2412 66.2599 95.7898C65.3276 95.6492 63.8033 95.3311 63.2558 95.1683C63.1152 95.1239 62.8414 95.0425 62.6343 94.9833C61.2654 94.5838 61.3838 94.6208 60.6513 94.31C60.4959 94.2434 60.3405 94.1916 60.3035 94.1916C60.1407 94.1916 57.0701 92.697 56.6483 92.4084C56.4781 92.2974 56.2118 92.1346 56.049 92.0458C55.8862 91.957 55.6494 91.8239 55.5236 91.7499C55.3979 91.6759 55.1463 91.5353 54.9687 91.4391C54.7911 91.3429 54.5026 91.1727 54.3324 91.0617C54.1548 90.9508 53.9994 90.862 53.9846 90.862C53.9698 90.862 53.6147 90.6622 53.2077 90.418C52.7933 90.1738 52.4382 89.9741 52.416 89.9741C52.3938 89.9741 52.1422 89.8261 51.861 89.6411C51.5799 89.4561 51.3357 89.3081 51.3209 89.3081C51.2987 89.3081 50.1888 88.5756 49.9077 88.3758C47.9247 86.9552 46.3856 85.542 44.8984 83.7587C44.3657 83.1298 43.9217 82.5601 43.8921 82.5009C43.8699 82.4417 43.6553 82.1309 43.4186 81.8128C43.1818 81.4946 42.9894 81.2208 42.9894 81.1986C42.9894 81.1764 42.8414 80.9249 42.6565 80.6363C41.9831 79.6004 40.5477 76.7147 40.5477 76.3966C40.5477 76.3374 40.5181 76.2264 40.4737 76.1524C40.3183 75.886 39.7856 74.2138 39.571 73.3259C39.4896 72.9781 39.3786 72.5416 39.3194 72.3492C39.2602 72.1568 39.2158 71.8979 39.2158 71.7721C39.2158 71.6463 39.1714 71.3355 39.1122 71.0839C38.9199 70.233 38.8237 69.1528 38.7941 67.3326C38.7719 66.1783 38.7867 65.2608 38.8459 64.8168C38.8903 64.4321 38.9569 63.8105 38.9939 63.448C39.0309 63.078 39.09 62.6637 39.1344 62.5231C39.1788 62.3825 39.2158 62.1531 39.2158 62.0199C39.2158 61.8868 39.2602 61.6204 39.3194 61.428C39.3712 61.2356 39.4822 60.8287 39.5488 60.5253C39.7412 59.6966 40.3997 57.647 40.4885 57.5878C40.5255 57.573 40.5477 57.4916 40.5477 57.4176C40.5477 57.2771 41.0582 56.0858 41.4282 55.3459C42.4345 53.3629 43.5592 51.6389 44.7726 50.2404C45.5495 49.3377 47.3993 47.5027 47.7175 47.3178C47.7841 47.2734 47.9617 47.155 48.1023 47.0514C48.9384 46.4225 49.7745 45.8305 49.9003 45.7565C50.2554 45.5715 50.8252 45.2534 51.2395 45.0166C51.7649 44.7132 52.7341 44.2471 52.8451 44.2471C52.8821 44.2471 53.0079 44.2027 53.1115 44.1509C53.6221 43.8919 54.6209 43.5072 55.1611 43.3592C55.2869 43.3296 55.5828 43.2408 55.827 43.1742C57.0479 42.8264 57.6102 42.6933 57.8544 42.6933C58.0024 42.6933 58.3205 42.6415 58.5499 42.5823C58.7867 42.5231 59.1122 42.4713 59.275 42.4713C59.4378 42.4713 59.7116 42.4417 59.8818 42.3973C60.0519 42.3603 60.6587 42.2937 61.2284 42.2493C61.7982 42.2123 62.6121 42.1457 63.0412 42.1013C63.4704 42.0569 64.3213 41.9755 64.928 41.9163C66.7926 41.7388 68.2946 41.5834 68.9976 41.5094C69.3675 41.465 70.1296 41.3984 70.6994 41.3614C71.2691 41.317 71.8536 41.2504 72.0016 41.2134C72.1496 41.169 72.4826 41.1394 72.7416 41.1394C73.0005 41.132 73.3631 41.1024 73.5481 41.058C73.733 41.021 74.1326 40.9545 74.436 40.9175C75.4127 40.7991 76.9443 40.4069 77.9136 40.0296C78.1356 39.9408 78.4167 39.8372 78.5351 39.8076C78.8533 39.704 81.0212 38.6311 81.2802 38.4461C81.406 38.3573 81.6872 38.1724 81.9091 38.0392C83.3372 37.1735 85.1648 35.5013 86.5558 33.792C87.0664 33.1705 87.1256 33.1483 87.5473 33.4517Z" fill="black"/>
<path d="M80.3185 43.3369C80.2001 43.3591 80.0669 43.3961 80.0225 43.4331C79.9855 43.4627 79.8301 43.5293 79.6895 43.5663C79.549 43.6107 79.2456 43.7143 79.0236 43.8031C78.8016 43.8919 78.4539 44.0102 78.2467 44.0694C78.0469 44.1286 77.714 44.2322 77.5068 44.2914C77.307 44.3506 76.9666 44.432 76.7521 44.4764C76.5375 44.5134 76.2785 44.58 76.1749 44.617C76.0639 44.6614 75.879 44.691 75.7606 44.691C75.6348 44.691 75.4794 44.7206 75.4128 44.7576C75.2944 44.8241 74.7543 44.8907 73.0303 45.0609C71.7946 45.1793 70.1298 45.3495 68.8867 45.4679C67.1035 45.6455 65.5867 45.7934 64.8172 45.8822C64.4324 45.9192 63.6629 45.9858 63.1154 46.0228C62.5678 46.0672 62.0647 46.119 62.0055 46.1412C61.9463 46.1708 61.4949 46.2152 61.0066 46.2448C60.5183 46.2744 59.9041 46.3336 59.6378 46.3854C59.3714 46.4298 58.8238 46.5186 58.4169 46.5852C58.0099 46.6517 57.529 46.7479 57.344 46.8071C57.159 46.8589 56.7595 46.9773 56.4561 47.0587C55.842 47.2363 54.8283 47.6284 54.7173 47.732C54.6803 47.769 54.6063 47.7986 54.5471 47.7986C54.4953 47.7986 54.2585 47.8874 54.0292 47.991C53.7998 48.0946 53.5408 48.213 53.4594 48.25C53.378 48.287 53.2597 48.3462 53.2005 48.3906C52.9637 48.5385 51.9278 49.1305 51.8908 49.1305C51.876 49.1305 51.6688 49.2785 51.4395 49.4486C51.2101 49.6262 50.8327 49.9 50.6107 50.0554C50.226 50.3217 49.2641 51.1727 48.5834 51.8312C48.021 52.3787 47.1701 53.4368 46.5264 54.4061C46.1638 54.9314 45.8753 55.3828 45.8753 55.405C45.8753 55.4272 45.8309 55.5012 45.7717 55.5604C45.6089 55.7453 44.7654 57.3362 44.7654 57.4472C44.7654 57.4694 44.6692 57.6987 44.5508 57.9503C44.4324 58.2093 44.1661 58.9122 43.9589 59.5263C43.4409 61.0728 43.4557 61.021 43.3299 61.6351C43.2708 61.9385 43.182 62.3528 43.1376 62.56C43.0488 62.9448 42.9748 63.4331 42.849 64.3728C42.7528 65.1127 42.7528 68.7827 42.849 69.4412C43.1006 71.1135 43.4631 72.9189 43.5815 73.0668C43.6111 73.1038 43.6555 73.2222 43.6777 73.3258C43.6999 73.4294 43.7591 73.6292 43.8035 73.7698C43.9737 74.2359 44.0773 74.5393 44.2104 74.9536C44.4472 75.701 45.3351 77.5286 45.8605 78.3721C45.9271 78.483 46.1268 78.7938 46.3044 79.075C47.3699 80.7842 49.1679 82.8042 50.7883 84.1212C51.0695 84.3506 51.3877 84.6096 51.4912 84.691C51.7502 84.9055 53.3336 85.9784 53.3928 85.9784C53.415 85.9784 53.5778 86.0746 53.7554 86.2004C53.933 86.3188 54.0958 86.4224 54.1254 86.4224C54.1476 86.4224 54.3029 86.5112 54.4805 86.6222C54.6507 86.7331 54.9097 86.8885 55.0503 86.9625C55.4646 87.1919 55.8568 87.4139 56.5523 87.8208C56.9149 88.028 57.2182 88.1982 57.233 88.1982C57.2478 88.1982 57.3884 88.287 57.5438 88.3906C57.6992 88.4941 57.8915 88.6125 57.9729 88.6495C58.0543 88.6865 58.2689 88.8049 58.4539 88.9085C58.8238 89.1231 59.6821 89.567 60.3037 89.863C60.5257 89.9666 60.7624 90.085 60.8216 90.122C61.0436 90.2552 61.8279 90.5881 62.0425 90.6473C62.2497 90.6991 62.3828 90.7435 63.0414 90.9729C63.6407 91.1875 64.499 91.4464 64.7432 91.4908C64.8838 91.513 65.2167 91.5796 65.4831 91.6388C66.741 91.8978 67.2367 91.9718 68.4058 92.0458C70.5072 92.1715 72.2904 92.1123 73.5112 91.8608C75.25 91.4982 76.2785 91.2614 76.5745 91.1431C76.6781 91.0987 76.8705 91.0247 76.9888 90.9729C77.27 90.8545 77.6696 90.7139 77.9507 90.6399C78.6833 90.4401 81.0214 89.2711 81.9833 88.6199C82.3311 88.3906 82.849 88.0428 83.1376 87.8504C84.2178 87.1179 85.8679 85.6085 86.9481 84.3506C87.2071 84.0472 87.4735 83.7439 87.5401 83.6773C87.8139 83.4035 88.5908 82.2862 89.0865 81.4649C89.6784 80.4882 90.3296 79.223 90.5885 78.5422C90.6551 78.3795 90.8031 77.9873 90.9289 77.6765C91.0547 77.3658 91.1583 77.0476 91.1583 76.981C91.1583 76.907 91.2027 76.7146 91.2619 76.5445C91.58 75.627 91.8242 74.2655 91.8242 73.4146C91.8242 72.7709 91.8094 72.7043 91.5948 72.3787C91.3359 71.9866 90.8623 71.5944 90.5294 71.513C90.1224 71.402 89.4787 71.4538 89.1457 71.6166C88.7461 71.809 88.3244 72.2455 88.1986 72.5859C88.1098 72.8375 88.0728 73.0002 87.9026 74.0287C87.8508 74.3099 87.7695 74.7095 87.7103 74.9166C87.4217 75.9525 87.3107 76.2855 87.1331 76.685C87.0295 76.9218 86.9407 77.1512 86.9407 77.1882C86.9407 77.388 86.038 79.0158 85.4239 79.9407C84.499 81.3243 83.3521 82.6266 82.0943 83.7365C81.5245 84.2322 81.0288 84.6392 80.9918 84.6392C80.9622 84.6466 80.8068 84.7428 80.6514 84.8685C80.4961 84.9943 80.3555 85.0905 80.3333 85.0905C80.3111 85.0905 80.0817 85.2311 79.8227 85.4013C78.809 86.082 77.2478 86.8441 76.3969 87.0883C76.2785 87.1179 75.99 87.2215 75.768 87.3103C75.3092 87.4879 74.5397 87.695 73.6592 87.8652C73.3336 87.9318 72.9711 88.0206 72.8453 88.065C72.5197 88.1834 68.1098 88.2352 67.6511 88.1242C67.4587 88.0798 67.1109 88.0058 66.889 87.9762C66.0602 87.843 65.091 87.6136 64.5804 87.4139C64.0181 87.2067 63.7369 87.1031 63.3003 86.9773C63.0562 86.9033 62.8046 86.7997 62.7454 86.7553C62.6862 86.7109 62.4864 86.6074 62.3015 86.526C61.8427 86.3336 60.1261 85.4161 59.6008 85.0905C59.4824 85.0165 59.2308 84.8759 59.0458 84.7872C58.8608 84.691 58.5945 84.5356 58.4539 84.4394C58.3133 84.3432 58.1283 84.2322 58.0469 84.1952C57.9655 84.1582 57.8028 84.062 57.677 83.988C57.5586 83.9067 57.2922 83.7513 57.085 83.6403C56.1453 83.1223 55.7754 82.893 54.6803 82.153C53.6592 81.4501 51.9426 80.0073 51.5652 79.5115C51.4247 79.334 51.0991 78.9492 50.8401 78.6606C50.226 77.9725 49.0569 76.2041 48.6352 75.3236C48.4502 74.9388 48.2134 74.4505 48.1172 74.2507C47.9174 73.8438 47.7473 73.4146 47.6511 73.0668C47.6141 72.9411 47.5105 72.6081 47.4069 72.3269C47.2367 71.8386 47.1479 71.4538 46.8742 70.1442C46.815 69.8408 46.7114 68.9751 46.6448 68.2278C46.5412 66.9847 46.5412 66.7331 46.6522 65.4901C46.7114 64.728 46.815 63.8993 46.8742 63.6329C46.9259 63.3665 47.0295 62.8856 47.1035 62.56C47.3477 61.4131 47.873 59.9999 48.5686 58.6014C49.5083 56.722 50.1446 55.8193 51.4617 54.4875C52.2238 53.7254 53.5778 52.6081 53.9404 52.4379C53.9996 52.4083 54.1846 52.3047 54.3473 52.2159C55.1538 51.7498 55.3832 51.6388 55.9826 51.3798C56.3451 51.2244 56.7077 51.0543 56.7891 51.0025C56.8705 50.9507 56.9888 50.9063 57.0628 50.9063C57.1294 50.9063 57.3514 50.8545 57.5438 50.7953C57.7362 50.7361 58.0469 50.6399 58.2319 50.5807C58.8682 50.3809 61.4653 50.0184 62.2201 50.0184C62.4346 50.0184 63.0192 49.9666 63.5149 49.9074C64.0033 49.8482 64.9282 49.752 65.5571 49.6854C66.186 49.6262 67.0221 49.5374 67.4069 49.5004C67.7917 49.456 68.5612 49.3894 69.1087 49.3525C69.6562 49.3081 70.2038 49.2415 70.3222 49.2045C70.4406 49.1601 70.8031 49.1305 71.1361 49.1305C71.469 49.1305 71.95 49.0935 72.2164 49.0491C72.4827 49.0047 73.0303 48.9455 73.4372 48.9085C74.2437 48.8419 75.0355 48.7383 75.953 48.5681C76.2785 48.5163 76.6263 48.4645 76.7225 48.4645C76.8187 48.4645 77.048 48.4128 77.2404 48.3536C77.4254 48.2944 77.7954 48.1908 78.0617 48.1242C78.3281 48.0576 78.7055 47.954 78.8978 47.8948C79.401 47.7394 79.401 47.7394 79.7339 48.9603C80.1705 50.5955 80.4517 51.3946 80.8512 52.1789C80.903 52.2825 80.9474 52.4083 80.9474 52.4527C80.9474 52.4971 81.0954 52.8523 81.2804 53.2444C81.4653 53.6292 81.6133 53.9769 81.6133 54.0139C81.6133 54.0509 81.6577 54.1693 81.7169 54.2877C81.7761 54.3987 81.9241 54.7095 82.0425 54.9758C82.2941 55.516 82.738 56.4779 82.9674 56.9662C83.1968 57.4546 83.7369 57.9577 84.203 58.1057C84.684 58.2611 84.8986 58.2611 85.3573 58.1057C85.8457 57.9429 86.2082 57.6469 86.4376 57.2178C86.8372 56.4927 86.778 55.9747 86.1638 54.6429C86.0084 54.3173 85.7717 53.8068 85.6385 53.5108C85.4979 53.2148 85.3869 52.9559 85.3869 52.9411C85.3869 52.9189 85.2389 52.5933 85.0688 52.2233C84.6322 51.3058 84.0921 50.0036 83.9367 49.5004C83.8701 49.2785 83.7739 48.9751 83.7221 48.8345C83.4631 48.0872 82.9748 46.0894 82.9156 45.5197C82.8564 44.8907 82.627 44.247 82.3681 43.9362C82.0203 43.5219 81.6503 43.3517 81.0658 43.3221C80.7772 43.3073 80.4443 43.3147 80.3185 43.3369Z" fill="black"/>
<path d="M74.5322 52.7561C74.436 52.7931 73.9033 52.8596 73.3483 52.8966C72.3494 52.9706 71.8685 53.015 69.5896 53.237C67.1182 53.4738 66.0601 53.5774 65.076 53.681C63.4112 53.8585 62.4641 53.9473 61.5984 54.0139C61.1471 54.0509 60.6883 54.1101 60.5773 54.1545C60.459 54.1989 60.2148 54.2359 60.0298 54.2359C59.8448 54.2359 59.5415 54.2803 59.3491 54.3395C59.1641 54.3987 58.8237 54.5023 58.6018 54.5689C57.5067 54.8944 56.4264 55.4494 55.3091 56.2707C54.6062 56.7886 53.4149 58.0613 52.9192 58.8234C52.5122 59.4523 51.4246 61.5463 51.4246 61.7017C51.4246 61.7461 51.3284 62.0938 51.21 62.4712C50.9584 63.2777 50.8326 63.7586 50.7512 64.2618C50.7142 64.4616 50.655 64.8167 50.618 65.0387C50.5219 65.5714 50.5219 68.3017 50.618 68.7753C50.6624 68.9751 50.7216 69.308 50.7512 69.5152C50.84 70.0406 51.025 70.8175 51.1138 71.032C51.1508 71.1356 51.247 71.4168 51.3136 71.661C51.4541 72.1567 51.4911 72.2307 52.0017 73.2888C52.3495 74.0139 52.4308 74.1619 53.1116 75.2126C53.6147 75.9895 54.658 77.129 55.6643 78.0095C56.1304 78.4164 57.8988 79.6521 58.1504 79.7483C58.217 79.7705 58.6758 80.0369 59.1789 80.3328C59.6746 80.6288 60.1038 80.873 60.1186 80.873C60.1334 80.873 60.3998 81.0209 60.6957 81.2059C60.9991 81.3909 61.2655 81.5389 61.2877 81.5389C61.3099 81.5389 61.5022 81.6573 61.7242 81.7979C62.9969 82.6488 65.8752 83.8252 67.2218 84.0546C68.7682 84.3136 71.5207 84.3284 72.6158 84.0916C73.7849 83.8326 74.3472 83.6921 74.732 83.5367C74.954 83.4479 75.2499 83.3443 75.3831 83.3073C75.7161 83.2037 77.4993 82.2862 77.9506 81.9828C78.8829 81.3539 79.9188 80.503 80.422 79.9555C81.2655 79.0306 81.4726 78.8012 81.7464 78.4164C81.9166 78.1871 82.0572 77.9725 82.0572 77.9429C82.0572 77.9207 82.146 77.7727 82.2644 77.6247C82.8489 76.8478 83.6258 75.1312 83.8848 74.0361C84.1955 72.7339 84.2029 70.1737 83.907 69.0343C83.6332 67.991 83.5962 67.88 82.6861 65.8526C82.5307 65.5049 82.331 65.0535 82.2422 64.8537C81.998 64.3062 81.7464 63.766 81.3247 62.8707C81.1175 62.4342 80.9473 62.0494 80.9473 62.0198C80.9473 61.9754 80.7993 61.6425 80.237 60.4808C80.0964 60.1922 79.9854 59.9407 79.9854 59.9185C79.9854 59.8963 79.8004 59.4819 79.5711 59.001C79.3491 58.5126 79.1197 58.0169 79.0679 57.8985C79.0087 57.7727 78.8977 57.5285 78.8163 57.3435C78.7349 57.1586 78.5352 56.722 78.365 56.3743C78.1948 56.0265 78.0616 55.7231 78.0616 55.6935C78.0616 55.6417 77.7065 54.8574 77.2699 53.9547C77.0257 53.4516 76.5226 52.904 76.308 52.904C76.2636 52.904 76.1304 52.8522 76.0194 52.7931C75.7827 52.6673 74.806 52.6451 74.5322 52.7561ZM74.362 56.9736C74.5248 57.2696 75.1759 58.668 75.1759 58.7198C75.1759 58.7346 75.2795 58.9714 75.4053 59.2451C75.5311 59.5263 75.6939 59.8815 75.7679 60.0443C75.8419 60.207 76.0638 60.6732 76.2488 61.0801C76.4412 61.4871 76.6632 61.968 76.7446 62.153C76.8186 62.338 76.9517 62.6192 77.0257 62.782C77.0997 62.9447 77.2551 63.2777 77.3587 63.5219C77.4697 63.766 77.6769 64.2174 77.8174 64.5208C77.958 64.8241 78.1208 65.1719 78.1726 65.2977C78.2244 65.4161 78.365 65.7342 78.4908 66.0006C78.6092 66.267 78.7941 66.6665 78.8977 66.8885C79.3417 67.8652 79.5637 68.3535 79.6968 68.6125C79.7708 68.7679 79.8374 68.9455 79.8374 69.0047C79.8374 69.0713 79.8818 69.2118 79.941 69.3154C80.2518 69.9222 80.3924 71.8312 80.1778 72.6451C80.1112 72.904 80.0594 73.1926 80.0594 73.2888C80.0594 73.6366 79.5045 74.7612 78.8607 75.7453C77.9728 77.0772 76.3006 78.5718 74.954 79.2377C74.769 79.3265 74.5692 79.4301 74.51 79.4671C74.0883 79.7039 72.6158 80.207 72.3273 80.207C72.2311 80.207 71.9499 80.2588 71.6909 80.3254C71.3284 80.4216 70.951 80.4364 69.8559 80.4142C69.1012 80.392 68.3317 80.3476 68.1467 80.2958C67.9617 80.2514 67.6658 80.1774 67.4808 80.133C67.0516 80.0295 66.7631 79.9481 66.4449 79.8371C66.0379 79.6891 64.3657 78.8678 64.018 78.6384C63.8404 78.5274 63.685 78.4312 63.6554 78.4312C63.6332 78.4312 63.3002 78.2389 62.9007 78.0021C62.5085 77.7579 61.9906 77.4545 61.7464 77.3214C61.5022 77.1808 61.1693 76.9958 61.0065 76.8996C60.8437 76.8108 60.6439 76.6998 60.5625 76.6628C60.4812 76.6258 60.2888 76.5074 60.1334 76.4039C59.978 76.3003 59.8374 76.2115 59.8078 76.2115C59.7856 76.2115 59.645 76.1153 59.4897 75.9895C59.3343 75.8711 59.1863 75.7675 59.1567 75.7675C58.9791 75.7675 57.4771 74.4653 57.0109 73.9103C56.5522 73.3628 56.308 73.0446 56.308 73.0076C56.308 72.9854 56.1674 72.7561 55.9898 72.4971C55.6051 71.9421 54.9762 70.6399 54.9762 70.4031C54.9762 70.3439 54.9318 70.1885 54.8726 70.0554C54.6136 69.4486 54.3842 67.9466 54.3842 66.8959C54.3842 64.7131 55.0945 62.4416 56.2858 60.7842C56.8038 60.0664 57.9728 59.0676 58.6758 58.742C58.9421 58.6162 59.2899 58.4534 59.4527 58.3794C59.9114 58.1649 60.6069 58.0243 61.8204 57.9059C64.0476 57.6691 64.4989 57.6247 65.261 57.5655C65.6902 57.5285 66.3191 57.4619 66.6669 57.4249C67.7694 57.2918 68.9014 57.1808 69.7745 57.1216C70.2407 57.092 70.6772 57.0402 70.7364 57.018C70.7956 56.9958 71.3284 56.9366 71.9203 56.8996C72.5122 56.8552 73.193 56.796 73.4371 56.759C74.1179 56.6628 74.2066 56.685 74.362 56.9736Z" fill="black"/>
<path d="M65.8309 60.1627C65.1057 60.1923 64.3066 60.2515 64.0551 60.2959C63.2855 60.429 62.9008 60.5178 62.7528 60.5992C62.6714 60.6362 62.5308 60.6732 62.4346 60.6732C62.3384 60.6732 62.0647 60.7398 61.8353 60.8212C61.4357 60.9618 61.2656 61.0358 60.9696 61.1986C60.9104 61.2356 60.7624 61.3095 60.6366 61.3613C60.3481 61.4945 59.5341 62.1531 59.327 62.4194C59.2308 62.5378 59.1198 62.6636 59.0754 62.708C58.7498 63.004 58.0617 64.2544 57.7361 65.1497C57.5438 65.6973 57.5438 67.7838 57.7435 68.3684C57.9285 68.9159 58.2911 69.6706 58.5501 70.0332C58.661 70.196 58.8386 70.4475 58.9348 70.6029C59.1198 70.8767 60.5922 72.3639 60.6884 72.3639C60.718 72.3639 60.8512 72.4601 60.9918 72.5785C61.2212 72.7857 61.9907 73.3258 62.0425 73.3258C62.0573 73.3258 62.2792 73.4664 62.5382 73.644C63.6407 74.3987 65.6903 75.5086 66.667 75.8785C66.8519 75.9451 67.0591 76.0339 67.1257 76.0709C67.3255 76.1745 67.8582 76.3669 68.1468 76.4335C68.2874 76.4705 68.6055 76.5519 68.8497 76.6185C69.0939 76.6851 69.4269 76.7738 69.5896 76.8182C69.7524 76.8626 70.4184 76.8996 71.0695 76.8996C72.4309 76.907 72.7269 76.8404 73.8072 76.3151C74.6285 75.9155 75.2278 75.4124 75.8124 74.6281C76.2711 74.0139 76.8038 72.9781 77.0036 72.3269C77.1886 71.7424 77.2182 70.0036 77.0554 69.4043C76.6041 67.6728 76.0195 66.304 75.0798 64.802C73.859 62.8338 72.061 60.6806 71.6244 60.6732C71.5652 60.6732 71.3802 60.6214 71.2175 60.5622C71.0547 60.503 70.7661 60.4586 70.5737 60.4512C70.3814 60.4512 70.1446 60.4216 70.041 60.3772C69.93 60.3403 69.3085 60.2737 68.6425 60.2293C67.984 60.1849 67.3773 60.1405 67.2959 60.1257C67.2145 60.1183 66.556 60.1331 65.8309 60.1627ZM68.8127 64.1212C69.6118 64.2248 69.8486 64.2766 69.9818 64.4024C70.2334 64.6244 71.2915 66.0672 71.6466 66.6814C71.8168 66.9625 72.0536 67.3547 72.1646 67.5397C72.8675 68.7309 73.5038 70.5511 73.3262 70.8841C73.2818 70.9581 73.2522 71.0987 73.2522 71.1875C73.2522 71.4686 72.8971 72.1124 72.5345 72.5045C72.2312 72.8301 72.1128 72.8967 71.6984 73.0003C71.2545 73.1112 71.1583 73.1112 70.4405 72.9929C70.0188 72.9263 69.6044 72.8375 69.523 72.7931C69.4343 72.7487 69.2715 72.6821 69.1457 72.6525C67.8582 72.3195 64.6396 70.5585 63.3077 69.4487C62.2866 68.5977 62.0499 68.3314 61.6207 67.5323C61.2656 66.8811 61.3617 66.1634 61.9167 65.3939C62.0499 65.2015 62.3014 64.9425 62.4642 64.8242C62.812 64.5726 63.6777 64.284 64.5952 64.1286C65.4831 63.9807 67.5845 63.9733 68.8127 64.1212Z" fill="black"/>
<path d="M87.969 62.8116C87.4954 62.9744 87.1403 63.2703 86.9035 63.6847C86.6297 64.173 86.6149 64.987 86.8665 65.4827C87.2512 66.2522 87.6656 66.4816 88.6053 66.4742C89.2194 66.4668 89.2934 66.452 89.6042 66.2374C90.6549 65.5271 90.7881 64.1582 89.8928 63.2629C89.6264 62.9966 89.4414 62.8856 89.1084 62.7968C88.5905 62.6488 88.4203 62.6488 87.969 62.8116Z" fill="black"/>
<path d="M14.236 42.5083C13.6662 42.7821 13.2815 43.2926 12.5934 44.6541C12.0828 45.6678 11.3947 47.3474 11.1357 48.2057C11.0617 48.4499 10.9655 48.7828 10.9137 48.9456C10.8028 49.3082 10.6548 49.8853 10.5734 50.2775C10.5438 50.4403 10.4846 50.7066 10.4476 50.8694C10.3292 51.3134 10.159 52.4528 10.0332 53.5701C9.81866 55.4273 9.90005 58.4092 10.2182 60.3774C10.2626 60.6437 10.3292 61.0729 10.3662 61.3393C10.4476 61.9238 10.5586 62.4491 10.6992 62.8931C10.7584 63.0781 10.8028 63.3 10.8028 63.3888C10.8028 63.6478 11.1061 64.3507 11.3207 64.5949C11.5649 64.8687 11.8904 65.0537 12.3788 65.1868C13.2667 65.431 14.3396 64.8095 14.5837 63.8994C14.6873 63.5294 14.6281 62.5231 14.4727 61.983C13.9696 60.1998 13.718 57.3807 13.8438 54.9242C13.9252 53.4147 14.0214 52.7562 14.4653 50.7584C14.7169 49.6116 15.3237 47.9911 16.0192 46.5779C16.3965 45.801 16.7665 45.0241 16.8257 44.8391C17.3658 43.2852 15.7158 41.798 14.236 42.5083Z" fill="black"/>
<path d="M15.0059 68.2353C14.6137 68.3389 14.081 68.842 13.8664 69.3008C13.6592 69.7521 13.637 70.2923 13.7998 70.6178C13.859 70.7288 13.9108 70.8694 13.9108 70.9286C13.9108 71.0544 14.6285 71.7721 14.7543 71.7721C14.8135 71.7721 14.9541 71.8239 15.0651 71.8831C15.7236 72.2235 16.9001 71.7277 17.3292 70.9212C17.5438 70.5217 17.5586 69.6338 17.3588 69.2564C16.9001 68.3833 15.9678 67.9763 15.0059 68.2353Z" fill="black"/>
</g>
<defs>
<clipPath id="clip0_173_61">
<rect width="99.8335" height="100" fill="white"/>
</clipPath>
</defs>
</svg>
