<svg width="87" height="100" viewBox="0 0 87 100" fill="none" xmlns="http://www.w3.org/2000/svg">
<g clip-path="url(#clip0_171_28)">
<path d="M30.0036 0.111099C30.0036 0.177692 29.9 0.229486 29.7298 0.259083C29.5744 0.28868 29.2267 0.399668 28.9529 0.518055C26.6887 1.47995 25.4309 3.7441 25.7047 6.32642C25.7564 6.77777 25.8748 7.3697 25.971 7.64347C26.4446 9.01232 27.5249 10.2036 28.8197 10.7881C29.6188 11.1507 29.9222 11.2025 31.0395 11.2099C32.1567 11.2099 32.4453 11.1581 33.2592 10.7881C33.9399 10.4774 34.2063 10.4182 35.035 10.3812C36.5741 10.3072 37.388 10.5514 38.0243 11.2543C38.2019 11.4467 38.4091 11.7944 38.4978 12.0238C38.6606 12.4381 38.6606 12.5195 38.6606 16.4263C38.6606 20.888 38.6976 20.5772 38.1057 20.8066C35.627 21.7759 34.1989 22.6046 32.4601 24.0623C32.0828 24.3804 31.7128 24.6394 31.6462 24.6394C31.5796 24.632 31.0691 24.6024 30.5215 24.5654C29.8852 24.521 29.0565 24.5284 28.2352 24.5728C27.2881 24.632 26.8589 24.632 26.6074 24.5654C24.2322 23.9735 23.0853 23.7737 20.9026 23.5665C18.853 23.3667 15.4494 23.4629 13.9473 23.7589C12.3935 24.0623 12.3047 24.0845 10.9507 24.521C10.0036 24.817 9.20447 25.1573 8.36096 25.5939C7.70983 25.9343 6.27439 26.8814 5.91183 27.2069C5.78604 27.3179 5.50487 27.5621 5.2903 27.7471C4.74276 28.2132 3.60328 29.5599 3.04094 30.4034C2.08645 31.8462 1.22814 33.844 0.784193 35.6642C0.295847 37.6694 0.110867 39.5192 0.0590729 42.8636C0.022077 45.4015 0.0516737 46.1784 0.295847 49.3157C0.473427 51.639 0.865584 54.7393 1.26514 57.0848C1.6647 59.4082 2.5156 63.7367 2.84857 65.076C2.89296 65.2757 2.98175 65.6383 3.04094 65.8677C3.10014 66.1044 3.19633 66.4892 3.25552 66.7186C3.31471 66.9554 3.54409 67.8803 3.76607 68.7756C3.99544 69.6709 4.22481 70.5884 4.29141 70.8103C4.358 71.0323 4.43939 71.3357 4.46899 71.4837C4.49858 71.6242 4.55038 71.787 4.57998 71.8314C4.60217 71.8758 4.66137 72.0534 4.69836 72.231C4.73536 72.4086 4.81675 72.7341 4.89074 72.9561C5.03133 73.437 5.12012 73.7404 5.46788 74.9169C5.77124 75.9824 5.99322 76.6927 6.38538 77.8766C6.54076 78.3649 6.80713 79.1788 6.97731 79.6894C7.34727 80.8288 7.77642 82.0793 7.91701 82.4271C7.9762 82.5676 8.22777 83.2484 8.47195 83.9439C9.00469 85.4089 9.52263 86.7408 9.7742 87.2883C9.87039 87.4955 9.95179 87.6953 9.95179 87.7175C9.95179 87.8655 11.0469 90.2924 11.698 91.602C12.7709 93.7404 13.4812 94.7763 14.6873 95.9528C17.2326 98.4389 21.0506 99.9631 24.7132 99.9631C26.9921 99.9631 28.7531 99.4896 31.1283 98.2465C31.3872 98.1059 31.4168 98.1059 31.8312 98.2243C32.068 98.2909 32.4305 98.3723 32.6451 98.4093C32.8523 98.4389 33.0668 98.4907 33.1112 98.5203C33.1482 98.5425 33.7106 98.6091 34.3469 98.6683C36.1227 98.8236 37.5803 98.6757 39.1786 98.1799C39.5633 98.0615 39.9481 97.9283 40.0295 97.8988C40.577 97.6546 41.4057 97.2476 41.6351 97.107C42.6488 96.4707 43.8623 96.4707 44.9869 97.0996C46.156 97.7582 47.3621 98.2317 48.2944 98.4093C48.4941 98.4463 48.6791 98.4981 48.7235 98.5203C48.7605 98.5425 49.3007 98.6091 49.9222 98.6683C51.0913 98.7793 52.5637 98.7201 53.311 98.5499C53.496 98.5055 53.8142 98.4389 54.0139 98.4093C54.2211 98.3723 54.5763 98.2909 54.8131 98.2243C55.2274 98.1059 55.257 98.1059 55.516 98.2465C56.981 99.016 57.8541 99.3638 58.9714 99.6228C61.1024 100.119 63.0705 100.082 65.4087 99.5118C67.0217 99.1122 68.2352 98.6091 69.6632 97.7434C71.2022 96.8037 73.1556 94.8651 73.8734 93.5702C73.9399 93.4444 74.0805 93.2077 74.1841 93.0449C74.5319 92.4973 75.7084 90.0186 76.3891 88.3834C76.7664 87.4881 77.1142 86.652 77.1734 86.5336C77.2252 86.4078 77.3214 86.1636 77.3954 85.9787C77.462 85.7937 77.5508 85.5717 77.5877 85.4755C77.8467 84.8096 77.425 83.9809 76.685 83.6775C76.2485 83.4999 76.0561 83.5073 75.6196 83.7145C75.1904 83.9143 74.924 84.2251 74.7169 84.7948C74.6281 85.0168 74.4283 85.5125 74.2581 85.8973C74.0879 86.282 73.9547 86.6224 73.9547 86.652C73.9547 86.7482 72.7043 89.5377 72.3121 90.3072C71.3724 92.1644 71.0025 92.7045 69.9962 93.7108C68.5015 95.2128 66.7479 96.1673 64.4468 96.7371C62.8486 97.1292 60.8434 97.107 59.2748 96.6853C58.6976 96.5225 58.705 96.5077 59.5855 95.8492C60.7694 94.9761 61.8571 93.7626 62.6784 92.4086C63.1667 91.5946 64.8537 88.1836 64.8537 87.9986C64.8537 87.9764 65.0091 87.5917 65.1941 87.1329C65.3791 86.6816 65.6233 86.0749 65.7416 85.7937C65.8526 85.5051 66.0154 85.1056 66.0968 84.9058C66.2596 84.5062 66.7257 83.2262 67.0809 82.2051C67.2067 81.8573 67.3473 81.4578 67.3991 81.3172C67.5175 81.0064 67.5618 80.8658 68.0354 79.4674C68.3758 78.4463 68.8345 77.0108 69.3081 75.4718C69.4264 75.0871 69.5596 74.6579 69.604 74.5173C69.6484 74.3767 69.7816 73.9106 69.9 73.4814C70.0184 73.0523 70.2182 72.3494 70.3365 71.9202C70.4623 71.4911 70.5881 71.0027 70.6251 70.8251C70.6621 70.6475 70.7213 70.47 70.7435 70.4256C70.7731 70.3812 70.8249 70.2184 70.8471 70.0778C70.8767 69.9298 70.9729 69.5599 71.0543 69.2565C71.2022 68.709 71.8016 66.2598 72.0014 65.3571C72.0606 65.0982 72.1567 64.669 72.2233 64.3952C72.2899 64.1141 72.3713 63.7589 72.4009 63.5961C72.4305 63.4333 72.5341 62.982 72.6155 62.5972C72.7043 62.2125 72.8079 61.7241 72.8449 61.5244C72.8819 61.3172 73.0003 60.6882 73.1038 60.1185C73.3554 58.7645 73.4812 58.0615 73.6218 57.1588C73.6884 56.7519 73.792 56.1525 73.8512 55.827C73.9104 55.5014 73.9547 55.1315 73.9547 55.0131C73.9547 54.8873 73.9991 54.5247 74.0583 54.1992C74.1841 53.5036 74.3543 52.0682 74.5097 50.4626C74.9018 46.2302 74.9018 41.4134 74.5023 38.6979C74.0139 35.3238 72.7635 32.2458 71.0247 30.1592C69.9592 28.8791 68.287 27.4881 67.0217 26.8222C66.4002 26.504 66.4742 26.4448 67.6432 26.3782C69.0639 26.2894 71.809 26.541 73.2518 26.8888C75.109 27.3327 76.8996 28.0948 78.2167 28.9827C78.8308 29.3971 80.1183 30.6475 80.6288 31.3135C80.9766 31.7648 81.9459 33.3039 81.9459 33.4C81.9459 33.4222 82.0421 33.6442 82.1604 33.9032C83.4331 36.6705 83.9215 41.0952 83.5885 46.726C83.4701 48.6794 83.1815 51.7056 82.9818 53.0523C82.9448 53.3187 82.8782 53.7996 82.8338 54.1252C82.7968 54.4507 82.6932 55.1684 82.6118 55.716C82.523 56.2635 82.4194 56.9295 82.3824 57.1958C82.3454 57.4622 82.2788 57.773 82.2418 57.8914C82.1974 58.0097 82.1678 58.1947 82.1678 58.2983C82.1678 58.4019 82.116 58.7423 82.0495 59.0456C81.9903 59.349 81.8867 59.8299 81.8275 60.1185C81.7757 60.3997 81.6795 60.8658 81.6203 61.1544C81.5611 61.4356 81.4945 61.7537 81.4797 61.8573C81.4353 62.0793 80.9396 64.3656 80.7842 65.039C80.725 65.3053 80.6436 65.6605 80.6066 65.8381C80.577 66.0083 80.5104 66.2154 80.466 66.2894C80.429 66.3708 80.392 66.5114 80.392 66.6002C80.392 66.689 80.3476 66.9332 80.2885 67.1403C80.1183 67.7175 79.9851 68.2428 79.7261 69.2565C79.5929 69.767 79.4449 70.3294 79.3931 70.5144C79.3414 70.6993 79.2452 71.0619 79.1712 71.3283C79.1046 71.5946 79.001 71.9424 78.9566 72.1052C78.9048 72.268 78.8012 72.6009 78.7272 72.8451C78.6532 73.0893 78.557 73.4222 78.5052 73.585C78.4535 73.7478 78.3573 74.066 78.2907 74.2879C78.0539 75.1241 77.4916 76.9369 77.277 77.5584C77.1364 77.9801 77.0624 78.3427 77.0624 78.6387C77.0624 79.0308 77.092 79.127 77.3066 79.4082C77.6469 79.8595 78.0983 80.0815 78.6088 80.0297C79.3488 79.9631 79.6965 79.5932 80.0295 78.5277C80.1109 78.2539 80.2293 77.9061 80.2811 77.7656C80.503 77.1588 81.1468 75.0649 81.5019 73.77C81.6351 73.3039 81.7831 72.7859 81.8349 72.6231C81.8867 72.4603 81.9829 72.1274 82.0495 71.8832C82.1234 71.639 82.227 71.2913 82.2788 71.1063C82.4712 70.4774 83.3221 67.0441 83.5071 66.1636C83.5441 65.9861 83.5885 65.8159 83.6107 65.7789C83.6329 65.7419 83.6773 65.5717 83.7143 65.3941C83.7513 65.2165 83.8549 64.7578 83.9436 64.373C84.1582 63.4111 84.1804 63.2928 84.5282 61.5244C84.6984 60.666 84.8833 59.7633 84.9425 59.5118C85.0017 59.2602 85.0535 58.979 85.0535 58.8828C85.0535 58.7867 85.0979 58.4759 85.1571 58.1947C85.3273 57.3808 85.4309 56.8259 85.4975 56.3449C85.5345 56.1007 85.6455 55.3164 85.7417 54.6061C86.3114 50.618 86.6074 46.8148 86.6074 43.5813C86.6 39.645 86.1856 36.2931 85.4605 34.3323C85.3939 34.1474 85.3199 33.918 85.2977 33.8144C85.2755 33.7108 85.2089 33.5628 85.1571 33.4814C85.0979 33.4 85.0535 33.2891 85.0535 33.2373C85.0535 33.0819 84.21 31.3505 83.951 30.9583C83.8253 30.7733 83.7217 30.6031 83.7217 30.5809C83.7217 30.5588 83.4405 30.174 83.1001 29.7152C81.1986 27.1995 78.779 25.5125 75.6196 24.4914C74.3987 24.0993 74.2507 24.0623 72.6969 23.7589C70.7213 23.3741 66.4964 23.3667 64.0028 23.7515C62.5674 23.9735 61.7017 24.1511 60.0369 24.5654C59.7853 24.632 59.371 24.632 58.4461 24.5728C57.5951 24.521 56.8108 24.521 56.0191 24.5728L54.8501 24.6468L54.3987 24.2472C53.4886 23.4629 52.4823 22.7526 51.4242 22.1533C50.7805 21.7833 49.9074 21.3764 49.0935 21.0508C48.5237 20.8288 48.2796 20.6882 48.1686 20.5255C48.0872 20.3997 48.065 19.5118 48.0428 15.827C48.0132 10.9731 48.0354 11.3801 47.6432 9.80403C46.9181 6.95535 44.8685 4.25464 42.19 2.64162C41.8719 2.44924 41.5981 2.29386 41.5833 2.29386C41.5611 2.29386 41.3687 2.20507 41.1542 2.10148C40.947 1.99789 40.688 1.8795 40.5844 1.84991C40.4808 1.81291 40.2145 1.71672 39.9925 1.63533C38.8382 1.19878 37.8023 1.036 35.7749 0.969405L34.0361 0.910212L33.3332 0.606845C32.9485 0.444063 32.5045 0.28868 32.3565 0.259083C32.1789 0.229486 32.0754 0.177692 32.0754 0.111099C32.0754 0.0223092 31.8978 0.00011162 31.0395 0.00011162C30.1812 0.00011162 30.0036 0.0223092 30.0036 0.111099ZM31.7054 3.10777C31.9644 3.18916 32.2085 3.28535 32.2529 3.32235C32.2973 3.35194 32.4009 3.40374 32.4823 3.42593C32.5637 3.44813 32.7783 3.52212 32.9633 3.59612C33.5774 3.82549 33.8068 3.85509 35.59 3.91428C36.7368 3.95868 37.573 4.02527 37.9577 4.10666C39.7409 4.47662 41.2577 5.31273 42.5674 6.64458C43.4997 7.59908 44.173 8.67936 44.617 9.94462C45.0535 11.1877 45.0387 11.0693 45.0979 16.0933C45.1497 21.1396 45.1423 21.0434 45.5715 21.9091C45.7934 22.3531 46.2374 22.8414 46.6887 23.1522C46.8515 23.2632 47.3843 23.5147 47.8726 23.7145C49.1749 24.2398 50.5363 24.9576 50.5363 25.1277C50.5363 25.2165 50.4623 25.2831 50.3143 25.3127C48.8419 25.6679 48.6051 25.7345 47.5027 26.0896C46.1782 26.5114 45.0757 26.9405 44.247 27.3475C43.8031 27.5695 43.3887 27.7471 43.3221 27.7471C43.2555 27.7471 42.8412 27.5695 42.3898 27.3475C41.6499 26.9849 40.318 26.467 39.3266 26.1562C39.1046 26.0822 38.8012 25.9861 38.6606 25.9343C38.2463 25.7863 37.7727 25.6605 36.3299 25.3127C35.6418 25.1499 36.5815 24.5802 39.4375 23.4407C40.2885 23.1004 41.021 22.3457 41.3687 21.443L41.5833 20.9028V16.4633V12.0238L41.3391 11.2987C41.0358 10.396 40.7028 9.82623 40.1183 9.1973C39.6003 8.64976 39.0676 8.265 38.3499 7.92464C37.5656 7.56208 36.9884 7.47329 35.405 7.47329C33.792 7.47329 33.3924 7.53988 32.3491 7.99863C31.7276 8.2798 31.6166 8.302 31.0321 8.302C30.4919 8.302 30.3365 8.2724 30.0184 8.10962C29.4708 7.83585 29.1749 7.53988 28.8863 7.01454C28.6421 6.55579 28.6421 6.53359 28.6421 5.66049C28.6421 4.87618 28.6643 4.73559 28.8197 4.43962C29.1453 3.81069 29.7298 3.30015 30.3365 3.12257C31.0025 2.93019 31.1357 2.93019 31.7054 3.10777ZM19.7779 26.4596C19.8667 26.4892 19.9407 26.5336 19.9407 26.5632C19.9407 26.5928 19.6299 26.8074 19.26 27.0293C17.3584 28.1836 15.8045 29.6856 14.6503 31.4837C14.1767 32.2236 13.4812 33.6516 13.1704 34.5173C13.0298 34.9243 12.8745 35.3534 12.8301 35.4792C12.7857 35.5976 12.7339 35.7826 12.7117 35.8862C12.6895 35.9898 12.6303 36.2191 12.5785 36.4041C12.4823 36.7445 12.3195 37.5436 12.1715 38.3945C12.0458 39.0974 11.8756 41.221 11.8756 42.0645C11.8756 42.9302 12.0088 43.2558 12.5045 43.5961C12.7561 43.7663 12.8745 43.7959 13.3036 43.8033C13.8512 43.8033 14.0435 43.7145 14.4135 43.3224C14.6947 43.0116 14.7539 42.76 14.8352 41.3246C14.9462 39.4748 15.1534 38.1503 15.5752 36.5521C15.6122 36.4115 15.7158 36.1081 15.8045 35.8862C15.8859 35.6642 15.9895 35.3756 16.0265 35.2424C16.1449 34.8577 16.9292 33.3704 17.3288 32.7785C17.536 32.4677 18.0317 31.8758 18.4313 31.4541C20.762 29.0049 23.7883 27.7841 28.1686 27.5251C32.4675 27.2735 37.9355 28.3612 41.5463 30.1888C42.9374 30.8917 43.7069 30.8917 45.1349 30.174C46.193 29.6339 47.4435 29.1603 49.1305 28.635C50.0184 28.3612 52.2973 27.9098 53.718 27.7175C56.907 27.2883 60.1035 27.4659 62.745 28.2058C64.765 28.7681 66.5186 29.7744 67.8874 31.1507C68.3166 31.5798 68.7531 32.0238 68.8493 32.1496C69.4486 32.8821 70.2034 34.2435 70.6769 35.4422C71.6758 37.9579 72.0384 41.6353 71.809 46.7852C71.6906 49.4637 71.3354 53.0375 70.9507 55.383C70.8915 55.7456 70.7953 56.3671 70.7287 56.7519C70.6695 57.1366 70.5659 57.7064 70.5067 58.0097C70.4549 58.3131 70.3069 59.1122 70.1812 59.7855C70.0554 60.4589 69.8704 61.406 69.7594 61.8943C69.6558 62.3827 69.5448 62.9154 69.5078 63.0782C69.4782 63.241 69.3747 63.6923 69.2859 64.0771C69.2045 64.4618 69.1009 64.9132 69.0713 65.076C69.0047 65.4089 67.8948 69.7818 67.7024 70.4774C67.6358 70.7215 67.5323 71.0841 67.4731 71.2913C67.4139 71.4911 67.3325 71.7574 67.3029 71.8832C66.8515 73.5036 65.823 76.8851 65.6307 77.3956C65.5715 77.5362 65.4087 78.0171 65.2681 78.4685C64.8981 79.6376 64.5652 80.5921 64.4838 80.74C64.4394 80.814 64.4098 80.9176 64.4098 80.9842C64.4098 81.0434 64.358 81.1988 64.3062 81.332C64.247 81.4652 63.9732 82.1755 63.6995 82.908C63.004 84.78 63.0113 84.7652 62.4194 86.1488C62.1308 86.8296 61.8941 87.4067 61.8941 87.4215C61.8941 87.4363 61.7091 87.8359 61.4871 88.3094C61.2651 88.7756 61.0802 89.1751 61.0802 89.1825C61.0802 89.2343 59.9851 91.2173 59.8075 91.4985C59.6151 91.8018 58.4978 92.9709 58.0983 93.2891C57.1438 94.0586 55.9377 94.7171 54.6429 95.1906C52.1493 96.0933 49.0861 95.9824 47.1697 94.9243C45.5345 94.0142 44.6688 93.7478 43.3295 93.7478C42.0273 93.7478 41.5241 93.8884 39.9555 94.6727C39.26 95.0205 38.6532 95.3016 38.6014 95.3016C38.5496 95.3016 38.4535 95.3312 38.3795 95.3756C38.3129 95.4126 38.0391 95.494 37.7801 95.5606C36.0117 95.9898 33.8142 95.8492 32.0014 95.1906C30.233 94.5469 28.9603 93.7552 27.7764 92.5565C27.1549 91.935 26.8811 91.5946 26.5112 90.9657C25.8526 89.8558 25.2903 88.7016 24.5874 87.0515C24.2618 86.2746 23.951 85.5421 23.8919 85.4237C23.7365 85.076 23.1741 83.5961 22.7894 82.538C22.4564 81.6131 22.338 81.2876 22.116 80.7252C22.0643 80.5847 21.8127 79.8299 21.5611 79.0604C21.3095 78.2835 21.0654 77.5362 21.0136 77.3956C20.8064 76.8111 20.7398 76.6113 20.6806 76.3967C20.6436 76.2709 20.5104 75.8418 20.3846 75.4348C20.1849 74.7911 19.9333 73.955 19.5263 72.5491C19.4671 72.342 19.3857 72.0608 19.3488 71.9202C19.3118 71.7796 19.2304 71.4911 19.1712 71.2913C19.0602 70.8917 18.779 69.878 18.6828 69.5155C18.6458 69.3897 18.483 68.746 18.3203 68.0726C18.1575 67.3993 17.9651 66.6594 17.9059 66.4226C17.8467 66.1932 17.7505 65.8085 17.6913 65.5717C17.6321 65.3423 17.5434 64.9798 17.499 64.78C17.4472 64.5728 17.3806 64.2768 17.351 64.1141C17.314 63.9513 17.24 63.5813 17.1734 63.3002C16.9588 62.3753 16.1005 57.9875 16.0413 57.5288C16.0265 57.403 15.9673 57.0552 15.9081 56.7519C15.8119 56.2413 15.6936 55.5014 15.5086 54.1992C15.368 53.2817 15.2052 51.861 15.0942 50.6106C14.9166 48.672 14.8944 48.5906 14.4357 48.1836C14.0953 47.8877 13.6884 47.7619 13.2444 47.8359C12.9485 47.8729 12.8227 47.9542 12.4971 48.2724C12.1789 48.5906 12.0975 48.7238 12.0606 48.9975C11.9792 49.5451 12.3713 53.1781 12.8005 55.901C13.1556 58.1503 13.5256 60.2221 13.7772 61.4134C13.8734 61.8795 13.9843 62.4271 14.0213 62.6342C14.0509 62.834 14.1175 63.1004 14.1619 63.2114C14.2063 63.3298 14.2433 63.5073 14.2433 63.6109C14.2433 63.7219 14.2877 63.9735 14.3469 64.1807C14.4505 64.5358 14.6133 65.2165 15.1312 67.4807C15.3384 68.3612 15.553 69.2047 15.9081 70.4774C15.9599 70.6771 16.0635 71.0619 16.1301 71.3283C16.2041 71.5946 16.2855 71.8906 16.3151 71.9942C16.3521 72.0978 16.5149 72.6749 16.685 73.2891C16.8478 73.8958 17.018 74.4803 17.0476 74.5839C17.0846 74.6875 17.1734 74.9687 17.24 75.2128C17.314 75.457 17.4102 75.7752 17.462 75.9158C17.5138 76.0564 17.6099 76.3745 17.6839 76.6187C17.7505 76.8629 17.8541 77.181 17.9059 77.3216C17.9577 77.4622 18.1575 78.0763 18.3499 78.6905C18.5348 79.2972 18.7272 79.8817 18.7716 79.9853C18.816 80.0889 18.8752 80.2665 18.9048 80.3923C18.9418 80.5107 19.038 80.7992 19.1268 81.0212C19.2156 81.2432 19.3118 81.5244 19.3488 81.6501C19.3783 81.7685 19.4375 81.9535 19.4819 82.0571C19.5263 82.1607 19.7631 82.8044 20.0147 83.4999C20.2589 84.1881 20.5104 84.854 20.5622 84.9798C20.6214 85.0982 20.762 85.4533 20.8878 85.7567C22.1234 88.8199 21.9311 88.3686 22.9004 90.3738C23.7217 92.0756 24.321 93.0745 24.9721 93.8588C25.5493 94.5543 26.4372 95.3978 27.1179 95.901C27.9318 96.5077 27.9392 96.5299 27.3695 96.6853C24.2766 97.5214 20.4438 96.7445 17.7579 94.7171C15.7823 93.2225 14.9388 91.9202 12.9115 87.1995C12.5785 86.4226 12.1197 85.3127 11.9052 84.7208C11.6832 84.1289 11.476 83.5813 11.439 83.4999C11.402 83.4185 11.3206 83.204 11.2466 83.019C11.1801 82.834 11.0839 82.6046 11.0469 82.501C11.0025 82.3975 10.8915 82.0793 10.7953 81.7981C10.6991 81.5096 10.4549 80.7992 10.2478 80.2073C10.0406 79.6154 9.8408 79.0308 9.8038 78.9124C9.7742 78.7867 9.70761 78.5869 9.66322 78.4685C9.39685 77.736 8.71612 75.5754 8.34616 74.2879C8.28697 74.066 8.19078 73.7478 8.13898 73.585C8.08719 73.4222 7.9836 73.0893 7.91701 72.8451C7.84302 72.6009 7.73943 72.268 7.68763 72.1052C7.63584 71.9424 7.54705 71.6242 7.48786 71.4023C7.42866 71.1803 7.32507 70.8103 7.26588 70.5884C7.19929 70.3664 7.0439 69.767 6.91812 69.2565C6.79233 68.746 6.63695 68.1614 6.58516 67.9616C6.53336 67.7545 6.43717 67.3845 6.37058 67.1255C6.30399 66.874 6.2004 66.4744 6.1412 66.2376C5.94143 65.4533 5.66766 64.2694 5.40129 63.0042C5.2607 62.3087 5.09052 61.5096 5.03133 61.2284C4.71316 59.7559 4.46899 58.4537 4.17302 56.7519C3.73647 54.1918 3.27772 50.2776 3.07054 47.3549C2.84117 44.2029 2.92256 40.4441 3.26292 38.2909C3.4775 36.8999 4.09163 34.6283 4.395 34.0512C4.43199 33.9846 4.61697 33.6146 4.80195 33.2447C4.98693 32.8673 5.3051 32.3124 5.51227 32.0016C5.91183 31.4097 6.94032 30.1518 7.1031 30.063C7.15489 30.026 7.37687 29.841 7.59144 29.6413C7.81342 29.4415 8.30917 29.0641 8.69392 28.8125C9.36725 28.3686 10.8249 27.5991 10.9877 27.5991C11.0321 27.5991 11.1209 27.5695 11.1948 27.5251C11.8238 27.1625 14.1989 26.6224 15.6862 26.4892C16.5075 26.4226 19.5485 26.4004 19.7779 26.4596Z" fill="black"/>
</g>
<defs>
<clipPath id="clip0_171_28">
<rect width="86.626" height="100" fill="white"/>
</clipPath>
</defs>
</svg>
