<svg width="100" height="70" viewBox="0 0 100 70" fill="none" xmlns="http://www.w3.org/2000/svg">
<g clip-path="url(#clip0_134_65)">
<path d="M49.8794 0.200076C49.0567 0.548417 48.1599 1.37851 47.4781 2.39389C47.2928 2.67552 47.1001 2.94234 47.0482 2.9794C46.9963 3.02387 46.6035 3.08316 46.1737 3.10539C44.3134 3.22398 41.7193 3.51303 41.0449 3.66867C40.867 3.70573 40.615 3.74278 40.4742 3.74278C40.2444 3.74278 39.822 3.82431 38.688 4.0763C38.4212 4.14301 38.147 4.18748 38.0803 4.18748C38.0062 4.18748 37.5244 4.29124 37.0056 4.40982C36.4868 4.53582 35.7753 4.70628 35.4269 4.78781C34.8488 4.92863 34.0929 5.13615 33.1664 5.41038C31.9287 5.78095 29.6163 6.58881 28.5935 7.01127C28.4008 7.08538 28.2007 7.15209 28.1488 7.15209C28.097 7.15209 27.8524 6.94456 27.6078 6.68516C27.0742 6.13671 26.4071 5.78095 25.7549 5.70684C25.5103 5.67719 25.2583 5.64014 25.199 5.63272C25.1398 5.6179 24.8729 5.64755 24.6061 5.6846C24.154 5.75131 23.235 6.15894 21.975 6.85563C20.9522 7.4189 20.7447 7.53007 20.1963 7.85618C19.8702 8.04888 19.4181 8.32311 19.1957 8.47134C18.9734 8.61957 18.5583 8.88638 18.2693 9.07167C15.6308 10.7689 13.2665 12.6959 10.8133 15.1491C6.61094 19.3589 3.83162 23.6279 1.81568 28.942C1.7638 29.0828 1.66745 29.3348 1.60816 29.4978C1.0523 30.9579 0.355614 33.9596 0.133268 35.8717C0.014684 36.8797 -0.0223736 40.9635 0.0739762 41.9121C0.303733 44.0763 0.800306 46.2405 1.48217 47.9896C1.5711 48.2119 1.66745 48.4787 1.70451 48.5825C1.7638 48.7604 2.11215 49.5312 2.49013 50.3242C2.58648 50.5243 2.77918 50.8949 2.92741 51.1395C3.06823 51.3841 3.20905 51.6361 3.23129 51.6953C3.26093 51.7546 3.55739 52.2216 3.89091 52.733C5.66968 55.453 8.36747 58.1508 11.1913 60.0037C12.1325 60.6262 12.5402 60.8856 12.5624 60.8856C12.5772 60.8856 12.9181 61.0783 13.3184 61.3155C14.1188 61.7824 16.2089 62.8423 17.1946 63.2796C17.5429 63.4352 17.9283 63.6057 18.0469 63.6576C18.6769 63.9466 19.6775 64.3394 20.2333 64.5321C20.5817 64.6507 20.93 64.7693 21.0115 64.8063C21.3302 64.9397 21.7749 65.1028 22.2344 65.251C22.7162 65.3993 23.0126 65.4956 23.4944 65.6661C23.8724 65.7995 24.154 65.881 25.2732 66.1849C25.8216 66.3331 26.4294 66.5036 26.6221 66.5629C26.8148 66.6222 27.0297 66.6666 27.1038 66.6666C27.1705 66.6666 27.3632 66.7111 27.5337 66.7704C27.8746 66.889 28.4305 67.0298 28.8677 67.1113C29.0308 67.1484 29.4014 67.2225 29.683 67.2892C30.8689 67.5634 33.8779 68.0971 35.5752 68.3342C36.0421 68.4009 36.7462 68.5047 37.1316 68.564C37.517 68.6233 37.9543 68.6677 38.0951 68.6677C38.2359 68.6677 38.7251 68.7122 39.1698 68.7715C42.3271 69.1865 49.0938 69.3867 53.437 69.1865C56.4757 69.0457 59.3662 68.8086 61.0856 68.5492C61.4785 68.4899 61.9157 68.4454 62.0417 68.4454C62.1751 68.4454 62.568 68.3935 62.9163 68.3342C63.2646 68.2749 63.8872 68.1786 64.2948 68.1119C65.1249 67.9785 65.3917 67.934 66.9259 67.6598C67.5189 67.556 68.1192 67.4448 68.26 67.4078C68.4008 67.3781 68.7862 67.2892 69.1123 67.2225C69.4384 67.1484 69.809 67.0594 69.9276 67.0224C70.0536 66.9853 70.3204 66.926 70.5205 66.8816C70.728 66.8445 71.0616 66.7704 71.2617 66.7111C71.4692 66.6518 72.0325 66.5036 72.5216 66.3702C73.5592 66.1034 75.0564 65.6587 75.6715 65.4437C75.9606 65.34 76.1162 65.2881 77.2279 64.9101C79.5329 64.1319 83.4092 62.4569 84.6988 61.6787C85.0916 61.4489 85.3065 61.0413 85.3065 60.5373C85.3065 60.0259 85.1138 59.6405 84.6914 59.2996C84.4245 59.0921 84.3578 59.0698 83.8761 59.0772C83.3795 59.0846 83.2832 59.1143 82.4308 59.5367C81.9269 59.7887 81.5044 59.9963 81.4896 59.9963C81.4748 59.9963 81.1709 60.1297 80.8225 60.2927C80.1703 60.604 78.4953 61.2933 77.895 61.5008C77.7097 61.5675 77.3762 61.6861 77.1538 61.775C76.1014 62.1752 74.0113 62.8497 72.6328 63.2277C72.4105 63.287 72.0473 63.3833 71.8324 63.4426C71.6248 63.5019 71.2691 63.5983 71.0541 63.6576C70.8466 63.7168 70.5872 63.7835 70.4835 63.8058C70.3797 63.8206 70.0314 63.9095 69.7053 63.9985C69.3791 64.0874 68.9641 64.1838 68.7788 64.2208C68.5935 64.2505 67.7783 64.4135 66.963 64.5766C66.1477 64.7322 65.1472 64.9249 64.7395 64.9916C64.3319 65.0657 63.8131 65.1547 63.5907 65.1991C63.3684 65.2436 62.9682 65.3029 62.7014 65.3326C62.4345 65.3622 61.9528 65.4289 61.6267 65.4734C59.0919 65.8514 56.3645 66.0811 52.844 66.2294C50.6354 66.3257 44.9285 66.2738 43.209 66.1478C39.9257 65.9107 39.8516 65.9032 37.7986 65.6587C36.3534 65.4882 34.834 65.2584 33.537 65.0213C33.2924 64.9768 32.9441 64.9175 32.7588 64.8879C32.2178 64.7989 31.6026 64.6803 30.4242 64.4358C29.3495 64.2134 28.9122 64.1097 28.1192 63.8799C27.9117 63.8206 27.6819 63.7761 27.6004 63.7761C27.5263 63.7761 27.3336 63.7317 27.1631 63.6724C27 63.6131 26.4812 63.4649 26.0143 63.3314C24.9619 63.035 23.1164 62.4717 22.7162 62.3161C22.5531 62.2568 22.3011 62.1604 22.1603 62.1085C18.3508 60.7226 15.4529 59.307 12.7477 57.5134C11.9621 56.9872 10.6206 55.9347 10.0054 55.3566C9.78307 55.1491 9.50885 54.8971 9.40509 54.8008C9.19756 54.6081 8.1896 53.526 7.81902 53.1035C6.35154 51.3915 4.93594 48.9605 4.15773 46.8037C3.32764 44.5062 2.81624 41.5786 2.81624 39.1847C2.81624 37.821 3.05341 35.7383 3.37952 34.13C3.65374 32.8108 4.37266 30.3205 4.69136 29.5942C4.75065 29.4608 5.02487 28.816 5.30651 28.1638C5.58074 27.5115 5.88461 26.8445 5.97355 26.6815C6.06249 26.5184 6.28483 26.1034 6.46271 25.755C7.6782 23.4648 9.6052 20.7374 11.4803 18.677C12.3104 17.7654 14.5264 15.616 15.3491 14.9268C17.4095 13.1999 19.2402 11.8732 21.5155 10.4947C21.7897 10.3316 22.0343 10.1908 22.0491 10.1908C22.0714 10.1908 22.2122 10.1167 22.3678 10.0203C23.1609 9.52377 25.0286 8.56027 25.199 8.56027C25.5622 8.56027 25.5696 8.99755 25.2361 9.96846C25.073 10.4576 24.3838 12.7181 24.0428 13.8966C23.9836 14.1189 23.902 14.4006 23.865 14.5266C23.7909 14.7785 23.3239 16.7204 23.1535 17.4541C23.0942 17.7209 22.9978 18.136 22.9459 18.3805C22.8866 18.6251 22.7829 19.1069 22.7162 19.4552C22.6495 19.8036 22.5457 20.2705 22.4864 20.5002C22.4271 20.7226 22.3827 21.0116 22.3827 21.145C22.3827 21.271 22.3456 21.4637 22.3086 21.5749C22.2641 21.6861 22.1974 22.0196 22.1529 22.3012C22.1159 22.5903 22.0343 23.1239 21.975 23.4945C21.6045 25.7847 21.471 27.3188 21.4636 29.5719C21.4562 31.6175 21.471 31.8547 21.6193 32.4995C21.9083 33.7372 22.19 34.3079 22.8051 34.9231C23.1831 35.2936 23.5833 35.4789 24.3541 35.6568C25.8438 35.9829 27.6671 35.3974 29.6089 33.9522C30.5205 33.2703 32.1511 31.7287 32.9441 30.7874C33.1887 30.4984 33.4555 30.1871 33.537 30.0982C34.3745 29.1717 37.0649 25.5623 37.3984 24.9249C37.5689 24.6062 37.5615 23.9688 37.391 23.702C37.0278 23.1313 36.5906 22.8645 36.0199 22.8645C35.4047 22.8645 35.1157 23.0869 34.4264 24.0874C33.3073 25.7105 31.4692 28.0229 30.2611 29.3496C28.2304 31.5731 26.4442 32.796 25.2361 32.796C24.7988 32.796 24.658 32.6033 24.5024 31.8325C24.3467 31.0098 24.3393 28.4899 24.4949 27.0965C24.8062 24.2727 25.2287 21.5527 25.5844 20.1223C25.6289 19.937 25.6882 19.6183 25.7253 19.4182C25.7549 19.2106 25.8142 18.9438 25.8513 18.8252C25.8883 18.6992 25.9847 18.3361 26.0514 18.01C26.2292 17.2243 26.9333 14.4821 27.0816 13.9707C27.1557 13.7483 27.2372 13.4445 27.2743 13.3036C27.3039 13.1628 27.3706 12.9405 27.4151 12.8219C27.4596 12.6959 27.6448 12.1326 27.8301 11.5545C28.1637 10.5243 28.3564 10.1908 28.6158 10.1908C28.675 10.1908 28.7566 10.1612 28.801 10.1241C28.8603 10.0648 29.2902 9.88694 30.5353 9.42001C30.6762 9.36072 30.9282 9.26437 31.0912 9.20508C31.4988 9.04202 32.4549 8.7085 32.7217 8.63439C32.8477 8.59733 33.2109 8.48616 33.537 8.37499C34.2782 8.13782 35.716 7.74501 36.8351 7.47819C37.9024 7.2262 38.1618 7.16691 38.8733 7.02609C40.5113 6.69257 41.2969 6.56658 43.1868 6.33682C44.5061 6.17376 45.2102 6.15153 45.2102 6.2627C45.2102 6.32941 45.0397 6.64069 44.7803 7.04091C44.7358 7.12244 44.6691 7.24102 44.6395 7.30032C44.6098 7.35961 44.4468 7.65607 44.2689 7.95253C44.091 8.2564 43.9502 8.5084 43.9502 8.52322C43.9502 8.53804 43.7501 8.88638 43.5055 9.30142C43.2609 9.71647 43.0608 10.0722 43.0608 10.087C43.0608 10.1019 42.9867 10.2427 42.8904 10.3983C42.794 10.5466 42.6161 10.8578 42.4901 11.0802C42.1937 11.6212 41.119 13.4741 39.8665 15.579C39.3032 16.5277 38.8214 17.417 38.7918 17.5653C38.7103 18.0322 38.814 18.4472 39.1031 18.7437C39.7923 19.4552 40.7558 19.4923 41.3043 18.8401C41.4229 18.6918 43.4092 15.4085 43.5277 15.1565C43.5574 15.0972 43.6463 14.9416 43.7279 14.823C43.8094 14.697 43.8983 14.5488 43.928 14.4895C43.9576 14.4302 44.18 14.0448 44.4171 13.6372C44.8841 12.8441 44.9137 12.7997 45.729 11.3396C46.0254 10.806 46.3515 10.2501 46.4479 10.1019C46.5368 9.94623 46.6183 9.80541 46.6183 9.79059C46.6183 9.77576 46.8185 9.42001 47.063 9.01238C47.3076 8.59733 47.5077 8.24899 47.5077 8.22676C47.5077 8.21193 47.6486 7.95253 47.8264 7.65607C48.0043 7.35961 48.1674 7.06315 48.197 7.00386C48.2267 6.94456 48.2934 6.82598 48.3452 6.74445C48.3971 6.66293 48.6936 6.14412 49.0049 5.59567C49.3161 5.04721 49.6348 4.47653 49.7238 4.33571C49.8053 4.19489 49.9017 4.02442 49.9313 3.96513C50.0647 3.66126 50.3538 3.38703 50.7317 3.19433L51.1468 2.98681L52.4216 3.03869C53.7334 3.09057 56.4609 3.31292 57.4392 3.44632C58.8918 3.64643 59.5885 3.75761 60.011 3.86137C60.263 3.92066 60.552 3.96513 60.6484 3.96513C60.8633 3.96513 61.0708 4.18006 61.0708 4.395C61.0708 4.48394 61.0264 4.66181 60.9671 4.79522C60.7447 5.31403 60.5224 5.8773 60.3223 6.44799C60.2111 6.7741 60.0406 7.2262 59.9591 7.44855C59.8702 7.67089 59.7738 7.93771 59.7367 8.04147C59.6997 8.14523 59.6033 8.41204 59.5144 8.63439C59.2328 9.38295 58.0692 12.6737 57.958 13.0442C57.9209 13.1628 57.8098 13.4963 57.706 13.7854C57.6096 14.067 57.3651 14.8008 57.1798 15.4159C56.9871 16.0237 56.787 16.6462 56.7351 16.7871C56.6832 16.9279 56.5794 17.2466 56.5127 17.4912C56.4386 17.7357 56.3423 18.0544 56.2904 18.1953C56.1866 18.4917 56.068 18.8697 55.6901 20.1964C55.3121 21.523 55.023 22.4939 54.734 23.4204C54.6821 23.5834 54.5857 23.9318 54.5116 24.1986C54.4449 24.4654 54.356 24.7619 54.3189 24.8656C54.0818 25.5623 53.3925 28.6826 53.185 30.0166C52.592 33.8113 52.933 36.3313 54.2152 37.6505C54.986 38.4435 55.5937 38.6807 56.8833 38.6807C58.4546 38.6733 59.8331 38.199 61.4933 37.0946C64.0132 35.4122 66.9704 32.0474 69.8016 27.6598C70.0314 27.2966 70.3723 26.7778 70.5428 26.511C70.8985 25.9699 73.0775 22.3531 73.0775 22.3087C73.0775 22.2938 73.2183 22.0418 73.3962 21.738C73.7668 21.1228 73.8705 20.9375 74.8414 19.1958C75.8346 17.4096 75.8494 17.3874 76.5239 16.1571C76.8574 15.5419 77.2131 14.9119 77.3021 14.7489C77.3984 14.5858 77.7468 13.9485 78.0877 13.3407C79.0438 11.6064 79.1994 11.3767 79.3921 11.3767C79.57 11.3767 80.2667 11.8139 81.4525 12.6737C85.3658 15.5049 88.9307 19.1365 91.3098 22.7163C92.5624 24.6062 93.9483 27.1854 94.5561 28.7567C94.734 29.2014 94.9193 29.6683 94.9786 29.7943C95.3862 30.6689 96.2237 33.6853 96.5276 35.39C97.1205 38.6733 97.1946 41.7343 96.7499 43.9132C96.5276 44.9879 96.409 45.4178 95.9717 46.6185C95.0156 49.294 92.9997 52.0659 90.2352 54.4969C89.2272 55.3863 89.1976 55.4159 89.0493 55.7643C88.7603 56.4165 89.1234 57.2318 89.8794 57.6172C90.2648 57.8099 90.5835 57.8099 90.9763 57.632C91.5692 57.3578 93.6741 55.4011 94.897 53.9929C95.8161 52.9331 96.3942 52.14 97.2613 50.7615C97.5133 50.3465 98.2989 48.7974 98.499 48.286C98.588 48.0637 98.7065 47.7747 98.7584 47.6561C98.8844 47.367 99.3439 45.8402 99.4477 45.3585C99.4922 45.151 99.5737 44.8175 99.6182 44.6173C99.6626 44.4098 99.7293 44.0096 99.759 43.728C99.796 43.4389 99.8627 42.9053 99.9072 42.5421C100.011 41.7713 99.9665 38.8512 99.8331 37.7987C99.6626 36.3905 99.5144 35.3974 99.3736 34.6118C99.2254 33.8039 98.8474 32.1141 98.7288 31.7583C98.6991 31.6546 98.6102 31.3878 98.5435 31.1654C98.21 30.024 97.4169 27.8451 97.0464 27.0298C96.698 26.2664 95.6901 24.2431 95.4232 23.791C95.2824 23.5464 95.1342 23.2796 95.0897 23.198C95.0453 23.1165 94.9563 22.9609 94.8822 22.8497C94.8155 22.7459 94.6599 22.4939 94.5413 22.2938C93.7334 20.9598 92.0436 18.6622 90.7836 17.2021C89.1531 15.3122 86.6999 12.985 84.7581 11.4878C84.4394 11.2432 83.9873 10.8949 83.7501 10.7096C83.1498 10.2427 81.5711 9.15319 81.1338 8.90861C80.578 8.59733 80.2148 8.48616 79.5996 8.43428C78.7473 8.36758 77.8135 8.70109 77.1612 9.30142C76.976 9.46448 76.7684 9.59789 76.6869 9.59789C76.6128 9.59789 76.3237 9.47189 76.0569 9.32366C75.2713 8.89379 73.6259 8.08594 72.8255 7.74501C72.4253 7.57454 72.0399 7.41149 71.9732 7.37443C71.0171 6.87786 66.8444 5.44002 64.8507 4.92863C64.5024 4.83969 64.1837 4.73593 64.1392 4.69887C64.0873 4.66181 64.028 4.40982 63.9984 4.14301C63.902 3.20915 63.5907 2.56435 62.9534 1.95661C62.3234 1.36369 61.9157 1.19322 60.5891 0.970874C60.1814 0.896759 59.5811 0.800409 59.255 0.741117C57.2242 0.392775 54.4449 0.140783 51.8435 0.0666682C50.3315 0.0296105 50.2796 0.0296105 49.8794 0.200076ZM64.1096 7.78948C64.495 7.89324 64.9841 8.02665 65.1842 8.08594C65.3917 8.14523 65.7401 8.24899 65.9624 8.30828C66.1848 8.37499 66.4887 8.47134 66.6295 8.52322C67.2372 8.73815 67.4225 8.79744 67.63 8.85673C67.756 8.89379 68.0377 8.99014 68.26 9.07908C68.4824 9.16802 68.7492 9.26437 68.8529 9.30142C69.3421 9.47189 70.7947 10.05 71.2246 10.2501C73.3962 11.2581 73.9372 11.5175 74.545 11.8436C74.9156 12.0511 75.2268 12.266 75.2268 12.3179C75.2268 12.4069 74.8118 13.2073 74.2115 14.2671C74.1299 14.408 73.9224 14.7934 73.7445 15.1195C73.5741 15.4456 73.4036 15.742 73.374 15.7865C73.3443 15.8236 73.1961 16.0904 73.0478 16.3794C72.8922 16.6611 72.7143 16.9946 72.6402 17.1206C72.5661 17.2392 72.3808 17.5727 72.2252 17.8617C71.8324 18.5881 71.2691 19.5886 71.0838 19.8999C71.0023 20.0407 70.9059 20.2112 70.8763 20.2705C70.8318 20.3668 69.4014 22.82 69.2309 23.0869C69.1864 23.1462 68.9345 23.5612 68.6528 24.0133C67.0593 26.6147 64.7988 29.7795 63.4203 31.3507C61.723 33.2851 60.0925 34.6859 58.84 35.264C57.958 35.679 56.7647 35.8792 56.4016 35.6865C55.8976 35.4196 55.8531 32.959 56.2978 30.3131C56.446 29.4311 56.6091 28.564 56.7351 28.0155C56.787 27.7709 56.8685 27.4004 56.913 27.2003C57.1501 26.0811 57.6319 24.1097 57.8468 23.3833C57.8987 23.198 58.0025 22.8497 58.0692 22.6051C58.1359 22.3605 58.2322 22.0122 58.2915 21.8269C58.3434 21.6416 58.4397 21.3081 58.5064 21.0857C58.6843 20.4484 59.3513 18.2545 59.4329 18.01C59.5218 17.7506 59.922 16.5499 60.5075 14.7489C60.7299 14.0522 61.0338 13.1554 61.182 12.7478C61.4192 12.0807 61.686 11.3174 62.2863 9.59789C62.4938 9.01979 62.5235 8.93085 62.731 8.46393C62.7977 8.30828 62.8496 8.14523 62.8496 8.09335C62.8496 8.04147 62.9163 7.89324 62.9978 7.75983C63.109 7.57454 63.1905 7.52266 63.2795 7.55972C63.3462 7.58195 63.7242 7.68572 64.1096 7.78948Z" fill="black"/>
</g>
<defs>
<clipPath id="clip0_134_65">
<rect width="100" height="69.3163" fill="white"/>
</clipPath>
</defs>
</svg>
