<svg width="100" height="101" viewBox="0 0 100 101" fill="none" xmlns="http://www.w3.org/2000/svg">
<g clip-path="url(#clip0_133_59)">
<path d="M24.0432 0.11149C24.0432 0.170947 23.9392 0.237837 23.7757 0.267566C23.2183 0.371616 22.0366 1.07767 21.665 1.53847C21.0035 2.33371 20.6319 3.09923 20.513 3.86474C20.4832 4.05055 20.4238 4.24378 20.3866 4.28838C20.3272 4.35527 19.9778 4.38499 19.1454 4.39243C17.8745 4.39986 17.6293 4.45188 17.2725 4.79376C16.9529 5.08362 16.834 5.41064 16.834 5.93089C16.834 6.2802 16.8786 6.42884 17.0496 6.6964C17.3914 7.24638 17.6218 7.31327 19.0786 7.343C20.29 7.3653 20.3272 7.37273 20.3643 7.52881C20.3866 7.61799 20.394 8.54702 20.3866 9.58752L20.3643 11.4827L19.138 11.5273C18.4617 11.557 17.8225 11.6016 17.711 11.6314C17.4583 11.6983 17.0644 12.0847 16.9381 12.3895C16.6928 12.9692 16.8935 13.8462 17.3394 14.1732C17.6813 14.4259 18.0678 14.4928 19.1752 14.4928C19.7474 14.4928 20.2603 14.5225 20.3123 14.5522C20.3792 14.6042 20.4015 15.065 20.3866 16.6184L20.3643 18.6176L19.1008 18.6548C18.0529 18.6845 17.7854 18.7142 17.5475 18.8332C16.7374 19.2419 16.5739 20.5351 17.2502 21.2115C17.3691 21.3229 17.5475 21.4567 17.6516 21.5013C17.7556 21.5459 18.4097 21.6054 19.1008 21.6277L20.3643 21.6648L20.4015 25.0836C20.4461 28.9632 20.4312 28.8815 21.0555 29.32C21.3454 29.5206 21.442 29.5429 21.9176 29.5429C22.4602 29.5355 22.7723 29.4091 23.0622 29.0598C23.3372 28.7254 23.3372 28.9038 23.3744 16.388C23.4115 4.95727 23.4189 4.18433 23.5453 3.96136C23.8723 3.35192 24.6973 2.89113 25.2473 3.01004C25.8047 3.13639 26.3695 3.58232 26.5925 4.08027C26.6594 4.22892 26.6891 10.7841 26.704 31.6908C26.7188 54.8867 26.704 59.1304 26.6148 59.2642C26.5479 59.3757 26.3695 59.45 26.0425 59.5244C25.5223 59.6284 25.1358 59.7399 24.2142 60.0297C23.8872 60.1338 23.5602 60.2007 23.4933 60.1784C23.3818 60.1338 23.3744 59.0413 23.3669 47.997C23.3669 38.9 23.3446 35.8008 23.2777 35.6225C22.9359 34.7009 21.6575 34.411 20.892 35.0873C20.3718 35.5407 20.4015 34.7009 20.4015 47.8335C20.4015 54.8495 20.3718 59.6879 20.3346 59.7102C20.2974 59.7399 19.7177 59.7696 19.0488 59.7845C17.7408 59.8142 17.2428 59.9034 16.2023 60.2973C14.5375 60.9216 13.4375 61.6648 12.397 62.8763C10.4275 65.1654 9.74373 67.8558 10.3383 70.9476L10.4572 71.5496L10.212 72.0253C9.95183 72.5455 9.49847 73.5786 9.40185 73.8759C9.36469 73.9799 9.26807 74.2475 9.17889 74.4705C8.68836 75.7191 8.17554 77.9562 7.9823 79.673C7.93771 80.1041 7.87082 80.5054 7.83366 80.5723C7.7742 80.6838 7.50664 80.6986 5.48509 80.7358C3.49327 80.7655 3.15139 80.7878 2.82437 80.9142C1.47914 81.4121 0.609579 82.3411 0.17108 83.731C-0.0593174 84.4668 -0.0518852 85.8863 0.178512 86.6221C0.691333 88.2646 1.94737 89.3348 3.62704 89.5578C3.94663 89.595 4.83106 89.6321 5.59657 89.6321C6.36209 89.6321 7.02355 89.6618 7.06814 89.6916C7.1499 89.7436 7.64042 90.4051 9.17889 92.5307C11.0741 95.1468 11.4011 95.563 12.122 96.2914C13.9726 98.1568 16.2097 99.4203 18.7664 100.022C20.5055 100.439 18.3799 100.409 49.9816 100.409C82.044 100.409 79.4799 100.446 81.4494 99.9554C83.902 99.3385 86.0128 98.1345 87.8411 96.2914C88.562 95.5704 88.889 95.1542 90.7842 92.5307C92.3227 90.4051 92.8132 89.7436 92.895 89.6916C92.9396 89.6618 93.6308 89.6321 94.426 89.6321C95.8753 89.6247 96.8192 89.5206 97.3246 89.32C98.4988 88.8517 99.2495 88.0565 99.7177 86.7856C99.9258 86.2282 99.9481 86.1018 99.9481 85.21C99.9481 84.4222 99.9184 84.1472 99.792 83.731C99.3461 82.3189 98.4914 81.4121 97.1388 80.9142C96.8192 80.7953 96.4476 80.7655 94.4632 80.7284L92.1592 80.6763L92.1443 80.3419C92.0923 79.4203 91.2525 75.6076 90.9032 74.6934C90.8437 74.5522 90.7471 74.2995 90.6876 74.136C89.4167 70.7841 87.7222 68.1754 85.1729 65.6633C82.8467 63.3594 80.1339 61.6128 77.1462 60.4831C75.8158 59.9777 74.0024 59.4872 72.8355 59.3088C72.5085 59.2568 72.1741 59.175 72.0923 59.123C72.0031 59.071 71.8247 58.7291 71.6538 58.298C70.3903 55.0576 68.3836 52.1442 65.6114 49.5578C65.1878 49.1565 65.1506 49.097 65.0392 48.5916C64.8013 47.5437 64.7047 47.2613 64.2514 46.2653C63.4487 44.5113 61.7244 42.7871 59.9407 41.9472C57.607 40.8547 54.5449 40.8101 52.3227 41.8358C52.1592 41.9101 51.9734 41.9918 51.9139 42.0216C51.8545 42.0439 51.7058 42.133 51.5795 42.2148C51.4606 42.2966 51.3045 42.3857 51.245 42.4155C51.1856 42.4378 50.8065 42.7053 50.3978 43.01L49.662 43.5526H48.9113C46.7709 43.5526 43.3223 44.3181 40.9886 45.3215C39.4948 45.9606 38.3874 46.5626 37.0421 47.4619C36.5293 47.8038 36.0685 48.0862 36.0239 48.0862C35.8901 48.0862 35.8976 21.7094 36.0314 21.6648C36.0759 21.65 37.6293 21.6054 39.465 21.5682C42.9433 21.4939 42.9433 21.4939 43.8872 21.1446C45.4108 20.5797 46.1466 20.1189 47.2019 19.0636C47.6107 18.6548 48.0715 18.1271 48.2276 17.8967L48.51 17.4656L69.9593 17.4433C93.6382 17.421 91.8322 17.4582 92.8355 16.9677C93.3781 16.7076 94.0916 16.0461 94.4186 15.4961C94.8942 14.7083 95.0354 14.136 95.0429 13.0063C95.0503 12.107 95.028 11.951 94.8571 11.4604C94.4409 10.2936 93.7943 9.5355 92.8281 9.06727C92.5011 8.91119 92.0328 8.74768 91.795 8.70309C91.4829 8.64363 84.8459 8.62134 70.093 8.62134C58.3948 8.62134 48.7553 8.59904 48.6661 8.57674C48.5769 8.55445 48.3836 8.34635 48.2276 8.11595C47.8634 7.56597 46.6445 6.33966 46.0797 5.96805C45.0392 5.26942 43.7831 4.74917 42.5865 4.51877C42.3859 4.47418 40.8102 4.42216 39.1008 4.39243C36.4401 4.35527 35.9793 4.33297 35.9273 4.23635C35.8976 4.17689 35.8307 3.9242 35.7787 3.67894C35.578 2.72019 34.9314 1.67225 34.1807 1.09997C33.6605 0.698632 32.9619 0.334455 32.5754 0.267566C32.397 0.237837 32.293 0.170947 32.293 0.11149C32.293 0.0223039 32.1295 7.31328e-06 31.3639 7.31328e-06C30.5315 7.31328e-06 30.4201 0.0148717 30.2863 0.148651C30.2045 0.230405 30.0782 0.297295 29.9964 0.297295C29.7958 0.297295 29.1194 0.609446 28.6586 0.921598C28.4431 1.07024 28.2201 1.18916 28.1681 1.18916C28.1161 1.18916 27.8931 1.07024 27.6776 0.921598C27.2168 0.609446 26.5405 0.297295 26.3398 0.297295C26.258 0.297295 26.1317 0.230405 26.0499 0.148651C25.9162 0.0148717 25.8047 7.31328e-06 24.9723 7.31328e-06C24.2068 7.31328e-06 24.0432 0.0223039 24.0432 0.11149ZM31.743 3.09179C32.2186 3.2553 32.4936 3.47084 32.724 3.86474L32.9247 4.19919L32.947 27.5511L32.9619 50.903L32.3896 51.5868C31.5498 52.5753 31.2971 52.9097 30.5241 54.0691C30.1376 54.6414 29.7958 55.1171 29.766 55.1319C29.7289 55.1468 29.6768 55.0799 29.6545 54.9833C29.6322 54.8867 29.6248 43.4411 29.6322 29.5429C29.6545 5.47009 29.662 4.25865 29.7883 4.00595C29.9816 3.62691 30.4201 3.22557 30.8065 3.09179C31.2376 2.95058 31.3194 2.95058 31.743 3.09179ZM38.3056 7.46192C38.3651 7.52881 38.3874 8.13825 38.3725 9.52063L38.3502 11.4827H37.161H35.9719L35.9496 9.5132C35.9422 8.4281 35.9496 7.50651 35.9719 7.45449C36.0239 7.31327 38.1867 7.32071 38.3056 7.46192ZM42.6609 7.55854C44.3628 8.00447 45.7081 9.25307 46.4884 11.1111C46.6296 11.4381 46.8526 12.6199 46.8526 13.0063C46.8526 13.3854 46.6222 14.5448 46.4736 14.9387C45.7229 16.8859 44.0581 18.2534 42.044 18.5805C41.2042 18.7217 41.2859 19.3311 41.2859 13.0063C41.2859 7.85582 41.2933 7.50651 41.4197 7.43962C41.5683 7.35043 42.0217 7.39503 42.6609 7.55854ZM91.1558 11.6016C91.3862 11.6537 91.6389 11.7726 91.7876 11.8989C92.0403 12.1219 92.2707 12.6496 92.2707 13.0138C92.2707 13.3259 92.0626 13.8387 91.847 14.0691C91.4085 14.5225 92.8504 14.4928 70.3309 14.4928C56.6705 14.4928 49.7586 14.4705 49.7512 14.4184C49.7214 13.9651 49.7512 11.6685 49.7883 11.6016C49.8626 11.4827 90.6059 11.4827 91.1558 11.6016ZM38.2982 14.5819C38.4022 14.686 38.4245 18.4021 38.3279 18.5656C38.2759 18.6325 37.986 18.6548 37.1165 18.6399L35.9719 18.6176L35.9496 16.6481C35.9422 15.563 35.9496 14.6414 35.9719 14.5894C36.0165 14.4556 38.1718 14.4556 38.2982 14.5819ZM57.1908 44.1397C59.4056 44.608 61.1447 46.0944 61.8805 48.1605C62.0737 48.7031 62.2447 49.699 62.2447 50.2787C62.2447 51.1037 61.9697 52.2408 61.5832 53.0361C61.3379 53.534 61.271 53.5563 60.8994 53.2293C60.6096 52.9692 58.9448 51.8023 58.8705 51.8023C58.8556 51.8023 58.6178 51.6685 58.3353 51.505C57.659 51.1111 56.0982 50.4274 55.4442 50.2416C55.3253 50.2044 54.9909 50.1078 54.701 50.026C53.5564 49.6916 52.3078 49.4909 50.6505 49.3646L49.9444 49.3125L49.9667 48.9409C49.989 48.5396 50.1599 48.0193 50.4944 47.3579C51.7133 44.9573 54.5746 43.5823 57.1908 44.1397ZM47.4546 46.8005C47.4546 46.8748 47.3803 47.1349 47.2985 47.3802C47.135 47.8781 46.86 49.1342 46.86 49.3943C46.86 49.6098 46.7188 49.6841 46.1243 49.7956C45.8716 49.8402 45.5891 49.9071 45.5 49.9368C45.4108 49.974 45.1358 50.0558 44.8905 50.1301C44.2439 50.3159 42.1926 51.1334 41.992 51.2821C41.9548 51.3118 41.717 51.4456 41.4717 51.5793C38.7144 53.0881 36.3286 55.511 34.6936 58.4541L34.322 59.123L33.9578 59.1156C33.445 59.1156 31.8545 59.0115 31.572 58.9669C31.3937 58.9446 31.3268 58.8926 31.3268 58.796C31.3268 58.6102 32.2335 56.8265 32.7017 56.0907C33.5564 54.738 34.3591 53.7347 35.5111 52.553C36.8638 51.1706 38.1198 50.197 39.8366 49.1936C41.0778 48.4727 41.9028 48.0862 43.144 47.6626C44.8236 47.0829 46.377 46.6964 47.0681 46.6815C47.3877 46.6741 47.4546 46.6964 47.4546 46.8005ZM51.4531 52.3969C52.7909 52.5455 53.8983 52.8057 55.3253 53.3259C55.853 53.5191 57.5624 54.4259 58.1198 54.8123C59.1677 55.5333 60.2528 56.5292 61.115 57.5548C61.6798 58.2312 62.5419 59.5095 62.5419 59.673C62.5419 59.7919 62.3041 59.9034 61.4271 60.1858C61.1596 60.2676 60.7582 60.4162 60.5353 60.498C59.8069 60.7878 59.8738 60.8101 59.2644 60.0074C57.4732 57.6291 55.1098 56.1278 52.1741 55.5035C51.5572 55.3772 51.1781 55.3475 49.9444 55.3549C48.339 55.3549 47.6404 55.4589 46.2283 55.9197C44.177 56.5886 42.1257 58.1048 40.7062 60C40.3792 60.4236 40.1116 60.7209 40.0299 60.7209C39.963 60.7209 39.688 60.6317 39.4204 60.5277C39.1603 60.4236 38.7292 60.275 38.4617 60.1932C38.1941 60.1041 37.8374 59.9777 37.659 59.896L37.3394 59.7547L37.5475 59.3831C38.0603 58.4615 38.9968 57.2873 39.9258 56.3954C41.1744 55.1914 42.0812 54.5597 43.7385 53.7273C45.9236 52.6347 48.8816 52.1219 51.4531 52.3969ZM65.3439 53.4894C65.9756 54.2103 66.8378 55.3846 67.3506 56.2319C67.9377 57.2204 68.6363 58.5953 68.6363 58.7811C68.6363 58.9595 68.51 58.9892 67.3357 59.0487C66.8898 59.071 66.3324 59.1081 66.102 59.1304C65.6337 59.1825 65.7304 59.2791 65.0986 58.1643C64.6527 57.3839 64.4074 57.0048 63.8649 56.2691C63.6642 56.0089 63.5081 55.7265 63.5081 55.6522C63.5081 55.5704 63.6048 55.3623 63.7237 55.1914C64.0507 54.7232 64.5338 53.7198 64.727 53.1178C64.7493 53.0509 64.8013 52.9915 64.8385 52.9915C64.8757 52.9915 65.1061 53.2144 65.3439 53.4894ZM51.6018 58.3872C53.3483 58.8109 54.3888 59.3163 55.6003 60.3419C56.2023 60.8473 57.0421 61.8432 57.0421 62.0364C57.0347 62.1182 56.834 62.2966 56.4996 62.4972C54.5301 63.7087 52.122 65.8417 50.6207 67.7295C50.3011 68.1308 49.9964 68.4504 49.9444 68.4355C49.8998 68.4207 49.5728 68.0639 49.2309 67.6329C47.8262 65.8789 45.8195 64.0728 43.8203 62.7648C43.2108 62.3709 42.921 62.133 42.921 62.0439C42.921 61.8432 43.7608 60.8473 44.3628 60.3419C45.5594 59.3311 46.5776 58.8332 48.3093 58.3947C48.9485 58.2312 50.9477 58.2312 51.6018 58.3872ZM32.6423 61.9918C34.0767 62.1108 35.2881 62.3263 36.8266 62.7276C36.9678 62.7648 37.2725 62.8688 37.4955 62.958C37.7185 63.0398 38.0083 63.1364 38.1272 63.1736C38.4691 63.2627 39.4799 63.7161 40.4535 64.2066C41.3974 64.6897 42.9804 65.7154 43.9169 66.4586C44.6676 67.0532 46.0797 68.4504 46.7634 69.2679C47.4026 70.0335 48.1978 71.1706 48.1978 71.3044C48.1978 71.3638 48.0715 71.6685 47.908 71.9881C47.6479 72.5232 47.2317 73.482 47.0087 74.0766C46.8377 74.5299 46.7486 74.5151 46.4884 73.9799C46.3547 73.7124 46.0128 73.155 45.7378 72.7388C44.0284 70.1598 41.7913 68.168 39.0191 66.7559C36.9009 65.6856 34.7456 65.0836 32.1964 64.8755C31.0146 64.7789 29.1492 64.8681 28.2424 65.0688C27.8188 65.1654 27.7891 65.1654 27.633 65.0167C27.5364 64.9275 27.4621 64.8161 27.4621 64.7715C27.4621 64.6526 26.4736 63.1661 26.2878 62.9952C26.1986 62.9134 26.1243 62.7796 26.1243 62.6905C26.1243 62.5121 26.1391 62.5121 27.5735 62.2371C28.2722 62.1033 30.1153 61.9324 31.0444 61.9175C31.4011 61.9175 32.122 61.9472 32.6423 61.9918ZM70.3978 61.9844C72.2409 62.133 74.3814 62.5715 75.6449 63.0621C75.7935 63.1215 76.0611 63.2256 76.2395 63.2925C79.6434 64.6154 82.6609 66.8748 84.9202 69.7882C85.8864 71.0294 86.5851 72.1591 86.4587 72.278C86.4438 72.2928 86.1763 72.2259 85.8716 72.1219C85.1952 71.8915 83.8129 71.6462 83.144 71.6462L82.646 71.6388L82.0143 70.8882C79.7846 68.2497 76.5516 66.243 73.1328 65.3809C69.9295 64.5708 66.9344 64.6451 63.6568 65.6039C60.5799 66.5106 57.7408 68.4355 55.3104 71.2672C54.5078 72.1962 53.3483 74.1286 52.7909 75.4738C52.2112 76.8636 51.5423 79.3831 51.5423 80.1932C51.5423 80.7358 51.6092 80.7135 50.0559 80.7135C48.9262 80.7135 48.6512 80.6912 48.6215 80.6094C48.5992 80.55 48.6066 80.2081 48.6438 79.8439C48.8296 78.0453 49.387 75.942 50.093 74.359C50.3011 73.8982 51.0444 72.4192 51.193 72.1665C53.601 68.1457 57.0198 65.1728 61.2413 63.4337C62.3859 62.9655 62.7501 62.8391 63.8054 62.5715C66.0202 62.0067 68.2201 61.8135 70.3978 61.9844ZM20.7731 62.8763C22.0366 63.2404 22.9284 63.7533 23.7534 64.5931C24.0953 64.9424 24.7121 65.8045 24.7121 65.9309C24.7121 65.9606 24.2439 66.2282 23.6716 66.5106C21.6724 67.5065 20.3123 68.4653 18.915 69.8625C17.7631 71.0145 16.7003 72.3597 16.128 73.4077C15.8307 73.9502 15.7638 74.0022 15.526 73.8759C15.4219 73.8164 15.0577 73.4746 14.7233 73.1178C12.9693 71.2598 12.568 68.4504 13.7348 66.1093C14.4855 64.5931 15.9942 63.3519 17.6516 62.8911C18.5583 62.6459 19.9184 62.6384 20.7731 62.8763ZM32.6646 67.8558C34.2922 67.997 35.9793 68.4876 37.607 69.2754C38.1347 69.5355 38.1347 69.5355 39.0934 70.1598C42.1109 72.1145 44.2588 75.1468 45.1804 78.744C45.3736 79.5169 45.5297 80.4608 45.4777 80.5872C45.4405 80.6986 45.277 80.7135 44.0284 80.7135H42.6311L42.5122 80.327C42.4528 80.1189 42.4007 79.8662 42.4007 79.7696C42.4007 79.6804 42.3561 79.4723 42.2967 79.3237C42.2447 79.1676 42.1406 78.8406 42.0589 78.5953C41.9845 78.3501 41.7616 77.8001 41.5609 77.369C40.6988 75.511 39.2569 73.8462 37.4286 72.6199C36.9158 72.2705 35.199 71.4233 35.0057 71.4233C34.9388 71.4233 34.8199 71.3861 34.7382 71.3415C34.5078 71.2226 33.9058 71.0665 32.999 70.903C31.3491 70.6057 28.9931 70.7841 27.5364 71.3118C25.8864 71.9138 24.7865 72.5381 23.6345 73.5191C21.6427 75.2211 20.2603 77.5846 19.8143 80.0743C19.7697 80.3122 19.6954 80.5574 19.6508 80.6094C19.5839 80.6912 19.2644 80.7135 18.209 80.7135C17.0347 80.7135 16.8415 80.6986 16.8043 80.5946C16.7151 80.3568 17.1165 78.4244 17.436 77.592C17.5178 77.369 17.6144 77.094 17.6516 76.99C17.6813 76.8859 17.7408 76.7373 17.7854 76.6555C17.8225 76.5812 18.0157 76.1947 18.209 75.8083C19.0637 74.0989 20.394 72.4415 21.9548 71.1186C23.7757 69.595 26.1614 68.4876 28.7627 67.9747C29.6694 67.7889 31.4011 67.7369 32.6646 67.8558ZM71.3119 67.9673C74.4409 68.6511 76.7003 69.7956 78.7664 71.728C79.3535 72.278 79.361 72.3672 78.8333 72.6199C78.3799 72.8354 77.5104 73.3928 77.1982 73.6604C77.0644 73.7793 76.9009 73.8759 76.8415 73.8759C76.7746 73.8759 76.5145 73.6975 76.2692 73.482C75.2138 72.5604 74.0544 71.9064 72.4268 71.3118C70.97 70.7841 68.6066 70.6057 66.9641 70.903C66.0574 71.0665 65.4554 71.2226 65.225 71.3415C65.1432 71.3861 65.0243 71.4233 64.9574 71.4233C64.7344 71.4233 63.0176 72.2854 62.3413 72.7388C61.4197 73.3482 59.8961 74.8867 59.2569 75.8454C58.6103 76.819 57.9563 78.1866 57.7854 78.9298C57.7556 79.071 57.6887 79.2865 57.6441 79.398C57.5995 79.5169 57.5624 79.6804 57.5624 79.777C57.5624 79.8662 57.5104 80.1189 57.4509 80.327L57.332 80.7135H55.9347C54.7382 80.7135 54.5226 80.6986 54.4855 80.602C54.4111 80.3939 54.7159 78.9521 55.0875 77.7778C56.403 73.6083 59.7772 70.1078 63.9169 68.6288C64.3257 68.4801 64.779 68.3389 64.9202 68.3092C65.0615 68.272 65.3142 68.2126 65.4777 68.168C66.0202 68.0268 66.9567 67.8558 67.3729 67.8261C68.3316 67.7592 70.7619 67.8484 71.3119 67.9673ZM32.1592 73.7644C34.3665 73.9502 36.7894 75.3846 38.1495 77.3244C38.8927 78.3798 39.5542 79.9331 39.4873 80.4757L39.465 80.6763L31.1261 80.6986L22.7798 80.7135V80.4385C22.7798 79.7547 23.5304 78.0676 24.2291 77.1461C25.6114 75.34 27.685 74.084 29.766 73.809C30.8511 73.6604 30.9329 73.6604 32.1592 73.7644ZM69.7958 73.7644C71.0072 73.8536 72.5159 74.411 73.6754 75.1988C74.2402 75.5853 74.9686 76.2319 74.9314 76.3136C74.5226 77.1981 74.4855 77.2873 74.1807 78.0899C74.0321 78.4764 73.8537 79.3831 73.8017 80.0074C73.7794 80.2899 73.72 80.5649 73.6754 80.6169C73.6159 80.6986 72.345 80.7135 67.0459 80.6986L60.4981 80.6763L60.4758 80.4757C60.4535 80.2973 60.6542 79.5169 60.8177 79.1156C61.7616 76.8562 63.4041 75.2508 65.8121 74.2252C66.5405 73.9205 68.2647 73.6381 69.0079 73.6975C69.1492 73.7124 69.5059 73.7421 69.7958 73.7644ZM84.1324 74.6934C84.2959 74.738 84.6155 74.8272 84.8385 74.8941C86.6074 75.3846 88.3316 77.1089 88.8742 78.9298C89.0451 79.5021 89.1417 80.4757 89.0377 80.6094C88.9782 80.6986 88.0715 80.7135 82.869 80.6986L76.7746 80.6763L76.7894 80.1189C76.8192 78.8926 77.4881 77.5102 78.5955 76.4028C79.5468 75.4515 80.3718 75.013 81.8285 74.686C82.4751 74.5374 83.5899 74.5448 84.1324 74.6934ZM12.8801 75.4738C13.1923 75.786 13.6828 76.1873 13.9578 76.3805C14.2402 76.5663 14.4855 76.767 14.5078 76.8339C14.5375 76.8934 14.5003 77.1163 14.4334 77.3244C14.1362 78.298 13.8612 79.6135 13.8612 80.0743C13.8612 80.275 13.8091 80.4608 13.7348 80.5574C13.6085 80.7135 13.5564 80.7209 12.2632 80.6986L10.9254 80.6763L10.9403 80.0446C10.9626 78.9669 11.3194 77.3244 11.8693 75.7339C11.9882 75.3846 12.0997 75.0576 12.1146 75.0056C12.1741 74.8346 12.3153 74.9164 12.8801 75.4738ZM96.3435 83.7904C96.7894 84.0283 97.1759 84.6526 97.1759 85.1579C97.1759 85.76 96.7077 86.4288 96.1726 86.5775C95.9645 86.6369 93.3929 86.6592 87.5215 86.6592C81.3677 86.6592 79.0934 86.6815 78.8779 86.7484C77.8597 87.0532 77.6441 88.6511 78.536 89.3274C78.9225 89.6173 79.1529 89.6321 84.1919 89.6321C87.4695 89.6321 89.0823 89.6544 89.112 89.7064C89.1417 89.751 88.8965 90.1449 88.5769 90.5834C88.2499 91.0219 87.6256 91.8766 87.1796 92.4861C85.2844 95.0873 83.4264 96.4028 80.565 97.1609C79.3461 97.4805 80.2528 97.4731 49.9816 97.4731C26.5925 97.4731 21.0555 97.4582 20.513 97.3765C17.5029 96.938 14.9463 95.4069 13.1477 92.9766C11.4085 90.628 10.8065 89.7733 10.8511 89.7064C10.8809 89.6544 20.9217 89.6321 41.2339 89.6321C62.9433 89.6321 71.6538 89.6098 71.8693 89.5504C72.5531 89.3646 72.947 88.822 72.947 88.0937C72.947 87.5214 72.6423 87.016 72.1815 86.8079C71.8768 86.6667 71.1707 86.6592 37.9786 86.6592C14.5672 86.6592 3.99865 86.6369 3.80542 86.5775C3.248 86.4288 2.78721 85.7897 2.78721 85.1802C2.79464 84.6451 3.09193 84.1174 3.53786 83.8424L3.79055 83.6864H49.9667C89.5728 83.6864 96.1726 83.7012 96.3435 83.7904Z" fill="black"/>
</g>
<defs>
<clipPath id="clip0_133_59">
<rect width="100" height="100.446" fill="white"/>
</clipPath>
</defs>
</svg>
