<svg width="150" height="152" viewBox="0 0 150 152" fill="none" xmlns="http://www.w3.org/2000/svg">
<g clip-path="url(#clip0_82_38)">
<path d="M18.9029 1.14431C18.9029 1.23326 18.7361 1.35558 18.5471 1.42229C18.0467 1.6002 17.3795 2.27848 17.1127 2.86781C16.8236 3.52385 16.8347 4.58019 17.1238 5.24735C17.2461 5.52533 17.5797 5.95898 17.8688 6.20361C18.6805 6.92637 19.0474 6.99308 22.4611 6.99308C25.3966 6.99308 25.4299 6.99308 25.6523 7.23771C25.8747 7.48233 26.0526 7.78256 26.6753 8.97232C26.8421 9.30591 27.1868 10.4401 27.3425 11.1962C27.4981 11.9745 27.487 13.5535 27.3202 14.3874L27.1757 15.0546L22.6279 15.1102C17.702 15.1769 17.6798 15.1769 16.868 15.8107C15.0778 17.2118 15.4781 19.8804 17.6242 20.8478C18.0022 21.0146 18.4692 21.059 20.6041 21.0924C22.0497 21.1146 23.1282 21.1814 23.1282 21.237C23.1282 21.2926 22.9281 21.6261 22.6946 21.982C21.9941 23.0161 21.2379 24.6395 20.8599 25.9071C20.6264 26.741 20.3484 28.1977 20.3484 28.6424C20.3484 29.0316 20.1149 29.2318 19.6479 29.2318C19.1475 29.2318 18.358 29.5876 17.8577 30.0212C17.2016 30.5994 16.9014 31.2777 16.9014 32.1784C16.9014 33.9019 18.2135 35.125 20.0704 35.125C20.5819 35.125 20.9155 35.1806 20.9933 35.2584C21.0489 35.3363 21.2824 35.8255 21.5048 36.3481C22.083 37.7047 23.2617 39.5172 24.2958 40.6402C26.1749 42.6973 26.8977 43.976 27.298 46.022C27.5093 47.0894 27.5093 48.4015 27.298 49.469C26.9088 51.4371 26.1416 52.8604 24.5515 54.6061C23.1727 56.1072 22.6612 56.83 21.8384 58.4645C19.4255 63.2792 19.7591 69.0501 22.7057 73.5757C23.017 74.0427 23.4618 74.6654 23.7064 74.9545C23.9622 75.2436 24.129 75.5438 24.0956 75.6328C24.0623 75.7217 23.7176 76.0331 23.3284 76.3333C21.4937 77.7232 18.825 80.3251 17.0793 82.4378C14.0882 86.0405 11.7531 90.1102 10.0408 94.6691C9.95181 94.9137 9.80726 95.2806 9.7183 95.4808C9.62935 95.6809 9.56263 95.9367 9.56263 96.059C9.56263 96.1813 9.49592 96.4371 9.40696 96.6372C9.18458 97.1709 8.7398 98.7721 8.49518 99.9508C8.26167 101.04 7.92809 103.198 7.78354 104.51C7.7057 105.144 7.60563 105.755 7.55003 105.866C7.44996 106.044 7.22757 106.066 4.95923 106.066C2.0126 106.066 1.57895 106.155 0.822831 106.9C0.066716 107.668 0 107.912 0 110.203C0 112.238 0.100074 113.505 0.400296 115.462C0.756115 117.731 1.42328 120.555 1.90141 121.856C2.02372 122.189 2.16827 122.612 2.22387 122.801C2.45737 123.657 3.3914 125.892 4.20311 127.527C8.71756 136.7 16.4455 144.006 25.7413 147.875C30.0778 149.676 33.447 150.522 38.3617 151.044C39.785 151.189 44.1994 151.211 74.9888 151.211C112.339 151.211 110.649 151.233 114.196 150.699C120.389 149.765 126.282 147.453 131.486 143.883C137.379 139.858 142.072 134.554 145.363 128.194C146.13 126.704 147.398 123.746 147.665 122.801C147.72 122.612 147.865 122.189 147.987 121.856C149.01 119.076 150.011 113.127 150 109.78C150 108.19 149.822 107.668 149.055 106.889C148.31 106.155 147.876 106.066 144.874 106.066H142.35L142.239 105.755C142.172 105.588 142.083 105.177 142.05 104.843C141.694 101.785 140.426 97.9938 138.736 95.0027C134.922 88.2532 128.829 83.4608 121.368 81.337C121.067 81.248 120.534 81.1035 120.189 81.0034C119.844 80.9033 119.433 80.8255 119.266 80.8255C118.688 80.8255 118.21 80.503 117.009 79.3244C114.463 76.8003 111.905 74.8544 108.391 72.7862C108.213 72.675 107.524 72.3192 106.879 71.9856C103.365 70.2177 101.13 69.4059 96.7383 68.3162C92.2794 67.2154 85.3521 67.0931 80.2816 68.0383C76.7346 68.7054 72.4203 70.1398 69.5626 71.5965C69.0845 71.8411 68.6286 72.0412 68.5396 72.0412C68.4507 72.0412 67.8725 71.7966 67.2387 71.4964C65.0926 70.4623 63.4914 69.8507 60.7116 68.9945C59.7776 68.7054 58.1097 68.3051 56.8198 68.0494C56.275 67.9382 52.8502 67.4823 52.5945 67.4823C52.1942 67.4823 51.9829 65.6365 52.2053 64.0575C52.4055 62.6009 52.55 62.1117 53.1282 60.9997C53.6397 60.0435 53.9844 59.5542 54.9629 58.4756C55.8858 57.4638 56.831 56.2073 57.2646 55.4178C57.8095 54.406 57.8651 54.2948 58.4099 53.016C58.4989 52.7936 58.7212 52.0709 58.8992 51.4037C59.1883 50.2473 59.2105 50.0805 59.2105 47.7455C59.1994 45.4326 59.1883 45.2325 58.888 44.0872C58.5545 42.7974 58.4989 42.6194 57.7539 41.0739C57.0978 39.6839 56.3528 38.6054 55.1297 37.2377C54.0178 35.9923 53.5952 35.4475 53.5952 35.2473C53.5952 35.1584 54.6738 35.125 57.2424 35.125C60.3113 35.1139 61.0341 35.0917 61.8791 34.9137C65.2705 34.2243 67.9614 32.1895 69.5515 29.1206L70.063 28.1198H77.2794C84.2624 28.1198 84.5181 28.1087 85.0741 27.8974C85.8524 27.5861 86.1082 27.3748 86.5863 26.6743C86.9755 26.0961 86.9977 26.0183 86.9977 25.1732C86.9977 24.4838 86.9421 24.1836 86.7531 23.8278C86.464 23.2607 85.8524 22.7158 85.2075 22.4378C84.7405 22.2377 84.3513 22.2266 77.9355 22.2266C73.4655 22.2266 71.0748 22.1821 70.9303 22.1154C70.7301 22.0042 70.719 21.8374 70.719 18.1124C70.719 14.3763 70.7301 14.2207 70.9414 14.1095C71.086 14.0316 81.9162 14.0094 106.045 14.0205L140.938 14.0539L141.583 14.3207C142.494 14.6988 143.239 15.4104 143.684 16.3111C144.018 16.9894 144.051 17.1339 144.051 18.1124C144.051 19.0131 144.007 19.2577 143.762 19.7803C143.362 20.6254 142.583 21.3926 141.683 21.8152L140.938 22.171L125.315 22.2266C113.995 22.2711 109.614 22.3155 109.414 22.4045C108.836 22.6714 108.024 23.5164 107.824 24.0724C107.402 25.2622 107.669 26.3963 108.558 27.2525C109.526 28.1865 108.291 28.1198 125.46 28.1198C140.159 28.1198 140.682 28.1087 141.738 27.8974C142.995 27.6417 143.573 27.4527 144.496 26.9857C146.319 26.0628 147.987 24.4282 148.877 22.6936C150.6 19.3133 150.289 15.2659 148.065 12.2414C146.553 10.1955 144.374 8.82777 141.827 8.31628C140.871 8.12726 139.103 8.11614 105.445 8.10502H70.0519L69.6516 7.2933C68.5174 5.03608 66.8606 3.33482 64.7702 2.27848C63.9029 1.84483 62.891 1.50013 62.1905 1.37782C61.8903 1.33334 61.7123 1.24438 61.7123 1.14431C61.7123 1.01088 58.6656 0.988638 40.3076 0.988638C22.0163 0.988638 18.9029 1.01088 18.9029 1.14431ZM38.8287 7.51569C39.6849 8.74994 40.1631 10.062 40.3743 11.7188C40.5189 12.8752 40.3966 14.2651 40.063 15.4438C39.8628 16.1332 39.1401 17.701 38.8399 18.0902C38.3728 18.7017 37.739 19.4245 37.1942 20.0027C36.4603 20.7811 35.3817 22.3711 34.8591 23.4497C34.6479 23.9056 34.4144 24.3726 34.3588 24.4727C34.292 24.5839 34.2476 24.7284 34.2476 24.7951C34.2476 24.8619 34.1809 25.0731 34.0919 25.2622C33.914 25.6958 33.6582 26.6521 33.4247 27.8196C33.1468 29.165 33.1912 31.5557 33.5248 33.0679C33.9362 35.0249 34.1253 35.5698 34.9147 37.1821C35.5263 38.4386 36.2379 39.4504 37.3943 40.7292C37.8391 41.2184 38.384 41.8633 38.6175 42.1747C39.974 43.9649 40.6412 46.5223 40.3743 48.8018C40.0963 51.0701 39.3625 52.6046 37.6946 54.4282C36.7717 55.44 35.782 56.7077 35.3929 57.3971C35.0259 58.042 34.2476 59.6876 34.2476 59.8099C34.2476 59.8655 34.1809 60.0768 34.0919 60.277C33.8584 60.8552 33.6026 61.7781 33.4025 62.8566C33.08 64.6135 33.2802 67.6491 33.8473 69.5394C34.5923 72.019 35.6264 73.7981 37.5611 75.9108C39.2513 77.7566 40.0852 79.4689 40.3632 81.6817C40.5856 83.4052 40.2298 85.4178 39.4514 86.9967C39.0289 87.8307 38.4618 88.5979 37.3499 89.7988C35.315 92.0338 34.0585 94.569 33.4136 97.7603C33.0022 99.8507 33.3247 103.42 34.103 105.31C34.4255 106.089 34.4922 106.066 31.1342 106.066H28.1319L27.7428 105.533C27.3647 105.01 26.7865 103.754 26.3973 102.619C26.0971 101.73 26.0971 98.7276 26.3973 97.8381C27.0534 95.9144 27.5537 95.0471 28.9548 93.4682C29.8777 92.423 30.8117 91.2443 30.9451 90.9441C30.9896 90.8551 31.123 90.6216 31.2453 90.4437C31.9681 89.3096 32.6575 87.4749 33.0244 85.6735C33.3358 84.1613 33.3358 81.4482 33.0244 79.8804C32.6575 77.9678 32.0571 76.3889 31.1008 74.8211C30.4448 73.7536 29.9555 73.1309 28.3543 71.3741C27.6427 70.5957 26.831 69.0501 26.3973 67.6491C26.1082 66.7262 26.0971 63.546 26.3862 62.8789C26.4863 62.6454 26.5752 62.3785 26.5752 62.2896C26.5752 61.9226 27.8206 59.6876 28.2987 59.2206C28.3877 59.1317 28.8325 58.6313 29.2772 58.1087C32.0904 54.8841 33.2468 51.8707 33.2468 47.7566C33.2468 45.7773 33.0578 44.4986 32.5241 42.8418C32.2239 41.9412 31.3565 40.0954 31.0786 39.7951C30.9896 39.6951 30.9118 39.5728 30.9118 39.5283C30.9118 39.3948 29.8221 38.0049 29.0437 37.1376C28.6323 36.6928 28.1097 36.0702 27.8762 35.7477C27.4314 35.1584 26.5752 33.4794 26.5752 33.2014C26.5752 33.1124 26.4863 32.8455 26.3862 32.612C26.2416 32.2673 26.1972 31.8226 26.1972 30.3437C26.1972 28.3422 26.2861 27.8863 26.9978 26.3074C27.4537 25.3178 27.8873 24.7062 29.066 23.383C31.2231 20.9923 32.4129 18.6906 33.0244 15.7329C33.1912 14.8878 33.2468 14.2095 33.2468 12.7751C33.2468 10.7737 33.0689 9.55053 32.5463 7.99382C32.3684 7.47121 32.3239 7.18211 32.4018 7.10428C32.4685 7.03756 33.6138 6.99308 35.4929 6.99308H38.4618L38.8287 7.51569ZM51.805 7.47121C53.0837 9.33926 53.6619 11.6966 53.384 13.8537C53.0393 16.4445 52.3721 17.6454 49.6145 20.6588C49.47 20.8144 49.1253 21.2926 48.8361 21.7151C45.4114 26.8745 45.3892 33.6461 48.7917 38.7277C49.1364 39.2392 49.9036 40.2066 50.4818 40.8515C51.7605 42.2859 52.0719 42.7306 52.5278 43.7425C53.4173 45.6884 53.6508 47.3118 53.3172 49.2466C53.1282 50.4141 53.017 50.7366 52.4722 51.8707C51.9829 52.8826 51.5381 53.5164 50.4596 54.7173C47.5797 57.9085 46.2565 61.2443 46.2565 65.2584C46.2565 68.1383 47.0237 70.8848 48.5137 73.3199C48.8361 73.8314 49.9703 75.277 50.6931 76.0775C52.3387 77.9122 53.0837 79.4689 53.384 81.7039C53.7287 84.2725 52.8613 86.9523 51.0044 89.0649C49.4366 90.844 49.1475 91.1998 48.547 92.1672C47.0126 94.6357 46.2565 97.3155 46.2565 100.24C46.2565 102.019 46.6234 104.165 47.1126 105.31C47.4462 106.078 47.5018 106.066 44.1549 106.066H41.1527L40.719 105.477C40.2409 104.832 39.8184 103.92 39.4514 102.775C39.2402 102.119 39.2068 101.752 39.2068 100.284C39.2068 98.3718 39.318 97.7714 39.9852 96.3036C40.441 95.3029 40.8969 94.658 42.1757 93.2347C43.8213 91.3889 44.8554 89.5987 45.5671 87.3859C46.123 85.6513 46.2565 84.784 46.2565 82.7714C46.2565 80.1806 45.934 78.6572 44.8888 76.3222C44.2216 74.8544 43.3432 73.5868 41.8198 71.8967C40.53 70.4512 39.9296 69.4171 39.4403 67.7603C39.1067 66.6372 39.1067 63.8796 39.4403 62.7566C39.8517 61.3778 40.5522 60.0323 41.2861 59.2317C44.1994 56.0627 45.3447 53.9945 46.0341 50.7143C46.3565 49.2243 46.3565 46.3 46.0452 44.8433C45.4225 41.8856 44.2327 39.5728 42.0978 37.2043C40.8747 35.8478 40.4633 35.2584 39.9852 34.2021C39.3402 32.7788 39.1957 32.045 39.1957 30.1769C39.2068 28.6647 39.229 28.4201 39.5181 27.575C40.1075 25.7625 40.5078 25.1065 42.0978 23.3274C42.6983 22.6602 43.4433 21.7484 43.7324 21.3037C44.7665 19.7581 45.6449 17.5898 46.0786 15.555C46.3232 14.4208 46.3232 11.2184 46.0786 10.0287C45.8895 9.09464 45.5337 7.86039 45.3669 7.53793C45.3002 7.43786 45.2891 7.25995 45.3224 7.17099C45.378 7.01532 45.7672 6.99308 48.4359 6.99308H51.4714L51.805 7.47121ZM61.0341 7.1154C62.7687 7.51569 64.2476 8.98344 64.6701 10.7514C64.8814 11.6743 64.8814 24.5505 64.6701 25.4734C64.2476 27.2414 62.891 28.598 61.0785 29.065C60.2224 29.2874 52.4722 29.3096 52.2831 29.0872C52.0719 28.8426 52.4166 27.486 52.9948 26.2629C53.4173 25.3734 53.9288 24.6284 54.785 23.6832C55.8858 22.4601 56.3973 21.8152 56.8866 21.059C57.398 20.2585 58.2653 18.5238 58.2653 18.3126C58.2653 18.2236 58.3098 18.1124 58.3654 18.0568C58.4766 17.9234 58.8547 16.6558 59.0548 15.6662C59.2661 14.6877 59.2661 10.8626 59.0548 9.88411C58.8658 8.99456 58.5322 7.84927 58.3765 7.53793C58.1208 7.07092 58.2876 6.99308 59.4551 6.99308C60.0556 6.99308 60.7672 7.04868 61.0341 7.1154ZM91.0674 73.3755C94.3143 73.698 98.4618 74.6654 100.852 75.6772C101.064 75.7662 101.397 75.8996 101.575 75.9775C102.732 76.4667 105.245 77.7232 106.156 78.2792C107.235 78.9352 109.081 80.1806 109.159 80.3029C109.27 80.4808 108.869 80.7032 108.314 80.7699C107.035 80.9256 103.966 81.8707 102.242 82.638C100.919 83.2273 100.597 83.2495 99.8406 82.8826C97.461 81.7151 93.8806 80.7477 90.5559 80.3807C87.9206 80.0916 83.3839 80.3918 81.5048 81.0034C81.2268 81.0924 80.8043 81.1591 80.5707 81.1591C80.1593 81.1591 80.0593 81.0701 78.6805 79.6802C77.4129 78.4015 75.5782 76.7558 74.8109 76.211C74.3884 75.9219 74.6886 75.6995 76.1786 75.188C78.5804 74.3763 81.5715 73.6869 83.7286 73.4645C86.7753 73.1532 88.51 73.1309 91.0674 73.3755ZM58.0318 74.3318C60.4336 75.0434 61.7235 75.4771 62.9577 75.9997C64.4255 76.6224 66.5381 77.6787 67.3943 78.2236C70.2965 80.036 72.209 81.5371 74.3995 83.7165C77.1015 86.4074 79.2809 89.3763 80.9488 92.6676C81.6271 93.9908 82.083 94.9804 82.2942 95.5586C82.3387 95.6809 82.4833 96.059 82.6167 96.3926C83.5952 98.9056 84.5737 103.086 84.6404 105.066L84.6738 106.011L81.2824 106.044C77.4796 106.078 77.613 106.1 77.613 105.266C77.613 104.688 77.1793 102.586 76.7457 101.063C75.3891 96.2814 72.9206 92.145 69.3069 88.5868C66.616 85.9404 63.825 84.039 60.5559 82.638C59.4218 82.1598 59.2661 82.0153 59.2661 81.4927C59.2661 80.6921 58.8213 78.6461 58.4099 77.5453C58.0207 76.5112 57.1868 74.8322 56.9199 74.5431C56.7309 74.3429 56.8198 74.1539 57.1201 74.1539C57.2757 74.1539 57.6871 74.2317 58.0318 74.3318ZM27.298 81.1257C27.4648 81.5371 27.487 83.1717 27.3536 84.0724C27.02 86.2184 26.2194 87.7862 24.4848 89.6654C23.2617 90.9886 22.4611 92.1561 21.7383 93.6683C20.6709 95.8811 20.3039 97.5935 20.3039 100.284C20.3039 102.252 20.4596 103.364 20.9711 104.921C21.1156 105.366 21.2379 105.811 21.2379 105.9C21.2379 106.044 20.7376 106.066 17.4351 106.044L13.6212 106.011L13.6323 105.221C13.6434 103.353 14.4107 99.9508 15.5782 96.6706C15.9451 95.6253 16.0007 95.4697 16.5567 94.2465C16.7457 93.824 16.9014 93.4682 16.9014 93.446C16.9014 93.4348 17.2683 92.7454 17.7131 91.9337C19.8814 87.9752 22.5834 84.6506 25.9525 81.7818C26.4974 81.3148 27.0089 80.9367 27.0867 80.9367C27.1534 80.9367 27.2535 81.0257 27.298 81.1257ZM90.9673 86.3741C93.2579 86.7299 94.6256 87.0857 94.6256 87.3192C94.6256 87.397 94.3365 87.7417 93.9918 88.0642C92.0793 89.8766 90.3891 91.9671 88.9103 94.3577C88.7546 94.6246 88.5544 94.8359 88.4655 94.8359C88.3765 94.8359 88.1986 94.5357 88.0652 94.1354C87.3869 92.3007 85.6634 88.8425 84.5959 87.1858C84.3068 86.741 84.2513 86.6076 84.3291 86.5297C84.7183 86.1405 88.8324 86.0516 90.9673 86.3741ZM116.675 86.3407C118.265 86.5853 120.089 87.019 121.145 87.4082C121.634 87.5861 122.19 87.7862 122.391 87.8418C122.591 87.8974 122.78 87.9975 122.813 88.0531C122.858 88.1198 122.947 88.1643 123.024 88.1643C123.247 88.1643 125.371 89.3429 126.449 90.0657C129.04 91.8114 131.564 94.4801 133.243 97.2377C134.066 98.5942 135.056 100.774 135.311 101.797C135.367 101.997 135.445 102.208 135.489 102.286C135.589 102.453 135.678 102.808 136.034 104.454C136.223 105.299 136.268 105.733 136.201 105.866C136.101 106.055 135.867 106.066 132.676 106.044L129.262 106.011L129.129 105.566C129.051 105.321 128.918 104.843 128.818 104.51C128.206 102.375 126.66 99.7061 125.081 98.0938C122.491 95.4363 119.844 94.0575 115.975 93.3459C112.161 92.6454 107.291 93.9018 104.044 96.4259C101.386 98.4941 99.2957 101.541 98.4506 104.565C98.3506 104.932 98.206 105.41 98.1393 105.622L98.0059 106.011H94.57H91.123L91.0896 105.688C91.0563 105.377 91.3454 103.687 91.5122 103.231C91.5567 103.109 91.679 102.708 91.7902 102.341C91.9681 101.708 92.0681 101.419 92.424 100.518C92.7131 99.7617 93.636 97.9159 94.1475 97.082C94.848 95.9256 95.7264 94.7692 97.1274 93.1791C97.7835 92.4452 99.9295 90.6661 101.075 89.9211C102.12 89.2317 104.166 88.1643 105.356 87.675C106.634 87.1635 108.569 86.6632 110.526 86.3407C111.872 86.1183 115.263 86.1183 116.675 86.3407ZM59.6997 88.7314C61.2231 89.5431 62.7576 90.5883 64.1364 91.7781C65.1705 92.6676 65.6375 93.1569 67.1386 94.9248C67.9948 95.9478 69.4514 98.4163 70.1742 100.084C70.908 101.797 71.5863 104.276 71.6419 105.399L71.6642 106.011H68.2283C65.2928 106.011 64.7813 105.989 64.7146 105.844C64.659 105.755 64.4699 105.121 64.2698 104.454C63.9696 103.409 63.1579 101.541 62.6797 100.785C61.6901 99.2169 60.1 97.46 58.699 96.4037C57.5092 95.5142 55.3298 94.2799 54.9407 94.2799C54.7516 94.2799 54.5737 93.9574 54.6738 93.7907C54.7183 93.7017 55.0185 93.3681 55.3187 93.0345C56.3528 91.9448 57.1757 90.6995 57.9651 89.0205C58.1875 88.5534 58.4321 88.1643 58.4989 88.1643C58.5767 88.1643 59.1104 88.42 59.6997 88.7314ZM115.308 99.1835C118.321 99.6617 121.067 101.685 122.491 104.465C122.758 104.988 122.98 105.577 122.98 105.744V106.066H113.64H104.299V105.744C104.299 105.255 105.278 103.498 106.056 102.575C107.502 100.851 109.77 99.5394 111.861 99.1835C112.717 99.0501 114.451 99.039 115.308 99.1835ZM53.4952 100.04C55.5745 101.096 57.2424 102.831 58.2431 104.977C58.4433 105.388 58.5656 105.8 58.5322 105.9C58.4766 106.044 58.143 106.066 56.3306 106.066C54.2513 106.066 54.1846 106.055 53.9733 105.811C53.0281 104.721 52.361 103.02 52.1608 101.196C52.0385 100.073 52.1275 99.6172 52.4499 99.6172C52.5611 99.6172 53.0281 99.8062 53.4952 100.04ZM143.717 111.96C143.995 112.071 144.007 112.093 143.94 112.76C143.873 113.405 143.562 115.351 143.328 116.663C143.273 116.952 143.184 117.353 143.117 117.553C143.061 117.742 142.928 118.231 142.828 118.631C142.717 119.032 142.572 119.532 142.494 119.743C142.417 119.954 142.272 120.41 142.161 120.744C140.793 124.969 138.002 129.728 134.833 133.22C132.087 136.255 129.34 138.479 125.838 140.503C123.558 141.815 122.413 142.327 118.699 143.661C118.521 143.728 118.187 143.828 117.976 143.872C117.765 143.928 117.231 144.072 116.809 144.195C115.096 144.684 112.828 145.051 110.56 145.218C109.448 145.295 97.5055 145.318 73.7768 145.295L38.6397 145.251L37.0941 145.006C35.215 144.706 34.1141 144.484 33.08 144.195C32.6575 144.072 32.1238 143.928 31.9125 143.883C31.7012 143.828 31.401 143.739 31.2453 143.683C31.0897 143.616 30.7672 143.505 30.5226 143.427C30.0778 143.283 28.4099 142.649 27.6872 142.349C26.5419 141.86 23.9288 140.503 23.3506 140.092C23.1727 139.969 23.017 139.869 22.9837 139.869C22.9058 139.869 21.7606 139.091 20.3929 138.101C17.8465 136.278 14.6442 133.031 12.7872 130.418C10.1964 126.771 9.05114 124.513 7.43884 119.91C7.0163 118.698 6.40474 116.063 6.17123 114.462C5.84877 112.227 5.84877 112.104 6.07116 111.971C6.34914 111.815 143.295 111.793 143.717 111.96Z" fill="black"/>
<path d="M96.1045 22.5157C93.8695 23.5943 93.9028 26.7299 96.1601 27.7862C96.905 28.1421 97.3943 28.1754 98.1504 27.9419C99.0511 27.6639 99.8739 26.8522 100.119 26.0183C100.341 25.251 100.341 24.9508 100.107 24.2281C99.5848 22.5935 97.65 21.7707 96.1045 22.5157Z" fill="black"/>
</g>
<defs>
<clipPath id="clip0_82_38">
<rect width="150" height="152" fill="white"/>
</clipPath>
</defs>
</svg>
