<svg width="100" height="84" viewBox="0 0 100 84" fill="none" xmlns="http://www.w3.org/2000/svg">
<g clip-path="url(#clip0_131_20)">
<path d="M23.5687 0.0926555C21.7528 0.255709 21.1303 0.322413 20.8264 0.389117C20.4929 0.45582 19.811 0.559582 18.8994 0.678166C18.4102 0.74487 17.9581 0.84122 17.3133 1.02651C17.1206 1.0858 16.8835 1.13027 16.8019 1.13027C16.5648 1.13027 13.9781 1.90848 13.4371 2.13824C13.3111 2.19753 13.1555 2.242 13.0962 2.242C13.0295 2.242 12.8886 2.28647 12.7701 2.34576C12.6589 2.40505 12.2957 2.56069 11.9696 2.6941C11.4286 2.90904 10.9246 3.13138 10.3317 3.3982C10.2057 3.45749 9.97591 3.63536 9.82768 3.79101C8.96795 4.66557 9.62016 6.17011 10.8579 6.17011C11.1173 6.17011 11.8436 5.96258 11.8955 5.86623C11.9251 5.82918 11.9918 5.79953 12.0437 5.79953C12.103 5.79953 12.4365 5.66612 12.7923 5.50307C13.4519 5.19179 13.8744 5.02132 14.2672 4.91015C14.5636 4.82862 14.949 4.69521 15.2529 4.56922C15.3863 4.50992 15.5642 4.46546 15.6457 4.46546C15.7273 4.46546 15.8829 4.42099 15.9941 4.36911C16.1052 4.30981 16.4314 4.21346 16.713 4.13935C17.002 4.07264 17.3652 3.97629 17.5283 3.93183C18.1805 3.75395 18.7363 3.64278 19.2255 3.57607C19.5071 3.53901 19.7888 3.48713 19.8555 3.45749C19.9741 3.41302 20.2705 3.36855 21.6787 3.2055C22.0493 3.16844 22.6274 3.09432 22.9757 3.04985C23.3241 3.00539 24.7916 2.9535 26.2368 2.93127L28.8679 2.89421L29.1273 3.07209C29.572 3.37596 29.5868 3.45008 29.5349 5.05838C29.4905 6.54809 29.3645 8.28239 29.1644 10.0093C28.8975 12.3884 28.8086 13.0554 28.7123 13.4556C28.653 13.6928 28.6085 13.9967 28.6085 14.1227C28.6085 14.2561 28.5566 14.5451 28.4973 14.7675C28.438 14.9898 28.3861 15.3011 28.3861 15.4642C28.3861 15.6198 28.3343 15.9014 28.275 16.0941C28.2157 16.2794 28.1193 16.65 28.0526 16.9168C27.9859 17.1836 27.8822 17.5616 27.8229 17.7691C27.771 17.9693 27.6672 18.3398 27.6079 18.5844C27.3708 19.4886 27.0298 20.6003 26.9112 20.882C26.8742 20.9635 26.726 21.3119 26.5851 21.6602C26.4369 22.0085 26.1997 22.5051 26.0589 22.7719C25.9107 23.0387 25.7625 23.3352 25.718 23.4241C25.4364 24.0764 24.1542 25.6031 23.4945 26.0923C22.7756 26.6185 21.5379 26.9446 20.604 26.8409C19.8999 26.7667 19.3367 26.6482 19.2403 26.5518C19.1959 26.5073 19.0921 26.4777 19.0032 26.4777C18.8475 26.4777 18.5288 26.3517 17.4912 25.8699C16.5425 25.4327 16.0237 25.1955 15.3419 24.899C15.1121 24.8027 14.5859 24.5136 14.1708 24.2691C13.7558 24.0171 13.4 23.8095 13.3704 23.8095C13.3482 23.8095 13.1777 23.7058 12.9924 23.5872C12.8145 23.4612 12.6218 23.3648 12.5699 23.3648C12.5107 23.3648 12.4291 23.313 12.3772 23.2537C12.3254 23.1944 12.2513 23.1425 12.2142 23.1425C12.1697 23.1425 12.0141 23.0462 11.8659 22.9276C11.7176 22.8164 11.2136 22.4606 10.7467 22.1419C9.76098 21.4749 9.47934 21.26 8.81972 20.6967C8.5529 20.4669 8.24162 20.2075 8.11562 20.1112C7.57458 19.7036 5.27701 17.3541 4.64703 16.5611C4.15045 15.9385 3.56494 15.1603 3.43154 14.9528C2.84603 14.0115 2.80156 13.841 3.00167 13.4112C3.12025 13.1518 3.46118 12.67 3.88364 12.1512C4.03187 11.9733 4.15045 11.8029 4.15045 11.7732C4.15045 11.7436 4.38021 11.4768 4.66185 11.1877C5.82546 9.98704 5.96628 9.74987 5.9144 9.07542C5.87734 8.57144 5.66982 8.2231 5.22513 7.94887C4.86196 7.71912 4.1801 7.71912 3.81694 7.94887C3.51306 8.13416 1.90476 9.86105 1.51936 10.4169C1.37113 10.6318 1.08208 11.0321 0.881972 11.3211C0.1927 12.292 0 12.8405 0 13.8484C0 14.7971 0.177877 15.2715 0.993144 16.5018C1.25996 16.902 1.48231 17.2577 1.48231 17.2948C1.48231 17.3319 1.51195 17.3615 1.5416 17.3615C1.57865 17.3615 1.70465 17.5023 1.83065 17.6728C1.95664 17.8507 2.1197 18.0582 2.20122 18.1397C2.27534 18.2212 2.53474 18.5399 2.77932 18.8438C3.36483 19.5776 5.56606 21.7862 6.44803 22.5199C6.83343 22.846 7.50046 23.3723 7.92292 23.691C8.84195 24.3876 8.82713 24.2839 8.16009 25.6772C7.9081 26.196 7.70799 26.663 7.70799 26.7149C7.70799 26.7667 7.65611 26.8779 7.59681 26.952C7.53752 27.0336 7.48564 27.1595 7.48564 27.2411C7.48564 27.3152 7.44117 27.4708 7.38188 27.5746C7.24106 27.8266 6.92978 28.6419 6.70743 29.3237C6.61108 29.6128 6.49991 29.9315 6.46285 30.0352C6.38132 30.2576 6.21086 30.8505 6.04039 31.5175C5.97369 31.7843 5.87734 32.1623 5.81805 32.3698C5.69946 32.8145 5.50676 33.6965 5.45488 34.0004C5.44006 34.119 5.38818 34.3561 5.35112 34.5192C5.30665 34.6822 5.22513 35.1343 5.15842 35.5197C5.09913 35.9051 5.01019 36.4536 4.95831 36.7426C4.73596 38.0767 4.58032 41.575 4.67667 43.2277C4.83231 46.096 4.86196 46.3999 5.15842 48.1564C5.37336 49.4089 5.66982 50.8245 5.82546 51.2692C5.88475 51.4397 5.92922 51.6472 5.92922 51.7362C5.92922 51.8251 5.97369 52.0252 6.03298 52.1734C6.08486 52.3291 6.18121 52.6404 6.24792 52.8627C6.45544 53.5816 6.65555 54.2264 6.8186 54.6415C6.90754 54.8638 7.0113 55.1677 7.05577 55.3085C7.09283 55.4493 7.15953 55.5976 7.19659 55.6346C7.23365 55.6791 7.2633 55.7532 7.2633 55.8125C7.2633 55.8644 7.33 56.0645 7.41894 56.2572C7.60423 56.6871 7.65611 56.8131 7.81916 57.2355C8.06374 57.8655 9.84251 61.3786 10.0352 61.6083C10.0871 61.6676 10.3094 62.0159 10.5244 62.3865C10.8801 62.9943 11.3767 63.7428 11.9474 64.5359C12.066 64.6989 12.2735 64.9954 12.4217 65.2029C12.7034 65.6031 12.8219 65.7439 13.4667 66.537C13.7039 66.8186 14.03 67.2188 14.1931 67.4264C14.5785 67.9155 15.2085 68.59 16.6018 69.9833C18.2991 71.6954 19.5294 72.7701 21.234 74.03C21.5601 74.2672 21.9307 74.5414 22.0493 74.6378C22.8201 75.2233 25.2585 76.7649 26.4073 77.3875C27.3559 77.9063 27.6302 78.0471 28.0526 78.2694C28.527 78.514 29.9352 79.1736 29.9796 79.1736C29.9944 79.1736 30.2242 79.27 30.4836 79.396C30.7504 79.5146 31.0024 79.6183 31.0395 79.6183C31.0839 79.6183 31.2099 79.6628 31.3285 79.7221C31.7287 79.9222 31.9807 80.026 33.0554 80.4114C33.4408 80.5522 33.8633 80.693 33.9818 80.7301C34.1078 80.7597 34.308 80.8264 34.4265 80.8709C34.9898 81.071 36.2498 81.4416 37.3911 81.738C37.5987 81.7899 37.91 81.8714 38.0952 81.9233C38.4584 82.0197 39.2144 82.1679 39.9185 82.2865C40.1705 82.3235 40.4669 82.3902 40.5707 82.4347C40.6819 82.4718 40.9339 82.5088 41.134 82.5088C41.3341 82.5088 41.5861 82.5459 41.7047 82.5903C41.8158 82.6348 42.179 82.7015 42.5051 82.7312C42.8312 82.7682 43.3797 82.8275 43.728 82.872C44.0763 82.909 44.6915 82.9832 45.0991 83.035C45.5068 83.0795 47.0928 83.1388 48.6196 83.1536C51.3841 83.1907 53.0443 83.1166 54.7341 82.8646C55.0232 82.8275 55.5197 82.7608 55.8458 82.7312C56.172 82.6941 56.5351 82.6348 56.6463 82.5903C56.7649 82.5459 57.0243 82.5088 57.2244 82.5088C57.4319 82.5088 57.6543 82.4792 57.721 82.4421C57.7951 82.4051 58.0841 82.3384 58.3658 82.2939C59.0995 82.1753 59.8703 82.0271 60.2557 81.9233C60.441 81.8714 60.7893 81.7751 61.0339 81.7158C62.2272 81.4045 64.295 80.7819 64.6878 80.6115C64.8212 80.5522 64.9768 80.5077 65.0361 80.5077C65.0954 80.5077 65.2511 80.4632 65.3845 80.4039C65.5179 80.3447 65.8959 80.1964 66.222 80.063C66.5481 79.937 66.9113 79.7814 67.0224 79.7221C67.141 79.6628 67.267 79.6183 67.3041 79.6183C67.3485 79.6183 67.5338 79.5442 67.7265 79.4627C68.1638 79.2626 68.8234 78.9735 69.1125 78.8475C69.3719 78.7364 70.9209 77.9581 71.7806 77.506C72.1067 77.3356 72.5885 77.0613 72.8553 76.8909C73.1221 76.7278 73.4927 76.5055 73.678 76.4017C74.4043 76.0089 75.8051 75.0528 77.2726 73.9485C77.8655 73.4964 78.451 73.0591 78.5622 72.9776C78.6808 72.8887 79.0217 72.607 79.3181 72.3402C79.6146 72.0808 79.9629 71.7918 80.0815 71.6954C80.7708 71.1766 83.8836 67.9378 84.7063 66.8705C84.899 66.6333 85.2029 66.2405 85.3882 66.0034C85.8181 65.4623 85.9811 64.8694 85.8255 64.4395C85.5216 63.5872 84.6989 63.187 83.9652 63.5205C83.565 63.7058 82.8757 64.4247 81.9715 65.6105C81.4675 66.2702 78.6956 69.0865 78.0063 69.6276C77.8062 69.7906 77.5023 70.05 77.3393 70.1983C77.0502 70.4651 76.3239 71.0506 75.9014 71.3619C75.7828 71.4434 75.5605 71.6139 75.4049 71.7399C74.7378 72.2587 72.8701 73.5186 72.2846 73.8447C72.0474 73.9782 71.7213 74.1709 71.5583 74.2746C70.5503 74.9194 66.474 76.9502 66.1849 76.9502C66.1479 76.9502 66.007 76.9946 65.8736 77.0539C65.7402 77.1132 65.4438 77.2318 65.2214 77.3208C64.9991 77.4023 64.7471 77.506 64.6656 77.5357C64.2876 77.6913 63.8874 77.8396 63.5168 77.9581C63.2944 78.0248 62.9906 78.1212 62.8497 78.1731C62.7089 78.225 62.3902 78.3213 62.1456 78.388C61.9011 78.4621 61.5824 78.5511 61.4415 78.5955C61.3007 78.64 61.0636 78.7067 60.9227 78.7289C60.7819 78.7586 60.3965 78.8623 60.0704 78.9513C59.4182 79.1292 58.8179 79.27 57.9211 79.4404C57.595 79.4997 57.0762 79.6035 56.7723 79.6628C56.4684 79.7295 55.9644 79.8036 55.6606 79.8407C55.3567 79.8703 54.8231 79.9296 54.4747 79.9741C52.9331 80.1742 51.9844 80.2335 49.7387 80.2631C47.3596 80.3002 45.5957 80.2112 43.8392 79.9741C43.5131 79.9296 43.0091 79.8703 42.72 79.8481C42.4384 79.8184 42.1642 79.774 42.1271 79.7443C42.0826 79.7221 41.801 79.6702 41.4971 79.6257C41.1933 79.5887 40.7189 79.4997 40.4299 79.433C40.1482 79.3663 39.7258 79.2626 39.5034 79.2107C38.74 79.0328 38.3546 78.9291 38.0285 78.8327C37.8432 78.7734 37.6283 78.7289 37.5468 78.7289C37.3986 78.7289 36.0719 78.3435 35.7236 78.1953C35.6198 78.1508 35.4419 78.0915 35.3159 78.0545C35.1973 78.0248 34.7601 77.8766 34.3524 77.7284C33.9448 77.5802 33.5297 77.4393 33.426 77.4171C33.3222 77.3949 33.174 77.3282 33.0925 77.2763C33.0109 77.217 32.9072 77.1725 32.8553 77.1725C32.8034 77.1725 32.544 77.0762 32.2772 76.9502C32.0104 76.8242 31.5805 76.6315 31.3137 76.5055C31.0469 76.3869 30.8097 76.2831 30.7801 76.2831C30.7282 76.2831 29.3793 75.6532 29.2014 75.542C29.1421 75.5049 28.942 75.4012 28.7567 75.3048C28.5714 75.2159 28.1934 75.0009 27.9044 74.8379C27.3189 74.4895 26.8001 74.1931 26.3183 73.9337C26.133 73.8373 25.8885 73.6817 25.7625 73.5928C25.6365 73.4964 25.4808 73.4001 25.4215 73.3704C25.3622 73.3408 25.1251 73.1851 24.9027 73.0221C24.6804 72.8516 24.4136 72.6663 24.3098 72.5922C23.2944 71.9029 22.5903 71.3989 22.3383 71.1766C22.1753 71.0284 21.6935 70.6281 21.2785 70.2798C20.0926 69.3015 19.8555 69.0865 18.3361 67.5375C16.8316 66.0034 15.4012 64.3209 14.4006 62.8905C14.0597 62.4088 13.7632 61.9715 13.741 61.9122C13.7113 61.8603 13.4519 61.4601 13.1629 61.0228C12.8738 60.5929 12.5032 59.9852 12.3402 59.6813C11.0728 57.2652 10.3243 55.7532 10.1538 55.2344C10.1167 55.1306 10.0204 54.8638 9.93144 54.6415C9.84251 54.4191 9.69428 53.9967 9.59793 53.715C9.50158 53.426 9.3904 53.1147 9.35335 53.0109C9.27923 52.8331 8.95312 51.7658 8.71595 50.9283C8.64925 50.6986 8.59737 50.454 8.59737 50.3799C8.59737 50.3132 8.54549 50.0982 8.4862 49.9055C8.4269 49.7202 8.33055 49.2978 8.27126 48.9717C8.21197 48.6456 8.10821 48.1193 8.04892 47.8006C7.98221 47.482 7.93033 47.104 7.93033 46.9631C7.93033 46.8149 7.88586 46.4073 7.82657 46.0515C7.47082 43.9392 7.48564 39.7591 7.85622 37.2244C8.1008 35.5197 8.18974 35.0158 8.44914 33.8522C8.49361 33.6446 8.56031 33.3482 8.59737 33.1851C8.63443 33.0221 8.70854 32.7182 8.77525 32.5181C8.83454 32.3106 8.93089 31.9548 8.99759 31.7176C9.05688 31.4879 9.131 31.2581 9.16065 31.2137C9.19029 31.1692 9.23476 31.0284 9.27182 30.895C9.30146 30.769 9.4497 30.3317 9.59793 29.924C9.74616 29.5164 9.89439 29.094 9.92403 28.9902C9.96109 28.8864 10.0204 28.7382 10.0649 28.6567C10.1019 28.5826 10.1983 28.3676 10.265 28.1823C10.4799 27.6265 11.1395 26.2257 11.2433 26.1071C11.3248 26.0182 11.3693 26.0182 11.473 26.0849C11.5397 26.1368 11.7695 26.2628 11.9696 26.3665C12.1771 26.4777 12.444 26.6259 12.5625 26.7C12.9035 26.915 14.912 27.9303 15.1195 27.997C15.2233 28.0267 15.6013 28.1972 15.9644 28.375C16.3276 28.5529 16.6537 28.7011 16.6833 28.7011C16.7204 28.7011 16.9576 28.7975 17.2096 28.9087C17.6543 29.1088 18.0248 29.2348 18.8623 29.4719C21.2266 30.1316 23.4723 29.7313 25.3697 28.3009C25.9329 27.8785 26.9409 26.8705 27.1707 26.5073C27.2448 26.3887 27.3708 26.2109 27.4597 26.1071C27.8525 25.6624 29.2755 23.0239 29.2755 22.7571C29.2755 22.6978 29.32 22.594 29.3719 22.5125C29.4238 22.431 29.6313 21.8603 29.8314 21.2526C30.0241 20.6374 30.2316 20.0371 30.2909 19.9037C30.3428 19.7777 30.3873 19.622 30.3873 19.5627C30.3873 19.5034 30.4391 19.3552 30.4984 19.244C30.5577 19.1255 30.6096 18.9402 30.6096 18.8364C30.6096 18.7252 30.6615 18.4955 30.7208 18.325C30.7801 18.1545 30.8319 17.9322 30.8319 17.8433C30.8319 17.7469 30.8764 17.5097 30.9357 17.317C31.1062 16.7093 31.2248 16.235 31.284 15.8421C31.3137 15.6346 31.3878 15.1899 31.4471 14.8416C31.6694 13.5668 31.8844 12.1957 31.9437 11.6176C31.9733 11.2915 32.04 10.706 32.0845 10.3206C32.129 9.93516 32.2179 8.96425 32.2846 8.17122C32.4106 6.66668 32.4551 6.51845 32.7812 6.44433C32.8701 6.4221 33.1295 6.33316 33.3519 6.25163C33.5742 6.16269 33.8929 6.0367 34.056 5.97741C34.5748 5.79212 36.6352 5.12508 37.0206 5.02132C37.2281 4.96944 37.5764 4.87309 37.7988 4.80639C38.0211 4.74709 38.4584 4.63592 38.7623 4.56922C39.0662 4.50251 39.5183 4.40616 39.7628 4.35428C41.6009 3.94665 43.2685 3.67242 44.5433 3.57607C44.9731 3.53901 45.6254 3.47972 45.9885 3.43525C46.8408 3.33149 51.7473 3.33149 52.4365 3.43525C52.7256 3.47231 53.3407 3.53901 53.8077 3.57607C54.2746 3.61313 54.8972 3.67983 55.1788 3.7243C56.1349 3.86512 57.0984 4.02818 57.6246 4.13935C57.9137 4.19864 58.3954 4.29499 58.6993 4.36169C59.2181 4.46546 59.4997 4.53216 60.441 4.76192C60.6485 4.8138 60.9302 4.8805 61.071 4.91015C61.2118 4.9472 61.4341 5.0065 61.5527 5.05097C61.6787 5.09544 62.1086 5.22884 62.5162 5.35484C63.2203 5.57718 64.206 5.9107 64.7767 6.12564C64.9176 6.18493 65.1695 6.28128 65.3326 6.34057C66.1256 6.63703 67.3485 7.17066 67.4375 7.25219C67.5561 7.35595 67.7339 8.73449 67.7413 9.54235C67.7413 9.82399 67.7858 10.3724 67.8451 10.7653C67.9044 11.1507 68.0082 11.8992 68.0749 12.4328C68.1416 12.9591 68.2305 13.5816 68.275 13.804C68.4677 14.849 68.564 15.4345 68.6233 15.8421C68.6604 16.0867 68.7271 16.3832 68.7715 16.4944C68.816 16.6129 68.8531 16.7908 68.8531 16.8946C68.8531 16.9983 68.8975 17.2355 68.9568 17.4282C69.0754 17.7988 69.2088 18.3324 69.3052 18.8068C69.4238 19.4071 70.328 22.1419 70.5207 22.4903C70.58 22.594 70.6318 22.72 70.6318 22.7719C70.6318 23.0313 71.9214 25.4104 72.4032 26.033C72.507 26.1738 72.6626 26.3887 72.7367 26.5073C72.9739 26.8779 73.9744 27.8785 74.5377 28.3009C76.4351 29.7313 78.6808 30.1316 81.045 29.4719C81.8603 29.2422 82.2457 29.1088 82.6385 28.9383C82.8609 28.8346 83.1277 28.7308 83.2314 28.6937C83.5057 28.6122 85.1955 27.8414 85.7884 27.5375C87.2559 26.7741 87.4115 26.7074 87.5079 26.789C87.6116 26.8705 88.1972 28.0638 88.1972 28.1823C88.1972 28.2194 88.2416 28.3602 88.3009 28.4936C88.3602 28.627 88.4566 28.8568 88.5233 29.0124C88.59 29.1607 88.6418 29.3163 88.6418 29.3608C88.6418 29.4052 88.6863 29.5461 88.7456 29.6795C88.9235 30.1019 89.0643 30.4947 89.2348 31.0728C89.3237 31.3767 89.4126 31.6806 89.4423 31.7399C89.5238 31.9548 89.6869 32.5255 89.7536 32.8145C89.7906 32.9776 89.8722 33.3259 89.9389 33.5928C89.9982 33.8596 90.0871 34.2598 90.1316 34.4821C90.1686 34.7045 90.2501 35.1195 90.3094 35.4086C90.6874 37.2985 90.806 38.6178 90.8431 41.3749C90.8801 44.3172 90.769 45.8144 90.3391 48.0452C90.2946 48.2676 90.2279 48.6381 90.1983 48.8605C90.139 49.2904 90.0352 49.7647 89.8647 50.3799C89.8055 50.58 89.7462 50.832 89.7239 50.9357C89.6572 51.2915 89.5016 51.7955 89.1532 52.8257C88.627 54.3821 88.6344 54.3673 88.5233 54.5896C88.464 54.7082 88.4195 54.849 88.4195 54.9009C88.4195 54.9898 87.9896 56.0126 87.5672 56.9094C87.1892 57.7099 87.1892 58.3398 87.5598 58.829C88.1008 59.5405 89.1977 59.5776 89.7684 58.9031C90.0945 58.5251 91.4805 55.2418 91.8659 53.9374C91.94 53.6928 92.0363 53.3741 92.0882 53.2333C92.1401 53.0925 92.2438 52.759 92.3106 52.4921C92.5403 51.6028 92.6515 51.1951 92.7627 50.832C92.8145 50.6393 92.8664 50.4095 92.8664 50.328C92.8664 50.2539 92.9183 49.9648 92.9776 49.6906C93.3185 48.1935 93.4593 47.3189 93.6446 45.4141C93.8003 43.8799 93.7929 39.8925 93.6446 38.262C93.4964 36.6685 93.3704 35.8459 93.0369 34.1857C92.9776 33.8818 92.9035 33.4742 92.8664 33.2741C92.7997 32.9331 92.7182 32.6144 92.5551 32.1475C92.5107 32.0215 92.4514 31.7918 92.4217 31.6287C92.3476 31.2211 92.1475 30.4947 92.0808 30.391C92.0511 30.3465 91.9993 30.1834 91.9696 30.0426C91.9103 29.7313 91.814 29.4571 91.5249 28.7382C91.4063 28.4492 91.2952 28.1305 91.2655 28.0119C91.2433 27.9007 91.1914 27.7895 91.1544 27.7673C91.1173 27.7451 91.0876 27.6635 91.0876 27.582C91.0876 27.5079 90.9394 27.1225 90.7541 26.7297C90.5688 26.3443 90.4206 25.9811 90.4206 25.9366C90.4206 25.8848 90.3761 25.781 90.3169 25.6995C90.1909 25.5068 90.1093 25.1288 90.1834 25.025C90.2279 24.9509 90.6207 24.6693 91.5694 24.0245C91.7769 23.8837 91.9548 23.7502 91.977 23.7206C91.9993 23.691 92.2068 23.5205 92.4365 23.35C93.4667 22.557 94.03 22.0604 95.2455 20.8598C95.9718 20.1482 96.6611 19.4293 96.7797 19.2663C96.9057 19.0958 97.1132 18.8364 97.2392 18.6956C97.3652 18.5548 97.6617 18.199 97.8914 17.9174C98.1212 17.6283 98.3361 17.3837 98.3658 17.3763C98.3954 17.3615 98.4251 17.317 98.4251 17.28C98.4251 17.2429 98.6103 16.9391 98.8401 16.6055C99.8851 15.0713 100.145 14.1746 99.8777 13.048C99.7591 12.5588 99.522 12.0178 99.27 11.6769C99.1736 11.5509 99.0921 11.4249 99.0921 11.3952C99.0921 11.373 98.8179 10.995 98.4918 10.5577C97.632 9.43118 96.4462 8.17863 96.0904 8.01558C95.2677 7.63759 94.3784 8.06005 94.1264 8.93461C93.9559 9.572 94.2153 10.1204 95.1714 11.121C95.4382 11.3952 95.7569 11.7658 95.8903 11.9511C96.0237 12.1364 96.2831 12.4847 96.4684 12.7293C97.0836 13.5594 97.1429 13.8336 96.7945 14.4265C96.4462 15.0121 96.4091 15.0639 96.0385 15.5531C95.201 16.6796 94.7489 17.191 93.3482 18.5844C91.5101 20.4225 90.769 21.0524 89.1607 22.1419C88.6937 22.4606 88.1897 22.809 88.0489 22.9202C87.9081 23.0313 87.7376 23.1425 87.6783 23.1647C87.6191 23.1944 87.4338 23.2981 87.2707 23.3871C87.1077 23.4834 86.7445 23.691 86.4554 23.8466C86.1738 24.0022 85.7365 24.2542 85.4919 24.4099C85.2474 24.5655 84.8175 24.7879 84.5284 24.9213C84.2468 25.0473 83.9133 25.1955 83.7873 25.2474C83.6687 25.3067 83.4167 25.4178 83.2314 25.4994C83.0461 25.5809 82.683 25.7514 82.4162 25.8699C81.3637 26.3517 81.0599 26.4777 80.9042 26.4777C80.8153 26.4777 80.7115 26.5073 80.667 26.5518C80.5855 26.6333 80.0148 26.7593 79.3033 26.8483C78.3695 26.9668 77.0576 26.5889 76.3017 25.9885C75.605 25.4401 74.471 24.0541 74.182 23.4167C74.1449 23.3278 73.9967 23.0387 73.8484 22.7719C73.7076 22.5051 73.4705 22.0085 73.3222 21.6602C73.1814 21.3119 73.0332 20.9635 72.9961 20.882C72.9591 20.8005 72.8627 20.5188 72.7812 20.252C72.6997 19.9852 72.5885 19.6591 72.544 19.5183C72.4995 19.3774 72.3884 18.9476 72.292 18.5696C72.1957 18.1842 72.0919 17.7691 72.0474 17.6357C72.0104 17.5023 71.9214 17.1836 71.8547 16.9168C71.788 16.65 71.6843 16.2646 71.6324 16.0645C71.5731 15.857 71.5138 15.5457 71.4916 15.3604C71.4619 14.9972 71.3433 14.2931 71.1877 13.4705C71.0914 12.9739 71.0024 12.2772 70.743 10.0241C70.5503 8.29721 70.4169 6.55551 70.3724 5.05838C70.3206 3.45008 70.3354 3.37596 70.7801 3.07209L71.0395 2.89421L73.6335 2.93127C75.0639 2.94609 76.5462 2.99797 76.9316 3.04985C79.5627 3.36114 79.9185 3.40561 80.0519 3.45749C80.1186 3.48713 80.4002 3.53901 80.6819 3.57607C80.9635 3.61313 81.4082 3.69466 81.675 3.76136C81.9418 3.82806 82.342 3.93183 82.5644 3.98371C83.1721 4.12453 83.7651 4.29499 83.9726 4.37652C84.0763 4.41357 84.358 4.50251 84.6026 4.57663C84.8471 4.64333 85.1288 4.73968 85.2325 4.77674C85.3363 4.82121 85.5216 4.8805 85.6402 4.91756C86.0108 5.01391 86.448 5.18437 87.1151 5.50307C87.4708 5.66612 87.7969 5.79953 87.8488 5.79953C87.9007 5.79953 87.9748 5.82918 88.0193 5.86623C88.1156 5.97 88.9457 6.24422 89.1384 6.24422C89.4423 6.24422 89.9315 6.00705 90.1686 5.75506C90.391 5.51789 90.5688 5.08061 90.5688 4.79156C90.5688 4.25793 90.1834 3.68725 89.6572 3.44267C89.1903 3.22032 88.5826 2.9535 88.123 2.7608C87.9007 2.67187 87.5449 2.51622 87.33 2.41987C87.1225 2.32352 86.8927 2.242 86.826 2.242C86.7593 2.242 86.5963 2.19753 86.4703 2.13824C85.9292 1.90848 83.3426 1.13027 83.1054 1.13027C83.0239 1.13027 82.7867 1.0858 82.594 1.02651C81.8974 0.826397 81.1933 0.685578 80.919 0.685578C80.7708 0.685578 80.5559 0.64852 80.4447 0.611462C80.3335 0.566993 79.9852 0.500289 79.6813 0.463232C78.6437 0.344647 77.7914 0.240886 77.0428 0.144536C76.5685 0.085244 75.2715 0.0555979 73.4112 0.0555979C70.6022 0.0555979 70.5058 0.0630094 70.0463 0.218651C69.7869 0.315001 69.4238 0.478055 69.2385 0.581816C68.8234 0.826397 68.0378 1.61943 67.8822 1.95295C67.5857 2.58293 67.519 2.79045 67.4745 3.24255C67.4449 3.50937 67.3856 3.7836 67.3337 3.8503C67.2522 3.96147 67.2225 3.96147 66.9928 3.85771C66.7778 3.75395 65.9403 3.42784 64.8508 3.02021C64.71 2.96833 64.2431 2.8201 63.8132 2.68669C63.3834 2.56069 62.9387 2.41987 62.8127 2.37541C62.6941 2.33835 62.4717 2.27164 62.3309 2.242C62.1901 2.20494 61.8714 2.12341 61.6268 2.05671C61.1303 1.91589 60.604 1.78989 59.8851 1.62684C59.6183 1.56755 59.2551 1.47861 59.0699 1.44155C58.2991 1.25627 57.6098 1.13027 57.4393 1.13027C57.3356 1.13027 56.9872 1.0858 56.6611 1.02651C55.6828 0.84122 54.8601 0.737458 53.9188 0.678166C53.4297 0.64852 52.7627 0.589228 52.4365 0.544759C51.6509 0.448409 47.8192 0.448409 46.4703 0.544759C44.3876 0.692989 43.8318 0.74487 43.2833 0.826397C42.7423 0.915335 41.3489 1.10062 40.8375 1.15992C40.6967 1.17474 40.2594 1.26368 39.874 1.35261C39.4886 1.44155 39.0513 1.54531 38.9105 1.57496C38.7697 1.60461 38.3546 1.70837 37.9841 1.79731C37.6209 1.87883 37.1688 1.98259 36.9835 2.01224C36.7982 2.0493 36.5685 2.10859 36.4647 2.15306C36.2868 2.21976 36.02 2.30129 35.0936 2.57552C34.849 2.64222 34.5303 2.74598 34.3895 2.79786C33.7595 3.02021 33.5964 3.07209 33.3889 3.12397C33.2629 3.15362 33.0925 3.22032 33.0035 3.26479C32.6552 3.45749 32.3884 3.30185 32.3884 2.91645C32.3884 2.77563 32.2846 2.5014 32.0252 1.95295C31.8547 1.5972 31.1581 0.8931 30.6837 0.596639C29.8833 0.085244 29.7573 0.070421 26.8297 0.0555979C25.3845 0.0407749 23.917 0.0630094 23.5687 0.0926555Z" fill="black"/>
<path d="M33.7966 29.1014C32.7071 29.4053 32.04 30.1316 31.8696 31.1915C31.6769 32.3995 32.2253 33.4668 33.3222 34.0078C33.7076 34.1931 33.841 34.2228 34.4265 34.2228C35.012 34.2228 35.1454 34.2005 35.5383 34.0078C36.8575 33.3556 37.4282 31.814 36.813 30.5467C36.2646 29.4053 34.9527 28.7827 33.7966 29.1014Z" fill="black"/>
<path d="M64.7766 29.1088C63.9984 29.3312 63.3981 29.8278 63.072 30.517C62.8793 30.9247 62.8496 31.0581 62.8496 31.6362C62.8496 32.1772 62.8867 32.3625 63.0349 32.6812C63.2498 33.1555 63.7761 33.7262 64.1614 33.9189C64.3171 33.993 64.5098 34.0894 64.5913 34.1339C64.6728 34.1783 64.9767 34.2228 65.2732 34.245C66.3404 34.3117 67.2965 33.7633 67.8079 32.7924C67.9636 32.4885 67.9932 32.3403 67.9932 31.6658C68.0006 30.984 67.9784 30.8431 67.8153 30.517C67.6078 30.0946 67.0668 29.5165 66.6962 29.3238C66.0884 29.0125 65.3844 28.931 64.7766 29.1088Z" fill="black"/>
<path d="M48.2121 34.5636C47.886 34.5933 47.2041 34.66 46.6928 34.7044C46.1814 34.7415 45.5366 34.823 45.2475 34.8823C44.9659 34.9416 44.5286 35.0305 44.284 35.075C44.0394 35.1269 43.528 35.2603 43.1575 35.3789C42.7795 35.4975 42.4311 35.5938 42.3867 35.5938C42.3422 35.5938 42.1865 35.6457 42.0383 35.7124C41.8827 35.7791 41.6529 35.8755 41.5195 35.9347C41.3861 35.994 41.2453 36.0385 41.2008 36.0385C41.0155 36.0385 39.1923 36.9131 38.4437 37.3578C38.125 37.5505 37.8063 37.7432 37.7396 37.7802C37.621 37.8543 36.9985 38.2916 36.4056 38.7215C35.9535 39.0476 34.8862 40.0407 34.3007 40.6707C33.7967 41.2117 32.8332 42.4272 32.8332 42.5162C32.8332 42.531 32.7072 42.7459 32.5442 42.9831C32.3144 43.3389 31.9661 44.0207 31.425 45.1917C31.388 45.2733 31.3212 45.4734 31.2842 45.6364C31.2397 45.7995 31.1434 46.133 31.0544 46.3702C30.9729 46.6148 30.8691 47.0224 30.8321 47.2818C30.7876 47.5338 30.7209 47.8302 30.6839 47.9414C30.5579 48.2675 30.5875 51.3433 30.7209 51.8251C30.7802 52.0474 30.8321 52.3068 30.8321 52.3957C30.8321 52.4847 30.8766 52.707 30.9358 52.8775C30.9951 53.0554 31.1137 53.4482 31.2027 53.752C31.299 54.0559 31.4695 54.5228 31.5881 54.7897C31.929 55.5308 32.2329 56.146 32.3366 56.309C32.8999 57.2132 33.2112 57.6727 33.2779 57.7172C33.3298 57.7469 33.4261 57.8654 33.4928 57.984C33.9449 58.7252 35.4717 60.2075 36.7465 61.1562C38.4289 62.4013 40.808 63.5871 42.8017 64.1652C43.0463 64.2319 43.3798 64.3357 43.5429 64.395C43.7133 64.4543 43.9208 64.4988 44.0172 64.4988C44.1061 64.4988 44.3878 64.5506 44.6398 64.6099C45.1512 64.7285 46.3074 64.9138 47.1004 64.9953C47.8638 65.0769 50.8432 65.0546 51.6585 64.9657C52.5775 64.8619 53.3705 64.7359 53.8893 64.6025C54.1117 64.5432 54.3785 64.4988 54.4749 64.4988C54.5786 64.4988 54.7861 64.4543 54.9566 64.395C55.1197 64.3431 55.4532 64.2394 55.6978 64.1652C56.765 63.854 59.2405 62.7941 59.9964 62.3272C60.2558 62.1715 61.7678 61.1636 62.0865 60.9338C62.4793 60.6596 63.7244 59.5034 64.2803 58.9031C64.8065 58.325 65.5329 57.3837 65.8367 56.8723C65.9701 56.6574 66.1332 56.3906 66.1999 56.2794C66.274 56.1756 66.3629 56.02 66.4 55.9384C66.4371 55.8569 66.6001 55.5012 66.7706 55.138C66.9336 54.7823 67.0744 54.4487 67.0744 54.3969C67.0744 54.345 67.1041 54.2709 67.1412 54.2264C67.1856 54.1893 67.2449 54.0263 67.2894 53.8632C67.3264 53.7002 67.445 53.2629 67.5488 52.8997C68.0454 51.121 68.0676 48.9568 67.6229 46.9705C67.3561 45.8069 66.6965 44.1467 66.1851 43.3389C66.1035 43.2129 66.0146 43.0646 65.985 43.0053C65.9627 42.946 65.8441 42.7756 65.7255 42.6274C65.6144 42.4791 65.518 42.3309 65.518 42.3012C65.518 42.279 65.3105 41.9825 65.0585 41.649C64.0135 40.2705 61.6418 38.1804 60.4782 37.6172C60.4189 37.5875 60.2262 37.4689 60.0557 37.3503C59.7815 37.1725 58.8254 36.6759 58.1436 36.372C57.5655 36.1126 56.7428 35.8013 56.1054 35.6012C55.72 35.4752 55.2457 35.327 55.0604 35.2603C54.8677 35.201 54.6305 35.1491 54.5267 35.1491C54.423 35.1491 54.2525 35.1195 54.1487 35.075C53.8004 34.9416 52.5997 34.7785 50.9914 34.6303C49.272 34.4747 49.1089 34.4673 48.2121 34.5636ZM50.8061 37.4838C51.2583 37.543 51.74 37.5949 51.8808 37.5949C52.0216 37.5949 52.3552 37.6468 52.622 37.7061C54.2822 38.0767 55.0381 38.2842 55.6607 38.514C55.846 38.5881 56.098 38.6696 56.224 38.6992C56.8021 38.8475 58.9292 39.9963 59.8779 40.6707C60.3077 40.9746 61.8123 42.2568 61.8123 42.3235C61.8123 42.3531 61.9901 42.5606 62.2051 42.783C62.5831 43.1832 63.2946 44.08 63.2946 44.1615C63.2946 44.1764 63.4206 44.3987 63.5836 44.6359C63.9616 45.2214 64.4063 46.2664 64.6731 47.1928C65.0289 48.4454 65.14 50.2093 64.9325 51.2692C64.7917 51.9955 64.5768 52.8256 64.4878 53.0035C64.4434 53.085 64.4063 53.2036 64.4063 53.2703C64.4063 53.4852 63.717 54.8119 63.2279 55.5308C62.9685 55.9162 62.7313 56.2497 62.7091 56.272C62.6794 56.2942 62.5015 56.5091 62.3162 56.7537C62.131 56.9983 61.7456 57.3985 61.4713 57.6431C61.1897 57.8877 60.8117 58.2286 60.6264 58.3991C60.4411 58.577 60.2633 58.7178 60.2336 58.7178C60.1966 58.7178 59.9742 58.866 59.737 59.0513C59.4999 59.2366 59.2775 59.3848 59.2479 59.3848C59.2182 59.3848 59.1367 59.4293 59.0774 59.4886C58.7291 59.7924 56.3796 60.9412 56.1128 60.9412C56.0461 60.9412 55.9275 60.9857 55.846 61.0376C55.7645 61.0895 55.3124 61.2451 54.8454 61.3785C54.3785 61.5119 53.8375 61.6676 53.6448 61.7269C53.4521 61.7861 53.2001 61.8306 53.0741 61.8306C52.9555 61.8306 52.7628 61.8677 52.6442 61.9121C52.281 62.053 50.858 62.1567 49.2497 62.1567C47.7155 62.1493 46.2184 62.0604 46.0479 61.9566C46.0035 61.927 45.7737 61.8751 45.5291 61.838C44.6842 61.6972 44.0468 61.5267 42.5423 61.0079C42.0161 60.8301 40.4893 60.1111 39.8371 59.7331C38.8069 59.1402 37.6581 58.2657 36.8502 57.4578C35.2123 55.8125 34.0857 53.7595 33.6336 51.6027C33.5076 50.9579 33.5002 48.69 33.6336 48.0452C33.7745 47.3707 33.9449 46.7852 34.0635 46.5406C34.1228 46.4221 34.1673 46.2812 34.1673 46.2145C34.1673 45.8884 35.2864 43.9762 35.9905 43.1165C36.8502 42.0641 38.4882 40.6485 39.4665 40.1148C39.6296 40.0259 39.8667 39.8925 39.9853 39.8184C40.1113 39.7443 40.556 39.5071 40.9859 39.2996C41.4157 39.0921 41.8308 38.8845 41.9123 38.8401C41.9938 38.7956 42.1569 38.7289 42.2829 38.6992C42.4015 38.6696 42.7572 38.5584 43.0611 38.4547C43.9727 38.1434 44.2544 38.0619 44.8769 37.9284C45.203 37.8543 45.6403 37.7506 45.8552 37.6987C46.0628 37.6394 46.4111 37.5949 46.6335 37.5875C46.8484 37.5875 47.3301 37.5356 47.6933 37.4838C48.6123 37.3578 49.8352 37.3578 50.8061 37.4838Z" fill="black"/>
<path d="M53.5186 45.7773C53.148 45.881 52.7478 46.2294 52.5699 46.6222C52.4513 46.8668 52.4365 47.1855 52.4365 49.824C52.4365 52.4476 52.4513 52.7812 52.5625 53.0109C52.8812 53.6557 53.2073 53.8558 53.9114 53.8558C54.3783 53.8558 54.4747 53.8336 54.7193 53.6483C54.8675 53.5371 55.0602 53.3296 55.1417 53.1962C55.2825 52.9665 55.29 52.833 55.29 49.7647V46.5703L54.9268 46.2071C54.6822 45.9626 54.4821 45.8292 54.3116 45.7995C54.1782 45.7773 54.0152 45.7476 53.9559 45.7254C53.8966 45.7106 53.6965 45.7328 53.5186 45.7773Z" fill="black"/>
<path d="M44.1136 45.8292C43.9802 45.8662 43.743 46.0367 43.58 46.1998C43.3428 46.4443 43.2835 46.5703 43.2465 46.8816C43.2242 47.0965 43.2094 48.5492 43.2242 50.1204C43.2465 52.9517 43.2465 52.9739 43.4169 53.2481C43.6912 53.6854 44.0469 53.8633 44.6324 53.8559C45.1586 53.8559 45.4699 53.7076 45.759 53.3296C46.0258 52.9739 46.0554 52.6478 46.0851 49.9722C46.1147 46.7482 46.0628 46.4147 45.4477 45.9774C45.2031 45.8069 44.4694 45.718 44.1136 45.8292Z" fill="black"/>
</g>
<defs>
<clipPath id="clip0_131_20">
<rect width="100" height="83.2129" fill="white"/>
</clipPath>
</defs>
</svg>
