<svg width="151" height="112" viewBox="0 0 151 112" fill="none" xmlns="http://www.w3.org/2000/svg">
<g clip-path="url(#clip0_81_27)">
<path d="M101.29 1.13949C96.5243 1.98929 93.0251 3.27233 84.7937 7.20475C67.6809 15.3862 64.4317 16.036 52.8344 13.6533C21.5916 7.22141 4.39557 15.0029 1.32961 36.9479C0.746412 41.1802 0.879714 66.4744 1.49624 70.7401C4.12896 88.6859 16.0762 101.083 35.6717 106.215C58.4164 112.181 81.7444 113.03 105.239 108.715C111.721 107.532 112.721 107.065 112.554 105.365C112.337 103.166 111.437 102.983 105.955 104.099C76.5622 110.014 37.5879 106.215 22.0582 95.9009C12.0105 89.2191 5.29536 76.3554 5.31202 63.7917L5.32869 61.6255L6.02852 62.7919C13.6268 75.4057 21.475 80.9211 37.4713 84.9201C63.0653 91.302 89.9091 91.1854 115.786 84.5702C130.633 80.7544 139.381 74.7725 145.046 64.5082L146.446 61.9588L146.546 63.6251C147.313 75.3723 140.198 88.9192 129.55 96.0176C126.501 98.0338 120.835 100.75 119.586 100.766C118.869 100.783 117.619 102.183 117.619 102.983C117.619 105.182 119.302 105.582 123.018 104.249C137.548 99.0169 148.212 85.9199 150.445 70.5568C151.312 64.6082 151.012 38.2143 150.029 33.9652C144.796 11.4038 123.685 -2.8096 101.29 1.13949ZM117.453 5.93838C149.662 13.9032 157.06 56.2934 129.4 74.3726C106.755 89.1692 41.3204 88.4027 20.6085 73.0895C10.8774 65.9079 5.46199 54.7771 5.52864 42.13C5.64528 20.0684 21.0417 11.6371 50.135 17.6857C63.6152 20.485 69.1806 19.5686 84.9603 11.987C100.123 4.70533 107.155 3.38897 117.453 5.93838Z" fill="black"/>
<path d="M103.623 13.1034C99.4236 14.0532 93.9749 16.1527 86.2766 19.8185C70.3803 27.3834 66.6978 27.8833 47.8522 25.1506C35.1551 23.3177 30.5728 23.0511 26.6737 23.9842C11.294 27.6 8.21134 47.4288 20.9751 60.5424C23.0246 62.6586 24.1243 62.9752 25.3074 61.7921C26.4571 60.6424 26.1572 59.626 23.9744 57.2932C14.4432 47.0455 15.4263 32.7655 25.9239 28.7664C29.6231 27.3668 33.5055 27.5001 46.9691 29.4829C67.2977 32.4822 71.1135 31.9157 89.5592 23.1511C100.44 17.9856 106.305 16.3693 111.587 17.0858C134.632 20.1518 142.914 49.4783 124.285 62.0254C103.839 75.7722 55.8837 77.2219 33.7721 64.7414C30.9894 63.1751 28.9732 63.625 28.9732 65.8245C28.9732 69.0738 44.9195 74.8558 58.6664 76.6054C94.1248 81.1377 128.584 71.6732 136.115 55.3603C146.179 33.5653 126.517 7.98789 103.623 13.1034Z" fill="black"/>
<path d="M106.955 28.5832C95.9578 31.1492 91.9587 44.2962 99.7402 52.261C108.672 61.3922 123.901 54.9604 123.751 42.13C123.635 33.3321 115.337 26.6169 106.955 28.5832ZM113.787 33.5987C120.136 36.6146 121.402 44.9627 116.203 49.6283C109.955 55.2603 100.107 50.7614 100.157 42.2966C100.19 35.3483 107.572 30.6493 113.787 33.5987Z" fill="black"/>
</g>
<defs>
<clipPath id="clip0_81_27">
<rect width="151" height="112" fill="white"/>
</clipPath>
</defs>
</svg>
