<svg width="100" height="88" viewBox="0 0 100 88" fill="none" xmlns="http://www.w3.org/2000/svg">
<g clip-path="url(#clip0_133_51)">
<path d="M46.5446 0.0556208C46.4853 0.0704438 45.9813 0.114913 45.4328 0.166794C43.8986 0.29279 42.6535 0.515135 40.8006 0.982061C40.1855 1.1377 39.5333 1.32299 39.3554 1.3897C39.1701 1.4564 38.9255 1.53793 38.7995 1.57498C38.2362 1.73063 36.1165 2.63483 35.3013 3.0647C32.4849 4.547 30.4986 5.99225 28.3789 8.09713C26.7113 9.75731 25.5773 11.1507 24.3767 13.0406C23.8875 13.804 23.6133 14.308 22.6053 16.2127C21.6641 17.9915 21.5381 18.2287 21.4195 18.4362C21.3454 18.5548 21.2045 18.8068 21.1082 18.9921C21.0044 19.1774 20.745 19.6443 20.5227 20.0297C20.1743 20.6448 20.1225 20.7857 20.1002 21.2155C20.0706 21.801 20.2114 22.0975 20.6709 22.4532C20.96 22.6756 21.0341 22.6978 21.501 22.6978C22.3459 22.6978 22.5386 22.52 23.4058 20.9561C23.6059 20.5855 23.8431 20.1705 23.9246 20.0297C24.1395 19.6739 24.1988 19.5628 24.8881 18.2509C25.2142 17.6209 25.5699 16.9539 25.6737 16.7686C25.7775 16.5833 25.8886 16.3832 25.9183 16.3239C26.3481 15.3604 27.912 12.9887 28.7495 12.0252C29.5647 11.084 29.8242 10.8023 30.3281 10.2909L30.9062 9.70543L32.181 9.7499C33.4929 9.80178 33.945 9.86848 35.6126 10.2465C35.7756 10.2835 36.1758 10.4021 36.4945 10.5059C37.169 10.7208 37.4728 10.7356 37.8582 10.5726C38.2659 10.4021 38.5772 10.0612 38.7328 9.60908C38.8662 9.21627 38.8662 9.20144 38.7254 8.79381C38.5327 8.21571 38.1769 7.93407 37.3246 7.65985C36.5835 7.42268 35.5829 7.1781 35.0419 7.10398C34.7528 7.05951 34.6861 7.02245 34.6861 6.90387C34.6861 6.82234 34.7454 6.74082 34.8195 6.71117C34.8862 6.68894 34.9974 6.62223 35.0567 6.57776C35.2123 6.45177 35.8349 6.11084 36.7984 5.62909C40.6524 3.70209 45.0697 2.78306 49.1979 3.04988C51.5918 3.19811 53.3483 3.53163 55.7348 4.29501C57.0615 4.71747 59.6037 5.8959 60.5523 6.52588C60.6561 6.59259 60.7747 6.6667 60.8117 6.68894C61.123 6.84458 62.761 8.00819 63.3835 8.51958C65.1697 9.98706 66.4223 11.2989 67.7489 13.0777C68.3715 13.9152 69.1645 15.101 69.3202 15.4271C69.3498 15.4938 69.4758 15.7088 69.5944 15.9163C69.8909 16.4054 70.595 17.8877 70.9285 18.6956C71.0174 18.918 71.1212 19.1848 71.1656 19.2885C71.8623 21.0006 72.4923 23.8911 72.7072 26.3369C72.8184 27.6339 72.8036 33.8522 72.6924 33.9411C72.6405 33.9782 72.396 34.0671 72.1514 34.1412C71.9068 34.2153 71.5733 34.3191 71.4102 34.371C71.2472 34.4229 70.9285 34.5192 70.7061 34.5859C70.4838 34.6526 69.9798 34.8008 69.5944 34.9194C69.209 35.038 68.6754 35.1862 68.4086 35.2604C68.1417 35.3345 67.7638 35.4382 67.5562 35.4901C67.3561 35.5494 67.0226 35.6458 66.8151 35.6976C65.6366 36.0312 64.3693 36.3276 62.798 36.6389C61.627 36.8687 61.59 36.8761 61.4417 36.7427C61.3602 36.6686 61.2935 36.5796 61.2935 36.55C61.2935 36.5129 61.1601 36.298 60.997 36.0608C60.1373 34.8305 59.1293 33.8448 57.9879 33.1036C56.8836 32.3773 55.5792 31.814 55.0382 31.814C54.549 31.8214 53.9116 32.2661 53.7411 32.7256C53.63 33.0147 53.6374 33.6224 53.7634 33.9115C53.9042 34.245 54.3859 34.6452 54.8603 34.8083C55.7941 35.1418 56.9207 35.8829 57.736 36.7204C57.9805 36.965 58.1806 37.217 58.1806 37.2763C58.1806 37.4319 57.8842 37.5135 56.98 37.595C56.5279 37.6395 56.1351 37.6913 56.1054 37.7062C56.0758 37.721 55.5718 37.7729 54.9863 37.8099C51.3176 38.0693 49.9094 38.2324 48.3233 38.603C42.3645 39.9889 37.3543 42.8572 33.2186 47.267C31.5436 49.0458 29.9501 51.625 29.0385 54.0115C28.4678 55.5012 28.1566 56.7241 27.8527 58.6289C27.6378 59.9926 27.6229 63.2611 27.823 64.5359C28.1269 66.4332 28.6161 68.3973 28.9496 69.0347C29.0089 69.1384 29.0534 69.2941 29.0534 69.3682C29.0534 69.4423 29.083 69.5387 29.1201 69.5831C29.1571 69.6202 29.3276 69.9759 29.498 70.3762C29.8242 71.1618 30.1577 71.8066 30.6394 72.5996C30.8025 72.8739 30.9804 73.1629 31.0174 73.2296C32.559 75.831 36.5909 79.6109 40.3337 81.953C40.8525 82.2791 41.275 82.5829 41.275 82.6348C41.2824 82.6793 41.1045 82.7756 40.897 82.8349C40.682 82.9016 40.3559 83.0054 40.1706 83.0647C39.6148 83.2352 37.7545 83.6724 36.3537 83.9541C33.5966 84.5099 28.1121 85.0288 26.0887 84.925C23.5466 84.7916 21.5455 84.3839 19.0478 83.4872C18.2103 83.1833 17.8397 83.0276 16.6168 82.457C16.4019 82.3606 15.8683 82.0716 15.431 81.827C10.191 78.855 6.09986 73.9411 4.18769 68.3158C3.5503 66.4258 3.12043 64.3728 2.96479 62.4607C2.66091 58.6585 3.31313 53.5594 4.58791 49.7128C5.38835 47.2819 6.70761 44.4729 7.9898 42.4347C8.58272 41.4935 9.36093 40.3891 10.1095 39.4256C10.6357 38.7586 13.2223 35.6902 13.3483 35.5939C13.5707 35.4234 17.2764 30.6059 17.9064 29.6647C18.0324 29.4794 18.3363 29.0421 18.5883 28.6789C18.8403 28.3232 19.0923 27.9378 19.159 27.8118C19.322 27.4931 19.3072 26.7668 19.1145 26.4481C18.781 25.8774 18.0917 25.5809 17.4988 25.744C16.98 25.8848 16.8021 26.0552 16.0239 27.1744C14.7417 29.005 13.541 30.6504 13.0593 31.2359C12.9778 31.3248 12.622 31.7695 12.2588 32.2216C11.4213 33.2741 11.0359 33.7484 10.9025 33.8892C10.3985 34.4154 8.04909 37.2244 7.51546 37.9285C5.96645 39.9815 4.73614 41.9604 3.69853 44.0949C3.32795 44.8657 2.97961 45.5846 2.92773 45.7106C2.87585 45.8292 2.79432 46.0145 2.75726 46.1182C2.53492 46.6296 2.40892 46.9706 2.09764 47.8229C1.91976 48.3343 1.74188 48.8457 1.70483 48.9717C1.66777 49.0903 1.58624 49.3571 1.52695 49.5646C0.793209 51.9956 0.348518 54.3228 0.0742914 57.1985C-0.0220585 58.2657 -0.0220585 62.5644 0.0817029 63.3797C0.348518 65.5809 0.867325 67.9452 1.3639 69.2422C1.42319 69.383 1.51954 69.6424 1.58624 69.8129C1.94941 70.7764 1.95682 70.7986 2.40892 71.8288C2.56456 72.1772 2.74244 72.5552 2.80914 72.6812C2.88326 72.8071 3.08337 73.1777 3.26125 73.5038C4.29886 75.416 5.66999 77.343 7.07818 78.8698C10.0873 82.1308 13.2668 84.3395 17.4173 86.0515C18.2622 86.3999 20.1447 86.9854 21.0489 87.1781C21.1897 87.2077 21.4565 87.267 21.6418 87.3115C22.1977 87.4449 23.1093 87.608 24.0876 87.7488C25.3402 87.9267 29.4684 87.9192 31.3139 87.7414C34.1747 87.4671 37.1023 86.9557 39.4665 86.3258C39.8742 86.2146 40.3263 86.1034 40.4671 86.0738C40.6079 86.0367 40.808 85.9774 40.9118 85.9404C41.0156 85.8959 41.4454 85.7551 41.8753 85.6217C42.5942 85.3993 44.284 84.8138 44.6768 84.6508C44.9659 84.5322 45.1215 84.5692 46.1295 84.9843C46.6631 85.2066 47.3005 85.4512 47.5451 85.5401C47.7897 85.6217 48.1751 85.7625 48.3974 85.844C48.6198 85.933 48.8718 86.0219 48.9533 86.0441C49.0348 86.0664 49.4202 86.1775 49.8056 86.2961C51.325 86.7482 53.7189 87.267 55.3643 87.5042C57.3728 87.7932 58.6105 87.86 61.1897 87.8229C62.5683 87.8081 64.0209 87.7488 64.4063 87.7043C66.0072 87.5042 67.4821 87.2744 68.4086 87.0669C68.6754 87.0076 69.1423 86.9039 69.4462 86.8372C69.75 86.7705 70.2392 86.6519 70.5208 86.5703C70.8099 86.4962 71.1731 86.3925 71.3361 86.348C71.4992 86.3035 71.8697 86.1924 72.1514 86.0886C72.4404 85.9922 72.7739 85.8811 72.8925 85.844C73.0185 85.807 73.3002 85.7106 73.5225 85.6217C73.7449 85.5327 74.0117 85.4364 74.1154 85.3993C75.4273 84.9695 78.6365 83.4056 80.1929 82.4421C80.2522 82.3977 80.5857 82.1975 80.934 81.9826C81.2824 81.7677 81.7493 81.4564 81.9716 81.2933C82.194 81.1229 82.5646 80.8635 82.7869 80.7152C83.6392 80.1371 85.3809 78.6993 86.4482 77.6913C87.3672 76.8242 87.5451 76.6241 87.6933 76.2906C88.1084 75.3715 87.3895 74.2969 86.3593 74.282C85.8553 74.282 85.5959 74.4229 84.877 75.1047C83.5503 76.3573 83.1427 76.7056 81.6455 77.8544C79.5851 79.433 76.9244 80.9895 74.6787 81.9233C74.1895 82.1308 73.6856 82.3384 73.5596 82.3902C73.0408 82.62 72.8406 82.6867 71.929 82.9906C70.3281 83.5094 69.1497 83.8281 67.5192 84.169C65.9553 84.4951 64.9548 84.6211 64.8881 84.5099C64.8658 84.4729 64.9326 84.1838 65.0363 83.8726C65.7404 81.7084 65.8516 79.5146 65.3624 77.3652C65.2809 77.0021 65.1475 76.5722 65.066 76.424C64.8955 76.0756 64.3396 75.6902 63.9616 75.6383C63.5244 75.5791 62.9537 75.8162 62.6646 76.172C62.2199 76.713 62.1977 77.1132 62.5386 78.2843C62.7239 78.9291 62.7017 81.2489 62.4942 81.9974C62.1384 83.3019 61.6122 84.5396 61.3009 84.7916C61.1749 84.8953 59.8927 84.8731 57.8471 84.7323C56.3204 84.6211 54.1414 84.2876 52.9555 83.9763C52.7925 83.9318 52.5405 83.8726 52.3997 83.8429C51.0137 83.5539 48.6568 82.7682 46.804 81.9678C45.4847 81.4045 42.8388 80.0408 42.4682 79.7295C42.4089 79.685 42.3052 79.6183 42.2459 79.5887C41.9198 79.4405 40.3633 78.3806 39.5036 77.721C36.0943 75.1121 34.1302 72.9406 32.6924 70.1909C31.6993 68.2935 31.2768 66.9669 30.758 64.1283C30.7061 63.8614 30.6468 62.9128 30.632 62.0234C30.595 60.3632 30.6542 59.6072 30.9507 58.1249C31.551 55.1455 32.7072 52.633 34.5824 50.2316C34.8343 49.9055 35.1308 49.5572 35.2346 49.4608L35.4273 49.2756L36.0647 49.6017C36.7613 49.95 37.3098 50.4095 37.6581 50.9061C37.9101 51.2767 38.1695 51.9659 38.1695 52.2698C38.1695 52.6404 38.4067 53.2259 38.6661 53.4927C39.2738 54.1227 40.4004 53.9967 40.9192 53.2407C41.0823 53.011 41.0971 52.9072 41.0897 52.2031C41.0823 50.7653 40.5709 49.6387 39.3924 48.4455C38.9848 48.0378 38.4586 47.5783 38.2288 47.4227C37.9917 47.2744 37.799 47.1114 37.799 47.0595C37.799 46.9557 38.881 46.096 39.8816 45.3993C41.7048 44.132 43.8319 43.0721 46.3222 42.1975C47.0337 41.9456 48.6124 41.5379 49.5462 41.3675C50.6283 41.1748 52.5553 40.9302 53.0667 40.9302C53.756 40.9302 57.0615 40.5967 58.5512 40.3743C60.745 40.0482 61.4936 39.9222 62.9981 39.6183C63.5095 39.5146 64.058 39.4034 64.221 39.3738C64.6583 39.2848 65.4291 39.1069 65.8145 39.0106C65.9998 38.9587 66.3407 38.8698 66.5779 38.8105C67.7712 38.514 69.5351 38.0249 70.9655 37.595C71.0915 37.5579 71.3583 37.4764 71.5585 37.4171C71.766 37.3578 72.3144 37.1874 72.7814 37.0465C73.2483 36.8983 73.8041 36.7575 74.0191 36.7353C74.3897 36.6908 74.4341 36.7056 74.9826 37.0465C77.4358 38.5585 78.6587 40.2483 79.1256 42.746C79.1701 43.0054 79.4369 43.3686 79.7556 43.5983C80.0298 43.791 80.1262 43.8207 80.556 43.8207C80.9637 43.8133 81.0897 43.7836 81.3417 43.6132C81.9791 43.1685 82.1273 42.4199 81.8234 41.2192C81.3935 39.5442 80.7339 38.3213 79.5333 36.9724C79.2442 36.6537 79.0293 36.3647 79.0515 36.3276C79.222 36.046 82.8833 36.6834 84.4175 37.2615C85.7441 37.7655 87.1004 38.4028 88.012 38.9587C88.5012 39.2552 89.6722 40.0704 89.8649 40.2409C89.9539 40.315 90.2355 40.5522 90.4949 40.7745C91.6511 41.738 93.0593 43.3241 93.9116 44.6359C94.9048 46.1553 95.4754 47.3263 96.0165 48.9717C97.2542 52.7219 97.3432 56.4647 96.2907 60.2001C96.0832 60.9413 95.6681 62.1568 95.4829 62.5718C94.4008 64.9806 93.2149 66.7075 91.2657 68.7086C89.7093 70.3169 89.5462 70.6504 89.9464 71.4582C90.2059 71.9696 90.5838 72.2216 91.1545 72.2661C91.7178 72.3106 92.0291 72.1475 92.7851 71.4064C94.9789 69.2718 96.5649 67.1447 97.6989 64.7953C98.6846 62.7719 99.2479 61.0228 99.6407 58.829C100.389 54.6193 99.8927 50.3058 98.2029 46.3776C97.7804 45.3845 97.0912 44.0578 96.8243 43.6947C96.728 43.5687 96.6465 43.4427 96.6465 43.4205C96.6465 43.3537 96.2018 42.7089 95.5421 41.8196C94.7714 40.7745 92.6961 38.6771 91.6437 37.884C90.8284 37.2689 89.7093 36.4833 89.6352 36.4833C89.6129 36.4833 89.4499 36.3869 89.2794 36.2757C88.5012 35.7495 86.337 34.7638 85.1586 34.3932C84.8918 34.3117 84.5583 34.2005 84.4175 34.1486C83.9431 33.9782 82.8314 33.7262 81.564 33.5038C80.7932 33.3704 80.3411 33.3482 78.2288 33.3334L75.783 33.3185L75.746 29.7314C75.6941 25.6402 75.62 24.8027 75.0715 22.142C74.8566 21.134 74.7973 20.8894 74.4934 19.8814C73.5225 16.6723 71.7289 13.2778 69.6092 10.617C68.2455 8.90498 66.4297 7.1188 64.7028 5.78473C62.9166 4.4136 60.6116 3.05729 58.7365 2.27908C58.3733 2.13085 57.9731 1.96038 57.8471 1.90109C56.2388 1.18958 53.0889 0.44102 50.4727 0.166794C49.7093 0.0852669 46.7595 -0.00367144 46.5446 0.0556208Z" fill="black"/>
<path d="M53.4223 12.3217C52.3106 12.5144 51.8659 13.9893 52.6811 14.7972C52.8812 15.0047 53.111 15.1159 53.741 15.316C56.0089 16.0497 57.254 17.117 58.0619 19.0143C58.1286 19.17 58.1805 19.3405 58.1805 19.4072C58.1805 19.6073 58.5511 20.1038 58.8623 20.304C59.1218 20.4818 59.2477 20.5115 59.6628 20.5115C60.0927 20.5115 60.1964 20.4818 60.4336 20.304C61.2933 19.6443 61.2859 18.8365 60.4039 17.0281C59.9815 16.1609 59.2552 15.2271 58.5066 14.5897C57.1799 13.4557 55.3196 12.5441 53.8077 12.2921C53.7484 12.2847 53.5705 12.2995 53.4223 12.3217Z" fill="black"/>
<path d="M30.9507 27.7673C30.6097 27.8785 30.1873 28.2565 30.0465 28.5974C29.8019 29.1829 29.9946 29.9167 30.4986 30.3021C30.795 30.5244 31.4324 30.7023 31.9735 30.7023C32.3366 30.7023 33.0704 30.8431 33.7967 31.0506C35.4643 31.525 36.8132 32.2809 37.5766 33.1629C38.2881 33.9856 38.5771 34.2302 38.9329 34.3191C39.8815 34.5637 40.7635 33.8522 40.7635 32.859C40.7635 32.3551 40.4226 31.8288 39.511 30.9246C37.7396 29.1607 35.4643 28.1379 32.4626 27.7747C31.4695 27.6487 31.3361 27.6487 30.9507 27.7673Z" fill="black"/>
<path d="M13.4521 42.8942C13.415 42.909 13.289 42.9387 13.1704 42.9609C12.8666 43.0276 12.407 43.4871 12.2588 43.8651C12.029 44.4803 12.2885 45.2437 12.8517 45.5994C13 45.6884 13.4298 45.8218 13.8078 45.9033C15.1345 46.1775 16.639 46.8001 17.5284 47.4375C18.6624 48.2602 19.3442 49.1421 19.826 50.4169C20.0483 51.0098 20.1817 51.2322 20.4115 51.4027C21.2193 52.0104 22.2125 51.7732 22.6794 50.8542C22.8795 50.4688 22.8647 50.0908 22.6349 49.4831C22.5312 49.2014 22.4274 48.9124 22.4052 48.8309C22.3385 48.6233 21.8716 47.7562 21.5973 47.3411C21.1971 46.7334 20.2707 45.7847 19.5443 45.2363C18.5808 44.5173 17.647 44.0208 16.2314 43.4871C15.3791 43.161 13.7041 42.8053 13.4521 42.8942Z" fill="black"/>
<path d="M59.9964 44.6063C59.0107 45.1177 58.8476 46.3851 59.6851 47.0447C59.8185 47.1559 60.1743 47.3782 60.4781 47.5413C61.1452 47.9044 62.5459 48.9421 62.9684 49.3942C64.0505 50.5355 64.6805 51.8029 64.888 53.2407C64.9473 53.6632 65.303 54.1524 65.681 54.3377C66.3703 54.6638 67.1114 54.4711 67.5561 53.8411C67.7711 53.5298 67.7785 53.4853 67.7637 52.8257C67.7563 52.1587 67.6747 51.7659 67.356 50.8691C66.9039 49.572 66.1702 48.4529 65.014 47.2819C64.4581 46.7112 62.961 45.5031 62.6275 45.3549C62.5682 45.3252 62.3977 45.2289 62.2569 45.1474C61.5083 44.6878 61.0044 44.4877 60.6115 44.4877C60.3966 44.4877 60.1224 44.5396 59.9964 44.6063Z" fill="black"/>
<path d="M77.562 50.9283C76.8727 51.247 76.5466 52.003 76.7986 52.7219C76.932 53.1222 77.0803 53.2852 77.6361 53.6558C78.2587 54.0708 79.0962 54.9009 79.4594 55.4568C79.7632 55.9163 80.1931 56.9465 80.1931 57.1985C80.1931 57.5543 80.4451 58.1398 80.7193 58.414C81.164 58.8587 81.7643 58.9773 82.3054 58.7253C82.9798 58.414 83.2689 57.8062 83.1503 56.9391C83.0465 56.2054 82.8687 55.6347 82.5203 54.8935C82.046 53.893 81.6606 53.3519 80.7934 52.4848C79.2667 50.958 78.3995 50.5429 77.562 50.9283Z" fill="black"/>
</g>
<defs>
<clipPath id="clip0_133_51">
<rect width="100" height="87.8822" fill="white"/>
</clipPath>
</defs>
</svg>
