<svg width="100" height="101" viewBox="0 0 100 101" fill="none" xmlns="http://www.w3.org/2000/svg">
<g clip-path="url(#clip0_133_45)">
<path d="M48.2342 0.066661C48.3676 0.148188 48.1378 0.20748 47.4263 0.259361C46.5814 0.326064 45.4697 0.526176 44.0985 0.859694C43.3796 1.03757 41.9195 1.48967 41.838 1.56379C41.801 1.60085 41.712 1.63049 41.6379 1.63049C41.5712 1.63049 41.4007 1.67496 41.2673 1.73425C41.1339 1.79355 40.6077 2.01589 40.0963 2.22341C37.9321 3.12762 36.5017 3.85395 34.3968 5.13614C33.2332 5.84765 32.9219 6.04776 31.7583 6.85562C29.1495 8.66403 26.4369 11.0654 24.1689 13.563C22.4939 15.4085 21.2933 17.0168 20.1074 18.9883L19.4033 20.1519L18.8104 20.3817C18.4843 20.5076 18.1656 20.6411 18.0989 20.6781C18.0248 20.7152 17.6394 20.9005 17.2318 21.0932C16.4017 21.4934 14.6451 22.4421 14.3264 22.6644C14.2153 22.7459 13.7557 23.0498 13.3036 23.3537C11.3841 24.621 9.75352 25.9625 7.99699 27.7116C5.67719 30.0389 4.23935 31.8621 2.78669 34.3376C2.52729 34.7748 1.48226 36.8871 1.48226 36.9686C1.48226 37.0131 1.43779 37.1391 1.3785 37.2577C1.07463 37.8729 0.733698 38.8808 0.481706 39.9407C0.377945 40.3705 0.274184 40.793 0.251949 40.8745C0.0370149 41.6527 -0.074158 45.1584 0.0740725 46.2479C0.437237 48.8938 1.36368 50.9097 3.02386 52.6588C3.65384 53.3185 4.95086 54.3561 5.41037 54.571C5.46966 54.6007 5.64013 54.697 5.78095 54.7785C6.5221 55.2306 7.71535 55.7569 8.81967 56.12C11.1839 56.8908 13.0146 57.2466 16.2683 57.5504C17.002 57.6246 17.632 57.7061 17.6616 57.7357C17.6913 57.7654 17.669 57.8988 17.6097 58.0396C17.5504 58.1804 17.4541 58.4102 17.3948 58.551C17.0539 59.344 16.372 61.6787 16.1571 62.8126C15.6753 65.377 15.5642 66.5036 15.5642 68.7418C15.5642 70.2464 15.7198 72.5291 15.8606 73.0035C15.8977 73.1443 15.9347 73.3741 15.9347 73.5075C15.9347 73.6409 15.9866 73.9744 16.0533 74.2486C16.1126 74.5228 16.2164 74.9601 16.2757 75.2269C16.7945 77.48 17.3059 78.9031 18.4695 81.3637C18.6399 81.7268 18.6696 81.8528 18.6029 81.9344C18.5584 81.9937 18.1137 82.3272 17.6172 82.6829C13.8966 85.3585 11.4359 87.8488 10.3761 90.0129C9.81282 91.1543 9.48671 92.3772 9.48671 93.3111C9.48671 94.6451 10.1019 96.3275 11.058 97.632C12.4291 99.4849 14.5932 100.285 17.4022 99.974C18.5584 99.848 20.8115 99.3737 21.5675 99.0995C21.6713 99.055 22.1011 98.9216 22.531 98.7956C22.9609 98.6696 23.3907 98.5288 23.4945 98.4843C23.5983 98.4398 23.7835 98.3805 23.9021 98.3435C24.6507 98.1508 27.808 96.9872 28.3194 96.7204C28.3861 96.6833 28.7715 96.5202 29.1717 96.3498C32.8997 94.7637 36.9242 92.2438 41.3563 88.7233C43.7798 86.7963 46.1589 84.4395 47.3522 82.7719C47.6412 82.3642 47.7524 82.3791 48.034 82.8386C48.4787 83.5723 49.7387 85.1213 50.3168 85.6401C50.6577 85.9514 50.7022 86.1441 50.4576 86.2923C49.0346 87.1521 48.2416 87.7524 47.3151 88.6714C45.5364 90.4576 44.7063 92.5106 45.0101 94.3857C45.3214 96.2683 46.4035 97.6468 48.4713 98.7734C49.5905 99.3885 51.347 99.8258 53.3481 99.9888C56.0533 100.211 59.8851 99.559 62.9979 98.3509C63.2203 98.262 63.4871 98.1656 63.5908 98.1285C63.8947 98.0322 65.4437 97.3503 65.9996 97.0761C66.548 96.8019 67.0298 96.7204 68.853 96.5721C71.0839 96.3868 73.6631 95.9644 75.5234 95.4752C75.9088 95.3789 76.3461 95.2677 76.4869 95.2381C77.1169 95.0972 79.1847 94.3487 80.1185 93.9262C82.1122 93.022 83.9651 91.762 85.2325 90.465C85.5882 90.0945 85.6475 90.0796 86.0848 90.2279C87.1002 90.5762 88.8493 90.7615 90.0722 90.6429C90.9764 90.554 91.4285 90.4576 92.4958 90.1093C95.7569 89.0568 98.4991 86.1367 99.4923 82.6755C100.211 80.163 100.159 78.3175 99.2922 75.894C98.5584 73.841 96.8908 71.7658 94.9786 70.5354C94.2375 70.0685 93.2443 69.5719 92.5699 69.3496C91.2358 68.9123 90.7689 68.8382 89.1828 68.7937C87.5523 68.7567 87.6783 68.816 87.3967 67.9636C87.3077 67.6968 87.1373 67.2003 87.0038 66.8519C86.8778 66.5036 86.7296 66.1033 86.6777 65.9625C86.2923 64.9323 85.3881 63.0276 84.6396 61.7009C84.017 60.5743 82.8979 58.8845 82.0752 57.8098C77.5616 51.9029 71.2988 47.2707 63.5538 44.1134C61.8788 43.4315 60.3742 42.9201 58.6622 42.4309C57.7283 42.1715 56.8538 41.9344 56.3646 41.8084C55.238 41.5193 52.6514 41.082 50.8801 40.8819C49.6646 40.7411 46.4776 40.5855 46.1145 40.6373C45.6327 40.7189 45.6401 40.7708 45.6105 38.4954C45.5882 37.354 45.566 36.146 45.5586 35.7976L45.5438 35.1676L45.8773 35.0713C46.8482 34.7822 48.3824 34.2857 48.5454 34.2041C48.6492 34.1449 49.2644 33.8855 49.9166 33.6112C51.8436 32.796 53.9484 31.6694 55.957 30.3576C56.9575 29.7053 59.6479 27.7561 60.0704 27.3707C60.1519 27.2966 60.3742 27.1113 60.5669 26.9557C62.0641 25.755 65.1102 22.7311 66.1182 21.4489C66.2145 21.3229 66.5629 20.8856 66.889 20.4854C69.1124 17.7357 70.9579 14.4154 71.699 11.8213C72.1215 10.3316 72.203 9.76835 72.2104 8.22675C72.2104 6.89268 72.1956 6.72221 72.0177 6.06258C71.8102 5.28437 71.5286 4.58028 71.2692 4.15782C71.1802 4.00959 71.0839 3.83913 71.0617 3.77984C70.9727 3.55008 70.0166 2.50505 69.5126 2.09001C68.3194 1.10427 66.4443 0.40018 64.6655 0.259361C63.9762 0.20748 63.7984 0.163011 63.8502 0.066661C63.8799 0.0296034 63.5834 -4.27499e-05 63.1313 0.00736878C62.6866 0.0147803 62.4495 0.0370149 62.5532 0.066661C62.7237 0.118542 62.7089 0.125953 62.4421 0.170422C62.279 0.192657 61.8936 0.237126 61.5897 0.259361C60.0555 0.385357 58.0693 0.822637 56.1571 1.46003L55.1343 1.80096L54.8601 1.6379C53.5779 0.874517 52.0437 0.370534 50.6577 0.259361C50.0352 0.20748 49.8647 0.163011 49.9166 0.066661C49.9462 0.0296034 49.5905 -4.27499e-05 49.0494 -4.27499e-05C48.5158 -4.27499e-05 48.1823 0.0296034 48.2342 0.066661ZM50.1167 3.36479C50.591 3.40926 51.0061 3.47596 51.0357 3.4982C51.1247 3.59455 50.9838 3.69831 50.2649 4.0763C48.6492 4.94344 46.196 6.51469 45.7439 6.9742C45.5067 7.21878 45.2844 7.745 45.2844 8.07111C45.2844 8.36757 45.6031 8.99014 45.8699 9.21248C46.1812 9.47189 46.7519 9.64235 47.078 9.56082C47.4856 9.46447 47.5819 9.41259 48.5899 8.75297C49.8425 7.93029 51.0357 7.18914 51.1098 7.18914C51.1247 7.18914 51.3766 7.04832 51.6731 6.87044C52.2809 6.5221 53.5927 5.86247 54.5488 5.44743C54.8971 5.2992 55.2455 5.13614 55.3196 5.09909C55.4011 5.05462 55.5493 4.99533 55.6531 4.96568C55.7569 4.92862 56.0311 4.83227 56.2534 4.74333C57.4244 4.29123 59.3663 3.75019 60.6633 3.52784C63.324 3.06833 65.7995 3.35738 67.2077 4.29864C68.0526 4.86933 68.5566 5.53637 68.8827 6.55175C69.0531 7.07055 69.0754 7.25584 69.0754 8.21934C69.0754 9.42742 69.0161 9.76094 68.5195 11.3396C68.1119 12.6366 67.5931 13.7706 66.7185 15.2677C66.1404 16.2683 65.0213 17.8914 64.3987 18.6399C64.3246 18.7215 64.08 19.0179 63.8428 19.307C62.4643 20.9746 60.1074 23.3018 58.2916 24.7841C56.8167 25.9848 54.5488 27.5931 53.2147 28.3787C52.9108 28.5566 52.5773 28.7567 52.4736 28.8234C51.7843 29.2532 49.5238 30.3872 48.4343 30.8467C47.2781 31.3359 46.7815 31.5212 45.7661 31.8325C45.277 31.9807 44.7285 32.1512 44.5506 32.2104C44.3653 32.2697 44.1504 32.3142 44.0689 32.3142C43.7872 32.3142 42.9646 32.6107 42.72 32.796C42.2753 33.1369 42.1419 33.4482 42.1567 34.1374C42.1567 34.471 42.2012 34.8786 42.2456 35.0416C42.3716 35.5308 42.5421 37.5319 42.5421 38.5769C42.5347 40.3705 42.2234 42.3346 41.7194 43.6538C41.6379 43.8762 41.5416 44.143 41.5119 44.2468C41.3933 44.6247 40.9042 45.6179 40.5262 46.2405C38.8141 49.1013 36.0274 51.4211 32.6107 52.8441C32.0993 53.0517 31.5656 53.274 31.4248 53.3259C31.284 53.3703 31.0468 53.4593 30.906 53.5112C30.3576 53.7113 28.4528 54.1708 27.5708 54.3264C25.3474 54.7044 23.0943 54.7711 19.1587 54.5858C15.616 54.4154 13.8669 54.2078 11.4137 53.6594C10.2872 53.4074 8.55286 52.77 7.65606 52.2809C5.67719 51.1914 4.31346 49.6646 3.67607 47.8191C2.76446 45.188 2.83116 42.6385 3.89842 39.4367C4.44687 37.8061 4.97309 36.7463 6.32199 34.5747C6.60363 34.1226 8.04887 32.2475 8.59733 31.6101C9.7387 30.3057 11.1617 28.9271 12.5625 27.7635C13.1406 27.2818 15.0824 25.8662 15.1639 25.8662C15.1862 25.8662 15.3122 25.7847 15.4382 25.6883C16.6611 24.7841 20.0111 23.1536 21.4563 22.7533C21.5823 22.7237 21.7824 22.6644 21.901 22.6199C23.4797 22.1085 24.8286 21.9084 26.7185 21.9084C28.186 21.9084 29.1569 21.99 30.239 22.2049C31.158 22.3902 32.3883 22.7533 33.1665 23.0869C33.2925 23.1387 33.626 23.2351 33.9077 23.3092C34.345 23.4204 34.4784 23.4278 34.7452 23.3537C35.3752 23.1758 35.5901 22.8942 36.8723 20.5669C37.2651 19.8554 38.2953 18.3361 38.9105 17.5653C39.8814 16.3424 40.4002 15.7791 41.8528 14.3042C42.6014 13.5482 43.2758 12.8219 43.3574 12.6885C43.5871 12.3179 43.5575 11.6435 43.3129 11.2136C43.0387 10.7541 42.6607 10.5243 42.1122 10.4724C41.423 10.4057 41.1636 10.5762 39.7702 11.9622C37.4504 14.2746 35.5456 16.6611 34.1374 19.0253C33.8632 19.4849 33.6112 19.8628 33.5742 19.8628C33.5371 19.8628 33.3741 19.8184 33.2258 19.7591C32.2179 19.3959 30.7578 19.0772 29.2014 18.8845C28.3194 18.7808 25.7328 18.7585 24.7026 18.8475C24.1245 18.8993 24.0133 18.8919 24.0133 18.803C24.0133 18.7066 24.7248 17.7431 25.4289 16.876C26.4443 15.6457 28.475 13.5556 29.6461 12.5403C30.9208 11.4285 31.0913 11.2877 31.825 10.7318C32.2401 10.4132 32.7218 10.0352 32.9071 9.88693C33.5519 9.36813 36.309 7.58195 37.5393 6.87785C38.073 6.58139 39.9777 5.63272 40.541 5.38814C40.8078 5.27696 41.1265 5.13614 41.2451 5.08426C41.3711 5.03238 41.6157 4.92862 41.801 4.85451C41.9862 4.7878 42.216 4.69145 42.3198 4.6544C42.8312 4.44687 44.3135 3.99477 45.1732 3.77984C45.8995 3.60196 46.6703 3.46855 47.5819 3.37961C48.79 3.25362 49.0791 3.25362 50.1167 3.36479ZM50.5095 43.9874C52.6514 44.269 54.0226 44.4839 54.8823 44.684C55.0454 44.7211 55.4159 44.81 55.6976 44.8767C55.9866 44.936 56.4017 45.0472 56.624 45.1065C56.8464 45.1658 57.2021 45.2621 57.4022 45.3214C58.4695 45.6105 60.9079 46.4109 61.4786 46.6555C61.6045 46.7074 61.8343 46.7963 61.9974 46.863C63.5612 47.4634 66.3924 48.8123 67.5931 49.5238C67.8969 49.7016 68.2008 49.8721 68.2601 49.9018C68.9123 50.2279 71.1358 51.7102 72.4476 52.7033C75.1009 54.7044 77.7543 57.3355 79.6516 59.848C81.7046 62.5755 83.3055 65.6142 84.3876 68.8456C84.7137 69.8165 84.8249 70.0611 85.1732 70.528C85.6031 71.0987 86.1589 71.5063 86.8482 71.7583C87.2114 71.8917 87.4708 71.914 88.753 71.9288C89.8647 71.9362 90.3687 71.9733 90.7541 72.0696C91.3174 72.2104 91.8213 72.3661 92.0289 72.4773C92.103 72.5069 92.3105 72.6181 92.4958 72.707C93.9855 73.463 95.2677 74.7526 95.9792 76.2201C96.4239 77.1243 96.5277 77.4652 96.7204 78.5251C96.9056 79.5404 96.9056 79.7998 96.7204 80.8597C96.4758 82.2975 96.0607 83.2684 95.1713 84.4691C93.8743 86.2034 91.6286 87.3967 89.5312 87.4634C88.5529 87.5004 87.7376 87.4634 87.6116 87.3892C87.5301 87.3374 87.5597 87.2114 87.7746 86.7074C88.3231 85.403 88.7085 83.9355 88.9531 82.2308C89.0939 81.2377 89.0865 76.4647 88.9457 76.1163C88.6788 75.4715 88.2045 75.1084 87.5449 75.0342C87.0631 74.9749 86.4628 75.2862 86.1663 75.7383L85.944 76.0644L85.9366 78.6659C85.9366 81.2599 85.9069 81.6305 85.6327 82.9349C85.4771 83.6316 85.3511 84.0689 85.062 84.8619C83.9355 87.9155 81.4674 90.1537 77.7098 91.5249C76.2942 92.0437 76.2571 92.0585 76.0051 92.1252C75.8866 92.1549 75.516 92.2586 75.1899 92.3476C74.5228 92.5254 74.3968 92.5551 73.0405 92.8145C71.2395 93.1628 67.0446 93.689 66.133 93.6816C65.8736 93.6816 65.755 93.7261 64.5543 94.2968C63.6353 94.7267 62.6644 95.1565 62.405 95.2381C62.3012 95.2751 62.0344 95.3715 61.8121 95.4604C60.9449 95.7939 59.4181 96.2386 58.4028 96.4461C56.5944 96.8241 56.6388 96.8241 54.7341 96.8241C53.1109 96.8241 52.7848 96.8019 52.14 96.6611C50.2056 96.246 49.0198 95.6309 48.412 94.7267C48.1452 94.3264 48.1378 94.2894 48.1378 93.6446C48.1378 93.1035 48.1749 92.896 48.3157 92.5699C48.7233 91.6138 49.8202 90.4576 51.1617 89.5608C51.9622 89.0272 53.3778 88.2712 53.5779 88.2712C53.6446 88.2712 53.8002 88.3231 53.9188 88.3898C56.4313 89.7387 57.7357 90.1315 58.4621 89.7609C59.5886 89.1902 59.5516 87.456 58.4028 86.9594C58.262 86.9001 57.8098 86.7222 57.3948 86.5666C55.9792 86.0329 54.5265 85.1806 53.3703 84.2097C50.2056 81.5341 48.3972 77.6209 48.3972 73.4482C48.3972 71.4026 48.8345 69.4015 49.6942 67.5338C49.8869 67.1113 50.0574 66.637 50.0796 66.4813C50.1612 65.8884 49.7609 65.1991 49.1606 64.8953C48.6492 64.6359 47.8784 64.7989 47.4263 65.251C47.2262 65.4511 46.8482 66.17 46.5443 66.926C46.4554 67.1484 46.3516 67.4152 46.3072 67.5189C45.9811 68.3416 45.6253 69.8017 45.3955 71.2618C45.2399 72.2846 45.2473 74.6859 45.403 75.6939C45.5512 76.6351 45.7365 77.5245 45.9514 78.3472L46.1219 78.992L45.6327 79.7554C44.9064 80.8968 44.1949 81.7713 42.6162 83.4537C40.9264 85.2621 35.931 89.0643 32.8108 90.932C32.2697 91.2581 31.6101 91.6435 31.3507 91.7917C30.8245 92.0807 28.0526 93.4593 27.9859 93.4593C27.9636 93.4593 27.7339 93.5556 27.4819 93.6742C26.6073 94.0819 24.962 94.7044 23.7168 95.0972C23.45 95.1862 23.1165 95.2973 22.9757 95.3492C22.3679 95.579 20.3224 96.1793 19.4182 96.3943C18.262 96.6759 17.9951 96.7278 17.1058 96.8241C15.2899 97.0316 14.193 96.6759 13.4815 95.6383C12.5328 94.2523 12.4217 92.9182 13.148 91.4508C13.9188 89.8721 16.1571 87.5968 18.7215 85.7884C19.0031 85.5882 19.2477 85.403 19.2699 85.3807C19.2922 85.3511 19.6405 85.1065 20.0407 84.8249C21.649 83.728 22.0418 83.4018 22.2642 82.9572C22.5458 82.4013 22.4272 82.0678 20.9375 79.1921C20.2112 77.7839 19.5071 75.7087 19.1736 74.004C18.8475 72.3142 18.7659 71.5879 18.6992 69.483C18.6251 67.2003 18.8845 64.6877 19.3959 62.6644C19.7443 61.2784 20.2853 59.6479 20.6485 58.8845C20.7448 58.6696 20.8263 58.4769 20.8263 58.4472C20.8263 58.425 20.9079 58.2694 21.0116 58.1063L21.1969 57.8098H22.8126C25.7254 57.8098 28.6084 57.4615 30.6466 56.876C30.8541 56.8167 31.2025 56.7129 31.4248 56.6462C31.8473 56.5277 32.1437 56.4239 32.6477 56.2312C32.8108 56.1645 33.1814 56.0237 33.463 55.9125C37.0353 54.5414 40.4076 51.977 42.4383 49.1013C42.8386 48.538 43.5056 47.4782 43.5056 47.4115C43.5056 47.3818 43.602 47.204 43.7131 47.0113C43.9874 46.5369 44.4024 45.5586 44.6915 44.6915C44.8174 44.3061 44.9805 43.9429 45.0472 43.8836C45.2177 43.7502 49.2495 43.8243 50.5095 43.9874Z" fill="black"/>
<path d="M16.3127 34.6933C15.7791 34.8563 15.0009 35.4715 14.7785 35.9088C14.3561 36.7166 14.282 37.4207 14.5339 38.1322C14.9193 39.244 15.7865 39.9184 16.9205 39.9999C18.2619 40.0963 19.4181 39.2736 19.7591 37.984C19.8851 37.5171 19.8851 37.1168 19.7591 36.6499C19.6257 36.1385 19.4848 35.8865 19.092 35.4492C18.6103 34.9156 18.0174 34.6562 17.1947 34.634C16.8463 34.6266 16.4535 34.6488 16.3127 34.6933Z" fill="black"/>
<path d="M61.1079 56.3276C60.0554 56.3943 59.0475 56.5722 57.958 56.8834C57.7727 56.9353 57.4836 57.0169 57.3058 57.0613C56.698 57.2318 56.1792 57.9137 56.1792 58.5436C56.1792 58.8549 56.4164 59.4034 56.6461 59.6479C57.0389 60.0704 57.7504 60.2112 58.4027 60.0037C58.7806 59.8777 59.4329 59.7147 60.0332 59.5887C60.2555 59.5368 60.9596 59.4701 61.5896 59.4404C62.768 59.3737 63.0719 59.307 63.4647 58.9957C64.1021 58.4917 64.1466 57.3133 63.5388 56.713C63.146 56.3128 62.5976 56.2312 61.1079 56.3276Z" fill="black"/>
<path d="M51.7622 60.2779C51.1248 60.5298 50.769 61.0487 50.769 61.7527C50.769 62.2864 51.0062 62.7385 51.4435 63.0349C51.7251 63.2276 51.8289 63.2499 52.2884 63.2499C52.6664 63.2499 52.8665 63.2128 53.0296 63.1091C53.4001 62.8793 53.6595 62.5384 53.7781 62.1159C53.8893 61.7379 53.8893 61.6786 53.7781 61.3081C53.5039 60.4483 52.57 59.9666 51.7622 60.2779Z" fill="black"/>
</g>
<defs>
<clipPath id="clip0_133_45">
<rect width="100" height="100.056" fill="white"/>
</clipPath>
</defs>
</svg>
