<svg width="151" height="153" viewBox="0 0 151 153" fill="none" xmlns="http://www.w3.org/2000/svg">
<g clip-path="url(#clip0_81_35)">
<path d="M28.2251 0.670296C24.9355 2.1964 23.3246 5.58773 24.4098 8.67385C24.6642 9.41995 30.633 18.39 37.653 28.6149L50.4384 47.2164L49.6753 48.539C49.2005 49.3869 48.6579 49.8786 48.234 49.8786C47.0131 49.8956 44.6222 51.2182 43.4183 52.5069L42.2483 53.7786L39.7896 51.0656C38.433 49.5734 31.6504 41.9429 24.7151 34.1089C11.1836 18.8479 10.641 18.3392 7.63968 18.3392C2.75616 18.3392 -0.584311 23.3583 1.45049 27.6653C1.75571 28.2758 8.4536 35.3976 16.3385 43.4859L30.6838 58.1874L29.039 58.6622C26.8347 59.2726 24.4438 61.4091 23.4603 63.6305C22.799 65.1057 22.5107 65.4109 21.3237 65.767C19.2889 66.3775 17.0506 68.7175 16.3215 71.0236C15.8806 72.448 15.5585 72.9397 15.0837 72.9397C12.6758 72.9397 12.2519 76.8567 13.6593 85.8098C17.0676 107.243 30.1582 125.76 49.1497 136.019L51.7271 137.409L51.8627 142.564C52.0153 149.313 52.8293 150.991 56.5089 152.246C58.7302 152.992 106.26 152.772 107.922 151.992C111.126 150.517 111.822 148.77 111.822 142.326V137.426L114.789 135.849C134.323 125.455 147.905 105.327 150.466 82.9441C151.28 75.7884 150.805 72.9397 148.787 72.9397C148.245 72.9397 148.109 72.7193 148.109 71.8375C148.092 69.3957 145.565 65.9535 143.174 65.0887C142.344 64.7835 141.988 64.3935 141.699 63.444C141.089 61.4091 139.512 59.5439 137.579 58.5774C136.341 57.9669 135.476 57.2039 134.713 56.0678C133.289 53.9652 130.796 52.5578 128.287 52.4391C126.659 52.3712 126.387 52.2356 125.2 50.9299C123.844 49.4377 121.809 48.1829 120.707 48.1829C120.283 48.1829 119.656 47.5216 118.909 46.2499C116.909 42.8585 112.568 41.1629 109.058 42.3837C108.091 42.7229 107.871 42.672 107.091 41.9259C105.802 40.6881 103.784 39.9759 101.614 39.9759C99.7823 39.9759 99.6128 39.9081 98.6801 38.7381C95.8484 35.2111 90.3035 34.838 86.98 37.9411C86.2 38.6702 85.9457 38.7381 85.2504 38.4328C83.6396 37.7037 81.4352 37.585 79.536 38.1276C77.8912 38.6024 77.586 38.6024 76.2125 38.1276C73.7708 37.2967 70.5151 37.975 68.582 39.7215C68.0224 40.2302 67.6324 40.2811 66.3776 40.0437C64.6142 39.7215 63.3424 39.8742 61.528 40.6372C59.8663 41.3324 61.2906 43.3164 47.5896 21.154L35.686 1.89118L33.8378 0.958559C31.7012 -0.126669 30.1242 -0.211452 28.2251 0.670296ZM32.0743 5.02816C32.7864 5.63861 56.6445 44.1133 56.441 44.3338C56.3732 44.3846 55.8645 44.5372 55.288 44.6559L54.2536 44.8594L41.6548 26.5123C34.7365 16.4231 28.9373 7.82602 28.7677 7.4021C27.9877 5.33338 30.3956 3.6038 32.0743 5.02816ZM9.53883 23.8501C11.5228 25.7662 37.2121 54.9147 37.2121 55.2369C37.2121 55.4234 36.7713 55.7456 36.2456 55.9661C35.2791 56.3561 35.2113 56.3052 27.1738 48.1151C22.7142 43.5877 16.1011 36.8728 12.4723 33.1932C5.23183 25.8171 5.35053 25.9527 5.33357 24.8675C5.31662 22.7479 7.77534 22.1544 9.53883 23.8501ZM94.7801 41.2137C95.3227 41.6716 95.9501 42.672 96.1875 43.4351C96.7301 45.2833 97.8153 45.809 99.4601 45.012C102.038 43.7912 103.903 44.4525 105.819 47.2842C106.599 48.4203 107.684 48.4373 109.312 47.3351C112.11 45.4359 115.552 47.1147 115.552 50.3534C115.552 51.7778 116.773 52.5917 118.876 52.5917C120.961 52.5917 122.403 53.7108 122.793 55.61C123.081 57.1191 124.454 57.8991 125.862 57.3904C128.49 56.4578 131.491 57.6448 131.491 59.6457C131.491 60.68 132.797 62.0874 133.73 62.0874C135.815 62.0874 137.596 63.817 137.596 65.8518C137.596 67.3949 138.681 68.8701 139.834 68.8701C141.665 68.8701 143.7 70.7353 143.7 72.414C143.7 72.8888 138.579 72.9397 93.1523 72.9397C59.3406 72.9397 42.3839 73.0584 41.9431 73.2788C40.6035 74.008 40.417 75.2458 41.4004 77.0941C41.4344 77.145 65.0381 77.2467 93.8475 77.3484L146.244 77.518L146.142 80.0615C146.023 82.8085 145.294 87.9294 144.701 89.9812L144.344 91.2529H136.239C126.37 91.2529 125.472 91.5412 126.201 94.4408C126.506 95.7125 127.1 95.8143 135.29 96.0008L143.005 96.1704L141.564 99.7652C136.222 113.059 125.641 124.861 112.669 131.983L109.956 133.475L91.694 133.645L73.4316 133.814L72.7873 134.611C71.9734 135.629 71.9734 136.409 72.7873 137.426L73.4316 138.223L90.4222 138.325L107.413 138.409V142.479C107.413 146.362 107.379 146.6 106.582 147.397L105.751 148.227H81.8591C53.2871 148.227 56.4241 148.906 56.2545 142.683L56.1528 138.443L61.2906 138.325C66.8016 138.223 67.7342 137.884 67.7342 136.019C67.7342 134.086 66.9203 133.831 60.0528 133.645L53.6601 133.475L51.2862 132.135C39.5013 125.505 30.226 116.044 24.5455 104.852C22.7311 101.274 20.9337 97.0691 20.9337 96.3738C20.9337 96.1195 35.5673 95.9838 70.4133 95.916C118.519 95.8312 119.91 95.8143 120.605 95.1869C121.606 94.2712 121.521 92.8299 120.419 91.9481L119.537 91.2529H69.4129H19.2889L18.7802 88.9638C18.1698 86.2846 17.6102 82.0285 17.4915 79.3832L17.4067 77.518L26.1903 77.4332C35.7539 77.3315 36.1947 77.2467 36.1947 75.3645C36.1947 73.1432 35.4486 72.9397 27.6655 72.9397C19.8146 72.9397 19.5941 72.8719 21.5781 70.871C22.392 70.074 22.8668 69.8875 24.0877 69.8875C26.2581 69.8875 27.3773 68.921 27.3773 67.0727C27.3773 63.9866 29.7342 62.24 32.5491 63.1896C34.3973 63.817 35.6352 63.427 36.2117 62.0535C37.0934 59.9339 40.1287 58.9335 41.8074 60.2052C43.4692 61.46 45.6905 60.4596 45.6905 58.4587C45.6905 55.8982 47.437 54.2873 50.201 54.2873C51.8966 54.2873 52.5071 53.7786 53.1175 51.8625C53.8127 49.709 55.7288 48.6068 57.8315 49.1834C59.5102 49.6582 60.5954 49.0477 61.1719 47.3351C62.0367 44.7577 65.0211 43.5198 66.9033 44.9442C67.8868 45.6903 69.3451 45.5886 70.0233 44.7407C72.2107 42.0107 73.6012 41.6716 76.433 43.1638L77.8573 43.9098L79.7395 42.9603C81.8761 41.875 82.8595 42.0107 84.7587 43.6216C86.2339 44.8594 87.6583 44.6559 88.6418 43.0959C90.4731 40.1624 92.7283 39.4842 94.7801 41.2137Z" fill="black"/>
</g>
<defs>
<clipPath id="clip0_81_35">
<rect width="151" height="153" fill="white"/>
</clipPath>
</defs>
</svg>
