<svg width="100" height="98" viewBox="0 0 100 98" fill="none" xmlns="http://www.w3.org/2000/svg">
<g clip-path="url(#clip0_170_20)">
<path d="M57.4543 0.240846C56.9652 0.492838 56.4686 0.981998 55.7497 1.93067C55.3124 2.50877 54.8455 3.19063 54.8455 3.24251C54.8455 3.25734 54.7417 3.42039 54.6231 3.60568C54.3711 3.97625 53.4373 5.87361 53.252 6.39241C52.7628 7.77096 52.5479 8.53434 52.333 9.69054C52.0143 11.4322 51.9476 13.4037 52.1403 15.1751C52.3404 17.0131 52.6813 18.4065 53.3039 19.9555C53.6374 20.7782 54.3859 22.3198 54.6305 22.6829C54.7491 22.8608 54.8455 23.0165 54.8455 23.0313C54.8455 23.1054 55.6237 24.2023 56.098 24.7952C56.3871 25.151 56.6242 25.5141 56.6242 25.5883C56.6242 25.6698 56.5575 25.8032 56.4686 25.8921L56.3204 26.0404L55.4087 25.5957C54.9122 25.3437 54.4675 25.1436 54.4156 25.1436C54.3711 25.1436 54.2229 25.0991 54.0895 25.0398C53.8523 24.9435 53.415 24.8101 52.7035 24.6248C52.1254 24.4765 50.8358 24.3283 50.065 24.3283C49.2942 24.3283 48.0046 24.4765 47.4265 24.6248C46.715 24.8101 46.2777 24.9435 46.0406 25.0398C45.9072 25.0991 45.7663 25.1436 45.7293 25.1436C45.6107 25.1436 44.373 25.7365 43.9135 26.0181C43.2316 26.4258 42.4089 27.0483 41.8753 27.5523C41.2675 28.1304 41.1638 28.1897 40.9192 28.0859C40.808 28.0489 40.2077 28.0118 39.5777 28.0044C38.466 27.997 38.4067 28.0044 37.6878 28.249C36.954 28.4936 36.1536 28.8493 35.6348 29.1532C35.1901 29.42 35.1604 29.3607 35.1012 28.2416C34.9974 26.2849 34.4415 23.6539 33.7967 22.0678C33.567 21.5119 32.811 20 32.5961 19.6813C31.7586 18.4213 30.7951 17.4134 29.9057 16.8649C29.5796 16.6574 28.6976 16.2646 28.3493 16.1682C27.8008 16.0126 26.3185 16.0348 25.7552 16.2053C23.2353 16.9761 21.0489 19.6813 19.9965 23.3277C19.7297 24.2542 19.6704 24.3209 19.3813 24.0467C19.2553 23.9355 18.8773 23.5872 18.529 23.261C18.1806 22.9423 17.5507 22.4087 17.1208 22.0752C16.3871 21.5045 14.8973 20.4743 14.801 20.4743C14.7788 20.4743 14.5194 20.3335 14.2155 20.1556C13.4891 19.7257 12.4886 19.2811 11.6363 18.992C7.53028 17.6061 4.27662 18.4213 2.83138 21.1932C2.0754 22.6385 2.03093 25.0546 2.7202 27.2559C2.99443 28.123 3.12043 28.4343 3.76523 29.7387C4.69908 31.6435 5.88492 33.2962 7.70075 35.2232C7.95274 35.4826 8.15285 35.7198 8.15285 35.7495C8.15285 35.8013 7.56734 36.0385 7.42652 36.0385C7.16712 36.0385 5.0993 36.8538 4.41003 37.2244C3.83193 37.5356 2.72761 38.2768 2.2681 38.6622C1.29719 39.4775 0.392984 40.8412 0.111346 41.9159C-0.0294728 42.4717 -0.0368843 43.9688 0.103935 44.5025C0.504157 46.0218 1.73447 47.5116 3.55771 48.6826C5.61811 50.0018 8.93847 51.0172 11.7845 51.1951C13.2594 51.284 13.3335 51.3137 13.0889 51.6991C13.0296 51.788 12.8814 52.0474 12.7628 52.2698L12.5331 52.6774L8.5086 52.7144C4.51379 52.7515 4.48415 52.7515 4.05428 52.922C3.55029 53.1295 3.28348 53.337 2.93514 53.8188C2.50527 54.4043 2.44598 54.7823 2.44598 56.9538C2.44598 59.4515 2.53491 59.8443 3.2316 60.5484C3.78746 61.0969 4.08392 61.1932 5.35129 61.2229C6.14433 61.2451 6.46302 61.2748 6.52232 61.3489C6.59643 61.4452 6.66313 61.8084 6.9003 63.4241C7.11524 64.9286 7.51546 66.8186 7.93051 68.3157C8.01944 68.6418 8.12321 69.005 8.15285 69.131C8.21955 69.3978 9.06447 71.9399 9.17564 72.2068C9.2127 72.3105 9.30905 72.5403 9.37575 72.7256C9.53139 73.1332 9.56845 73.2221 10.1984 74.6526C13.2075 81.5527 18.2992 87.9414 24.3841 92.455C25.2364 93.085 27.3116 94.5155 27.3783 94.5155C27.4006 94.5155 27.5414 94.6044 27.697 94.7082C27.8527 94.8119 28.2233 95.0417 28.5271 95.2047C28.8236 95.3752 29.2609 95.6272 29.4906 95.7532C29.9576 96.0274 32.4182 97.2503 32.8703 97.443C33.0333 97.5097 33.4187 97.6357 33.7226 97.7246L34.2785 97.8877H44.9881H55.6978L56.0017 97.7246C56.4834 97.4726 56.7725 96.9538 56.7725 96.3683C56.7725 95.894 56.4241 95.3604 55.9572 95.1306L55.6311 94.9601H45.2105C36.4352 94.9601 34.7306 94.9453 34.3896 94.8564C34.0117 94.76 33.5818 94.5673 32.6479 94.093C32.4478 93.9892 32.0773 93.8039 31.8327 93.6779C28.6605 92.0696 25.1771 89.5868 22.4942 87.0224C22.131 86.6741 21.7382 86.3109 21.6344 86.2071C21.2194 85.8217 19.8038 84.2801 19.1293 83.4723C17.6841 81.7602 16.1573 79.5961 15.09 77.7654C14.8158 77.2985 14.5638 76.8612 14.5268 76.8019C14.4452 76.6833 12.8814 73.5112 12.7184 73.1332C12.4293 72.481 12.0143 71.4137 11.7104 70.5392C11.5844 70.1686 11.4362 69.7535 11.3843 69.6127C11.3324 69.4719 11.2286 69.1532 11.1545 68.9086C11.0878 68.664 10.9989 68.3824 10.9618 68.2787C10.8136 67.8784 10.3763 66.0255 10.154 64.9064C9.7908 63.0239 9.72409 62.6385 9.67963 62.1567C9.65739 61.9122 9.62033 61.6527 9.5981 61.5935C9.57586 61.5342 9.60551 61.423 9.67221 61.3563C9.78339 61.2451 13.037 61.2377 51.2064 61.2377C85.0326 61.2377 92.6368 61.2525 92.748 61.3341C92.874 61.423 92.874 61.4823 92.7184 62.5347C92.3478 65.1732 91.7919 67.4634 90.821 70.3168C90.569 71.0802 90.4356 71.436 90.2948 71.7621C90.2503 71.8658 89.9909 72.4736 89.7167 73.1258C89.3016 74.1115 88.0936 76.587 87.9009 76.839C87.8712 76.876 87.723 77.1428 87.5673 77.4319C87.4191 77.7135 87.2412 78.0026 87.1894 78.0693C87.1301 78.1286 87.0856 78.2101 87.0856 78.2397C87.0856 78.2694 87.0263 78.3806 86.9522 78.4917C86.8707 78.6029 86.5149 79.1439 86.1517 79.6924C84.6472 81.99 82.9574 84.0504 80.8599 86.1404C78.0435 88.9568 75.027 91.247 71.64 93.1295C70.2763 93.8929 68.5494 94.723 68.075 94.849C67.7193 94.9379 67.1189 94.9601 64.814 94.9601C63.0797 94.9601 61.8864 94.9898 61.7159 95.0417C60.9674 95.2492 60.5005 96.2423 60.8043 96.9761C60.9377 97.2874 61.4343 97.7543 61.7159 97.8284C61.8345 97.8655 63.3242 97.8877 65.0363 97.8803C68.3715 97.8803 68.3937 97.8729 69.5573 97.4504C69.8834 97.3318 72.433 96.0645 73.0778 95.7013C80.2522 91.625 85.9961 85.9774 90.0502 78.9883C91.5473 76.4165 92.6813 73.904 93.8227 70.6503C94.0005 70.1464 94.7862 67.3003 94.9566 66.5369C95.3643 64.7656 95.5866 63.476 95.7941 61.7417C95.8238 61.549 95.8831 61.3637 95.9275 61.3341C95.9794 61.297 96.5205 61.2599 97.1282 61.2377C98.1881 61.2006 98.2622 61.1858 98.6327 60.9783C99.1664 60.6892 99.6259 60.163 99.8186 59.622C99.9742 59.2069 99.9816 59.0513 99.9816 56.9909C99.9816 54.4562 99.9446 54.2709 99.3072 53.5742C98.655 52.8553 98.1139 52.7144 96.0017 52.7144H94.6453V52.5217C94.6453 52.418 94.6898 52.2401 94.7417 52.1363C95.0826 51.4619 95.4977 50.2761 95.7867 49.1199C96.2536 47.2522 96.4241 45.2807 96.2907 43.4723C96.0906 40.9005 95.8164 40.2186 94.8973 39.974C94.1265 39.7739 92.5701 39.596 91.5251 39.596H90.4282L90.3096 39.3737C90.2503 39.2551 90.1984 39.1143 90.1984 39.0624C90.1984 38.9068 89.776 37.8395 89.4573 37.1799C88.3159 34.8453 86.2407 32.8145 83.8616 31.7028C83.5355 31.5471 83.1871 31.3989 83.0834 31.3618C82.9796 31.3322 82.7128 31.2358 82.4904 31.1469C82.2681 31.058 81.942 30.9542 81.7641 30.9172C81.5862 30.8801 81.4158 30.8356 81.3861 30.8208C81.1638 30.68 79.2294 30.4947 77.9546 30.4799C77.7026 30.4799 77.6804 30.3613 77.9175 30.2872C78.1176 30.2279 79.1849 29.7017 79.7852 29.3681C80.9563 28.7233 82.5868 27.5153 83.1575 26.8705C83.6096 26.3591 83.7504 25.9737 83.7504 25.2844C83.7504 24.6248 83.6244 24.2245 83.2761 23.7724C82.9796 23.387 60.4708 0.870825 60.0335 0.529895C59.5518 0.144496 59.1664 0.0185 58.4845 0.0185C57.9879 0.0185 57.8471 0.0481461 57.4543 0.240846ZM59.5444 4.13931C60.0558 4.6507 60.4782 5.11022 60.4782 5.16951C60.4782 5.22139 60.2707 5.58456 60.0113 5.96254C59.7519 6.34794 59.4035 6.93345 59.2331 7.25956C58.7291 8.22306 58.1806 9.7943 58.1806 10.2686C58.1806 11.1358 59.1516 11.8844 59.9742 11.6472C60.4189 11.5212 60.7599 11.247 60.9155 10.8912C61.2268 10.1945 61.2935 10.0166 61.2935 9.9203C61.2935 9.6016 62.383 7.56343 62.635 7.40779C62.7239 7.3485 62.9388 7.52638 63.6874 8.28235C64.2062 8.80116 64.6287 9.2755 64.6287 9.33479C64.6287 9.38667 64.4804 9.74242 64.3026 10.1204C63.5614 11.6694 63.4058 13.6112 63.8949 15.1677C64.0357 15.6272 64.058 15.6791 64.31 16.2127C64.9251 17.5468 66.2963 18.8734 67.7193 19.5256C69.7056 20.4224 71.7289 20.3928 73.7226 19.4293C74.0561 19.2736 74.3748 19.1402 74.4341 19.1402C74.5527 19.1402 76.413 20.9561 76.413 21.0672C76.413 21.3044 74.8343 22.1715 73.7819 22.4977C72.1588 23.0165 71.9068 23.0313 71.1063 22.6311C70.1577 22.1715 68.5568 21.675 67.5562 21.549C67.3561 21.5193 66.7335 21.4749 66.1777 21.4452L65.1623 21.4008L64.6064 20.9709C63.2427 19.9259 62.2866 18.6659 61.4417 16.8056C61.1304 16.1312 60.8414 15.8273 60.3522 15.6865C59.7074 15.5012 59.0849 15.7606 58.7291 16.3609C58.5512 16.6648 58.5364 16.7537 58.5735 17.1984C58.6031 17.6357 58.8477 18.3398 59.1367 18.8512C59.1738 18.9105 59.2998 19.1402 59.411 19.3552C59.8482 20.1556 60.2485 20.7263 60.9229 21.5193C61.2045 21.8603 61.4417 22.1567 61.4417 22.1864C61.4417 22.216 61.1304 22.3865 60.7599 22.5718C60.3819 22.7496 59.8482 23.0387 59.5666 23.2092C59.2924 23.3722 59.0256 23.513 58.9737 23.513C58.6995 23.513 57.4988 21.8603 56.7799 20.5114C55.4087 17.9247 54.7565 14.8267 54.9937 12.0103C55.2309 9.20879 56.0387 6.7704 57.4765 4.57659C57.9361 3.87249 58.4549 3.20546 58.5438 3.20546C58.5809 3.20546 59.033 3.62791 59.5444 4.13931ZM69.713 14.3153C71.0767 15.6716 72.1884 16.8204 72.1884 16.8575C72.1884 17.1095 70.6098 17.3022 69.8019 17.1539C68.4604 16.902 67.2301 15.8125 66.7706 14.4858C66.4964 13.6779 66.5186 12.203 66.8151 11.7509C66.9633 11.5286 66.6298 11.2247 69.713 14.3153ZM27.9564 19.1699C28.6976 19.4738 29.335 20.0667 29.9872 21.0376C30.8544 22.3494 31.425 23.8243 31.8178 25.7736C32.1884 27.6116 32.1958 27.6561 32.1958 30.5614L32.2032 33.3481L32.4034 33.6075C32.7962 34.1189 33.5373 34.319 34.1302 34.0745C34.2785 34.0078 34.7306 33.652 35.1234 33.274C36.2722 32.1919 37.4061 31.4434 38.4586 31.0654C39.0293 30.8653 40.1188 30.8579 40.4745 31.0506C41.2305 31.4582 41.6307 31.9622 42.0013 32.9257C42.5794 34.4524 42.5053 37.4022 41.8234 39.7443C41.1712 41.9826 40.4819 43.576 39.3109 45.5623C38.8069 46.4147 38.7254 46.5851 38.5327 47.1929C38.3548 47.7561 38.3474 48.7937 38.5105 49.3718C38.5697 49.6016 38.6735 49.9648 38.7328 50.1723C38.8959 50.7949 39.0441 51.3063 39.1775 51.7732C39.2442 52.0104 39.3035 52.3068 39.3109 52.4402C39.3183 52.67 39.3035 52.6774 39.0144 52.6996L38.7032 52.7219L36.0202 50.0389L33.3372 47.3559L33.3891 47.015C33.4113 46.8297 33.4632 46.4888 33.4929 46.2664C33.5892 45.6364 33.7226 44.7989 33.8338 44.1912C33.945 43.5834 34.0784 42.7459 34.1747 42.116C34.2044 41.8936 34.2785 41.3896 34.3452 41.0042C34.8714 37.6765 34.864 37.6987 34.7306 37.3504C34.4638 36.6463 33.7448 36.2386 33.0704 36.4091C32.6331 36.5129 32.4552 36.6314 32.2032 36.965C31.929 37.3207 31.9587 37.1725 31.388 40.856C31.2398 41.8121 31.0693 42.8942 31.01 43.2648C30.9507 43.6279 30.8766 44.0874 30.8544 44.2875C30.8321 44.4802 30.7876 44.6581 30.7506 44.6729C30.7209 44.6952 29.7574 43.7761 28.6012 42.6274L26.5112 40.5373L26.5631 40.0852C26.6075 39.6553 26.6891 39.1143 26.9485 37.5208C27.0522 36.8612 27.1115 36.5277 27.3858 34.7934C27.5933 33.5112 27.7193 32.7404 27.8304 32.0733C28.0454 30.7912 27.9787 30.3761 27.4599 29.8721C26.9559 29.3681 25.9702 29.4052 25.481 29.9462C25.103 30.3687 25.1104 30.3242 24.7102 32.9405C24.6509 33.363 24.5546 33.9855 24.4953 34.3339C24.436 34.6822 24.3396 35.2974 24.2729 35.705C24.0728 36.9575 23.932 37.7061 23.8653 37.7654C23.7763 37.8617 7.47099 21.5267 7.50064 21.3711C7.53028 21.2081 8.01944 21.1784 8.81989 21.2896C9.60551 21.4008 10.0502 21.5193 11.0433 21.9047C13.9413 23.0165 16.7576 25.2177 19.2331 28.3157C19.4777 28.627 19.7889 28.9234 19.9446 29.005C20.3152 29.1903 20.8933 29.1903 21.2712 28.9976C21.8197 28.7159 22.042 28.2638 22.1606 27.1521C22.3682 25.2918 23.0945 22.9646 23.9098 21.549C24.6064 20.3557 25.6218 19.3478 26.3852 19.1106C26.8966 18.9475 27.4673 18.9698 27.9564 19.1699ZM79.6296 24.232C80.141 24.7433 80.5635 25.1955 80.5635 25.2251C80.5635 25.5067 77.5544 27.3448 76.702 27.5894C76.4649 27.6561 76.3611 27.5671 75.9609 26.9223C75.8275 26.7 75.5162 26.2701 75.2716 25.9737C74.9085 25.529 74.8418 25.403 74.9085 25.3066C74.9455 25.2399 75.0493 25.1658 75.1234 25.1584C75.4273 25.0991 77.2209 24.1578 77.8212 23.7428C78.1695 23.4982 78.503 23.2981 78.5772 23.2981C78.6439 23.2907 79.1182 23.7131 79.6296 24.232ZM13.5188 31.7102C17.9879 36.1793 21.6418 39.8777 21.6418 39.9296C21.6418 39.9814 21.5529 40.0481 21.4417 40.0704C21.1971 40.1223 19.4999 40.3891 18.8625 40.478C18.6179 40.5151 18.2177 40.5744 17.9731 40.6188C17.7285 40.6633 17.2023 40.7522 16.8095 40.8115C15.179 41.0784 14.6305 41.1673 14.4897 41.1969C14.2451 41.2414 13.8894 41.4934 13.6744 41.775C13.5262 41.9677 13.4669 42.153 13.4373 42.4791C13.3854 43.0646 13.5707 43.4723 14.0672 43.7984C14.3711 44.0133 14.4823 44.043 14.8973 44.043C15.1567 44.043 15.6237 43.9985 15.935 43.9392C16.6094 43.8058 17.4914 43.665 19.159 43.4056C19.8556 43.3018 20.7376 43.1684 21.123 43.1091C21.5084 43.0424 22.042 42.9683 22.3089 42.9312C22.5757 42.8942 22.9388 42.8349 23.1241 42.7978C23.3094 42.7534 23.68 42.7015 23.9468 42.6718L24.436 42.6274L26.489 44.6729C27.6155 45.7995 28.5345 46.7556 28.5345 46.7926C28.5345 46.8816 28.4975 46.8964 27.571 47.0446C26.8151 47.1632 26.1851 47.267 24.851 47.4819C24.4879 47.5412 23.8505 47.645 23.4206 47.7117C22.9907 47.771 22.4793 47.8599 22.2718 47.897C22.0717 47.934 21.753 47.9859 21.5677 48.0155C21.1601 48.0748 20.9229 48.1934 20.6635 48.4676C20.1076 49.0532 20.1076 49.8758 20.6635 50.4539C21.1527 50.9431 21.5084 51.0172 22.5683 50.8319C23.1241 50.7282 23.5466 50.6615 25.3328 50.3724C25.7256 50.3131 26.2221 50.2242 26.4223 50.1871C26.6298 50.1501 27.0078 50.0908 27.2746 50.0537C27.8675 49.9722 30.1132 49.6238 30.7135 49.5275C30.9952 49.483 31.1953 49.483 31.2842 49.5275C31.5214 49.6535 34.3896 52.581 34.3452 52.6477C34.3229 52.6848 33.6633 52.7144 32.8851 52.7144C32.0995 52.7144 31.3139 52.7515 31.1286 52.796C29.8167 53.0924 29.5055 54.6489 30.5949 55.4197L30.9211 55.642L63.9098 55.6568C94.8084 55.6791 96.9133 55.6865 97.0022 55.8051C97.0615 55.894 97.0912 56.272 97.0912 57.065C97.0912 58.1026 97.0763 58.199 96.9503 58.2731C96.728 58.3917 5.61811 58.3769 5.49953 58.2583C5.36612 58.1249 5.37353 55.8718 5.50694 55.7606C5.58105 55.7087 8.36778 55.6791 15.3198 55.6642L25.0215 55.642L25.3254 55.4419C25.7849 55.138 25.9702 54.7823 25.9702 54.1968C25.9627 53.8114 25.9331 53.6631 25.7849 53.4482C25.5551 53.0998 25.2438 52.8923 24.8288 52.796C24.6213 52.7441 22.9018 52.7144 20.2929 52.7144C16.6539 52.7144 16.0832 52.6996 16.0832 52.6033C16.0832 52.4699 16.6242 51.7954 17.3061 51.0839C17.9583 50.4095 18.0843 50.1723 18.0843 49.6535C18.0843 49.1421 17.7878 48.6455 17.3283 48.4009C17.0393 48.2453 16.9355 48.2379 16.1944 48.2675C15.7497 48.2898 14.5786 48.3046 13.6003 48.2972C12.1699 48.2898 11.614 48.2601 10.7543 48.1267C8.83471 47.8303 7.30794 47.3633 5.81822 46.6148C4.07651 45.7402 2.85361 44.3468 2.85361 43.2277C2.85361 42.3087 3.74299 41.0932 5.00295 40.2779C5.38835 40.0333 6.50749 39.4478 6.74466 39.3737C6.84842 39.3366 7.11524 39.2403 7.33758 39.1514C8.27885 38.7808 10.1243 38.3583 11.3991 38.2249C12.4441 38.1212 13.0445 37.5801 13.0445 36.75C13.0445 36.1349 12.8518 35.8384 12.0587 35.2084C8.93847 32.7478 6.41114 29.3385 5.53658 26.4035C5.12895 25.0546 5.01036 23.5872 5.29941 23.5872C5.35129 23.5872 9.05706 27.241 13.5188 31.7102ZM66.9633 24.4395C68.0824 24.5877 68.7939 24.7952 69.7204 25.2251C71.9587 26.2849 73.6781 28.2045 74.5231 30.5985C74.6861 31.058 74.6416 31.1914 74.2859 31.3396C73.1742 31.7991 72.2551 32.3179 71.3287 33.0146C70.9729 33.2814 70.6765 33.3704 70.6172 33.237C70.5801 33.1332 69.7723 32.5032 69.2238 32.1475C68.6902 31.7991 67.6378 31.2581 67.0967 31.0431C66.9188 30.9764 66.652 30.8727 66.5038 30.8134C66.1406 30.6726 65.5625 30.5169 64.7769 30.3613C63.7986 30.1538 61.2935 30.176 60.2929 30.3909C58.9959 30.6726 58.4845 30.843 57.3728 31.3767C55.3272 32.3476 53.4595 34.0448 52.3255 35.9422C52.1551 36.2312 51.9698 36.4906 51.9105 36.5129C51.8586 36.5351 51.5844 36.4906 51.3102 36.4165C51.0359 36.335 50.5912 36.2238 50.3244 36.1571C49.65 36.0015 47.7304 35.9348 46.7298 36.0385C46.2851 36.083 45.7812 36.1275 45.6181 36.1349L45.3216 36.1497L45.2772 35.038C45.2327 33.9559 45.1141 33.1258 44.914 32.518C44.662 31.725 44.3433 30.9839 44.0469 30.5021C43.8764 30.2131 43.7282 29.9388 43.7282 29.9018C43.7282 29.8054 44.3063 29.294 44.8844 28.8864C45.6626 28.3231 46.9818 27.745 48.0639 27.4708C48.731 27.3003 51.1545 27.2781 51.8438 27.4263C53.163 27.7302 54.4082 28.2786 55.4013 29.005C56.2759 29.6424 56.7502 29.7313 57.3728 29.3978C57.6544 29.2421 57.8249 29.0643 58.1584 28.5603C58.655 27.8117 60.0113 26.4184 60.6783 25.9663C61.9086 25.1436 63.2131 24.647 64.6657 24.4395C65.5773 24.3135 66.0072 24.3135 66.9633 24.4395ZM64.3693 33.2962C66.3852 33.7335 67.7267 34.4673 69.2016 35.9348C70.0243 36.75 70.3059 36.9279 70.7728 36.9279C71.2546 36.9279 71.5362 36.7648 72.2848 36.0607C73.693 34.7415 75.2716 33.9188 77.08 33.5853C77.7322 33.4593 79.5851 33.4667 80.267 33.5853C83.2168 34.1189 85.6626 36.0237 86.9744 38.8104C87.2042 39.2996 87.3079 39.6183 87.2931 39.7739C87.2709 39.9963 87.2561 40.0037 86.5297 40.1964C85.5143 40.4632 84.5805 40.7893 83.8245 41.1302C83.6392 41.2118 83.3057 41.36 83.0834 41.4563C82.2014 41.8343 79.6963 43.3463 79.1849 43.8058C78.8292 44.1319 78.3548 44.4877 78.2807 44.4877C78.2362 44.4877 77.8879 44.169 77.5099 43.7761C76.6724 42.9164 75.7237 42.0863 74.7973 41.4267C74.4193 41.1525 74.0932 40.9301 74.0784 40.9301C74.0635 40.9301 73.9079 40.8338 73.73 40.7152C73.0556 40.2705 71.5362 39.5442 70.1873 39.0402C68.6309 38.4473 66.148 38.0396 64.1469 38.0396C62.1088 38.0396 59.8112 38.4176 58.1065 39.0402C54.801 40.2483 52.0291 42.2123 49.8427 44.8953C49.309 45.5549 48.3974 46.8668 48.3974 46.9779C48.3974 47.0076 48.353 47.0891 48.2937 47.1484C47.9602 47.5338 46.9225 49.8536 46.6187 50.8986C46.5816 51.0172 46.4556 51.4693 46.337 51.8992L46.1221 52.6774L44.3063 52.6996L42.483 52.7144L42.3274 52.1808C42.0458 51.1951 41.7789 50.239 41.6159 49.6016C41.5418 49.3348 41.4602 49.0383 41.4306 48.9346C41.2083 48.2527 41.2824 47.9711 41.9716 46.8C42.2829 46.2812 42.7573 45.3919 43.0241 44.8212C43.2983 44.2505 43.5503 43.7169 43.5948 43.6427C43.6392 43.5612 43.6985 43.413 43.7282 43.3092C43.7652 43.2055 43.8616 42.9312 43.9505 42.7089C44.1432 42.2123 44.5509 40.8857 44.7584 40.0852C44.8473 39.7591 44.9288 39.4775 44.9511 39.4626C45.0252 39.3885 45.544 39.2106 45.8775 39.1514C46.0628 39.1143 46.3296 39.0476 46.4704 39.0031C46.6113 38.9587 47.2857 38.9216 47.9676 38.9142C49.1756 38.9142 49.7612 38.9809 50.5097 39.2403C50.6357 39.2774 50.8358 39.3366 50.9544 39.3737C51.0804 39.4033 51.4584 39.5516 51.8067 39.6998C52.5034 39.9889 52.7851 40.0259 53.2001 39.848C53.6226 39.6776 53.8745 39.3885 54.1562 38.7808C54.297 38.4769 54.4675 38.1063 54.5342 37.9655C54.838 37.3355 55.4458 36.5351 56.1721 35.8088C57.5507 34.4302 58.907 33.6965 60.8117 33.2888C61.6937 33.1036 63.5021 33.1036 64.3693 33.2962ZM65.9998 41.0784C69.4684 41.5453 72.3218 42.8942 74.8492 45.2733C75.62 45.9996 76.5612 47.1336 77.1097 48.0081C77.3172 48.3342 77.5321 48.6678 77.584 48.7493C78.0954 49.5571 79.0811 52.0326 79.0811 52.5069V52.7144L76.6205 52.7219C74.1302 52.7293 73.8857 52.7293 73.819 52.67C73.7819 52.6255 74.197 52.2772 74.2859 52.2698C74.3452 52.2698 74.7454 51.9955 74.901 51.8547C75.1604 51.6175 75.3013 51.2544 75.3013 50.8097C75.3013 50.4095 75.2716 50.3131 75.0567 50.0315C74.5527 49.3718 73.8634 49.2088 73.1297 49.572C72.6331 49.824 71.5288 50.4762 71.3435 50.6318C71.1508 50.7949 70.8544 51.4471 70.8544 51.7139C70.8618 51.8325 70.9211 52.0696 71.0026 52.2327C71.0841 52.3958 71.1434 52.5736 71.1508 52.6181C71.1508 52.6922 69.7056 52.7144 64.1766 52.7144H57.2023L57.2468 52.544C57.5284 51.4397 57.484 51.1654 56.9059 50.617C56.6983 50.4243 56.5056 50.2686 56.4686 50.2686C56.4315 50.2686 56.2611 50.1797 56.098 50.0759C55.3865 49.6238 54.7862 49.3793 54.423 49.3793C53.9635 49.3793 53.5484 49.6164 53.2594 50.0315C53.0667 50.2983 53.037 50.4095 53.037 50.8171C53.037 51.4323 53.2668 51.7954 53.882 52.1808C54.1191 52.329 54.3785 52.4921 54.4526 52.5366C54.5268 52.5885 54.5638 52.6477 54.5416 52.67C54.4675 52.7441 49.3387 52.7219 49.2646 52.6477C49.1312 52.5143 49.6574 50.9431 50.2355 49.7498C50.7839 48.6307 51.4213 47.6079 52.0661 46.8223C53.7486 44.7619 55.7497 43.2425 58.1881 42.1604C58.692 41.9455 60.0261 41.5156 60.7154 41.36C61.3602 41.2192 61.6789 41.1673 63.0352 41.0042C63.6429 40.9301 65.1623 40.9672 65.9998 41.0784ZM91.1916 42.5458C91.2138 42.5829 89.1682 44.6655 86.6483 47.1854C82.0754 51.7584 82.0606 51.7732 81.9494 51.5953C81.8827 51.499 81.8012 51.284 81.7641 51.121C81.5418 50.1945 80.7636 48.3713 80.1929 47.4374C79.9557 47.052 80.0002 46.926 80.5116 46.5036C80.9933 46.0885 82.2533 45.214 82.7499 44.9323C84.6027 43.8947 86.1888 43.2573 87.9009 42.8794C89.2201 42.5903 91.0952 42.3976 91.1916 42.5458ZM93.3335 45.6809C93.3113 46.7408 93.0889 47.9711 92.6665 49.3793C92.4071 50.239 92.0143 51.2099 91.5251 52.1586L91.2583 52.6774L88.479 52.7144C86.9522 52.7367 85.6478 52.7441 85.5811 52.7293C85.5069 52.7144 85.4551 52.6626 85.4551 52.6181C85.4551 52.4995 93.1853 44.7767 93.2742 44.8063C93.3187 44.8286 93.3409 45.1621 93.3335 45.6809Z" fill="black"/>
<path d="M63.8504 43.8131C63.3391 43.9169 62.9685 44.2578 62.7906 44.7766C62.7387 44.9249 62.7017 45.4807 62.7017 46.1255C62.7017 47.341 62.7906 47.682 63.1908 48.0525C63.8653 48.6751 65.0511 48.4528 65.4439 47.6301C65.5922 47.3336 65.5996 47.2076 65.5773 45.9847C65.5551 44.6729 65.5551 44.6581 65.355 44.3987C64.9844 43.9169 64.4063 43.6946 63.8504 43.8131Z" fill="black"/>
<path d="M58.1435 45.3179C57.432 45.5699 56.965 46.3555 57.1429 47.0225C57.1874 47.193 57.306 47.4746 57.4023 47.6377C57.4912 47.8007 57.6617 48.0972 57.7729 48.3047C58.388 49.409 58.64 49.624 59.359 49.661C59.9519 49.6907 60.2483 49.5498 60.6115 49.0903C60.8264 48.8087 60.8487 48.7272 60.8487 48.2825C60.8487 47.823 60.819 47.7488 60.3892 46.9484C59.8036 45.8886 59.4775 45.5032 59.018 45.3475C58.6252 45.2141 58.4622 45.2067 58.1435 45.3179Z" fill="black"/>
<path d="M69.3125 45.3252C68.9271 45.4438 68.5566 45.8663 68.0081 46.8223C67.5041 47.6895 67.4893 47.7266 67.4893 48.2379C67.4819 48.6826 67.5115 48.8012 67.682 49.0606C67.9266 49.4312 68.4009 49.6758 68.8753 49.6758C69.5571 49.6758 69.9129 49.3941 70.4984 48.4158C71.0024 47.5709 71.2247 47.0447 71.2247 46.726C71.2247 46.1034 70.8171 45.555 70.2093 45.3475C69.8239 45.214 69.6609 45.2066 69.3125 45.3252Z" fill="black"/>
<path d="M84.084 7.09658C82.5053 7.31892 80.4968 8.34171 79.9187 9.21627C79.5185 9.82402 79.4814 10.6171 79.8223 11.3137C79.9187 11.5138 81.3936 13.0406 84.21 15.8496C87.5377 19.1625 88.5309 20.1186 88.8051 20.2372C89.2276 20.4299 89.9761 20.4596 90.3541 20.2965C90.9989 20.0223 91.577 19.3701 92.1477 18.2509C92.4145 17.7395 92.7703 16.6574 92.8666 16.0719C92.9704 15.4345 92.9556 14.0189 92.837 13.3593C92.333 10.5429 90.1095 8.09713 87.345 7.31151C86.8559 7.17069 85.507 6.98541 85.0845 6.99282C84.8992 7.00023 84.4545 7.0447 84.084 7.09658ZM86.7447 10.202C87.8194 10.5948 88.7532 11.336 89.3017 12.2254C89.4351 12.4329 89.6426 12.885 89.7612 13.2259C89.9687 13.7818 89.9835 13.9152 89.9835 14.7675C89.9835 15.5383 89.9539 15.7829 89.8131 16.2053C89.7167 16.487 89.5833 16.7538 89.5092 16.7983C89.398 16.865 88.9459 16.4425 86.2185 13.7151C83.58 11.0766 83.0686 10.5355 83.1501 10.4466C83.2539 10.3206 83.869 10.0982 84.3434 10.0167C84.9808 9.90555 86.1888 10.0019 86.7447 10.202Z" fill="black"/>
<path d="M45.062 9.12718C44.5655 9.29024 44.0763 9.73493 40.1704 13.6482C35.7087 18.11 35.6642 18.1544 35.5901 18.9326C35.553 19.3625 35.6865 19.8887 35.931 20.2667C36.2646 20.7855 37.4282 21.5415 38.5547 21.9862C39.0958 22.2011 40.5632 22.4753 41.1487 22.4753C41.6898 22.4753 42.9868 22.2678 43.5204 22.0974C45.5141 21.46 47.2781 19.9406 48.1749 18.0655C48.6122 17.1539 48.7307 16.7759 48.879 15.842C49.2125 13.7594 48.664 11.6619 47.3448 9.96469C46.8779 9.36435 46.4554 9.12718 45.781 9.09013C45.4845 9.0753 45.1658 9.09013 45.062 9.12718ZM45.7958 13.1739C45.9588 13.626 45.9811 13.8187 45.9811 14.6932C45.9811 15.7679 45.8773 16.2126 45.4474 16.9908C44.4988 18.7251 42.5125 19.7257 40.5929 19.4514C39.7776 19.3329 39.1773 19.1253 39.1402 18.9549C39.1032 18.7622 45.2621 12.6032 45.4697 12.6328C45.5808 12.6477 45.6624 12.7885 45.7958 13.1739Z" fill="black"/>
</g>
<defs>
<clipPath id="clip0_170_20">
<rect width="100" height="97.8877" fill="white"/>
</clipPath>
</defs>
</svg>
