<svg width="100" height="102" viewBox="0 0 100 102" fill="none" xmlns="http://www.w3.org/2000/svg">
<g clip-path="url(#clip0_137_115)">
<path d="M17.4728 0.0749678C17.4953 0.112463 17.3378 0.224949 17.1203 0.322437C16.9029 0.419925 16.5054 0.637397 16.2355 0.802377C15.463 1.27482 14.9531 1.48479 14.0607 1.72476C13.0109 2.00223 11.4061 1.89724 10.3112 1.49229C9.89124 1.32731 8.6164 1.35731 8.21145 1.53728C7.11659 2.00973 6.41918 2.9846 6.35169 4.13196C6.30669 4.92686 6.34419 5.03935 7.62653 7.72401C7.859 8.19645 8.15896 8.84137 8.30894 9.14883C8.69139 9.98123 9.17883 11.0086 9.38881 11.451C9.48629 11.6685 9.55379 11.9085 9.53129 11.9835C9.50129 12.0585 9.30632 12.2085 9.09634 12.3059C8.88637 12.4034 8.48892 12.6284 8.22645 12.8009C7.95649 12.9809 7.72401 13.1233 7.70902 13.1233C7.69402 13.1233 7.33406 13.3858 6.91412 13.7008C4.37193 15.6205 2.52716 17.9977 1.33481 20.8849C0.682395 22.4672 0.464922 23.2171 0.172458 24.9719C-0.0300163 26.1792 -0.0450144 28.6464 0.142462 29.8462C0.359935 31.2936 0.697393 32.5534 1.28232 34.1207C1.33481 34.2632 1.58978 34.9531 1.84475 35.658C2.09222 36.3554 2.34719 37.0303 2.39968 37.1578C2.50467 37.4128 2.76713 38.0502 3.37456 39.5575C4.19196 41.5823 4.36444 41.8972 4.76189 42.1822C5.03185 42.3772 5.13684 42.4072 5.57178 42.4072C5.96923 42.4072 6.13421 42.3697 6.35919 42.2272C6.79413 41.9572 7.0266 41.5373 7.0341 41.0123C7.0341 40.6299 6.95911 40.4049 6.45667 39.2051C6.13421 38.4477 5.77426 37.5928 5.65427 37.3078C5.33931 36.5429 4.38693 34.0457 4.31194 33.7833C4.28195 33.6558 4.17696 33.3708 4.08697 33.1458C2.73714 29.6888 2.60965 26.3667 3.70452 22.9771C3.98198 22.0997 4.17696 21.6648 4.76189 20.5849C6.52417 17.3303 9.68877 14.8031 13.2433 13.8133C15.3206 13.2283 16.9479 13.0858 18.8226 13.3108C20.7424 13.5433 22.0697 13.9407 23.712 14.7881C25.4293 15.658 26.6517 16.5954 27.874 17.9602C28.8489 19.0476 30.0337 20.8699 30.0337 21.2748C30.0337 21.3498 27.874 23.577 25.0544 26.3967C22.0022 29.4563 20 31.5185 19.88 31.7285C19.4675 32.4559 19.3626 32.8834 19.3551 33.9332C19.3476 34.7656 19.3776 34.9831 19.52 35.4106C19.895 36.4979 20.7124 37.4353 21.7248 37.9302C22.4897 38.3052 22.9096 38.4102 23.7345 38.4102C24.5594 38.4102 24.9794 38.3127 25.7593 37.9302C26.3892 37.6228 26.4492 37.5628 30.0487 33.9857C33.9032 30.1462 33.8283 30.2137 33.9782 30.6936C34.0757 31.0011 35.9055 34.6231 36.108 34.9081C36.2205 35.0656 36.8579 36.2804 36.8579 36.3404C36.8579 36.3779 34.6082 38.6576 31.856 41.4098C28.024 45.2418 26.7866 46.5167 26.5992 46.8466C25.6093 48.6014 25.8867 50.7911 27.2741 52.1859C28.6614 53.5883 30.6262 53.9182 32.4184 53.0483L33.1158 52.7109L37.4728 48.3614C39.865 45.9767 41.8673 44.0195 41.9122 44.0195C41.9572 44.0195 42.2647 44.3794 42.5947 44.8144C42.9171 45.2493 43.2171 45.6468 43.2621 45.6918C43.3071 45.7443 43.6145 46.1192 43.9445 46.5317C44.2745 46.9366 44.8744 47.664 45.2793 48.1365L46.0142 48.9913L40.5474 54.4732C37.0604 57.9602 34.9831 60.105 34.8181 60.3674C33.0858 63.1196 34.7131 66.7041 37.9152 67.1916C39.0101 67.3566 40.165 67.0791 41.1023 66.4417C41.2823 66.3067 42.0547 65.5868 42.8121 64.8294C44.3269 63.3146 44.4844 63.0746 44.4094 62.4222C44.3344 61.7473 43.6595 61.1173 43.0221 61.1173C42.3997 61.1173 42.2197 61.2373 40.8024 62.6396C39.9925 63.442 39.3251 64.042 39.1451 64.1245C38.5302 64.4094 37.8028 64.2144 37.3528 63.6445C37.1428 63.382 37.1278 63.3071 37.1278 62.8121C37.1278 62.3172 37.1503 62.2347 37.3453 61.9722C37.6903 61.5148 47.934 51.2936 48.0465 51.2936C48.174 51.2936 50.0562 53.1758 50.0562 53.2958C50.0562 53.3483 49.2988 54.1432 48.3764 55.0581C47.3641 56.0705 46.6367 56.8579 46.5392 57.0453C45.9242 58.2677 47.2066 59.5875 48.4589 59.0251C48.6689 58.9276 49.3438 58.3052 50.5062 57.1503C51.4661 56.1979 52.2984 55.418 52.3734 55.418C52.4409 55.418 52.6434 55.5605 52.8309 55.7255C53.4233 56.2654 55.4781 57.9452 56.3629 58.6276C56.8279 58.9876 57.2253 59.3476 57.2403 59.4225C57.2628 59.52 56.0855 60.7499 53.0334 63.8095C50.3787 66.4642 48.6989 68.2114 48.5339 68.4739C47.5815 69.9812 47.5665 71.796 48.5039 73.2883C48.9314 73.9782 49.8912 74.7581 50.6562 75.0506C51.0311 75.1931 51.916 75.3656 52.2685 75.3656C52.8159 75.3656 53.6258 75.1631 54.2257 74.8781C54.8106 74.6006 54.9081 74.5107 59.88 69.5463C62.6697 66.7641 64.9869 64.4919 65.0319 64.4919C65.1068 64.4919 65.4893 64.6944 66.8166 65.4443C67.0641 65.5793 68.0765 66.1042 69.0664 66.5991C70.0562 67.0941 70.8886 67.544 70.9186 67.589C70.9561 67.649 69.6513 68.9988 67.3866 71.2786C63.2396 75.4405 63.2321 75.448 62.9846 76.9404C62.6771 78.8451 63.7045 80.8024 65.4293 81.6048C66.2467 81.9797 66.3367 82.0022 67.3416 82.0022C68.129 82.0022 68.3989 81.9722 68.7289 81.8522C69.7413 81.4848 69.8088 81.4248 74.9906 76.2579C78.8151 72.4409 79.985 71.3161 80.1275 71.3161C80.4649 71.3161 82.0772 72.3509 83.0521 73.1908C85.3618 75.1781 86.8166 77.4803 87.649 80.4649C87.9115 81.4248 88.1515 83.1646 88.1515 84.117C88.1515 84.7694 87.964 86.4942 87.8515 86.9216C87.8065 87.1016 87.7165 87.454 87.649 87.7015C87.5365 88.129 87.3566 88.6989 87.1241 89.3438C86.9291 89.8837 86.2317 91.2261 85.8193 91.8635C84.7469 93.4983 83.3221 94.9381 81.7773 95.958C80.9599 96.4904 80.9899 96.4754 80.09 96.9179C78.7026 97.6003 77.1728 98.0502 75.5155 98.2752C74.4357 98.4252 74.3082 98.4702 73.9557 98.8151C73.2733 99.475 73.4533 100.645 74.3157 101.132C74.7881 101.402 75.5755 101.357 77.3903 100.967C80.12 100.375 82.2647 99.3776 84.5144 97.6378C85.1818 97.1278 86.5092 95.8455 87.0266 95.2081C87.2141 94.9831 87.3941 94.7956 87.4316 94.7881C87.4691 94.7881 87.8215 94.9981 88.219 95.2531C88.6164 95.508 89.1788 95.868 89.4638 96.048C89.7563 96.2354 90.2287 96.5354 90.5137 96.7229C90.8061 96.9104 91.2111 97.1653 91.4136 97.3003C91.6235 97.4353 92.0885 97.7353 92.4559 97.9752C92.8159 98.2077 93.2658 98.4702 93.4458 98.5527C94.5407 99.0326 95.868 98.7701 96.7229 97.9077C97.3153 97.3078 97.6678 96.3854 97.5778 95.6355C97.3828 94.0007 97.3678 93.7008 97.4428 93.0033C97.5853 91.556 98.1552 90.3262 99.2651 89.0288C100.72 87.3266 99.7375 84.5819 97.5328 84.2069C97.2553 84.1545 96.1455 84.1695 94.1882 84.2369C92.5459 84.2969 91.2336 84.3119 91.1961 84.2819C91.1511 84.2444 91.0986 83.817 91.0611 83.3371C90.9411 81.3948 90.7986 80.6299 90.2437 78.8526C90.0337 78.1627 89.4038 76.5579 89.2763 76.3779C89.2463 76.3329 89.0963 76.063 88.9389 75.778C88.4964 74.9531 87.3266 73.2283 87.0341 72.9659C87.0041 72.9434 86.7716 72.6809 86.5092 72.3809C85.9467 71.7435 84.7619 70.6861 83.9145 70.0862C82.5872 69.1263 81.2598 68.4439 79.4676 67.7915C78.7776 67.5365 78.1327 67.2966 78.0277 67.2516C77.9227 67.2066 77.7578 67.1466 77.6528 67.1166C77.2103 66.9741 74.7956 65.9917 74.2182 65.7293C74.0007 65.6243 73.8058 65.5418 73.7908 65.5418C73.7683 65.5418 73.5133 65.4293 73.2133 65.2868C72.9134 65.1518 72.3134 64.8744 71.8785 64.6719C70.6861 64.132 68.0015 62.7446 67.3641 62.3397C67.2066 62.2497 67.0641 62.1672 67.0491 62.1672C66.9966 62.1672 64.4244 60.6299 63.742 60.1949C61.3198 58.6276 58.9501 56.9254 57.1503 55.463C56.7454 55.1256 56.3029 54.7731 56.1755 54.6681C55.1031 53.8282 51.991 50.9711 50.7236 49.6663C49.1863 48.084 47.559 46.2617 46.3817 44.8069C46.1117 44.4769 45.8343 44.1395 45.7593 44.057C45.3018 43.5545 42.8721 40.2025 41.9497 38.8076C40.5099 36.6179 39.67 35.2231 38.4027 32.9209C37.8178 31.8485 36.3179 28.7589 35.808 27.5665C35.508 26.8691 35.2381 26.2392 35.2006 26.1792C35.1706 26.1117 34.9306 25.5193 34.6831 24.8594C34.4282 24.1995 34.1207 23.4046 34.0007 23.0896C33.8807 22.7821 33.7833 22.4822 33.7833 22.4372C33.7833 22.3922 33.7383 22.2422 33.6783 22.1072C33.6183 21.9722 33.5208 21.7248 33.4608 21.5598C33.3933 21.3948 33.3033 21.1398 33.2433 20.9974C33.0034 20.3599 32.1485 18.7251 31.721 18.0727C30.2812 15.8755 28.4289 14.1057 26.0892 12.6884C25.3168 12.2234 23.952 11.5485 23.7795 11.5485C23.7345 11.5485 23.6595 11.5185 23.622 11.481C23.4645 11.3236 21.3798 10.7011 20.7124 10.6037C20.5174 10.5812 20.2774 10.4987 20.1875 10.4237L20.03 10.2887L20.1575 9.55378C20.2999 8.77388 20.4124 8.09896 20.6224 6.86162C20.6899 6.44917 20.7949 5.84175 20.8549 5.51179C21.1623 3.75701 21.1998 3.41205 21.1698 2.82712C21.1323 2.12221 20.9074 1.58228 20.4499 1.07234C20.15 0.742384 19.5425 0.344934 19.2201 0.269943C19.1001 0.247446 19.0101 0.172456 19.0101 0.112463C19.0101 0.0224743 18.8676 -2.28619e-05 18.2152 -2.28619e-05C17.7128 -2.28619e-05 17.4428 0.0299734 17.4728 0.0749678ZM18.1852 3.31456C18.1852 3.41205 17.8553 5.47429 17.7053 6.33668C17.6453 6.66664 17.5403 7.27407 17.4728 7.68652C17.0529 10.2512 17.0753 10.1387 16.8354 10.2137C16.7304 10.2437 16.1905 10.3037 15.6355 10.3487C15.0806 10.3937 14.2332 10.5212 13.7608 10.6186C13.2883 10.7236 12.7934 10.8211 12.6659 10.8511L12.4259 10.8886L11.9985 10.0037C11.766 9.50879 11.4585 8.87137 11.3236 8.5864C11.1886 8.29394 10.8361 7.55153 10.5362 6.93661C10.2437 6.31419 9.92874 5.63927 9.83875 5.4368C9.75626 5.22682 9.63628 4.99435 9.58378 4.91186C9.4788 4.76188 9.4563 4.48442 9.53129 4.40193C9.56129 4.37943 9.70377 4.40193 9.85375 4.45442C10.9111 4.84437 13.1683 4.95686 14.3982 4.68689C15.628 4.41692 17.4503 3.68952 17.8328 3.30706C17.9452 3.19458 18.1852 3.20208 18.1852 3.31456ZM31.4136 24.6869C31.4735 24.8219 31.571 25.0693 31.631 25.2343C31.8635 25.8567 32.2235 26.7416 32.3284 26.9366C32.3884 27.0416 32.4334 27.1916 32.4334 27.2666C32.4334 27.4315 24.7619 35.1031 24.4094 35.2831C24.0495 35.4705 23.3821 35.463 23.0521 35.2756C22.9096 35.1931 22.6921 34.9831 22.5572 34.8031C22.3322 34.5182 22.3097 34.4357 22.3097 33.9782C22.3097 33.6408 22.3472 33.4158 22.4297 33.2958C22.5872 33.0633 31.1736 24.4469 31.2561 24.4469C31.2861 24.4469 31.3611 24.5594 31.4136 24.6869ZM38.7101 39.2726C38.7776 39.3926 39.1151 39.91 39.4601 40.4349C39.805 40.9599 40.0825 41.4248 40.0825 41.4698C40.0825 41.5748 31.691 49.9737 31.2786 50.2812C31.0161 50.4837 30.9261 50.5062 30.4537 50.5062C29.8538 50.5062 29.5988 50.3787 29.2238 49.8912C29.0439 49.6513 29.0214 49.5538 29.0214 49.0888C29.0214 48.7139 29.0589 48.5039 29.1488 48.3689C29.3963 48.0015 38.3202 39.0851 38.4477 39.0776C38.5227 39.0701 38.6352 39.1601 38.7101 39.2726ZM61.0649 61.9947C62.0922 62.6771 62.2722 62.8121 62.2797 62.9171C62.2797 62.9846 53.1908 72.051 52.9809 72.1934C52.8459 72.2909 52.6434 72.3284 52.261 72.3284C51.826 72.3284 51.6835 72.2984 51.4661 72.1485C51.0761 71.8785 50.8586 71.5185 50.8211 71.0536C50.7536 70.2737 50.6037 70.4462 55.3731 65.6768C57.7878 63.2546 59.8125 61.2673 59.865 61.2673C59.925 61.2673 60.4649 61.5973 61.0649 61.9947ZM74.3232 68.9838C74.3607 69.0213 74.9156 69.2463 75.553 69.4863C76.1905 69.7188 76.7679 69.9587 76.8279 70.0187C76.9254 70.1012 76.3554 70.7011 72.6284 74.4357C70.2587 76.8054 68.204 78.8151 68.069 78.8976C67.769 79.0926 67.0566 79.1076 66.7341 78.9426C66.2167 78.6726 65.8792 78.1477 65.8792 77.6153C65.8792 76.9854 65.8493 77.0228 69.9887 72.8684C72.6584 70.1987 73.9857 68.9164 74.0907 68.9164C74.1807 68.9164 74.2782 68.9464 74.3232 68.9838ZM96.8054 87.1991C96.8279 87.2366 96.6104 87.5815 96.3254 87.9565C94.9306 89.8162 94.2407 92.2684 94.4582 94.5782C94.5107 95.0581 94.5257 95.508 94.4957 95.5755C94.4432 95.7255 94.4282 95.718 93.0634 94.8256C92.4859 94.4507 91.826 94.0307 91.601 93.8882C91.3761 93.7458 90.8211 93.3933 90.3637 93.1008C89.9137 92.8084 89.4488 92.5084 89.3363 92.4409C89.2163 92.3659 89.1263 92.2534 89.1263 92.1785C89.1263 92.1035 89.2538 91.796 89.4113 91.4885C89.8912 90.5512 90.6936 88.1665 90.7011 87.694C90.7011 87.3791 90.8436 87.3491 92.7034 87.2816C93.6858 87.2441 94.6757 87.2066 94.9006 87.1916C95.823 87.1391 96.7679 87.1391 96.8054 87.1991Z" fill="black"/>
<path d="M8.02415 45.9242C7.58171 46.1267 7.29674 46.4716 7.17676 46.9516C7.07177 47.3715 7.15426 47.709 7.55921 48.4439C7.70919 48.7138 7.94166 49.1488 8.08415 49.4187C8.39161 50.0037 8.74406 50.6486 9.04403 51.1585C9.16401 51.361 9.2615 51.5335 9.2615 51.5485C9.2615 51.5785 10.2739 53.3183 10.4613 53.6182C10.4988 53.6782 10.6713 53.9632 10.8438 54.2556C11.5787 55.4705 13.236 58.0352 14.2034 59.445C15.4182 61.2223 17.518 64.0419 19.0853 65.9992C19.4452 66.4491 21.2825 68.6463 21.335 68.6913C21.3575 68.7138 21.605 68.9988 21.8899 69.3288C23.1273 70.7686 25.7144 73.5057 27.3117 75.0655C30.2664 77.9527 31.7062 79.2425 35.3282 82.2271C36.2506 82.992 40.1951 85.9467 41.2825 86.6966C44.6721 89.0288 48.9015 91.661 51.1813 92.8533C51.4062 92.9733 51.8112 93.1908 52.0812 93.3408C53.1235 93.9107 56.2206 95.478 57.113 95.8754C57.623 96.1154 58.3504 96.4454 58.7178 96.6253C59.0928 96.8053 60.0527 97.2253 60.8551 97.5627C61.6575 97.9002 62.4224 98.2226 62.5423 98.2751C62.8423 98.4101 64.8896 99.22 65.1295 99.295C65.2345 99.325 65.5045 99.4225 65.7294 99.5125C67.3867 100.15 67.8292 100.277 68.2266 100.24C69.209 100.15 69.8464 99.0325 69.4115 98.1776C69.149 97.6602 68.8716 97.4877 67.6117 97.0378C67.1768 96.8803 66.7343 96.7228 66.6293 96.6778C66.5243 96.6403 66.3069 96.5504 66.1419 96.4904C65.9769 96.4229 65.2795 96.1454 64.5896 95.8754C63.8997 95.6055 63.3147 95.388 63.2923 95.388C63.2623 95.388 62.9623 95.253 62.6098 95.088C62.2574 94.9231 61.9274 94.7881 61.8749 94.7881C61.8299 94.7881 61.7549 94.7581 61.7174 94.7206C61.6725 94.6831 61.32 94.5181 60.93 94.3531C59.4077 93.7082 55.7782 91.9609 54.3309 91.1735C54.0609 91.031 53.5435 90.7461 53.1685 90.5511C52.4036 90.1387 52.1261 89.9812 51.9462 89.8762C51.8787 89.8312 51.4962 89.6212 51.1063 89.3962C50.4539 89.0288 48.5266 87.8739 48.0467 87.574C47.9342 87.499 47.7917 87.4165 47.7317 87.3865C47.4917 87.2815 44.6421 85.4067 43.0823 84.3269C40.7351 82.7071 36.4156 79.3775 34.9083 78.0202C34.7658 77.8852 34.3534 77.5327 34.0009 77.2328C31.9687 75.4855 28.0692 71.7135 26.3219 69.8012C25.8719 69.3063 25.4445 68.8413 25.3845 68.7738C25.257 68.6313 24.0422 67.274 23.7047 66.8916C21.0275 63.8694 16.8506 58.2676 14.7283 54.8556C14.5033 54.5031 14.2709 54.1357 14.2109 54.0382C13.9634 53.6632 11.9687 50.3261 11.7362 49.9062C11.6012 49.6587 11.3912 49.2688 11.2637 49.0438C11.1438 48.8188 10.8963 48.3764 10.7238 48.0689C10.5513 47.7614 10.2964 47.274 10.1539 46.9965C9.84643 46.3816 9.57646 46.0892 9.12652 45.8942C8.69157 45.6992 8.4816 45.7067 8.02415 45.9242Z" fill="black"/>
</g>
<defs>
<clipPath id="clip0_137_115">
<rect width="100" height="101.35" fill="white"/>
</clipPath>
</defs>
</svg>
