<svg width="88" height="100" viewBox="0 0 88 100" fill="none" xmlns="http://www.w3.org/2000/svg">
<g clip-path="url(#clip0_175_96)">
<path d="M31.1874 0.103627C31.1874 0.162821 31.0838 0.236812 30.9506 0.25901C30.0849 0.451389 28.938 1.37629 28.4793 2.25679C27.7838 3.57385 27.8281 4.81691 28.6347 6.54832C28.7752 6.85908 28.8936 7.12545 28.8936 7.14765C28.8936 7.17725 29.308 8.10955 29.4116 8.29453C29.4412 8.36112 29.604 8.72368 29.7667 9.10844C30.0997 9.87795 30.4993 10.7733 30.8026 11.3948C31.069 11.9423 31.9791 12.845 32.5488 13.1188C33.2517 13.4666 33.6883 13.5701 34.406 13.5701C35.1903 13.5775 35.5381 13.4888 36.6258 13.0004C37.0771 12.8006 37.8244 12.4751 38.2906 12.2753C39.2599 11.8535 39.5041 11.7425 40.5843 11.2246C42.0938 10.4995 42.8929 9.37481 43.0631 7.74699C43.1593 6.83689 42.7745 5.62342 42.1604 4.8761C41.6202 4.22497 41.2133 3.9734 39.1045 2.97451C38.594 2.73034 37.8318 2.36778 37.4027 2.1606C34.1323 0.606772 33.9251 0.510582 33.4071 0.325603C33.1408 0.236812 32.9336 0.125825 32.9484 0.0814295C32.9558 0.0296352 32.6746 3.85028e-05 32.0753 3.85028e-05C31.3576 3.85028e-05 31.1874 0.0222361 31.1874 0.103627ZM33.0742 3.35927C33.3775 3.50725 33.8881 3.74403 34.2062 3.89201C34.517 4.03999 35.1459 4.33596 35.5899 4.55054C36.4334 4.95009 37.0031 5.22386 38.5866 5.97118C39.0971 6.21535 39.615 6.49652 39.7408 6.60751C40.0072 6.82949 40.1774 7.34003 40.1108 7.67299C39.9776 8.25753 39.689 8.47211 38.039 9.17503C37.6395 9.34521 37.2547 9.51539 37.1881 9.54499C37.0031 9.64858 36.0708 10.0629 36.0412 10.0629C36.019 10.0629 35.7971 10.1591 35.5381 10.2849C34.1545 10.9212 33.6661 10.7289 33.0668 9.33041C32.9188 8.98265 32.7116 8.5091 32.6154 8.28713C32.5118 8.06515 32.3712 7.74699 32.2973 7.5842C31.4537 5.73441 30.8914 4.37296 30.8914 4.20278C30.8914 3.9586 31.106 3.49245 31.3058 3.32227C31.5351 3.1225 32.0753 2.96711 32.3121 3.0411C32.4304 3.0707 32.7708 3.21868 33.0742 3.35927Z" fill="black"/>
<path d="M54.3468 4.47665C53.8881 4.57284 53.6291 4.66903 53.1259 4.9354C52.756 5.13518 52.1048 5.8529 51.8755 6.31165C51.7053 6.65941 50.5066 10.0482 50.2033 11.0619C50.1663 11.1803 49.9961 11.6835 49.8333 12.1718C49.5373 13.0227 49.5299 13.0967 49.5521 13.7996C49.5743 14.473 49.6039 14.5913 49.8555 15.1167C50.4844 16.4115 51.6757 17.1663 53.0815 17.1663C53.9472 17.1589 54.4282 16.9887 55.8636 16.1378C56.5148 15.753 57.4989 15.1759 58.0464 14.8503C59.1785 14.1844 59.7186 13.7108 60.096 13.0375C60.7915 11.8018 60.7027 10.4922 59.8148 9.10115C59.6224 8.79038 58.4164 6.71861 58.4164 6.69641C58.4164 6.67421 58.2462 6.41524 58.039 6.10448C57.3953 5.16478 56.6479 4.65424 55.6417 4.46926C55.0127 4.35087 54.9535 4.35087 54.3468 4.47665ZM55.2939 7.42893C55.4345 7.50292 55.7896 8.03566 56.4778 9.20474C57.0179 10.1148 57.4989 10.9657 57.5506 11.0915C57.7356 11.5873 57.5654 11.7501 55.6787 12.8451C55.1311 13.1633 54.3468 13.6147 53.9398 13.8514C53.5329 14.0882 53.1481 14.2806 53.0741 14.2806C52.8448 14.2806 52.497 13.918 52.497 13.6664C52.497 13.4445 52.8448 12.3272 53.4959 10.47C53.6883 9.93725 53.9694 9.10115 54.1396 8.6054C54.369 7.89508 54.48 7.65831 54.6576 7.51032C54.9091 7.29574 55.0127 7.28095 55.2939 7.42893Z" fill="black"/>
<path d="M39.6078 18.4241C38.8161 18.5573 37.9578 18.942 37.3511 19.4378C37.1809 19.571 36.5594 20.1703 35.9822 20.7696C33.7181 23.0782 30.5068 25.5717 28.1539 26.8592C27.9319 26.9775 27.562 27.1847 27.34 27.3105C26.9034 27.5621 25.0684 28.487 25.0093 28.487C24.9871 28.487 24.7651 28.5832 24.5135 28.7016C23.2187 29.2935 21.7388 29.8262 20.4218 30.1888C20.0962 30.2776 19.7336 30.3738 19.6078 30.4108C18.4684 30.7363 16.9219 31.0323 15.2793 31.2395C14.162 31.3801 10.3589 31.3727 9.39697 31.2247C8.98262 31.1655 8.16871 31.1137 7.54717 31.1137C6.53349 31.1211 6.3855 31.1359 5.80837 31.3283C5.04625 31.5798 4.74288 31.7352 4.05476 32.2458C2.22716 33.5998 1.28006 36.0711 1.76101 38.2687C1.8942 38.8828 1.93859 39.0012 2.27895 39.7337C3.07067 41.4208 6.4003 44.706 9.175 46.541C9.62635 46.837 10.0777 47.1403 10.1887 47.2143C10.2997 47.2957 10.4033 47.3549 10.4255 47.3549C10.4403 47.3549 10.6992 47.4955 11.0026 47.6731C11.8535 48.1762 13.7477 49.0789 14.7614 49.4637C15.2719 49.6561 15.8047 49.8558 15.9453 49.9076C18.3352 50.8177 22.5157 51.4985 25.6752 51.4985C27.2364 51.4985 29.4932 51.2987 30.9508 51.0397C31.3356 50.9657 31.4317 50.9731 31.5205 51.0619C31.5723 51.1211 31.7277 51.528 31.8461 51.9794C31.9719 52.4233 32.1421 52.9783 32.2309 53.2003C32.3122 53.4222 32.4084 53.7034 32.4454 53.8292C32.475 53.9476 32.5416 54.1474 32.5934 54.2731C32.6452 54.3915 32.734 54.6135 32.7932 54.7541C32.8524 54.8947 32.9264 55.0797 32.9634 55.161C33.0004 55.2424 33.1188 55.5236 33.2223 55.7752C33.4221 56.2709 34.1842 57.8396 34.2878 57.9727C34.3248 58.0097 34.4876 58.3131 34.6652 58.6387C34.8428 58.9642 35.1239 59.4452 35.2941 59.7115C35.4643 59.9779 35.7233 60.3775 35.8639 60.5995C36.145 61.0434 37.1735 62.3975 37.8838 63.2706C38.4906 64.0253 40.7769 66.3042 41.5834 66.9702C42.9375 68.0948 44.8243 69.4119 46.0229 70.0852C46.7333 70.4774 48.6349 71.4097 49.3526 71.713C49.6929 71.8536 49.9445 72.009 49.9445 72.0682C49.9445 72.2828 47.414 73.5776 45.727 74.2288C42.3381 75.531 38.0762 76.2413 34.4062 76.1155C33.6737 76.0859 32.586 76.0416 31.9941 76.0194C30.9286 75.9676 30.9138 75.975 30.6178 76.1599C30.1073 76.4855 29.9667 76.7519 29.9667 77.4104C29.9667 77.9283 29.9815 77.9949 30.1961 78.2613C30.5512 78.6979 30.8398 78.831 31.5575 78.8828C31.9053 78.9124 32.734 78.9716 33.4073 79.0234C35.5013 79.1788 38.2168 79.0086 41.0655 78.5351C41.7758 78.4093 43.8328 77.9357 44.5061 77.736C44.7281 77.6694 45.0167 77.5806 45.135 77.5436C45.7714 77.3586 48.0725 76.4707 48.4129 76.2931C48.4795 76.2487 48.953 76.012 49.4636 75.7678C49.9741 75.5162 50.4255 75.2794 50.4625 75.2498C50.6992 75.0649 51.9275 74.4803 52.2605 74.3915C53.9105 73.9624 55.6937 75.1315 55.9748 76.8481C56.0858 77.4696 56.0044 77.9505 55.6049 79.1714C53.9993 84.0549 50.936 88.2872 46.6889 91.5059C46.0377 91.9942 44.5653 92.9783 44.0992 93.2299C43.9364 93.3113 43.6034 93.5036 43.3592 93.6442C43.1151 93.7774 42.7673 93.9624 42.5823 94.0512C41.3171 94.6505 40.8583 94.8577 40.7843 94.8577C40.7325 94.8577 40.6289 94.9021 40.5475 94.9539C40.4662 95.0131 40.333 95.0723 40.2516 95.1019C40.1702 95.1241 39.9186 95.2128 39.6966 95.3016C37.7654 96.0564 34.7392 96.7223 32.2235 96.9443C28.5535 97.2624 24.4247 96.7149 20.7621 95.4126C19.7928 95.0649 17.5509 94.0364 16.8332 93.5998C14.0807 91.935 12.956 91.0693 10.9434 89.0567C9.35998 87.4659 8.2205 86.097 7.21421 84.5728C4.80948 80.9102 3.46282 77.0774 3.07067 72.7267C2.97448 71.6242 2.97448 69.7522 3.07067 69.3675C3.46282 67.8729 4.68369 66.8888 6.14873 66.8888C6.60748 66.8888 7.3252 67.0959 7.67296 67.3327C7.80615 67.4289 8.53127 68.1244 9.28598 68.8865C11.5649 71.1877 13.3851 72.6157 15.9822 74.1548C16.6704 74.5617 19.0455 75.7678 19.1565 75.7678C19.1787 75.7678 19.4007 75.864 19.6596 75.9824C20.5327 76.3819 22.6637 77.1514 23.3444 77.3216C23.485 77.3586 23.7884 77.44 24.0104 77.4992C24.7725 77.7212 25.1794 77.6398 25.6456 77.1736C25.9194 76.8999 26.0007 76.7593 26.0377 76.4929C26.1191 75.9528 26.0229 75.5828 25.7122 75.2276C25.4162 74.8947 25.4532 74.9095 23.7514 74.3841C23.0337 74.1622 22.9597 74.1326 21.3467 73.5036C18.6977 72.4751 15.9157 70.8325 13.6145 68.9309C12.9116 68.3538 12.4454 67.9098 11.0248 66.4744C9.66334 65.0982 9.35998 64.8466 8.58306 64.484C7.73955 64.0919 7.25861 63.9883 6.17833 63.9809C5.17943 63.9735 4.72069 64.0475 4.04736 64.3434C3.91417 64.4026 3.77359 64.447 3.73659 64.447C3.6996 64.447 3.38143 64.6172 3.02627 64.8244C1.47244 65.7419 0.480952 67.2217 0.147989 69.1307C0.0443999 69.7152 0.0222024 70.1074 0.0591983 71.1285C0.162787 74.5247 0.776919 77.7656 1.81281 80.4293C1.9016 80.6512 1.99039 80.9028 2.01258 80.9842C2.04218 81.0656 2.10137 81.1988 2.16057 81.2802C2.21236 81.3616 2.25676 81.4652 2.25676 81.517C2.25676 81.6057 3.35184 83.8847 3.51462 84.1289C3.55161 84.1881 3.75879 84.5358 3.96597 84.9058C4.52091 85.8677 5.542 87.3549 6.28931 88.2724C8.76804 91.3579 11.4095 93.7256 14.4654 95.605C15.7085 96.3745 17.4917 97.2772 18.7199 97.7582C19.1269 97.9135 19.5265 98.0763 19.6078 98.1133C19.6892 98.1429 19.8224 98.1947 19.9038 98.2169C19.9852 98.2317 20.3478 98.3575 20.7103 98.4833C24.114 99.6672 29.0344 100.229 32.623 99.8521C34.8798 99.6154 37.2031 99.1788 38.7717 98.6979C43.8032 97.1588 48.0355 94.6653 51.4983 91.1951C54.9908 87.7027 57.1513 84.0697 58.7569 78.9864C58.9715 78.3131 58.9493 76.2931 58.7273 75.6272C58.5646 75.1611 58.1724 74.3397 58.0318 74.1548C57.9874 74.103 57.9726 74.0364 58.0022 74.0068C58.0318 73.9772 59.1121 73.9624 60.3996 73.9772C62.4047 73.9994 62.9375 73.9772 64.0474 73.8514C65.9712 73.622 67.6804 73.2965 69.1084 72.8747C69.397 72.7933 69.7299 72.6971 69.8483 72.6675C71.2838 72.2902 71.5205 70.5736 70.2257 69.9076C69.8705 69.73 69.3082 69.7522 68.5165 69.989C67.118 70.4034 65.0832 70.7955 63.411 70.9731C62.2716 71.0989 59.5265 71.0989 58.3796 70.9731C53.7477 70.4848 49.7965 69.0789 45.875 66.5336C43.2113 64.8022 40.1184 61.7537 38.4314 59.1936C37.8024 58.2391 37.3585 57.5436 37.3067 57.4178C37.2771 57.3586 37.1957 57.2032 37.1217 57.0848C36.8036 56.5669 35.96 54.8281 35.6641 54.0882C35.5901 53.9032 35.4865 53.6442 35.4273 53.511C34.939 52.3938 34.2138 49.6117 33.8735 47.5769C33.6885 46.4522 33.6885 42.2495 33.8735 40.9176C34.1546 38.942 34.5246 37.514 34.9242 36.8851C35.6419 35.7604 36.9885 35.2276 38.2908 35.5458C39.3193 35.8048 39.8076 36.3005 40.7695 38.0393C41.9682 40.2221 44.2471 43.0708 46.2967 44.965C48.2279 46.7482 50.5808 48.4796 52.6082 49.6191C52.8154 49.73 53.1114 49.9002 53.2741 49.989C53.6367 50.1962 55.4939 51.1211 56.0488 51.3727C56.2708 51.4689 56.6704 51.6538 56.9367 51.7722C57.2031 51.898 57.9874 52.2014 58.6755 52.4529C59.3711 52.7119 60.0518 52.9561 60.1924 53.0079C60.333 53.0671 60.6511 53.1633 60.8953 53.2373C61.1395 53.3039 61.428 53.4 61.539 53.437C61.6426 53.474 61.8424 53.5406 61.983 53.5702C62.1162 53.6072 62.5453 53.7182 62.9301 53.8218C63.7292 54.029 65.5642 54.3915 66.6667 54.5617C69.7225 55.0279 72.9782 55.0279 75.9157 54.5543C77.5953 54.2879 78.9419 53.9846 80.5032 53.5184C81.4428 53.2447 82.1976 53.3334 83.0559 53.8366C83.9216 54.3397 84.5357 55.42 84.5357 56.4411C84.5357 56.7963 84.3729 57.4548 84.2101 57.773C83.7218 58.7201 82.5083 60.4959 81.5834 61.6353C79.852 63.7515 77.8172 65.5051 75.1979 67.1329C74.7318 67.4215 74.3988 67.969 74.3988 68.4426C74.3988 68.9901 74.8576 69.6339 75.3755 69.8262C75.9896 70.0482 76.3892 69.8928 77.9282 68.8569C80.5475 67.1033 82.7599 65.0094 84.5801 62.5602C87.0736 59.2158 87.7766 57.403 87.3622 55.42C87.118 54.2657 86.8369 53.6442 86.1857 52.7785C85.3496 51.6686 84.3211 50.9805 82.9227 50.6031C82.4417 50.47 82.1976 50.4552 81.3171 50.4848C80.3848 50.507 80.1776 50.544 79.2453 50.8103C77.906 51.1951 77.5435 51.2839 77.1365 51.3505C76.9515 51.3801 76.6186 51.4467 76.3966 51.4911C72.3936 52.2754 67.8431 52.046 63.1151 50.8177C61.5464 50.4034 61.3467 50.3516 60.7991 50.1222C60.6659 50.063 60.5105 50.0186 60.4514 50.0186C60.3922 50.0186 60.2368 49.9668 60.1036 49.9076C59.9704 49.8484 59.5413 49.6783 59.1565 49.5303C57.2031 48.7682 54.791 47.5769 53.4147 46.689C53.3259 46.6298 52.956 46.4004 52.6008 46.1784C51.3208 45.3793 49.4044 43.8699 48.2501 42.76L47.6582 42.1903L47.9171 41.8943C48.0577 41.7389 48.4203 41.3098 48.7384 40.9472C49.8039 39.7115 51.2986 37.625 51.7573 36.7371C51.8017 36.6557 51.9497 36.3893 52.0903 36.1451C52.3344 35.7308 53.2002 33.992 53.4295 33.4592C53.4887 33.3334 53.5775 33.1115 53.6367 32.9783C53.6959 32.8525 53.7921 32.6231 53.8513 32.4825C53.9475 32.268 54.384 30.9657 54.976 29.1455C55.0351 28.9531 55.0869 28.7386 55.0869 28.6646C55.0869 28.5906 55.1313 28.3982 55.1905 28.228C55.2497 28.0652 55.3533 27.6509 55.4199 27.3031C55.4865 26.9553 55.5753 26.5336 55.6123 26.3634C55.7159 25.8825 55.6937 24.6986 55.5605 24.1511C55.4643 23.7071 55.2793 23.2854 54.8872 22.5306C54.8206 22.4048 54.4802 22.0201 54.1324 21.6723C53.5997 21.147 53.3777 20.9842 52.7932 20.6956C51.2246 19.9335 49.9149 19.9409 47.9097 20.7178C47.3178 20.9546 46.8221 21.036 46.3041 20.9842C45.7862 20.9398 45.4532 20.7844 44.9131 20.3479C44.1583 19.7337 43.2039 19.0308 42.9745 18.9124C41.9978 18.4167 40.7325 18.2391 39.6078 18.4241ZM40.9175 21.3172C41.5168 21.4282 41.7314 21.5539 42.8043 22.4122C44.0622 23.4185 44.7355 23.7367 45.9637 23.9069C46.8369 24.0327 47.6656 23.9069 48.9086 23.4629C49.7669 23.1596 49.9371 23.1226 50.4994 23.1226C51.2172 23.1226 51.5797 23.2632 52.0755 23.7441C52.7044 24.336 52.8598 24.9946 52.6452 26.1784C52.5194 26.8666 52.1865 28.2206 51.9793 28.8939C51.9423 29.0123 51.8609 29.2787 51.8017 29.4859C51.7425 29.6856 51.6241 30.0408 51.5353 30.2628C51.4465 30.4848 51.3282 30.8177 51.2616 31.0027C50.788 32.379 49.6855 34.5839 48.731 36.0711C47.7765 37.5584 45.9046 39.8817 45.6604 39.8817C45.5642 39.8817 44.8021 38.8976 44.2027 37.9949C43.6774 37.2106 43.6552 37.1662 43.411 36.7519C42.6267 35.3682 42.2864 34.8577 41.9312 34.4655C41.2061 33.6812 40.3552 33.1263 39.4377 32.8303C38.7791 32.6157 37.7137 32.4677 37.2253 32.5195C35.5161 32.7119 34.3322 33.2447 33.2889 34.2879C32.0829 35.5088 31.5797 36.7815 31.0322 39.9927C30.788 41.4282 30.6992 44.6098 30.8398 46.504C30.9064 47.3327 30.9212 47.9468 30.8842 47.9912C30.8102 48.08 30.4255 48.1614 29.1158 48.3612C27.8949 48.5536 23.6034 48.5536 22.4195 48.3686C20.444 48.0578 19.2601 47.8137 18.017 47.4511C17.3955 47.2735 16.108 46.8444 15.9674 46.7704C15.8935 46.7334 15.6863 46.6446 15.5013 46.578C14.9538 46.3634 14.9094 46.3486 13.8365 45.8307C11.4243 44.6764 9.1676 43.0782 7.25121 41.1766C5.37921 39.3194 4.87607 38.6461 4.6245 37.699C4.29893 36.4263 5.09064 34.8651 6.3707 34.2583L6.87385 34.0216L7.87274 34.0586C8.42768 34.0808 9.1306 34.1326 9.43397 34.177C10.3145 34.3175 14.162 34.3027 15.3607 34.1548C17.7359 33.8662 19.5265 33.4888 22.1976 32.7119C22.7081 32.5565 23.4258 32.2902 25.0093 31.6686C26.3485 31.1359 29.1454 29.73 30.1517 29.0789C30.2109 29.0345 30.3293 28.9753 30.4107 28.9383C30.6252 28.8347 32.5268 27.5621 33.2889 27.0071C34.6282 26.0305 36.2264 24.6468 37.7137 23.167C38.5572 22.3383 39.3341 21.6057 39.4525 21.5391C39.5635 21.48 39.8446 21.3912 40.0666 21.3394C40.2886 21.295 40.4736 21.2506 40.481 21.2432C40.481 21.2358 40.6807 21.2728 40.9175 21.3172Z" fill="black"/>
<path d="M68.9234 28.6645C68.4202 28.7607 68.0207 28.8791 67.6063 29.0493C67.4731 29.1085 67.3178 29.1529 67.2586 29.1529C67.1994 29.1529 67.044 29.1973 66.9108 29.2565C66.7776 29.3157 66.3263 29.4636 65.9119 29.5894C62.4343 30.6327 62.2641 30.7067 61.4872 31.4836C60.8583 32.1052 60.5327 32.7267 60.3625 33.6072C60.2219 34.3471 60.2959 34.9982 60.6289 36.0489C60.7473 36.4263 60.9988 37.2328 61.1912 37.8469C62.1161 40.7696 62.2345 41.0434 62.93 41.7389C64.3285 43.1373 66.6 43.3075 68.1465 42.1385C68.6274 41.7759 69.2637 40.9768 69.7743 40.0889C69.8631 39.9335 70.8546 38.3279 71.8461 36.737C73.4665 34.1473 73.5849 33.8884 73.6441 32.9117C73.718 31.6242 73.3777 30.7215 72.475 29.8188C71.8313 29.1677 71.1949 28.8199 70.3736 28.6645C69.7595 28.5461 69.5745 28.5461 68.9234 28.6645ZM69.9667 31.5946C70.3884 31.713 70.6474 32.0386 70.6844 32.5121C70.7214 32.9487 70.6326 33.1706 70.1442 33.9254C70.0111 34.1251 69.5671 34.8429 69.1527 35.5162C68.7384 36.1895 68.3684 36.7888 68.3314 36.848C68.2944 36.9072 68.0429 37.3068 67.7839 37.7359C66.9108 39.1566 66.526 39.6893 66.2745 39.8299C65.8231 40.0889 65.1498 39.9557 64.8834 39.5487C64.7502 39.3416 64.5653 38.8162 64.0769 37.255C63.8919 36.6409 63.6404 35.8343 63.5146 35.457C63.3962 35.0796 63.2778 34.6431 63.2556 34.4803C63.1668 33.9254 63.4998 33.4074 64.0547 33.2372C65.5197 32.7859 66.5556 32.4529 66.7036 32.3937C66.8072 32.3493 67.0366 32.2753 67.2216 32.2235C67.4065 32.1718 67.8357 32.0386 68.1835 31.9276C69.5671 31.491 69.5745 31.4836 69.9667 31.5946Z" fill="black"/>
</g>
<defs>
<clipPath id="clip0_175_96">
<rect width="87.5139" height="100" fill="white"/>
</clipPath>
</defs>
</svg>
