<svg width="100" height="84" viewBox="0 0 100 84" fill="none" xmlns="http://www.w3.org/2000/svg">
<g clip-path="url(#clip0_139_125)">
<path d="M49.9911 0.0518671C49.7614 0.111159 49.3611 0.437266 49.2129 0.689258C49.1314 0.815254 49.0573 1.12654 49.0276 1.40076C48.9683 2.08263 48.8497 2.5792 48.657 2.92754C48.5681 3.09059 48.2939 3.58716 48.0493 4.03927C47.4193 5.17323 47.2637 5.73651 47.2563 6.85565C47.2489 7.57456 47.2859 7.87844 47.4341 8.44912C47.612 9.13099 47.7454 9.42745 49.035 11.9325C49.5983 13.0294 49.7317 13.4297 49.7317 14.0596C49.7317 14.7119 49.5835 15.1343 48.8423 16.6463C48.0345 18.2842 47.9381 18.5955 47.9307 19.4997C47.9233 20.1964 47.9381 20.2483 48.1456 20.5447C48.6793 21.3155 49.7614 21.4119 50.4655 20.7448C50.7249 20.5003 50.8434 20.1445 50.8434 19.6183C50.8434 18.929 51.1103 18.1879 51.7476 17.1206C52.0663 16.587 52.3924 15.8829 52.5184 15.453C52.7186 14.786 52.6963 13.3481 52.4814 12.5699C52.3035 11.9474 51.9774 11.1543 51.7032 10.6503C51.1992 9.73873 51.0584 9.47192 50.7841 8.93087C50.3246 8.02667 50.1764 7.5301 50.1764 6.92235C50.1764 6.32202 50.3913 5.71427 51.1103 4.26903C51.6513 3.18694 51.6958 3.08318 51.8366 2.54955C52.1034 1.549 51.9329 0.659612 51.3993 0.251978C51.1844 0.0889247 51.0436 0.0518671 50.6359 0.0296325C50.3617 0.022221 50.0726 0.0296325 49.9911 0.0518671Z" fill="black"/>
<path d="M60.7302 1.14872C59.9372 1.3266 59.6481 1.74164 59.5592 2.85337C59.5073 3.49076 59.3813 3.80946 58.7884 4.8693C58.1955 5.92915 58.0547 6.26267 57.9138 6.95935C57.7063 7.91544 57.7879 8.90117 58.151 10.0055C58.2622 10.3538 58.6698 11.1913 59.8557 13.4889C60.5746 14.8749 60.4931 15.7272 59.4777 17.669C58.8625 18.8474 58.6402 19.4404 58.5438 20.1593C58.403 21.2043 58.6624 21.8639 59.3294 22.1678C60.1595 22.5458 61.1453 22.1085 61.3528 21.271C61.3973 21.0857 61.4566 20.6929 61.4788 20.3964C61.5307 19.7813 61.6863 19.3885 62.3533 18.1952C62.8796 17.2688 62.9537 17.0761 63.1538 16.3053C63.3836 15.4011 63.302 14.1559 62.9537 13.3555C62.8944 13.2221 62.8499 13.0665 62.8499 13.0072C62.8499 12.9479 62.5757 12.3772 62.2422 11.7324C61.0267 9.3681 60.9229 9.14575 60.8043 8.60471C60.6116 7.7598 60.7154 7.39663 61.627 5.55858C62.2199 4.37273 62.3533 4.00216 62.4793 3.20912C62.5757 2.59397 62.4868 1.95657 62.2422 1.63047C61.9309 1.20801 61.3306 1.01531 60.7302 1.14872Z" fill="black"/>
<path d="M39.3111 1.18577C38.7774 1.34882 38.4588 1.88245 38.4143 2.66807C38.3772 3.28323 38.2068 3.82427 37.8584 4.44684C37.3693 5.3214 37.2877 5.46963 36.9764 6.0922C36.8208 6.40348 36.6133 7.52262 36.6133 8.04143C36.6133 8.62694 36.7689 9.48668 36.9542 9.91655C37.0135 10.05 37.058 10.1982 37.058 10.2427C37.058 10.3316 38.0215 12.2734 38.3624 12.8589C38.7626 13.5556 39.0072 14.1411 39.1332 14.734C39.2963 15.4381 39.0591 16.1941 38.2809 17.5282C37.8362 18.2842 37.5842 18.9215 37.4211 19.6775C37.2507 20.4854 37.2507 20.7596 37.3915 21.2488C37.5323 21.7305 37.7398 21.9825 38.1326 22.1604C38.5403 22.3457 38.9553 22.3457 39.3704 22.1678C39.9633 21.9084 40.2375 21.4637 40.2449 20.7374C40.2449 20.3594 40.4154 19.7368 40.6155 19.3811C41.6309 17.5801 41.9496 16.5943 41.9496 15.238C41.9496 13.8224 41.6309 12.8145 40.5117 10.6355C39.7484 9.16057 39.5779 8.67882 39.5779 8.0192C39.5779 7.44851 39.7854 6.85559 40.4599 5.53633C41.1788 4.12814 41.3122 3.69086 41.3122 2.77925C41.3196 1.93433 41.2307 1.69716 40.8008 1.36365C40.5859 1.20059 40.445 1.16353 40.0374 1.1413C39.7632 1.12648 39.4371 1.14871 39.3111 1.18577Z" fill="black"/>
<path d="M86.4556 10.0129C85.4477 10.1389 84.3878 10.554 83.5651 11.1469C82.9648 11.5768 82.3719 12.2067 81.5344 13.2962C81.1045 13.8669 80.6153 14.4969 80.4597 14.7044C78.1473 17.7061 77.7471 18.3138 77.7471 18.7808C77.7471 19.0624 78.0954 19.6924 78.3696 19.8999C78.718 20.1667 79.4443 20.2408 79.8445 20.0481C80.2225 19.8702 80.4375 19.6108 82.4905 16.8982C84.5138 14.2227 84.8844 13.7928 85.418 13.4519C86.0332 13.0591 86.5001 12.9405 87.3821 12.9405C88.0787 12.9405 88.2122 12.9627 88.6939 13.1702C89.3461 13.4445 89.7315 13.7409 90.1021 14.2523C90.4653 14.7415 90.5542 14.9119 90.7247 15.4456C90.9099 16.0311 90.9174 17.0909 90.7321 17.6023C90.4504 18.3805 90.2429 18.6548 88.6865 20.2334C87.8268 21.108 86.3519 22.6125 85.4106 23.5686C82.572 26.4591 82.2978 26.7333 78.1918 30.9134C72.1958 37.0057 70.002 39.2366 67.4821 41.7861L65.1845 44.1059L63.7467 43.9206C62.9611 43.8243 62.2792 43.7057 62.2348 43.6612C62.1755 43.602 62.2199 43.4982 62.3756 43.2907C63.1241 42.2901 65.7775 38.8141 66.3704 38.0581C66.5631 37.8061 68.5864 35.1454 70.758 32.2771C71.5585 31.2173 72.5071 29.9796 72.8555 29.5349C73.5966 28.5862 76.3241 24.9916 76.7243 24.4357C77.2579 23.6946 77.2802 22.9979 76.7836 22.442C76.1462 21.7157 75.2865 21.7157 74.612 22.4346C74.3378 22.7311 74.2785 22.8126 72.1588 25.6068C70.254 28.1193 70.0539 28.3713 69.9205 28.4454C69.8538 28.4824 69.6611 28.4824 69.4536 28.4454C69.2683 28.4157 68.8607 28.349 68.5568 28.312C65.6366 27.9488 65.2068 27.9043 62.924 27.6894C62.2866 27.6301 59.826 27.4374 58.5512 27.3485C55.1864 27.1187 45.1734 27.0742 42.6164 27.2818C42.105 27.3188 41.1267 27.3855 40.43 27.4226C38.1473 27.5486 34.1895 27.9266 31.8327 28.2453C30.5579 28.4157 27.5562 28.8975 26.5705 29.0902C26.2889 29.1421 25.7552 29.2458 25.3846 29.3125C24.6287 29.4459 24.0506 29.5645 22.8277 29.8387C22.3607 29.9425 21.8568 30.0611 21.7159 30.0907C21.2268 30.1945 20.7154 30.3279 20.456 30.4094C20.3152 30.4465 20.078 30.5132 19.9372 30.5428C19.2627 30.6911 17.1504 31.2914 16.3055 31.573C15.9201 31.7065 15.5051 31.8324 15.3791 31.8695C15.2605 31.9066 14.9715 32.0029 14.7491 32.0919C14.5268 32.1808 14.1117 32.329 13.8227 32.4254C13.1408 32.6551 11.6437 33.2332 11.1471 33.463C10.9248 33.5667 10.5542 33.7372 10.3244 33.841C6.60384 35.5308 3.59477 37.6208 2.05317 39.5775C1.84565 39.8443 1.65295 40.0741 1.63071 40.0963C1.51213 40.2001 0.99332 41.0598 0.741329 41.5638C0.474514 42.09 0.289226 42.6162 0.0817029 43.4018C-0.0220585 43.7946 -0.0220585 46.9001 0.0742914 47.9896C0.252168 49.7906 0.637567 52.0659 1.01556 53.5112C1.1119 53.8966 1.22308 54.3338 1.26014 54.4747C1.28978 54.6155 1.35649 54.8304 1.40095 54.9564C1.44542 55.075 1.60107 55.5345 1.74188 55.9792C2.72021 58.9809 4.00981 61.649 5.9294 64.6655C6.72984 65.9255 8.49378 68.2601 9.36834 69.2162C9.53881 69.4015 9.8575 69.7498 10.0798 69.9944C11.1175 71.158 12.1699 72.1734 13.8227 73.6112C14.5935 74.2857 16.8836 76.0051 17.9731 76.7166C19.4258 77.6727 19.7074 77.8506 20.2707 78.1471C20.5597 78.3027 20.9896 78.5399 21.2342 78.6807C22.0791 79.155 25.0289 80.5632 25.1919 80.5632C25.229 80.5632 25.4514 80.6522 25.6885 80.7559C26.148 80.9634 27.8897 81.5638 28.6457 81.7861C28.8903 81.8528 29.2238 81.9566 29.3869 82.0085C30.6913 82.4235 32.6702 82.8237 34.9826 83.135C35.9164 83.261 36.8725 83.2684 49.9168 83.2684C62.9388 83.2684 63.9172 83.261 64.851 83.135C66.7261 82.883 68.4011 82.5792 69.4091 82.2975C69.6537 82.2308 69.9724 82.1493 70.1132 82.1122C71.5288 81.7787 74.1525 80.8449 75.6867 80.1259C75.9609 80 76.2055 79.8962 76.2351 79.8962C76.3241 79.8962 78.5994 78.7474 79.1404 78.4361C79.4369 78.2582 79.6889 78.1174 79.7111 78.1174C79.7704 78.1174 81.2898 77.1836 82.1569 76.6055C84.4693 75.0787 86.5446 73.3815 88.5976 71.3285C90.7395 69.1865 92.4515 67.052 94.1117 64.4432C94.4749 63.8725 94.8677 63.2351 94.9715 63.035C95.0826 62.8274 95.2457 62.5458 95.3272 62.405C95.5051 62.1011 96.3945 60.3298 96.6761 59.7146C96.7799 59.4848 96.9503 59.1143 97.0541 58.8919C97.395 58.1508 98.1584 55.994 98.5364 54.7341C98.8032 53.8299 98.8699 53.5853 99.0107 52.9924C99.8186 49.5831 100.204 45.1435 99.8408 43.3944C99.4258 41.4007 98.5586 39.9036 96.8614 38.236C95.2086 36.6129 92.4664 34.9453 89.146 33.5297C88.39 33.2036 85.9813 32.3142 85.8627 32.3142C85.8331 32.3142 85.7071 32.2697 85.5811 32.2178C85.2846 32.0919 84.8918 31.951 84.6027 31.8695C84.4842 31.8324 84.2173 31.7509 84.0098 31.6916C83.8097 31.6249 83.328 31.4841 82.9574 31.3729C82.4756 31.2321 82.2681 31.1432 82.2681 31.0616C82.2681 31.0024 82.9796 30.2316 83.8468 29.3496C84.7139 28.475 86.5075 26.6518 87.8268 25.3029C93.0296 20.0111 92.5998 20.4854 93.1705 19.344C93.6003 18.4843 93.7634 17.7061 93.7708 16.5795C93.7708 15.5123 93.6596 14.9119 93.289 14.0077C92.3404 11.7176 90.4801 10.2797 88.0862 10.0055C87.3376 9.92398 87.1894 9.92398 86.4556 10.0129ZM56.3278 30.1723C57.0022 30.2167 58.1214 30.276 58.8106 30.3131C60.0335 30.3724 60.5153 30.4094 63.0352 30.654C65.066 30.8467 67.1412 31.0839 67.5785 31.1728C67.7934 31.2173 67.786 31.3433 67.5414 31.6694C64.977 35.0565 63.9394 36.3831 63.8134 36.4128C63.7319 36.435 63.4206 36.4202 63.1241 36.3905C61.2713 36.1756 58.5883 35.9829 55.9572 35.8717C53.504 35.768 47.6118 35.7309 45.3958 35.805C43.3798 35.8717 39.4073 36.1163 38.1325 36.2423C35.2272 36.5388 34.3452 36.6425 33.0185 36.8426C32.7369 36.8871 32.2848 36.9538 32.018 36.9909C31.7511 37.0205 31.2398 37.102 30.8692 37.1613C30.506 37.228 29.9057 37.3244 29.5351 37.3837C28.668 37.5245 28.1788 37.6134 27.0522 37.8506C26.5408 37.9544 25.9924 38.0655 25.8293 38.0952C25.4736 38.1619 24.9325 38.2953 24.4137 38.4361C24.2062 38.4954 23.9765 38.5399 23.9023 38.5399C23.8356 38.5399 23.6207 38.5918 23.428 38.6511C23.2427 38.7103 22.887 38.8067 22.6424 38.866C20.456 39.4293 17.3802 40.4076 15.7941 41.0524C15.5866 41.1413 15.2383 41.2821 15.0307 41.3637C14.2081 41.6972 11.6437 42.9423 11.2286 43.2091C11.1101 43.2907 10.9396 43.387 10.8581 43.4241C10.5468 43.5649 8.78283 44.7878 8.24179 45.2399C6.99666 46.2775 5.61811 47.908 5.26977 48.7455C5.09189 49.1828 4.90661 49.0642 4.05428 47.9599C3.62441 47.4041 3.12043 46.4554 3.03149 46.0255C3.00184 45.8847 2.94255 45.5882 2.89808 45.3659C2.72762 44.5432 2.99443 43.4685 3.64665 42.3568C4.11357 41.549 4.7732 40.793 5.68482 40.0222C6.46303 39.3626 7.89345 38.3546 8.3752 38.1248C8.43449 38.0952 8.60496 37.9988 8.74578 37.9099C9.22011 37.6134 12.1403 36.1682 12.2588 36.1682C12.2885 36.1682 12.6072 36.0496 12.9555 35.9014C13.3113 35.7531 13.7337 35.5827 13.8968 35.5234C14.0598 35.4641 14.297 35.3752 14.4156 35.3233C14.6676 35.2195 14.8455 35.1528 15.8979 34.7971C16.9207 34.4561 18.151 34.0781 19.2701 33.7594C20.1002 33.5223 20.4338 33.4333 20.6042 33.3963C20.708 33.374 21.0267 33.2999 21.3083 33.2184C21.5974 33.1369 22.1606 32.9961 22.5683 32.9071C22.9759 32.8182 23.5095 32.6996 23.7541 32.6477C24.1988 32.5514 24.8807 32.4105 25.9405 32.1956C26.2444 32.1363 26.7113 32.0326 26.9781 31.9733C27.2449 31.914 27.5562 31.8695 27.6674 31.8695C27.7786 31.8695 28.0824 31.825 28.3344 31.7657C28.5864 31.7065 29.1645 31.6027 29.6092 31.536C30.0613 31.4693 30.6098 31.3878 30.8321 31.3507C32.7072 31.0468 39.9409 30.3057 41.06 30.3131C41.3639 30.3131 42.0013 30.276 42.4682 30.2316C44.4174 30.0463 53.6226 30.0092 56.3278 30.1723ZM80.6376 33.7594C80.8229 33.8113 81.1564 33.9151 81.3787 33.9744C82.609 34.3301 84.4026 34.9156 85.1586 35.2047C85.3809 35.2936 85.6478 35.39 85.7515 35.427C86.0258 35.516 87.1004 35.9533 87.8638 36.2794C88.7384 36.6574 90.7617 37.6876 91.4436 38.1026C91.74 38.2805 92.0439 38.4658 92.1106 38.5028C92.5701 38.7696 93.7782 39.6516 94.1858 40.0074C95.6978 41.334 96.5798 42.5866 96.9133 43.8614C97.0393 44.3357 97.0393 44.5136 96.9355 45.0917C96.6687 46.5369 96.1351 47.7079 95.3494 48.5973C94.9566 49.042 94.7565 49.0939 94.6379 48.7826C94.5935 48.6714 94.3415 48.249 94.0673 47.8413C93.4817 46.952 92.1328 45.5734 91.0878 44.7952C90.4208 44.2986 89.2572 43.513 89.0126 43.4093C88.9533 43.3796 88.8051 43.2907 88.6791 43.2091C88.2789 42.9497 85.8108 41.7417 84.8992 41.3711C84.41 41.1636 83.5799 40.8449 83.0463 40.6522C82.5201 40.4669 81.9642 40.2668 81.8234 40.2149C81.3565 40.037 81.0452 39.9332 80.8229 39.874C80.7043 39.8369 80.267 39.7035 79.8594 39.5775C79.1108 39.3477 77.6063 38.9401 76.5242 38.6807C75.5903 38.4509 75.153 38.3175 75.153 38.2434C75.153 38.2064 76.1758 37.1391 77.4284 35.8717L79.7111 33.5593L80.0076 33.6038C80.1706 33.6334 80.4523 33.7002 80.6376 33.7594ZM54.6231 38.7622C57.358 38.8512 61.4047 39.1328 61.5825 39.244C61.7011 39.3107 61.5974 39.4811 60.6339 40.7263C60.1669 41.334 59.5147 42.1789 59.196 42.6014L58.6105 43.3722L58.151 43.3351C56.9948 43.2462 53.6003 43.1276 53.3261 43.1721C52.7406 43.2536 52.1847 43.9281 52.1773 44.5432C52.1773 44.899 52.4812 45.5289 52.7406 45.7068C53.1334 45.981 53.4595 46.0329 55.1419 46.0996C60.1076 46.2923 66.7854 47.1447 70.1503 48.0044C71.2768 48.3009 72.0698 48.1007 72.522 47.4041C72.7295 47.0928 72.7147 46.359 72.4923 46.0033C72.1884 45.5067 71.9142 45.3733 70.6691 45.0991C68.8162 44.7063 68.831 44.7063 68.8681 44.6247C68.8829 44.5951 69.713 43.7279 70.7135 42.6977C72.6405 40.7263 72.5738 40.7707 73.1742 40.9042C73.3446 40.9486 73.7374 41.0302 74.0413 41.0969C74.3452 41.1636 74.7825 41.2599 75.0048 41.3192C76.5094 41.6972 77.0207 41.8306 77.5618 41.9862C77.7693 42.0455 78.4512 42.2531 79.0812 42.4383C79.7111 42.6236 80.43 42.846 80.6746 42.9275C80.9192 43.0164 81.2898 43.1424 81.4899 43.2091C81.6974 43.2833 82.0309 43.4093 82.2311 43.4908C82.4386 43.5723 83.0018 43.7946 83.491 43.9873C84.6472 44.4395 86.5816 45.3955 87.6711 46.0478C90.1243 47.5226 91.7771 49.1977 92.2737 50.6874C92.3774 51.0061 92.3774 51.0135 92.1625 51.1914C92.0365 51.2877 91.8734 51.3989 91.7919 51.4433C91.7104 51.4804 91.577 51.5545 91.4955 51.599C90.1614 52.4587 86.7891 53.9781 84.662 54.6896C84.4175 54.7711 84.1284 54.8749 84.0321 54.9119C83.743 55.0379 81.0378 55.8458 79.7482 56.2015C78.2585 56.6166 75.8794 57.1576 74.3748 57.4393C73.6114 57.5801 73.0778 57.6838 72.6554 57.7802C72.4034 57.8395 72.1069 57.884 72.0031 57.884C71.8994 57.884 71.6029 57.9284 71.3509 57.9877C71.0989 58.047 70.506 58.1508 70.0391 58.2175C69.5722 58.2842 68.9867 58.3657 68.7421 58.4102C67.119 58.6622 62.9388 59.092 59.9594 59.3218C55.7867 59.6405 48.1232 59.7739 44.7658 59.5886C44.0913 59.5516 43.076 59.4997 42.5053 59.4774C40.2077 59.3885 35.998 59.0031 32.6109 58.5732C30.3652 58.2916 30.1577 58.2619 29.7204 58.1878C29.498 58.1508 28.9792 58.0618 28.5716 57.9951C28.164 57.9284 27.66 57.8469 27.4599 57.8098C26.8892 57.7135 26.4149 57.8543 26.0369 58.2249C25.7997 58.4695 25.7182 58.6103 25.6811 58.8771C25.5403 59.7813 25.896 60.3668 26.7335 60.6262C27.0004 60.7078 27.3116 60.7745 27.4302 60.7745C27.5488 60.7745 27.8823 60.8189 28.1788 60.8782C28.7865 60.9968 29.7574 61.1599 30.8692 61.3229C31.5436 61.4267 31.9735 61.4785 34.1302 61.738C35.0048 61.8417 36.9392 62.0196 38.0954 62.1085C38.6068 62.1456 39.4888 62.2123 40.0595 62.2568C43.5874 62.5162 44.9733 62.5606 50.065 62.5532C52.9185 62.5532 55.72 62.5236 56.2907 62.4791C56.8614 62.442 57.7434 62.3902 58.2548 62.3679C60.1299 62.279 62.924 62.0418 65.7404 61.7231C66.8225 61.6045 67.9565 61.4785 68.2603 61.4415C68.5642 61.4118 69.0163 61.3451 69.2609 61.3007C70.6394 61.0635 71.0693 60.9968 71.2546 60.9968C71.3658 60.9968 71.6622 60.9523 71.9142 60.893C72.1662 60.8337 72.6924 60.73 73.0778 60.6633C74.7602 60.3668 76.9392 59.9295 77.5247 59.7739C77.7471 59.722 78.1844 59.6108 78.4882 59.5441C78.7921 59.4774 79.1923 59.3811 79.3776 59.3292C79.5629 59.2773 79.9112 59.181 80.1558 59.1143C82.4089 58.5065 83.5355 58.1878 84.0469 57.9951C84.1877 57.9433 84.4916 57.8469 84.7139 57.7802C84.9363 57.7061 85.2401 57.6023 85.3809 57.5504C85.5218 57.4911 86.0776 57.291 86.6039 57.1057C90.1614 55.8236 93.0593 54.2894 95.5199 52.392C96.061 51.977 96.0906 51.9622 96.1128 52.1326C96.1425 52.3401 95.8312 53.6372 95.557 54.4598C95.4606 54.7785 95.3494 55.1269 95.3124 55.2529C95.2753 55.3715 95.179 55.6605 95.09 55.8828C95.0085 56.1052 94.8825 56.4387 94.8158 56.624C94.386 57.8765 93.0741 60.5818 92.1921 62.0492C89.7982 66.0144 86.589 69.609 82.861 72.4921C82.0754 73.0924 81.7197 73.3518 80.4523 74.2264C79.2961 75.0194 77.8212 75.8495 76.0054 76.7389C74.2933 77.5764 74.0413 77.695 73.315 77.9618C73.0037 78.0804 72.559 78.2508 72.3367 78.3398C72.1143 78.4287 71.8327 78.5251 71.7067 78.5621C71.4918 78.6214 71.2916 78.6881 70.7061 78.8956C70.5653 78.9475 70.2318 79.0513 69.965 79.118C69.6982 79.1921 69.4017 79.2736 69.2979 79.3107C68.9941 79.4144 66.7928 79.874 65.9998 79.9925C65.5922 80.0592 65.0289 80.1482 64.7399 80.1926C63.5318 80.3779 60.2114 80.4224 48.4345 80.4002C37.458 80.3705 36.2722 80.3557 35.4643 80.2371C33.4854 79.9555 31.803 79.6294 30.5727 79.2959C29.2905 78.9401 26.7261 78.0507 25.7997 77.6283C25.5699 77.5245 25.2883 77.3911 25.1623 77.3392C22.6498 76.2127 19.9446 74.6192 17.7508 72.9738C15.8312 71.536 14.9715 70.7874 13.2668 69.0754C10.3837 66.1923 8.14544 63.1239 6.42597 59.6998C5.77375 58.4028 5.57364 57.9284 4.93625 56.2534C4.87696 56.1126 4.78061 55.8606 4.72132 55.6976C4.57309 55.3344 4.21733 54.1782 4.01722 53.437C3.72817 52.3698 3.67629 52.103 3.75041 52.0363C3.78747 51.9918 4.15804 52.2216 4.69167 52.6218C6.55196 54.03 8.7606 55.238 11.6733 56.4535C12.8295 56.9427 14.9937 57.7357 15.5273 57.8765C15.6533 57.9136 15.8312 57.9729 15.935 58.0248C16.1277 58.1063 18.0028 58.6548 18.9737 58.9142C19.2776 58.9883 19.8631 59.1439 20.2707 59.2551C21.0118 59.4552 21.0118 59.4552 21.4047 59.3218C22.5238 58.9438 22.8499 57.6542 22.0272 56.9056C21.7456 56.6536 21.5529 56.5795 20.2336 56.2164C19.7371 56.083 18.655 55.7717 17.7508 55.5049C17.4691 55.4159 16.8021 55.201 16.2685 55.0305C15.0159 54.6081 14.8306 54.5414 14.5638 54.4302C14.4452 54.3783 14.2081 54.2894 14.045 54.2301C11.9772 53.4445 9.39799 52.229 8.33814 51.5397C8.09356 51.3841 7.82675 51.221 7.74522 51.1765C7.51546 51.0579 7.53029 50.8949 7.80451 50.3094C8.67166 48.4639 10.7098 46.7593 14.1117 45.0324C14.7713 44.6989 15.7571 44.2542 16.3055 44.0318C18.0102 43.3574 18.3363 43.2314 18.6031 43.1424C19.4925 42.8386 20.2336 42.6014 21.0489 42.3642C21.5603 42.216 22.1458 42.0455 22.3459 41.9862C22.5534 41.9269 22.9166 41.8232 23.1612 41.7639C23.4058 41.6972 23.7763 41.5934 23.9765 41.5415C24.688 41.3414 25.0808 41.2599 27.0893 40.8449C28.6457 40.5262 29.3053 40.4076 30.4615 40.2075C30.8469 40.1408 31.4176 40.037 31.7215 39.9777C32.0328 39.9184 32.3737 39.874 32.4849 39.874C32.6035 39.874 32.9666 39.8221 33.3002 39.7702C35.4791 39.3848 42.572 38.7845 45.544 38.74C48.4419 38.6955 52.8518 38.7029 54.6231 38.7622Z" fill="black"/>
<path d="M25.5329 46.0329C25.4143 46.0774 25.1253 46.1589 24.9029 46.2256C24.6806 46.2923 24.3767 46.3813 24.2359 46.4332C24.0951 46.485 23.7912 46.5814 23.5688 46.6555C23.3465 46.7222 23.0945 46.8111 23.013 46.8482C22.9314 46.8853 22.5312 47.0335 22.131 47.1743C20.7302 47.6783 18.7736 48.6121 18.2548 49.0272C17.5433 49.5905 17.5433 50.7022 18.2474 51.221C18.9366 51.7324 19.2627 51.7176 20.4486 51.1098C20.9674 50.8504 21.5974 50.5466 21.8642 50.4354C22.131 50.3316 22.4497 50.1982 22.5683 50.1389C22.6943 50.087 22.9389 49.9907 23.1241 49.9314C23.3094 49.8647 23.643 49.7461 23.8653 49.6572C24.0876 49.5756 24.7547 49.3533 25.3476 49.168C26.6669 48.753 26.9856 48.5825 27.1931 48.1526C27.4228 47.6709 27.4525 47.4189 27.3191 47.0113C27.1708 46.5666 26.8299 46.2182 26.3926 46.0626C26.0295 45.9366 25.8516 45.9292 25.5329 46.0329Z" fill="black"/>
<path d="M76.1167 46.9149C75.4793 47.1298 75.0791 47.6856 75.0791 48.323C75.0865 48.5973 75.3533 49.1383 75.5979 49.3607C75.7165 49.4718 76.1093 49.6645 76.4651 49.7979C77.436 50.1611 78.8516 50.7688 79.2296 50.9912C80.4821 51.7027 80.9639 51.7472 81.6605 51.2209C82.3795 50.6873 82.3646 49.6052 81.6383 49.0049C81.3122 48.7381 79.3778 47.7672 78.4513 47.4114C77.725 47.1298 76.6652 46.7666 76.5762 46.7666C76.5466 46.774 76.3391 46.8333 76.1167 46.9149Z" fill="black"/>
<path d="M46.0627 48.6936C44.5063 48.7603 41.4083 49.0049 40.2817 49.1457C37.7173 49.4644 37.5246 49.5015 37.1541 49.8276C36.4944 50.4057 36.45 51.2802 37.0429 51.9028C37.4283 52.3104 37.8285 52.4142 38.5993 52.3179C42.5571 51.8435 44.6842 51.673 47.508 51.5989C49.7537 51.5396 53.6669 51.6063 55.2382 51.7323C56.4092 51.8213 56.7353 51.7546 57.1874 51.3173C57.4394 51.0727 57.5135 50.9393 57.5506 50.6577C57.6692 49.8795 57.4098 49.331 56.765 49.0123C56.4907 48.8789 56.2239 48.8344 55.1048 48.7677C53.2667 48.6566 47.9526 48.6195 46.0627 48.6936Z" fill="black"/>
</g>
<defs>
<clipPath id="clip0_139_125">
<rect width="100" height="83.2685" fill="white"/>
</clipPath>
</defs>
</svg>
