<svg width="100" height="85" viewBox="0 0 100 85" fill="none" xmlns="http://www.w3.org/2000/svg">
<g clip-path="url(#clip0_143_173)">
<path d="M21.234 0.15569C20.8264 0.20757 20.3076 0.30392 20.0852 0.363212C19.3812 0.563324 18.0693 1.26742 17.4838 1.75658C16.8612 2.27539 12.8961 5.73657 12.7849 5.86256C12.7478 5.90703 12.3476 6.25537 11.8955 6.64077C11.4508 7.01876 11.0654 7.35228 11.0432 7.38193C11.021 7.40416 10.7171 7.67839 10.3687 7.97485C9.73876 8.5233 8.95313 9.21257 7.9674 10.0797C7.68576 10.3317 7.16696 10.7838 6.81862 11.0877C6.47027 11.3841 6.17381 11.651 6.15158 11.6732C6.12934 11.6954 5.72912 12.0438 5.2622 12.4514C4.79527 12.8516 4.39505 13.2074 4.37281 13.2296C4.35058 13.2519 3.40932 14.0819 2.28276 15.0677C1.13398 16.0756 0.177891 16.965 0.118598 17.0984C0.0148371 17.306 1.40104e-05 18.2324 1.40104e-05 25.3771C1.40104e-05 33.8262 -0.0073975 33.7077 0.31871 34.723C0.748578 36.0719 1.66761 37.3467 2.85345 38.2435C3.62425 38.8216 4.20976 39.1181 5.89218 39.7555C7.50048 40.3632 8.2861 40.6671 8.48621 40.756C8.6122 40.8079 8.88643 40.8968 9.09395 40.9487C10.3094 41.26 11.2878 40.0297 10.7393 38.8883C10.517 38.4362 10.2279 38.2657 8.56032 37.6358C8.39727 37.5765 8.16751 37.4801 8.04152 37.4282C7.79694 37.3245 7.61906 37.2578 6.41098 36.7983C5.38078 36.4055 5.10655 36.2646 4.58034 35.857C4.18753 35.5605 3.48343 34.7453 3.48343 34.597C3.48343 34.56 3.44637 34.4933 3.39449 34.4414C3.30555 34.3525 3.17956 34.0412 2.97945 33.389C2.86827 33.0184 2.85345 32.3958 2.85345 26.4962C2.85345 20.0556 2.85345 20.0112 3.00168 20.0186C3.08321 20.026 3.32038 20.1001 3.52049 20.1816C3.72801 20.2557 4.39505 20.5151 5.00279 20.7449C5.61795 20.9747 6.18123 21.1896 6.26275 21.2267C6.34428 21.2637 6.55921 21.3452 6.7445 21.4194C6.92979 21.4935 7.14472 21.575 7.22625 21.6121C7.47083 21.7084 8.07857 21.9456 8.74561 22.1976C9.09395 22.3236 9.74617 22.583 10.1983 22.7608C10.6504 22.9387 11.0728 23.0869 11.1395 23.0869C11.2062 23.0869 11.2729 23.1166 11.3026 23.1611C11.3248 23.1981 11.4508 23.2648 11.5842 23.3019C11.7176 23.3389 11.9919 23.4353 12.192 23.5168C12.3995 23.5983 12.9331 23.7985 13.3778 23.9689C13.8299 24.132 14.2598 24.3024 14.3413 24.3395C14.497 24.4062 14.9713 24.5915 15.453 24.7694C15.6161 24.8287 15.8088 24.9102 15.8755 24.9472C15.9422 24.9843 16.2313 25.0881 16.5055 25.1844C16.9353 25.34 17.6394 25.6069 18.9365 26.1034C19.0995 26.1701 19.3367 26.2591 19.4553 26.311C19.6924 26.4147 19.9 26.4962 20.9376 26.8891C21.6639 27.1633 23.0573 27.6969 23.5316 27.8748C23.6947 27.9415 23.9318 28.0378 24.0504 28.0897C24.1764 28.1416 24.4062 28.2305 24.5692 28.2972C24.7323 28.3565 24.9991 28.4603 25.1621 28.5196C25.3252 28.5863 25.6958 28.7271 25.9774 28.8309C26.6519 29.0903 27.7562 29.5127 28.0897 29.6461C28.3565 29.7499 29.4756 30.1798 30.6467 30.6245C31.6843 31.0173 31.8918 31.0988 32.129 31.2026C32.255 31.2544 32.4921 31.3508 32.67 31.4175C33.3593 31.6769 33.5594 31.7584 34.056 31.9437C34.7156 32.1957 35.8273 32.6256 36.1683 32.759C36.6648 32.9591 38.0508 33.4853 39.0587 33.8707C39.5701 34.0634 39.9926 34.2265 40.2075 34.3154C40.3335 34.3673 40.5707 34.4636 40.7486 34.5303C41.9122 34.9676 41.9122 34.9676 41.9122 35.0936C41.9122 35.2048 41.9567 35.1751 40.9116 35.6791C38.8438 36.6723 37.5171 37.5913 35.4049 39.4886C33.967 40.7857 31.6769 43.7058 30.6763 45.5364C30.4095 46.0108 30.328 46.0404 29.861 45.8477C29.2014 45.5735 29.1718 45.5661 28.8679 45.4475C28.2157 45.1955 27.5709 44.9509 26.7927 44.6619C26.348 44.4914 25.9107 44.3284 25.8292 44.2913C25.5772 44.1801 24.2431 43.6687 22.7163 43.0906C22.3902 42.9646 21.8937 42.7645 21.612 42.646C21.3304 42.5274 21.0413 42.431 20.9672 42.431C20.8931 42.431 20.819 42.4014 20.7893 42.3569C20.7671 42.3198 20.6411 42.2531 20.5077 42.2161C20.3743 42.179 20.1075 42.0827 19.9 42.0012C19.6998 41.9196 19.1662 41.7195 18.7141 41.549C18.2694 41.3786 17.8321 41.2155 17.7506 41.1785C17.6691 41.1414 17.4616 41.0599 17.2911 40.9932C16.5277 40.7041 16.3276 40.6226 16.083 40.5114C15.9274 40.4447 15.6161 40.3929 15.3048 40.3929C14.8453 40.3929 14.7564 40.4151 14.5118 40.6078C13.7706 41.1711 13.652 42.0901 14.2301 42.7497C14.4673 43.0165 14.6378 43.1203 15.1714 43.3204C15.5272 43.4538 15.9274 43.602 16.046 43.6539C16.298 43.7577 16.7945 43.9504 17.2318 44.1134C17.3949 44.1801 17.595 44.2543 17.6765 44.2913C17.758 44.3284 18.2768 44.5211 18.8253 44.7286C19.3737 44.9361 19.9518 45.1585 20.1075 45.2178C20.2557 45.277 20.5225 45.3734 20.7004 45.4401C20.8709 45.5068 21.1154 45.6032 21.234 45.655C21.36 45.7069 21.5898 45.7959 21.7528 45.8626C21.9159 45.9218 22.3013 46.0775 22.6052 46.1961C22.909 46.3147 23.376 46.4851 23.6428 46.5815C23.9096 46.6778 24.1542 46.7816 24.1912 46.8186C24.2357 46.8483 24.3098 46.8779 24.3691 46.8779C24.4284 46.8779 24.5766 46.9224 24.7026 46.9817C24.836 47.0336 25.088 47.1373 25.2733 47.2115C25.4586 47.2856 25.7106 47.3819 25.8292 47.4338C25.9552 47.4857 26.1849 47.582 26.348 47.6413C26.511 47.7006 27.0447 47.9081 27.5338 48.0934C28.023 48.2787 28.4603 48.4344 28.5047 48.4344C28.5492 48.4344 28.6752 48.5011 28.779 48.5826L28.9717 48.7382L28.8234 49.0866C28.7419 49.2793 28.6233 49.5313 28.5714 49.6573C28.401 50.0278 28.0823 50.8135 27.8525 51.436C27.7265 51.7621 27.5635 52.192 27.4819 52.3995C26.9706 53.7558 26.4147 55.6013 25.8292 57.9211C25.5549 59.0106 25.5031 59.2255 25.466 59.4405C25.4438 59.5591 25.3623 59.9815 25.2807 60.3669C25.0213 61.6046 24.71 63.5242 24.5247 65.0362C24.1393 68.1787 24.8583 71.8029 26.474 74.8194C28.4529 78.5177 32.04 81.4972 36.0571 82.7794C37.7691 83.3204 39.8444 83.8244 41.171 84.0023C41.4156 84.0393 41.8158 84.106 42.0604 84.1505C46.2035 84.8916 53.7187 84.9806 58.514 84.3358C60.6263 84.0541 63.3463 83.5353 64.332 83.2315C64.5173 83.1722 64.9991 83.0239 65.4067 82.8979C65.8143 82.7719 66.2665 82.6237 66.4073 82.5718C67.267 82.2309 67.5486 82.1049 68.1119 81.8233C68.4603 81.6528 68.8605 81.4379 69.0013 81.3489C69.1421 81.2674 69.3126 81.1711 69.3719 81.1414C69.572 81.0451 70.6615 80.2817 71.1877 79.8666C73.5742 77.9693 75.5605 75.1084 76.524 72.1957C77.2577 69.9574 77.5616 67.7117 77.3912 65.7625C77.3393 65.2215 77.3022 64.6211 77.3022 64.421V64.0727L77.8655 63.8133C78.1694 63.6724 78.4362 63.5539 78.4584 63.5539C78.4732 63.5539 78.6659 63.4723 78.8809 63.3612C79.0884 63.2574 79.8147 62.9387 80.4818 62.6497C81.1562 62.368 81.7565 62.1012 81.8158 62.0716C81.8825 62.0345 82.0826 61.9382 82.2679 61.8566C82.4532 61.7751 82.8683 61.5898 83.1944 61.4416C83.5205 61.2933 84.2172 60.9895 84.7434 60.7597C85.2696 60.5374 85.7588 60.3224 85.8181 60.2928C85.8848 60.2557 86.1219 60.1446 86.3443 60.0482C86.5666 59.9445 86.9668 59.7666 87.2337 59.6406C87.5005 59.522 88.0489 59.2774 88.4566 59.1069C88.8642 58.9365 89.4349 58.6845 89.7165 58.5511C90.0056 58.4251 90.4725 58.2102 90.7541 58.0842C91.8436 57.6098 92.7034 57.2244 93.1999 56.9947C93.489 56.8613 94.0448 56.6167 94.4377 56.4462C96.8612 55.416 98.2768 54.1635 99.181 52.2365C99.522 51.5175 99.6331 51.1618 99.8332 50.2205C99.9815 49.5387 99.9815 49.22 99.9815 35.0121V20.5003L99.8258 20.1965C99.6257 19.8185 99.3663 19.5961 98.7808 19.3219C98.3509 19.1218 97.4393 18.6845 95.7198 17.8618C95.3567 17.6839 94.7712 17.4097 94.4228 17.2467C94.0745 17.0836 93.237 16.6834 92.5625 16.3573C91.8807 16.0312 91.1618 15.6902 90.9691 15.6013C90.769 15.505 90.0278 15.1566 89.3237 14.8157C88.6196 14.4748 88.0267 14.1931 88.0119 14.1931C87.997 14.1931 87.2559 13.8448 86.3739 13.4149C85.4919 12.985 84.7582 12.6367 84.7434 12.6367C84.7286 12.6367 84.1579 12.3625 83.476 12.0364C81.6898 11.1692 80.9932 10.8728 80.2742 10.6652C77.9915 9.99819 75.7606 10.0427 73.5223 10.7838C73.1295 10.9172 72.1734 11.31 71.5583 11.5991C71.1432 11.7918 70.7801 11.9548 69.2237 12.6367C67.897 13.2222 67.5709 13.363 66.9113 13.6669C66.7334 13.7484 66.2739 13.9485 65.8885 14.119C65.5031 14.2895 65.0361 14.497 64.8509 14.5785C64.6656 14.66 64.332 14.8083 64.1097 14.912C63.8874 15.0084 63.6131 15.1418 63.502 15.2011C63.25 15.3345 62.9906 15.3345 62.6496 15.1863C62.3235 15.0454 62.2123 15.001 61.6639 14.786C61.4415 14.6971 61.1896 14.5933 61.108 14.5563C61.0265 14.5266 60.4632 14.3117 59.8481 14.0819C59.2403 13.8596 58.6696 13.6447 58.5881 13.6076C58.3584 13.5113 56.0089 12.5996 55.1788 12.2884C55.0158 12.2291 54.786 12.1327 54.66 12.0808C54.4451 11.9919 54.0967 11.8585 53.4742 11.6213C53.3111 11.5546 53.0814 11.4657 52.9554 11.4138C52.8368 11.3619 52.4365 11.2137 52.066 11.0803C51.4212 10.8505 50.9024 10.6504 49.7313 10.1761C49.1458 9.9389 49.0643 9.90926 47.9526 9.4868C47.5672 9.33857 47.0335 9.13846 46.7667 9.0347C46.4999 8.93093 46.1664 8.79753 46.0256 8.74565C45.8848 8.69377 45.4994 8.54554 45.1733 8.41213C44.3358 8.07861 44.1875 8.01932 43.061 7.59686C42.5125 7.38934 41.9937 7.19664 41.9122 7.15958C41.6454 7.04841 40.2891 6.52219 38.7993 5.95891C37.821 5.58834 37.6209 5.51422 37.3912 5.41046C37.1095 5.29188 36.7908 5.16588 35.7606 4.77307C35.3159 4.6026 34.6489 4.35061 34.2783 4.20979C33.9151 4.06897 33.4927 3.91333 33.3519 3.86145C32.7812 3.63911 32.418 3.49829 32.2031 3.40935C31.9807 3.313 31.8547 3.26112 30.869 2.89054C30.1872 2.63114 29.0828 2.20127 28.7567 2.07527C28.3491 1.91222 26.3925 1.15625 25.9403 0.993192C25.718 0.911665 25.3993 0.785669 25.2363 0.726377C24.169 0.318743 23.7614 0.214982 22.8868 0.118632C22.494 0.0741631 22.1308 0.044517 22.0715 0.044517C22.0197 0.0519285 21.6417 0.0963976 21.234 0.15569ZM23.4797 3.19441C23.6724 3.25371 24.0801 3.40935 24.3839 3.53534C24.9546 3.7651 25.0065 3.78734 26.1256 4.20979C26.4962 4.35061 27.1633 4.6026 27.6079 4.77307C28.9494 5.28446 29.0087 5.3067 29.2385 5.41046C29.5127 5.52163 29.8759 5.66986 30.6467 5.95891C31.2174 6.17385 32.6997 6.74453 33.3148 6.97429C33.4779 7.041 33.715 7.13735 33.8336 7.18923C33.9596 7.24111 34.2487 7.35969 34.4784 7.44122C35.0417 7.64133 36.3684 8.15272 37.0576 8.42695C37.6506 8.66412 37.7617 8.70859 38.7993 9.1014C40.3706 9.69432 41.1266 9.99078 41.6157 10.1909C42.3495 10.4948 43.8688 11.0803 43.9207 11.0803C43.9355 11.0803 44.3432 11.2359 44.8249 11.4212C46.4851 12.066 47.33 12.3995 48.5084 12.8516C49.1607 13.1036 49.8129 13.3556 49.9537 13.4149C50.2501 13.5335 51.6954 14.0894 52.5848 14.4229C53.3778 14.7193 53.7262 14.8602 53.993 14.9787C54.4006 15.1492 54.9416 15.3641 56.1053 15.7866C56.7352 16.0164 57.3578 16.2535 57.4764 16.3054C57.6024 16.3573 58.0026 16.5203 58.3658 16.6686C59.2255 17.0021 59.2329 17.0984 58.4399 17.432C58.1138 17.5728 57.6987 17.7506 57.5134 17.8322C57.3282 17.9211 57.0836 18.0323 56.9576 18.0842C56.839 18.1435 56.5055 18.2917 56.2164 18.4251C55.9348 18.5511 55.164 18.892 54.5118 19.1737C53.8596 19.4627 53.1629 19.7666 52.9554 19.8629C52.7552 19.9593 52.1697 20.2187 51.6583 20.441C50.769 20.8264 49.9982 21.1748 49.4349 21.4342C49.0198 21.6269 48.716 21.8789 48.5677 22.1383C48.4417 22.368 48.4343 22.7386 48.3973 27.9785L48.3602 33.5742L47.7006 33.678C46.9298 33.804 46.9891 33.8188 44.3209 32.759C43.6242 32.4848 42.2902 31.9659 41.7269 31.7584C40.8079 31.4175 40.5336 31.3063 40.2816 31.2026C40.1631 31.1507 39.9259 31.0543 39.7628 30.9876C39.2885 30.8098 37.8951 30.2761 37.1688 30.0019C36.1312 29.6091 36.02 29.5646 35.39 29.3126C35.0639 29.1792 34.6785 29.031 34.5377 28.9791C34.3969 28.9198 33.9819 28.7642 33.6113 28.6234C33.2481 28.4825 32.7886 28.3121 32.5959 28.2454C32.4032 28.1787 32.1809 28.0971 32.1141 28.0601C32.04 28.023 31.8473 27.9415 31.6843 27.8822C31.3137 27.734 29.9648 27.2226 29.0902 26.8891C28.0526 26.4962 27.8451 26.4147 27.6079 26.311C27.4894 26.2591 27.2448 26.1627 27.0743 26.096C26.8964 26.0293 26.6296 25.933 26.4814 25.8737C25.1696 25.3697 24.8212 25.2363 24.5173 25.1325C24.3246 25.0658 24.1023 24.9843 24.0356 24.9472C23.9615 24.9102 23.7688 24.8287 23.6057 24.7694C23.1388 24.5841 21.5898 23.9912 20.9376 23.7466C20.6115 23.6206 20.2112 23.4723 20.0482 23.4131C19.8851 23.3463 19.6554 23.25 19.5442 23.1907C19.4256 23.1314 19.2848 23.0869 19.2329 23.0869C19.181 23.0869 19.0402 23.0425 18.9216 22.9832C18.8105 22.9239 18.5807 22.8275 18.4177 22.7608C18.2546 22.7015 17.8544 22.5533 17.5283 22.4273C15.7569 21.7603 14.6674 21.3378 14.3413 21.1896C14.2227 21.1377 13.652 20.9228 13.0814 20.7078C12.5107 20.5003 11.8807 20.2632 11.6732 20.1816C11.4731 20.1001 11.2062 20.0112 11.0951 19.9741C10.9765 19.937 10.8431 19.8778 10.7986 19.8407C10.7467 19.8036 10.643 19.7518 10.5614 19.7295C10.4799 19.7073 10.2502 19.6258 10.0426 19.5442C9.84252 19.4627 9.30889 19.2626 8.85678 19.0921C8.41209 18.9291 7.97481 18.7586 7.89329 18.7216C7.75247 18.6623 7.47824 18.5511 6.80379 18.2991C6.62592 18.2324 6.42581 18.1509 6.3591 18.1138C6.2924 18.0768 6.00335 17.973 5.72912 17.8692C4.56551 17.4616 4.37281 17.3727 4.37281 17.2467C4.37281 17.1725 4.44693 17.054 4.54328 16.9724C5.07691 16.5203 6.27758 15.4827 6.33687 15.4086C6.40357 15.3345 10.6948 11.5768 11.5175 10.8653C11.725 10.6875 12.0141 10.4429 12.1549 10.3095C12.2957 10.1835 12.696 9.82773 13.0443 9.53127C13.3926 9.2274 13.9114 8.77529 14.1931 8.5233C15.5123 7.35228 16.3202 6.64819 18.4621 4.7953C19.9074 3.54276 20.441 3.23147 21.4564 3.06842C21.9604 2.98689 23.0573 3.0536 23.4797 3.19441ZM78.4881 13.2296C79.0291 13.3408 79.6591 13.5187 79.9333 13.6373C80.7856 14.0004 81.4823 14.3265 83.1425 15.127C83.8466 15.4679 84.4395 15.7495 84.4617 15.7495C84.4766 15.7495 85.2103 16.0979 86.0923 16.5277C86.9668 16.9576 87.7006 17.306 87.7154 17.306C87.7302 17.306 88.2713 17.5579 88.9161 17.8692C89.5609 18.1805 90.3539 18.5585 90.68 18.7141C92.229 19.4553 93.3408 19.9815 94.0374 20.315C94.4525 20.5151 94.7934 20.7153 94.7934 20.7597C94.7934 20.8487 94.6304 20.9376 93.741 21.3378C93.5038 21.4416 93.1332 21.6121 92.9257 21.7084C92.7108 21.8048 92.1697 22.0419 91.7176 22.2346C90.8801 22.5904 90.5763 22.7312 89.6053 23.1833C89.3015 23.3241 88.716 23.5835 88.3083 23.754C87.9007 23.9244 87.2929 24.1987 86.952 24.3543C86.6185 24.5174 86.322 24.6434 86.3072 24.6434C86.285 24.6434 86.0923 24.7323 85.8773 24.8361C85.6698 24.9398 85.0621 25.2066 84.5359 25.4364C84.0096 25.6587 83.5205 25.8737 83.4612 25.9033C83.3945 25.9404 83.1573 26.0516 82.935 26.1479C82.7126 26.2517 82.3124 26.4295 82.0456 26.5555C81.7788 26.6741 81.1191 26.9632 80.5707 27.2003C80.0222 27.4301 79.5183 27.6524 79.459 27.6821C79.3181 27.7562 78.9402 27.9267 77.2281 28.6826C76.5166 28.9939 75.7977 29.3126 75.6346 29.3867C75.4716 29.4609 75.1529 29.6091 74.9305 29.7054C74.7082 29.8092 74.3228 29.9797 74.0782 30.0908C73.8336 30.202 73.4853 30.3502 73.3 30.4244C72.9294 30.5726 71.8918 31.0395 71.5731 31.2026C71.2618 31.3656 71.1062 31.3434 70.5281 31.0617C70.239 30.9209 69.6683 30.6541 69.2607 30.4614C68.8531 30.2687 68.0897 29.8981 67.5561 29.6461C67.0298 29.3867 66.3628 29.0755 66.0738 28.942C65.7921 28.8086 65.1399 28.5048 64.6285 28.2602C64.1171 28.0156 63.3685 27.6524 62.9609 27.4597C62.5533 27.267 61.9011 26.9558 61.5157 26.7705C61.1303 26.5926 60.4262 26.2591 59.9592 26.0293C59.4923 25.807 58.7438 25.4512 58.2917 25.2363C57.847 25.0288 57.1429 24.6952 56.7352 24.4951C56.3276 24.295 55.7124 24.006 55.3641 23.8429C53.7632 23.1018 53.5779 22.998 53.6002 22.8868C53.615 22.8201 53.993 22.6052 54.5118 22.3829C55.0009 22.1753 55.5716 21.9233 55.7717 21.8344C55.9793 21.738 56.3276 21.5824 56.5499 21.4786C56.7723 21.3823 57.0095 21.2711 57.0762 21.2341C57.1355 21.2044 57.6394 20.9821 58.1879 20.7523C58.7363 20.5151 59.4553 20.1965 59.7962 20.0408C60.1297 19.8778 60.4262 19.7518 60.441 19.7518C60.4632 19.7518 60.6559 19.6628 60.8709 19.5591C61.0784 19.4553 61.6935 19.1885 62.2198 18.9587C62.7534 18.7364 63.3537 18.4696 63.5538 18.3806C63.7614 18.2843 64.1097 18.1212 64.332 18.0249C64.5544 17.9211 64.8879 17.7729 65.0732 17.6914C65.2585 17.6098 65.7254 17.4023 66.1108 17.2318C66.4962 17.0614 66.9557 16.8613 67.1336 16.7797C67.7858 16.4833 68.1119 16.3425 69.3719 15.7866C70.0834 15.4679 70.8394 15.1344 71.0395 15.0454C72.418 14.4081 74.308 13.6076 74.7452 13.4668C75.9014 13.111 77.4356 13.0147 78.4881 13.2296ZM97.0539 36.2424C97.0539 49.9389 97.0613 49.635 96.7426 50.4725C96.4017 51.3619 95.8088 52.1994 95.1862 52.696C94.9491 52.8813 94.4228 53.1926 94.0152 53.3927C93.1999 53.7929 93.1629 53.8077 91.31 54.623C89.6202 55.3715 89.2199 55.542 89.0791 55.6235C89.0124 55.6532 88.627 55.8236 88.2268 55.9941C87.8266 56.172 87.2188 56.4388 86.8779 56.5944C86.5444 56.7575 86.2479 56.8835 86.2331 56.8835C86.2109 56.8835 86.0182 56.965 85.8032 57.0762C85.5957 57.18 84.8842 57.4912 84.232 57.7729C83.5798 58.0545 82.8683 58.3658 82.6607 58.4696C82.4458 58.5807 82.2531 58.6623 82.2383 58.6623C82.2161 58.6623 81.9641 58.7734 81.6602 58.9142C81.3637 59.0477 80.756 59.3219 80.3039 59.5146C79.8592 59.7073 79.2144 59.9963 78.8735 60.152C78.5399 60.315 78.2509 60.441 78.2287 60.441C78.2138 60.441 77.9174 60.5744 77.569 60.7375C77.2207 60.9005 76.8798 61.0117 76.8205 60.9895C76.6945 60.9376 76.6871 60.9228 76.4869 59.9222C76.3017 58.9958 76.0126 57.7358 75.8644 57.217C75.8051 57.0095 75.7013 56.6315 75.6346 56.3647C75.5605 56.0979 75.4642 55.7495 75.4123 55.5865C75.3604 55.4234 75.2122 54.9417 75.0788 54.5118C74.5748 52.822 73.5668 50.1909 72.8998 48.7975L72.633 48.2342V41.1266C72.633 37.2207 72.6626 33.9819 72.6922 33.9374C72.7219 33.8929 72.9961 33.7521 73.3 33.6261C73.6039 33.5001 74.093 33.2926 74.3747 33.1666C74.6637 33.0406 75.0417 32.8627 75.227 32.7886C75.4123 32.7071 75.6124 32.6108 75.6791 32.5737C75.7458 32.544 76.1312 32.3736 76.5314 32.2031C76.9316 32.0327 77.6357 31.7214 78.0804 31.5213C78.5325 31.3211 79.0439 31.084 79.2292 31.0024C79.4145 30.9283 79.6146 30.832 79.6813 30.7949C79.7406 30.7653 80.2446 30.5429 80.793 30.3132C81.3415 30.076 82.0604 29.7573 82.4013 29.6017C82.7349 29.4386 83.0313 29.3126 83.0461 29.3126C83.0684 29.3126 83.2611 29.2237 83.476 29.1199C83.6835 29.0162 84.2913 28.7493 84.8175 28.5196C85.3437 28.2972 85.8329 28.0823 85.8922 28.0527C85.9589 28.0156 86.159 27.9193 86.3443 27.8377C86.5296 27.7562 86.9372 27.5709 87.2559 27.4301C87.5746 27.2819 87.8488 27.1633 87.871 27.1633C87.9007 27.1633 89.0198 26.6667 89.7165 26.348C90.1686 26.1405 90.6133 25.9404 91.3693 25.6143C92.7108 25.0213 93.3852 24.7249 93.8447 24.51C94.1041 24.3914 94.7489 24.1023 95.2752 23.88C95.8088 23.6502 96.3721 23.3982 96.5351 23.3167C96.6982 23.2352 96.8835 23.1759 96.9428 23.1833C97.0391 23.1981 97.0539 24.7101 97.0539 36.2424ZM51.94 25.466C52.2142 25.592 52.8516 25.8959 53.363 26.1405C54.4895 26.6815 55.2381 27.0373 56.2164 27.4968C56.6241 27.6895 57.3949 28.0601 57.9211 28.3121C58.4547 28.5641 59.1884 28.9198 59.5516 29.0903C59.9222 29.2607 60.693 29.6387 61.2785 29.913C61.864 30.1946 62.3532 30.4244 62.3606 30.4244C62.3754 30.4244 63.0869 30.7579 63.9318 31.1729C64.7841 31.5805 65.718 32.0252 65.9996 32.1661C66.2887 32.2995 66.9557 32.6182 67.4819 32.8702C68.0156 33.1296 68.6604 33.4334 68.9272 33.552C69.7499 33.9226 69.6683 33.3741 69.6683 38.5177C69.6683 41.2822 69.6387 43.0239 69.6016 43.0239C69.5572 43.0239 69.3719 42.8164 69.1792 42.557C68.0007 41.0154 66.5481 39.4961 65.1844 38.3843C64.2209 37.5987 62.746 36.5982 61.9307 36.1757C61.6491 36.0275 61.3823 35.8792 61.3378 35.8496C61.0636 35.6495 59.0328 34.812 58.4399 34.6563C58.3213 34.6193 58.136 34.56 58.0322 34.5155C57.8618 34.4488 57.6839 34.3969 56.5129 34.1005C55.3641 33.8114 54.1338 33.641 52.5551 33.5372C51.7843 33.4853 51.3915 33.4334 51.3471 33.3741C51.2804 33.263 51.2655 25.5327 51.3322 25.3549C51.3915 25.2066 51.3619 25.1992 51.94 25.466ZM53.4667 36.5759C55.0751 36.7834 56.6759 37.1392 57.3504 37.4357C57.4838 37.4949 57.6394 37.5394 57.6987 37.5394C57.7506 37.5394 57.8914 37.5839 58.01 37.6432C58.1212 37.7025 58.5214 37.8729 58.8846 38.0212C61.3452 39.0217 63.7539 40.7708 65.8218 43.061C66.5629 43.8837 67.808 45.5216 68.3417 46.3888C68.564 46.7445 68.8012 47.1225 68.8679 47.2337C68.9346 47.3449 69.0754 47.582 69.1718 47.7673C69.2755 47.9526 69.4608 48.2861 69.5868 48.5085C69.7202 48.7308 69.8833 49.0495 69.9574 49.2126C70.8616 51.184 70.9654 51.4138 71.2841 52.2142C71.5064 52.7701 72.3068 55.1492 72.5292 55.92C72.5885 56.1423 72.6922 56.4759 72.7441 56.6611C72.9739 57.4171 73.4408 59.5442 73.8484 61.701C73.9077 62.0049 73.9967 62.457 74.0411 62.7015C74.0856 62.9461 74.1597 63.3982 74.1968 63.7021C74.2264 64.006 74.2931 64.3914 74.3302 64.547C74.4414 65.0139 74.5007 67.1485 74.4265 68.0378C74.3228 69.1644 74.1968 69.787 73.8262 70.9654C73.1443 73.137 72.0771 74.9009 70.4317 76.5759C69.1051 77.9174 67.6079 78.9105 65.6661 79.711C64.4951 80.2001 61.7602 80.8746 59.5887 81.2229C57.973 81.4749 57.7506 81.5046 55.1788 81.7195C53.8966 81.8307 47.9674 81.8307 46.6926 81.7195C43.9504 81.4898 43.8762 81.4823 42.2828 81.2229C40.2816 80.8968 37.7321 80.2817 36.4944 79.8147C36.2127 79.711 35.9237 79.6072 35.8496 79.585C35.5234 79.4886 33.8559 78.5474 33.2185 78.1027C31.8696 77.1614 30.3131 75.4938 29.4238 74.0412C28.3194 72.2402 27.645 70.202 27.4227 68.0008C27.2744 66.5111 27.3411 65.6513 27.8377 62.7386C28.0304 61.6046 28.5196 59.1811 28.653 58.6993C28.7197 58.4547 28.8012 58.136 28.8308 57.9952C28.9124 57.6321 29.1125 56.8835 29.194 56.6611C29.2311 56.5574 29.32 56.2757 29.3867 56.0312C29.5201 55.5494 30.3947 52.9331 30.5577 52.5107C30.6096 52.3699 30.6911 52.1698 30.7356 52.066C30.7801 51.9622 30.9431 51.5768 31.0914 51.2137C31.7732 49.5683 33.1814 46.9076 33.9596 45.8033C36.0867 42.7794 37.7395 41.0969 40.1557 39.4961C40.9635 38.955 42.305 38.2435 43.1351 37.91C43.3574 37.8211 43.6465 37.7025 43.7651 37.6506C44.0467 37.5246 45.114 37.1837 45.6105 37.0577C47.9303 36.4573 51.058 36.272 53.4667 36.5759Z" fill="black"/>
<path d="M23.4724 4.96581C23.176 5.11405 23.0277 5.24004 21.8123 6.35177C20.5004 7.53761 19.0552 8.93098 17.8249 10.1909C13.7263 14.3784 12.533 16.8539 13.8671 18.3733C14.6379 19.2478 15.8682 19.3812 17.684 18.7957C18.4326 18.5585 18.7661 18.4103 20.2707 17.6692C21.3527 17.1355 21.7085 16.9428 22.7535 16.3203C23.4354 15.92 23.6133 15.8015 25.0956 14.838C27.4821 13.289 30.1799 11.7622 30.4022 11.8363C30.5653 11.8956 28.7643 13.6373 26.7928 15.3345C25.1623 16.7427 23.8653 18.062 23.3242 18.8847C22.6646 19.8778 22.3533 20.7375 22.3978 21.4416C22.4719 22.6794 23.428 23.6725 24.8139 23.969C25.3624 24.0801 26.563 24.0727 27.2301 23.9467C28.831 23.6354 31.3509 22.4792 33.4261 21.1007C33.6485 20.9451 34.4934 20.3225 35.3086 19.7147C37.6285 17.9656 37.9916 17.6988 38.6364 17.2541C39.6147 16.5797 40.5189 16.0535 41.1637 15.7866C41.7863 15.5346 42.8684 15.2678 42.9944 15.3419C43.2019 15.4754 42.9203 16.0683 42.1791 17.0688C41.9123 17.4246 40.7265 18.692 39.5332 19.9C38.3474 21.1007 37.2282 22.2495 37.0578 22.457C36.8873 22.6571 36.6724 22.9165 36.576 23.0203C36.2944 23.3316 35.7237 24.1913 35.4272 24.7546C34.9084 25.7551 34.7602 26.4592 34.9381 27.1485C35.1604 28.0157 35.6644 28.5641 36.5464 28.9124C37.08 29.12 37.1319 29.1274 38.3918 29.12C39.763 29.12 40.7191 28.9717 42.3644 28.5345C43.2464 28.2973 43.4984 28.1861 43.743 27.9267C44.3729 27.2671 44.2766 26.2443 43.528 25.7255C43.0685 25.4068 42.6757 25.3994 41.6529 25.6736C40.4671 25.9849 39.4146 26.185 38.7995 26.1998C38.088 26.2221 38.0213 26.2147 38.0213 26.1035C38.0213 26.0516 38.2955 25.644 38.629 25.1993C39.0366 24.6508 39.926 23.6873 41.3268 22.2717C43.617 19.9593 44.1432 19.3812 44.8399 18.3807C45.9738 16.7724 46.3889 15.379 46.0554 14.2673C45.6922 13.0444 44.6472 12.4144 42.9944 12.4144C42.3125 12.4144 41.1712 12.6145 40.6301 12.8294C40.4819 12.8887 40.2892 12.9703 40.2077 12.9999C38.7031 13.6077 37.2875 14.5267 33.6707 17.2764C32.1587 18.4251 31.4917 18.8847 30.7209 19.3071C30.4763 19.4405 30.2466 19.5739 30.2021 19.6036C29.8834 19.8556 28.1936 20.6115 27.3116 20.8932C26.7187 21.0859 25.6514 21.1896 25.5254 21.0636C25.3031 20.8413 26.6446 19.3812 28.8013 17.4839C31.8252 14.8306 33.767 12.785 34.4489 11.525C34.8936 10.7023 35.0048 9.67954 34.7083 9.10886C34.5082 8.73087 34.1006 8.3677 33.6707 8.18242C33.063 7.92301 31.8697 8.01936 30.8321 8.41958C30.6097 8.50111 30.3355 8.59746 30.2318 8.63452C30.128 8.66416 29.9798 8.72346 29.8982 8.76793C29.8241 8.8124 29.3053 9.06439 28.7569 9.3312C27.6822 9.85001 27.282 10.0649 25.9034 10.8802C25.0511 11.3768 24.7695 11.5547 22.9388 12.7405C20.7228 14.1857 19.07 15.09 17.6396 15.6681C16.7502 16.0238 16.7502 15.883 17.6173 14.8083C18.3511 13.9041 18.5141 13.7114 19.4554 12.7257C20.0631 12.0809 22.0717 10.0872 22.5386 9.66472C22.6498 9.56837 23.0796 9.16815 23.5021 8.77534C23.9245 8.38253 24.4434 7.9156 24.6435 7.74514C24.851 7.57467 25.1178 7.27821 25.2512 7.08551C25.4587 6.79646 25.4884 6.67788 25.4958 6.29248C25.4958 5.90708 25.4661 5.79591 25.2734 5.5365C24.9325 5.06216 24.5693 4.85464 24.0876 4.85464C23.8653 4.85464 23.5836 4.90652 23.4724 4.96581Z" fill="black"/>
<path d="M78.4658 14.371C77.9544 14.6008 77.5245 15.2233 77.5245 15.7495C77.5245 16.1424 77.6357 16.3499 78.4213 17.3949C78.7845 17.8692 79.081 18.2769 79.081 18.2991C79.081 18.3213 79.1699 18.4622 79.2737 18.6178C79.6739 19.2033 80.1927 20.4781 80.1927 20.8709C80.1927 21.1377 80 21.197 79.333 21.1229C78.6807 21.0562 77.1317 20.5077 76.4499 20.1075C76.3683 20.063 75.9829 19.8629 75.5975 19.6702C74.5599 19.1514 74.1523 19.0477 73.1517 19.0477C72.3809 19.0477 72.2624 19.0699 71.8695 19.2478C71.2099 19.5591 70.6837 20.1001 70.4021 20.7746C70.1871 21.2934 70.1723 21.4045 70.1723 22.1605C70.1723 23.0351 70.328 23.8874 70.6615 24.7397C70.9135 25.3993 70.9209 25.429 70.8616 25.5253C70.7875 25.6439 70.1501 25.5328 69.2533 25.2437C67.0446 24.5174 65.1176 23.4575 64.2505 22.4644C63.8799 22.0419 63.4352 21.864 62.909 21.9233C61.7751 22.0642 61.2933 23.2871 61.9826 24.2876C62.657 25.2733 64.4803 26.4814 66.637 27.3856C68.186 28.0304 68.9642 28.2824 69.9648 28.4603C71.8028 28.7864 73.0776 28.4232 73.7298 27.4005C74.2412 26.6074 74.219 25.807 73.6335 24.3099C73.4556 23.8577 73.2629 23.2574 73.1888 22.9758C72.8997 21.7603 73.085 21.7158 74.8712 22.5904C76.4054 23.3464 76.5536 23.4131 77.4134 23.6873C78.6733 24.1023 79.8962 24.2209 80.7708 24.0134C81.3711 23.8726 81.7565 23.6725 82.1716 23.2871C82.5866 22.9091 82.8015 22.5756 82.9572 22.0864C83.3574 20.7968 83.0609 19.3886 81.9715 17.4171C81.549 16.6463 80.4224 15.0973 80 14.6971C79.5775 14.2969 78.9327 14.1635 78.4658 14.371Z" fill="black"/>
<path d="M44.8769 40.1186C44.2247 40.4299 43.8541 41.134 44.0172 41.7639C44.1283 42.179 44.2914 42.4087 44.6694 42.6756C44.951 42.8757 45.0325 42.8905 46.0702 42.9572C47.7896 43.0535 49.0422 43.2388 50.1391 43.5575C50.4281 43.6391 50.7617 43.728 50.8802 43.7576C51.0952 43.8169 51.7251 44.0541 52.5108 44.3728C52.8739 44.521 54.4378 45.3066 54.7268 45.4919C56.1276 46.3591 57.1652 47.1892 58.3362 48.3528C59.4405 49.4645 60.2039 50.4502 61.123 51.9548C61.4935 52.5625 62.079 53.8077 62.42 54.697C63.7911 58.3065 63.9616 62.2716 62.8943 65.4808C62.6349 66.2664 62.5237 66.5258 62.1309 67.3337C60.6338 70.4243 58.0027 72.9072 54.8825 74.1894C53.5039 74.7526 52.6442 75.0046 51.362 75.1973C50.1317 75.39 47.5969 75.2937 46.8039 75.0269C46.6853 74.9824 46.463 74.9231 46.3221 74.8935C45.4031 74.6859 43.7874 73.8929 42.8387 73.1814C40.8969 71.7287 39.6073 69.9722 38.8587 67.7413C38.5178 66.7185 38.4066 66.1997 38.3103 65.0732C38.1917 63.6872 38.3399 62.531 38.7995 61.2562C39.1181 60.3743 39.9038 59.1069 40.6005 58.3658C40.9562 57.9729 41.9938 57.1429 42.5052 56.8316C43.0759 56.4832 43.8912 56.1571 44.8324 55.8977C45.6181 55.6828 47.8341 55.668 48.5085 55.8681C50.8284 56.5722 52.3848 58.0693 53.1333 60.3298C53.3705 61.0635 53.4743 62.1827 53.3705 62.8645C52.9999 65.1547 51.2879 66.8668 49.0866 67.1336C47.7896 67.2892 46.7298 66.9483 45.8775 66.0811C45.2104 65.4067 44.9362 64.8286 44.8028 63.8132C44.6916 62.9831 44.5953 62.7311 44.2692 62.4347C43.528 61.7454 42.2013 62.1012 41.9419 63.0572C41.8308 63.4797 41.9123 64.7248 42.0976 65.3029C42.9203 67.9637 45.04 69.7424 47.7526 70.076C49.561 70.2909 51.6288 69.698 53.2223 68.4899C55.5124 66.7704 56.6909 63.8355 56.2536 60.9598C55.9794 59.1514 55.3716 57.7284 54.2451 56.2831C53.6299 55.5049 53.0073 54.9342 52.1031 54.3339C51.0878 53.6594 50.2799 53.2963 49.2126 53.0295C44.9733 51.977 40.2521 53.7706 37.584 57.4393C36.991 58.2546 36.991 58.2472 36.5834 59.0402C36.2573 59.685 35.8348 60.8264 35.6273 61.6639C34.8936 64.5099 35.5013 68.1564 37.2134 71.2618C37.4654 71.7139 38.1547 72.6848 38.629 73.2407C40.6005 75.5753 43.1278 77.1317 46.1369 77.8877C47.2412 78.1619 47.9156 78.2286 49.4646 78.2286C50.9988 78.2286 51.5843 78.1693 52.9184 77.8877C57.0318 76.9983 60.5893 74.7082 63.1537 71.2989C63.4502 70.9135 63.6355 70.6244 64.1987 69.7202C64.4137 69.3719 65.1326 67.9044 65.3031 67.4819C65.644 66.5925 66.0887 65.0509 66.2591 64.1838C66.3851 63.5019 66.5482 61.8047 66.5556 61.1451C66.5556 60.5077 66.3555 58.0174 66.2962 57.9136C66.274 57.884 66.2221 57.632 66.185 57.3504C66.1109 56.8316 66.059 56.5796 65.7996 55.6235C65.1845 53.3852 64.3025 51.4137 63.05 49.509C61.6344 47.3522 59.7963 45.4549 57.5877 43.8688C55.8608 42.6237 53.4446 41.4527 51.3249 40.8301C49.7463 40.3706 47.9749 40.0815 46.248 40.0148C45.2919 39.9778 45.1437 39.9926 44.8769 40.1186Z" fill="black"/>
</g>
<defs>
<clipPath id="clip0_143_173">
<rect width="100" height="84.7693" fill="white"/>
</clipPath>
</defs>
</svg>
