<svg width="100" height="100" viewBox="0 0 100 100" fill="none" xmlns="http://www.w3.org/2000/svg">
<g clip-path="url(#clip0_171_31)">
<path d="M44.6915 0.144435C42.4533 0.374192 39.6443 0.833706 38.4288 1.17464C38.1842 1.24134 37.8655 1.32287 37.7247 1.35251C37.3615 1.43404 36.613 1.63415 36.3906 1.71568C36.2869 1.75274 36.0052 1.84167 35.7607 1.90838C34.4711 2.27895 32.7071 2.90152 31.462 3.43515C31.3804 3.4648 30.9802 3.63526 30.5726 3.80573C29.7054 4.16148 27.4523 5.2658 26.4963 5.79202C26.1331 5.99954 25.7773 6.18483 25.718 6.21447C25.3623 6.38494 23.5687 7.50408 22.4199 8.26747C17.5061 11.5359 13.489 15.301 9.93891 19.9554C9.39045 20.6818 8.30837 22.2085 7.93038 22.8015C7.06324 24.1652 5.95892 26.0922 5.29188 27.404C4.60261 28.7752 4.28391 29.457 3.565 31.1839C3.1796 32.1029 2.95725 32.6959 2.4755 34.0744C2.34951 34.4524 1.76399 36.4387 1.60094 37.0761C1.52683 37.3429 1.4453 37.6542 1.40824 37.7802C1.1859 38.5435 0.681912 41.1153 0.489212 42.4494C0.074167 45.3918 0.0371094 45.9773 0.0371094 49.9721C0.0371094 53.8558 0.074167 54.4709 0.489212 57.4207C0.667089 58.6881 1.00061 60.5261 1.19331 61.2747C1.23778 61.4377 1.3193 61.7713 1.3786 62.0158C1.4453 62.2604 1.53424 62.6088 1.59353 62.7941C1.64541 62.9793 1.74917 63.3425 1.81588 63.6093C1.97893 64.2171 2.77937 66.737 2.9276 67.1076C2.9869 67.2632 3.08325 67.5152 3.14254 67.6634C3.35006 68.2193 3.72064 69.1383 3.81699 69.3533C3.86887 69.4718 3.98745 69.7609 4.07639 69.9832C4.22462 70.3686 5.91445 73.815 6.0775 74.0596C6.19609 74.2449 6.81865 75.3269 6.81865 75.3566C6.81865 75.3714 7.05582 75.7568 7.34487 76.2237C9.16811 79.1365 10.9913 81.5526 13.074 83.8057C13.489 84.2504 13.993 84.7989 14.2005 85.0212C14.6156 85.4733 16.6093 87.3188 17.3801 87.9636C17.6691 88.2008 17.9137 88.4157 17.9359 88.4379C18.225 88.7566 20.908 90.7355 22.2717 91.6397C23.0202 92.1363 25.1029 93.4036 25.1696 93.4036C25.1844 93.4036 25.3401 93.4926 25.5031 93.5963C26.5481 94.256 30.0093 95.8643 32.0178 96.6277C32.1587 96.6795 32.4625 96.7981 32.6849 96.8871C32.9072 96.9834 33.2778 97.1168 33.5001 97.1835C34.4192 97.48 36.3017 98.0581 36.613 98.1396C36.7983 98.1841 37.1318 98.2804 37.3541 98.3397C37.5765 98.4064 37.8804 98.488 38.0212 98.5176C38.162 98.5547 38.5177 98.6362 38.7994 98.6955C40.4299 99.0809 42.305 99.3847 45.1362 99.7405C46.4629 99.9036 53.4742 99.9036 54.875 99.7405C57.4764 99.4366 60.1594 98.9845 61.5379 98.6288C61.7677 98.5695 62.1679 98.4657 62.4273 98.399C63.7169 98.0729 66.1034 97.3318 67.0744 96.9612C67.2967 96.8722 67.5635 96.7759 67.6673 96.7388C67.771 96.7092 67.9563 96.6425 68.0749 96.5906C68.2009 96.5387 68.364 96.472 68.4455 96.435C70.9358 95.4122 72.0104 94.8934 72.3291 94.5673C72.7664 94.1077 72.7812 93.2777 72.3588 92.7514C71.9808 92.2845 71.7807 92.1807 71.2767 92.1807C70.8839 92.1807 70.706 92.2326 70.039 92.5365C69.2089 92.9219 68.7419 93.1294 68.3565 93.2999C68.2231 93.3592 68.0008 93.4481 67.8748 93.5074C66.9335 93.915 64.2728 94.8489 63.1685 95.1528C60.0556 96.0273 57.4764 96.5091 54.1412 96.8648C52.7108 97.0131 47.3375 97.0353 46.1739 96.8945C45.7885 96.8426 45.1511 96.7759 44.7657 96.7462C44.0912 96.6795 43.8689 96.6499 42.3199 96.3979C40.1409 96.0347 36.9836 95.2862 35.6865 94.8193C35.568 94.7748 35.0788 94.6043 34.6119 94.4487C32.2105 93.6334 29.8018 92.5884 27.4598 91.3284C22.7683 88.8085 18.1138 85.1324 14.7638 81.2932C14.4081 80.8856 14.0227 80.4483 13.9115 80.3297C13.6743 80.0703 12.5478 78.6251 11.9474 77.8098C11.562 77.2836 10.2057 75.2602 9.70174 74.4524C9.42751 74.0225 9.3534 73.8965 8.60483 72.5402C8.10085 71.636 7.37452 70.1759 7.00394 69.3162C6.8483 68.9679 6.64819 68.5157 6.55925 68.3156C6.18868 67.4781 5.67728 66.1367 5.44752 65.3881C5.34376 65.0397 5.21035 64.6395 5.15847 64.4987C4.95095 63.9503 4.87684 63.7131 4.81754 63.4611C4.78049 63.3203 4.69896 63.0312 4.63967 62.8311C3.8911 60.2519 3.20183 56.435 3.03137 53.9373C2.85349 51.2395 2.81643 49.9721 2.89055 48.4972C2.99431 46.4072 3.09807 44.9619 3.18701 44.5617C3.22407 44.3764 3.25371 44.0725 3.26112 43.8873C3.26112 43.6946 3.30559 43.2943 3.36488 42.9979C3.42418 42.694 3.52053 42.1307 3.58723 41.7453C3.76511 40.7448 4.15051 38.8771 4.25427 38.4843C4.30615 38.299 4.40991 37.9358 4.48402 37.669C4.55073 37.4022 4.65449 37.0538 4.71378 36.8908C4.77307 36.7203 4.81754 36.535 4.81754 36.4683C4.81754 36.3942 4.86201 36.2311 4.9213 36.0977C4.9806 35.9643 5.16588 35.4159 5.33635 34.8897C5.89221 33.1554 6.78901 30.9764 7.65616 29.2569C7.85627 28.8493 8.09344 28.3823 8.17496 28.2193C8.42696 27.7079 9.56833 25.7216 9.89444 25.2176C10.0649 24.9508 10.3317 24.5358 10.4874 24.2912C10.8579 23.6983 12.1031 21.9417 12.4885 21.4748C12.6515 21.2673 12.9702 20.8671 13.1926 20.5854C14.8898 18.3842 17.847 15.427 20.3817 13.3888C21.9975 12.0918 24.888 10.0759 26.0812 9.41625C26.2517 9.3199 26.4518 9.20873 26.5185 9.17167C28.2083 8.17853 29.7277 7.41514 32.129 6.35529C33.048 5.94766 34.2191 5.51779 35.6124 5.06569C36.2646 4.85075 36.902 4.64323 37.0206 4.60617C37.9248 4.3023 40.1853 3.77608 41.8752 3.47962C45.4327 2.84223 49.1978 2.7607 52.5478 3.24245C54.6008 3.53891 56.4166 3.97619 58.2546 4.621C58.9513 4.86558 60.8931 5.70308 61.4416 5.99954C62.4051 6.52576 62.7386 6.71846 62.9239 6.83704C63.0277 6.90375 63.3464 7.11127 63.628 7.28914C64.4359 7.79313 66.0738 9.04568 66.852 9.75718C68.6085 11.3655 69.7499 12.744 70.9061 14.6562C71.1359 15.0342 71.6991 16.183 71.8696 16.6203C71.9734 16.8871 72.1216 17.2651 72.2031 17.4726C72.2847 17.6727 72.381 17.9395 72.4107 18.0655C72.4477 18.1841 72.5441 18.5176 72.6256 18.8067C73.0851 20.3705 73.2407 21.4822 73.2778 23.55C73.3223 25.566 73.3297 25.6253 73.7744 26.0922C74.2413 26.5962 74.4562 26.6555 75.7829 26.6332C77.5098 26.611 78.6067 26.7222 80.1928 27.0779C83.187 27.7524 85.781 29.0346 88.0119 30.9541C88.6715 31.5174 90.0353 32.8811 90.6208 33.5556C91.5917 34.6821 92.8516 36.4906 93.5928 37.8098C94.082 38.6844 94.912 40.4557 95.0899 41.0042C95.127 41.1079 95.2233 41.3747 95.3123 41.5971C95.9793 43.3092 96.7056 46.4961 96.8687 48.4898C97.0688 50.7874 97.1059 51.5878 97.0614 52.5661C96.9799 54.5376 96.7797 56.5017 96.5352 57.7172C96.4833 57.9988 96.4166 58.3842 96.3869 58.5695C96.3425 58.9104 95.9126 60.8893 95.7273 61.6082C95.6235 62.0084 95.4901 62.4828 95.2678 63.2017C95.2085 63.4018 95.127 63.6686 95.0899 63.7946C94.9639 64.2171 94.2895 66.107 94.0227 66.8037C93.7336 67.53 93.6891 67.6338 93.326 68.4268C93.2074 68.6936 93.0147 69.1235 92.8961 69.3903C92.6071 70.0351 91.651 71.9251 91.3471 72.429C91.2137 72.6514 90.9988 73.0368 90.8653 73.2814C90.7319 73.5259 90.5318 73.8595 90.4281 74.0225C90.3243 74.1856 90.2205 74.3486 90.1983 74.3931C90.1168 74.5561 89.6128 75.3269 89.0199 76.2089C86.7742 79.5293 84.1431 82.5384 81.1563 85.1991C80.6893 85.6141 80.1409 86.0885 79.9334 86.2515C79.7332 86.4146 79.5109 86.5925 79.4516 86.6518C79.3923 86.7036 78.7623 87.1928 78.0434 87.7338C76.5611 88.853 76.4425 89.0012 76.5018 89.7349C76.5908 90.7948 77.7173 91.4396 78.6067 90.9282C78.9624 90.7281 80.4373 89.6238 81.4527 88.8011C83.4761 87.1706 86.0775 84.6432 87.7229 82.7311C89.3238 80.8708 90.6282 79.1439 91.9178 77.1724C92.57 76.1793 93.6669 74.3931 93.7781 74.1337C93.8077 74.0744 93.9041 73.9039 93.9856 73.7631C94.2376 73.3481 95.8088 70.2056 95.9719 69.7905C96.0534 69.583 96.1868 69.2495 96.2758 69.0494C96.5796 68.3601 96.6315 68.2415 96.7575 67.908C96.8316 67.7227 96.928 67.4707 96.9799 67.3521C97.217 66.8037 97.8618 64.8545 98.3139 63.3129C98.7957 61.6971 99.0403 60.5928 99.4627 58.1248C99.5887 57.3836 99.7518 56.0273 99.8778 54.6933C100.011 53.2035 99.9963 49.9128 99.8407 48.601C99.5813 46.422 99.2552 44.5543 98.892 43.2276C98.7883 42.8422 98.6771 42.4198 98.6475 42.3012C98.5659 41.9973 98.1657 40.8337 97.9952 40.3742C97.9137 40.1667 97.7581 39.7739 97.6543 39.4922C97.1874 38.2916 95.9645 35.8828 95.4901 35.2454C95.3938 35.1194 95.3123 34.9934 95.3123 34.9712C95.3123 34.9045 94.2747 33.4296 93.741 32.7403C93.0369 31.8287 91.7103 30.3686 90.9024 29.6201C90.1316 28.9012 90.1538 28.827 91.0729 29.0197C91.3916 29.0864 91.9252 29.1902 92.2735 29.2569C92.6219 29.3162 93.1703 29.42 93.4964 29.4867C94.4674 29.6794 95.2307 29.7016 95.5346 29.5385C96.3128 29.1309 96.5352 27.8784 95.9422 27.2261C95.6828 26.9371 95.4012 26.8185 94.6971 26.6999C94.4822 26.6629 93.6447 26.5146 92.8294 26.3664C92.0141 26.2182 91.1618 26.0699 90.9395 26.0329C90.391 25.944 89.7388 25.818 89.1829 25.692C88.9309 25.6327 88.6345 25.5882 88.5307 25.5882C88.427 25.5882 88.1305 25.5437 87.8785 25.4844C87.4338 25.3807 86.8557 25.2695 85.492 25.0323C85.1288 24.9656 84.573 24.8693 84.2691 24.81C83.9652 24.7507 83.5354 24.684 83.3204 24.6543C83.0981 24.6247 82.9054 24.558 82.8831 24.5061C82.8609 24.4468 82.9498 24.2764 83.0684 24.1281C83.187 23.9725 83.3278 23.7057 83.3723 23.5352C83.6095 22.6681 82.8313 21.7342 81.89 21.7342C81.4305 21.7342 81.0747 21.9788 80.0816 22.9868L79.2663 23.8094H78.8587C78.1027 23.8094 76.4499 23.6464 76.361 23.5574C76.3091 23.5056 76.2572 23.0609 76.2276 22.3642L76.1757 21.2525L79.4442 17.9914C81.3119 16.1237 82.8387 14.6636 83.0091 14.5673C83.9059 14.0855 85.0547 14.3894 85.6032 15.2639C85.7218 15.4492 85.8552 15.7753 85.907 15.9903C86.0256 16.5165 85.8552 17.0946 85.4179 17.6505C85.0473 18.1248 84.9361 18.3768 84.9361 18.7251C84.9361 19.57 85.9293 20.3927 86.6927 20.1852C87.1299 20.0666 87.419 19.8517 87.7896 19.3848C88.1601 18.9178 88.5159 18.2286 88.6938 17.6282C88.8716 17.0279 88.9013 15.7902 88.7531 15.2491C88.2936 13.6334 87.4338 12.5587 86.0849 11.9139C85.4327 11.6027 84.4914 11.3581 83.9282 11.3581C83.5724 11.3581 82.6163 11.5582 82.1198 11.7361C81.3638 12.0103 80.8153 12.4772 78.3473 14.9378C77.0132 16.2719 75.8644 17.3614 75.8051 17.3614C75.6791 17.3614 75.6198 17.1909 75.5161 16.5461C75.4864 16.3238 75.4049 15.8569 75.3382 15.5085C75.1677 14.5895 74.7082 12.0548 74.6341 11.5804C74.56 11.1431 74.4636 10.5947 74.3006 9.76459C74.1227 8.83815 74.0338 8.36382 73.9671 7.94877C73.93 7.72642 73.8485 7.27432 73.7892 6.94821C73.7225 6.62211 73.6187 6.05142 73.5594 5.68825C73.3445 4.48018 73.011 4.05031 72.2476 3.96878C71.6843 3.90949 71.2693 4.05031 70.9283 4.39865C70.58 4.76181 70.5059 5.10274 70.6171 5.88837C70.6912 6.40717 70.7431 6.68881 70.9654 7.8376C71.2026 9.04568 71.2396 9.26061 71.2767 9.59413C71.3063 9.81647 71.2915 9.94988 71.2396 9.94988C71.1952 9.94988 70.8765 9.6386 70.5207 9.26061C69.9723 8.6751 69.3052 8.0303 68.1861 7.02974C67.4079 6.32565 65.4216 4.89522 64.295 4.22818C62.1679 2.96823 60.5226 2.25672 57.4542 1.27099C56.0682 0.826295 53.6447 0.381603 51.1989 0.129611C49.8203 -0.0112075 46.1146 -0.00379597 44.6915 0.144435Z" fill="black"/>
<path d="M44.2839 9.94982C42.557 10.1425 41.2007 10.3797 40.0222 10.7058C39.7184 10.7873 39.3478 10.8837 39.207 10.9133C39.0662 10.943 38.866 11.0023 38.7623 11.0467C38.6585 11.0838 38.3621 11.1876 38.0952 11.2691C37.0428 11.6026 35.5234 12.1659 34.7823 12.5142C34.5674 12.6106 34.1968 12.781 33.967 12.8848C31.3359 14.0929 28.5492 15.7827 25.8292 17.8283C25.177 18.3174 24.6285 18.7399 24.6063 18.7695C24.584 18.7918 24.3024 19.0289 23.9763 19.2883C22.3235 20.6224 19.396 23.424 18.1657 24.847C17.8618 25.1953 17.5431 25.5659 17.4467 25.6771C17.0613 26.1292 15.705 27.9747 15.1936 28.738C14.8972 29.1827 14.5933 29.6422 14.5192 29.7534C14.4377 29.8646 14.3784 29.9684 14.3784 29.9906C14.3784 30.0054 14.2005 30.3241 13.9781 30.7021C13.4 31.6804 12.229 34.0669 11.8288 35.112C11.6361 35.6011 11.436 36.1051 11.3841 36.2237C11.3322 36.3497 11.2581 36.5572 11.2359 36.6832C11.2062 36.8166 11.1469 36.9426 11.1099 36.9648C11.0728 36.9945 11.0432 37.076 11.0432 37.1501C11.0432 37.2316 10.9987 37.4021 10.9394 37.5355C10.4947 38.588 9.7091 42.1084 9.383 44.5246C8.93089 47.8672 9.02724 52.5142 9.60534 55.2713C9.66464 55.5529 9.7091 55.8568 9.7091 55.9383C9.7091 56.1162 9.82028 56.635 10.302 58.5694C10.5021 59.3773 10.9765 60.9485 11.184 61.4747C11.2211 61.5637 11.3026 61.7786 11.3619 61.9417C12.1697 64.0317 12.733 65.2769 13.2444 66.0921C14.9565 68.8418 17.595 70.4649 20.9153 70.7984C23.2203 71.0356 25.7551 70.3315 27.6746 68.9233C28.3194 68.449 40.4225 56.4349 40.7041 55.9902C40.9116 55.6567 40.9042 54.9971 40.6967 54.582C40.3928 53.9817 40.0519 53.7593 38.7623 53.2702C38.6215 53.2109 38.1175 53.0182 37.6506 52.8403C36.2424 52.2919 35.5679 52.0473 35.4642 52.0473C35.4049 52.0473 35.3382 52.0102 35.3159 51.9658C35.2566 51.8768 35.479 51.6026 35.6124 51.6026C35.6865 51.6026 36.0719 51.4544 36.9465 51.0764C37.028 51.0393 37.8136 50.728 38.6882 50.3797C39.5627 50.0314 40.4225 49.6608 40.5929 49.557C41.2748 49.1642 41.4675 48.3415 41.0895 47.4818C40.9857 47.2372 40.7486 46.7258 40.5633 46.3404C40.378 45.955 40.0815 45.3324 39.9111 44.9693C38.8957 42.8422 38.8142 42.6347 38.9846 42.6347C39.0958 42.6347 39.9333 42.9682 40.3706 43.1831C40.5855 43.2869 40.8005 43.3758 40.8449 43.3758C40.8894 43.3758 41.0154 43.4203 41.1192 43.4796C41.6676 43.7612 43.8021 44.6432 44.2023 44.7543C44.6767 44.8803 45.1658 44.784 45.5216 44.4875C45.8181 44.243 45.9441 44.0132 46.2479 43.1312C46.3665 42.7977 46.537 42.3382 46.6185 42.1158C47.0113 41.0931 47.3745 40.0777 47.6339 39.2772C47.7376 38.9659 47.8414 38.7065 47.8711 38.7065C47.9526 38.7065 48.1749 38.9659 48.1749 39.0549C48.1749 39.0994 48.2639 39.3291 48.3676 39.5663C48.4714 39.8109 48.8346 40.6854 49.1755 41.5229C49.9537 43.4499 50.2131 44.0354 50.4206 44.2504C50.6281 44.4727 51.1692 44.7099 51.4731 44.7099C52.0586 44.7099 52.2364 44.5542 55.8977 40.8707C58.0693 38.6843 59.4849 37.1946 59.5813 37.0093C59.7888 36.6017 59.774 36.2459 59.5368 35.8012C59.2552 35.2898 58.7956 34.9785 58.2546 34.9415C57.8914 34.9193 57.8099 34.9415 57.506 35.1638C57.3133 35.2972 56.0311 36.5498 54.66 37.9506C53.1851 39.4477 52.1104 40.4853 52.0437 40.4705C51.9177 40.4483 51.5472 39.633 50.8653 37.9283C50.3169 36.5498 49.9537 35.6604 49.8722 35.5048C49.8425 35.4381 49.6721 35.0378 49.509 34.6154C49.131 33.6593 48.9235 33.3406 48.5455 33.1479C48.1972 32.97 47.5672 32.9478 47.204 33.1034C46.8631 33.2442 46.4851 33.6889 46.3813 34.0743C46.3591 34.1559 46.1664 34.7043 45.9515 35.2972C45.7439 35.8902 45.5364 36.4534 45.5068 36.5572C45.4697 36.661 45.3734 36.9278 45.2844 37.1501C45.1955 37.3725 45.0991 37.6541 45.0621 37.7801C45.025 37.8987 44.9287 38.1877 44.8397 38.4101C44.6693 38.8622 44.3358 39.7738 44.0319 40.6484C43.7799 41.3821 43.7354 41.4266 43.4167 41.2858C43.2833 41.219 42.557 40.9152 41.801 40.5965C41.045 40.2778 40.2224 39.9294 39.963 39.8109C39.711 39.6923 39.4812 39.5959 39.459 39.5959C39.3923 39.5959 37.3615 38.7436 36.7612 38.462C36.0941 38.1507 35.5086 38.1433 35.0713 38.4323C34.3302 38.9141 34.1671 39.6552 34.5896 40.5594C35.0862 41.6267 35.3975 42.2789 35.8792 43.2869C36.1608 43.8724 36.3906 44.3615 36.3906 44.3764C36.3906 44.406 37.1688 46.0514 37.5542 46.837C37.695 47.1334 37.7988 47.4225 37.7766 47.4744C37.7543 47.5263 37.4801 47.6819 37.154 47.8153C36.8353 47.9487 36.4795 48.1044 36.3535 48.1562C35.8718 48.3712 34.7971 48.8085 34.5155 48.9048C34.1968 49.016 32.3513 49.7719 31.9807 49.935C31.8622 49.9943 31.4916 50.1425 31.1655 50.2685C30.3206 50.602 30.0315 50.7799 29.8536 51.069C29.5349 51.5878 29.5572 52.3734 29.8981 52.8181C30.1279 53.122 30.454 53.2776 32.0549 53.8705C32.7886 54.1373 33.5594 54.4264 33.7595 54.5079C33.967 54.5894 34.2116 54.6784 34.3154 54.7154C34.4191 54.7525 34.6563 54.8414 34.8416 54.9155C35.0269 54.9897 35.5383 55.1824 35.9681 55.3454C36.5092 55.5455 36.7612 55.6715 36.7612 55.753C36.7612 55.9013 26.4814 66.1588 25.9403 66.5516C25.2585 67.0482 24.3691 67.4633 23.4204 67.7301C22.7312 67.9302 20.8486 67.9302 20.1594 67.7301C18.6548 67.3002 17.6468 66.7295 16.6982 65.7734C15.7866 64.8322 15.3196 63.965 14.1708 61.0893C13.7262 59.9628 13.0369 57.5837 12.7182 56.0495C12.229 53.6778 12.0511 51.8916 12.0511 49.2309C12.0511 46.9407 12.1697 45.3991 12.4662 43.7093C12.5033 43.4647 12.57 43.0793 12.5996 42.857C12.6589 42.4642 12.7034 42.2418 12.9479 41.2635C13.3556 39.6107 13.8744 37.869 14.2153 37.0315C15.2307 34.5339 15.7273 33.5111 16.8835 31.5544C18.7363 28.4342 21.3304 25.4621 25.0139 22.2455C28.1638 19.5033 31.2544 17.4058 34.5377 15.7975C35.1306 15.5085 35.6272 15.2861 36.8723 14.7747C36.9539 14.7377 37.1688 14.6561 37.3541 14.582C37.5394 14.5153 37.7988 14.4116 37.9322 14.3523C38.0656 14.293 38.2212 14.2485 38.2805 14.2485C38.3398 14.2485 38.4955 14.204 38.6289 14.1448C39.4293 13.7964 41.3563 13.3443 43.3945 13.033C47.3522 12.4253 51.6732 12.9811 55.4382 14.582C56.0978 14.8563 57.5802 15.6122 57.9137 15.842C58.0619 15.9458 58.2027 16.0273 58.2175 16.0273C58.2842 16.0273 59.4627 16.8351 59.9963 17.2502C62.2716 19.0215 63.7762 21.7638 64.0356 24.6321C64.2283 26.8481 63.6502 28.8122 62.3754 30.25C61.7232 30.9837 61.5898 31.5025 61.9011 32.1548C62.1975 32.7921 62.8942 33.1108 63.5983 32.9256C64.3172 32.7329 65.5698 31.1171 66.2665 29.4792C66.763 28.3082 67.0002 26.9889 67.0002 25.388C67.0002 24.0836 66.8371 23.0386 66.4073 21.5489C66.0219 20.2296 64.9472 18.2581 63.9096 16.976C63.3908 16.3386 62.2716 15.2639 61.6565 14.8192C59.9963 13.6185 58.7882 12.8774 57.4467 12.24C56.2016 11.6471 56.046 11.5804 55.1269 11.2394C54.9713 11.1801 54.7193 11.0912 54.5711 11.0319C54.4154 10.9726 54.1041 10.8763 53.8818 10.8096C53.6595 10.7503 53.3111 10.6465 53.1036 10.5872C52.7256 10.4686 51.6583 10.2537 50.7319 10.1055C48.7604 9.78677 46.3146 9.72748 44.2839 9.94982Z" fill="black"/>
<path d="M43.3947 23.1795C42.8759 23.3648 42.4683 23.9577 42.4683 24.521C42.4683 24.8026 42.6832 25.3807 42.8537 25.566C43.076 25.8032 43.58 26.033 43.8765 26.033C44.1655 26.033 44.6028 25.8551 44.8251 25.6401C45.4106 25.0917 45.4403 24.0467 44.877 23.4686C44.5509 23.1276 43.8839 23.0016 43.3947 23.1795Z" fill="black"/>
<path d="M54.7488 24.4764C53.7705 24.6617 53.3406 25.9662 53.9854 26.8111C54.2078 27.1001 54.7488 27.3669 55.0971 27.3669C55.7049 27.3595 56.3423 26.8111 56.4312 26.2182C56.6091 25.0323 55.8679 24.2615 54.7488 24.4764Z" fill="black"/>
<path d="M32.9592 26.4108C32.3218 26.5591 31.9438 27.0705 31.9438 27.8116C31.9438 28.5083 32.2033 28.9382 32.7888 29.1753C33.5966 29.5089 34.4934 29.0493 34.6713 28.2044C34.9159 27.0556 34.0635 26.1663 32.9592 26.4108Z" fill="black"/>
<path d="M72.7443 32.6737C71.5955 32.8516 70.2762 33.2295 69.6166 33.5779C68.8755 33.9707 68.542 34.1634 68.1121 34.4673C67.3858 34.9712 55.1864 47.1854 55.0382 47.556C54.8158 48.0971 54.9418 48.7419 55.342 49.1717C55.4458 49.2755 55.7645 49.4682 56.0535 49.5868C56.5723 49.8017 57.9286 50.365 59.6259 51.0617C60.708 51.4989 60.9303 51.6175 60.9007 51.6991C60.8858 51.7435 60.6635 51.8547 60.3967 51.9436C58.818 52.4921 57.9435 52.796 57.5877 52.9368C57.3654 53.0257 57.0986 53.1221 56.9948 53.1591C56.1721 53.4408 55.5421 53.7002 55.3643 53.8262C54.9937 54.0856 54.8158 54.4636 54.8158 54.975C54.8158 55.3752 54.8825 55.5827 55.3198 56.6129C55.8312 57.8062 55.9794 58.1619 56.1202 58.4954C56.2536 58.8067 56.4167 59.1847 56.513 59.4219C56.5649 59.5405 56.6761 59.7924 56.7576 59.9777C56.9652 60.4447 57.0096 60.6225 56.9355 60.6744C56.8688 60.7115 56.3278 60.4817 55.0307 59.8666C51.3398 58.11 51.3027 58.0952 50.6209 58.4658C50.1317 58.7326 49.9687 58.9846 49.5092 60.2001C49.2942 60.7559 48.6198 62.4458 48.516 62.6829C48.3826 62.9868 47.975 63.9874 47.9231 64.1504C47.8342 64.4172 47.6266 64.2468 47.4488 63.7576C47.1968 63.0683 46.8707 62.2086 46.7002 61.7936C46.6113 61.5934 46.4556 61.1784 46.1369 60.3187C45.8256 59.5108 45.5069 59.1106 44.9659 58.8586C44.6176 58.703 44.0691 58.6733 43.7504 58.7919C43.6318 58.8364 40.8303 61.5786 37.3987 65.0027C32.8777 69.5164 31.1138 71.3248 30.7061 71.8658C30.1428 72.6218 29.4684 73.8966 29.2164 74.6896C28.831 75.9273 28.7939 76.1793 28.7939 77.7654C28.7939 79.4108 28.8384 79.6924 29.2979 81.0635C30.1651 83.6576 32.0254 85.7254 34.5379 86.8964C35.6941 87.4374 35.9609 87.556 36.6131 87.808C36.9985 87.9562 37.4506 88.1267 37.6137 88.1934C40.3856 89.2681 44.0913 90.0759 47.6563 90.3798C49.8353 90.5651 53.3261 90.4687 55.0752 90.1723C55.431 90.113 55.8164 90.0685 55.9275 90.0685C56.0461 90.0685 56.3796 90.0241 56.6613 89.9648C56.9503 89.9055 57.4617 89.7943 57.8101 89.7276C58.5438 89.5868 60.5079 89.1273 60.7747 89.0383C60.8784 89.0087 61.1601 88.9197 61.4047 88.8456C61.6492 88.7789 61.9309 88.6826 62.0346 88.6455C62.1384 88.601 62.3237 88.5418 62.4423 88.5121C62.5683 88.475 62.8499 88.3787 63.0722 88.2898C63.2946 88.2082 63.6281 88.0822 63.8134 88.0155C64.8658 87.6524 67.8749 86.2294 68.8532 85.6364C68.9941 85.5475 69.1793 85.4437 69.2609 85.3993C69.3424 85.3548 69.498 85.2659 69.6092 85.1917C69.713 85.125 69.965 84.9694 70.1651 84.8508C71.0174 84.3394 73.8857 82.2642 74.1525 81.9603C74.1969 81.9158 74.5749 81.5749 75.0048 81.1969C75.9757 80.352 77.7619 78.5436 79.1923 76.9501C81.0971 74.8304 83.5429 71.4804 84.9066 69.131C85.6403 67.8562 85.8182 67.5301 86.3518 66.4258C86.6335 65.8328 86.8929 65.2992 86.9299 65.2325C87.1745 64.7952 87.975 62.7274 88.3085 61.6824C88.3826 61.46 88.4715 61.1932 88.516 61.0895C88.5531 60.9857 88.6124 60.7856 88.6494 60.6448C88.6791 60.504 88.7754 60.1482 88.8569 59.8666C89.1015 59.0365 89.4276 57.3763 89.6129 56.0496C89.8353 54.4191 89.8575 51.2025 89.65 49.7128C89.4943 48.5343 89.272 47.3781 89.0719 46.637C88.9903 46.3331 88.894 45.9774 88.8644 45.8588C88.7902 45.5846 88.7087 45.3548 88.3085 44.2653C87.975 43.3759 87.2635 41.8047 86.9151 41.1895C86.8632 41.108 86.715 40.8412 86.5742 40.5966C85.8256 39.2922 84.4916 37.4689 83.6689 36.6314C82.2014 35.1491 80.2373 33.9262 78.1918 33.2444C76.9244 32.8219 76.1091 32.6959 74.486 32.6663C73.6485 32.6514 72.8703 32.6589 72.7443 32.6737ZM75.9683 35.7124C77.1393 35.9644 78.5772 36.4906 79.2664 36.9353C79.3924 37.0094 79.5407 37.0984 79.5999 37.128C79.9112 37.2688 80.9563 38.0841 81.4158 38.5288C82.1717 39.2699 83.4984 41.0709 84.1432 42.2271C84.4545 42.7904 85.1956 44.3246 85.3809 44.7841C85.4699 45.0065 85.5736 45.2733 85.6181 45.377C86.0924 46.5629 86.426 47.9192 86.715 49.861C86.9299 51.247 86.9225 54.1078 86.715 55.6049C86.463 57.4059 86.1591 58.7919 85.6996 60.2371C85.4625 60.9931 85.3068 61.4007 84.7139 62.8979C84.5064 63.4241 84.3063 63.9058 84.2692 63.9725C84.2321 64.0392 83.9431 64.6248 83.617 65.277C80.8377 70.8875 76.2425 76.5128 71.0026 80.7226C70.4838 81.1376 68.3863 82.5162 67.4599 83.0424C66.3259 83.6946 65.1327 84.2801 63.8875 84.8063C63.3761 85.0139 62.8721 85.2362 62.761 85.2955C62.6572 85.3548 62.5016 85.3993 62.4274 85.3993C62.3533 85.3993 62.257 85.4289 62.2199 85.4586C62.0495 85.6068 59.7371 86.2961 58.3289 86.6222C58.025 86.6889 57.6396 86.7778 57.4765 86.8223C57.3135 86.8667 56.9948 86.926 56.7725 86.9557C56.5501 86.9853 56.1795 87.0446 55.9572 87.0891C54.5416 87.3559 52.2959 87.5412 50.4727 87.5486C49.1312 87.5486 46.8188 87.4004 45.9146 87.2521C44.2322 86.9853 43.1649 86.7852 42.7202 86.6518C42.6016 86.6148 42.3496 86.5555 42.1643 86.5184C41.3342 86.3479 39.637 85.8217 38.5401 85.3993C38.3178 85.3103 38.0509 85.214 37.9472 85.1769C37.5247 85.0435 35.9461 84.332 35.4273 84.0504C34.6787 83.6353 34.2266 83.2944 33.6411 82.6866C32.7146 81.7157 32.2403 80.8486 31.8623 79.433C31.6326 78.5955 31.6326 76.9427 31.8549 76.1349C32.1217 75.1714 32.4701 74.4228 32.9666 73.7261C33.2779 73.2814 43.7282 62.7941 43.8542 62.7941C43.8986 62.7941 44.032 63.0387 44.1432 63.3277C44.3581 63.9133 44.7806 65.0324 44.9585 65.4771C45.2475 66.2479 45.3142 66.4035 45.3958 66.611C45.4476 66.7296 45.6774 67.3522 45.9146 67.9822C46.1443 68.6122 46.4186 69.257 46.5223 69.4052C46.9299 69.9981 47.8638 70.176 48.479 69.7684C48.8569 69.5164 48.9607 69.3607 49.2794 68.538C49.4128 68.2119 49.561 67.8414 49.6129 67.7228C49.6722 67.5968 49.8204 67.2336 49.9538 66.9075C50.0798 66.5814 50.2207 66.2553 50.2577 66.1812C50.2948 66.1145 50.4134 65.8328 50.5097 65.5586C50.7172 65.025 51.4584 63.1943 51.614 62.8312C51.6733 62.7052 51.7845 62.4384 51.866 62.2382C52.0958 61.675 51.9401 61.6379 54.5416 62.8756C55.1271 63.1573 55.6163 63.387 55.6311 63.387C55.6459 63.387 56.0684 63.5797 56.5649 63.8243C57.0689 64.0615 57.8101 64.4172 58.2177 64.6025C58.6253 64.7952 59.0478 65.0027 59.159 65.062C59.4184 65.2029 59.952 65.2696 60.2929 65.2103C60.6857 65.1362 61.2416 64.5655 61.3528 64.1208C61.4788 63.6168 61.4936 63.6613 59.6778 59.3848C58.8625 57.4578 58.2548 55.9681 58.2548 55.9014C58.2548 55.8347 58.6327 55.679 59.4406 55.3974C61.4343 54.6933 61.4639 54.6859 62.2422 54.382C62.3904 54.3227 62.9537 54.13 63.4799 53.9448C64.0135 53.7595 64.6805 53.5223 64.9622 53.4185C65.2512 53.3074 65.5551 53.2036 65.644 53.1814C65.8886 53.1221 66.3704 52.6848 66.5112 52.3883C66.6742 52.04 66.6668 51.4397 66.4815 51.0839C66.274 50.6837 66.0072 50.5058 64.814 50.0166C62.6572 49.1273 62.1977 48.9346 61.3676 48.601C59.5962 47.8821 59.2553 47.7339 59.1441 47.6301C59.0478 47.5338 59.6778 46.8816 64.1692 42.3902C66.9929 39.5738 69.5129 37.1058 69.7649 36.9131C70.7432 36.1793 71.9513 35.7198 73.226 35.5938C73.9968 35.5123 75.3013 35.5716 75.9683 35.7124Z" fill="black"/>
<path d="M73.2628 43.1387C72.9886 43.2351 72.707 43.4648 72.5439 43.7316C72.4105 43.9466 72.3809 44.1096 72.3809 44.5321C72.3809 44.9842 72.4031 45.1028 72.581 45.3696C73.1072 46.1626 74.382 46.1626 74.9082 45.3696C75.0861 45.0954 75.1157 44.9842 75.1157 44.5321C75.1157 43.9392 74.9675 43.613 74.5524 43.3092C74.3079 43.1239 73.5741 43.0275 73.2628 43.1387Z" fill="black"/>
<path d="M74.3227 54.456C73.878 54.7524 73.7075 55.1082 73.7075 55.7234C73.7075 56.1755 73.7372 56.2866 73.915 56.5609C74.293 57.1241 75.1231 57.3317 75.7457 57.013C76.6573 56.546 76.7388 55.1156 75.8865 54.5005C75.6123 54.3003 75.5159 54.2707 75.0861 54.2707C74.6858 54.2707 74.545 54.3078 74.3227 54.456Z" fill="black"/>
<path d="M71.3806 64.8841C70.7654 65.0619 70.4097 65.5511 70.4097 66.233C70.4097 67.2706 71.1656 67.8709 72.1884 67.6412C72.6554 67.5374 72.9963 67.2113 73.1371 66.7369C73.3817 65.9143 72.9741 65.0768 72.2255 64.8767C71.8771 64.7803 71.7215 64.7803 71.3806 64.8841Z" fill="black"/>
<path d="M62.6645 73.4147C62.331 73.6 61.9604 74.2226 61.9604 74.608C61.9604 75.4529 62.5904 76.1348 63.3686 76.1348C64.0209 76.1348 64.5545 75.7197 64.7398 75.0601C64.8584 74.6747 64.8584 74.6154 64.7398 74.2596C64.6064 73.852 64.347 73.5185 64.0209 73.348C63.7096 73.185 63.0129 73.2146 62.6645 73.4147Z" fill="black"/>
<path d="M39.4666 76.2386C39.1627 76.372 38.8811 76.6982 38.7328 77.0836C38.5846 77.4764 38.5846 77.5801 38.7402 78.0619C38.97 78.7808 39.6519 79.144 40.4597 78.9587C41.149 78.803 41.6307 77.9729 41.438 77.2614C41.312 76.7797 41.0749 76.4536 40.7191 76.2831C40.3708 76.1126 39.8001 76.0904 39.4666 76.2386Z" fill="black"/>
<path d="M51.5918 77.1502C51.2953 77.2094 50.9025 77.5504 50.7617 77.8765C50.2948 78.8919 50.9396 79.9888 51.9994 79.9888C52.9703 79.9888 53.6077 79.1513 53.3631 78.1952C53.252 77.7431 53.0741 77.4763 52.7776 77.2984C52.5553 77.1724 51.8957 77.0835 51.5918 77.1502Z" fill="black"/>
<path d="M24.2135 34.934C23.339 35.3936 23.25 36.8017 24.0579 37.4169C24.3099 37.6096 24.3914 37.6318 24.9028 37.6318C25.4142 37.6318 25.4957 37.6096 25.7477 37.4169C26.5333 36.8166 26.4889 35.5196 25.6588 34.9933C25.2363 34.7265 24.6508 34.7043 24.2135 34.934Z" fill="black"/>
<path d="M20.4559 46.244C19.7073 46.5701 19.4034 47.6596 19.8555 48.423C20.3299 49.2234 21.6269 49.2383 22.1753 48.4452C22.3532 48.1932 22.3755 48.0821 22.3829 47.5929C22.3829 47.0815 22.3606 47 22.1531 46.7183C21.7677 46.1773 21.0562 45.9846 20.4559 46.244Z" fill="black"/>
<path d="M21.3896 58.2137C21.019 58.4064 20.9523 58.4731 20.7596 58.8511C20.4039 59.5552 20.6781 60.4816 21.3599 60.8374C21.4711 60.8967 21.775 60.9412 22.0344 60.9412C22.442 60.9412 22.5532 60.9115 22.8126 60.7188C23.1684 60.4668 23.3314 60.1852 23.3907 59.7405C23.5538 58.5695 22.3827 57.6875 21.3896 58.2137Z" fill="black"/>
</g>
<defs>
<clipPath id="clip0_171_31">
<rect width="100" height="99.8888" fill="white"/>
</clipPath>
</defs>
</svg>
