<svg width="100" height="98" viewBox="0 0 100 98" fill="none" xmlns="http://www.w3.org/2000/svg">
<g clip-path="url(#clip0_136_89)">
<path d="M59.8109 0.0666655C59.6627 0.0963116 59.4997 0.148192 59.4478 0.177838C59.3959 0.214896 59.2477 0.266777 59.1143 0.303834C58.6177 0.42983 57.4689 0.941225 56.7352 1.35627C55.3937 2.13448 53.9484 3.40185 53.059 4.60993C52.8589 4.88416 52.6218 5.12874 52.5476 5.15097C52.4661 5.18062 52.2215 5.15097 52.0066 5.09168C50.8282 4.75816 48.1378 4.77298 46.4331 5.11391C45.944 5.21026 44.6544 5.59566 44.2467 5.76613C42.972 6.29976 41.9862 6.81856 41.3562 7.30031C41.1339 7.47078 40.8671 7.65607 40.7633 7.70795C40.667 7.75983 40.3483 8.02664 40.0592 8.29346C39.7776 8.56768 39.3551 8.93085 39.1254 9.10131C38.7326 9.39778 38.6881 9.4126 38.1841 9.4126C37.7913 9.4126 37.5541 9.36813 37.2577 9.23472C36.9019 9.07908 36.3609 8.90861 35.39 8.63439C33.4556 8.10076 30.1945 8.10076 28.2008 8.6418C27.2076 8.90861 26.2367 9.23472 26.1256 9.34589C26.0885 9.38295 25.9996 9.4126 25.9255 9.4126C25.7846 9.4126 24.117 10.2501 23.9318 10.4206C23.8725 10.4799 23.7909 10.5243 23.7613 10.5243C23.7242 10.5243 23.576 10.6207 23.4204 10.7467C23.2647 10.8653 23.1165 10.969 23.0868 10.969C22.9608 10.969 21.7528 11.977 21.1228 12.607C20.2334 13.5038 19.0476 14.9712 19.0476 15.1862C19.0476 15.2158 18.8845 15.4233 18.6844 15.6457C18.3657 16.0014 18.2768 16.0607 17.8914 16.1349C17.6468 16.1867 16.8686 16.246 16.1496 16.2683C15.4381 16.2979 14.7192 16.3498 14.5562 16.3868C14.4005 16.4239 14.0151 16.4832 13.7113 16.5203C13.1925 16.587 10.7763 17.3355 10.2649 17.5875C10.1463 17.6468 9.74609 17.8395 9.37552 18.0174C8.49354 18.4398 6.76666 19.596 6.11445 20.1964C5.83281 20.4558 5.49929 20.7448 5.37329 20.8338C4.81002 21.2488 2.74961 23.828 2.39386 24.5692C2.33457 24.6878 2.17893 24.9916 2.03811 25.2362C1.71941 25.7995 1.52671 26.1923 1.38589 26.5703C1.3266 26.7333 1.17837 27.1187 1.05237 27.4226C0.785558 28.1045 0.659562 28.4899 0.592859 28.8308C0.563213 28.9716 0.466863 29.357 0.370513 29.6831C0.281575 30.0092 0.170402 30.5947 0.125933 30.9801C0.0147598 31.914 0.0147598 34.9972 0.133344 35.8125C0.229694 36.4943 0.400159 37.317 0.511332 37.5986C0.54839 37.6876 0.637328 37.9766 0.704032 38.2434C0.837439 38.7474 0.970847 39.1402 1.16355 39.5775C1.23025 39.7183 1.3266 39.9555 1.3933 40.0963C1.4526 40.2371 1.54895 40.4521 1.60083 40.5632C1.66012 40.6818 1.70459 40.8078 1.70459 40.8449C1.70459 40.8819 1.79353 41.0524 1.9047 41.2303C2.21598 41.7046 2.28269 41.8232 2.37162 42.0085C2.40868 42.1048 2.52727 42.2901 2.62362 42.4161C2.71997 42.5495 2.92749 42.883 3.07572 43.1721C3.23136 43.4537 3.37959 43.7205 3.40924 43.765C3.43888 43.8021 3.52041 44.0392 3.59453 44.2912C3.79464 45.025 3.7057 45.7587 3.26101 46.9149C2.94231 47.745 2.68291 48.6937 2.59397 49.3237C2.30492 51.3692 2.32716 52.355 2.70514 54.1041C2.76444 54.3709 2.82373 54.6674 2.83855 54.7711C2.86079 54.8749 2.94972 55.1417 3.03866 55.3641C3.12019 55.5864 3.24618 55.9199 3.31289 56.1052C3.42406 56.4387 3.69829 56.9724 4.14298 57.7209C4.26898 57.9359 4.37274 58.136 4.37274 58.173C4.37274 58.2027 4.46909 58.3287 4.59508 58.4472C4.71367 58.5658 4.81743 58.6918 4.81743 58.7215C4.81743 58.7585 4.93601 58.9364 5.07683 59.1217C5.21765 59.307 5.33624 59.5071 5.33624 59.559C5.33624 59.6109 5.14354 59.8036 4.91378 59.9814C4.38015 60.3965 3.17207 61.6194 2.91267 62.0048C2.8089 62.1604 2.66067 62.3605 2.59397 62.4421C2.40127 62.657 1.7787 63.8651 1.65271 64.2579C1.27472 65.4363 1.19319 66.3924 1.3933 67.4078C1.57859 68.3416 1.66012 68.5714 2.0974 69.3792C2.73479 70.5725 4.09851 71.8918 5.39553 72.5662C5.70681 72.7293 6.0181 72.8923 6.07739 72.9294C6.18856 72.9887 6.52949 73.1221 7.04089 73.2925C7.6264 73.4926 8.06368 73.6112 8.48613 73.6705C8.73071 73.7076 9.06423 73.7743 9.22729 73.8113C9.59786 73.9077 11.5916 73.9077 12.1919 73.8113C13.1702 73.6557 13.2369 73.6557 13.5779 73.8113C14.1485 74.0633 14.7637 74.8267 15.5493 76.2201C15.6975 76.4795 16.1422 77.3392 17.291 79.5627C17.3948 79.7628 17.5949 80.163 17.7357 80.4521C17.8765 80.7337 18.1137 81.1858 18.2619 81.4526C18.4028 81.7194 18.5584 82.0011 18.5955 82.09C18.6325 82.1715 18.803 82.468 18.966 82.7422C19.1365 83.009 19.2699 83.2536 19.2699 83.2759C19.2699 83.2981 19.3737 83.4686 19.4922 83.6538C19.6182 83.8317 19.7146 83.9948 19.7146 84.017C19.7146 84.1727 21.9899 87.4041 22.2642 87.6412C22.316 87.6783 22.6051 88.0118 22.9164 88.3824C24.332 90.05 26.8222 92.103 28.5343 93.0072C28.8011 93.148 29.2606 93.4074 29.5571 93.5853C29.861 93.7632 30.1278 93.904 30.1648 93.904C30.2019 93.904 30.3205 93.9485 30.4391 94.0077C31.2099 94.3931 31.8176 94.6303 32.9071 94.9935C33.337 95.1343 33.8039 95.2974 33.9447 95.3492C34.2634 95.4678 34.9008 95.6309 35.6494 95.7791C35.9532 95.8458 36.3757 95.9347 36.5758 95.9792C36.7833 96.0311 37.1836 96.0904 37.4652 96.1274C37.7542 96.1571 38.0359 96.2016 38.0952 96.2312C38.1989 96.2757 38.6659 96.3201 40.6151 96.498C41.5489 96.5795 45.2399 96.5795 46.359 96.498C48.0192 96.372 48.9234 96.2831 49.1976 96.2016C49.7313 96.0533 50.6577 96.1126 51.2729 96.3276C52.4365 96.7278 53.7335 97.0316 55.4752 97.3133C57.2169 97.5949 61.5823 97.6172 63.3314 97.3503C64.7915 97.1206 65.4882 96.9946 65.8069 96.8982C65.9922 96.8389 66.1923 96.7945 66.2664 96.7945C66.3331 96.7945 66.5703 96.7426 66.7852 96.6759C67.0075 96.6166 67.3707 96.5128 67.593 96.4461C67.8154 96.3868 68.0822 96.3053 68.1786 96.2609C68.2823 96.2238 68.4973 96.1645 68.6603 96.1274C68.8308 96.0978 69.1495 95.994 69.3718 95.9051C69.5942 95.8162 69.8832 95.7198 70.0018 95.6828C70.4539 95.5568 71.8843 94.9712 72.0029 94.8601C72.04 94.823 72.1067 94.7934 72.1585 94.7934C72.2771 94.7934 74.0707 93.9633 74.4487 93.7335C74.9453 93.4296 75.2269 93.2666 75.4863 93.1258C75.6494 93.0368 75.9162 92.8886 76.0792 92.7923C76.2423 92.7033 76.5906 92.5106 76.8575 92.3624C77.1243 92.2216 77.4578 92.0066 77.606 91.8955C77.7542 91.7769 77.9025 91.6805 77.9321 91.6805C77.9618 91.6805 78.11 91.5916 78.2582 91.473C78.4065 91.3618 78.5843 91.2358 78.651 91.1988C78.7177 91.1543 79.1847 90.843 79.6887 90.5021C80.5113 89.9388 80.8523 89.6794 82.001 88.7456C82.1937 88.5899 82.4828 88.3528 82.6384 88.2342C83.5501 87.5004 83.765 87.3151 84.269 86.8334C84.5803 86.5443 85.1435 86.0255 85.5289 85.6772C86.8408 84.4988 88.2119 83.0016 89.2643 81.5934C89.9759 80.6374 90.6429 79.6887 90.6429 79.6294C90.6429 79.6072 90.7244 79.4812 90.8208 79.3552C90.9171 79.2218 91.0728 78.9698 91.1691 78.7845C91.2655 78.5992 91.384 78.3991 91.4285 78.3398C91.5619 78.1767 92.4958 76.3757 92.7774 75.7457C92.8589 75.5605 93.0665 75.1158 93.2295 74.76C93.4 74.3969 93.5334 74.0782 93.5334 74.0411C93.5334 74.004 93.5779 73.8632 93.6371 73.7298C93.8669 73.1665 94.2004 72.2475 94.4228 71.5212C94.5562 71.0913 94.7044 70.617 94.7637 70.4613C94.823 70.3131 94.8675 69.9573 94.8675 69.6757C94.8675 69.2088 94.8452 69.1347 94.6303 68.8456C94.2301 68.3268 93.7409 68.1638 93.0294 68.3046C92.5551 68.4009 92.1548 68.9568 91.8732 69.9277C91.7991 70.1723 91.6953 70.5058 91.636 70.6689C91.5767 70.8393 91.5323 71.0172 91.5323 71.0691C91.5323 71.121 91.4878 71.2692 91.4285 71.3952C91.3766 71.5286 91.2729 71.7806 91.1988 71.9659C91.132 72.1512 91.0283 72.4106 90.969 72.544C90.9097 72.6774 90.8652 72.8182 90.8652 72.8553C90.8652 72.8923 90.717 73.2407 90.5317 73.6261C90.3464 74.0189 90.1982 74.3598 90.1982 74.382C90.1982 74.4858 89.4793 75.9014 89.0939 76.5462C88.8641 76.9464 88.6492 77.317 88.6195 77.3763C88.5899 77.4356 88.501 77.5838 88.4194 77.7098C88.3379 77.8284 88.249 77.9766 88.2193 78.0359C88.1526 78.1841 87.4041 79.2292 87.2336 79.4145C87.1669 79.496 87.0928 79.5997 87.0779 79.6516C86.9816 79.9481 84.8323 82.3642 83.928 83.1943C83.5278 83.5575 82.9497 84.0985 82.6384 84.3876C82.0381 84.9583 81.5712 85.3659 81.1191 85.7142C80.9634 85.8328 80.6151 86.1219 80.3483 86.3516C78.9104 87.5597 76.1237 89.4793 74.5599 90.3242C74.3746 90.428 74.0114 90.6281 73.7446 90.7689C73.4778 90.9171 73.211 91.0728 73.1517 91.1173C73.0109 91.2284 72.5588 91.4434 71.7435 91.7917C71.3952 91.9399 70.9801 92.1178 70.8171 92.1919C69.8091 92.6514 69.4015 92.8071 68.7418 93.0146C68.3342 93.148 67.9043 93.2962 67.7783 93.3407C67.2669 93.5556 66.8222 93.6668 65.1472 94.03C64.8434 94.0893 64.495 94.1782 64.369 94.2153C64.117 94.2894 62.7978 94.4747 61.7379 94.571C61.3525 94.6081 60.3001 94.6377 59.4033 94.6377C56.7574 94.6377 55.4307 94.4598 52.6662 93.7261C51.8584 93.5112 51.7991 93.2888 52.2586 92.1623C52.3327 91.9918 52.5254 91.4359 52.6144 91.1617C52.6514 91.058 52.7552 90.7911 52.8589 90.5688C52.9627 90.3465 53.1035 90.0129 53.1776 89.8276C53.4889 89.0494 54.986 86.1145 55.1787 85.8921C55.238 85.8328 55.2899 85.7439 55.2899 85.6994C55.2899 85.6624 55.3937 85.4845 55.5123 85.3214C55.6383 85.151 55.7346 84.9953 55.7346 84.9731C55.7346 84.9509 55.868 84.7582 56.0237 84.5432C56.1867 84.3283 56.4461 83.9651 56.6018 83.7354C57.1724 82.883 57.9507 81.9788 59.1068 80.8226C59.7591 80.163 60.4557 79.496 60.6559 79.3403C61.5082 78.6511 62.3457 78.0507 62.9164 77.7024C63.2573 77.5023 63.6205 77.2799 63.7242 77.2132C64.0652 76.9983 65.7105 76.2127 66.0366 76.1089C66.1404 76.0793 66.4072 75.9829 66.6295 75.894C67.5634 75.5382 68.1711 75.3529 68.853 75.2269C69.0383 75.1899 69.3348 75.1232 69.52 75.0787C69.7053 75.0268 70.0537 74.9379 70.2983 74.8786C70.5428 74.8193 70.8467 74.723 70.9653 74.6711C71.0913 74.6192 71.3359 74.5154 71.5212 74.4487C71.7064 74.382 71.9584 74.2783 72.077 74.2264C72.203 74.1745 72.6848 73.9744 73.1517 73.7817C73.6186 73.589 74.0559 73.4037 74.1152 73.3666C74.1745 73.3296 74.2782 73.2777 74.3375 73.2555C74.76 73.0998 75.0787 72.9442 76.6796 72.1141C77.9321 71.4619 77.8061 71.536 78.7696 70.9505C79.2291 70.6763 79.659 70.4095 79.7331 70.3724C80.0296 70.2019 81.0524 69.4904 81.3933 69.2236C81.5934 69.0606 81.7861 68.9271 81.8158 68.9271C81.8528 68.9271 81.964 68.8456 82.0752 68.7419C82.1789 68.6455 82.4309 68.438 82.6236 68.2972C83.8243 67.3781 85.855 65.3326 86.826 64.0726C87.9896 62.5458 89.3014 60.2779 89.8869 58.7734C90.2649 57.7876 90.5836 56.876 90.6503 56.5647C90.6874 56.3868 90.7392 56.209 90.7689 56.1571C90.7985 56.1126 90.843 55.9422 90.8801 55.7717C90.9097 55.6086 90.9838 55.2603 91.0505 54.9935C91.2877 54.0596 91.4952 52.7181 91.6434 51.2729C91.7769 49.9536 91.7917 45.8402 91.6731 43.1573C91.6286 42.1641 91.6138 41.297 91.636 41.2303C91.7101 41.045 91.888 41.2525 91.9399 41.5712C91.9621 41.7194 92.0288 42.053 92.0881 42.3198C92.5477 44.3876 92.7848 45.6772 92.8589 46.4406C92.8886 46.7222 92.9405 47.0039 92.9701 47.0483C92.9998 47.1002 93.0516 47.5004 93.0887 47.9377C93.1257 48.375 93.1925 49.0124 93.2295 49.3607C93.4074 50.8504 93.5334 52.4217 93.5408 53.2147C93.5408 53.6816 93.5704 54.4821 93.6001 54.9935C93.6742 56.209 93.5704 60.2038 93.4222 61.6787C93.2888 62.9386 93.3259 63.2425 93.6223 63.6353C94.2301 64.4283 95.2306 64.458 95.8902 63.7094C96.1274 63.4352 96.1497 63.3685 96.2682 62.3309C96.6166 59.4033 96.624 52.859 96.2756 50.3242C96.1941 49.6942 96.0755 48.6122 95.9792 47.5968C95.9421 47.2188 95.8828 46.8704 95.8532 46.8186C95.8235 46.7741 95.7717 46.4776 95.7494 46.1738C95.7198 45.8699 95.6605 45.403 95.616 45.1361C95.5641 44.8693 95.4752 44.3357 95.4159 43.9503C95.3492 43.5649 95.2529 43.0609 95.1936 42.8312C95.1343 42.6088 95.0898 42.3494 95.0898 42.2605C95.0898 42.1715 94.9564 41.5564 94.7859 40.8968C94.2968 38.9253 94.2745 38.8141 94.2004 38.451C94.1634 38.2583 94.0967 38.0359 94.0522 37.947C93.9262 37.7024 94.0967 37.5097 94.7563 37.1688C95.0676 37.0057 95.4456 36.7685 95.5938 36.65C95.742 36.524 96.0088 36.3313 96.1867 36.2127C96.5573 35.9607 97.8395 34.6488 98.2619 34.0782C99.2773 32.7293 99.9814 30.7578 99.9814 29.2755C99.9814 27.2003 98.9883 25.4067 97.1206 24.1245C96.7352 23.8577 96.4091 23.6427 96.3868 23.6427C96.3646 23.6427 96.0385 23.4945 95.6605 23.3092C95.2751 23.1239 94.9193 22.9757 94.86 22.9757C94.8008 22.9757 94.6081 22.9312 94.4228 22.8719C93.6001 22.6125 93.2369 22.5384 92.6662 22.4939C92.3253 22.4717 91.9696 22.4198 91.8584 22.3828C91.7546 22.3383 91.2729 22.3087 90.7837 22.3087C89.5015 22.3087 89.1902 22.116 89.0791 21.271C88.9753 20.478 88.79 19.5219 88.6418 19.0105C88.5528 18.7215 88.4565 18.388 88.4268 18.2694C88.3676 18.047 88.0563 17.3207 87.8562 16.9575C87.7969 16.8538 87.7524 16.7278 87.7524 16.6833C87.7524 16.5277 86.863 15.0972 86.3368 14.4154C85.566 13.4 84.5803 12.4217 83.5871 11.6805C82.972 11.221 81.6231 10.428 81.082 10.2056C80.8967 10.1241 80.6522 10.0203 80.5262 9.96846C80.4076 9.90917 80.1185 9.81282 79.8962 9.73871C79.6738 9.672 79.3774 9.56824 79.244 9.51636C79.1106 9.45707 78.9253 9.4126 78.8289 9.4126C78.7326 9.4126 78.5621 9.38295 78.4435 9.33848C78.3249 9.30143 77.9618 9.23472 77.6357 9.19025C75.5753 8.93085 75.5011 8.89379 75.1232 8.12299C74.9823 7.83394 74.8119 7.44854 74.7452 7.26326C74.6711 7.07797 74.5895 6.87786 74.5525 6.81856C74.5228 6.75927 74.4191 6.55916 74.3301 6.37387C73.6779 5.06203 72.2623 3.37221 70.8912 2.28271C70.3872 1.88249 68.9271 0.96346 68.7937 0.96346C68.7567 0.96346 68.5343 0.859699 68.2971 0.733703C67.9488 0.548415 67.7857 0.511357 67.3855 0.511357C66.9705 0.511357 66.8519 0.541003 66.5999 0.71888C65.9699 1.16357 65.792 1.89731 66.1404 2.57917C66.3405 2.97198 66.385 3.00163 67.3707 3.50561C67.7561 3.70572 68.1267 3.91325 68.1934 3.97254C68.2527 4.03183 68.3342 4.0763 68.3638 4.0763C68.3935 4.0763 68.6529 4.25418 68.9494 4.46911C69.6312 4.98051 70.5502 5.90695 70.9801 6.5221C71.41 7.12985 71.9658 8.04888 71.9658 8.13782C71.9658 8.22675 72.2697 8.93085 72.6181 9.62753C72.9442 10.2872 73.5816 10.969 74.2338 11.347C74.7229 11.6361 75.3603 11.8139 76.3386 11.9399C77.6283 12.103 77.8654 12.14 78.1915 12.229C78.3768 12.2809 78.6288 12.3698 78.7622 12.4217C78.8882 12.481 79.0364 12.5254 79.0957 12.5254C79.2736 12.5254 81.2228 13.5482 81.7046 13.8892C82.8089 14.6822 84.3357 16.372 84.7804 17.291C84.8767 17.4837 84.9805 17.6542 85.0175 17.6839C85.0546 17.7061 85.0842 17.7802 85.0842 17.8543C85.0842 17.921 85.1213 18.0174 85.1732 18.0693C85.2177 18.1137 85.3066 18.2768 85.3659 18.4324C85.8921 19.8406 86.0477 20.4335 86.2034 21.6638C86.2404 21.99 86.3071 22.3087 86.3442 22.3828C86.3813 22.4495 86.4257 22.657 86.4331 22.8275C86.4554 23.1387 86.448 23.1462 86.0477 23.3611C85.4029 23.7094 84.8693 24.08 84.2319 24.6136C83.0238 25.6216 82.3197 26.5184 81.4081 28.2008C81.3192 28.3639 81.1932 28.5047 81.1265 28.5195C81.0598 28.5343 80.6818 28.2008 80.1778 27.6672C78.9104 26.3405 77.3837 24.873 76.8204 24.4506C76.7018 24.3542 76.2423 23.9837 75.8124 23.6279C75.3751 23.2722 74.9972 22.9757 74.9749 22.9757C74.9527 22.9757 74.6711 22.7756 74.3449 22.531C74.0188 22.2864 73.7298 22.0863 73.7001 22.0863C73.6779 22.0863 73.5445 21.99 73.4185 21.8788C73.2258 21.7083 71.6546 20.7152 70.5354 20.0555C70.1426 19.8258 67.6597 18.5732 67.2225 18.388C66.8222 18.2175 66.2293 17.9581 65.7772 17.7506C65.6586 17.6987 65.4882 17.6394 65.4066 17.6172C65.2139 17.5653 64.8063 17.417 64.5024 17.291C64.3764 17.2392 64.2282 17.1947 64.1689 17.1947C64.1096 17.1947 63.9985 17.1428 63.9169 17.0835C63.8428 17.0242 63.7168 16.9724 63.6501 16.9724C63.3907 16.9724 63.1239 16.6462 63.0646 16.2608C62.9608 15.5642 62.7163 14.6525 62.4865 14.1189C62.4494 14.0374 62.3679 13.8225 62.3012 13.6372C62.1085 13.0961 61.3451 11.6435 60.9078 10.9913C60.0852 9.77576 58.7733 8.39722 57.7357 7.67089C57.5134 7.51525 57.3133 7.36702 57.291 7.33737C57.2466 7.27808 56.498 6.79633 56.3275 6.72222C56.2682 6.69257 56.12 6.60363 55.994 6.5221C55.8754 6.44058 55.7272 6.35164 55.6827 6.3294C55.49 6.23305 55.6012 6.06259 56.2756 5.38814C57.3726 4.28382 58.588 3.55749 60.2556 3.00163C61.2265 2.67552 61.4415 2.54953 61.7454 2.12707C62.153 1.57121 62.0048 0.704057 61.4192 0.229719C61.2414 0.0814885 61.108 0.0444309 60.6336 0.0296079C60.3223 0.0147848 59.9518 0.0370194 59.8109 0.0666655ZM50.1685 7.78206C51.4878 7.89324 52.5328 8.15264 53.8595 8.71592C54.2152 8.87156 54.6525 9.08649 54.823 9.20508C54.9935 9.31625 55.1565 9.4126 55.1787 9.4126C55.2084 9.4126 55.6086 9.70165 56.0755 10.05C56.8093 10.6059 57.5282 11.3025 58.0174 11.9325C58.551 12.6292 59.3588 14.0152 59.5145 14.5117C59.5515 14.6229 59.6479 14.8971 59.7294 15.1195C60.0185 15.8829 59.9592 15.9496 59.1587 15.7569C58.3435 15.5493 57.6912 15.4233 56.8834 15.3048C56.4387 15.2381 55.868 15.1491 55.6234 15.1046C55.1639 15.0231 54.4969 14.9712 51.9918 14.8156C50.8356 14.7489 50.1537 14.7489 48.9531 14.8156C46.8556 14.9342 45.7142 15.0231 45.2547 15.1121C45.0472 15.1491 44.5284 15.2381 44.0985 15.3048C43.0238 15.4752 42.2679 15.6235 41.8676 15.7495C41.6749 15.8087 41.4155 15.8606 41.2895 15.8606C41.1635 15.8606 40.9338 15.9125 40.7856 15.9718C40.6447 16.0311 40.4446 16.083 40.3409 16.083C40.2445 16.083 40.0889 16.12 39.9999 16.1719C39.911 16.2164 39.7183 16.2831 39.5775 16.3127C38.9253 16.4387 36.687 17.1873 35.9088 17.5282C35.7902 17.5801 35.5382 17.6839 35.3529 17.7506C35.1676 17.8247 34.9305 17.921 34.8193 17.9803C34.7155 18.0396 34.5821 18.0841 34.5376 18.0841C34.3227 18.0841 31.1135 19.7443 29.772 20.5447C28.5047 21.3081 27.6301 21.864 27.4967 22.0122C27.4745 22.0344 27.1409 22.2642 26.7555 22.531C26.007 23.035 25.6735 23.3018 23.9985 24.7248C22.8941 25.6587 21.5008 27.015 20.3372 28.2823C19.7146 28.9568 19.47 29.2458 18.4398 30.528C17.8247 31.284 16.5795 33.0554 16.12 33.8113C16.0829 33.878 15.9051 34.1671 15.742 34.4413C15.5716 34.7155 15.3566 35.0787 15.2677 35.2418C15.1787 35.4048 14.9416 35.8125 14.7415 36.1534C14.5413 36.4869 14.3783 36.7759 14.3783 36.7908C14.3783 36.8056 14.1485 37.2948 13.8669 37.8803C13.5927 38.4658 13.2369 39.244 13.0813 39.6146C12.933 39.9777 12.7626 40.378 12.7107 40.5039C12.6218 40.7115 12.518 40.9783 12.3031 41.5786C12.2586 41.7194 12.1993 41.9195 12.1771 42.0233C12.1548 42.1271 12.1104 42.2457 12.0733 42.2827C11.9992 42.3865 11.9103 42.6607 11.3766 44.4691C11.1765 45.151 11.0505 45.6327 10.9319 46.2108C10.8652 46.5369 10.7689 46.9594 10.7096 47.1447C10.6503 47.3374 10.5984 47.6487 10.5984 47.8339C10.5984 48.0266 10.5688 48.249 10.5243 48.3231C10.4872 48.3972 10.4205 48.7085 10.3835 49.005C10.3464 49.3014 10.2797 49.798 10.2353 50.1019C9.96844 52.0511 9.90915 52.8515 9.90173 55.0824L9.89432 57.4022L9.63492 57.5208C9.2347 57.7135 8.55284 57.9359 8.15261 58.0026C8.00438 58.0322 7.92286 57.9729 7.73016 57.7209C7.59675 57.543 7.39664 57.2985 7.27805 57.1799C6.94454 56.8241 6.36644 55.8236 5.99586 54.9787C5.41776 53.6446 5.10648 51.3767 5.34365 50.3242C5.38812 50.1389 5.44741 49.8054 5.48447 49.5831C5.55117 49.1236 5.64752 48.8197 6.1515 47.5078C6.45538 46.7148 6.59619 45.9811 6.59619 45.1361C6.59619 43.8243 6.25526 42.7052 5.52152 41.5934C5.3807 41.3711 5.26212 41.1784 5.26212 41.1562C5.26212 41.1339 5.16577 40.9709 5.03977 40.7856C4.92119 40.6077 4.81743 40.4447 4.81743 40.4298C4.81743 40.4076 4.71367 40.2297 4.58767 40.0296C4.40238 39.7183 4.0911 39.0439 3.78723 38.2805C3.75017 38.199 3.66864 38.0063 3.60194 37.8506C3.53523 37.695 3.48335 37.5171 3.48335 37.4578C3.48335 37.3985 3.43888 37.191 3.37959 36.9983C3.0609 35.894 2.99419 35.4196 2.92008 33.6483C2.89043 32.922 2.90525 32.2697 2.95714 31.8695C3.08313 30.9283 3.26842 29.9425 3.37218 29.609C3.42406 29.446 3.52041 29.1124 3.59453 28.8679C3.66864 28.6233 3.79464 28.2749 3.87616 28.0896C4.42462 26.8742 4.6692 26.3702 4.9286 25.9774C5.08424 25.7328 5.28435 25.4067 5.37329 25.2584C5.70681 24.6507 7.34476 22.8645 8.22673 22.153C9.80538 20.8782 12.4291 19.6553 14.067 19.4182C14.319 19.3811 14.6377 19.3218 14.7711 19.2773C14.8971 19.2329 15.6901 19.1662 16.5276 19.1217C18.3212 19.0328 18.9364 18.9661 19.0624 18.8401C19.1143 18.7882 19.218 18.7511 19.307 18.7511C19.3959 18.7511 19.6998 18.5955 19.9962 18.3954C20.515 18.047 20.856 17.669 21.4563 16.7797C22.0122 15.9644 22.8793 14.9268 23.5019 14.3635C24.0577 13.8521 25.9403 12.5254 26.1033 12.5254C26.133 12.5254 26.3924 12.4217 26.6666 12.2957C26.9408 12.1623 27.2669 12.0215 27.3855 11.9696C27.5115 11.9177 27.7339 11.8213 27.8895 11.7546C28.0451 11.6879 28.2527 11.6361 28.3564 11.6361C28.4676 11.6361 28.7048 11.5916 28.8975 11.5323C29.8091 11.2432 30.1352 11.1914 31.1283 11.1469C33.0702 11.0654 34.3449 11.2729 36.3905 12.0066L37.2428 12.3105L38.2434 12.2809C39.0809 12.266 39.3107 12.229 39.6516 12.0882C39.8739 11.9992 40.1259 11.9029 40.2075 11.8732C40.4743 11.7991 41.0227 11.3692 42.09 10.4057C43.6464 9.00496 46.1293 7.94512 48.2341 7.78206C49.2866 7.70795 49.2495 7.70795 50.1685 7.78206ZM53.2147 17.8247C54.1708 17.884 55.1046 17.9655 55.2899 18.0026C55.4752 18.047 55.7939 18.0767 55.994 18.0841C56.4165 18.0841 57.921 18.3435 59.218 18.6399C59.4848 18.6992 59.7591 18.7511 59.8258 18.7511C59.8999 18.7511 60.0629 18.7956 60.1963 18.8549C60.3298 18.9142 60.641 19.0105 60.8856 19.0772C61.9232 19.3589 62.6347 19.5886 63.5538 19.9296C63.8799 20.0481 64.2653 20.189 64.4061 20.2408C64.5469 20.2853 64.7544 20.3742 64.8656 20.4261C64.9694 20.4854 65.1028 20.5299 65.1472 20.5299C65.2214 20.5299 65.8439 20.8189 67.8154 21.7824C68.0007 21.8714 68.2008 21.9751 68.2601 22.0122C68.3194 22.0492 68.7196 22.2864 69.1495 22.531C69.5793 22.7756 69.9796 23.0127 70.0388 23.0498C70.0981 23.0869 70.2834 23.1906 70.4465 23.2796C70.6095 23.3685 70.8615 23.5316 71.0023 23.6427C71.1432 23.7539 71.3952 23.9318 71.5582 24.0429C72.581 24.7174 73.2777 25.2436 74.2634 26.0885C74.5302 26.3183 74.8341 26.5629 74.9453 26.6296C75.2566 26.8223 77.8135 29.3496 78.4658 30.1056C78.7844 30.4762 79.2514 31.0172 79.5108 31.2988C80.1482 32.0252 80.1408 32.0845 79.3255 32.7589C78.2805 33.6261 77.4059 34.6192 76.598 35.8347C76.2645 36.3387 75.6345 37.569 75.516 37.947C75.4863 38.0507 75.39 38.3175 75.301 38.5399C75.2121 38.7622 75.1083 39.0809 75.0787 39.244C75.0416 39.407 74.9305 39.8591 74.8267 40.2445C74.4709 41.6231 74.382 42.4902 74.382 44.5803C74.3894 46.6185 74.4858 47.5745 74.8934 49.3978C75.2788 51.1321 75.2788 51.0654 75.0268 51.3174C74.9156 51.4359 74.7007 51.6138 74.5599 51.7176C73.8854 52.2142 72.7292 53.5408 71.9362 54.7267C71.6323 55.1788 71.3581 55.616 71.3285 55.6976C71.2988 55.7791 71.2321 55.8977 71.1802 55.957C71.0839 56.0756 70.3353 57.6765 70.1574 58.1582C70.0981 58.3138 69.9351 58.7882 69.7869 59.218C69.6386 59.6479 69.483 60.0926 69.4385 60.2186C69.394 60.3372 69.3273 60.5744 69.2977 60.7374C69.231 61.0932 69.0976 61.6416 68.9568 62.153C68.8975 62.3605 68.853 62.6792 68.853 62.8571C68.853 63.0424 68.8011 63.3833 68.7418 63.6131C68.6825 63.8503 68.6307 64.1689 68.6307 64.332C68.6307 64.4876 68.5936 64.71 68.5491 64.8286C68.3638 65.3177 68.2008 70.1797 68.3342 71.3211C68.3787 71.7139 68.4009 72.1067 68.3713 72.1808C68.3342 72.3068 68.1119 72.3957 67.1335 72.6626C66.9186 72.7218 66.674 72.7885 66.5925 72.8108C66.511 72.8256 66.259 72.9145 66.0366 73.0035C65.8143 73.085 65.4437 73.2184 65.2214 73.2999C64.8508 73.4259 63.0424 74.2486 62.7756 74.4117C62.7163 74.4487 62.5013 74.5673 62.2938 74.6785C62.0937 74.7823 61.8195 74.9527 61.6861 75.0491C61.5601 75.1454 61.4192 75.2269 61.3822 75.2269C61.3451 75.2269 61.1673 75.3307 60.9894 75.4641C60.8115 75.5975 60.4335 75.8643 60.1445 76.057C58.9586 76.8649 56.661 78.992 55.5567 80.2964C55.3196 80.5781 55.1713 80.6966 55.1194 80.6448C55.075 80.6003 55.0824 80.1185 55.1417 79.2143C55.2677 77.3911 55.2825 70.6244 55.1639 69.6312C55.112 69.2236 55.0231 68.2898 54.9564 67.556C54.8378 66.1849 54.734 65.503 54.4228 63.8873C53.9484 61.4563 53.941 61.3674 54.1263 60.1445C54.3264 58.8475 54.6229 57.3874 54.7266 57.2243C54.7563 57.1799 54.8082 56.9724 54.8452 56.7574C54.9416 56.2312 55.0676 55.8087 55.4826 54.66C55.6679 54.1263 55.868 53.5556 55.9199 53.3852C55.9792 53.2221 56.1052 52.9034 56.2015 52.6811C56.3053 52.4661 56.5276 51.9844 56.6981 51.6212C57.1502 50.6577 57.5134 49.9536 57.6542 49.7758C57.6912 49.7313 57.8469 49.4571 57.9951 49.1754C58.1508 48.8864 58.3509 48.5603 58.4324 48.4343C58.5213 48.3157 58.6251 48.1601 58.6622 48.0859C58.9067 47.6635 60.226 45.8921 60.8115 45.2103C61.4711 44.4395 62.9015 43.0165 63.6279 42.4087C63.9985 42.0974 64.369 41.7787 64.458 41.6898C64.5469 41.6009 64.8656 41.3563 65.1621 41.1413C66.8815 39.911 67.1706 39.7109 67.3188 39.6442C67.4078 39.6072 67.5856 39.5108 67.7042 39.4293C67.8302 39.3477 67.9784 39.2588 68.0377 39.2292C68.5565 38.992 69.4089 38.4065 69.6609 38.1248C69.9573 37.7913 69.9647 37.7617 69.9647 37.2577C69.9647 36.6648 69.8313 36.3831 69.394 36.0496C69.1569 35.8717 69.0605 35.8495 68.601 35.8495H68.0748L66.385 36.8575C65.4511 37.4208 64.5691 37.9766 64.4209 38.0952C64.2727 38.2138 63.7316 38.6214 63.2202 38.992C62.7089 39.37 62.2419 39.7257 62.1752 39.7924C61.9158 40.0593 60.4557 41.3933 60.3298 41.4823C60.2482 41.5416 59.9666 41.838 59.6924 42.1567C59.4181 42.468 58.9512 42.9794 58.6622 43.2981C58.3657 43.6094 57.9803 44.0689 57.8024 44.3209C57.6245 44.5655 57.2836 45.0176 57.0539 45.3214C56.8167 45.6253 56.498 46.0774 56.3423 46.3368C56.1793 46.5962 55.9273 46.989 55.7791 47.2114C55.6308 47.4337 55.5123 47.6412 55.5123 47.6783C55.5123 47.7154 55.4307 47.8488 55.3344 47.9748C55.1417 48.2268 54.1041 50.2501 53.6371 51.2877C53.4741 51.6361 53.2369 52.266 53.0961 52.6959C52.9553 53.1258 52.7922 53.5705 52.7329 53.6965C52.6811 53.815 52.5699 54.1337 52.4884 54.4006C52.3253 54.9194 52.1548 55.0602 52.0363 54.7563C51.8954 54.4006 51.7101 53.9114 51.6064 53.6223C51.5471 53.4593 51.4507 53.2221 51.3989 53.1035C51.347 52.9775 51.2432 52.733 51.1765 52.5477C51.1024 52.3624 50.969 52.0437 50.8726 51.8436C50.7837 51.6361 50.6577 51.347 50.591 51.1914C50.0722 49.9314 48.6788 47.2188 47.8117 45.7735C47.2039 44.7508 47.1891 44.6544 47.4708 43.7131C47.871 42.4235 48.2045 41.3859 48.2934 41.171C48.3379 41.045 48.4417 40.8004 48.5084 40.6151C49.1606 38.8808 50.2723 36.7018 51.1988 35.3233C51.4878 34.886 51.7324 34.508 51.7324 34.4858C51.7324 34.4636 51.8361 34.3227 51.9547 34.1671C52.0807 34.0115 52.1771 33.8558 52.1771 33.8262C52.1771 33.7891 52.3031 33.6261 52.4587 33.463C52.6144 33.2999 52.8663 33.0035 53.0294 32.796C53.9336 31.662 54.1782 31.4026 55.9273 29.7721C56.2756 29.446 56.4091 29.2607 56.5202 28.942C56.6536 28.5417 56.6536 28.5195 56.5202 28.1415C56.3423 27.6227 56.0237 27.304 55.5493 27.1706C55.2232 27.0743 55.1269 27.0669 54.823 27.1632C54.3561 27.304 54.156 27.4523 53.0887 28.4602C51.977 29.5052 50.7689 30.8467 50.05 31.8325C49.7535 32.2401 49.4126 32.707 49.2866 32.8775C49.168 33.048 49.0642 33.2036 49.0642 33.2407C49.0642 33.2703 48.9753 33.4185 48.8641 33.5668C48.6418 33.8558 48.6195 33.8855 48.1748 34.6266C47.7005 35.4196 47.3892 35.9903 46.9223 36.9464C46.2479 38.3324 46.1737 38.5028 46.1737 38.6362C46.1737 38.7029 46.1441 38.7696 46.107 38.7919C46.07 38.8141 46.0181 38.9253 45.9959 39.0365C45.9366 39.2662 45.3288 40.8449 45.188 41.1339C45.1361 41.2377 45.0546 41.3192 45.0101 41.3192C44.9731 41.3192 44.6099 40.9042 44.2171 40.3928C42.9868 38.7919 42.2086 37.8432 41.5119 37.0946C41.3266 36.8871 41.0746 36.6055 40.956 36.4647C40.6373 36.0719 38.6436 34.0411 38.0952 33.5445C37.8284 33.2999 37.3318 32.8478 36.9834 32.5291C36.6351 32.2179 36.2571 31.8769 36.1311 31.788C36.0125 31.6916 35.6716 31.4174 35.3751 31.1654C34.2486 30.2242 32.6403 29.0976 32.1067 28.8827C31.7064 28.7196 31.536 28.727 31.1283 28.9123C30.7133 29.0976 30.4391 29.3941 30.276 29.8239C30.1574 30.1278 30.1574 30.1797 30.276 30.5873C30.4168 31.0765 30.6614 31.3433 31.4693 31.8992C32.8552 32.8478 34.2857 33.9966 35.5011 35.1454C37.191 36.7463 37.4355 36.9909 37.4133 37.065C37.3911 37.1243 36.5313 37.1539 34.7229 37.1613C31.9881 37.1762 31.662 37.1984 29.9425 37.5467C27.9414 37.947 27.3929 38.1248 27.0372 38.4806C26.6888 38.8289 26.6073 39.0291 26.6073 39.5034C26.6073 40.1185 26.9112 40.5484 27.5263 40.8152C27.8599 40.9635 28.349 40.919 29.4607 40.6299C31.2099 40.1778 32.329 40.0593 34.8712 40.0593C37.1984 40.0593 38.0878 40.1334 39.281 40.4298C39.5034 40.4817 39.9481 40.5855 40.2668 40.6596L40.8449 40.793L41.2895 41.3489C41.5267 41.6601 41.8602 42.0752 42.0233 42.2827C42.3568 42.7052 42.9201 43.5056 43.6316 44.5803C44.4246 45.781 44.5432 45.9737 45.0991 46.9297C45.1435 46.9964 45.3214 47.3003 45.4993 47.5968C45.6846 47.8932 46.1219 48.7011 46.4776 49.3978C46.8334 50.087 47.1743 50.7541 47.241 50.8727C47.3225 51.0283 47.3299 51.1247 47.2781 51.184C47.2039 51.2729 47.1076 51.2655 46.8037 51.1395C46.1737 50.8653 45.4104 50.591 44.8915 50.4502C43.5649 50.0722 43.0683 49.9685 42.3123 49.8795C42.0455 49.8499 41.7861 49.8054 41.7416 49.7758C41.297 49.5015 34.5969 49.5015 34.1597 49.7758C34.1078 49.8054 33.7001 49.8499 33.248 49.8795C32.7959 49.9166 32.2401 49.9759 32.0177 50.0203C31.3581 50.1538 30.5058 50.3168 29.8536 50.4428C29.2532 50.554 28.727 50.68 27.9784 50.8875C27.7783 50.9468 27.4448 51.0431 27.2373 51.095C26.3331 51.347 25.9625 51.4582 25.7328 51.5545C25.5993 51.6138 25.4437 51.6583 25.3844 51.6583C25.3251 51.6583 25.1695 51.7028 25.0361 51.7621C24.9027 51.8213 24.5766 51.9325 24.3171 52.0066C23.6798 52.1845 23.0868 52.7256 23.0127 53.1925C22.8719 54.0893 23.3537 54.7934 24.2356 54.9638C24.4357 55.0083 24.9397 54.8897 25.5697 54.66C26.1182 54.4673 26.3553 54.3857 26.5703 54.3264C26.6962 54.2894 26.8964 54.2301 27.0149 54.193C27.2892 54.0967 27.9117 53.9262 28.4973 53.7854C28.7418 53.7261 29.0902 53.6372 29.2755 53.5927C30.1056 53.3778 30.6021 53.2666 30.9431 53.2147C31.1506 53.1777 31.7139 53.0813 32.203 52.9924C32.6922 52.9034 33.3444 52.7997 33.6483 52.7626C33.9521 52.7256 34.256 52.6737 34.3153 52.6514C34.4709 52.5847 36.9242 52.4513 37.9099 52.4513C40.4595 52.4661 43.1054 52.8515 44.6173 53.4371C44.8397 53.5186 45.2251 53.6594 45.4696 53.7409C46.0403 53.9336 47.6338 54.7711 48.1971 55.1714C49.2866 55.9347 49.3829 56.0385 49.5682 56.587C49.6572 56.876 49.7683 57.2021 49.8128 57.3281C49.8573 57.4467 49.924 57.669 49.9536 57.8099C49.9907 57.9507 50.0722 58.2175 50.1389 58.4028C50.2649 58.7363 50.4057 59.2551 50.6874 60.4039C50.7763 60.7522 50.8949 61.1969 50.9468 61.4044C51.0061 61.6046 51.1098 62.0418 51.1765 62.3679C51.2358 62.6941 51.3396 63.1906 51.3989 63.4797C51.4656 63.7613 51.51 64.0652 51.51 64.1467C51.51 64.2282 51.5545 64.5099 51.6138 64.7767C51.7101 65.2214 51.7843 65.6735 51.9547 67.0372C51.9918 67.3188 52.0437 67.6672 52.0659 67.7932C52.1178 68.0971 52.0288 68.1045 51.4507 67.8451C51.221 67.7413 50.9319 67.6079 50.8059 67.556C50.6874 67.4967 50.2945 67.3114 49.9314 67.1484C49.5756 66.9779 49.1902 66.8149 49.0791 66.7778C48.9679 66.7407 48.6937 66.6444 48.4713 66.5555C48.0489 66.385 47.8487 66.3257 47.2855 66.1775C47.1002 66.133 46.8408 66.0441 46.7074 65.9922C46.574 65.9329 46.4109 65.8884 46.3368 65.8884C46.2701 65.8884 46.0848 65.844 45.9143 65.7847C45.7513 65.7254 45.3511 65.6216 45.025 65.5549C42.3864 64.999 42.0752 64.9694 39.5034 64.9694C37.4578 64.9694 37.2206 64.9768 36.9834 65.1028C36.3831 65.4141 36.1534 65.7847 36.1385 66.4443C36.1311 67.0372 36.3683 67.43 36.9093 67.7042C37.2725 67.8895 37.2799 67.8895 39.1847 67.8821C41.0672 67.8673 42.4902 67.9859 43.6538 68.2527C43.8391 68.2898 44.2542 68.3787 44.5803 68.4454C44.9064 68.5195 45.2547 68.6084 45.3585 68.6455C45.4622 68.69 45.6623 68.7493 45.8032 68.7863C46.3146 68.9049 46.7296 69.0235 46.9519 69.1124C47.0779 69.1643 47.3077 69.2607 47.4708 69.32C47.9821 69.5127 48.9382 69.9055 49.42 70.1204C49.672 70.239 49.924 70.3353 49.9833 70.3353C50.0351 70.3353 50.1241 70.3872 50.176 70.4465C50.2278 70.5058 50.3168 70.5577 50.3835 70.5577C50.4428 70.5577 50.5539 70.6022 50.6132 70.6614C50.6799 70.7133 50.969 70.8912 51.2506 71.0468C51.5397 71.1951 51.9028 71.4026 52.0659 71.4915L52.3624 71.6546L52.3549 74.9453C52.3549 77.3466 52.3179 78.577 52.229 79.5256C52.0214 81.7936 51.7917 83.6316 51.6138 84.395C51.5545 84.647 51.51 84.9805 51.51 85.1362C51.51 85.2918 51.4582 85.6179 51.3989 85.8625C51.3396 86.1071 51.2951 86.4109 51.2877 86.5295C51.2877 86.7445 51.0653 87.4634 50.9171 87.7376C50.7985 87.9599 50.4205 88.8197 50.3687 88.9827C50.339 89.0717 50.2575 89.1977 50.1834 89.2644C50.0574 89.383 50.0351 89.3607 49.7239 88.8641C49.546 88.5751 49.3014 88.1601 49.1828 87.9525C49.0642 87.7376 48.79 87.3226 48.5677 87.0335C48.3527 86.737 48.1748 86.4776 48.1748 86.4554C48.1748 86.4109 46.8482 84.6322 46.7667 84.5655C46.737 84.5432 46.574 84.3431 46.4035 84.1208C45.8847 83.4463 43.7502 81.3192 43.135 80.8449C42.9942 80.7337 42.7793 80.5558 42.6533 80.4521C42.4457 80.2668 41.6008 79.6664 41.297 79.4886C41.2303 79.4441 40.9338 79.2514 40.6447 79.0587C39.9555 78.5992 38.6214 77.9766 37.6875 77.6727C37.2799 77.5393 36.8204 77.3837 36.6648 77.3318C36.5165 77.2725 36.2794 77.2281 36.1459 77.2281C36.0199 77.2281 35.7235 77.1613 35.5011 77.0872C35.0564 76.939 35.012 76.8649 34.7303 75.8717C34.6636 75.642 34.5599 75.2566 34.4932 75.0194C34.4265 74.7897 34.3227 74.4636 34.2634 74.3005C34.2041 74.1374 34.1078 73.878 34.0485 73.7224C33.7891 73.0331 33.7001 72.8034 33.6038 72.6181C33.5445 72.5143 33.5 72.3883 33.5 72.3364C33.5 72.2401 33.2036 71.6398 32.7959 70.8912C32.6329 70.6022 32.4031 70.1871 32.2845 69.9499C32.077 69.5794 31.6397 68.9123 31.1802 68.2972C31.0913 68.1712 30.8615 67.8599 30.6688 67.5931C30.113 66.8149 27.7265 64.5543 27.4596 64.5543C27.4374 64.5543 27.2966 64.4654 27.1558 64.3542C26.7407 64.043 25.4289 63.3611 24.7544 63.1091C24.5691 63.0424 24.3246 62.9386 24.1986 62.8868C24.08 62.8349 23.8947 62.7682 23.7909 62.7459C23.2573 62.6348 22.8423 62.5384 22.6199 62.4717C22.4865 62.4272 22.2049 62.3754 21.9825 62.3531C21.5971 62.3161 21.5823 62.3087 20.5966 61.3155C19.5293 60.2408 19.1661 59.937 18.0766 59.2032C17.0909 58.5436 15.6605 57.8617 14.86 57.669C14.697 57.6246 14.4302 57.5579 14.2671 57.5208C14.1041 57.4838 13.7557 57.4096 13.4889 57.3652C13.2221 57.3133 12.9627 57.2466 12.9182 57.2021C12.6736 57.002 12.8738 51.2803 13.1628 49.9536C13.2221 49.6868 13.2666 49.3385 13.2666 49.1754C13.2666 49.005 13.3184 48.6789 13.3777 48.4491C13.437 48.2119 13.4889 47.9155 13.4889 47.7821C13.4889 47.6561 13.5334 47.4189 13.5927 47.2484C13.6446 47.0854 13.7483 46.7 13.8224 46.3961C14.0225 45.5141 14.3338 44.3802 14.4895 43.9503C14.5413 43.8095 14.6377 43.4908 14.7118 43.2462C14.7785 43.0016 14.8823 42.6903 14.9416 42.5569C15.0009 42.4235 15.0453 42.2605 15.0453 42.2012C15.0453 42.1345 15.0898 41.9937 15.1491 41.8899C15.2084 41.7787 15.327 41.5045 15.4159 41.2822C15.5123 41.0598 15.7124 40.6003 15.868 40.2594C16.0311 39.9258 16.1571 39.6072 16.1571 39.5553C16.1571 39.5034 16.2089 39.3922 16.2682 39.3107C16.3275 39.2366 16.3794 39.1328 16.3794 39.0883C16.3794 39.0439 16.5943 38.6288 16.8463 38.1619C17.1057 37.695 17.4615 37.0502 17.632 36.7241C17.8098 36.398 17.9951 36.0793 18.047 36.02C18.0989 35.9607 18.1508 35.8717 18.1656 35.8347C18.2323 35.6642 19.5515 33.715 19.9666 33.1739C21.3377 31.4026 22.5829 29.9573 23.4574 29.1347C23.6946 28.9049 24.2282 28.4009 24.6433 28.0155C25.3103 27.3781 25.9699 26.8149 26.7481 26.2145C26.8964 26.1034 27.1558 25.8884 27.3262 25.7476C27.4967 25.6068 27.8969 25.3177 28.2156 25.1102C28.5343 24.9027 28.8085 24.71 28.8308 24.6878C28.9049 24.5988 30.3131 23.6427 30.365 23.6427C30.3872 23.6427 30.6466 23.5019 30.9356 23.324C31.2247 23.1462 31.5137 22.9831 31.573 22.9535C31.6323 22.9238 31.8028 22.8275 31.9436 22.7459C32.4402 22.4421 34.3449 21.486 34.9749 21.2192C35.3233 21.0709 35.679 20.9005 35.7605 20.8486C35.8421 20.7967 35.9458 20.7522 35.9977 20.7522C36.0496 20.7522 36.3016 20.6559 36.5536 20.5373C36.813 20.4187 37.2058 20.2705 37.4281 20.1964C37.6505 20.1223 37.9544 20.0259 38.0952 19.974C38.236 19.9221 38.4732 19.8406 38.614 19.7961C38.7548 19.7443 38.9771 19.6701 39.0957 19.6405C39.2217 19.6034 39.4663 19.5219 39.6516 19.4552C40.0592 19.307 41.2821 18.9809 42.2827 18.7511C42.4457 18.7215 42.6755 18.6548 42.7867 18.6103C42.9053 18.5658 43.0831 18.5288 43.1943 18.5288C43.3055 18.5288 43.6093 18.4843 43.8762 18.425C44.8693 18.2101 45.6253 18.0841 45.9292 18.0841C46.0996 18.0841 46.5665 18.0322 46.9668 17.9729C47.6116 17.8691 49.5237 17.7506 50.9542 17.7283C51.2432 17.7209 52.2586 17.7654 53.2147 17.8247ZM92.2734 25.3696C95.2973 25.8143 97.039 27.2521 97.0464 29.3125C97.0464 30.0537 96.7352 31.1284 96.3498 31.7213C96.3053 31.7806 96.246 31.8992 96.2089 31.9807C96.1052 32.2179 95.1565 33.2777 94.7118 33.6557C94.2819 34.0263 93.4741 34.5599 92.9405 34.8341C92.7552 34.9231 92.518 35.0491 92.4068 35.1009C92.3031 35.1602 92.1623 35.2047 92.0955 35.2047C92.0363 35.2047 91.8584 35.2714 91.7027 35.3455C91.5471 35.4271 91.2284 35.5753 90.9912 35.6865C90.3761 35.9755 89.8276 36.5462 89.4645 37.2948C88.7455 38.74 88.6862 39.6516 88.8197 46.2479C88.8641 48.3972 88.8567 49.3904 88.7974 49.9907C88.7455 50.4354 88.6788 51.1691 88.6418 51.6212C88.5751 52.4736 88.3824 53.6816 88.2934 53.8299C88.2638 53.8817 88.2193 54.0819 88.1897 54.2894C88.1081 54.9712 87.619 56.6092 87.2632 57.4319C87.1669 57.6468 87.0854 57.8617 87.0854 57.8988C87.0854 58.047 86.196 59.7813 85.8625 60.2779C85.6772 60.5595 85.5289 60.7967 85.5289 60.8115C85.5289 60.8634 84.8397 61.8566 84.6766 62.0344C84.5877 62.1382 84.4839 62.2716 84.4469 62.3383C84.4098 62.405 84.1504 62.7237 83.8613 63.0424C83.5797 63.3537 83.261 63.7168 83.1572 63.8428C83.0609 63.9688 82.7793 64.2505 82.5273 64.4728C82.2827 64.6952 81.8825 65.0657 81.6379 65.2881C81.3859 65.5178 81.0598 65.7995 80.8967 65.9255C80.7411 66.0441 80.5113 66.2368 80.3853 66.3405C80.0444 66.6296 77.9173 68.1119 77.8432 68.1119C77.8209 68.1119 77.6579 68.2082 77.4726 68.3342C77.2947 68.4528 77.1317 68.5566 77.1094 68.5566C77.0946 68.5566 76.939 68.6455 76.7611 68.7567C76.2942 69.0606 76.1608 69.1421 76.0422 69.1865C75.9829 69.2162 75.8791 69.2607 75.8198 69.2977C75.7605 69.3348 75.5604 69.4385 75.3751 69.5201C75.1899 69.609 74.9897 69.7054 74.9156 69.7424C74.1671 70.1426 72.9886 70.6985 72.4105 70.9283C72.1882 71.0246 71.8547 71.1654 71.6842 71.247C71.4396 71.3581 71.3433 71.3729 71.3062 71.3062C71.1209 71.0172 71.1728 67.3855 71.3803 65.629C71.4248 65.2584 71.4841 64.7396 71.5137 64.4728C71.5434 64.206 71.5953 63.9466 71.6249 63.9021C71.6546 63.8503 71.7064 63.5908 71.7435 63.3092C71.825 62.6941 71.9733 62.027 72.2178 61.2562C72.3216 60.9301 72.4624 60.478 72.5291 60.2557C72.8256 59.2551 72.8552 59.1736 73.4185 57.9951C74.0411 56.7055 75.0713 55.2381 75.9829 54.3413C76.2052 54.1263 76.7463 53.6742 77.1984 53.3407C78.362 52.4661 78.5769 51.9844 78.2731 50.969C78.236 50.8356 78.1471 50.5317 78.0804 50.2872C78.0136 50.0426 77.9099 49.6942 77.8506 49.5089C77.7913 49.3237 77.7468 49.0717 77.7468 48.9531C77.7468 48.8271 77.7098 48.6122 77.6727 48.4713C77.6283 48.3305 77.5319 47.6412 77.4504 46.952C77.2503 45.2399 77.2503 43.3426 77.4504 41.9788C77.5393 41.423 77.6208 40.9338 77.6431 40.9042C77.6579 40.8745 77.7024 40.7041 77.7468 40.5262C77.9395 39.5997 78.5917 38.1397 79.2662 37.1243C79.8739 36.2053 80.9412 35.1306 81.8899 34.4784C82.4457 34.093 82.8534 33.3666 82.8608 32.7367C82.8608 32.4995 83.0461 31.8695 83.4611 30.6837C83.6835 30.0611 84.3283 28.8234 84.6988 28.312C85.566 27.1261 86.7222 26.2219 87.9747 25.755C88.16 25.6883 88.412 25.5845 88.5306 25.5327C88.6566 25.4808 88.9975 25.4141 89.3014 25.3844C89.5979 25.3548 89.9166 25.3029 90.0055 25.2659C90.213 25.1769 91.3025 25.2288 92.2734 25.3696ZM13.1925 60.2631C13.7335 60.3668 14.3709 60.5447 14.6155 60.6707C14.7192 60.73 14.86 60.7745 14.9193 60.7745C14.986 60.7745 15.2973 60.9301 15.616 61.1154C16.8982 61.8714 17.4096 62.2716 18.3212 63.198C20.1889 65.1176 19.974 64.9472 20.73 65.0954C21.0931 65.1621 21.4934 65.2214 21.6194 65.2214C21.7454 65.2214 21.9899 65.2733 22.1604 65.3326C22.3309 65.3918 22.5384 65.4437 22.6199 65.4437C22.7014 65.4437 22.8719 65.4882 22.9979 65.5475C23.1313 65.6068 23.4055 65.7105 23.6056 65.7847C23.8132 65.8514 24.0133 65.9403 24.0503 65.9625C24.0948 65.9922 24.3987 66.1626 24.7396 66.3405C25.5919 66.7926 25.5993 66.7926 26.0292 67.1187C26.4591 67.4448 28.3861 69.3051 28.3861 69.3941C28.3861 69.4237 28.5417 69.6609 28.7418 69.9203C28.9345 70.1797 29.1421 70.4687 29.2013 70.5577C29.2606 70.6466 29.4015 70.8541 29.52 71.0098C29.7646 71.3581 31.0542 73.9003 31.0542 74.0411C31.0542 74.093 31.1506 74.3598 31.2692 74.6266C31.573 75.3307 31.6842 75.6642 31.8695 76.4128C31.914 76.5981 31.9955 76.9094 32.0548 77.1169C32.2994 78.0211 32.3735 78.3175 32.4179 78.5695C32.4772 78.9253 32.8033 79.3996 33.085 79.5479C33.3814 79.7035 33.9077 79.8295 34.6118 79.8962C35.9384 80.037 37.695 80.6818 39.2069 81.5934C40.5039 82.3642 42.4383 84.0392 43.5649 85.3437C43.9206 85.7513 44.2838 86.1664 44.3801 86.2701C44.4765 86.3739 44.7804 86.7667 45.0472 87.1447C45.3214 87.5227 45.7216 88.0785 45.9292 88.3676C46.1441 88.664 46.3516 88.9679 46.3961 89.0494C46.4406 89.131 46.5369 89.294 46.6184 89.42C46.7 89.5386 46.7889 89.6942 46.8185 89.7535C46.8482 89.8128 47.0557 90.1612 47.2855 90.5317C47.5152 90.8949 47.8265 91.4508 47.9821 91.7546C48.2712 92.3327 48.3453 92.481 48.4713 92.6959C48.8271 93.3259 48.7604 93.4074 47.8339 93.4667C47.4337 93.4964 46.8334 93.5556 46.5073 93.5927C45.7587 93.6965 41.2006 93.6965 40.5039 93.6001C40.2223 93.5631 39.6516 93.4964 39.244 93.4593C38.3027 93.3778 36.9316 93.1406 36.057 92.9034C35.8569 92.8515 35.4715 92.7478 35.2047 92.6811C34.9379 92.6144 34.6043 92.5106 34.4635 92.4587C34.3227 92.4069 33.9892 92.2957 33.7224 92.2067C32.7218 91.8881 32.4921 91.7917 31.2543 91.1691C28.3194 89.6868 25.8365 87.6116 24.0429 85.1362C23.8428 84.8545 23.5464 84.4543 23.3833 84.2468C23.035 83.8021 22.7088 83.3055 22.5087 82.9349C22.4272 82.7941 22.3234 82.6236 22.2642 82.5569C22.2049 82.4976 22.1604 82.4161 22.1604 82.3865C22.1604 82.3568 22.0789 82.2234 21.9825 82.0974C21.8788 81.964 21.7676 81.7787 21.7231 81.675C21.6786 81.5712 21.5675 81.3711 21.4859 81.2303C21.397 81.0895 21.145 80.6225 20.9153 80.1927C20.6929 79.7628 20.4854 79.3774 20.4557 79.3403C20.4261 79.2959 19.9444 78.3843 19.3959 77.3022C18.8474 76.2201 18.3064 75.1899 18.2026 75.0046C18.0989 74.8193 17.9803 74.6044 17.9358 74.5228C17.4615 73.6335 16.2089 72.04 15.6383 71.6101C14.7044 70.906 13.5853 70.6614 12.2957 70.8838C10.5539 71.1877 8.67142 70.9505 7.24841 70.2612C5.66975 69.4904 4.63214 68.4083 4.31344 67.1854C4.07628 66.2738 4.18745 65.5771 4.7359 64.5247C5.29918 63.4204 6.6629 62.116 7.96733 61.4044C8.25638 61.2488 8.61213 61.0413 8.76036 60.9449C8.916 60.8486 9.08647 60.7745 9.14576 60.7745C9.21246 60.7745 9.3681 60.73 9.50151 60.6707C10.0277 60.4558 10.2945 60.3817 11.0802 60.2557C11.9028 60.1223 12.4142 60.1223 13.1925 60.2631Z" fill="black"/>
</g>
<defs>
<clipPath id="clip0_136_89">
<rect width="100" height="97.5542" fill="white"/>
</clipPath>
</defs>
</svg>
