<svg width="100" height="91" viewBox="0 0 100 91" fill="none" xmlns="http://www.w3.org/2000/svg">
<g clip-path="url(#clip0_176_5)">
<path d="M27.8303 0.118647C27.5857 0.155704 27.1039 0.237231 26.7556 0.296523C26.4073 0.355816 25.9626 0.422519 25.7699 0.444754C24.5025 0.607808 23.6428 1.29708 23.4204 2.33469C23.3167 2.82385 23.3389 3.14255 23.6057 4.7805C23.6576 5.12884 23.7613 5.75882 23.8281 6.18869C23.8948 6.61855 23.9985 7.24112 24.0652 7.57464C24.1764 8.16015 24.1542 8.5159 24.0208 8.36767C23.9837 8.33062 23.8503 8.10086 23.7169 7.85628C23.5761 7.6117 23.3241 7.1596 23.1388 6.85572C22.9609 6.55185 22.7163 6.12939 22.6052 5.92928C21.5749 4.11346 20.9376 3.05361 20.6559 2.73492C20.1816 2.20129 19.6554 1.96412 18.9364 1.96412C18.3139 1.96412 18.0174 2.06047 17.2318 2.51998C16.9502 2.69045 16.6611 2.84609 16.6018 2.87573C16.5425 2.90538 16.3943 2.99432 16.2683 3.07585C16.1497 3.14996 15.9051 3.29078 15.7347 3.37972C15.0676 3.72806 14.6304 4.15052 14.3784 4.67673C14.1634 5.14366 14.1412 5.2326 14.1708 5.78105C14.2005 6.47032 14.1708 6.40362 15.3789 8.48626C16.7278 10.8209 16.8983 11.1322 16.8983 11.2433C16.8983 11.3026 16.7278 11.5324 16.5203 11.7547C15.9867 12.3254 15.6235 12.8072 15.1714 13.5632C14.949 13.9263 14.7415 14.2302 14.6971 14.245C14.66 14.2598 14.4451 14.1487 14.2227 14.0004C13.5112 13.5261 12.7108 13.0962 11.5249 12.5626C11.1173 12.3773 9.86474 12.0067 9.19029 11.8659C7.86363 11.5991 6.28497 11.5176 5.35853 11.6806C4.78785 11.7844 4.34315 12.0808 4.08375 12.5552C3.85399 12.9702 3.77247 14.0078 3.8614 15.3345C3.95775 16.6686 4.26163 18.0101 4.74338 19.1959C5.0176 19.8555 5.74393 21.2711 6.07004 21.7677C6.27756 22.079 6.44803 22.3829 6.44803 22.4496C6.44803 22.5089 6.22568 22.6942 5.95145 22.8572C4.53585 23.6873 3.22401 24.8657 2.86085 25.6365C2.46804 26.474 2.67556 27.067 3.72059 28.1046C4.4988 28.8754 4.84714 29.157 5.65499 29.6462C5.97369 29.8389 6.22568 30.039 6.22568 30.0983C6.22568 30.1501 6.02557 30.4244 5.77358 30.6986C5.16583 31.3656 5.03984 31.6399 5.03984 32.2402C5.03984 32.8924 5.18066 33.1518 6.01075 34.0116C7.06318 35.1159 8.32314 36.0127 9.84251 36.7464C10.2576 36.9465 10.5985 37.154 10.5985 37.2059C10.5985 37.2578 10.5095 37.495 10.4058 37.7321C9.62016 39.5109 9.26441 41.1118 9.26441 42.8757C9.27182 43.4835 9.31629 44.1728 9.37558 44.4692C9.47193 44.988 9.47193 44.988 9.27923 45.2845C8.67148 46.1887 8.6789 47.041 9.30146 47.7822C9.40523 47.9007 9.48675 48.049 9.48675 48.1157C9.48675 48.175 9.34593 48.4121 9.16806 48.6419C8.85677 49.0495 8.13044 50.2206 7.79692 50.8505C7.33 51.7251 6.72966 53.3853 6.49991 54.4377C6.21827 55.7051 6.15898 56.0757 6.11451 56.9947C6.08486 57.5802 6.02557 57.9804 5.97369 58.0101C5.92922 58.0397 5.66241 58.0694 5.37336 58.0694C4.78785 58.0768 4.06152 58.2102 3.77988 58.3732C3.29813 58.6475 2.74968 59.2923 2.5718 59.8037C2.51992 59.9519 2.47545 61.3971 2.4458 63.9245L2.40875 67.8081L1.81582 67.9045C1.02279 68.0379 0.503984 68.3788 0.207523 68.9643L0 69.3719V74.3451C0 78.8068 0.0148231 79.3404 0.118584 79.5702C0.466926 80.2891 0.941264 80.6226 1.83065 80.7709L2.40875 80.8672L2.4458 84.7583C2.49027 88.6493 2.49768 88.7975 2.7645 89.3015C2.92755 89.6054 3.44636 90.1316 3.728 90.2724C4.38762 90.6134 2.54215 90.5985 41.4008 90.606C74.182 90.606 78.0582 90.5911 78.3472 90.4948C78.9772 90.2724 79.3256 89.7759 79.3256 89.1162C79.3256 88.4196 78.8809 87.8711 78.1916 87.7229C77.9248 87.6636 67.4523 87.6413 41.6602 87.6413C8.75301 87.6413 5.49935 87.6339 5.45488 87.5228C5.39559 87.3745 5.39559 81.0896 5.45488 80.9413C5.49935 80.8302 9.48675 80.8227 49.9537 80.8227C90.4206 80.8227 94.408 80.8302 94.4525 80.9413C94.5192 81.1118 94.5044 87.4412 94.4377 87.545C94.3932 87.6117 93.2073 87.6413 89.383 87.6562C84.4914 87.6784 84.3728 87.6784 84.0912 87.834C83.9281 87.9156 83.6909 88.1083 83.5724 88.2639C83.3574 88.5233 83.3426 88.59 83.3426 89.1237C83.3426 89.6573 83.3574 89.724 83.5724 89.9834C83.6909 90.139 83.9281 90.3317 84.0912 90.4133C84.3728 90.5689 84.484 90.5689 89.6795 90.5911C95.2307 90.6134 95.542 90.5985 96.1423 90.2947C96.6166 90.0501 97.1429 89.4201 97.3356 88.8717C97.3874 88.7234 97.4319 87.2782 97.4616 84.7583L97.4986 80.8672L98.0767 80.7709C99.0106 80.6152 99.4849 80.2595 99.8258 79.4664C99.9815 79.1107 99.9815 78.9995 99.9815 74.3154V69.5202L99.7369 69.0384C99.4108 68.3788 98.9216 68.0453 98.0915 67.9045L97.4986 67.8081L97.4616 63.9245C97.4319 61.3971 97.3874 59.9519 97.3356 59.8037C97.1503 59.27 96.587 58.6252 96.0904 58.3584C95.9718 58.2917 95.6383 58.1954 95.3493 58.1435C95.0676 58.0916 94.786 58.0175 94.7415 57.973C94.6822 57.936 94.6452 57.7284 94.6452 57.4764C94.6452 56.4907 94.1708 54.4303 93.7187 53.4297C93.2148 52.3106 92.2513 50.7616 91.8733 50.4355C91.7621 50.3466 91.7621 50.3243 91.9103 50.1613C92.0067 50.0723 92.103 49.9908 92.1327 49.9908C92.2587 49.9908 93.4371 49.2348 93.9856 48.805C94.7193 48.2269 95.6235 47.2782 95.8384 46.8631C95.957 46.6408 96.0015 46.411 96.0015 46.0997C96.0015 45.5809 95.8829 45.3067 95.416 44.7657C95.2381 44.5656 95.0899 44.3432 95.0899 44.2839C95.0899 44.2172 95.3641 43.9875 95.6902 43.7651C96.4239 43.2834 97.6394 42.142 97.8544 41.7344C98.0989 41.2674 98.0841 40.504 97.8173 40.0519C97.5505 39.5924 96.4388 38.5548 95.7198 38.0805C94.6748 37.3986 94.7045 37.4579 95.0602 36.9836C95.4604 36.4351 96.1423 35.0195 96.4981 33.9819C96.8316 32.9962 97.091 31.4546 97.091 30.3947C97.091 29.2311 96.965 28.7494 96.5277 28.3195C96.0978 27.8896 95.6161 27.7562 94.4747 27.7562C92.3698 27.7562 90.1983 28.3788 88.2342 29.5498C87.6635 29.8907 87.3893 30.0167 87.33 29.9649C87.2781 29.9278 87.1521 29.7351 87.041 29.5498C86.4184 28.4826 85.1436 27.1337 84.5433 26.9039C84.0689 26.726 83.4019 26.7853 83.0239 27.0373C82.5496 27.356 81.6083 28.364 81.1414 29.0532C80.8968 29.4164 80.6448 29.7499 80.5929 29.7796C80.5114 29.824 80.1853 29.535 79.3923 28.7345C78.7919 28.1268 78.1175 27.482 77.8951 27.2967C77.4949 26.9706 76.3832 26.1998 76.3091 26.1998C76.2868 26.1998 76.109 26.1035 75.9088 25.9849C75.4493 25.7181 74.1671 25.1992 73.5668 25.0436C72.3661 24.7323 71.6472 24.6434 70.2909 24.6434C69.3496 24.6434 68.7715 24.6804 68.3787 24.762L67.8155 24.8806L66.9409 23.9912C65.6587 22.6867 64.5099 21.9752 62.8497 21.4416C62.5829 21.3527 62.3235 21.2489 62.279 21.2118C62.2198 21.1748 62.1827 20.9747 62.1827 20.7523C62.1827 20.3743 61.9678 19.1885 61.8047 18.64C61.4119 17.3282 60.4632 15.7718 59.4182 14.6971C56.75 11.9845 52.7849 11.1025 49.1088 12.407C48.0193 12.7924 46.5814 13.7188 45.6921 14.6082C44.6841 15.6236 44.0096 16.6612 43.3945 18.1583C43.1351 18.7957 42.9127 19.7666 42.8534 20.567C42.7793 21.4268 42.683 21.4342 42.1049 20.5893C41.8603 20.2335 41.512 19.7592 41.3267 19.5443C41.1414 19.3219 40.9857 19.0773 40.9857 18.9958C40.9857 18.9143 41.1784 18.5289 41.4082 18.1361C42.2976 16.6241 42.342 16.5204 42.305 16.046C42.2679 15.4753 41.9937 15.0825 41.4823 14.8231C41.0747 14.623 40.8153 14.5934 40.4892 14.7194C40 14.8972 39.7851 15.127 39.2663 16.009C38.5177 17.2763 38.6511 17.2022 37.8655 16.8316C37.5023 16.6538 37.1836 16.4907 37.1614 16.4685C37.1169 16.424 37.2503 16.1053 37.4282 15.8237C37.4653 15.7644 37.7024 15.3642 37.947 14.9343C38.1916 14.5044 38.4288 14.1042 38.4658 14.0449C38.5103 13.9856 38.5622 13.8818 38.5918 13.8226C38.6215 13.7633 38.8364 13.3853 39.0736 12.9851C39.3107 12.5922 39.5034 12.2439 39.5034 12.2291C39.5034 12.2068 39.6517 11.9474 39.8295 11.651C40.0074 11.3619 40.4669 10.5689 40.8597 9.89445C41.2451 9.22 41.6305 8.55296 41.7121 8.41214C41.801 8.27132 41.927 8.03416 42.0085 7.89334C42.8164 6.44809 43.5946 5.18072 43.6909 5.1659C43.8836 5.12143 44.988 5.8107 44.988 5.97375C44.988 6.04787 44.8768 6.28504 44.7434 6.49997C44.6026 6.7149 44.3654 7.12254 44.2097 7.41159C44.0541 7.69323 43.7799 8.18239 43.5946 8.48626C42.9943 9.48681 42.8386 9.82774 42.8386 10.1909C42.846 10.8061 43.1944 11.31 43.8243 11.5843C44.2542 11.7696 44.862 11.651 45.2325 11.31C45.4178 11.147 46.0256 10.1761 46.6185 9.11624C46.7074 8.95318 46.9891 8.47144 47.2411 8.04157C48.0341 6.70008 48.1749 6.35174 48.1749 5.67729C48.1749 4.56556 47.8117 4.09122 46.2924 3.19443C45.7143 2.8535 44.9657 2.43104 44.6396 2.26799C44.0912 1.98635 43.9874 1.96412 43.4538 1.96412C42.7941 1.96412 42.3272 2.14199 41.8455 2.55704C41.6231 2.74974 40.8449 3.95041 40.5929 4.48404C40.5633 4.54333 40.4743 4.69156 40.3928 4.81755C40.3187 4.93614 40.2075 5.12143 40.1482 5.22519C40.0964 5.32895 39.7258 5.97375 39.333 6.65561C38.9402 7.34488 38.614 7.92298 38.614 7.95263C38.6066 7.98228 38.5399 8.08604 38.4584 8.18239C38.2138 8.47885 38.1471 8.29356 38.2731 7.66358C38.3324 7.35971 38.4362 6.76678 38.5029 6.33692C38.5696 5.90705 38.6733 5.25483 38.7326 4.89167C39.0736 2.77197 39.0661 2.86091 38.9402 2.34952C38.8142 1.86777 38.5473 1.38602 38.2286 1.10438C37.7024 0.637454 37.3541 0.541104 34.3895 0.111235C33.463 -0.0295837 32.67 0.244643 32.0993 0.889445C31.7436 1.29708 31.5953 1.70471 31.4323 2.71268C31.284 3.60948 31.1803 3.89111 31.0988 3.6243C31.0765 3.54277 30.995 3.09067 30.9135 2.61633C30.743 1.62319 30.5577 1.18591 30.1501 0.770861C29.8017 0.422519 29.446 0.22982 28.9198 0.118647C28.4825 0.0297086 28.4677 0.0297086 27.8303 0.118647ZM27.9637 3.17961C28.023 3.2389 28.0897 3.48348 28.1193 3.72065C28.1416 3.95782 28.2157 4.46921 28.275 4.85461C28.3417 5.24001 28.438 5.89222 28.5047 6.29986C28.564 6.70749 28.6604 7.32265 28.7197 7.67099C28.7715 8.01933 28.8753 8.64931 28.942 9.07918C29.0087 9.50905 29.0976 10.0575 29.1421 10.3021C29.1866 10.5467 29.2459 10.9469 29.2829 11.1915C29.5794 13.3038 29.6832 13.615 30.1723 13.9708C30.8171 14.4303 31.6546 14.4155 32.2253 13.9263C32.7293 13.5039 32.7515 13.4297 33.0628 11.3768C33.1443 10.8283 33.2407 10.1613 33.2777 9.89445C33.3148 9.62763 33.3815 9.22741 33.4186 9.00507C33.4556 8.78272 33.5446 8.24909 33.6113 7.81922C33.7595 6.85572 33.9226 5.82552 34.056 5.00284C34.1153 4.6545 34.1968 4.11346 34.2487 3.80217C34.2931 3.48348 34.3821 3.18702 34.4414 3.14255C34.5155 3.07585 34.7008 3.09067 35.227 3.19443C35.8866 3.33525 35.9088 3.35007 35.9311 3.55759C35.9459 3.67618 35.9014 4.09122 35.8421 4.48404C35.7754 4.86943 35.6717 5.49941 35.6124 5.86999C35.5012 6.55926 35.3752 7.35971 35.1751 8.59743C34.975 9.81292 34.4932 12.9776 34.4265 13.489C34.3598 13.9634 34.1671 15.1715 34.1078 15.4457L34.056 15.7051H31.1729L28.2824 15.7125L28.1193 14.6008C27.8525 12.8146 27.7191 11.9771 27.6079 11.3026C27.5486 10.9543 27.4523 10.3391 27.3856 9.93151C27.3189 9.52387 27.2225 8.90872 27.1632 8.56037C26.7778 6.20351 26.3776 3.4316 26.4221 3.38713C26.4666 3.33525 27.5042 3.09808 27.7339 3.08326C27.8006 3.08326 27.9044 3.12031 27.9637 3.17961ZM18.892 5.36601C18.9809 5.48459 19.0476 5.59576 19.0476 5.618C19.0476 5.64023 19.27 6.04046 19.5516 6.50738C20.2335 7.6784 20.9672 8.95318 21.2266 9.40529C21.3378 9.61281 21.5898 10.0501 21.7825 10.3762C21.9752 10.7023 22.153 11.021 22.1827 11.0803C22.2123 11.1396 22.3013 11.2878 22.3828 11.4138C22.4569 11.5324 22.5681 11.7177 22.6274 11.8214C22.6793 11.9252 23.0498 12.57 23.4501 13.2667C25.0065 15.9497 25.2733 16.4314 25.2733 16.5945C25.2733 16.7056 25.1992 16.7872 25.0361 16.8687C24.9027 16.928 24.6137 17.0762 24.4062 17.1948C24.0578 17.3949 24.0059 17.4023 23.9022 17.306C23.8132 17.2096 23.2129 16.2165 22.6644 15.2307C22.5829 15.0899 22.4569 14.8676 22.3754 14.749C22.3013 14.623 22.2123 14.4748 22.1827 14.4155C22.153 14.3562 21.9381 13.9782 21.7009 13.578C21.4638 13.1778 21.2711 12.8294 21.2711 12.8146C21.2711 12.7998 21.1896 12.6441 21.0858 12.4811C20.9227 12.2291 19.522 9.81292 19.0106 8.89389C18.9142 8.73084 18.6474 8.26391 18.4028 7.85628C18.1656 7.44865 17.9433 7.06325 17.9137 7.00395C17.884 6.94466 17.758 6.72232 17.6394 6.5222C17.3281 6.01081 17.3133 5.96634 17.4097 5.86999C17.5801 5.69953 18.4918 5.15848 18.6178 5.15848C18.6845 5.15107 18.8105 5.24742 18.892 5.36601ZM18.6178 14.1709C18.7215 14.2895 19.522 15.631 19.937 16.3795C20.0259 16.5426 20.2779 16.9799 20.5003 17.3504C21.0858 18.351 21.3304 18.7883 21.5082 19.1366L21.6713 19.4553L21.4341 19.7666C20.9894 20.3595 20.478 21.1229 20.2483 21.5528C19.9296 22.1383 19.3885 23.4057 19.2329 23.9393C18.9957 24.762 19.0624 24.7694 18.0915 23.7985C17.3578 23.0647 17.1725 22.9165 16.8019 22.7905C16.3795 22.6423 16.3795 22.6423 15.957 22.7905C15.1788 23.0573 14.8156 23.7169 14.9861 24.5322C15.0602 24.888 15.1566 24.9917 16.876 26.7334L18.6919 28.5567L18.7956 29.3275C18.8475 29.7499 18.929 30.2094 18.9735 30.3503C19.0773 30.6986 19.0699 31.0173 18.9587 31.0469C18.9068 31.0618 18.677 31.1136 18.4547 31.1655C16.4758 31.625 14.5562 32.6701 12.9998 34.145L12.444 34.6786L11.8362 34.4266C10.9098 34.0486 10.0352 33.5669 9.29405 33.011C8.92348 32.7368 8.58255 32.4551 8.53067 32.3958C8.38985 32.2254 8.53067 32.0401 9.21253 31.5213C10.2057 30.7727 10.3687 30.5504 10.428 29.824C10.4651 29.4609 10.4428 29.3275 10.2724 28.9865C10.1612 28.7642 9.96109 28.4974 9.82027 28.3862C9.59793 28.2232 8.9383 27.9341 8.41949 27.7785C7.94515 27.6302 6.34427 26.6445 6.22568 26.4221C6.16639 26.311 6.21086 26.2369 6.47026 26.0293C7.09283 25.5328 7.82657 25.14 9.005 24.6656C9.86474 24.3247 10.2576 23.7836 10.2576 22.9387C10.2501 22.4422 10.013 22.0197 9.23476 21.16C8.90865 20.7968 8.16009 19.5887 7.78951 18.8327C7.16694 17.558 6.75931 15.8385 6.81119 14.6823C6.8186 14.5563 6.86307 14.5489 7.50046 14.5934C8.75301 14.6897 10.4873 15.2307 11.6361 15.883C11.9029 16.0312 12.1549 16.172 12.192 16.1868C12.2364 16.2017 12.6441 16.5055 13.1036 16.8539C14.6378 18.0249 14.8601 18.1287 15.542 18.0027C16.2016 17.8841 16.6537 17.4468 16.9427 16.6463C17.1873 15.9793 17.595 15.1715 17.9804 14.6304C18.4399 13.956 18.4325 13.9634 18.6178 14.1709ZM53.5112 14.8157C55.0232 15.0529 56.3498 15.7421 57.4319 16.8613C58.7067 18.1805 59.3144 19.8333 59.2848 21.9159C59.27 22.8201 59.2848 22.9461 59.4256 23.1759C59.7443 23.6873 60.2557 23.9763 60.8412 23.9763C61.1006 23.9763 61.3007 24.0282 62.2198 24.3247C62.6422 24.4581 63.3908 24.8509 63.8873 25.1844C64.673 25.7181 65.6439 26.8817 66.0663 27.7933C66.1479 27.9563 66.2294 28.1416 66.259 28.2083C66.2961 28.2676 66.3924 28.5863 66.4888 28.9124C66.637 29.4164 66.6593 29.661 66.6593 30.6838C66.6593 31.966 66.5481 32.5589 66.1256 33.4631C65.8885 33.9819 65.2733 34.9528 65.0658 35.1381C64.7916 35.3901 64.6285 35.7977 64.6285 36.2572C64.6285 36.7316 64.673 36.8279 65.3029 37.6654C65.5253 37.9545 65.8069 38.4066 65.9403 38.666C66.5258 39.837 66.5407 39.963 66.0886 40.3558C65.9107 40.5115 65.5401 40.9784 65.2585 41.386C63.7984 43.5502 62.2049 44.7953 59.5887 45.8107C58.929 46.0701 58.1879 46.4036 57.847 46.6037C57.7654 46.6556 57.5283 46.789 57.3281 46.9076C56.6537 47.3078 55.7791 48.0045 54.9416 48.8198C54.4895 49.2719 54.0745 49.6128 54.0374 49.5832C53.9855 49.5535 53.9559 49.0792 53.9559 48.2713V47.004L54.2301 46.7001C54.5785 46.3073 56.4462 44.2543 57.0687 43.5798C59.522 40.9191 59.8851 40.504 60.0037 40.2224C60.3595 39.3627 59.7443 38.3473 58.7882 38.2287C58.1212 38.1546 57.9359 38.288 56.209 40.1779C54.2005 42.3643 54.2079 42.3569 54.0745 42.3569C53.9707 42.3569 53.9559 42.1123 53.9559 40.1112C53.9559 38.1101 53.9707 37.8507 54.0893 37.6803C54.156 37.5691 54.6378 37.0355 55.1492 36.4944C55.6606 35.946 56.5203 35.0195 57.0687 34.4266C57.6098 33.8337 58.262 33.137 58.514 32.8702C59.9074 31.4027 60.1075 31.1136 60.1075 30.5726C60.1075 29.7796 59.4182 29.0903 58.6103 29.0903C58.0322 29.0903 57.8247 29.2682 55.8533 31.4249C54.6229 32.7664 54.1115 33.2704 54.0448 33.2111C54.0152 33.1815 53.9781 31.5435 53.9559 29.572L53.9188 25.9923L53.6891 25.7106C53.2815 25.2067 53.1184 25.1251 52.5107 25.1251C51.8881 25.1251 51.7176 25.2141 51.31 25.7477L51.0654 26.0664V29.6091C51.0654 32.0104 51.0432 33.174 50.9839 33.2037C50.8949 33.263 50.4132 32.7886 49.1755 31.4249C47.2485 29.3126 46.9891 29.0903 46.411 29.0903C45.4697 29.0903 44.736 30.0242 44.9731 30.9135C45.025 31.1062 45.1362 31.3434 45.2177 31.4472C45.3363 31.6028 46.4851 32.8554 46.8779 33.2704C46.9224 33.3149 47.4041 33.8337 47.9526 34.4266C48.501 35.0195 48.9679 35.5161 48.9902 35.5383C49.1903 35.7236 50.8431 37.5468 50.9394 37.6877C51.0506 37.8507 51.0654 38.1324 51.0654 40.1112C51.0654 41.4231 51.0358 42.3643 50.9987 42.394C50.9098 42.4459 50.6355 42.1716 49.2866 40.6893C47.5079 38.7253 47.2188 38.4436 46.8705 38.3102C45.9885 37.9767 44.9138 38.703 44.9138 39.6369C44.9138 40.2076 45.0991 40.4892 46.3887 41.8752C46.663 42.1642 47.8933 43.5205 48.3602 44.0319C48.3973 44.0764 48.6048 44.2987 48.8049 44.5137C49.1829 44.9213 50.5021 46.3666 50.8653 46.7668L51.0654 46.9891V49.1904C51.0654 50.5615 51.0358 51.4064 50.9913 51.436C50.8801 51.5102 50.7764 51.4138 49.9685 50.5318C49.0198 49.4942 48.8568 49.3756 48.3231 49.3386C47.7969 49.3015 47.4041 49.4794 47.0558 49.9241C46.826 50.2131 46.8112 50.2798 46.8112 50.769C46.8112 51.2433 46.8334 51.3397 47.0187 51.5769C47.2559 51.8881 48.1897 52.9554 49.1384 53.993C49.4942 54.3784 50.0723 55.0232 50.4206 55.4234L51.0654 56.1498V57.0169C51.0654 57.6024 51.0358 57.9211 50.9765 57.9804C50.8505 58.1064 47.7969 58.1064 47.6709 57.9804C47.619 57.9285 47.582 57.6914 47.582 57.4394C47.5746 55.9423 47.0706 53.5187 46.5073 52.2513C46.4554 52.1253 46.3517 51.8956 46.2776 51.7325C46.0404 51.1692 45.4994 50.1094 45.3956 49.9908C45.3363 49.9241 45.2844 49.85 45.2844 49.8203C45.2844 49.7685 44.9138 49.2126 44.4914 48.6271C44.3135 48.3899 44.1727 48.1602 44.1727 48.1231C44.1727 48.0786 44.2616 47.923 44.3802 47.7748C44.6989 47.3597 44.8397 46.9817 44.8397 46.5444C44.8397 45.9886 44.647 45.6032 44.0096 44.8768C43.3797 44.1653 43.2314 44.0245 42.3569 43.3501C41.6602 42.809 41.6379 42.7646 41.8306 42.0901C41.8899 41.89 41.9863 41.3934 42.053 40.9858C42.1716 40.2595 42.3124 39.4887 42.5051 38.4659C42.5644 38.1768 42.6607 37.6284 42.7274 37.243C43.061 35.3012 43.2759 34.1672 43.4019 33.6336C43.4612 33.3816 43.5057 33.0851 43.5057 32.9739C43.5057 32.8628 43.5501 32.5811 43.6094 32.3588C43.6687 32.129 43.7576 31.7066 43.8021 31.4249C43.854 31.1359 43.9578 30.5578 44.0393 30.1279C44.3061 28.7049 44.2987 26.1331 44.0245 25.0881C43.7799 24.1246 43.7725 24.1098 43.8836 24.043C43.9429 24.006 44.0912 23.9763 44.2172 23.9763C44.5359 23.9763 45.0621 23.7836 45.2696 23.5835C45.3659 23.4946 45.5142 23.3093 45.6031 23.1611C45.7513 22.9239 45.7662 22.8201 45.7439 21.953C45.6921 19.4479 46.5888 17.5135 48.4862 16.0682C49.8647 15.0158 51.7547 14.5415 53.5112 14.8157ZM34.8342 18.8476C35.9311 19.1144 36.4351 19.3293 37.4208 19.9593C38.8142 20.8561 40.1853 22.6793 40.8004 24.4433C41.1414 25.4438 41.4082 27.1929 41.2525 27.4449C41.2155 27.5116 40.3113 27.5339 37.7543 27.5339C33.9893 27.5339 34.2116 27.5116 33.7002 27.9712C33.3815 28.2602 33.2777 28.5122 33.2777 28.9939C33.2777 29.572 33.5001 29.95 34.0263 30.2687C34.2709 30.417 34.3747 30.4244 37.5616 30.4244C40.5114 30.4244 40.8449 30.4392 40.8894 30.543C40.9116 30.6097 40.8746 31.0025 40.8004 31.4175C40.7337 31.8252 40.6448 32.3291 40.6152 32.5367C40.5855 32.7368 40.5188 33.0481 40.4743 33.2185L40.3854 33.5298L37.8507 33.552C35.0639 33.5743 35.0936 33.5743 34.6341 34.0634C33.9448 34.7898 34.2116 35.9978 35.1455 36.3907C35.3752 36.4796 35.7977 36.5018 37.5764 36.5018C39.3848 36.5018 39.7406 36.5166 39.7702 36.6056C39.8147 36.7242 39.7628 37.0799 39.5034 38.54C39.4219 39.0217 39.3181 39.4664 39.2737 39.5109C39.2218 39.5776 38.7549 39.6073 37.7321 39.6295L36.2646 39.6517L35.9163 39.8741C35.5976 40.0742 35.4864 40.215 35.2047 40.8005C35.1603 40.8969 34.6933 40.9117 31.7954 40.9339C29.1569 40.9487 28.4232 40.9339 28.3713 40.8598C28.3417 40.8079 28.312 40.3113 28.312 39.7629C28.312 38.6586 28.2379 38.288 27.9637 37.9174C27.3115 37.0651 25.7995 37.3245 25.4586 38.3547C25.4289 38.4585 25.3771 39.0736 25.3548 39.7258L25.3104 40.9117L24.6656 40.9339C24.0652 40.9562 24.0133 40.9413 23.9096 40.7857C23.8503 40.6893 23.7688 40.4003 23.7243 40.1335C23.6872 39.8667 23.5316 38.9847 23.3834 38.1694C23.2351 37.3541 23.0869 36.5018 23.0498 36.2795C23.0128 36.0571 22.9387 35.6866 22.9016 35.4642C22.8201 35.0418 22.6719 34.2858 22.4866 33.2926C22.242 31.9808 22.1679 31.5509 22.0938 31.1655C21.6935 29.1051 21.6861 28.9865 21.6861 27.5709C21.6861 26.3851 21.7158 26.059 21.8492 25.4957C22.242 23.8429 23.0424 22.3236 24.1171 21.1896C24.8434 20.4114 25.4882 19.9222 26.348 19.4998C27.8896 18.7364 28.5047 18.64 31.7213 18.6697C33.9226 18.6919 34.2783 18.7142 34.8342 18.8476ZM71.9066 27.6821C74.3672 28.1935 76.3313 29.4312 77.6876 31.3286C78.2805 32.1438 78.9253 33.4853 79.0736 34.2117C79.1032 34.3525 79.1551 34.5155 79.1847 34.56C79.207 34.6045 79.2885 35.0714 79.3478 35.5902C79.4515 36.4129 79.459 36.6649 79.37 37.4876C79.2663 38.5474 79.2218 38.6215 78.829 38.3992C77.7247 37.7544 76.6648 37.3097 75.4864 36.9984C74.5229 36.7464 74.1745 36.7019 72.8553 36.6723C71.6917 36.6426 71.3508 36.6575 70.5948 36.7909C70.1056 36.8724 69.5053 37.0132 69.2607 37.0947C69.0161 37.1763 68.7567 37.243 68.69 37.243C68.5788 37.243 68.1045 36.613 67.9859 36.3091C67.9711 36.2572 68.0823 35.9978 68.2379 35.7384C68.5047 35.2937 68.9642 34.308 69.1866 33.6854C69.3422 33.2482 69.4608 32.7145 69.5646 31.9808C69.7425 30.7134 69.6906 29.8166 69.3571 28.364C69.2236 27.771 69.2162 27.6599 69.3052 27.6006C69.5053 27.4746 71.1581 27.5265 71.9066 27.6821ZM84.4024 30.8617C84.5655 31.1062 84.8546 31.6917 85.0547 32.1661C85.5661 33.389 85.9811 33.7596 86.8631 33.7596C87.3819 33.7596 87.6932 33.6262 88.1971 33.1889C89.672 31.9141 91.5101 31.0395 93.2444 30.7949C94.0004 30.6838 94.1264 30.7134 94.1264 30.9951C94.119 31.7362 93.6817 33.3149 93.2296 34.2487C92.8516 35.0269 92.0808 36.2202 91.8288 36.4277C91.7992 36.4499 91.6361 36.6649 91.4508 36.902C91.1469 37.3097 91.1247 37.3764 91.1025 37.873C91.0506 38.8439 91.3989 39.2737 92.6218 39.7555C93.4593 40.0816 94.4451 40.6893 94.4821 40.8969C94.5266 41.1044 92.6292 42.2087 92.2364 42.2087C92.1104 42.2087 91.6213 42.4829 91.3989 42.683C90.9542 43.0758 90.7615 43.8466 90.9765 44.4099C91.1321 44.825 91.3322 45.0547 91.9474 45.5291C92.5922 46.0182 92.6144 46.0701 92.3254 46.3592C91.9474 46.7297 91.1618 47.2263 90.3317 47.6117C89.9092 47.8118 89.5016 47.9897 89.4201 48.0045C89.3385 48.0267 88.9531 48.1305 88.5677 48.2343C87.4931 48.5159 86.3146 48.6197 85.4178 48.5159C85.0102 48.4714 84.6544 48.3899 84.6248 48.338C84.5951 48.2861 84.5655 48.0786 84.5655 47.8785C84.5581 46.8483 84.0689 44.8176 83.6316 43.9726C83.3871 43.5057 83.4019 43.4761 85.277 41.6158C86.2405 40.6597 87.0854 39.7481 87.1669 39.5998C87.3448 39.2515 87.3448 38.7994 87.1669 38.4066C86.8186 37.6358 85.944 37.3245 85.2103 37.6951C85.0324 37.7914 84.269 38.4881 83.3871 39.3627C82.5496 40.1928 81.8455 40.8746 81.8158 40.8746C81.675 40.8746 81.6676 40.6819 81.8084 40.2224C82.1716 39.044 82.3643 37.7766 82.3643 36.6575C82.3569 35.8348 82.1864 34.3377 82.0382 33.93C81.9641 33.7077 81.9789 33.6632 82.179 33.4038C82.4013 33.1222 82.4903 32.9591 82.7867 32.2031C83.0239 31.6102 83.3648 30.9506 83.6168 30.5948C83.8985 30.2094 83.9874 30.2391 84.4024 30.8617ZM19.6702 34.145C19.7295 34.4192 19.9222 35.5013 20.1223 36.6501C20.2261 37.243 20.3595 37.9915 20.4262 38.3176C20.4855 38.6438 20.567 39.1107 20.604 39.3553C20.6411 39.5998 20.7078 39.9185 20.7523 40.0594C20.856 40.4225 20.8486 40.9487 20.7374 40.9562C20.6856 40.9562 20.2261 40.9562 19.7147 40.9487C16.8612 40.9339 15.038 41.2748 13.237 42.1791C12.7923 42.4014 12.3772 42.5793 12.3254 42.5793C12.1475 42.5793 12.2735 41.1785 12.5329 40.3706C12.7182 39.7851 12.985 39.1107 13.1258 38.8735C13.1629 38.8142 13.2296 38.6808 13.2666 38.5919C13.363 38.3695 13.9337 37.4801 14.1634 37.1985C14.5488 36.7168 15.579 35.7533 16.0904 35.3901C17.0391 34.7231 18.6993 34.0041 19.3218 33.9893C19.5961 33.9819 19.6405 34.0041 19.6702 34.145ZM74.1894 39.7258C74.7526 39.8222 75.5309 40.0297 75.7458 40.1335C75.8051 40.1631 76.0941 40.2965 76.3758 40.4299C78.2212 41.2748 79.8073 42.8164 80.7263 44.6693C81.4749 46.1961 81.7862 47.9452 81.6009 49.6573C81.549 50.1242 81.4823 50.5318 81.4452 50.5541C81.3341 50.6208 81.1784 50.4874 80.7782 49.9537C80 48.9235 78.4584 47.5672 77.2874 46.8631C76.6871 46.5074 75.857 46.1146 75.0787 45.8107C73.7595 45.2919 72.8627 44.8101 71.9659 44.1431C70.8319 43.2908 69.6683 41.9493 69.6683 41.4898C69.6683 41.349 69.6313 41.0006 69.5868 40.7116C69.483 40.0668 69.4979 40.0519 70.3354 39.8444C71.5953 39.5331 72.8775 39.4961 74.1894 39.7258ZM37.2281 44.1209C38.8438 44.5582 39.8592 45.0621 40.9487 45.9886C41.1858 46.1887 41.4156 46.411 41.4527 46.4777C41.6231 46.7816 39.37 48.3158 38.2435 48.6641C37.3096 48.9532 36.9242 49.0347 36.1608 49.1088C34.6711 49.2571 33.2852 49.0421 31.8844 48.4566C31.3433 48.2269 31.1581 48.1824 30.7059 48.1898C30.239 48.1898 30.1353 48.212 29.8017 48.427C29.3645 48.7086 29.2088 48.9087 28.9791 49.472C28.7567 50.0279 28.2009 51.1174 27.9711 51.4583C27.6302 51.9623 26.9705 52.6589 26.8297 52.6589C26.4443 52.6589 25.214 50.8431 24.7471 49.5683C24.547 49.0273 24.1838 48.5752 23.7762 48.3603C23.3611 48.1453 22.62 48.1231 22.153 48.3158C21.9752 48.3899 21.7306 48.4863 21.6046 48.5381C20.0926 49.1681 17.8544 49.3386 16.3054 48.931C14.8601 48.5456 13.4371 47.7896 12.5403 46.915L12.1475 46.537L12.5032 46.1887C13.7336 45.0028 15.6309 44.1431 17.38 43.9875C17.7061 43.9578 22.1753 43.943 27.3115 43.9504C36.5462 43.9652 36.6574 43.9652 37.2281 44.1209ZM67.5709 48.0786C68.2305 49.5239 68.6307 52.318 68.8234 56.6389C68.8605 57.5654 68.8531 57.8693 68.779 57.9582C68.7048 58.0471 68.4603 58.0694 67.3337 58.0694C66.3331 58.0694 65.9626 58.0471 65.9033 57.973C65.8143 57.8693 65.97 53.8893 66.1108 52.7701C66.348 50.8505 66.6815 49.1533 66.978 48.3973C67.0372 48.2343 67.1188 48.0267 67.1558 47.9304C67.2522 47.6784 67.4152 47.7377 67.5709 48.0786ZM71.8251 49.2274C72.166 49.5832 72.7293 50.3169 72.922 50.6504C73.3296 51.3768 73.8114 52.4959 73.967 53.0666C73.9967 53.1852 74.056 53.3705 74.1004 53.4742C74.1375 53.578 74.2338 53.9263 74.3005 54.2524C74.3672 54.5785 74.4636 54.9936 74.5007 55.1789C74.6266 55.7718 74.7749 57.8767 74.6934 57.973C74.6341 58.0471 74.2561 58.0694 73.2629 58.0694C72.2698 58.0694 71.8918 58.0471 71.8399 57.973C71.7954 57.9285 71.7436 57.0985 71.7213 56.1053C71.6546 53.4668 71.3285 50.5244 70.9579 49.2052C70.8468 48.7975 70.8245 48.5604 70.8986 48.4863C70.9654 48.427 71.3878 48.7679 71.8251 49.2274ZM63.8132 48.6123C63.8132 48.6715 63.7688 48.9532 63.7095 49.2274C63.2796 51.2508 62.9238 54.8602 62.9238 57.0762C62.9238 57.6914 62.8942 57.9285 62.8201 57.9878C62.7534 58.0471 62.3013 58.0694 61.36 58.0545L59.9963 58.0323L59.9741 57.5506C59.9296 56.6093 60.3076 54.3117 60.7078 53.1036C61.0413 52.0883 61.1228 51.8807 61.4638 51.2359C61.9603 50.2798 62.3087 49.7833 62.9683 49.1162C63.539 48.5381 63.8132 48.3751 63.8132 48.6123ZM58.9957 49.472C58.9957 49.5091 58.8846 49.7833 58.7437 50.0797C58.5288 50.5541 58.3806 50.895 58.0989 51.6065C57.7728 52.4366 57.4171 53.8596 57.254 54.9936C57.0836 56.2387 57.0687 56.3499 57.0613 57.1059C57.0539 57.4913 57.0169 57.8693 56.9798 57.936C56.9205 58.0545 56.7723 58.0694 55.5197 58.0694C54.3858 58.0694 54.1041 58.0471 54.03 57.9582C53.8892 57.7877 54.0819 56.2684 54.3709 55.2678C54.5414 54.6823 54.9861 53.6373 55.2381 53.2148C56.1571 51.6955 56.8538 50.8876 58.0322 49.9908C58.7882 49.4201 58.9957 49.3089 58.9957 49.472ZM76.1979 49.6721C77.4653 50.5318 78.5177 51.6584 79.3256 52.9999C79.8147 53.8151 80.2965 55.1122 80.5114 56.1794C80.6522 56.8687 80.7337 57.7803 80.667 57.9508C80.63 58.0545 80.4299 58.0694 79.2366 58.0694C78.2583 58.0694 77.821 58.0397 77.7617 57.9804C77.7098 57.9285 77.6728 57.721 77.6728 57.5135C77.6728 56.3721 77.3541 54.245 76.9613 52.8072C76.6945 51.8511 76.0571 50.1687 75.857 49.9167C75.7384 49.7685 75.6494 49.3979 75.7384 49.3979C75.7754 49.3979 75.983 49.5165 76.1979 49.6721ZM12.4217 50.4725C13.3778 51.0506 14.786 51.5843 16.083 51.8733C17.7358 52.2291 20.0556 52.1401 21.5305 51.6584C22.1827 51.4435 22.279 51.4435 22.4495 51.6806C22.5384 51.8066 22.6052 51.9252 22.6052 51.9474C22.6052 52.0512 23.3463 53.2074 23.7613 53.7336C24.295 54.4229 25.3845 55.505 25.8588 55.8163C26.1627 56.009 26.2442 56.0312 26.8371 56.0312C27.4597 56.0312 27.4893 56.0238 27.897 55.7421C28.4973 55.3271 29.3941 54.4229 30.0315 53.578C30.3354 53.1778 30.6022 52.7924 30.6318 52.7331C30.6615 52.6738 30.7134 52.57 30.7578 52.5107C30.7949 52.4514 30.9505 52.192 31.0988 51.9326C31.3952 51.4138 31.3582 51.4212 32.166 51.6584C32.8701 51.8733 33.1962 51.9326 34.2042 52.029C35.6865 52.1846 37.1836 52.0438 38.5029 51.6436C39.6368 51.2952 41.0969 50.6504 41.5712 50.2798C41.6676 50.1983 41.7936 50.139 41.8455 50.139C41.9492 50.139 42.4903 50.8135 42.7867 51.3249C43.0165 51.7177 43.5872 52.8739 43.7651 53.2889C44.2616 54.4896 44.6396 56.3647 44.6026 57.4394L44.5803 58.0323H26.8297H9.07912L9.05688 57.4394C8.99018 55.757 9.75357 53.2222 10.8949 51.3397C11.3174 50.6356 11.7028 50.139 11.8214 50.139C11.851 50.139 12.1253 50.2873 12.4217 50.4725ZM88.9161 51.562C89.9018 52.4292 90.7986 53.8522 91.2729 55.29C91.4879 55.9348 91.7769 57.5283 91.7399 57.8396L91.7176 58.0323L87.7376 58.0545C84.0022 58.0694 83.7502 58.062 83.6909 57.9434C83.6539 57.8693 83.5946 57.4394 83.5724 56.9947C83.5427 56.5426 83.4686 55.9645 83.4093 55.6977C83.3574 55.4309 83.2685 55.0455 83.224 54.8379C83.1425 54.4822 83.1499 54.4377 83.4019 53.9115C83.7502 53.1703 83.9281 52.7034 84.0838 52.1772C84.3357 51.3026 84.2542 51.3693 85.0324 51.4435C86.0997 51.5472 86.9224 51.5028 88.5084 51.2582C88.5381 51.2508 88.7234 51.3916 88.9161 51.562ZM94.4599 61.197C94.4821 61.2934 94.4895 62.8201 94.4821 64.5915L94.4599 67.8155L62.2939 67.8526C44.6026 67.8748 30.0315 67.9267 29.9203 67.9563C29.8092 67.9934 29.5646 68.1639 29.3867 68.3417C29.0235 68.7049 28.9198 69.0681 29.0087 69.661C29.0754 70.0983 29.4608 70.543 29.9203 70.6986C30.2316 70.8098 33.2777 70.8172 63.5909 70.8172C89.4126 70.8172 96.9353 70.8394 97.002 70.9061C97.128 71.0321 97.128 77.6432 97.002 77.7692C96.8686 77.9026 3.03873 77.9026 2.90532 77.7692C2.77191 77.6358 2.77932 71.0173 2.91273 70.8987C2.98684 70.8394 5.95887 70.8172 13.4964 70.8024C23.3389 70.7801 23.9911 70.7727 24.2135 70.6467C24.6656 70.4021 25.0435 69.8315 25.051 69.409C25.051 68.8309 24.5544 68.1046 24.043 67.9637C23.9244 67.9267 19.6924 67.8822 14.6378 67.86L5.44747 67.8155L5.42524 64.5915C5.41782 62.8201 5.42524 61.2934 5.44747 61.197L5.48453 61.034H49.9537H94.4228L94.4599 61.197Z" fill="black"/>
<path d="M8.81227 63.4799C8.38981 63.7022 8.14523 64.0876 8.10076 64.5842C8.04888 65.0956 8.16005 65.4662 8.43428 65.7404C8.91603 66.2295 9.59789 66.3555 10.1538 66.0665C11.2062 65.518 11.1988 64.0135 10.1463 63.4799C9.77576 63.2872 9.16802 63.2872 8.81227 63.4799Z" fill="black"/>
<path d="M89.7907 63.4575C89.4053 63.6576 89.1607 63.9392 89.0347 64.3469C88.9309 64.6878 88.9235 64.799 89.0051 65.0954C89.3163 66.259 90.6208 66.6 91.4805 65.7402C91.8956 65.3178 91.94 64.3765 91.562 63.8874C91.4509 63.7391 91.2359 63.5538 91.0803 63.4723C90.7319 63.3018 90.102 63.287 89.7907 63.4575Z" fill="black"/>
<path d="M8.88634 82.6015C8.51576 82.7942 8.16742 83.2166 8.10813 83.5353C7.92284 84.5359 8.538 85.3438 9.48667 85.3438C10.4353 85.3438 11.1246 84.4914 10.9023 83.5946C10.7837 83.1351 10.5539 82.8461 10.1389 82.6311C9.71643 82.4162 9.25691 82.4014 8.88634 82.6015Z" fill="black"/>
<path d="M89.7538 82.6311C88.4049 83.3426 88.9014 85.3438 90.4208 85.3438C90.8803 85.3438 91.288 85.1511 91.5548 84.8027C91.9328 84.3061 91.9105 83.4538 91.5177 83.0017C91.0286 82.4458 90.3689 82.3124 89.7538 82.6311Z" fill="black"/>
</g>
<defs>
<clipPath id="clip0_176_5">
<rect width="100" height="90.6059" fill="white"/>
</clipPath>
</defs>
</svg>
