<svg width="46" height="50" viewBox="0 0 46 50" fill="none" xmlns="http://www.w3.org/2000/svg">
<path d="M14 42.56L30.64 43.04C32.9867 43.04 35.2533 42.2667 37.44 40.72L39.6 43.6C38.5333 44.8267 37.68 45.76 37.04 46.4C36.4 46.9867 35.44 47.5733 34.16 48.16C32.9333 48.7467 31.5467 49.04 30 49.04L15.04 48.4C8.37333 48.4 5.12 48.48 5.28 48.64C3.30667 48.5867 2.32 47.7067 2.32 46C2.48 44.9333 3.2 43.1733 4.48 40.72C5.76 38.2133 7.49333 33.7067 9.68 27.2C6.37333 27.2 3.41333 26.2133 0.8 24.24L2.48 21.28C4.77333 22.7733 7.57333 23.52 10.88 23.52C13.9733 15.9467 17.8933 10.2667 22.64 6.48C27.3867 2.69333 32.3467 0.799999 37.52 0.799999C39.9733 0.799999 41.9467 1.44 43.44 2.72C44.9333 3.94667 45.68 5.6 45.68 7.68C45.68 12.16 42.72 16.3733 36.8 20.32C30.9333 24.2133 24.24 26.4 16.72 26.88C14.2667 34.6667 11.52 39.9733 8.48 42.8C9.81333 42.64 11.6533 42.56 14 42.56ZM33.12 5.12C29.8133 5.12 26.7467 6.8 23.92 10.16C21.0933 13.52 19.0667 17.8667 17.84 23.2C23.1733 22.8267 27.84 21.2267 31.84 18.4C35.84 15.5733 37.84 12.6133 37.84 9.52C37.84 8.29333 37.3867 7.25333 36.48 6.4C35.5733 5.54666 34.4533 5.12 33.12 5.12Z" fill="#FF622C"/>
</svg>
