<svg width="334" height="157" viewBox="0 0 334 157" fill="none" xmlns="http://www.w3.org/2000/svg">
<g clip-path="url(#clip0_9_35)">
<circle cx="79.2376" cy="79.2376" r="73" transform="rotate(-135 79.2376 79.2376)" fill="#F8F8F8" stroke="#F8F8F8" stroke-width="4"/>
<path d="M41.7609 41.7609C62.4586 21.0631 96.0164 21.0631 116.714 41.7609C137.412 62.4587 137.412 96.0164 116.714 116.714C96.0164 137.412 62.4587 137.412 41.7609 116.714C21.0631 96.0164 21.0631 62.4587 41.7609 41.7609Z" stroke="#E3E3E3" stroke-width="4"/>
<path d="M116.714 41.7609C96.0164 21.0631 62.4586 21.0631 41.7608 41.7609C21.0631 62.4587 21.0631 96.0165 41.7609 116.714" stroke="#F2726E" stroke-width="4" stroke-linecap="round"/>
<path d="M130.856 27.6188C102.348 -0.889494 56.1271 -0.88948 27.6189 27.6188C-0.889398 56.1271 -0.889384 102.348 27.6189 130.856" stroke="#F2726E" stroke-width="4" stroke-linecap="round"/>
</g>
<path d="M58.6364 102V55.4545H64.2727V97H85.9091V102H58.6364ZM115.909 87.7273V67.0909H121.273V102H115.909V96.0909H115.545C114.727 97.8636 113.455 99.3712 111.727 100.614C110 101.841 107.818 102.455 105.182 102.455C103 102.455 101.061 101.977 99.3636 101.023C97.6667 100.053 96.3333 98.5985 95.3636 96.6591C94.3939 94.7045 93.9091 92.2424 93.9091 89.2727V67.0909H99.2727V88.9091C99.2727 91.4545 99.9848 93.4848 101.409 95C102.848 96.5152 104.682 97.2727 106.909 97.2727C108.242 97.2727 109.598 96.9318 110.977 96.25C112.371 95.5682 113.538 94.5227 114.477 93.1136C115.432 91.7045 115.909 89.9091 115.909 87.7273ZM136.46 81V102H131.097V67.0909H136.278V72.5455H136.733C137.551 70.7727 138.794 69.3485 140.46 68.2727C142.127 67.1818 144.278 66.6364 146.915 66.6364C149.278 66.6364 151.347 67.1212 153.119 68.0909C154.892 69.0455 156.271 70.5 157.256 72.4545C158.241 74.3939 158.733 76.8485 158.733 79.8182V102H153.369V80.1818C153.369 77.4394 152.657 75.303 151.233 73.7727C149.809 72.2273 147.854 71.4545 145.369 71.4545C143.657 71.4545 142.127 71.8258 140.778 72.5682C139.445 73.3106 138.392 74.3939 137.619 75.8182C136.847 77.2424 136.46 78.9697 136.46 81ZM182.716 102.727C179.443 102.727 176.625 101.955 174.261 100.409C171.898 98.8636 170.08 96.7348 168.807 94.0227C167.534 91.3106 166.898 88.2121 166.898 84.7273C166.898 81.1818 167.549 78.053 168.852 75.3409C170.17 72.6136 172.004 70.4848 174.352 68.9545C176.716 67.4091 179.473 66.6364 182.625 66.6364C185.08 66.6364 187.292 67.0909 189.261 68C191.231 68.9091 192.845 70.1818 194.102 71.8182C195.36 73.4545 196.14 75.3636 196.443 77.5455H191.08C190.67 75.9545 189.761 74.5455 188.352 73.3182C186.958 72.0758 185.08 71.4545 182.716 71.4545C180.625 71.4545 178.792 72 177.216 73.0909C175.655 74.1667 174.436 75.6894 173.557 77.6591C172.693 79.6136 172.261 81.9091 172.261 84.5455C172.261 87.2424 172.686 89.5909 173.534 91.5909C174.398 93.5909 175.61 95.1439 177.17 96.25C178.746 97.3561 180.595 97.9091 182.716 97.9091C184.11 97.9091 185.375 97.6667 186.511 97.1818C187.648 96.697 188.61 96 189.398 95.0909C190.186 94.1818 190.746 93.0909 191.08 91.8182H196.443C196.14 93.8788 195.39 95.7348 194.193 97.3864C193.011 99.0227 191.443 100.326 189.489 101.295C187.549 102.25 185.292 102.727 182.716 102.727ZM209.648 81V102H204.284V55.4545H209.648V72.5455H210.102C210.92 70.7424 212.148 69.3106 213.784 68.25C215.436 67.1742 217.633 66.6364 220.375 66.6364C222.754 66.6364 224.837 67.1136 226.625 68.0682C228.413 69.0076 229.799 70.4545 230.784 72.4091C231.784 74.3485 232.284 76.8182 232.284 79.8182V102H226.92V80.1818C226.92 77.4091 226.201 75.2652 224.761 73.75C223.337 72.2197 221.36 71.4545 218.83 71.4545C217.072 71.4545 215.496 71.8258 214.102 72.5682C212.723 73.3106 211.633 74.3939 210.83 75.8182C210.042 77.2424 209.648 78.9697 209.648 81ZM256.733 102.727C253.369 102.727 250.468 101.985 248.028 100.5C245.604 99 243.733 96.9091 242.415 94.2273C241.112 91.5303 240.46 88.3939 240.46 84.8182C240.46 81.2424 241.112 78.0909 242.415 75.3636C243.733 72.6212 245.566 70.4848 247.915 68.9545C250.278 67.4091 253.036 66.6364 256.188 66.6364C258.006 66.6364 259.801 66.9394 261.574 67.5455C263.347 68.1515 264.96 69.1364 266.415 70.5C267.869 71.8485 269.028 73.6364 269.892 75.8636C270.756 78.0909 271.188 80.8333 271.188 84.0909V86.3636H244.278V81.7273H265.733C265.733 79.7576 265.339 78 264.551 76.4545C263.778 74.9091 262.672 73.6894 261.233 72.7955C259.809 71.9015 258.127 71.4545 256.188 71.4545C254.051 71.4545 252.203 71.9848 250.642 73.0455C249.097 74.0909 247.907 75.4545 247.074 77.1364C246.241 78.8182 245.824 80.6212 245.824 82.5455V85.6364C245.824 88.2727 246.278 90.5076 247.188 92.3409C248.112 94.1591 249.392 95.5455 251.028 96.5C252.665 97.4394 254.566 97.9091 256.733 97.9091C258.142 97.9091 259.415 97.7121 260.551 97.3182C261.703 96.9091 262.695 96.303 263.528 95.5C264.362 94.6818 265.006 93.6667 265.46 92.4545L270.642 93.9091C270.097 95.6667 269.18 97.2121 267.892 98.5455C266.604 99.8636 265.013 100.894 263.119 101.636C261.225 102.364 259.097 102.727 256.733 102.727ZM294.892 67.0909V71.6364H276.074V67.0909H294.892ZM281.71 102V62.2727C281.71 60.2727 282.18 58.6061 283.119 57.2727C284.059 55.9394 285.278 54.9394 286.778 54.2727C288.278 53.6061 289.862 53.2727 291.528 53.2727C292.847 53.2727 293.922 53.3788 294.756 53.5909C295.589 53.803 296.21 54 296.619 54.1818L295.074 58.8182C294.801 58.7273 294.422 58.6136 293.938 58.4773C293.468 58.3409 292.847 58.2727 292.074 58.2727C290.301 58.2727 289.021 58.7197 288.233 59.6136C287.46 60.5076 287.074 61.8182 287.074 63.5455V102H281.71ZM305.864 115.091C304.955 115.091 304.144 115.015 303.432 114.864C302.72 114.727 302.227 114.591 301.955 114.455L303.318 109.727C304.621 110.061 305.773 110.182 306.773 110.091C307.773 110 308.659 109.553 309.432 108.75C310.22 107.962 310.939 106.682 311.591 104.909L312.591 102.182L299.682 67.0909H305.5L315.136 94.9091H315.5L325.136 67.0909H330.955L316.136 107.091C315.47 108.894 314.644 110.386 313.659 111.568C312.674 112.765 311.53 113.652 310.227 114.227C308.939 114.803 307.485 115.091 305.864 115.091Z" fill="#F2726E"/>
<defs>
<clipPath id="clip0_9_35">
<rect width="157" height="157" fill="white"/>
</clipPath>
</defs>
</svg>
