<svg width="138" height="46" viewBox="0 0 138 46" fill="none" xmlns="http://www.w3.org/2000/svg">
<path d="M7 27.28L15.32 27.52C16.4933 27.52 17.6267 27.1333 18.72 26.36L19.8 27.8C19.2667 28.4133 18.84 28.88 18.52 29.2C18.2 29.4933 17.72 29.7867 17.08 30.08C16.4667 30.3733 15.7733 30.52 15 30.52L7.52 30.2C4.18667 30.2 2.56 30.24 2.64 30.32C1.65333 30.2933 1.16 29.8533 1.16 29C1.24 28.4667 1.6 27.5867 2.24 26.36C2.88 25.1067 3.74667 22.8533 4.84 19.6C3.18667 19.6 1.70667 19.1067 0.4 18.12L1.24 16.64C2.38667 17.3867 3.78667 17.76 5.44 17.76C6.98667 13.9733 8.94667 11.1333 11.32 9.24C13.6933 7.34667 16.1733 6.4 18.76 6.4C19.9867 6.4 20.9733 6.72 21.72 7.36C22.4667 7.97333 22.84 8.8 22.84 9.84C22.84 12.08 21.36 14.1867 18.4 16.16C15.4667 18.1067 12.12 19.2 8.36 19.44C7.13333 23.3333 5.76 25.9867 4.24 27.4C4.90667 27.32 5.82667 27.28 7 27.28ZM16.56 8.56C14.9067 8.56 13.3733 9.4 11.96 11.08C10.5467 12.76 9.53333 14.9333 8.92 17.6C11.5867 17.4133 13.92 16.6133 15.92 15.2C17.92 13.7867 18.92 12.3067 18.92 10.76C18.92 10.1467 18.6933 9.62667 18.24 9.2C17.7867 8.77333 17.2267 8.56 16.56 8.56ZM39.6822 26.6L40.5222 27.28C40.0689 28.4 39.3489 29.3467 38.3622 30.12C37.4022 30.8933 36.5222 31.28 35.7222 31.28C34.9489 31.28 34.3355 31.0133 33.8822 30.48C33.4289 29.92 33.2022 29.2 33.2022 28.32C33.2022 27.44 33.3489 26.3067 33.6422 24.92C32.3889 26.8933 31.0422 28.44 29.6022 29.56C28.1622 30.68 26.9489 31.24 25.9622 31.24C24.4689 31.24 23.7222 30.1733 23.7222 28.04C23.7222 26.2267 24.3355 23.9067 25.5622 21.08C26.7889 18.2533 27.6822 16.6133 28.2422 16.16L30.1622 17C29.0689 18.76 28.2422 20.4933 27.6822 22.2C27.1222 23.9067 26.8422 25.0533 26.8422 25.64C26.8422 26.2 27.0155 26.6533 27.3622 27C27.7355 27.3467 28.1622 27.52 28.6422 27.52C29.7089 27.52 31.0289 26.5467 32.6022 24.6C34.2022 22.6267 35.8289 19.6933 37.4822 15.8L39.5222 16.72C39.4689 16.9333 38.8555 18.48 37.6822 21.36C36.5355 24.24 35.9622 25.9733 35.9622 26.56C35.9622 27.12 36.0822 27.5467 36.3222 27.84C36.5889 28.1333 36.8422 28.28 37.0822 28.28C37.3489 28.28 37.5489 28.2667 37.6822 28.24C37.8155 28.2133 37.9489 28.16 38.0822 28.08C38.2155 28 38.3222 27.9333 38.4022 27.88C38.5089 27.8267 38.6289 27.7333 38.7622 27.6L39.0822 27.32C39.1355 27.24 39.2289 27.12 39.3622 26.96C39.5222 26.7733 39.6289 26.6533 39.6822 26.6ZM58.0194 26.16L58.8594 26.8C58.2727 27.9733 57.4594 28.96 56.4194 29.76C55.406 30.56 54.486 30.96 53.6594 30.96C52.8327 30.96 52.1794 30.72 51.6994 30.24C51.2194 29.76 50.9794 29.16 50.9794 28.44C50.9794 27.72 51.4327 26.4667 52.3394 24.68C53.2727 22.8667 53.7394 21.5333 53.7394 20.68C53.7394 20.3067 53.5794 19.9733 53.2594 19.68C52.966 19.36 52.606 19.2 52.1794 19.2C50.8194 19.2 49.446 20.24 48.0594 22.32C46.6727 24.3733 45.126 27.3467 43.4194 31.24L41.0194 30.4C41.526 27.3067 42.246 24.2933 43.1794 21.36C44.1394 18.4 45.0194 16.28 45.8194 15L47.4594 15.52C46.7127 17.4133 45.766 20.68 44.6194 25.32C48.2994 19.0267 51.686 15.88 54.7794 15.88C55.446 15.88 55.9927 16.1067 56.4194 16.56C56.8727 17.0133 57.0994 17.5467 57.0994 18.16C57.0994 18.7733 57.0194 19.3333 56.8594 19.84C56.6994 20.32 56.1927 21.4667 55.3394 23.28C54.5127 25.0667 54.0994 26.1867 54.0994 26.64C54.0994 27.0933 54.2327 27.4533 54.4994 27.72C54.766 27.96 55.0194 28.08 55.2594 28.08C55.4994 28.08 55.6994 28.04 55.8594 27.96C56.0194 27.88 56.1927 27.76 56.3794 27.6C56.5927 27.44 56.7794 27.2933 56.9394 27.16C57.0994 27.0267 57.286 26.8533 57.4994 26.64C57.7394 26.4 57.9127 26.24 58.0194 26.16ZM70.6541 25.32L71.6141 26.12C70.9741 27.5867 69.9474 28.76 68.5341 29.64C67.1207 30.52 65.7474 30.96 64.4141 30.96C63.1074 30.96 62.0141 30.5467 61.1341 29.72C60.2807 28.8933 59.8541 27.76 59.8541 26.32C59.8541 24.88 60.4807 23.32 61.7341 21.64C62.9874 19.96 64.6007 18.5733 66.5741 17.48C68.5741 16.3867 70.5341 15.84 72.4541 15.84C72.7207 15.84 73.1207 15.8667 73.6541 15.92L73.5341 17.48C70.6007 17.6133 68.1607 18.5067 66.2141 20.16C64.2941 21.8133 63.3341 23.5733 63.3341 25.44C63.3341 26.2133 63.5741 26.84 64.0541 27.32C64.5341 27.8 65.1607 28.04 65.9341 28.04C67.1607 28.04 68.7341 27.1333 70.6541 25.32ZM89.8634 28.08L90.7834 28.84C89.6634 30.7067 88.2101 31.64 86.4234 31.64C84.8768 31.64 84.1034 30.88 84.1034 29.36C84.1034 28.48 84.4768 27.08 85.2234 25.16C85.9968 23.2133 86.3834 21.9333 86.3834 21.32C86.3834 20.5467 85.8901 20.16 84.9034 20.16C83.9168 20.16 82.5701 21.2267 80.8634 23.36C79.1834 25.4667 77.7701 27.92 76.6234 30.72L74.2634 29.88C75.6501 22.92 79.2768 13.6 85.1434 1.92L87.1034 2.56C84.1434 8.48 82.0234 13.1867 80.7434 16.68C79.4101 20.3067 78.4101 23.3067 77.7434 25.68C79.7968 22.2933 81.5568 19.9467 83.0234 18.64C84.5168 17.3333 85.8101 16.68 86.9034 16.68C88.8768 16.68 89.8634 17.3867 89.8634 18.8C89.8634 19.68 89.3701 21.2533 88.3834 23.52C87.3968 25.7867 86.9034 27.2933 86.9034 28.04C86.9034 28.7867 87.2634 29.16 87.9834 29.16C88.3568 29.16 88.9834 28.8 89.8634 28.08ZM102.928 26.28L103.848 27C103.021 28.1467 101.888 29.1067 100.448 29.88C99.0081 30.6267 97.6081 31 96.2481 31C94.8881 31 93.7948 30.6 92.9681 29.8C92.1415 29 91.7281 27.9467 91.7281 26.64C91.7281 24.1867 93.0215 21.7733 95.6081 19.4C98.2215 17.0267 100.861 15.84 103.528 15.84C105.288 15.84 106.168 16.5333 106.168 17.92C106.168 19.36 105.235 20.8133 103.368 22.28C101.528 23.7467 98.9281 25.08 95.5681 26.28C95.8081 26.8933 96.1815 27.3733 96.6881 27.72C97.1948 28.0667 97.7148 28.24 98.2481 28.24C99.3948 28.24 100.955 27.5867 102.928 26.28ZM95.3681 25.08C97.5281 24.3333 99.3815 23.4 100.928 22.28C102.475 21.16 103.248 20.1333 103.248 19.2C103.248 18.8533 103.115 18.5467 102.848 18.28C102.581 18.0133 102.275 17.88 101.928 17.88C100.675 17.88 99.3148 18.6667 97.8481 20.24C96.4081 21.7867 95.5815 23.4 95.3681 25.08ZM115.523 15.28L114.243 20.12L119.443 19.52L118.283 21.4L113.803 22C113.456 23.44 112.869 25.6133 112.043 28.52C110.256 34.8133 109.363 38.8 109.363 40.48L106.803 41.8C106.803 39.5067 107.789 35.08 109.763 28.52C110.776 25.24 111.403 23.1333 111.643 22.2C110.709 22.44 109.856 22.56 109.083 22.56C107.563 22.56 106.803 21.96 106.803 20.76C106.803 20.0933 107.309 19.2933 108.323 18.36C109.789 17 111.536 15.8 113.563 14.76C115.136 9.4 116.269 6.04 116.963 4.68C117.896 2.84 118.749 1.66666 119.523 1.16C120.669 0.439998 121.856 0.0799975 123.083 0.0799975C124.309 0.0799975 125.176 0.426665 125.683 1.12C126.189 1.81333 126.416 2.62667 126.363 3.56C126.229 6.92 122.616 10.8267 115.523 15.28ZM121.923 3.48C120.429 3.48 119.323 4.2 118.603 5.64C118.043 6.76 117.549 8.10667 117.122 9.68C116.696 11.2533 116.389 12.3333 116.203 12.92C117.669 12.0133 119.243 10.7867 120.923 9.24C122.603 7.69333 123.469 6.34666 123.523 5.2C123.576 4.05333 123.043 3.48 121.923 3.48ZM112.203 20.32L113.083 16.8C112.069 17.2267 111.269 17.6667 110.683 18.12C110.123 18.5733 109.843 18.96 109.843 19.28C109.843 19.9733 110.629 20.32 112.203 20.32ZM137.035 28.48L137.155 29.52C137.049 29.6 135.809 30.08 133.435 30.96C133.115 32.72 132.702 34.4533 132.195 36.16C131.715 37.8933 131.222 39.2 130.715 40.08C130.235 40.9867 129.662 41.88 128.995 42.76C127.662 44.52 125.862 45.4 123.595 45.4C122.475 45.4 121.582 45.0533 120.915 44.36C120.249 43.6667 119.915 42.72 119.915 41.52C119.915 36.9067 123.782 33.2 131.515 30.4L133.675 22.8C131.382 26.24 129.315 28.36 127.475 29.16C126.569 29.5867 125.609 29.8 124.595 29.8C123.609 29.8 122.809 29.48 122.195 28.84C121.609 28.2 121.315 27.2667 121.315 26.04C121.315 24.8133 121.729 23.1067 122.555 20.92C123.409 18.7067 124.355 16.8533 125.395 15.36L127.355 16.2C127.275 16.28 126.902 16.9867 126.235 18.32C125.062 20.7467 124.475 22.5467 124.475 23.72C124.475 24.8933 124.702 25.68 125.155 26.08C125.609 26.48 126.275 26.68 127.155 26.68C128.035 26.68 129.022 26.16 130.115 25.12C131.235 24.0533 132.955 21.96 135.275 18.84L136.715 19.68C136.502 20.56 136.022 22.16 135.275 24.48C134.555 26.7733 134.062 28.5333 133.795 29.76L137.035 28.48ZM131.275 31.6C129.595 32.3733 128.115 33.2533 126.835 34.24C124.435 36.0533 123.235 37.8133 123.235 39.52C123.235 40.16 123.422 40.68 123.795 41.08C124.169 41.48 124.635 41.68 125.195 41.68C127.862 41.68 129.889 38.32 131.275 31.6Z" fill="#FF622C"/>
</svg>
